<svg width="426" height="407" viewBox="0 0 426 407" fill="none" xmlns="http://www.w3.org/2000/svg">
<path d="M98.0155 259V232.061H30.2102V212.655L69.9345 108.321H98.0155L56.0081 209.915H98.0155V165.625H123.585V209.915H140.023V232.061H123.585V259H98.0155ZM169.832 124.303C179.421 111.974 193.728 105.81 212.753 105.81C231.778 105.81 246.008 111.898 255.445 124.074C264.881 136.25 269.6 156.417 269.6 184.574C269.6 212.579 264.805 232.441 255.217 244.16C245.78 255.728 231.549 261.511 212.524 261.511C193.652 261.511 179.421 255.728 169.832 244.16C160.396 232.593 155.677 212.807 155.677 184.802C155.677 156.645 160.396 136.479 169.832 124.303ZM236.268 140.512C231.549 132.141 223.711 127.955 212.753 127.955C201.794 127.955 193.88 132.141 189.009 140.512C184.291 148.731 181.932 163.266 181.932 184.117C181.932 204.969 184.367 219.428 189.238 227.494C194.26 235.409 202.099 239.366 212.753 239.366C223.559 239.366 231.321 235.409 236.039 227.494C240.91 219.428 243.345 204.969 243.345 184.117C243.345 163.266 240.986 148.731 236.268 140.512ZM353.516 259V232.061H285.711V212.655L325.435 108.321H353.516L311.509 209.915H353.516V165.625H379.086V209.915H395.524V232.061H379.086V259H353.516Z" fill="#105F43"/>
<mask id="mask0_1075_2889" style="mask-type:alpha" maskUnits="userSpaceOnUse" x="0" y="69" width="422" height="338">
<rect y="69" width="422" height="338" fill="#D9D9D9"/>
</mask>
<g mask="url(#mask0_1075_2889)">
<path d="M421.702 290.125C421.702 290.125 420.906 289.394 419.38 289.567C419.141 287.936 416.787 288.614 416.787 288.614C417.014 287.98 416.089 287.487 416.089 287.487C415.049 286.766 413.02 288.527 413.02 288.527C413.177 288.142 412.749 287.536 411.959 287.254C411.169 286.972 410.064 287.871 410.064 287.871C409.22 288.69 407.445 289.399 406.005 289.903C404.56 289.703 403.374 289.491 402.757 289.313C400.424 288.657 394.124 285.585 394.86 284.301C395.601 283.022 404.933 284.328 404.803 281.196C404.803 281.196 404.787 280.362 401.626 279.929C398.465 279.5 386.167 279.159 383.764 278.926C377.745 278.346 373.447 282.096 373.447 282.096C373.447 282.096 367.098 285.764 371.823 291.767L376.862 293.886C376.862 293.886 405.507 296.687 415.201 295.18C415.206 295.186 423.688 293.094 421.702 290.125Z" fill="#EA997D"/>
<path d="M264.575 242.024C264.575 242.024 250.615 259.486 262.247 293.36C262.247 293.36 281.262 327.619 299.747 331.802C312.126 334.603 345.728 319.655 365.744 309.496C369.631 307.523 368.916 303.2 371 301.948C375.774 299.082 378.713 297.213 378.713 297.213C378.713 297.213 380.743 290.505 370.729 279.777C370.729 279.777 367.357 281.094 362.226 283.088C360.153 283.89 358.118 279.815 354.107 281.852C338.437 289.812 313.279 301.824 311.422 301.737C308.602 301.607 285.603 267.44 285.603 267.44C285.603 267.44 273.23 246.591 264.575 242.024Z" fill="#EEEEEE"/>
<path d="M-4.69856 290.126C-4.69856 290.126 -3.90288 289.394 -2.37649 289.568C-2.13833 287.937 0.21622 288.614 0.21622 288.614C-0.0111154 287.98 0.914465 287.487 0.914465 287.487C1.95371 286.767 3.9835 288.528 3.9835 288.528C3.82653 288.143 4.25413 287.536 5.04439 287.254C5.83466 286.973 6.93886 287.872 6.93886 287.872C7.78325 288.69 9.55863 289.4 10.9984 289.904C12.4436 289.703 13.629 289.492 14.2461 289.313C16.579 288.658 22.8794 285.585 22.1433 284.301C21.4017 283.023 12.0701 284.328 12.2001 281.197C12.2001 281.197 12.2163 280.362 15.3773 279.929C18.5384 279.501 30.8362 279.16 33.2394 278.927C39.2584 278.347 43.5561 282.096 43.5561 282.096C43.5561 282.096 49.9053 285.764 45.18 291.768L40.1407 293.886C40.1407 293.886 11.4964 296.687 1.79674 295.181C1.79674 295.186 -6.68504 293.095 -4.69856 290.126Z" fill="#EA997D"/>
<path d="M152.975 242.078C152.975 242.078 166.388 259.481 154.756 293.355C154.756 293.355 135.741 327.614 117.251 331.797C104.872 334.598 71.2699 319.649 51.2536 309.49C47.3672 307.518 48.0817 303.194 45.9978 301.943C41.2237 299.077 38.2846 297.207 38.2846 297.207C38.2846 297.207 36.2548 290.5 46.2684 279.772C46.2684 279.772 49.6406 281.088 54.7773 283.082C56.8504 283.884 58.8856 279.81 62.8964 281.847C78.5663 289.806 103.725 301.818 105.581 301.731C108.401 301.601 131.4 267.435 131.4 267.435C131.4 267.435 143.866 247.328 152.975 242.078Z" fill="#EEEEEE"/>
<path d="M185.29 151.254C185.29 151.254 172.521 221.18 174.415 254.773C174.415 254.773 179.319 271.032 189.452 278.347C199.585 285.661 202.129 295.799 208.705 304.007C208.705 304.007 215.552 292.981 217.176 288.647C218.8 284.312 230.535 265.609 240.5 254.773C240.5 254.773 244.381 182.138 234.161 151.254H185.29V151.254Z" fill="#DCDCDC"/>
<path d="M194.378 191.348C194.378 191.348 195.314 213.454 194.378 217.041C193.441 220.628 184.683 226.506 175.709 230.722C175.709 230.722 187.254 246.526 209.815 246.055C232.375 245.589 238.107 236.237 241.69 231.09C241.69 231.09 224.478 225 224.067 217.675C223.655 210.349 224.067 191.348 224.067 191.348H194.378V191.348Z" fill="#EA997D"/>
<path d="M209.018 212.332C216.158 212.332 221.116 207.494 223.904 203.647C223.947 197.146 224.071 191.348 224.071 191.348H194.377C194.377 191.348 194.626 197.14 194.74 203.349C197.127 207.234 201.695 212.332 209.018 212.332Z" fill="#D87E66"/>
<path d="M189.403 169.914C189.403 169.914 188.174 166.3 183.34 166.723C178.664 167.135 180.25 179.152 184.369 181.13C188.483 183.107 189.841 177.136 189.841 177.136L189.403 169.914Z" fill="#EA997D"/>
<path d="M230.334 169.914C230.334 169.914 231.563 166.3 236.396 166.723C241.067 167.135 239.487 179.152 235.373 181.13C231.259 183.107 229.901 177.136 229.901 177.136L230.334 169.914Z" fill="#EA997D"/>
<path d="M234.318 168.972C232.256 194.675 225.057 207.017 209.868 207.017C194.675 207.017 187.384 196.826 185.419 168.972C183.968 148.404 194.734 135.677 209.868 135.677C224.997 135.677 236.028 147.613 234.318 168.972Z" fill="#EA997D"/>
<path d="M184.077 166.696L184.981 170.597L186.935 171.345C186.935 171.345 188.083 164.707 188.586 160.118C189.441 152.305 189.836 146.037 209.225 145.852C229.382 145.657 229.355 152.143 231.168 159.761C232.478 165.255 232.516 171.475 232.516 171.475L234.578 170.597L235.861 166.728C235.861 166.728 235.769 160.21 235.861 154.072C235.861 154.072 234.941 140.093 228.083 138.581C228.083 138.581 223.845 130.048 211.098 130.048C194.876 130.048 194.378 134.106 193.928 135.103C193.928 135.103 190.848 135.834 188.954 138.543C187.06 141.252 186.61 141.713 184.445 148.031C184.445 148.031 183.877 150.761 184.083 152.901C184.207 154.223 183.087 161.803 184.077 166.696Z" fill="#303030"/>
<path d="M184.98 170.218C184.98 170.218 186.426 185.258 188.499 191.673C190.572 198.083 193.673 207.863 209.625 207.863C225.576 207.863 229.408 195.835 230.789 191.668C232.526 186.423 234.107 177.261 234.578 170.218H232.613C232.613 170.218 230.821 187.875 226.837 195.195C222.859 202.51 211.568 202.445 209.776 202.445C207.979 202.445 195.308 202.12 192.466 195.179C189.955 189.04 187.855 182.138 186.875 170.218H184.98V170.218Z" fill="#303030"/>
<path d="M186.393 165.396L187.877 156.109C187.877 156.109 180.234 159.739 186.393 165.396Z" fill="#D1D1DB"/>
<path d="M209.76 151.569C209.76 151.569 208.391 151.298 206.29 152.831C204.185 154.364 197.094 156.803 189.451 157.8C181.814 158.791 186.685 163.126 186.415 165.385C186.144 167.644 179.016 214.419 174.415 254.784C174.415 254.784 170.355 246.792 170.085 241.103C170.085 241.103 165.711 236.676 166.388 228.956C167.064 221.235 164.331 213.335 167.102 197.352C169.873 181.368 182.496 161.05 183.665 149.672C184.834 138.294 191.514 128 209.89 128C228.266 128 235.319 142.358 235.855 148.995C236.391 155.632 250.274 184.711 250.816 199.79C251.357 214.868 253.344 213.427 250.367 220.828C247.39 228.235 250.821 238.887 245.95 243.221C245.95 243.221 242.984 252.611 240.499 254.778C240.499 254.778 238.226 196.626 233.517 165.558C233.517 165.558 232.239 157.523 227.817 156.711C223.395 155.898 216.266 155.464 212.483 152.555C212.483 152.56 211.119 151.406 209.76 151.569Z" fill="#EEEEEE"/>
<path d="M184.461 147.299C183.682 147.299 182.935 146.882 182.545 146.145C181.988 145.089 182.388 143.777 183.444 143.219C184.342 142.742 205.82 131.63 235.72 142.916C236.841 143.338 237.404 144.59 236.981 145.706C236.559 146.828 235.309 147.391 234.194 146.969C206.21 136.403 185.674 146.941 185.474 147.044C185.149 147.218 184.802 147.299 184.461 147.299Z" fill="#A87E33"/>
<path d="M235.952 151.839C235.671 151.839 235.384 151.785 235.108 151.666C206.739 139.665 184.926 151.444 184.709 151.563C183.665 152.143 182.344 151.763 181.765 150.718C181.186 149.672 181.565 148.35 182.609 147.77C183.573 147.239 206.501 134.853 236.791 147.667C237.89 148.133 238.409 149.406 237.944 150.506C237.597 151.341 236.796 151.839 235.952 151.839Z" fill="#303030"/>
<path d="M171.167 239.613C171.167 239.613 178.165 193.353 180.482 181.536C180.482 181.536 166.431 231.621 171.167 239.613Z" fill="#D1D1DB"/>
<path d="M235.817 161.061C235.817 161.061 244.753 195.65 249.923 202.027L235.817 161.061Z" fill="#D1D1DB"/>
<path d="M185.44 158.883C185.44 158.883 186.929 155.464 187.876 152.175C187.876 152.175 185.749 155.567 185.44 158.883Z" fill="#D1D1DB"/>
<path d="M193.36 210.886C193.36 210.886 207.433 213.969 225.295 210.81L226.107 220.519C226.107 220.519 247.65 232.515 264.575 242.029C264.575 242.029 262.735 327.576 261.652 365.86C261.652 365.86 268.326 652.759 269.95 673.478C269.95 673.478 265.349 679.162 257.23 678.349C249.111 677.536 249.176 677.661 236.526 679.568C222.139 681.735 217.923 677.298 204.726 677.038C191.839 676.789 177.874 679.232 175.059 679.568C159.01 681.465 156.921 677.098 148.975 678.349C137.072 680.224 136.796 676.182 136.796 676.182C136.796 676.182 156.737 411.735 157.776 365.497C157.776 365.497 154.182 262.136 152.981 242.024C152.981 242.024 176.38 228.576 192.483 219.365L193.36 210.886Z" fill="#EEEEEE"/>
<path d="M208.326 314.34C208.023 314.34 207.785 314.22 207.785 313.922L208.158 213.184C208.158 212.886 208.396 212.653 208.699 212.674C208.997 212.674 209.241 212.934 209.241 213.232L208.867 313.917C208.867 314.215 208.624 314.34 208.326 314.34Z" fill="#D1D1DB"/>
<path d="M208.45 357.727C208.304 357.727 208.158 357.668 208.05 357.554C207.849 357.332 207.86 356.99 208.082 356.79C236.548 330.637 257.852 269.109 258.069 268.491C258.166 268.209 258.475 268.058 258.756 268.155C259.038 268.253 259.189 268.561 259.092 268.843C258.881 269.466 238.735 330.642 208.818 357.586C208.715 357.678 208.58 357.727 208.45 357.727Z" fill="#D1D1DB"/>
<path d="M230.447 345.266C230.236 345.266 230.036 345.141 229.949 344.935C229.83 344.659 229.96 344.345 230.231 344.226C246.658 337.177 256.412 322.851 256.504 322.705C256.672 322.456 257.007 322.391 257.256 322.559C257.505 322.727 257.57 323.062 257.403 323.312C257.305 323.458 246.49 339.983 230.653 345.223C230.588 345.244 230.517 345.266 230.447 345.266Z" fill="#D1D1DB"/>
<path d="M199.324 438.376C199.043 438.376 198.81 438.159 198.783 437.877C196.71 412.25 187.497 387.077 187.405 386.822C187.302 386.541 187.443 386.232 187.725 386.123C188.006 386.021 188.315 386.161 188.423 386.443C188.515 386.698 197.781 412.006 199.865 437.785C199.887 438.083 199.665 438.343 199.367 438.37C199.357 438.376 199.34 438.376 199.324 438.376Z" fill="#D1D1DB"/>
<path d="M155.649 292.699L154.247 257.113C154.236 256.815 153.982 256.593 153.684 256.609C153.386 256.62 153.154 256.902 153.164 257.2L154.572 292.813C154.907 292.743 155.27 292.71 155.649 292.699Z" fill="#D1D1DB"/>
<path d="M263.406 294.834C263.401 294.834 263.395 294.834 263.395 294.834C263.098 294.834 262.859 294.693 262.865 294.39L263.661 259.048C263.666 258.75 263.92 258.538 264.213 258.549C264.51 258.555 264.748 258.82 264.743 259.118L263.947 294.412C263.937 294.704 263.698 294.834 263.406 294.834Z" fill="#D1D1DB"/>
</g>
<mask id="mask1_1075_2889" style="mask-type:alpha" maskUnits="userSpaceOnUse" x="21" y="83" width="384" height="203">
<rect x="21" y="83" width="384" height="203" fill="#D9D9D9"/>
</mask>
<g mask="url(#mask1_1075_2889)">
<g filter="url(#filter0_d_1075_2889)">
<path d="M97.9374 259H94.9374V262H97.9374V259ZM97.9374 232.061H100.937V229.061H97.9374V232.061ZM30.132 232.061H27.132V235.061H30.132V232.061ZM30.132 212.655L27.3284 211.587L27.132 212.103V212.655H30.132ZM69.8564 108.321V105.321H67.7885L67.0527 107.254L69.8564 108.321ZM97.9374 108.321L100.71 109.468L102.424 105.321H97.9374V108.321ZM55.93 209.915L53.1577 208.769L51.4432 212.915H55.93V209.915ZM97.9374 209.915V212.915H100.937V209.915H97.9374ZM97.9374 165.625V162.625H94.9374V165.625H97.9374ZM123.507 165.625H126.507V162.625H123.507V165.625ZM123.507 209.915H120.507V212.915H123.507V209.915ZM139.945 209.915H142.945V206.915H139.945V209.915ZM139.945 232.061V235.061H142.945V232.061H139.945ZM123.507 232.061V229.061H120.507V232.061H123.507ZM123.507 259V262H126.507V259H123.507ZM100.937 259V232.061H94.9374V259H100.937ZM97.9374 229.061H30.132V235.061H97.9374V229.061ZM33.132 232.061V212.655H27.132V232.061H33.132ZM32.9357 213.722L72.66 109.389L67.0527 107.254L27.3284 211.587L32.9357 213.722ZM69.8564 111.321H97.9374V105.321H69.8564V111.321ZM95.165 107.175L53.1577 208.769L58.7024 211.062L100.71 109.468L95.165 107.175ZM55.93 212.915H97.9374V206.915H55.93V212.915ZM100.937 209.915V165.625H94.9374V209.915H100.937ZM97.9374 168.625H123.507V162.625H97.9374V168.625ZM120.507 165.625V209.915H126.507V165.625H120.507ZM123.507 212.915H139.945V206.915H123.507V212.915ZM136.945 209.915V232.061H142.945V209.915H136.945ZM139.945 229.061H123.507V235.061H139.945V229.061ZM120.507 232.061V259H126.507V232.061H120.507ZM123.507 256H97.9374V262H123.507V256ZM169.754 124.303L167.386 122.461L167.383 122.465L169.754 124.303ZM255.367 124.074L252.996 125.912L252.996 125.912L255.367 124.074ZM255.139 244.16L252.817 242.261L252.814 242.264L255.139 244.16ZM169.754 244.16L167.429 246.057L167.437 246.066L167.444 246.075L169.754 244.16ZM236.19 140.512L233.576 141.985L233.582 141.995L233.588 142.005L236.19 140.512ZM188.931 140.512L186.338 139.003L186.334 139.011L186.33 139.018L188.931 140.512ZM189.16 227.494L186.591 229.045L186.609 229.074L186.627 229.102L189.16 227.494ZM235.961 227.494L233.393 225.944L233.389 225.951L233.384 225.958L235.961 227.494ZM172.122 126.144C181.017 114.707 194.351 108.81 212.675 108.81V102.81C192.948 102.81 177.668 109.241 167.386 122.461L172.122 126.144ZM212.675 108.81C231.013 108.81 244.26 114.641 252.996 125.912L257.738 122.237C247.6 109.156 232.386 102.81 212.675 102.81V108.81ZM252.996 125.912C261.804 137.278 266.521 156.599 266.521 184.574H272.521C272.521 156.234 267.802 135.223 257.738 122.237L252.996 125.912ZM266.521 184.574C266.521 212.403 261.724 231.373 252.817 242.261L257.46 246.06C267.73 233.509 272.521 212.755 272.521 184.574H266.521ZM252.814 242.264C244.098 252.949 230.839 258.511 212.446 258.511V264.511C232.104 264.511 247.306 258.507 257.463 246.057L252.814 242.264ZM212.446 258.511C194.218 258.511 180.941 252.955 172.064 242.246L167.444 246.075C177.745 258.501 192.929 264.511 212.446 264.511V258.511ZM172.079 242.264C163.325 231.533 158.599 212.644 158.599 184.802H152.599C152.599 212.971 157.311 233.653 167.429 246.057L172.079 242.264ZM158.599 184.802C158.599 156.828 163.317 137.506 172.125 126.14L167.383 122.465C157.318 135.451 152.599 156.463 152.599 184.802H158.599ZM238.803 139.039C233.469 129.575 224.533 124.955 212.675 124.955V130.955C222.733 130.955 229.474 134.707 233.576 141.985L238.803 139.039ZM212.675 124.955C200.817 124.955 191.826 129.572 186.338 139.003L191.524 142.021C195.778 134.71 202.616 130.955 212.675 130.955V124.955ZM186.33 139.018C181.184 147.982 178.854 163.231 178.854 184.117H184.854C184.854 163.301 187.242 149.479 191.533 142.005L186.33 139.018ZM178.854 184.117C178.854 205 181.256 220.209 186.591 229.045L191.728 225.944C187.322 218.647 184.854 204.938 184.854 184.117H178.854ZM186.627 229.102C192.283 238.015 201.159 242.366 212.675 242.366V236.366C202.882 236.366 196.082 232.803 191.693 225.887L186.627 229.102ZM212.675 242.366C224.322 242.366 233.177 238.024 238.538 229.031L233.384 225.958C229.309 232.794 222.64 236.366 212.675 236.366V242.366ZM238.529 229.045C243.864 220.209 246.267 205 246.267 184.117H240.267C240.267 204.938 237.799 218.647 233.393 225.944L238.529 229.045ZM246.267 184.117C246.267 163.231 243.937 147.982 238.791 139.018L233.588 142.005C237.878 149.479 240.267 163.301 240.267 184.117H246.267ZM353.438 259H350.438V262H353.438V259ZM353.438 232.061H356.438V229.061H353.438V232.061ZM285.633 232.061H282.633V235.061H285.633V232.061ZM285.633 212.655L282.829 211.587L282.633 212.103V212.655H285.633ZM325.357 108.321V105.321H323.289L322.553 107.254L325.357 108.321ZM353.438 108.321L356.21 109.468L357.925 105.321H353.438V108.321ZM311.431 209.915L308.658 208.769L306.944 212.915H311.431V209.915ZM353.438 209.915V212.915H356.438V209.915H353.438ZM353.438 165.625V162.625H350.438V165.625H353.438ZM379.008 165.625H382.008V162.625H379.008V165.625ZM379.008 209.915H376.008V212.915H379.008V209.915ZM395.445 209.915H398.445V206.915H395.445V209.915ZM395.445 232.061V235.061H398.445V232.061H395.445ZM379.008 232.061V229.061H376.008V232.061H379.008ZM379.008 259V262H382.008V259H379.008ZM356.438 259V232.061H350.438V259H356.438ZM353.438 229.061H285.633V235.061H353.438V229.061ZM288.633 232.061V212.655H282.633V232.061H288.633ZM288.436 213.722L328.161 109.389L322.553 107.254L282.829 211.587L288.436 213.722ZM325.357 111.321H353.438V105.321H325.357V111.321ZM350.666 107.175L308.658 208.769L314.203 211.062L356.21 109.468L350.666 107.175ZM311.431 212.915H353.438V206.915H311.431V212.915ZM356.438 209.915V165.625H350.438V209.915H356.438ZM353.438 168.625H379.008V162.625H353.438V168.625ZM376.008 165.625V209.915H382.008V165.625H376.008ZM379.008 212.915H395.445V206.915H379.008V212.915ZM392.445 209.915V232.061H398.445V209.915H392.445ZM395.445 229.061H379.008V235.061H395.445V229.061ZM376.008 232.061V259H382.008V232.061H376.008ZM379.008 256H353.438V262H379.008V256Z" fill="#F7F7F7"/>
</g>
</g>
<path d="M60.1628 344.991C59.9167 344.991 59.6792 344.986 59.4504 344.974C59.2215 344.957 58.9983 344.923 58.7808 344.871C58.5634 344.82 58.3517 344.745 58.1457 344.648C57.9454 344.545 57.7508 344.408 57.562 344.236C57.4418 344.127 57.3245 344.001 57.2101 343.858C57.1013 343.71 57.0041 343.538 56.9182 343.343C56.8381 343.149 56.7723 342.926 56.7208 342.674C56.675 342.422 56.6521 342.136 56.6521 341.816V332.691H58.7036V341.198C58.7036 341.507 58.7265 341.804 58.7723 342.09C58.818 342.376 58.9239 342.631 59.0899 342.854C59.2386 343.054 59.4275 343.197 59.6564 343.283C59.8853 343.369 60.1914 343.412 60.5748 343.412H61.5791V344.991H60.1628ZM61.3731 345V343.421H62.9867C62.7636 343.054 62.6177 342.645 62.549 342.193C62.4632 341.621 62.4202 341.04 62.4202 340.451C62.4202 340.205 62.4231 339.941 62.4288 339.661C62.4403 339.381 62.466 339.095 62.5061 338.803C62.5518 338.511 62.6177 338.225 62.7035 337.944C62.795 337.658 62.9181 337.392 63.0726 337.146C63.2614 336.826 63.4817 336.571 63.7335 336.382C63.9853 336.188 64.2485 336.039 64.5232 335.936C64.7979 335.833 65.0725 335.767 65.3472 335.738C65.6219 335.704 65.8765 335.687 66.1111 335.687H68.0167V334.399H70.0681V335.687H71.9651C72.2168 335.687 72.4801 335.704 72.7547 335.738C73.0294 335.773 73.2984 335.841 73.5616 335.944C73.8305 336.047 74.088 336.196 74.3341 336.391C74.5859 336.58 74.8119 336.831 75.0122 337.146C75.3384 337.673 75.5272 338.222 75.5787 338.794C75.6302 339.372 75.6559 339.924 75.6559 340.451C75.6559 340.765 75.6445 341.069 75.6216 341.361C75.6044 341.647 75.5758 341.927 75.5358 342.202C75.4786 342.62 75.3298 343.026 75.0894 343.421H76.6001V345H61.3731ZM68.0167 337.266H66.9609C66.8178 337.266 66.6576 337.272 66.4802 337.283C66.3085 337.295 66.1312 337.326 65.948 337.378C65.7707 337.424 65.5961 337.498 65.4245 337.601C65.2585 337.698 65.1126 337.833 64.9867 338.004C64.8379 338.222 64.7263 338.517 64.6519 338.889C64.5833 339.261 64.5489 339.787 64.5489 340.468C64.5489 340.863 64.5661 341.243 64.6004 341.61C64.6348 341.97 64.7406 342.296 64.918 342.588C65.0039 342.743 65.1069 342.874 65.227 342.983C65.3529 343.086 65.4988 343.172 65.6648 343.24C65.8307 343.303 66.0224 343.349 66.2399 343.378C66.4573 343.406 66.7091 343.421 66.9952 343.421H68.0167V337.266ZM71.0895 343.421C71.3699 343.421 71.6189 343.406 71.8363 343.378C72.0538 343.349 72.2454 343.303 72.4114 343.24C72.5831 343.172 72.729 343.086 72.8492 342.983C72.975 342.874 73.0809 342.743 73.1667 342.588C73.3384 342.296 73.4414 341.97 73.4757 341.61C73.5158 341.243 73.5358 340.863 73.5358 340.468C73.5358 339.879 73.5044 339.384 73.4414 338.983C73.3842 338.577 73.2669 338.251 73.0895 338.004C72.9693 337.833 72.8263 337.698 72.6603 337.601C72.4944 337.498 72.3198 337.424 72.1367 337.378C71.9593 337.326 71.7819 337.295 71.6045 337.283C71.4272 337.272 71.2669 337.266 71.1239 337.266H70.0681V343.421H71.0895ZM76.4542 344.991V343.412H76.6602C77.0436 343.412 77.3498 343.369 77.5786 343.283C77.8075 343.197 77.9964 343.054 78.1452 342.854C78.2997 342.637 78.3998 342.393 78.4456 342.125C78.4971 341.856 78.5257 341.572 78.5314 341.275C78.5257 341.235 78.5228 341.198 78.5228 341.163C78.5228 341.123 78.5228 341.083 78.5228 341.043H78.5314V335.678H80.5829V341.043L80.6258 342.313C80.6944 342.559 80.8032 342.757 80.952 342.906C81.1007 343.049 81.2695 343.16 81.4584 343.24C81.6472 343.315 81.8475 343.363 82.0592 343.386C82.2709 343.409 82.4712 343.421 82.6601 343.421H82.8832V345H82.0421C81.8418 345 81.6358 344.994 81.424 344.983C81.218 344.966 81.0092 344.934 80.7974 344.888C80.5857 344.843 80.3769 344.774 80.1709 344.682C79.9706 344.585 79.7817 344.456 79.6043 344.296C79.4212 344.456 79.2295 344.582 79.0293 344.674C78.8347 344.765 78.6316 344.837 78.4198 344.888C78.2081 344.934 77.9907 344.963 77.7675 344.974C77.5443 344.986 77.3126 344.991 77.0722 344.991H76.4542ZM77.1151 334.296V332.657H79.1666V334.296H77.1151ZM79.879 334.296V332.657H81.9305V334.296H79.879ZM82.7201 344.991V343.412H82.9261C83.3095 343.412 83.6157 343.369 83.8446 343.283C84.0735 343.197 84.2623 343.054 84.4111 342.854C84.5656 342.637 84.6657 342.393 84.7115 342.125C84.763 341.856 84.7916 341.572 84.7973 341.275C84.7916 341.235 84.7888 341.198 84.7888 341.163C84.7888 341.123 84.7888 341.083 84.7888 341.043H84.7973V335.678H86.8488V341.043L86.8917 342.313C86.9604 342.559 87.0691 342.757 87.2179 342.906C87.3667 343.049 87.5355 343.16 87.7243 343.24C87.9131 343.315 88.1134 343.363 88.3251 343.386C88.5369 343.409 88.7372 343.421 88.926 343.421H89.1492V345H88.308C88.1077 345 87.9017 344.994 87.69 344.983C87.484 344.966 87.2751 344.934 87.0634 344.888C86.8517 344.843 86.6428 344.774 86.4368 344.682C86.2365 344.585 86.0477 344.456 85.8703 344.296C85.6872 344.456 85.4955 344.582 85.2952 344.674C85.1006 344.765 84.8975 344.837 84.6858 344.888C84.474 344.934 84.2566 344.963 84.0334 344.974C83.8102 344.986 83.5785 344.991 83.3382 344.991H82.7201ZM84.7544 348.064V346.425H86.8059V348.064H84.7544ZM88.9861 344.991V343.412H89.1921C89.5755 343.412 89.8816 343.369 90.1105 343.283C90.3394 343.197 90.5282 343.054 90.677 342.854C90.8315 342.637 90.9317 342.393 90.9774 342.125C91.0289 341.856 91.0576 341.572 91.0633 341.275C91.0633 341.263 91.0604 341.238 91.0547 341.198C91.0547 341.157 91.0547 341.054 91.0547 340.889C91.0547 340.723 91.0547 340.465 91.0547 340.116C91.0547 339.767 91.0547 339.278 91.0547 338.648C91.0547 338.019 91.0547 337.221 91.0547 336.253C91.0604 335.286 91.0633 334.102 91.0633 332.7H93.1147V341.043L93.1576 342.313C93.2263 342.559 93.335 342.757 93.4838 342.906C93.6326 343.049 93.8014 343.16 93.9902 343.24C94.1791 343.315 94.3794 343.363 94.5911 343.386C94.8028 343.409 95.0031 343.421 95.1919 343.421H95.4151V345H94.5739C94.3736 345 94.1676 344.994 93.9559 344.983C93.7499 344.966 93.541 344.934 93.3293 344.888C93.1176 344.843 92.9087 344.774 92.7027 344.682C92.5024 344.585 92.3136 344.456 92.1362 344.296C91.9531 344.456 91.7614 344.582 91.5611 344.674C91.3666 344.765 91.1634 344.837 90.9517 344.888C90.74 344.934 90.5225 344.963 90.2993 344.974C90.0762 344.986 89.8444 344.991 89.6041 344.991H88.9861ZM98.9 336.914C99.0488 336.708 99.2262 336.537 99.4322 336.399C99.6439 336.256 99.8642 336.139 100.093 336.047C100.328 335.956 100.562 335.887 100.797 335.841C101.037 335.79 101.26 335.753 101.466 335.73C101.672 335.707 101.856 335.696 102.016 335.696C102.182 335.69 102.305 335.687 102.385 335.687H106.393C106.645 335.687 106.908 335.704 107.183 335.738C107.458 335.773 107.727 335.841 107.99 335.944C108.259 336.047 108.516 336.196 108.762 336.391C109.014 336.58 109.24 336.831 109.44 337.146C109.601 337.409 109.724 337.681 109.81 337.962C109.901 338.236 109.967 338.514 110.007 338.794C110.047 339.075 110.07 339.355 110.076 339.635C110.081 339.916 110.084 340.188 110.084 340.451C110.084 340.765 110.076 341.069 110.058 341.361C110.047 341.647 110.016 341.927 109.964 342.202C109.913 342.471 109.835 342.734 109.732 342.991C109.629 343.243 109.489 343.492 109.312 343.738C109.089 344.042 108.848 344.279 108.591 344.451C108.339 344.617 108.081 344.742 107.818 344.828C107.561 344.908 107.303 344.957 107.046 344.974C106.788 344.991 106.548 345 106.325 345H95.2434V343.421H96.8485V332.691H98.9086L98.9 336.914ZM101.758 337.266C100.94 337.295 100.285 337.547 99.7927 338.022C99.3063 338.497 99.0058 339.175 98.8914 340.056L98.8828 343.421H105.518C105.798 343.421 106.047 343.406 106.265 343.378C106.482 343.349 106.674 343.303 106.84 343.24C107.011 343.172 107.157 343.086 107.277 342.983C107.403 342.874 107.509 342.743 107.595 342.588C107.772 342.296 107.878 341.97 107.913 341.61C107.947 341.243 107.964 340.863 107.964 340.468C107.964 339.873 107.933 339.375 107.87 338.974C107.812 338.574 107.695 338.251 107.518 338.004C107.392 337.833 107.246 337.698 107.08 337.601C106.914 337.504 106.742 337.429 106.565 337.378C106.388 337.326 106.21 337.295 106.033 337.283C105.855 337.272 105.695 337.266 105.552 337.266H101.758ZM127.749 345C127.446 345 127.128 344.974 126.796 344.923C126.476 344.871 126.173 344.717 125.886 344.459C125.801 344.373 125.715 344.27 125.629 344.15C125.543 344.03 125.466 343.887 125.397 343.721C125.328 343.549 125.271 343.355 125.225 343.137C125.185 342.92 125.165 342.674 125.165 342.399C125.165 342.382 125.165 342.359 125.165 342.331C125.165 342.296 125.165 342.233 125.165 342.142C125.165 342.044 125.165 341.904 125.165 341.721C125.165 341.538 125.165 341.286 125.165 340.966C125.165 340.645 125.165 340.245 125.165 339.764C125.171 339.278 125.174 338.685 125.174 337.987C125.18 337.953 125.18 337.91 125.174 337.859C125.168 337.801 125.16 337.744 125.148 337.687C125.137 337.63 125.12 337.575 125.097 337.524C125.08 337.472 125.057 337.432 125.028 337.404C124.959 337.335 124.865 337.295 124.745 337.283C124.63 337.272 124.527 337.266 124.436 337.266H124.187C124.027 337.266 123.875 337.295 123.732 337.352C123.595 337.409 123.483 337.487 123.397 337.584C123.294 337.71 123.231 337.864 123.208 338.047C123.185 338.231 123.174 338.402 123.174 338.562L123.157 341.549C123.157 341.836 123.143 342.107 123.114 342.365C123.091 342.622 123.042 342.866 122.968 343.094C122.899 343.318 122.802 343.529 122.676 343.73C122.556 343.93 122.399 344.116 122.204 344.288C121.889 344.562 121.54 344.748 121.157 344.845C120.779 344.943 120.321 344.991 119.784 344.991H118.007C117.469 344.991 117.008 344.943 116.625 344.845C116.247 344.748 115.901 344.562 115.586 344.288C115.392 344.116 115.231 343.93 115.106 343.73C114.985 343.529 114.888 343.318 114.814 343.094C114.745 342.866 114.696 342.622 114.668 342.365C114.645 342.107 114.633 341.836 114.633 341.549V338.751H116.694V341.18C116.694 341.592 116.716 341.924 116.762 342.176C116.814 342.422 116.905 342.634 117.037 342.811C117.226 343.063 117.457 343.226 117.732 343.3C118.007 343.375 118.333 343.412 118.711 343.412H119.123C119.5 343.412 119.826 343.375 120.101 343.3C120.376 343.226 120.608 343.063 120.796 342.811C120.928 342.634 121.017 342.422 121.063 342.176C121.114 341.924 121.14 341.592 121.14 341.18L121.114 338.442C121.114 338.276 121.123 338.099 121.14 337.91C121.157 337.721 121.186 337.527 121.226 337.326C121.306 336.914 121.497 336.56 121.801 336.262C121.961 336.102 122.167 335.964 122.419 335.85C122.676 335.73 123.002 335.67 123.397 335.67L125.629 335.687C125.703 335.687 125.789 335.69 125.886 335.696C125.989 335.696 126.092 335.707 126.195 335.73C126.298 335.753 126.401 335.787 126.504 335.833C126.607 335.873 126.702 335.933 126.788 336.013C126.994 336.202 127.12 336.445 127.165 336.743C127.188 336.886 127.203 337.012 127.208 337.12C127.22 337.223 127.225 337.312 127.225 337.386V342.15C127.225 342.425 127.257 342.642 127.32 342.803C127.383 342.957 127.457 343.074 127.543 343.155C127.669 343.28 127.818 343.358 127.989 343.386C128.161 343.409 128.333 343.421 128.504 343.421H128.762V345H127.749ZM116.539 348.064V346.425H118.59V348.064H116.539ZM119.303 348.064V346.425H121.354V348.064H119.303ZM128.607 344.991V343.412H128.813C129.197 343.412 129.503 343.369 129.732 343.283C129.961 343.197 130.15 343.054 130.298 342.854C130.453 342.637 130.553 342.393 130.599 342.125C130.65 341.856 130.679 341.572 130.685 341.275C130.679 341.235 130.676 341.198 130.676 341.163C130.676 341.123 130.676 341.083 130.676 341.043H130.685V335.678H132.736V341.043L132.779 342.313C132.848 342.559 132.956 342.757 133.105 342.906C133.254 343.049 133.423 343.16 133.612 343.24C133.8 343.315 134.001 343.363 134.212 343.386C134.424 343.409 134.624 343.421 134.813 343.421H135.036V345H134.195C133.995 345 133.789 344.994 133.577 344.983C133.371 344.966 133.162 344.934 132.951 344.888C132.739 344.843 132.53 344.774 132.324 344.682C132.124 344.585 131.935 344.456 131.758 344.296C131.574 344.456 131.383 344.582 131.182 344.674C130.988 344.765 130.785 344.837 130.573 344.888C130.361 344.934 130.144 344.963 129.921 344.974C129.697 344.986 129.466 344.991 129.225 344.991H128.607ZM129.268 334.296V332.657H131.32V334.296H129.268ZM132.032 334.296V332.657H134.084V334.296H132.032ZM134.865 344.991V343.412H135.869C136.252 343.412 136.559 343.369 136.787 343.283C137.016 343.197 137.205 343.054 137.354 342.854C137.52 342.631 137.626 342.376 137.672 342.09C137.717 341.804 137.74 341.507 137.74 341.198V332.691H139.792V341.816C139.792 342.136 139.766 342.422 139.714 342.674C139.669 342.926 139.603 343.149 139.517 343.343C139.437 343.538 139.34 343.71 139.225 343.858C139.116 344.001 139.002 344.127 138.882 344.236C138.693 344.408 138.496 344.545 138.29 344.648C138.089 344.745 137.88 344.82 137.663 344.871C137.445 344.923 137.222 344.957 136.993 344.974C136.765 344.986 136.527 344.991 136.281 344.991H134.865ZM141.32 332.691H143.38V345H141.32V332.691ZM151.714 345C151.474 345 151.216 344.98 150.942 344.94C150.673 344.9 150.404 344.814 150.135 344.682C149.866 344.551 149.608 344.365 149.362 344.124C149.122 343.884 148.913 343.561 148.736 343.155C148.678 343.017 148.621 342.86 148.564 342.682C148.512 342.499 148.464 342.29 148.418 342.056C148.378 341.816 148.344 341.544 148.315 341.24C148.292 340.937 148.281 340.591 148.281 340.202C148.281 339.956 148.286 339.698 148.298 339.429C148.315 339.155 148.349 338.883 148.401 338.614C148.452 338.339 148.524 338.07 148.615 337.807C148.713 337.544 148.841 337.298 149.002 337.069C149.225 336.743 149.48 336.488 149.766 336.305C150.052 336.116 150.338 335.976 150.624 335.884C150.916 335.793 151.193 335.738 151.457 335.721C151.726 335.698 151.952 335.687 152.135 335.687H154.89V334.614H156.95V343.421H158.813V345H151.714ZM150.658 342.365C150.761 342.599 150.887 342.785 151.036 342.923C151.19 343.06 151.354 343.166 151.525 343.24C151.697 343.315 151.869 343.363 152.04 343.386C152.218 343.409 152.384 343.421 152.538 343.421H154.881C154.881 343.341 154.881 343.258 154.881 343.172C154.887 343.08 154.89 342.997 154.89 342.923C154.89 342.843 154.89 342.777 154.89 342.725C154.89 342.674 154.89 342.642 154.89 342.631V337.266H152.538C152.401 337.266 152.255 337.275 152.1 337.292C151.946 337.309 151.791 337.349 151.637 337.412C151.482 337.469 151.334 337.552 151.19 337.661C151.047 337.77 150.922 337.913 150.813 338.09C150.761 338.176 150.71 338.279 150.658 338.399C150.613 338.514 150.57 338.66 150.53 338.837C150.495 339.009 150.467 339.212 150.444 339.446C150.421 339.681 150.409 339.956 150.409 340.271C150.409 340.637 150.418 340.946 150.435 341.198C150.458 341.444 150.481 341.647 150.504 341.807C150.532 341.967 150.561 342.09 150.59 342.176C150.618 342.262 150.641 342.325 150.658 342.365ZM150.856 333.017V331.378H152.907V333.017H150.856ZM153.62 333.017V331.378H155.671V333.017H153.62ZM158.461 345V343.421H165.087C165.15 343.421 165.224 343.418 165.31 343.412C165.396 343.406 165.476 343.372 165.551 343.309C165.619 343.252 165.659 343.192 165.671 343.129C165.682 343.066 165.688 342.997 165.688 342.923V338.545C165.688 338.408 165.674 338.265 165.645 338.116C165.616 337.962 165.542 337.813 165.422 337.67C165.285 337.492 165.124 337.381 164.941 337.335C164.758 337.289 164.586 337.266 164.426 337.266H159.834V335.687H165.13C165.525 335.687 165.891 335.753 166.229 335.884C166.572 336.01 166.85 336.185 167.061 336.408C167.262 336.603 167.425 336.883 167.551 337.249C167.682 337.615 167.748 338.067 167.748 338.605V343.421H169.422V345H158.461ZM169.25 343.421H170.752C170.586 343.175 170.458 342.914 170.366 342.64C170.274 342.365 170.203 342.093 170.151 341.824C170.106 341.555 170.077 341.298 170.066 341.052C170.054 340.8 170.048 340.574 170.048 340.374C170.048 340.116 170.06 339.818 170.083 339.481C170.106 339.143 170.157 338.8 170.237 338.451C170.323 338.102 170.443 337.761 170.598 337.429C170.758 337.097 170.975 336.809 171.25 336.562C171.508 336.322 171.794 336.136 172.108 336.005C172.429 335.873 172.755 335.776 173.087 335.713C173.425 335.65 173.759 335.613 174.091 335.601C174.423 335.584 174.729 335.575 175.01 335.575C175.29 335.575 175.593 335.584 175.919 335.601C176.251 335.613 176.583 335.65 176.915 335.713C177.253 335.776 177.582 335.873 177.902 336.005C178.223 336.136 178.512 336.322 178.769 336.562C179.044 336.809 179.258 337.097 179.413 337.429C179.573 337.761 179.693 338.102 179.773 338.451C179.854 338.794 179.905 339.129 179.928 339.455C179.951 339.781 179.962 340.065 179.962 340.305C179.962 341.049 179.894 341.672 179.756 342.176C179.625 342.674 179.453 343.089 179.241 343.421H180.752V345H169.25V343.421ZM172.177 340.356C172.177 340.551 172.18 340.748 172.186 340.949C172.191 341.143 172.214 341.338 172.254 341.532C172.294 341.727 172.352 341.919 172.426 342.107C172.506 342.296 172.621 342.476 172.769 342.648C172.907 342.808 173.058 342.94 173.224 343.043C173.39 343.14 173.562 343.217 173.739 343.275C173.917 343.326 174.097 343.363 174.28 343.386C174.469 343.409 174.652 343.421 174.829 343.421H175.001C175.196 343.421 175.39 343.412 175.585 343.395C175.785 343.378 175.98 343.343 176.168 343.292C176.357 343.24 176.54 343.163 176.718 343.06C176.895 342.957 177.061 342.82 177.216 342.648C177.37 342.476 177.49 342.299 177.576 342.116C177.662 341.933 177.722 341.747 177.756 341.558C177.796 341.363 177.819 341.166 177.825 340.966C177.836 340.765 177.842 340.562 177.842 340.356V339.798C177.842 339.644 177.834 339.484 177.816 339.318C177.799 339.146 177.768 338.977 177.722 338.811C177.676 338.64 177.613 338.477 177.533 338.322C177.459 338.168 177.361 338.027 177.241 337.901C177.087 337.736 176.918 337.604 176.735 337.507C176.557 337.409 176.372 337.335 176.177 337.283C175.982 337.232 175.785 337.2 175.585 337.189C175.39 337.172 175.198 337.163 175.01 337.163C174.844 337.163 174.658 337.172 174.452 337.189C174.251 337.2 174.048 337.232 173.842 337.283C173.642 337.335 173.447 337.409 173.259 337.507C173.07 337.604 172.904 337.736 172.761 337.901C172.612 338.067 172.498 338.262 172.417 338.485C172.343 338.703 172.286 338.926 172.246 339.155C172.211 339.384 172.191 339.604 172.186 339.816C172.18 340.027 172.177 340.208 172.177 340.356ZM173.98 334.331V332.691H176.031V334.331H173.98ZM180.58 345V343.421H182.185V335.678H184.245L184.237 336.914C184.386 336.708 184.563 336.537 184.769 336.399C184.981 336.256 185.201 336.139 185.43 336.047C185.665 335.956 185.899 335.887 186.134 335.841C186.374 335.79 186.597 335.753 186.803 335.73C187.009 335.707 187.192 335.696 187.353 335.696C187.519 335.69 187.642 335.687 187.722 335.687H191.73C191.982 335.687 192.245 335.704 192.52 335.738C192.795 335.773 193.064 335.841 193.327 335.944C193.596 336.047 193.853 336.196 194.099 336.391C194.351 336.58 194.577 336.831 194.777 337.146C194.938 337.409 195.061 337.681 195.146 337.962C195.238 338.236 195.304 338.514 195.344 338.794C195.384 339.075 195.407 339.355 195.413 339.635C195.418 339.916 195.421 340.188 195.421 340.451C195.421 340.737 195.415 341.012 195.404 341.275C195.392 341.532 195.367 341.784 195.327 342.03C195.287 342.27 195.229 342.508 195.155 342.743C195.081 342.971 194.98 343.197 194.855 343.421H196.245V345H180.58ZM187.095 337.266C186.277 337.295 185.622 337.547 185.13 338.022C184.643 338.497 184.343 339.175 184.228 340.056L184.22 343.421H190.855C191.135 343.421 191.384 343.406 191.601 343.378C191.819 343.349 192.011 343.303 192.177 343.24C192.348 343.172 192.494 343.086 192.614 342.983C192.74 342.874 192.846 342.743 192.932 342.588C193.109 342.296 193.215 341.97 193.249 341.61C193.284 341.243 193.301 340.863 193.301 340.468C193.301 339.873 193.27 339.375 193.207 338.974C193.149 338.574 193.032 338.251 192.855 338.004C192.729 337.833 192.583 337.698 192.417 337.601C192.251 337.504 192.079 337.429 191.902 337.378C191.724 337.326 191.547 337.295 191.37 337.283C191.192 337.272 191.032 337.266 190.889 337.266H187.095ZM196.082 344.991V343.412H197.086C197.47 343.412 197.776 343.369 198.005 343.283C198.234 343.197 198.422 343.054 198.571 342.854C198.737 342.631 198.843 342.376 198.889 342.09C198.935 341.804 198.958 341.507 198.958 341.198V332.691H201.009V341.816C201.009 342.136 200.983 342.422 200.932 342.674C200.886 342.926 200.82 343.149 200.734 343.343C200.654 343.538 200.557 343.71 200.442 343.858C200.334 344.001 200.219 344.127 200.099 344.236C199.91 344.408 199.713 344.545 199.507 344.648C199.307 344.745 199.098 344.82 198.88 344.871C198.663 344.923 198.44 344.957 198.211 344.974C197.982 344.986 197.744 344.991 197.498 344.991H196.082ZM202.537 332.691H204.597V345H202.537V332.691ZM222.511 345C222.207 345 221.89 344.974 221.558 344.923C221.237 344.871 220.934 344.717 220.648 344.459C220.562 344.373 220.476 344.27 220.39 344.15C220.305 344.03 220.227 343.887 220.159 343.721C220.09 343.549 220.033 343.355 219.987 343.137C219.947 342.92 219.927 342.674 219.927 342.399C219.927 342.382 219.927 342.359 219.927 342.331C219.927 342.296 219.927 342.233 219.927 342.142C219.927 342.044 219.927 341.904 219.927 341.721C219.927 341.538 219.927 341.286 219.927 340.966C219.927 340.645 219.927 340.245 219.927 339.764C219.933 339.278 219.935 338.685 219.935 337.987C219.941 337.953 219.941 337.91 219.935 337.859C219.93 337.801 219.921 337.744 219.91 337.687C219.898 337.63 219.881 337.575 219.858 337.524C219.841 337.472 219.818 337.432 219.79 337.404C219.721 337.335 219.626 337.295 219.506 337.283C219.392 337.272 219.289 337.266 219.197 337.266H218.948C218.788 337.266 218.637 337.295 218.493 337.352C218.356 337.409 218.245 337.487 218.159 337.584C218.056 337.71 217.993 337.864 217.97 338.047C217.947 338.231 217.936 338.402 217.936 338.562L217.918 341.549C217.918 341.836 217.904 342.107 217.875 342.365C217.853 342.622 217.804 342.866 217.73 343.094C217.661 343.318 217.564 343.529 217.438 343.73C217.318 343.93 217.16 344.116 216.966 344.288C216.651 344.562 216.302 344.748 215.918 344.845C215.541 344.943 215.083 344.991 214.545 344.991H212.768C212.23 344.991 211.77 344.943 211.386 344.845C211.009 344.748 210.662 344.562 210.348 344.288C210.153 344.116 209.993 343.93 209.867 343.73C209.747 343.529 209.65 343.318 209.575 343.094C209.507 342.866 209.458 342.622 209.429 342.365C209.406 342.107 209.395 341.836 209.395 341.549V338.751H211.455V341.18C211.455 341.592 211.478 341.924 211.524 342.176C211.575 342.422 211.667 342.634 211.798 342.811C211.987 343.063 212.219 343.226 212.494 343.3C212.768 343.375 213.094 343.412 213.472 343.412H213.884C214.262 343.412 214.588 343.375 214.863 343.3C215.137 343.226 215.369 343.063 215.558 342.811C215.69 342.634 215.778 342.422 215.824 342.176C215.876 341.924 215.901 341.592 215.901 341.18L215.876 338.442C215.876 338.276 215.884 338.099 215.901 337.91C215.918 337.721 215.947 337.527 215.987 337.326C216.067 336.914 216.259 336.56 216.562 336.262C216.722 336.102 216.928 335.964 217.18 335.85C217.438 335.73 217.764 335.67 218.159 335.67L220.39 335.687C220.465 335.687 220.551 335.69 220.648 335.696C220.751 335.696 220.854 335.707 220.957 335.73C221.06 335.753 221.163 335.787 221.266 335.833C221.369 335.873 221.463 335.933 221.549 336.013C221.755 336.202 221.881 336.445 221.927 336.743C221.95 336.886 221.964 337.012 221.97 337.12C221.981 337.223 221.987 337.312 221.987 337.386V342.15C221.987 342.425 222.018 342.642 222.081 342.803C222.144 342.957 222.219 343.074 222.305 343.155C222.43 343.28 222.579 343.358 222.751 343.386C222.923 343.409 223.094 343.421 223.266 343.421H223.523V345H222.511ZM223.369 344.991V343.412H223.575C223.958 343.412 224.264 343.369 224.493 343.283C224.722 343.197 224.911 343.054 225.06 342.854C225.214 342.637 225.314 342.393 225.36 342.125C225.412 341.856 225.44 341.572 225.446 341.275C225.446 341.263 225.443 341.238 225.438 341.198C225.438 341.157 225.438 341.054 225.438 340.889C225.438 340.723 225.438 340.465 225.438 340.116C225.438 339.767 225.438 339.278 225.438 338.648C225.438 338.019 225.438 337.221 225.438 336.253C225.443 335.286 225.446 334.102 225.446 332.7H227.498V341.043L227.54 342.313C227.609 342.559 227.718 342.757 227.867 342.906C228.015 343.049 228.184 343.16 228.373 343.24C228.562 343.315 228.762 343.363 228.974 343.386C229.186 343.409 229.386 343.421 229.575 343.421H229.798V345H228.957C228.756 345 228.55 344.994 228.339 344.983C228.133 344.966 227.924 344.934 227.712 344.888C227.5 344.843 227.292 344.774 227.086 344.682C226.885 344.585 226.696 344.456 226.519 344.296C226.336 344.456 226.144 344.582 225.944 344.674C225.749 344.765 225.546 344.837 225.334 344.888C225.123 344.934 224.905 344.963 224.682 344.974C224.459 344.986 224.227 344.991 223.987 344.991H223.369ZM229.583 343.421H231.257C231.137 343.215 231.04 342.997 230.965 342.768C230.897 342.539 230.842 342.302 230.802 342.056C230.768 341.81 230.745 341.555 230.733 341.292C230.722 341.029 230.716 340.754 230.716 340.468C230.716 340.188 230.722 339.884 230.733 339.558C230.745 339.226 230.785 338.894 230.854 338.562C230.922 338.225 231.028 337.896 231.171 337.575C231.314 337.249 231.515 336.952 231.772 336.683C231.864 336.591 231.984 336.488 232.133 336.374C232.287 336.259 232.479 336.15 232.708 336.047C232.937 335.944 233.208 335.859 233.523 335.79C233.838 335.721 234.204 335.687 234.622 335.687H238.613V337.266H235.291C234.942 337.266 234.636 337.306 234.373 337.386C234.115 337.467 233.895 337.575 233.712 337.713C233.529 337.844 233.377 338.002 233.257 338.185C233.143 338.362 233.057 338.548 233 338.743C232.965 338.869 232.937 339.017 232.914 339.189C232.897 339.361 232.882 339.532 232.871 339.704C232.859 339.87 232.851 340.027 232.845 340.176C232.845 340.319 232.845 340.428 232.845 340.502C232.845 340.64 232.848 340.794 232.854 340.966C232.865 341.137 232.879 341.312 232.897 341.489C232.919 341.667 232.951 341.838 232.991 342.004C233.031 342.17 233.083 342.313 233.145 342.434C233.266 342.651 233.414 342.826 233.592 342.957C233.769 343.089 233.961 343.189 234.167 343.258C234.379 343.326 234.596 343.372 234.819 343.395C235.042 343.412 235.263 343.421 235.48 343.421H238.819V345H229.583V343.421ZM243.403 346.545C243.683 346.551 243.926 346.548 244.132 346.536C244.338 346.531 244.519 346.511 244.673 346.476C244.833 346.448 244.973 346.405 245.094 346.348C245.22 346.296 245.343 346.227 245.463 346.142C245.583 346.056 245.686 345.961 245.772 345.858C245.863 345.755 245.938 345.632 245.995 345.489C246.058 345.352 246.104 345.189 246.132 345C246.167 344.817 246.184 344.599 246.184 344.348V335.687H248.235V344.768C248.235 345.18 248.192 345.535 248.106 345.833C248.021 346.136 247.915 346.393 247.789 346.605C247.663 346.817 247.531 346.989 247.394 347.12C247.262 347.257 247.145 347.366 247.042 347.446C246.664 347.715 246.184 347.904 245.6 348.013C245.016 348.127 244.284 348.167 243.403 348.133V346.545ZM249.892 346.494H253.814C253.929 346.494 254.055 346.488 254.192 346.476C254.335 346.471 254.49 346.456 254.656 346.433C254.988 346.393 255.279 346.273 255.531 346.073C255.834 345.81 256.018 345.452 256.08 345H252.776C252.541 345 252.295 344.991 252.038 344.974C251.78 344.951 251.526 344.9 251.274 344.82C251.028 344.74 250.79 344.622 250.561 344.468C250.338 344.308 250.138 344.087 249.96 343.807C249.48 343.063 249.239 341.861 249.239 340.202C249.239 339.469 249.3 338.814 249.42 338.236C249.551 337.653 249.82 337.14 250.227 336.7C250.444 336.459 250.67 336.271 250.905 336.133C251.145 335.996 251.388 335.896 251.634 335.833C251.88 335.764 252.126 335.724 252.372 335.713C252.618 335.696 252.859 335.687 253.093 335.687H256.098C256.372 335.687 256.636 335.704 256.887 335.738C257.145 335.773 257.385 335.879 257.608 336.056C257.849 336.262 257.997 336.485 258.055 336.726C258.123 336.977 258.158 337.203 258.158 337.404V343.421H259.359V345H258.106C258.066 345.383 257.992 345.738 257.883 346.064C257.774 346.391 257.614 346.685 257.402 346.948C257.185 347.206 256.93 347.409 256.638 347.558C256.352 347.707 256.06 347.818 255.763 347.893C255.471 347.967 255.194 348.016 254.93 348.039C254.667 348.061 254.452 348.073 254.287 348.073H249.892V346.494ZM256.098 338.004C256.098 337.873 256.083 337.761 256.055 337.67C256.026 337.578 255.952 337.489 255.832 337.404C255.74 337.346 255.648 337.309 255.557 337.292C255.471 337.275 255.382 337.266 255.291 337.266H253.531C253.188 337.266 252.876 337.318 252.596 337.421C252.315 337.518 252.095 337.658 251.935 337.841C251.792 338.007 251.68 338.21 251.6 338.451C251.526 338.691 251.471 338.934 251.437 339.18C251.403 339.426 251.382 339.658 251.377 339.876C251.371 340.087 251.368 340.248 251.368 340.356C251.368 340.768 251.385 341.12 251.42 341.412C251.454 341.704 251.497 341.95 251.548 342.15C251.6 342.345 251.654 342.499 251.712 342.614C251.774 342.728 251.835 342.814 251.892 342.871C252.126 343.14 252.401 343.3 252.716 343.352C252.876 343.375 253.033 343.392 253.188 343.403C253.348 343.415 253.503 343.421 253.651 343.421H256.098V338.004ZM259.179 344.991V343.412H259.385C259.769 343.412 260.075 343.369 260.304 343.283C260.532 343.197 260.721 343.054 260.87 342.854C261.025 342.637 261.125 342.393 261.17 342.125C261.222 341.856 261.251 341.572 261.256 341.275C261.251 341.235 261.248 341.198 261.248 341.163C261.248 341.123 261.248 341.083 261.248 341.043H261.256V337.661H263.308V341.043L263.351 342.313C263.419 342.559 263.528 342.757 263.677 342.906C263.826 343.049 263.994 343.16 264.183 343.24C264.372 343.315 264.572 343.363 264.784 343.386C264.996 343.409 265.196 343.421 265.385 343.421H265.608V345H264.767C264.567 345 264.361 344.994 264.149 344.983C263.943 344.966 263.734 344.934 263.522 344.888C263.311 344.843 263.102 344.774 262.896 344.682C262.695 344.585 262.507 344.456 262.329 344.296C262.146 344.456 261.954 344.582 261.754 344.674C261.56 344.765 261.356 344.837 261.145 344.888C260.933 344.934 260.716 344.963 260.492 344.974C260.269 344.986 260.037 344.991 259.797 344.991H259.179ZM259.72 336.7V335.06H261.771V336.7H259.72ZM261.325 334.296V332.657H263.376V334.296H261.325ZM262.741 336.7V335.06H264.793V336.7H262.741ZM272.99 335.661C273.116 335.661 273.253 335.67 273.402 335.687C273.551 335.698 273.702 335.727 273.857 335.773C274.017 335.813 274.174 335.876 274.329 335.962C274.489 336.042 274.641 336.15 274.784 336.288C274.933 336.437 275.05 336.6 275.136 336.777C275.222 336.949 275.285 337.129 275.325 337.318C275.37 337.507 275.399 337.701 275.41 337.901C275.422 338.102 275.425 338.299 275.419 338.494C275.408 339.037 275.339 339.541 275.213 340.004C275.087 340.462 274.924 340.891 274.724 341.292C274.529 341.687 274.309 342.059 274.063 342.408C273.823 342.757 273.582 343.094 273.342 343.421H276.123V345H265.394V343.421H268.089C267.848 343.094 267.605 342.757 267.359 342.408C267.119 342.059 266.899 341.687 266.698 341.292C266.504 340.891 266.343 340.462 266.218 340.004C266.092 339.541 266.023 339.037 266.012 338.494C266.006 338.299 266.009 338.102 266.02 337.901C266.032 337.701 266.057 337.507 266.097 337.318C266.143 337.129 266.209 336.949 266.295 336.777C266.381 336.6 266.498 336.437 266.647 336.288C266.79 336.15 266.939 336.042 267.093 335.962C267.253 335.876 267.411 335.813 267.565 335.773C267.725 335.727 267.88 335.698 268.029 335.687C268.177 335.67 268.315 335.661 268.441 335.661H272.99ZM268.166 339.086C268.189 339.298 268.249 339.529 268.346 339.781C268.449 340.033 268.572 340.293 268.715 340.562C268.864 340.831 269.027 341.103 269.205 341.378C269.388 341.652 269.568 341.916 269.745 342.167C269.923 342.419 270.094 342.654 270.26 342.871C270.426 343.083 270.567 343.266 270.681 343.421H270.741C270.856 343.266 270.996 343.083 271.162 342.871C271.328 342.654 271.499 342.419 271.677 342.167C271.86 341.916 272.04 341.652 272.217 341.378C272.395 341.103 272.558 340.831 272.707 340.562C272.855 340.293 272.978 340.033 273.076 339.781C273.179 339.524 273.242 339.292 273.265 339.086C273.276 338.954 273.285 338.814 273.29 338.665C273.296 338.517 273.293 338.376 273.282 338.245C273.276 338.107 273.262 337.984 273.239 337.876C273.216 337.767 273.184 337.687 273.144 337.635C272.938 337.384 272.578 337.258 272.063 337.258H269.368C268.853 337.258 268.492 337.384 268.286 337.635C268.24 337.687 268.206 337.767 268.183 337.876C268.166 337.984 268.152 338.107 268.14 338.245C268.135 338.376 268.135 338.517 268.14 338.665C268.146 338.814 268.155 338.954 268.166 339.086ZM275.96 344.991V343.412H276.964C277.347 343.412 277.654 343.369 277.883 343.283C278.111 343.197 278.3 343.054 278.449 342.854C278.615 342.631 278.721 342.376 278.767 342.09C278.812 341.804 278.835 341.507 278.835 341.198V332.691H280.887V341.816C280.887 342.136 280.861 342.422 280.809 342.674C280.764 342.926 280.698 343.149 280.612 343.343C280.532 343.538 280.435 343.71 280.32 343.858C280.211 344.001 280.097 344.127 279.977 344.236C279.788 344.408 279.591 344.545 279.385 344.648C279.184 344.745 278.975 344.82 278.758 344.871C278.541 344.923 278.317 344.957 278.089 344.974C277.86 344.986 277.622 344.991 277.376 344.991H275.96ZM282.415 332.691H284.475V345H282.415V332.691ZM289.307 346.931C289.307 346.405 289.37 345.91 289.496 345.446C289.616 344.966 289.876 344.559 290.277 344.227C290.432 344.084 290.6 343.964 290.783 343.867C290.967 343.77 291.153 343.692 291.341 343.635C291.53 343.572 291.719 343.527 291.908 343.498C292.097 343.469 292.277 343.449 292.449 343.438C292.477 343.438 292.506 343.438 292.534 343.438C292.569 343.438 292.6 343.435 292.629 343.429C292.48 343.177 292.36 342.914 292.268 342.64C292.183 342.359 292.117 342.084 292.071 341.816C292.031 341.541 292.005 341.28 291.994 341.034C291.982 340.783 291.977 340.562 291.977 340.374C291.977 340.116 291.988 339.818 292.011 339.481C292.034 339.143 292.085 338.803 292.165 338.459C292.251 338.11 292.371 337.77 292.526 337.438C292.686 337.106 292.904 336.814 293.178 336.562C293.436 336.328 293.722 336.145 294.037 336.013C294.357 335.881 294.683 335.784 295.015 335.721C295.353 335.653 295.685 335.613 296.011 335.601C296.343 335.584 296.652 335.575 296.938 335.575C297.218 335.575 297.521 335.584 297.848 335.601C298.18 335.613 298.511 335.653 298.843 335.721C299.181 335.784 299.51 335.881 299.83 336.013C300.151 336.145 300.44 336.328 300.697 336.562C300.966 336.814 301.178 337.106 301.333 337.438C301.493 337.764 301.613 338.099 301.693 338.442C301.779 338.786 301.833 339.12 301.856 339.446C301.879 339.773 301.89 340.059 301.89 340.305C301.89 341.306 301.776 342.107 301.547 342.708C301.318 343.303 301.035 343.77 300.697 344.107C300.451 344.342 300.165 344.528 299.839 344.665C299.519 344.797 299.187 344.897 298.843 344.966C298.5 345.029 298.162 345.066 297.83 345.077C297.499 345.094 297.201 345.103 296.938 345.103C296.577 345.103 296.177 345.094 295.736 345.077C295.301 345.066 294.875 345.04 294.457 345H293.599C293.33 345 293.029 345.034 292.698 345.103C292.371 345.172 292.085 345.355 291.839 345.652C291.639 345.893 291.51 346.167 291.453 346.476C291.396 346.785 291.367 347.12 291.367 347.481V349.549H289.307V346.931ZM294.105 340.356C294.105 340.745 294.131 341.157 294.183 341.592C294.234 342.027 294.409 342.414 294.706 342.751C295.004 343.089 295.356 343.303 295.762 343.395C296.162 343.481 296.554 343.524 296.938 343.524C297.321 343.524 297.71 343.481 298.105 343.395C298.506 343.298 298.855 343.083 299.152 342.751C299.456 342.402 299.633 342.022 299.685 341.61C299.713 341.398 299.733 341.189 299.745 340.983C299.762 340.771 299.77 340.562 299.77 340.356V339.798C299.77 339.65 299.762 339.489 299.745 339.318C299.727 339.146 299.696 338.977 299.65 338.811C299.604 338.645 299.541 338.485 299.461 338.331C299.387 338.17 299.29 338.027 299.17 337.901C299.015 337.73 298.846 337.595 298.663 337.498C298.486 337.401 298.3 337.329 298.105 337.283C297.911 337.232 297.713 337.2 297.513 337.189C297.318 337.172 297.127 337.163 296.938 337.163C296.772 337.163 296.586 337.169 296.38 337.18C296.18 337.192 295.976 337.223 295.77 337.275C295.57 337.326 295.376 337.401 295.187 337.498C294.998 337.595 294.832 337.73 294.689 337.901C294.54 338.067 294.426 338.262 294.346 338.485C294.271 338.703 294.214 338.926 294.174 339.155C294.14 339.384 294.12 339.604 294.114 339.816C294.108 340.027 294.105 340.208 294.105 340.356ZM302.817 345V343.421H306.156C306.368 343.421 306.586 343.412 306.809 343.395C307.038 343.372 307.255 343.326 307.461 343.258C307.673 343.189 307.867 343.089 308.045 342.957C308.222 342.826 308.371 342.651 308.491 342.434C308.554 342.313 308.606 342.17 308.646 342.004C308.686 341.838 308.714 341.667 308.731 341.489C308.754 341.312 308.769 341.137 308.774 340.966C308.786 340.794 308.792 340.64 308.792 340.502C308.792 340.428 308.789 340.319 308.783 340.176C308.783 340.027 308.777 339.87 308.766 339.704C308.754 339.532 308.737 339.361 308.714 339.189C308.697 339.017 308.671 338.869 308.637 338.743C308.58 338.548 308.491 338.362 308.371 338.185C308.257 338.002 308.108 337.844 307.925 337.713C307.742 337.575 307.518 337.467 307.255 337.386C306.998 337.306 306.694 337.266 306.345 337.266H303.023V335.687H307.015C307.433 335.687 307.799 335.721 308.113 335.79C308.428 335.859 308.7 335.944 308.929 336.047C309.158 336.15 309.347 336.259 309.495 336.374C309.65 336.488 309.773 336.591 309.865 336.683C310.122 336.952 310.322 337.249 310.465 337.575C310.608 337.896 310.714 338.225 310.783 338.562C310.852 338.894 310.892 339.226 310.903 339.558C310.915 339.884 310.92 340.188 310.92 340.468C310.92 340.754 310.915 341.029 310.903 341.292C310.892 341.555 310.866 341.81 310.826 342.056C310.792 342.302 310.737 342.539 310.663 342.768C310.594 342.997 310.5 343.215 310.38 343.421H312.156V345H302.817ZM319.547 335.661C319.673 335.661 319.81 335.67 319.959 335.687C320.107 335.698 320.259 335.727 320.414 335.773C320.574 335.813 320.731 335.876 320.886 335.962C321.046 336.042 321.198 336.15 321.341 336.288C321.489 336.437 321.607 336.6 321.693 336.777C321.778 336.949 321.841 337.129 321.881 337.318C321.927 337.507 321.956 337.701 321.967 337.901C321.979 338.102 321.982 338.299 321.976 338.494C321.964 339.037 321.896 339.541 321.77 340.004C321.644 340.462 321.481 340.891 321.281 341.292C321.086 341.687 320.866 342.059 320.62 342.408C320.379 342.757 320.139 343.094 319.899 343.421H322.68V345H311.95V343.421H314.645C314.405 343.094 314.162 342.757 313.916 342.408C313.676 342.059 313.455 341.687 313.255 341.292C313.06 340.891 312.9 340.462 312.774 340.004C312.648 339.541 312.58 339.037 312.568 338.494C312.563 338.299 312.565 338.102 312.577 337.901C312.588 337.701 312.614 337.507 312.654 337.318C312.7 337.129 312.766 336.949 312.852 336.777C312.937 336.6 313.055 336.437 313.203 336.288C313.347 336.15 313.495 336.042 313.65 335.962C313.81 335.876 313.967 335.813 314.122 335.773C314.282 335.727 314.437 335.698 314.585 335.687C314.734 335.67 314.872 335.661 314.997 335.661H319.547ZM314.723 339.086C314.746 339.298 314.806 339.529 314.903 339.781C315.006 340.033 315.129 340.293 315.272 340.562C315.421 340.831 315.584 341.103 315.761 341.378C315.944 341.652 316.125 341.916 316.302 342.167C316.479 342.419 316.651 342.654 316.817 342.871C316.983 343.083 317.123 343.266 317.238 343.421H317.298C317.412 343.266 317.552 343.083 317.718 342.871C317.884 342.654 318.056 342.419 318.233 342.167C318.417 341.916 318.597 341.652 318.774 341.378C318.952 341.103 319.115 340.831 319.263 340.562C319.412 340.293 319.535 340.033 319.632 339.781C319.735 339.524 319.798 339.292 319.821 339.086C319.833 338.954 319.841 338.814 319.847 338.665C319.853 338.517 319.85 338.376 319.838 338.245C319.833 338.107 319.818 337.984 319.796 337.876C319.773 337.767 319.741 337.687 319.701 337.635C319.495 337.384 319.135 337.258 318.62 337.258H315.924C315.409 337.258 315.049 337.384 314.843 337.635C314.797 337.687 314.763 337.767 314.74 337.876C314.723 337.984 314.708 338.107 314.697 338.245C314.691 338.376 314.691 338.517 314.697 338.665C314.703 338.814 314.711 338.954 314.723 339.086ZM322.517 344.991V343.412H323.521C323.904 343.412 324.21 343.369 324.439 343.283C324.668 343.197 324.857 343.054 325.006 342.854C325.172 342.631 325.278 342.376 325.323 342.09C325.369 341.804 325.392 341.507 325.392 341.198V332.691H327.443V341.816C327.443 342.136 327.418 342.422 327.366 342.674C327.32 342.926 327.255 343.149 327.169 343.343C327.089 343.538 326.991 343.71 326.877 343.858C326.768 344.001 326.654 344.127 326.534 344.236C326.345 344.408 326.147 344.545 325.941 344.648C325.741 344.745 325.532 344.82 325.315 344.871C325.097 344.923 324.874 344.957 324.645 344.974C324.416 344.986 324.179 344.991 323.933 344.991H322.517ZM346.533 343.421H347.546V345H336.104C335.887 345 335.649 344.991 335.392 344.974C335.14 344.957 334.882 344.908 334.619 344.828C334.356 344.742 334.093 344.617 333.83 344.451C333.572 344.279 333.332 344.042 333.109 343.738C332.937 343.509 332.8 343.266 332.697 343.009C332.594 342.745 332.516 342.474 332.465 342.193C332.413 341.913 332.379 341.627 332.362 341.335C332.35 341.037 332.345 340.74 332.345 340.442V337.704H334.473L334.465 340.485C334.465 340.88 334.482 341.258 334.516 341.618C334.551 341.979 334.656 342.302 334.834 342.588C334.92 342.743 335.023 342.874 335.143 342.983C335.269 343.086 335.415 343.172 335.581 343.24C335.747 343.303 335.938 343.349 336.156 343.378C336.379 343.406 336.631 343.421 336.911 343.421H338.121C337.784 342.665 337.615 341.592 337.615 340.202C337.615 339.469 337.675 338.814 337.795 338.236C337.927 337.653 338.196 337.14 338.602 336.7C338.819 336.459 339.045 336.271 339.28 336.133C339.52 335.996 339.764 335.896 340.01 335.833C340.256 335.764 340.502 335.724 340.748 335.713C340.994 335.696 341.234 335.687 341.469 335.687H344.473C344.748 335.687 345.011 335.704 345.263 335.738C345.52 335.773 345.761 335.879 345.984 336.056C346.224 336.262 346.373 336.485 346.43 336.726C346.499 336.977 346.533 337.203 346.533 337.404V343.421ZM341.091 343.352C341.251 343.375 341.409 343.392 341.563 343.403C341.724 343.415 341.878 343.421 342.027 343.421H344.473V338.004C344.473 337.873 344.459 337.761 344.43 337.67C344.402 337.578 344.327 337.489 344.207 337.404C344.115 337.346 344.024 337.309 343.932 337.292C343.846 337.275 343.758 337.266 343.666 337.266H341.907C341.563 337.266 341.251 337.318 340.971 337.421C340.691 337.518 340.47 337.658 340.31 337.841C340.167 338.007 340.055 338.21 339.975 338.451C339.901 338.691 339.847 338.934 339.812 339.18C339.778 339.426 339.758 339.658 339.752 339.876C339.746 340.087 339.744 340.248 339.744 340.356C339.744 340.768 339.761 341.12 339.795 341.412C339.829 341.704 339.872 341.95 339.924 342.15C339.975 342.345 340.03 342.499 340.087 342.614C340.15 342.728 340.21 342.814 340.267 342.871C340.502 343.14 340.776 343.3 341.091 343.352ZM341.28 334.331V332.691H343.331V334.331H341.28ZM350.919 343.429H354.464V335.696H356.524V343.429H358.438C358.53 343.429 358.63 343.426 358.739 343.421C358.848 343.409 358.956 343.389 359.065 343.361C359.179 343.332 359.288 343.289 359.391 343.232C359.5 343.175 359.597 343.094 359.683 342.991C359.769 342.9 359.837 342.8 359.889 342.691C359.94 342.577 359.981 342.462 360.009 342.348C360.038 342.228 360.055 342.11 360.061 341.996C360.072 341.881 360.078 341.773 360.078 341.67V335.696H362.129V341.987C362.129 342.456 362.058 342.891 361.915 343.292C361.772 343.687 361.563 344.013 361.288 344.27C361.116 344.425 360.928 344.551 360.722 344.648C360.516 344.745 360.307 344.82 360.095 344.871C359.889 344.923 359.683 344.96 359.477 344.983C359.271 345 359.082 345.009 358.91 345.009H347.349V343.429H348.859V335.696H350.919V343.429ZM367.005 344.991C366.759 344.991 366.521 344.986 366.292 344.974C366.063 344.957 365.84 344.923 365.623 344.871C365.405 344.82 365.194 344.745 364.988 344.648C364.787 344.545 364.593 344.408 364.404 344.236C364.284 344.127 364.166 344.001 364.052 343.858C363.943 343.71 363.846 343.538 363.76 343.343C363.68 343.149 363.614 342.926 363.563 342.674C363.517 342.422 363.494 342.136 363.494 341.816V332.691H365.545V341.198C365.545 341.507 365.568 341.804 365.614 342.09C365.66 342.376 365.766 342.631 365.932 342.854C366.081 343.054 366.269 343.197 366.498 343.283C366.727 343.369 367.033 343.412 367.417 343.412H368.421V344.991H367.005ZM363.691 331.327H364.73C364.77 331.327 364.79 331.309 364.79 331.275C364.79 331.264 364.787 331.255 364.782 331.249C364.782 331.244 364.762 331.235 364.721 331.224C364.681 331.206 364.616 331.183 364.524 331.155C364.432 331.126 364.301 331.083 364.129 331.026C363.963 330.969 363.843 330.897 363.769 330.812C363.7 330.72 363.666 330.6 363.666 330.451C363.666 330.256 363.714 330.122 363.812 330.048C363.909 329.967 364.038 329.927 364.198 329.927H365.477V330.417H364.438C364.427 330.417 364.404 330.417 364.37 330.417C364.341 330.411 364.327 330.422 364.327 330.451C364.327 330.462 364.335 330.477 364.352 330.494C364.375 330.505 364.41 330.52 364.455 330.537C364.507 330.554 364.576 330.577 364.661 330.606C364.747 330.634 364.856 330.671 364.988 330.717C365.171 330.78 365.305 330.857 365.391 330.949C365.483 331.04 365.528 331.172 365.528 331.344C365.528 331.492 365.485 331.613 365.4 331.704C365.319 331.796 365.205 331.842 365.056 331.842H363.691V331.327ZM368.249 344.991V343.412H369.254C369.637 343.412 369.943 343.369 370.172 343.283C370.401 343.197 370.59 343.054 370.739 342.854C370.904 342.631 371.01 342.376 371.056 342.09C371.102 341.804 371.125 341.507 371.125 341.198V335.678H373.176V341.816C373.176 342.136 373.15 342.422 373.099 342.674C373.053 342.926 372.987 343.149 372.902 343.343C372.821 343.538 372.724 343.71 372.61 343.858C372.501 344.001 372.387 344.127 372.266 344.236C372.078 344.408 371.88 344.545 371.674 344.648C371.474 344.745 371.265 344.82 371.048 344.871C370.83 344.923 370.607 344.957 370.378 344.974C370.149 344.986 369.912 344.991 369.666 344.991H368.249ZM371.133 334.331V332.691H373.185V334.331H371.133Z" fill="#303030"/>
<path d="M117.211 294.073H114.339V291.408H117.211V294.073ZM112.833 294.073H109.96V291.408H112.833V294.073ZM119.273 301.417C119.273 303.108 118.763 304.452 117.744 305.471C116.725 306.49 115.358 307 113.667 307C111.952 307 110.585 306.49 109.543 305.494C108.524 304.498 108.014 303.131 108.014 301.44C108.014 299.749 108.524 298.382 109.52 297.386C110.516 296.389 111.86 295.88 113.551 295.88C115.265 295.88 116.655 296.366 117.698 297.362C118.74 298.335 119.273 299.679 119.273 301.417ZM116.169 301.533C116.169 299.401 115.312 298.335 113.574 298.335C111.883 298.335 111.049 299.401 111.049 301.533C111.049 302.39 111.257 303.108 111.674 303.641C112.114 304.243 112.763 304.521 113.574 304.521C114.431 304.521 115.08 304.243 115.543 303.641C115.96 303.108 116.169 302.39 116.169 301.533ZM133.122 307H121.469V303.896H129.879C129.879 300.652 128.118 299.216 123.994 299.216V296.505C126.033 296.505 127.469 296.644 128.326 296.945C131.477 298.057 133.122 300.374 133.122 303.872V307ZM148.706 307H145.648C145.277 309.548 143.517 310.823 140.366 310.823H140.018V308.228H140.296C141.547 308.228 142.289 307.765 142.544 306.861C142.289 306.954 141.64 307 140.551 307C137.516 307 135.292 304.799 135.292 301.718C135.292 298.59 137.47 296.482 140.551 296.482C143.517 296.482 145.694 298.706 145.694 301.787V303.896H148.706V307ZM142.451 303.896V301.648C142.451 300.282 141.64 299.401 140.459 299.401C139.231 299.401 138.582 300.351 138.582 301.579C138.582 302.899 139.37 303.896 140.574 303.896H142.451ZM164.415 307H147.85V303.896H160.963C160.824 301.278 158.831 299.239 156.121 299.239C154.731 299.239 153.155 299.957 152.229 300.907C151.904 300.467 151.371 299.749 150.607 298.706C152.182 297.061 154.105 296.25 156.352 296.25C161.658 296.274 164.415 299.888 164.415 305.934V307ZM158.136 310.846H155.24V308.158H158.136V310.846ZM180.018 307H176.96C176.589 309.548 174.829 310.823 171.678 310.823H171.33V308.228H171.608C172.859 308.228 173.601 307.765 173.856 306.861C173.601 306.954 172.952 307 171.863 307C168.828 307 166.604 304.799 166.604 301.718C166.604 298.59 168.782 296.482 171.863 296.482C174.829 296.482 177.006 298.706 177.006 301.787V303.896H180.018V307ZM173.763 303.896V301.648C173.763 300.282 172.952 299.401 171.771 299.401C170.543 299.401 169.894 300.351 169.894 301.579C169.894 302.899 170.682 303.896 171.886 303.896H173.763ZM193.016 303.71C193.016 306.815 190.931 308.992 187.687 308.992C185.718 308.992 184.236 308.321 183.286 307H179.116V303.896H182.336C182.336 300.583 184.236 298.474 187.572 298.474C190.908 298.474 193.016 300.536 193.016 303.71ZM189.796 303.826C189.796 301.996 189.101 301.069 187.734 301.069H187.502C186.321 301.069 185.51 302.158 185.51 303.687C185.51 305.262 186.297 306.351 187.687 306.351C188.962 306.351 189.796 305.332 189.796 303.826ZM209.59 307H205.999C205.466 309.548 203.381 310.823 199.698 310.823V308.205C201.829 308.205 202.895 307.185 202.895 305.147V296.505H206.161V303.896H209.59V307ZM219.367 307H208.942V303.896H211.073C212.162 303.896 212.695 303.154 212.695 301.672V296.505H215.962V301.556C215.962 302.413 215.846 303.177 215.591 303.896H219.367V307ZM215.637 310.846H212.765V308.158H215.637V310.846ZM211.282 310.846H208.409V308.158H211.282V310.846ZM228.672 294.745H225.799V292.08H228.672V294.745ZM231.822 307H218.733V303.896H222.44C222.138 303.085 221.976 302.343 221.976 301.672C221.976 300.166 222.463 298.868 223.436 297.803C224.432 296.737 225.683 296.204 227.212 296.204C229.181 296.204 230.849 297.316 231.66 299.146L228.996 300.374C228.695 299.471 228.092 299.007 227.143 299.007C226.494 299.007 225.984 299.262 225.637 299.795C225.312 300.235 225.15 300.814 225.15 301.509C225.15 302.737 225.59 303.548 226.447 303.896H231.822V307ZM247.903 292.08H245.031V289.393H247.903V292.08ZM243.548 292.08H240.675V289.393H243.548V292.08ZM253.093 307H249.826C247.973 307 246.676 306.05 245.934 304.15C245.355 305.054 244.243 305.54 242.644 305.54C239.864 305.54 238.081 303.131 238.081 299.934C238.081 296.482 239.818 294.258 242.876 294.258C242.876 294.235 244.938 294.235 249.062 294.235V301.533C249.062 303.062 249.849 303.896 251.425 303.896H253.093V307ZM245.726 299.679V296.621H243.594C242.274 296.621 241.301 298.081 241.301 299.888C241.301 301.509 242.227 302.853 243.525 302.853C244.892 302.853 245.726 301.579 245.726 299.679ZM271.258 307H252.354V303.896H265.513C265.444 302.668 265.003 301.625 264.192 300.745C263.289 299.749 262.084 299.239 260.625 299.239C259.235 299.239 257.659 299.957 256.756 300.907C256.431 300.467 255.899 299.749 255.134 298.706C256.709 297.061 258.609 296.25 260.856 296.25C262.223 296.25 263.428 296.505 264.47 296.992C266.949 298.173 268.409 300.467 268.803 303.896H271.258V307ZM279.692 292.474H276.82V289.81H279.692V292.474ZM285.971 307H284.094C281.847 307 279.924 306.722 278.302 306.143C276.681 306.722 274.758 307 272.51 307H270.402V303.896H272.51C273.53 303.896 274.155 303.826 274.41 303.71C273.414 302.575 272.904 301.301 272.904 299.911C272.904 299.332 272.997 298.729 273.182 298.15C273.924 295.903 275.87 294.49 278.302 294.49C280.781 294.49 282.704 295.903 283.422 298.15C283.607 298.729 283.7 299.332 283.7 299.911C283.7 301.301 283.19 302.575 282.194 303.71C282.472 303.826 283.098 303.896 284.094 303.896H285.971V307ZM279.437 302.343C280.341 301.695 280.781 300.814 280.781 299.679C280.781 298.22 279.854 297.015 278.302 297.015C277.538 297.015 276.935 297.293 276.449 297.826C276.055 298.335 275.846 298.961 275.846 299.679C275.846 300.814 276.287 301.695 277.19 302.343C277.561 302.621 277.932 302.853 278.302 303.038C278.673 302.853 279.044 302.621 279.437 302.343ZM308.72 307H284.742V303.896H287.661C288.727 303.896 289.306 303.34 289.306 301.672V297.617H292.549V300.606C294.588 298.011 297.276 296.459 299.87 296.459C303.67 296.459 305.894 299.146 306.195 303.896H308.72V307ZM302.813 303.896L302.836 303.479C302.836 301.092 301.654 299.285 299.615 299.285C297.229 299.285 295.098 300.838 293.314 303.896H302.813ZM315.048 302.529C315.048 303.757 314.701 304.776 314.029 305.587C313.264 306.537 312.199 307 310.832 307H307.774V303.896H310.16C311.249 303.896 311.805 303.131 311.805 301.625V292.08H315.048V302.529ZM320.665 307H317.422V292.057H320.665V307Z" fill="#A87E33"/>
<defs>
<filter id="filter0_d_1075_2889" x="22.1318" y="102.81" width="381.313" height="171.701" filterUnits="userSpaceOnUse" color-interpolation-filters="sRGB">
<feFlood flood-opacity="0" result="BackgroundImageFix"/>
<feColorMatrix in="SourceAlpha" type="matrix" values="0 0 0 0 0 0 0 0 0 0 0 0 0 0 0 0 0 0 127 0" result="hardAlpha"/>
<feOffset dy="5"/>
<feGaussianBlur stdDeviation="4"/>
<feComposite in2="hardAlpha" operator="out"/>
<feColorMatrix type="matrix" values="0 0 0 0 0 0 0 0 0 0 0 0 0 0 0 0 0 0 0.21 0"/>
<feBlend mode="normal" in2="BackgroundImageFix" result="effect1_dropShadow_1075_2889"/>
<feBlend mode="normal" in="SourceGraphic" in2="effect1_dropShadow_1075_2889" result="shape"/>
</filter>
</defs>
</svg>
