<svg width="34" height="34" viewBox="0 0 34 34" fill="none" xmlns="http://www.w3.org/2000/svg">
<path d="M17 33C20.7017 33 24.2889 31.7165 27.1503 29.3682C30.0117 27.0198 31.9704 23.752 32.6926 20.1214C33.4147 16.4909 32.8557 12.7222 31.1107 9.45765C29.3658 6.19306 26.5428 3.6345 23.1229 2.21793C19.703 0.801355 15.8977 0.614412 12.3554 1.68895C8.81316 2.7635 5.75303 5.03304 3.69649 8.11087C1.63994 11.1887 0.714216 14.8844 1.07704 18.5683C1.43987 22.2521 3.0688 25.6962 5.68629 28.3137" stroke="#FF4C13" stroke-width="1.2" stroke-linecap="round"/>
<circle cx="17" cy="17" r="16" fill="#FF4C13" fill-opacity="0.25"/>
<path d="M21.75 12L13 23" stroke="#FF4C13" stroke-width="1.2" stroke-linecap="round"/>
<path d="M13 12L21.75 23" stroke="#FF4C13" stroke-width="1.2" stroke-linecap="round"/>
</svg>
