<svg width="31" height="25" viewBox="0 0 31 25" fill="none" xmlns="http://www.w3.org/2000/svg">
<g opacity="0.65">
<path d="M5.15768 23.0509C5.26551 23.0417 5.36435 23.0418 5.46319 23.0418C5.49014 23.0418 5.5171 23.0418 5.54406 23.0418C8.90464 23.0417 12.2652 23.0417 15.6348 23.0417L26.5971 23.0417C26.9116 23.0417 27.2261 23.0417 27.5406 23.0417C28.3403 23.0417 29.1759 23.0417 29.9936 23.0417C30.2812 23.0417 30.5417 23.1516 30.7304 23.3437C30.9012 23.5267 31 23.7738 31 24.03C30.991 24.5699 30.5777 24.9726 30.0206 25C29.9577 25 29.9038 25 29.8409 25L26.3186 25L5.53507 25L5.4542 25L5.37333 25C5.30145 25 5.22058 25 5.13971 24.9909C4.67246 24.9177 4.31304 24.5059 4.31304 24.03C4.30406 23.5359 4.67246 23.1058 5.15768 23.0509ZM5.17565 24.03C5.17565 24.0666 5.18464 24.1032 5.19362 24.1124C5.22956 24.1398 5.35536 24.1398 5.43623 24.1307C5.47217 24.1307 5.50812 24.1307 5.54406 24.1307C8.8687 24.1307 12.2023 24.1307 15.5359 24.1307L19.8041 24.1307C23.1197 24.1307 26.4354 24.1307 29.76 24.1307C29.7959 24.1307 29.8319 24.1307 29.8678 24.1307C29.9487 24.1307 30.0745 24.1398 30.1104 24.1032C30.1284 24.0941 30.1284 24.0483 30.1284 24.0026C30.1284 23.9568 30.1194 23.9294 30.1104 23.9202C30.0745 23.8836 29.9487 23.8928 29.8678 23.9019C29.8319 23.9019 29.7959 23.9019 29.76 23.9019C21.691 23.9019 13.622 23.9019 5.54406 23.9019C5.50812 23.9019 5.47217 23.9019 5.43623 23.9019C5.35536 23.9019 5.22956 23.8928 5.19362 23.9202C5.18464 23.9385 5.17565 23.9751 5.17565 24.03Z" fill="white"/>
<path d="M11.8609 8.77565L11.8609 5.05127L12.7056 5.05127L12.7056 7.6684L22.6166 7.6684L22.6166 5.05127L23.4792 5.05127L23.4792 8.7848C24.7551 8.91291 25.5279 9.60837 25.6088 10.6973C25.6447 11.2098 25.5189 11.6856 25.2224 12.0882C24.818 12.6556 24.225 12.9393 23.4612 12.9576C23.3264 14.4308 22.6885 15.7852 21.6731 16.7826C20.6488 17.7892 19.3099 18.3657 17.8902 18.4297C17.8094 18.4297 17.7285 18.4389 17.6566 18.4389C14.6554 18.4389 12.1036 16.0414 11.843 12.9667C10.4143 12.7379 9.70442 12.0608 9.69544 10.9078C9.68645 9.70903 10.3873 9.01357 11.8609 8.77565ZM23.4882 12.0699C23.9734 12.0882 24.3238 11.9052 24.5664 11.5209C24.836 11.1 24.845 10.6699 24.5844 10.2398C24.3508 9.84629 24.0004 9.65412 23.5241 9.65412L23.4792 9.65412L23.4792 12.0699L23.4882 12.0699ZM12.7865 13.2595C13.0021 15.6754 15.1407 17.5604 17.6656 17.5604L17.6746 17.5604C20.1007 17.5513 22.2392 15.6662 22.5537 13.2595C22.5896 12.9759 22.6076 12.683 22.6076 12.3902C22.6166 11.4294 22.6166 10.4502 22.6076 9.49856L22.6076 8.59263L12.7595 8.59263C12.7595 9.05017 12.7505 9.50771 12.7415 9.9561C12.7146 11.0359 12.6876 12.1706 12.7865 13.2595ZM11.825 9.65413C11.3308 9.63582 10.9714 9.82799 10.7198 10.2306C10.4592 10.6607 10.4682 11.0908 10.7378 11.5117C10.9804 11.8961 11.3398 12.0699 11.825 12.0608L11.825 9.65413Z" fill="white"/>
<path d="M9.4167 2.16874C9.59641 1.94912 9.90191 1.81186 10.1176 1.75696C11.5642 1.40923 13.0468 1.07065 14.4755 0.732065C14.9068 0.631407 15.3471 0.530748 15.7784 0.430089L17.6295 7.40143e-07L17.6654 0.00915154C17.7013 0.0183023 17.7373 0.0274531 17.7732 0.0274531C17.8451 0.0366039 17.899 0.0549055 17.9619 0.0640563C19.0492 0.320279 20.1454 0.56735 21.2416 0.823573L22.9309 1.21706C23.6947 1.39092 24.4495 1.57394 25.2132 1.7478C25.5906 1.83931 25.8871 2.05893 26.0219 2.35176C26.1297 2.59883 26.1208 2.87335 25.986 3.12958C25.8602 3.3675 25.5996 3.58712 25.33 3.67862C22.9219 4.54795 20.4868 5.39898 18.0967 6.2134C17.9709 6.25915 17.8181 6.27745 17.6654 6.27745C17.5126 6.27745 17.3689 6.25915 17.2251 6.2134C16.6141 6.02123 15.9941 5.81076 15.401 5.60029C15.2034 5.52709 15.0057 5.46303 14.808 5.38982L13.8016 5.04209C12.5437 4.60286 11.2318 4.14532 9.94684 3.68778C9.59641 3.55966 9.33583 3.29429 9.24597 2.97401C9.1651 2.69034 9.228 2.39751 9.4167 2.16874ZM10.1535 2.73609C10.2164 2.8093 10.2883 2.8825 10.3512 2.90081C12.3729 3.61457 14.4306 4.33748 16.4254 5.02379L17.4318 5.37152C17.4947 5.38982 17.5576 5.40813 17.6205 5.42643C17.6384 5.42643 17.6474 5.43558 17.6654 5.43558L17.7013 5.42643C17.7552 5.40813 17.8002 5.39898 17.8451 5.38067L18.4471 5.17021C20.5857 4.43814 22.8051 3.66032 24.9886 2.90081C25.1323 2.8459 25.1952 2.80015 25.2222 2.76354C25.2312 2.74524 25.2492 2.72694 25.2402 2.71779C25.2312 2.69034 25.1593 2.62628 25.0066 2.58968C23.8384 2.31515 22.6703 2.04063 21.5022 1.77526L20.9361 1.64715C19.9208 1.40922 18.8695 1.1713 17.8361 0.933383C17.7732 0.915081 17.7103 0.915081 17.6384 0.915081C17.5845 0.915081 17.5306 0.924232 17.4767 0.933383C15.5089 1.38177 12.921 1.98573 10.3422 2.59883C10.2973 2.60798 10.2254 2.67204 10.1535 2.73609Z" fill="white"/>
<path d="M5.39151 20.9187L5.39151 22.5201L6.24513 22.5201L6.24513 22.3554C6.24513 22.1998 6.24513 22.0442 6.24513 21.8978C6.24513 21.5318 6.24513 21.1566 6.23614 20.7814C6.22716 20.5893 6.28107 20.5252 6.4518 20.4978C7.11672 20.3788 7.79064 20.2507 8.43759 20.1317C9.83933 19.8664 11.295 19.5918 12.7327 19.3814C14.6106 19.0977 16.4617 20.3239 17.0367 22.2456L17.0457 22.273C17.1086 22.4926 17.1985 22.7946 17.5938 22.8129C17.6118 22.8129 17.6298 22.8129 17.6388 22.8129C18.0341 22.8129 18.1689 22.5475 18.2498 22.3096C18.744 20.754 19.8043 19.7748 21.4037 19.4088C22.1135 19.2441 22.8054 19.3814 23.5422 19.5186L24.1802 19.6376C25.6808 19.9213 27.2353 20.2049 28.7718 20.4795C29.0324 20.5252 29.0953 20.6076 29.0863 20.8546C29.0683 21.2024 29.0773 21.541 29.0773 21.8978C29.0773 22.0442 29.0773 22.1998 29.0773 22.3554L29.0773 22.5201L29.9219 22.5201L29.9219 22.3554C29.9219 22.1724 29.9219 21.9893 29.9309 21.8063C29.9399 21.3762 29.9489 20.937 29.913 20.4978C29.886 20.0585 29.5805 19.7565 29.0863 19.665C28.4843 19.5552 27.8912 19.4454 27.2892 19.3356C26.3188 19.1526 25.3124 18.9696 24.324 18.7866C24.1443 18.75 23.9646 18.7134 23.7938 18.6859C23.1289 18.5486 22.437 18.4114 21.7182 18.4937C19.8402 18.7225 18.4744 19.7108 17.6657 21.4311C16.866 19.5552 14.6915 18.0179 11.9419 18.5944C10.657 18.8689 9.33615 19.0977 8.0602 19.3265C7.53006 19.4271 6.99093 19.5186 6.46078 19.6193C5.62513 19.7748 5.39151 20.0677 5.39151 20.9187Z" fill="white"/>
<path d="M1.21288 3.81591C2.74042 2.06811 5.3552 1.70208 7.28709 2.98319C8.27549 3.6329 8.94042 4.53883 9.2639 5.67353C9.65926 7.0553 9.46158 8.40047 8.67984 9.69073C8.7068 9.71818 8.74274 9.74563 8.7697 9.78224C8.90448 9.91035 9.03028 10.0385 9.15607 10.1666C9.54245 10.5875 9.55144 11.164 9.18303 11.5575C8.99433 11.7588 8.75172 11.8595 8.50912 11.8595C8.25752 11.8595 8.00593 11.7588 7.79028 11.5483C7.65549 11.4202 7.53868 11.2738 7.42187 11.1366C7.4039 11.1091 7.37694 11.0817 7.34998 11.0542C4.95085 12.5824 2.381 11.7405 1.06013 10.0934C-0.404508 8.23575 -0.350594 5.60032 1.21288 3.81591ZM2.40796 10.1849C3.77375 11.2281 5.5439 11.2647 6.92767 10.2764C7.06245 10.1849 7.2152 10.0934 7.37694 10.0934C7.5297 10.0934 7.69143 10.1666 7.85317 10.3679C7.95201 10.4868 8.05984 10.5967 8.18564 10.7156C8.24854 10.7705 8.31144 10.8346 8.36535 10.8986C8.44622 10.981 8.49115 10.9901 8.50912 10.9901C8.53607 10.9901 8.56303 10.9627 8.581 10.9444C8.62593 10.8986 8.65288 10.862 8.5181 10.7248C8.4552 10.6607 8.40129 10.5967 8.33839 10.5418C8.23057 10.4228 8.12274 10.313 8.00593 10.2032C7.61057 9.85544 7.74535 9.53516 7.91607 9.28809C8.67984 8.16254 8.83259 6.93634 8.37433 5.66437C7.82622 4.12704 6.36158 3.093 4.74419 3.093C3.08187 3.093 1.59926 4.18194 1.06911 5.79249C0.520999 7.38473 1.06911 9.15998 2.40796 10.1849Z" fill="white"/>
<path d="M8.66195 18.5304L9.46166 18.686L9.49761 18.5395C9.86601 17.1761 10.7106 16.4166 12.0764 16.2335L12.2022 16.2152L12.2112 16.078C12.2112 16.0505 12.2112 16.0231 12.2112 15.9956C12.2112 15.9316 12.2202 15.8675 12.2202 15.8035C12.2202 15.7394 12.2112 15.6845 12.2022 15.6296C12.2022 15.6113 12.1933 15.5838 12.1933 15.5655L12.1843 15.4283L12.0495 15.4191C10.5938 15.3185 9.04833 16.6636 8.68891 18.3657L8.66195 18.5304Z" fill="white"/>
<path d="M23.0658 16.1969L23.2095 16.2152C24.6023 16.4165 25.4469 17.176 25.8063 18.5303L25.8423 18.6767L26.624 18.5212L26.5971 18.3656C26.3455 16.7276 24.8359 15.3916 23.2545 15.3916L23.1017 15.3916L23.0658 16.1969Z" fill="white"/>
<path d="M17.6564 15.1354C18.0607 15.1354 18.4381 14.9798 18.7166 14.687C18.9952 14.4033 19.139 14.019 19.13 13.6164L19.13 13.4608L18.3572 13.4608L18.3303 13.5889C18.2404 14.0373 18.0158 14.2569 17.6204 14.2569C17.4227 14.2569 17.1442 14.1837 16.9824 13.5706L16.9465 13.4517L16.2097 13.4517L16.1827 13.5798C16.1288 13.8909 16.2456 14.2569 16.4882 14.5589C16.7758 14.9158 17.1891 15.1171 17.6294 15.1263C17.6384 15.1354 17.6474 15.1354 17.6564 15.1354Z" fill="white"/>
<path d="M18.5908 10.7339L21.0259 10.7339L21.0259 9.91028L18.5908 9.91028L18.5908 10.7339Z" fill="white"/>
<path d="M14.2868 10.7338L16.7129 10.7338L16.7129 9.90112L14.2868 9.90112L14.2868 10.7338Z" fill="white"/>
<path d="M17.2431 12.6555L18.0518 12.6555L18.0518 10.1848L17.2431 10.1848L17.2431 12.6555Z" fill="white"/>
<path d="M19.8128 12.1156C19.8218 12.1156 19.8308 12.1156 19.8308 12.1156C20.2082 12.1065 20.5137 11.7679 20.5047 11.3927C20.4957 11.0084 20.1812 10.7064 19.8128 10.7064C19.8038 10.7064 19.7948 10.7064 19.7948 10.7064C19.6151 10.7156 19.4444 10.7888 19.3096 10.926C19.1838 11.0633 19.1119 11.2463 19.1209 11.4293C19.1299 11.8137 19.4444 12.1156 19.8128 12.1156Z" fill="white"/>
<path d="M15.5002 12.1157C15.5092 12.1157 15.5272 12.1157 15.5362 12.1157C15.9135 12.0974 16.2101 11.7588 16.1921 11.3745C16.1741 10.9902 15.8417 10.6882 15.4643 10.7065C15.2846 10.7156 15.1138 10.798 14.988 10.9352C14.8622 11.0725 14.7993 11.2555 14.8083 11.4385C14.8263 11.8229 15.1408 12.1157 15.5002 12.1157Z" fill="white"/>
<path d="M2.92906 7.91541C2.93805 7.90626 2.94703 7.89711 2.94703 7.8788C2.51573 7.31145 2.51573 7.00033 2.92906 6.35977C3.00993 6.23166 3.09978 6.10355 3.18065 5.97544C3.40529 5.62771 3.63892 5.26167 3.88153 4.91394C3.98935 4.75838 4.11515 4.63027 4.2679 4.54791C4.41167 4.46555 4.57341 4.4198 4.73515 4.4198C5.06761 4.4198 5.37312 4.60282 5.58877 4.91394C5.80442 5.23422 6.02007 5.56365 6.22674 5.88393C6.32558 6.03949 6.42442 6.18591 6.52326 6.34147C6.95457 7.00948 6.97254 7.3023 6.52326 7.8788C6.53225 7.88795 6.53225 7.89711 6.54123 7.89711C6.60413 7.98861 6.65805 8.08012 6.71196 8.18078C6.88269 8.49191 6.88268 8.86709 6.72094 9.16907C6.5592 9.46189 6.26268 9.63576 5.93022 9.64491C5.53486 9.65406 5.13051 9.66321 4.73515 9.66321C4.3308 9.66321 3.93544 9.65406 3.54007 9.64491C3.20761 9.63576 2.91109 9.45274 2.75834 9.16907C2.58761 8.86709 2.5966 8.50106 2.76732 8.18078C2.81225 8.08927 2.86616 8.00692 2.92906 7.91541ZM3.23457 8.922C3.28848 9.00435 3.39631 9.09586 3.62094 9.10501C3.88152 9.11416 4.15109 9.11416 4.40268 9.11416C4.51051 9.11416 4.61834 9.11416 4.73515 9.11416C4.83399 9.11416 4.93283 9.11416 5.04066 9.11416C5.15747 9.11416 5.27428 9.11416 5.40008 9.11416C5.54384 9.11416 5.67863 9.11416 5.82239 9.10501C6.08297 9.09586 6.19979 8.98605 6.2537 8.90369C6.33457 8.76643 6.3166 8.60172 6.21776 8.4004C6.07399 8.10757 5.80442 7.72324 5.19341 7.8056C4.97776 7.83305 4.75312 7.8239 4.52848 7.8239C4.42065 7.8239 4.32181 7.81475 4.21399 7.81475C3.68384 7.81475 3.38732 8.02522 3.22558 8.51936C3.13573 8.71153 3.18065 8.83964 3.23457 8.922ZM3.20761 7.33891C3.26153 7.43957 3.37834 7.56768 3.66587 7.57683C3.80964 7.58598 3.95341 7.58598 4.09718 7.58598C4.205 7.58598 4.32181 7.58598 4.42964 7.58598C4.64529 7.58598 4.85196 7.58598 5.06761 7.58598C5.31022 7.58598 5.55283 7.58598 5.80442 7.57683C6.10095 7.56768 6.22674 7.43957 6.27167 7.33891C6.32558 7.23825 6.35254 7.06438 6.18181 6.80816C5.85833 6.30487 5.52587 5.79242 5.15747 5.24337C5.0766 5.11526 4.93283 4.95055 4.74413 4.95055C4.64529 4.95055 4.56442 4.98715 4.50152 5.05121C4.42964 5.10611 4.37573 5.17932 4.33978 5.24337C3.95341 5.81987 3.61196 6.34147 3.29747 6.83561C3.12674 7.06438 3.1537 7.23825 3.20761 7.33891Z" fill="white"/>
<path d="M3.20744 8.51024C3.37816 8.01609 3.67469 7.80563 4.19584 7.80563C4.30367 7.80563 4.40251 7.80563 4.51034 7.81478C4.74396 7.82393 4.95961 7.83308 5.17526 7.79647C5.78628 7.71412 6.05584 8.09845 6.19961 8.39128C6.29845 8.59259 6.30744 8.76646 6.23555 8.89457C6.18164 8.98608 6.06483 9.09589 5.80425 9.09589C5.66048 9.10504 5.5257 9.10504 5.38193 9.10504C5.26512 9.10504 5.13932 9.10504 5.02251 9.10504C4.92367 9.10504 4.82483 9.10504 4.717 9.10504C4.60918 9.10504 4.50135 9.10504 4.38454 9.10504C4.12396 9.10504 3.86338 9.10504 3.6028 9.09589C3.37816 9.08674 3.26135 8.99523 3.21642 8.91287C3.18048 8.83967 3.13555 8.71155 3.20744 8.51024ZM3.49497 8.73901C3.50396 8.75731 3.54889 8.78476 3.63874 8.78476C3.89034 8.79391 4.1599 8.79391 4.4115 8.79391C4.51932 8.79391 4.63613 8.79391 4.74396 8.79391C4.8428 8.79391 4.95063 8.79391 5.04947 8.79391C5.30106 8.79391 5.56164 8.79391 5.81324 8.79391C5.92106 8.79391 5.96599 8.76646 5.98396 8.74816C5.99295 8.72986 6.00193 8.6658 5.93903 8.54684C5.78628 8.24486 5.62454 8.11675 5.36396 8.11675C5.32802 8.11675 5.28309 8.11675 5.23816 8.1259C4.99555 8.16251 4.75294 8.15336 4.51932 8.1442C4.42048 8.1442 4.31265 8.13505 4.21381 8.13505C3.81845 8.13505 3.64773 8.25401 3.52193 8.62005C3.48599 8.67495 3.477 8.72071 3.49497 8.73901Z" fill="white"/>
<path d="M3.27943 6.82647C3.59392 6.33233 3.93537 5.81073 4.32175 5.23423C4.36668 5.17018 4.42059 5.09697 4.48349 5.04207C4.55537 4.98716 4.63624 4.94141 4.7261 4.94141C4.92378 4.94141 5.05856 5.10612 5.13943 5.23423C5.50784 5.78328 5.8403 6.29573 6.16378 6.79902C6.32552 7.05524 6.29856 7.22911 6.25364 7.32977C6.19972 7.43042 6.08291 7.54939 5.78639 7.56769C5.54378 7.57684 5.29219 7.57684 5.04958 7.57684C4.83393 7.57684 4.62726 7.57684 4.41161 7.57684C4.30378 7.57684 4.19595 7.57684 4.07914 7.57684C3.93537 7.57684 3.79161 7.57684 3.64784 7.56769C3.3603 7.55854 3.24349 7.43043 3.18958 7.32977C3.15363 7.23826 3.12668 7.06439 3.27943 6.82647ZM4.42059 7.25656C4.52842 7.25656 4.63624 7.25656 4.74407 7.25656C4.85189 7.25656 4.95074 7.25656 5.05856 7.25656C5.29218 7.25656 5.54378 7.25656 5.7774 7.24741C5.91218 7.23826 5.9661 7.21081 5.97508 7.18335C5.98407 7.16505 5.98407 7.09185 5.9032 6.97288C5.57972 6.46959 5.24726 5.95715 4.87885 5.41725C4.82494 5.34404 4.789 5.29829 4.76204 5.27999C4.73508 5.26168 4.7261 5.26168 4.7261 5.26168C4.70813 5.26168 4.65421 5.28914 4.57334 5.4081C4.18697 5.9846 3.84552 6.49704 3.53103 6.99119C3.46813 7.0827 3.45914 7.1559 3.46813 7.18335C3.4861 7.21081 3.549 7.23826 3.66581 7.24741C3.92639 7.26571 4.17798 7.25656 4.42059 7.25656Z" fill="white"/>
</g>
</svg>
