<svg width="53" height="56" viewBox="0 0 53 56" fill="none" xmlns="http://www.w3.org/2000/svg">
<g clip-path="url(#clip0_721_3797)">
<path d="M26.4687 52.7579C41.087 52.7579 52.9375 40.9476 52.9375 26.379C52.9375 11.8103 41.087 0 26.4687 0C11.8505 0 0 11.8103 0 26.379C0 40.9476 11.8505 52.7579 26.4687 52.7579Z" fill="#EA4E2C"/>
<path d="M14.2708 54.9444C12.7489 54.9444 11.5107 53.7105 11.5107 52.1937V15.2395C11.5107 13.7227 12.7489 12.4888 14.2708 12.4888H37.4856C39.0076 12.4888 40.2457 13.7227 40.2457 15.2395V52.1937C40.2457 53.7105 39.0076 54.9444 37.4856 54.9444H14.2708Z" fill="white"/>
<path d="M37.486 13.2147C38.6084 13.2147 39.5182 14.1213 39.5182 15.2399V52.1941C39.5182 53.3127 38.6084 54.2193 37.486 54.2193H14.2713C13.1489 54.2193 12.2391 53.3123 12.2391 52.1941V15.2399C12.2391 14.1213 13.1489 13.2147 14.2713 13.2147H37.486ZM37.486 11.7637H14.2713C12.348 11.7637 10.7832 13.3228 10.7832 15.2395V52.1937C10.7832 54.1104 12.348 55.6699 14.2713 55.6699H37.486C39.4093 55.6699 40.9737 54.1108 40.9737 52.1937V15.2395C40.9741 13.3232 39.4093 11.7637 37.486 11.7637Z" fill="#105F43"/>
<g opacity="0.2">
<path d="M34.4028 21.1664H17.8272C17.503 21.1664 17.2402 20.9045 17.2402 20.5815V20.455C17.2402 20.132 17.503 19.8701 17.8272 19.8701H34.4032C34.7273 19.8701 34.9901 20.132 34.9901 20.455V20.5815C34.9897 20.9045 34.7269 21.1664 34.4028 21.1664Z" fill="#105F43"/>
</g>
<g opacity="0.2">
<path d="M34.4028 24.0234H17.8272C17.503 24.0234 17.2402 23.7615 17.2402 23.4384V23.312C17.2402 22.989 17.503 22.7271 17.8272 22.7271H34.4032C34.7273 22.7271 34.9901 22.989 34.9901 23.312V23.4384C34.9897 23.7615 34.7269 24.0234 34.4028 24.0234Z" fill="#105F43"/>
</g>
<path d="M18.1508 34.2061C17.3812 34.2061 16.7549 33.5818 16.7549 32.8149V28.482C16.7549 27.7151 17.3812 27.0908 18.1508 27.0908H34.0786C34.8482 27.0908 35.4745 27.7146 35.4745 28.482V32.8149C35.4745 33.5818 34.8482 34.2061 34.0786 34.2061H18.1508Z" fill="white"/>
<path d="M34.0786 27.5743C34.5814 27.5743 34.9892 27.9807 34.9892 28.4818V32.8147C34.9892 33.3159 34.5814 33.7227 34.0786 33.7227H18.1508C17.6479 33.7227 17.2402 33.3163 17.2402 32.8147V28.4818C17.2402 27.9807 17.6479 27.5743 18.1508 27.5743H34.0786ZM34.0786 26.6074H18.1508C17.1137 26.6074 16.2695 27.4483 16.2695 28.4823V32.8152C16.2695 33.8491 17.1137 34.69 18.1508 34.69H34.0786C35.1161 34.69 35.9598 33.8491 35.9598 32.8152V28.4818C35.9598 27.4483 35.1156 26.6074 34.0786 26.6074Z" fill="#105F43"/>
<path d="M20.4008 31.8603C21.0726 31.8603 21.6171 31.3176 21.6171 30.6482C21.6171 29.9787 21.0726 29.436 20.4008 29.436C19.7291 29.436 19.1846 29.9787 19.1846 30.6482C19.1846 31.3176 19.7291 31.8603 20.4008 31.8603Z" fill="#EA4E2C"/>
<path d="M24.2094 31.8603C24.8812 31.8603 25.4257 31.3176 25.4257 30.6482C25.4257 29.9787 24.8812 29.436 24.2094 29.436C23.5377 29.436 22.9932 29.9787 22.9932 30.6482C22.9932 31.3176 23.5377 31.8603 24.2094 31.8603Z" fill="#EA4E2C"/>
<path d="M28.019 31.8603C28.6907 31.8603 29.2353 31.3176 29.2353 30.6482C29.2353 29.9787 28.6907 29.436 28.019 29.436C27.3473 29.436 26.8027 29.9787 26.8027 30.6482C26.8027 31.3176 27.3473 31.8603 28.019 31.8603Z" fill="#EA4E2C"/>
<path d="M31.8276 31.8603C32.4993 31.8603 33.0439 31.3176 33.0439 30.6482C33.0439 29.9787 32.4993 29.436 31.8276 29.436C31.1559 29.436 30.6113 29.9787 30.6113 30.6482C30.6113 31.3176 31.1559 31.8603 31.8276 31.8603Z" fill="#EA4E2C"/>
<path d="M32.7989 49.0419H19.431C18.2211 49.0419 17.2402 48.0644 17.2402 46.8586C17.2402 45.6529 18.2211 44.6753 19.431 44.6753H32.7993C34.0092 44.6753 34.9901 45.6529 34.9901 46.8586C34.9897 48.0644 34.0088 49.0419 32.7989 49.0419Z" fill="white"/>
<path d="M32.7987 49.6467H19.4308C17.8882 49.6467 16.6338 48.3961 16.6338 46.8592C16.6338 45.3223 17.8887 44.0713 19.4308 44.0713H32.7987C34.3412 44.0713 35.5956 45.3219 35.5956 46.8592C35.5956 48.3965 34.3412 49.6467 32.7987 49.6467ZM19.4308 45.28C18.5575 45.28 17.8466 45.988 17.8466 46.8588C17.8466 47.7291 18.557 48.4371 19.4308 48.4371H32.7987C33.672 48.4371 34.3828 47.7291 34.3828 46.8588C34.3828 45.988 33.6724 45.28 32.7987 45.28H19.4308Z" fill="#105F43"/>
<g opacity="0.5">
<path d="M34.4028 18.047H17.8272C17.503 18.047 17.2402 17.7851 17.2402 17.4621V16.9643C17.2402 16.6413 17.503 16.3794 17.8272 16.3794H34.4032C34.7273 16.3794 34.9901 16.6413 34.9901 16.9643V17.4621C34.9897 17.7855 34.7269 18.047 34.4028 18.047Z" fill="#105F43"/>
</g>
<g opacity="0.2">
<path d="M34.4028 41.6645H17.8272C17.503 41.6645 17.2402 41.4026 17.2402 41.0796C17.2402 40.7565 17.503 40.4946 17.8272 40.4946H34.4032C34.7273 40.4946 34.9901 40.7565 34.9901 41.0796C34.9897 41.403 34.7269 41.6645 34.4028 41.6645Z" fill="#105F43"/>
</g>
<g opacity="0.2">
<path d="M34.4028 38.85H17.8272C17.503 38.85 17.2402 38.5881 17.2402 38.2651V37.9301C17.2402 37.6071 17.503 37.3452 17.8272 37.3452H34.4032C34.7273 37.3452 34.9901 37.6071 34.9901 37.9301V38.2651C34.9897 38.5881 34.7269 38.85 34.4028 38.85Z" fill="#105F43"/>
</g>
<path d="M39.3754 6.92485C38.9733 6.92485 38.6475 6.60012 38.6475 6.19935V1.42081C38.6475 1.02003 38.9733 0.695312 39.3754 0.695312C39.7776 0.695312 40.1034 1.02003 40.1034 1.42081V6.19935C40.1034 6.60012 39.7776 6.92485 39.3754 6.92485Z" fill="#105F43"/>
<path d="M44.6847 10.0619C44.4982 10.0619 44.3121 9.99099 44.1702 9.84956C43.886 9.56628 43.886 9.10697 44.1702 8.8237L47.5605 5.44488C47.8448 5.1616 48.3056 5.1616 48.5899 5.44488C48.8741 5.72816 48.8741 6.18747 48.5899 6.47074L45.1996 9.84956C45.0572 9.99141 44.8707 10.0619 44.6847 10.0619Z" fill="#105F43"/>
<path d="M51.8734 15.8973H47.0786C46.6764 15.8973 46.3506 15.5726 46.3506 15.1718C46.3506 14.771 46.6764 14.4463 47.0786 14.4463H51.8734C52.2755 14.4463 52.6013 14.771 52.6013 15.1718C52.6013 15.5726 52.2755 15.8973 51.8734 15.8973Z" fill="#105F43"/>
</g>
<defs>
<clipPath id="clip0_721_3797">
<rect width="52.9375" height="56" fill="white"/>
</clipPath>
</defs>
</svg>
