<svg width="26" height="26" viewBox="0 0 26 26" fill="none" xmlns="http://www.w3.org/2000/svg">
<path d="M13.0007 8.66667V14.0833M13.0007 23.8333C7.76815 23.8333 3.52148 19.5867 3.52148 14.3542C3.52148 9.12167 7.76815 4.875 13.0007 4.875C18.2332 4.875 22.4798 9.12167 22.4798 14.3542" stroke="#105F43" stroke-width="1.5" stroke-linecap="round" stroke-linejoin="round"/>
<path d="M20.5827 17.5195C20.5827 18.1682 20.5004 18.6619 20.3358 19.0008C20.1809 19.3396 19.8566 19.7027 19.3628 20.0899C18.8691 20.4772 18.5399 20.787 18.3754 21.0193C18.2205 21.242 18.143 21.484 18.143 21.7454V22.2246H16.8651C16.6327 21.9245 16.5166 21.5469 16.5166 21.0919C16.5166 20.8499 16.6085 20.6079 16.7925 20.3658C16.9764 20.1238 17.3056 19.8092 17.78 19.4219C18.2543 19.025 18.569 18.72 18.7239 18.507C18.8788 18.2844 18.9562 17.9939 18.9562 17.6357C18.9562 16.929 18.4431 16.5756 17.4169 16.5756C16.836 16.5756 16.2261 16.6434 15.5872 16.7789L15.2531 16.8515L15.166 15.6462C16.0664 15.3267 16.8844 15.167 17.6202 15.167C18.6367 15.167 19.3822 15.3558 19.8566 15.7333C20.3407 16.1012 20.5827 16.6966 20.5827 17.5195ZM16.6182 25.2742V23.2412H18.3027V25.2742H16.6182Z" fill="#A87E33"/>
<path d="M9.75 2.16699H16.25" stroke="#105F43" stroke-width="1.5" stroke-miterlimit="10" stroke-linecap="round" stroke-linejoin="round"/>
</svg>
