<svg width="92" height="67" viewBox="0 0 92 67" fill="none" xmlns="http://www.w3.org/2000/svg">
<path d="M91.8405 28.0941C91.5253 28.7981 91.3008 29.5643 90.8758 30.1941C89.9184 31.614 88.5359 32.3875 86.8073 32.4306C85.5346 32.4617 84.2596 32.4377 82.944 32.4377C82.944 40.6557 82.944 48.7467 82.944 56.9503C83.9349 56.9503 84.8828 56.9383 85.8283 56.9527C86.9983 56.9718 87.471 57.4196 87.4806 58.5833C87.4877 59.6896 87.5116 60.803 87.3851 61.8973C87.0747 64.5839 84.8947 66.6672 82.2229 66.921C81.7788 66.9641 81.3299 66.9856 80.8834 66.9856C56.1782 66.988 31.4753 66.9808 6.7701 67C4.09352 67.0024 1.99715 66.0925 0.743617 63.6285C0.488136 63.1281 0.349651 62.5702 0.15625 62.0386C0.15625 60.6617 0.15625 59.2849 0.15625 57.9081C0.540665 57.1418 1.17579 56.8928 2.00192 56.9431C2.68479 56.9838 3.37483 56.9263 4.06009 56.9574C4.57583 56.9814 4.76207 56.7635 4.72387 56.2702C4.70238 56.002 4.72148 55.7315 4.72148 55.4633C4.72148 39.2166 4.71909 22.9699 4.73103 6.72317C4.73103 5.89227 4.77639 5.03504 4.98651 4.24007C5.61447 1.86951 7.67742 0.219696 10.1081 0.0305299C10.4041 0.00658488 10.705 0.00179588 11.0011 0.00179588C32.8697 -0.000598626 54.7384 -0.000598626 76.6071 0.00179588C79.8854 0.00179588 82.2158 1.81683 82.7983 4.82433C82.8819 5.26012 82.8843 5.71508 82.8915 6.16285C82.9058 7.02727 82.8962 7.88929 82.8962 8.88301C83.7415 8.88301 84.5342 8.88301 85.3269 8.88301C89.1854 8.88301 90.3983 9.68277 91.8405 13.1859C91.8405 18.1569 91.8405 23.1255 91.8405 28.0941ZM80.1289 56.8784C80.1289 48.6605 80.1289 40.5982 80.1289 32.4497C79.7159 32.4497 79.3649 32.4497 79.0139 32.4497C71.0749 32.4497 63.1383 32.4473 55.1992 32.4545C54.4376 32.4545 53.7571 32.3635 53.461 31.523C53.1793 30.7185 53.6592 30.23 54.1845 29.7511C56.3215 27.7948 58.4465 25.8193 60.6002 23.8822C61.0347 23.4895 61.2305 23.1016 61.2234 22.5029C61.1923 19.8403 61.2042 17.1752 61.2114 14.5125C61.2186 11.086 63.3985 8.89019 66.7938 8.8878C70.9125 8.88301 75.0312 8.8878 79.15 8.8878C79.4699 8.8878 79.7875 8.8878 80.191 8.8878C80.191 7.98986 80.1934 7.19009 80.191 6.38794C80.1862 3.94315 78.9996 2.7435 76.5713 2.7435C54.7265 2.74111 32.8793 2.74111 11.0345 2.7435C8.63726 2.7435 7.46253 3.9192 7.46253 6.32089C7.46014 22.8406 7.46014 39.3626 7.46014 55.8823C7.46014 56.196 7.46014 56.5121 7.46014 56.8377C7.7777 56.8593 7.95439 56.8808 8.13107 56.8808C18.8159 56.8808 29.4984 56.8832 40.1832 56.876C41.537 56.876 41.9286 57.1825 42.1387 58.5043C42.2819 59.4142 42.9911 60.044 43.8483 60.0224C44.7245 60.0009 45.3692 59.3663 45.4671 58.4325C45.5793 57.3597 46.138 56.8712 47.2388 56.8712C57.8925 56.876 68.5463 56.8784 79.2001 56.8808C79.4914 56.8784 79.7851 56.8784 80.1289 56.8784ZM58.2674 29.7152C58.7449 29.7152 58.9527 29.7152 59.1604 29.7152C68.1739 29.7152 77.1873 29.7176 86.1984 29.7128C88.142 29.7128 89.1185 28.7454 89.1233 26.7939C89.1328 22.7232 89.1328 18.6526 89.1233 14.5819C89.1185 12.5849 88.1396 11.6056 86.1435 11.6056C79.7278 11.5984 73.3121 11.6008 66.8965 11.6056C64.898 11.608 63.9214 12.5849 63.9166 14.5771C63.9095 17.5104 63.8904 20.4437 63.931 23.3769C63.9429 24.203 63.6659 24.7873 63.0595 25.3237C61.5051 26.7077 59.9889 28.1348 58.2674 29.7152ZM84.7682 59.7351C84.3862 59.7111 84.1259 59.6824 83.8656 59.6824C72.1708 59.6872 60.4736 59.6968 48.7788 59.6848C48.2153 59.6848 47.9765 59.8787 47.7187 60.3672C46.8949 61.9189 45.5578 62.7498 43.7981 62.7426C42.0814 62.7354 40.7347 61.9452 39.9444 60.4151C39.6412 59.8261 39.3093 59.6896 38.7148 59.692C27.1083 59.6992 15.5018 59.6896 3.89534 59.6824C3.57778 59.6824 3.26022 59.6824 2.96893 59.6824C2.45797 62.2876 3.79984 64.2775 6.76294 64.2655C24.0974 64.1889 41.4343 64.2272 58.7688 64.2272C66.2876 64.2272 73.8064 64.2296 81.3251 64.2248C83.0085 64.2248 84.2477 63.4154 84.5939 61.9883C84.7658 61.2819 84.7157 60.5205 84.7682 59.7351Z" fill="#105F43"/>
<path d="M38.3242 33.4723C37.1232 31.9063 36.7817 30.2517 36.8438 28.4606C36.894 27.0263 36.8366 25.5896 36.8629 24.1529C36.9274 20.6474 39.6063 17.8578 43.1043 17.6327C47.7459 17.3334 50.7926 20.202 50.8021 24.8761C50.8045 25.9823 50.7735 27.091 50.8093 28.1972C50.869 30.0673 50.5753 31.8321 49.3289 33.4508C49.6584 33.5418 49.8996 33.6136 50.1408 33.6759C54.152 34.6815 56.9576 36.9875 58.0702 41.0988C58.2254 41.6687 58.2875 42.2769 58.297 42.8684C58.3281 44.5134 58.309 46.1584 58.3066 47.8058C58.3042 49.1324 57.8243 49.8172 56.9122 49.8052C56.012 49.7933 55.5632 49.118 55.5608 47.7675C55.5584 46.3619 55.4891 44.9516 55.5751 43.5508C55.7613 40.4475 53.6984 37.8423 51.0982 36.8773C50.1288 36.5181 49.0997 36.1925 48.0802 36.1278C44.7518 35.9195 41.3971 35.6513 38.1021 36.3745C35.0913 37.0353 32.9233 38.7402 32.1664 41.8938C32.078 42.2649 32.0541 42.66 32.0518 43.0455C32.0374 44.8414 32.0613 46.6349 32.0327 48.4308C32.0207 49.2162 31.4787 49.7861 30.7696 49.7957C30.0175 49.8052 29.4014 49.4101 29.3871 48.6726C29.337 46.314 29.0887 43.8956 29.4922 41.6017C30.2586 37.2245 33.248 34.7797 37.4312 33.6926C37.6843 33.6208 37.9421 33.5633 38.3242 33.4723ZM39.5634 26.7438C39.5634 27.5795 39.5467 28.4175 39.5658 29.2532C39.6183 31.5735 41.3159 33.1946 43.737 33.2568C46.0507 33.3167 47.8844 31.8201 48.0157 29.586C48.1256 27.7111 48.1327 25.8195 48.0133 23.9446C47.8629 21.574 46.0674 20.2595 43.3574 20.3528C41.2586 20.4271 39.6326 22.0817 39.5681 24.2343C39.5443 25.07 39.5634 25.9057 39.5634 26.7438Z" fill="#A87E33"/>
<path d="M43.8013 7.86234C43.2664 7.86234 42.7292 7.89107 42.1968 7.85515C41.4375 7.80726 40.979 7.37386 40.9265 6.61241C40.874 5.85335 41.2703 5.2667 42.0081 5.21162C43.2163 5.12063 44.4435 5.12063 45.6517 5.2212C46.3895 5.28346 46.7739 5.87969 46.7071 6.63875C46.645 7.35231 46.2104 7.78571 45.4941 7.84318C44.933 7.88868 44.3648 7.85276 43.8013 7.85276C43.8013 7.85755 43.8013 7.85994 43.8013 7.86234Z" fill="#A87E33"/>
</svg>
