<svg width="21" height="23" viewBox="0 0 21 23" fill="none" xmlns="http://www.w3.org/2000/svg">
<path d="M17.7305 0C18.2813 0.219316 18.4886 0.634239 18.4412 1.2092C18.4293 1.36924 18.4412 1.53521 18.4353 1.69526C18.4175 2.22873 18.0326 2.61401 17.4996 2.61994C17.2745 2.62587 17.0436 2.61994 16.8008 2.61994C16.8008 2.8926 16.8008 3.14156 16.8008 3.42015C16.8896 3.42015 16.9666 3.42015 17.0436 3.42015C17.7661 3.42015 18.4945 3.40829 19.217 3.42607C20.2474 3.44386 21.0232 4.23814 20.9995 5.26359C20.958 7.09518 20.2888 8.6541 18.9801 9.94036C18.9386 9.98185 18.8912 10.0174 18.8498 10.0648C18.6958 10.2308 18.7017 10.3671 18.8794 10.5094C19.365 10.9184 19.365 11.523 18.8676 11.932C18.7491 12.0328 18.7195 12.1276 18.7728 12.2758C18.9978 12.8982 18.7017 13.4139 18.0562 13.5265C17.8964 13.5502 17.8253 13.6213 17.8075 13.7814C17.772 14.0955 17.6062 14.3267 17.3338 14.4867C17.2745 14.5223 17.2272 14.6349 17.2212 14.712C17.2094 15.2691 17.2153 15.8204 17.2153 16.3776C17.2153 16.9111 16.8719 17.1007 16.404 16.834C16.1494 16.6858 15.9006 16.5258 15.6401 16.3894C15.569 16.3539 15.4387 16.3539 15.3677 16.3894C15.0893 16.5376 14.8169 16.7095 14.5445 16.8636C14.1477 17.0889 13.7924 16.8814 13.7865 16.425C13.7806 15.856 13.7806 15.2869 13.7865 14.7179C13.7865 14.5993 13.7687 14.5223 13.6444 14.4571C13.3838 14.3267 13.2358 14.1014 13.2061 13.8051C13.1884 13.6332 13.1173 13.5443 12.9337 13.5205C12.7738 13.4968 12.6199 13.4198 12.4481 13.3605C12.3948 14.3978 12.5784 15.3936 13.0522 16.3183C13.2594 16.7214 13.5378 17.0948 13.7806 17.4801C13.8576 17.5986 13.9582 17.6342 14.0944 17.6342C14.6926 17.6283 15.2907 17.6283 15.8888 17.6342C16.6764 17.6342 17.0969 18.0551 17.0969 18.8375C17.0969 19.7385 17.0969 20.6394 17.0969 21.5463C17.0969 22.3051 16.6705 22.7259 15.9125 22.7259C12.306 22.7259 8.69952 22.7259 5.09304 22.7259C4.32318 22.7259 3.90272 22.3051 3.90272 21.5286C3.90272 20.6276 3.90272 19.7266 3.90272 18.8197C3.90272 18.061 4.3291 17.6342 5.08119 17.6342C5.69708 17.6342 6.30704 17.6401 6.92293 17.6283C7.0236 17.6283 7.15388 17.569 7.2131 17.4919C8.18431 16.2827 8.61661 14.8957 8.55739 13.3487C8.55739 13.2775 8.51002 13.1945 8.45672 13.1471C8.08364 12.8152 7.70463 12.4832 7.31378 12.1632C7.23087 12.092 7.10651 12.0565 6.99991 12.0268C6.14123 11.8134 5.25885 11.6653 4.42385 11.3926C1.8241 10.545 0.0297447 8.04357 0.000134789 5.31101C-0.0117092 4.21443 0.758148 3.432 1.85371 3.42607C2.55843 3.42015 3.25722 3.42607 3.96194 3.42607C4.03892 3.42607 4.12183 3.42607 4.21066 3.42607C4.21066 3.15341 4.21066 2.90446 4.21066 2.62587C3.9797 2.62587 3.75467 2.62587 3.52963 2.62587C2.96705 2.61994 2.58804 2.24058 2.5762 1.67747C2.57027 1.52336 2.58804 1.36332 2.5762 1.2092C2.51698 0.634239 2.72424 0.219316 3.27499 0C8.09548 0 12.916 0 17.7305 0ZM15.7111 7.49232C16.2323 5.8919 16.1138 4.25592 16.1198 2.61994C15.9954 2.61994 15.9066 2.61994 15.8177 2.61994C13.2298 2.61994 10.6479 2.61994 8.05995 2.61994C7.98888 2.61994 7.9119 2.62587 7.84083 2.61401C7.66317 2.5903 7.55658 2.48361 7.54474 2.31171C7.53289 2.14574 7.6158 2.02127 7.78161 1.97977C7.87044 1.95606 7.97112 1.95606 8.06587 1.95606C11.1394 1.95606 14.2129 1.95606 17.2864 1.95606C17.3456 1.95606 17.4048 1.95606 17.464 1.95606C17.6832 1.95014 17.772 1.86715 17.7779 1.64784C17.7838 1.47001 17.7779 1.29219 17.7779 1.11436C17.7779 0.717223 17.7246 0.663876 17.3338 0.663876C12.7798 0.663876 8.23168 0.663876 3.67768 0.663876C3.64215 0.663876 3.60662 0.663876 3.56517 0.663876C3.32829 0.669804 3.24538 0.752788 3.23946 0.983959C3.23354 1.16771 3.23946 1.35146 3.23946 1.54114C3.23946 1.89679 3.29868 1.95606 3.64807 1.95606C4.48307 1.95606 5.31807 1.95606 6.15307 1.95606C6.4847 1.95606 6.65052 2.06869 6.65052 2.29393C6.65052 2.51917 6.49062 2.61994 6.14715 2.61994C5.73853 2.61994 5.32399 2.61994 4.90945 2.61994C4.90353 2.70292 4.89761 2.75034 4.89761 2.80369C4.89761 3.47942 4.88577 4.14923 4.90353 4.82496C4.94499 7.01219 5.62009 8.98604 6.95254 10.7287C7.67502 11.6712 8.54555 12.4536 9.55821 13.076C10.0497 13.3842 10.5946 13.4791 11.1275 13.236C11.5894 13.0286 12.1165 12.8685 12.2586 12.2639C12.2882 12.1276 12.2823 12.0268 12.1698 11.9557C11.6605 11.6297 11.6487 10.8295 12.1698 10.4857C12.2823 10.4086 12.3119 10.3019 12.2468 10.1775C11.9625 9.59657 12.3948 8.94454 12.9633 8.91491C13.1055 8.90898 13.1825 8.82007 13.2121 8.67781C13.3424 8.00208 13.822 7.71756 14.4616 7.94873C14.6037 8.00208 14.7044 7.97837 14.7873 7.85982C15.0064 7.54566 15.3203 7.43897 15.7111 7.49232ZM10.482 22.0561C12.2942 22.0561 14.1004 22.0561 15.9125 22.0561C16.3152 22.0561 16.4395 21.9316 16.4395 21.5226C16.4395 20.6217 16.4395 19.7207 16.4395 18.8197C16.4395 18.4344 16.3033 18.304 15.9184 18.304C12.3119 18.304 8.71136 18.304 5.10488 18.304C4.70219 18.304 4.57782 18.4344 4.57782 18.8434C4.57782 19.7385 4.57782 20.6335 4.57782 21.5286C4.57782 21.9435 4.70219 22.068 5.12265 22.068C6.90516 22.0561 8.6936 22.0561 10.482 22.0561ZM16.9074 13.9058C17.0673 13.9058 17.1265 13.8347 17.1561 13.6569C17.2272 13.2242 17.4996 12.9456 17.9141 12.8745C18.1865 12.827 18.2339 12.7441 18.1451 12.4832C18.0029 12.0802 18.0918 11.7245 18.4175 11.4459C18.6425 11.2563 18.6366 11.1733 18.4056 10.9777C18.1036 10.7228 18.003 10.3553 18.1332 9.97592C18.2398 9.67955 18.1984 9.61435 17.8964 9.54915C17.4877 9.46616 17.2272 9.20535 17.1561 8.80229C17.1028 8.51777 17.0317 8.47628 16.7653 8.57111C16.3448 8.72523 16.0013 8.63039 15.7171 8.2866C15.5631 8.09692 15.4447 8.09692 15.2907 8.27474C14.9709 8.64224 14.663 8.72523 14.207 8.56519C13.9938 8.48813 13.8931 8.53555 13.8576 8.74894C13.7806 9.22314 13.5141 9.4958 13.0344 9.57286C12.8271 9.60842 12.7738 9.70919 12.839 9.89887C13.0107 10.4027 12.9397 10.6694 12.5429 11.0192C12.383 11.1614 12.3889 11.28 12.5488 11.4222C12.9219 11.7423 13.0107 12.0565 12.8449 12.507C12.762 12.7381 12.8212 12.833 13.0581 12.8745C13.4904 12.9456 13.745 13.1945 13.8339 13.6154C13.8931 13.9236 13.9582 13.9592 14.2543 13.8584C14.6333 13.728 15.0005 13.8228 15.2552 14.1251C15.4565 14.3622 15.5276 14.3622 15.7348 14.1251C15.9954 13.8169 16.3566 13.7221 16.7356 13.8525C16.8067 13.8703 16.8719 13.894 16.9074 13.9058ZM7.97112 17.6105C9.67073 17.6105 11.3407 17.6105 13.0403 17.6105C12.2053 16.4191 11.7908 15.121 11.773 13.6747C11.3526 13.8999 10.944 14.0185 10.5057 14.0185C10.0616 14.0185 9.65296 13.8881 9.2325 13.6747C9.22658 14.3978 9.11998 15.0735 8.91271 15.7256C8.69952 16.3954 8.38566 17.0118 7.97112 17.6105ZM6.45509 11.2088C6.27743 10.954 6.09977 10.7346 5.96357 10.4916C5.85105 10.296 5.70892 10.2071 5.48389 10.1537C3.23353 9.66177 1.55169 7.67607 1.4984 5.4592C1.48655 5.07984 1.64644 4.91387 2.02545 4.91387C2.67687 4.91387 3.32829 4.91387 3.97378 4.91387C4.05077 4.91387 4.12775 4.90794 4.20474 4.90201C4.20474 4.6175 4.20474 4.36261 4.20474 4.09588C4.14552 4.09588 4.09814 4.08995 4.04485 4.08995C3.3046 4.08995 2.57027 4.08402 1.83003 4.08995C1.13123 4.09588 0.64563 4.58786 0.669318 5.29323C0.722616 7.12481 1.46286 8.63039 2.87229 9.80403C3.90272 10.6635 5.14633 10.9777 6.45509 11.2088ZM16.7949 4.9198C16.9015 4.9198 16.9784 4.9198 17.0614 4.9198C17.6832 4.9198 18.299 4.9198 18.9209 4.9198C19.3828 4.9198 19.5367 5.06798 19.5012 5.53625C19.4183 6.76324 18.9445 7.81833 18.1036 8.71337C18.0562 8.76079 18.0148 8.81414 17.9615 8.87342C18.1214 8.92676 18.2635 8.95047 18.382 9.01567C18.5004 9.07495 18.6011 9.17572 18.7136 9.2587C19.6789 8.30438 20.3125 6.77509 20.3362 5.33472C20.354 4.57008 19.8861 4.08995 19.1281 4.08995C18.4175 4.08995 17.7128 4.08995 17.0021 4.08995C16.937 4.08995 16.8719 4.09588 16.8008 4.10181C16.7949 4.37447 16.7949 4.62935 16.7949 4.9198ZM5.32399 9.40096C4.72587 8.18583 4.37648 6.91735 4.25804 5.60145C3.54148 5.60145 2.86045 5.60145 2.17942 5.60145C2.35116 7.67607 3.96786 9.10459 5.32399 9.40096ZM16.8126 5.59553C16.6468 6.34832 16.4869 7.07147 16.3211 7.80054C16.2797 7.97244 16.3744 8.01393 16.4988 7.96059C16.9488 7.76498 17.3338 7.85982 17.6536 8.20954C18.2872 7.59901 18.7965 6.46686 18.8261 5.59553C18.1451 5.59553 17.4581 5.59553 16.8126 5.59553ZM14.4616 16.1405C14.7222 15.9864 14.9531 15.8619 15.1722 15.7196C15.3973 15.5774 15.6105 15.5774 15.8355 15.7196C16.0546 15.8619 16.2856 15.9864 16.5521 16.1464C16.5521 15.6248 16.5521 15.1565 16.5461 14.6823C16.5461 14.6112 16.5047 14.5401 16.481 14.4689C16.3981 14.5045 16.2797 14.5104 16.2382 14.5756C15.8888 15.0913 15.1012 15.0854 14.7636 14.5697C14.6866 14.4512 14.58 14.4334 14.4557 14.4986C14.4616 15.038 14.4616 15.5655 14.4616 16.1405Z" fill="#105F43"/>
<path d="M14.6213 20.6193C14.6213 20.317 14.6213 20.0384 14.6213 19.7539C11.8735 19.7539 9.13757 19.7539 6.38385 19.7539C6.38385 20.0384 6.38385 20.317 6.38385 20.6193C6.4786 20.6193 6.56151 20.6193 6.65033 20.6193C8.14267 20.6193 9.63501 20.6193 11.1274 20.6193C11.2103 20.6193 11.2932 20.6133 11.3702 20.6252C11.5478 20.6489 11.6485 20.7556 11.6603 20.9334C11.6663 21.1112 11.5715 21.2298 11.3998 21.2654C11.3287 21.2831 11.2517 21.2831 11.1806 21.2831C9.62317 21.2831 8.06569 21.2831 6.50229 21.2831C5.94562 21.2831 5.70874 21.046 5.70874 20.4889C5.70874 20.2577 5.70874 20.0324 5.70874 19.8013C5.71466 19.3271 5.95746 19.0781 6.43714 19.0781C8.48615 19.0781 10.5292 19.0781 12.5782 19.0781C13.2415 19.0781 13.9107 19.0781 14.5739 19.0781C15.0595 19.0781 15.3083 19.333 15.3083 19.8191C15.3083 20.0799 15.3083 20.3347 15.3083 20.5956C15.3023 20.9927 15.0655 21.2713 14.6746 21.2831C14.0943 21.3009 13.508 21.295 12.9217 21.2891C12.7026 21.2891 12.5545 21.135 12.5605 20.9453C12.5664 20.7556 12.7085 20.6311 12.9395 20.6252C13.4192 20.6193 13.8988 20.6252 14.3785 20.6252C14.4496 20.6193 14.5266 20.6193 14.6213 20.6193Z" fill="#A87E33"/>
<path d="M15.4812 13.1583C14.3915 13.1346 13.5388 12.2455 13.5684 11.1607C13.598 10.1057 14.4922 9.25803 15.5582 9.28174C16.6182 9.30545 17.4828 10.2123 17.4473 11.2615C17.4117 12.3344 16.5353 13.182 15.4812 13.1583ZM15.5167 12.4944C16.2155 12.4885 16.784 11.9195 16.784 11.2259C16.784 10.5206 16.2096 9.93968 15.5049 9.94561C14.8001 9.95154 14.2316 10.5324 14.2376 11.2378C14.2376 11.9313 14.8179 12.5003 15.5167 12.4944Z" fill="#A87E33"/>
</svg>
