<svg width="24" height="28" viewBox="0 0 24 28" fill="none" xmlns="http://www.w3.org/2000/svg">
<path d="M11.9121 27.6556C9.94574 27.6477 8.25577 26.3289 7.72666 24.3783C7.71087 24.3231 7.69507 24.2757 7.67928 24.2204C7.67138 24.1967 7.66348 24.173 7.65559 24.1414L7.56872 23.8729H7.26863C6.97644 23.8729 6.67635 23.8729 6.38415 23.8729C6.09986 23.8729 5.80767 23.8729 5.52337 23.8729C5.168 23.8729 4.82053 23.8729 4.46516 23.8729C3.10686 23.865 2.10393 22.9884 1.92229 21.6459C1.85912 21.1958 1.94599 20.7536 2.1829 20.2797L2.39612 19.8533C2.80677 19.0399 3.22532 18.2028 3.62807 17.3736C3.72283 17.1762 3.77811 16.9393 3.78601 16.726C3.79391 15.7231 3.79391 14.7202 3.79391 13.7567C3.79391 13.1724 3.79391 12.588 3.79391 12.0036C3.79391 11.0086 3.95975 10.0688 4.29142 9.19222C4.37039 8.9711 4.57572 8.82895 4.79684 8.82895C4.81263 8.82895 4.82053 8.82895 4.83632 8.82895C5.09693 8.85264 5.30225 9.02638 5.34174 9.26329C5.35753 9.37385 5.34174 9.5239 5.29435 9.65025C5.02585 10.4479 4.8916 11.2692 4.8995 12.1615V12.7064C4.8995 14.0963 4.9074 15.5336 4.8916 16.9472C4.8916 17.1762 4.82843 17.4368 4.72576 17.65C4.40198 18.3371 4.04661 19.032 3.70704 19.7033C3.5412 20.027 3.37536 20.3587 3.21742 20.6825C2.94892 21.2195 2.93312 21.7407 3.17793 22.1356C3.42274 22.5304 3.89657 22.7515 4.49675 22.7515C6.85798 22.7515 9.21921 22.7515 11.5883 22.7515C14.1786 22.7515 16.7767 22.7515 19.367 22.7515C20.1804 22.7515 20.7253 22.3567 20.8279 21.6933C20.8674 21.3932 20.8121 21.0379 20.67 20.7378C20.4331 20.2403 20.1804 19.7348 19.9356 19.2531C19.675 18.7319 19.4065 18.2028 19.1538 17.6658C19.0432 17.4289 18.9721 17.1525 18.9721 16.8998C18.9642 16.1969 18.9642 15.4783 18.9642 14.7834C18.9642 13.6778 18.9721 12.5406 18.9247 11.4192C18.7905 8.29985 16.3266 5.54376 13.1993 5.01466C12.7571 4.94358 12.3228 4.9041 11.9042 4.9041C10.2616 4.9041 8.74539 5.47269 7.39498 6.58618C7.24494 6.71253 7.09489 6.77571 6.96064 6.77571C6.86588 6.77571 6.77901 6.74412 6.68424 6.68884C6.51051 6.57828 6.36836 6.35716 6.44733 6.12025C6.48682 5.986 6.58948 5.84385 6.70004 5.74908C7.49764 5.04624 8.4374 4.53293 9.55879 4.16177L9.99313 4.01962L9.7878 3.60897C9.44033 2.91403 9.40084 2.25067 9.65355 1.57942C9.83518 1.10559 10.1432 0.710739 10.5775 0.418546C10.9803 0.142148 11.4541 0 11.9358 0C12.4649 0 12.9782 0.173736 13.4047 0.497517C14.3523 1.21615 14.5655 2.14011 14.1075 3.58528L14.0049 3.90117L14.3049 4.05121C14.534 4.16967 14.763 4.28023 14.9841 4.38289C15.4658 4.6119 15.9238 4.83302 16.3345 5.10942C18.7747 6.75202 20.0382 9.08166 20.0698 12.0352C20.0777 12.9196 20.0777 13.8199 20.0777 14.6886C20.0777 15.3362 20.0777 16.0074 20.0777 16.6708C20.0777 16.8998 20.133 17.1367 20.2357 17.3499C20.4726 17.8395 20.7253 18.3292 20.9622 18.8109C21.207 19.2926 21.4518 19.7901 21.6966 20.2876C22.0283 20.9747 22.0362 21.7644 21.7124 22.4514C21.3886 23.1306 20.7727 23.6202 20.0382 23.7861C19.7934 23.8413 19.517 23.8492 19.209 23.8571C18.8458 23.865 18.4825 23.865 18.0877 23.865C17.6928 23.865 17.2743 23.865 16.8241 23.8571H16.8083C16.453 23.8571 16.2318 24.0309 16.1371 24.3783C15.5922 26.3368 13.9022 27.6556 11.9279 27.6556H11.9121ZM8.91912 24.3546C9.17183 25.5471 10.5459 26.55 11.92 26.55C11.9516 26.55 11.9832 26.55 12.0148 26.55C13.3968 26.5027 14.763 25.4681 14.9367 24.331L15.0078 23.8729H8.82436L8.91912 24.3546ZM11.8884 1.11349C11.1619 1.12928 10.5696 1.73736 10.5854 2.47179C10.5933 3.21412 11.1856 3.79061 11.9279 3.79061C11.9358 3.79061 11.9516 3.79061 11.9595 3.79061C12.7097 3.77481 13.2704 3.19043 13.2625 2.43231C13.2546 1.68998 12.6623 1.10559 11.92 1.10559C11.9121 1.11349 11.9042 1.11349 11.8884 1.11349Z" fill="white"/>
<path d="M0.572101 12.5079C0.516821 12.5079 0.461541 12.5 0.406262 12.4842C0.177246 12.421 0.019304 12.2236 0.00350982 11.9788C-0.00438728 11.8998 0.00350982 11.8129 0.00350982 11.7261C0.00350982 11.6866 0.00350982 11.6471 0.00350982 11.5997C0.145658 9.4359 0.706351 7.51691 1.67769 5.87431C2.65693 4.22382 4.08631 2.81024 5.91843 1.67306C6.03689 1.60199 6.15535 1.5625 6.2738 1.5625C6.46333 1.5625 6.62917 1.65727 6.73183 1.831C6.90557 2.12319 6.80291 2.43118 6.46333 2.62861C4.34691 3.91583 2.79908 5.70848 1.88302 7.97494C1.3934 9.1832 1.13279 10.5099 1.1091 11.9235C1.10121 12.2631 0.880087 12.5079 0.572101 12.5079Z" fill="#A87E33"/>
<path d="M23.2981 12.5078C22.9823 12.5078 22.7611 12.263 22.7532 11.9234C22.7296 10.3598 22.4137 8.89882 21.8135 7.58C20.8737 5.50307 19.4049 3.85257 17.4464 2.66801C17.091 2.45479 17.0357 2.27315 17.0594 2.06783C17.091 1.72036 17.3516 1.57031 17.5885 1.57031C17.6991 1.57031 17.8176 1.6019 17.9281 1.66508C19.0574 2.32054 20.0603 3.15763 20.929 4.16056C22.7059 6.2296 23.693 8.65401 23.8667 11.3864C23.8667 11.4417 23.8667 11.4891 23.8667 11.5443C23.8667 11.6628 23.8667 11.7813 23.8667 11.8997C23.843 12.2551 23.614 12.5078 23.2981 12.5078Z" fill="#A87E33"/>
<path d="M11.9123 25.7617C11.1226 25.7617 10.2776 25.28 9.89062 24.6719H13.9734C13.6102 25.2563 12.781 25.738 11.9834 25.7617C11.9597 25.7617 11.936 25.7617 11.9123 25.7617Z" fill="#A87E33"/>
</svg>
