<svg width="25" height="25" viewBox="0 0 25 25" fill="none" xmlns="http://www.w3.org/2000/svg">
<path d="M5.93558 13.0349C4.80083 13.0349 3.66608 13.0349 2.53133 13.0349C1.39659 13.0349 0.632813 12.2711 0.632813 11.1436C0.632813 10.1471 0.632813 9.15056 0.632813 8.15402V6.8447L0.632812 5.55719C0.632812 4.56793 0.632812 3.57866 0.632812 2.58939C0.632812 1.43282 1.38931 0.683594 2.54588 0.683594C3.67336 0.683594 4.80811 0.683594 5.93558 0.683594C7.06305 0.683594 8.1978 0.683594 9.32528 0.683594C10.4891 0.683594 11.2383 1.43282 11.2383 2.58939C11.2383 5.7245 11.2383 8.525 11.2383 11.1364C11.2383 12.2638 10.4746 13.0276 9.33983 13.0276C8.20508 13.0349 7.07033 13.0349 5.93558 13.0349ZM2.58225 1.70196C1.92759 1.70196 1.65118 1.98565 1.65118 2.64758C1.65118 5.45536 1.65118 8.25586 1.65118 11.0636C1.65118 11.7328 1.93486 12.0165 2.58953 12.0165H5.93558H9.28163C9.9363 12.0165 10.22 11.7328 10.22 11.0636C10.22 10.0453 10.22 9.03418 10.22 8.01582V5.71722C10.22 4.69158 10.22 3.67322 10.22 2.64758C10.22 1.98565 9.9363 1.69468 9.28163 1.69468H5.85557L2.58225 1.70196Z" fill="black"/>
<path d="M18.9622 24.3641C17.842 24.3641 16.7291 24.3641 15.6089 24.3641C14.4523 24.3641 13.7031 23.6149 13.7031 22.4583C13.7031 21.4618 13.7031 20.4652 13.7031 19.4687V16.9082C13.7031 15.919 13.7031 14.9297 13.7031 13.9404C13.7031 12.7766 14.4524 12.0273 15.6016 12.0273C16.7509 12.0273 17.9002 12.0273 19.0495 12.0273C20.1697 12.0273 21.2899 12.0273 22.4101 12.0273C23.5449 12.0273 24.3014 12.7911 24.3014 13.9186C24.3014 16.6027 24.3014 19.4032 24.3014 22.4656C24.3014 23.6221 23.5522 24.3641 22.3883 24.3714C21.2463 24.3641 20.1043 24.3641 18.9622 24.3641ZM15.6671 13.0312C14.9906 13.0312 14.7215 13.3076 14.7215 13.9986C14.7215 14.9733 14.7215 21.4036 14.7215 22.3856C14.7215 23.0693 14.9979 23.3457 15.6744 23.3457H22.3447C23.0212 23.3457 23.2976 23.0693 23.2976 22.3783C23.2976 19.5851 23.2976 16.7846 23.2976 13.9913C23.2976 13.3076 23.0212 13.0312 22.3447 13.0312H19.0132H15.6671Z" fill="black"/>
<path d="M18.9919 9.53999H16.9042C16.4678 9.53999 16.0314 9.53999 15.5949 9.53999C14.4674 9.53999 13.7109 8.78349 13.7109 7.66329C13.7109 5.79387 13.7109 4.12084 13.7109 2.54965C13.7109 1.45127 14.482 0.6875 15.5804 0.6875C16.7297 0.6875 17.8717 0.6875 19.021 0.6875C20.163 0.6875 21.2977 0.6875 22.4398 0.6875C23.5381 0.6875 24.3092 1.45855 24.3092 2.54965C24.3165 4.39725 24.3165 6.07756 24.3092 7.69239C24.3092 8.77622 23.5454 9.53999 22.4543 9.54727C22.0033 9.54727 21.5596 9.54727 21.1086 9.54727C20.7522 9.53999 19.341 9.53999 18.9919 9.53999ZM20.9122 8.5289C21.4069 8.5289 21.9015 8.5289 22.3961 8.5289C22.9999 8.5289 23.2908 8.23067 23.2981 7.62692C23.2981 5.94662 23.2981 4.26632 23.2981 2.58602C23.2981 1.99683 22.9999 1.69859 22.4034 1.69859C21.2614 1.69859 20.1266 1.69859 18.9846 1.69859C17.8644 1.69859 16.7442 1.69859 15.624 1.69859C15.0203 1.69859 14.7293 1.99683 14.722 2.60057C14.722 4.2736 14.722 5.93935 14.722 7.61238C14.722 8.23794 15.013 8.52163 15.6386 8.52163C16.1186 8.52163 18.0317 8.52163 18.0317 8.52163H18.9846L20.9122 8.5289Z" fill="black"/>
<path d="M5.8192 24.3598C4.72082 24.3598 3.62244 24.3598 2.52406 24.3598C1.39659 24.3598 0.632812 23.596 0.632812 22.4612C0.632812 20.7809 0.632812 19.0788 0.632812 17.3985C0.632812 16.2638 1.39659 15.5 2.52406 15.5C2.96778 15.5 3.41149 15.5 3.85521 15.5H5.95013H8.01595C8.45239 15.5 8.88884 15.5 9.32528 15.5C10.4818 15.5 11.2311 16.2492 11.2311 17.4131C11.2311 19.0861 11.2311 20.7809 11.2311 22.4467C11.2311 23.6105 10.4818 24.3598 9.32528 24.3598C8.16143 24.3598 6.99031 24.3598 5.8192 24.3598ZM2.5968 16.5184C1.93486 16.5184 1.65118 16.8021 1.6439 17.4567C1.6439 19.1079 1.6439 20.7591 1.6439 22.4103C1.6439 23.065 1.92759 23.3487 2.5968 23.3487H9.26709C9.92902 23.3487 10.22 23.065 10.22 22.4103C10.22 20.7591 10.22 19.1079 10.22 17.4567C10.22 16.8021 9.9363 16.5184 9.26709 16.5184H4.02978H2.5968Z" fill="black"/>
</svg>
