<svg width="300" height="211" viewBox="0 0 300 211" fill="none" xmlns="http://www.w3.org/2000/svg">
<rect width="300" height="211" rx="7" fill="#105F43"/>
<mask id="mask0_188_737" style="mask-type:alpha" maskUnits="userSpaceOnUse" x="0" y="0" width="300" height="211">
<rect width="300" height="211" rx="7" fill="#105F43"/>
</mask>
<g mask="url(#mask0_188_737)">
<path d="M147.454 156.451C147.454 182.117 147.821 208.149 147.454 233.815C147.087 245.915 142.321 256.548 130.221 260.947C124.355 263.147 116.655 263.147 110.422 262.047C91.3559 259.114 72.6565 255.081 53.5905 251.414C33.7912 247.748 13.9918 244.448 -5.80748 240.782C-17.5404 238.582 -22.6736 230.149 -18.6404 218.782C1.15895 161.584 39.2909 124.919 99.0555 113.186C109.322 111.353 119.588 110.253 129.855 109.886C139.388 109.519 145.621 115.752 145.621 125.652C145.621 135.918 147.087 141.785 147.087 152.051C147.454 154.251 147.454 155.351 147.454 156.451Z" fill="white" fill-opacity="0.07"/>
<path d="M255.25 107.318C262.584 106.952 271.383 106.218 280.183 105.485C299.616 104.018 316.848 113.185 314.648 138.117C311.348 172.583 308.782 206.682 306.215 241.147C305.115 254.347 298.515 259.48 285.316 257.647C258.55 253.98 233.618 244.814 211.619 229.047C187.419 211.448 170.553 188.349 161.754 159.75C158.82 150.217 156.621 140.684 154.421 131.151C151.854 120.151 156.987 112.451 168.353 110.618C169.087 110.618 170.187 110.252 170.92 110.252C198.419 109.152 225.918 108.418 255.25 107.318Z" fill="white" fill-opacity="0.07"/>
<path d="M120.322 104.386C83.2903 105.119 46.2583 105.852 9.22623 106.586C5.92634 106.586 2.25985 106.586 -1.04004 106.586C-13.8729 105.852 -17.9061 93.3861 -16.8061 84.9531C-13.5062 61.1206 -10.5731 37.2881 -6.90653 13.4555C-5.43991 2.08926 -3.97328 -9.64367 -1.04004 -20.6433C1.89319 -32.0096 10.6928 -36.7761 22.0591 -34.2095C58.7245 -26.1431 90.6234 -9.64367 114.823 20.0553C130.589 39.8546 138.288 62.9538 142.322 87.5197C144.155 97.786 138.655 103.652 128.389 104.386C125.822 104.752 123.256 104.386 120.689 104.386C120.323 104.386 120.322 104.386 120.322 104.386Z" fill="white" fill-opacity="0.07"/>
<path d="M149.286 32.1538C149.286 16.0211 149.653 -0.111713 149.286 -16.2445C148.919 -33.4772 162.119 -38.977 174.218 -37.1438C211.617 -31.2773 249.383 -25.0442 286.781 -18.8111C302.548 -16.2445 309.514 -4.87822 304.014 9.78794C293.381 37.6537 275.782 60.3862 250.849 77.2523C227.017 93.7517 199.884 100.352 171.652 103.285C157.352 104.751 150.019 98.5182 149.653 83.8521C149.286 66.986 149.286 49.7532 149.286 32.1538Z" fill="white" fill-opacity="0.07"/>
<circle cx="269.5" cy="188.5" r="49.5" fill="white" fill-opacity="0.85"/>
</g>
<circle r="18" transform="matrix(-1 0 0 1 266 179.318)" fill="white"/>
<path d="M245.472 174.282C240.976 174.282 236.495 174.282 232 174.282C232 173.218 232 172.155 232 171.105C236.836 171.105 241.671 171.105 246.507 171.105C246.11 172.141 245.784 173.204 245.472 174.282Z" fill="#064931"/>
<path d="M245.471 174.282C245.783 173.204 246.109 172.141 246.506 171.106C247.101 169.787 247.754 168.496 248.605 167.319C248.803 167.036 248.605 166.951 248.449 166.823C247.584 166.1 246.719 165.363 245.839 164.654C245.584 164.455 245.513 164.313 245.768 164.044C246.307 163.448 246.804 162.838 247.3 162.214C247.484 161.988 247.598 161.959 247.839 162.158C248.69 162.895 249.583 163.604 250.434 164.342C250.689 164.568 250.845 164.611 251.115 164.342C253.88 161.605 257.17 159.79 260.956 158.925C261.31 158.839 261.268 158.712 261.169 158.457C260.148 155.479 261.849 152.6 264.941 152.061C265.168 152.019 265.394 152.033 265.621 152.019C265.621 153.068 265.621 154.117 265.621 155.167C264.629 155.323 264.047 155.904 264.033 156.755C264.019 157.62 264.614 158.23 265.621 158.386C265.621 159.435 265.621 160.484 265.621 161.534C263.196 161.576 260.857 162.016 258.63 163.009C251.625 166.142 247.527 172.978 248.207 180.607C248.704 186.222 251.412 190.576 256.078 193.71C258.956 195.638 262.175 196.517 265.621 196.574C265.621 197.624 265.621 198.673 265.621 199.722C260.942 199.722 256.744 198.29 253.029 195.454C250.094 193.228 247.966 190.363 246.492 187.002C246.08 185.967 245.754 184.889 245.456 183.826C245.3 182.762 245.13 181.699 244.974 180.635C244.932 179.572 244.932 178.522 244.974 177.459C245.144 176.395 245.3 175.346 245.471 174.282Z" fill="#064931"/>
<path d="M265.637 199.722C265.637 198.673 265.637 197.623 265.637 196.574L265.623 196.546C266.672 196.631 267.708 196.503 268.729 196.305C272.884 195.511 276.372 193.554 279.066 190.278C282.654 185.91 283.888 180.905 282.767 175.374C281.959 171.446 279.96 168.17 276.868 165.604C273.621 162.909 269.877 161.505 265.637 161.548L265.651 161.52C265.651 160.47 265.651 159.421 265.651 158.371C266.913 158.23 267.481 157.095 267.112 156.202C266.843 155.55 266.318 155.252 265.651 155.152C265.651 154.103 265.651 153.054 265.651 152.004C268.062 151.891 270.359 154.018 270.43 156.429C270.444 157.124 270.402 157.804 270.118 158.457C270.005 158.712 270.047 158.825 270.331 158.882C274.146 159.747 277.421 161.59 280.201 164.327C280.442 164.568 280.584 164.568 280.839 164.356C281.704 163.604 282.611 162.881 283.476 162.144C283.703 161.945 283.831 161.959 284.015 162.186C284.526 162.824 285.036 163.448 285.575 164.058C285.774 164.285 285.76 164.398 285.533 164.597C284.639 165.32 283.774 166.072 282.867 166.795C282.611 166.993 282.583 167.135 282.767 167.419C285.405 171.304 286.596 175.601 286.327 180.281C285.802 189.214 279.648 196.631 271.253 198.999C269.409 199.495 267.537 199.793 265.637 199.722Z" fill="#064931"/>
<path d="M244.975 177.459C244.933 178.523 244.933 179.572 244.975 180.635C241.87 180.635 238.764 180.635 235.644 180.65C235.29 180.65 235.148 180.579 235.162 180.196C235.19 179.444 235.19 178.679 235.162 177.913C235.148 177.53 235.29 177.445 235.644 177.459C238.764 177.459 241.87 177.459 244.975 177.459Z" fill="#064931"/>
<path d="M245.471 183.826C245.783 184.903 246.109 185.967 246.506 187.002C243.925 187.002 241.344 187.002 238.778 187.016C238.452 187.016 238.352 186.931 238.352 186.605C238.381 185.854 238.395 185.088 238.352 184.322C238.324 183.868 238.522 183.812 238.905 183.812C241.089 183.826 243.287 183.826 245.471 183.826Z" fill="#064931"/>
<path d="M265.635 155.152C266.302 155.252 266.841 155.549 267.096 156.202C267.465 157.109 266.897 158.23 265.635 158.371C264.629 158.215 264.033 157.606 264.047 156.741C264.061 155.89 264.643 155.308 265.635 155.152Z" fill="#FBFCFC"/>
<path d="M265.5 164.318C267.802 164.318 270.071 164.866 272.119 165.917C274.168 166.968 275.936 168.491 277.279 170.361C278.621 172.231 279.499 174.394 279.84 176.671C280.181 178.948 279.975 181.273 279.239 183.454L265.5 178.818L265.5 164.318Z" fill="#A87E33"/>
</svg>
