<svg width="308" height="219" viewBox="0 0 308 219" fill="none" xmlns="http://www.w3.org/2000/svg">
<rect x="4" width="300" height="211" rx="7" fill="#A87E33"/>
<mask id="mask0_449_467" style="mask-type:alpha" maskUnits="userSpaceOnUse" x="4" y="0" width="300" height="211">
<rect x="4" width="300" height="211" rx="7" fill="#105F43"/>
</mask>
<g mask="url(#mask0_449_467)">
<path d="M151.454 156.451C151.454 182.117 151.821 208.149 151.454 233.815C151.087 245.915 146.321 256.548 134.221 260.947C128.355 263.147 120.655 263.147 114.422 262.047C95.3559 259.114 76.6565 255.081 57.5905 251.414C37.7912 247.748 17.9918 244.448 -1.80748 240.782C-13.5404 238.582 -18.6736 230.149 -14.6404 218.782C5.15895 161.584 43.2909 124.919 103.056 113.186C113.322 111.353 123.588 110.253 133.855 109.886C143.388 109.519 149.621 115.752 149.621 125.652C149.621 135.918 151.087 141.785 151.087 152.051C151.454 154.251 151.454 155.351 151.454 156.451Z" fill="white" fill-opacity="0.07"/>
<path d="M259.251 107.318C266.584 106.952 275.384 106.218 284.183 105.485C303.616 104.018 320.849 113.185 318.649 138.117C315.349 172.583 312.782 206.682 310.216 241.147C309.116 254.347 302.516 259.48 289.316 257.647C262.551 253.98 237.618 244.814 215.619 229.047C191.42 211.448 174.554 188.349 165.754 159.75C162.821 150.217 160.621 140.684 158.421 131.151C155.854 120.151 160.988 112.451 172.354 110.618C173.087 110.618 174.187 110.252 174.921 110.252C202.42 109.152 229.919 108.418 259.251 107.318Z" fill="white" fill-opacity="0.07"/>
<path d="M124.323 104.386C87.2904 105.119 50.2584 105.852 13.2264 106.586C9.92646 106.586 6.25997 106.586 2.96008 106.586C-9.87281 105.852 -13.906 93.3861 -12.806 84.9531C-9.50612 61.1206 -6.57295 37.2881 -2.90641 13.4555C-1.43979 2.08926 0.0268469 -9.64367 2.96008 -20.6433C5.89331 -32.0096 14.693 -36.7761 26.0592 -34.2095C62.7247 -26.1431 94.6235 -9.64367 118.823 20.0553C134.589 39.8546 142.289 62.9538 146.322 87.5197C148.155 97.786 142.655 103.652 132.389 104.386C129.822 104.752 127.256 104.386 124.689 104.386C124.323 104.386 124.323 104.386 124.323 104.386Z" fill="white" fill-opacity="0.07"/>
<path d="M153.286 32.1538C153.286 16.0211 153.652 -0.111713 153.286 -16.2445C152.919 -33.4772 166.119 -38.977 178.218 -37.1438C215.617 -31.2773 253.382 -25.0442 290.781 -18.8111C306.547 -16.2445 313.514 -4.87822 308.014 9.78794C297.381 37.6537 279.782 60.3862 254.849 77.2523C231.017 93.7517 203.884 100.352 175.652 103.285C161.352 104.751 154.019 98.5182 153.652 83.8521C153.286 66.986 153.286 49.7532 153.286 32.1538Z" fill="white" fill-opacity="0.07"/>
<circle cx="273.5" cy="188.5" r="49.5" fill="white" fill-opacity="0.85"/>
</g>
<circle r="18" transform="matrix(-1 0 0 1 270 179.318)" fill="white"/>
<path d="M249.472 174.282C244.976 174.282 240.495 174.282 236 174.282C236 173.218 236 172.155 236 171.105C240.836 171.105 245.671 171.105 250.507 171.105C250.11 172.141 249.784 173.204 249.472 174.282Z" fill="#064931"/>
<path d="M249.471 174.282C249.783 173.204 250.109 172.141 250.506 171.106C251.101 169.787 251.754 168.496 252.605 167.319C252.803 167.036 252.605 166.951 252.449 166.823C251.584 166.1 250.719 165.363 249.839 164.654C249.584 164.455 249.513 164.313 249.768 164.044C250.307 163.448 250.804 162.838 251.3 162.214C251.484 161.988 251.598 161.959 251.839 162.158C252.69 162.895 253.583 163.604 254.434 164.342C254.689 164.568 254.845 164.611 255.115 164.342C257.88 161.605 261.17 159.79 264.956 158.925C265.31 158.839 265.268 158.712 265.169 158.457C264.148 155.479 265.849 152.6 268.941 152.061C269.168 152.019 269.394 152.033 269.621 152.019C269.621 153.068 269.621 154.117 269.621 155.167C268.629 155.323 268.047 155.904 268.033 156.755C268.019 157.62 268.614 158.23 269.621 158.386C269.621 159.435 269.621 160.484 269.621 161.534C267.196 161.576 264.857 162.016 262.63 163.009C255.625 166.142 251.527 172.978 252.207 180.607C252.704 186.222 255.412 190.576 260.078 193.71C262.956 195.638 266.175 196.517 269.621 196.574C269.621 197.624 269.621 198.673 269.621 199.722C264.942 199.722 260.744 198.29 257.029 195.454C254.094 193.228 251.966 190.363 250.492 187.002C250.08 185.967 249.754 184.889 249.456 183.826C249.3 182.762 249.13 181.699 248.974 180.635C248.932 179.572 248.932 178.522 248.974 177.459C249.144 176.395 249.3 175.346 249.471 174.282Z" fill="#064931"/>
<path d="M269.637 199.722C269.637 198.673 269.637 197.623 269.637 196.574L269.623 196.546C270.672 196.631 271.708 196.503 272.729 196.305C276.884 195.511 280.372 193.554 283.066 190.278C286.654 185.91 287.888 180.905 286.767 175.374C285.959 171.446 283.96 168.17 280.868 165.604C277.621 162.909 273.877 161.505 269.637 161.548L269.651 161.52C269.651 160.47 269.651 159.421 269.651 158.371C270.913 158.23 271.481 157.095 271.112 156.202C270.843 155.55 270.318 155.252 269.651 155.152C269.651 154.103 269.651 153.054 269.651 152.004C272.062 151.891 274.359 154.018 274.43 156.429C274.444 157.124 274.402 157.804 274.118 158.457C274.005 158.712 274.047 158.825 274.331 158.882C278.146 159.747 281.421 161.59 284.201 164.327C284.442 164.568 284.584 164.568 284.839 164.356C285.704 163.604 286.611 162.881 287.476 162.144C287.703 161.945 287.831 161.959 288.015 162.186C288.526 162.824 289.036 163.448 289.575 164.058C289.774 164.285 289.76 164.398 289.533 164.597C288.639 165.32 287.774 166.072 286.867 166.795C286.611 166.993 286.583 167.135 286.767 167.419C289.405 171.304 290.596 175.601 290.327 180.281C289.802 189.214 283.648 196.631 275.253 198.999C273.409 199.495 271.537 199.793 269.637 199.722Z" fill="#064931"/>
<path d="M248.975 177.459C248.933 178.523 248.933 179.572 248.975 180.635C245.87 180.635 242.764 180.635 239.644 180.65C239.29 180.65 239.148 180.579 239.162 180.196C239.19 179.444 239.19 178.679 239.162 177.913C239.148 177.53 239.29 177.445 239.644 177.459C242.764 177.459 245.87 177.459 248.975 177.459Z" fill="#064931"/>
<path d="M249.471 183.826C249.783 184.903 250.109 185.967 250.506 187.002C247.925 187.002 245.344 187.002 242.778 187.016C242.452 187.016 242.352 186.931 242.352 186.605C242.381 185.854 242.395 185.088 242.352 184.322C242.324 183.868 242.522 183.812 242.905 183.812C245.089 183.826 247.287 183.826 249.471 183.826Z" fill="#064931"/>
<path d="M269.635 155.152C270.302 155.252 270.841 155.549 271.096 156.202C271.465 157.109 270.897 158.23 269.635 158.371C268.629 158.215 268.033 157.606 268.047 156.741C268.061 155.89 268.643 155.308 269.635 155.152Z" fill="#FBFCFC"/>
<path d="M269.5 164.318C272.921 164.318 276.232 165.527 278.847 167.733C281.462 169.938 283.214 172.997 283.792 176.368C284.37 179.74 283.737 183.208 282.005 186.158C280.273 189.108 277.554 191.351 274.329 192.49C271.103 193.629 267.578 193.591 264.378 192.383C261.177 191.175 258.507 188.874 256.84 185.887C255.172 182.9 254.614 179.419 255.265 176.061C255.915 172.702 257.732 169.682 260.394 167.534L269.5 178.818L269.5 164.318Z" fill="#A87E33"/>
</svg>
