<svg width="81" height="70" viewBox="0 0 81 70" fill="none" xmlns="http://www.w3.org/2000/svg">
<path d="M48.2736 68.9822C48.1678 68.9822 48.0407 68.9612 47.9137 68.8982C47.5114 68.7301 47.342 68.4359 47.342 67.9736C47.342 66.5868 47.342 65.179 47.342 63.7923V60.9346H45.8388C42.303 60.9346 38.7671 60.9346 35.2313 60.9136C31.6955 60.9136 28.1597 60.8926 24.6238 60.8926C18.0392 60.8926 12.7037 60.9136 7.81281 60.9556H7.68577C3.43008 60.9556 0.847026 59.1276 0.00012207 55.5136V5.48412C0.0212947 5.44209 0.0636398 5.37906 0.0848124 5.29501C1.14344 1.53387 3.19718 0 7.13528 0H40.2492C51.3437 0 62.4381 0 73.5325 0C76.7931 0 79.2915 1.78601 80.0537 4.68566C80.2019 5.25299 80.2866 5.88334 80.2866 6.5137C80.3077 22.2516 80.3077 38.3678 80.2866 54.4209C80.2866 58.2451 77.5765 60.9136 73.7019 60.9556C72.2833 60.9556 70.7589 60.9767 68.8957 60.9767C67.6677 60.9767 66.4185 60.9767 65.1905 60.9767C63.9625 60.9767 62.7133 60.9767 61.4853 60.9767H59.9821V62.1743C59.9821 62.6996 59.9821 63.2249 59.9821 63.7712C59.9821 65.074 59.9821 66.4398 59.9821 67.7635C59.9821 68.4569 59.8127 68.7721 59.3469 68.9612C59.2199 69.0032 59.114 69.0242 59.0293 69.0242C58.7752 69.0242 58.5 68.8772 58.1401 68.4989C57.1661 67.5114 56.1922 66.5238 55.1759 65.5152L53.6726 64.0024L49.3958 68.2678C49.2476 68.4149 49.0994 68.562 48.9511 68.7091C48.7183 68.8772 48.5065 68.9822 48.2736 68.9822ZM53.6726 61.7541C53.9267 61.7541 54.2443 61.9642 54.6889 62.3845C55.2817 62.9728 55.8534 63.5821 56.4674 64.2125C56.7638 64.5067 57.0602 64.8218 57.3778 65.158L58.0977 65.9145V54.3369L57.399 54.9672C56.9756 55.3665 56.6368 55.5346 56.3615 55.5346C56.2133 55.5346 56.0651 55.4925 55.9169 55.4085C55.4723 55.1564 55.4511 54.7781 55.4511 54.1058C55.4511 54.0427 55.4511 53.9587 55.4511 53.8956C55.4511 50.5968 55.4511 47.2979 55.4511 43.999V39.5235L55.0912 39.4814C53.5244 39.2923 53.0375 38.9982 52.1906 37.7374C51.9365 37.3802 51.4495 37.0861 51.0472 37.0861H51.0049C50.645 37.0861 50.3062 37.1701 49.9674 37.2542C49.8404 37.2962 49.7134 37.3172 49.5863 37.3382L49.2476 37.4013V65.8094C49.2476 65.8094 50.6026 64.4436 50.899 64.1284C51.5342 63.4981 52.1059 62.9098 52.6775 62.3214C53.101 61.9432 53.4186 61.7541 53.6726 61.7541ZM61.4218 50.8489C61.2948 51.017 61.1254 51.1851 60.956 51.3322C60.5326 51.7314 60.1091 52.1516 60.0668 52.6769C59.9609 54.1058 59.9821 55.5135 60.0032 57.0054C60.0032 57.5517 60.0244 58.119 60.0244 58.6864V59.1066H68.4511C70.1026 59.1066 71.754 59.1066 73.4055 59.1066C76.6661 59.1066 78.4446 57.3206 78.4446 54.0637C78.4446 38.3678 78.4446 22.6509 78.4446 6.95495C78.4446 3.63507 76.6872 1.87006 73.3631 1.87006H6.94473C3.59946 1.87006 1.84214 3.61405 1.84214 6.93394C1.84214 22.6299 1.84214 38.3468 1.84214 54.0427C1.84214 57.3626 3.59946 59.1066 6.94473 59.1066H47.342V57.6358C47.342 55.9548 47.342 54.2949 47.342 52.6139C47.342 47.6551 47.3632 42.5282 47.2997 37.5063C47.2997 36.5398 47.0033 35.5942 46.7492 34.6907C46.7069 34.5226 46.6433 34.3335 46.601 34.1654C46.4528 33.6611 45.7329 33.43 45.4577 33.388C44.4414 33.1989 43.658 32.7366 43.1922 32.0432C42.7476 31.3708 42.6417 30.5093 42.8746 29.5638C43.0652 28.8074 42.8534 28.2821 42.1547 27.8828C41.3078 27.3786 40.7785 26.6852 40.6091 25.8657C40.4398 25.0462 40.6727 24.1637 41.2655 23.3653C41.7313 22.7349 41.7313 22.1886 41.2443 21.5372C40.6515 20.7388 40.4398 19.8983 40.588 19.0999C40.7574 18.2804 41.2867 17.566 42.1759 17.0407C42.8323 16.6415 43.044 16.1162 42.8534 15.3387C42.6205 14.4142 42.7476 13.5317 43.2134 12.8383C43.6792 12.1449 44.4837 11.6826 45.4577 11.5356C46.1987 11.4305 46.601 11.0313 46.728 10.2959C46.9821 8.63591 48.1042 7.58531 49.6287 7.58531C49.9251 7.58531 50.2215 7.62734 50.5391 7.69037C50.7296 7.73239 50.8779 7.75341 51.0261 7.75341C51.7248 7.75341 52.0847 7.29114 52.2964 6.93394C52.8892 5.94638 53.8208 5.37906 54.8583 5.37906C55.5147 5.37906 56.1498 5.61019 56.7215 6.03043C57.0814 6.30358 57.399 6.42965 57.7166 6.42965C58.0342 6.42965 58.3518 6.30358 58.6905 6.05144C59.2622 5.61019 59.9185 5.40007 60.5749 5.40007C61.6124 5.40007 62.5228 5.96739 63.1156 6.93394C63.3273 7.29114 63.6873 7.75341 64.4071 7.75341C64.5765 7.75341 64.7459 7.73239 64.9576 7.66936C65.2329 7.60632 65.5081 7.5643 65.7834 7.5643C67.2866 7.5643 68.4934 8.63591 68.7052 10.1698C68.811 11.0103 69.2133 11.4095 70.039 11.5145C70.9706 11.6406 71.7329 12.1029 72.1987 12.7753C72.6644 13.4687 72.8127 14.3512 72.5798 15.2967C72.3892 16.0951 72.6009 16.6415 73.3208 17.0407C74.1465 17.524 74.6758 18.2384 74.8452 19.0368C75.0146 19.8563 74.7817 20.7178 74.21 21.4952C73.7231 22.1466 73.7231 22.7139 74.2312 23.3863C74.8029 24.1427 75.0146 25.0042 74.8452 25.8027C74.6758 26.6221 74.1254 27.3365 73.2996 27.8198C72.6221 28.219 72.3892 28.7443 72.5798 29.5008C72.8127 30.4673 72.6856 31.3498 72.241 32.0432C71.7752 32.7366 71.013 33.1779 70.0179 33.346C69.9332 33.367 69.0863 33.514 68.9169 34.0393C68.8534 34.2074 68.811 34.3545 68.7475 34.5226C68.4723 35.3211 68.1759 36.1405 68.1547 37.002C68.0912 41.8558 68.1123 46.7726 68.1123 51.5423V54.1688C68.1123 54.9252 68.0276 55.2824 67.5619 55.4925C67.4348 55.5556 67.3078 55.5766 67.2019 55.5766C66.9055 55.5766 66.6091 55.4085 66.2068 54.9883C65.254 54.0007 64.2801 53.0552 63.285 52.0466C62.8827 51.6474 62.4804 51.2481 62.057 50.8279L61.7182 50.4917L61.4218 50.8489ZM57.3567 52.3828L58.0765 51.6474C58.3941 51.3322 58.7117 51.017 59.0081 50.7228C59.6433 50.0715 60.2573 49.4621 60.8501 48.8738C61.2101 48.5166 61.5065 48.3485 61.7606 48.3485C62.0146 48.3485 62.3111 48.5166 62.6922 48.8948C63.3062 49.4831 63.899 50.0925 64.5342 50.7228L66.1856 52.3618V37.3592L65.8045 37.3172C65.7198 37.2962 65.6351 37.2962 65.5716 37.2962C65.4658 37.2962 65.3811 37.2752 65.3176 37.2542C65.0211 37.1491 64.7671 37.0861 64.513 37.0861C63.7084 37.0861 63.2426 37.6534 62.9039 38.1997C62.4169 38.9772 61.5488 39.4394 60.5749 39.4394C59.9609 39.4394 59.3469 39.2503 58.8176 38.8931C58.6482 38.788 58.4788 38.662 58.2883 38.5569L57.3355 37.9476V52.3828H57.3567ZM57.7166 36.5188C58.3518 36.5188 58.9658 36.7499 59.5798 37.1701C59.9397 37.4433 60.2573 37.6114 60.5749 37.6114C61.083 37.6114 61.4006 37.1911 61.6759 36.7499C62.2899 35.7623 63.1791 35.237 64.2589 35.237C64.5342 35.237 64.8094 35.2791 65.1058 35.3421C65.2117 35.3631 65.3176 35.3841 65.4234 35.4051L65.5928 35.4471H65.6351C66.3338 35.4471 66.7573 35.0689 66.8632 34.3125C67.1384 32.5895 67.9218 31.8121 69.6368 31.5179C70.1237 31.4339 70.4625 31.2658 70.653 30.9716C70.8436 30.6984 70.8859 30.3412 70.7801 29.879C70.399 28.198 70.8013 27.2105 72.3045 26.2649C72.7068 26.0128 72.9185 25.7396 72.982 25.4244C73.0455 25.1093 72.9397 24.7521 72.6856 24.3739C71.6693 22.945 71.6693 21.8734 72.6644 20.4656C72.8762 20.1715 73.0879 19.7933 73.0032 19.394C72.9185 18.9948 72.5798 18.7427 72.2622 18.5325C70.8436 17.65 70.399 16.5784 70.7589 14.9605C70.8436 14.5823 70.9071 14.162 70.653 13.8048C70.4202 13.4476 69.9755 13.3426 69.5732 13.2795C68.0912 13.0484 67.1172 12.1239 66.8632 10.6741C66.7785 10.1278 66.6303 9.37133 65.7834 9.37133C65.614 9.37133 65.4023 9.39234 65.1058 9.47639C64.8094 9.53942 64.513 9.58145 64.2378 9.58145C63.1368 9.58145 62.2687 9.05615 61.6124 8.02656C61.3583 7.62734 61.0407 7.2071 60.5326 7.2071C60.1938 7.2071 59.8762 7.3962 59.5586 7.62734C58.9234 8.06859 58.2883 8.29972 57.6531 8.29972C57.0391 8.29972 56.4039 8.0896 55.7899 7.64835C55.4088 7.37519 55.0912 7.2071 54.7736 7.2071C54.2655 7.2071 53.9691 7.60632 53.6938 8.06859C53.0586 9.05615 52.1694 9.58145 51.0896 9.58145C50.8355 9.58145 50.5603 9.56043 50.285 9.4974C49.9463 9.41335 49.7345 9.39234 49.5652 9.39234C48.7394 9.39234 48.6124 10.1067 48.5065 10.632C48.2101 12.1659 47.3209 13.0484 45.7541 13.2795C45.4153 13.3426 44.9707 13.4476 44.7378 13.7838C44.5049 14.12 44.5472 14.5613 44.6319 14.8975C44.9919 16.5574 44.5472 17.629 43.171 18.4905C42.8111 18.7216 42.4723 18.9738 42.3876 19.373C42.303 19.7722 42.5359 20.1294 42.7688 20.4866C43.7003 21.7894 43.7003 22.9871 42.7899 24.2898C42.4935 24.689 42.3241 25.0462 42.3876 25.4244C42.4723 25.8027 42.7687 26.0548 43.2134 26.328C44.5261 27.1474 44.9919 28.2611 44.6531 29.7739C44.5472 30.2572 44.5049 30.6564 44.7166 30.9716C44.9284 31.2868 45.3095 31.4129 45.7964 31.5179C47.3844 31.8121 48.2313 32.6526 48.5065 34.2285C48.5912 34.6487 48.7182 35.4471 49.6075 35.4471C49.7557 35.4471 49.9463 35.4261 50.1792 35.3631C50.5179 35.2791 50.8567 35.258 51.1531 35.258C52.2541 35.258 53.0586 35.7413 53.715 36.7919C53.9691 37.1911 54.2655 37.6114 54.7948 37.6114C55.1335 37.6114 55.4723 37.4013 55.7899 37.1911C56.4462 36.7289 57.0814 36.5188 57.7166 36.5188Z" fill="#105F43"/>
<path d="M25.3012 50.1786C21.7866 50.1786 18.2931 50.1786 14.7784 50.1786C11.539 50.1786 9.06183 48.3716 8.32079 45.451C8.17258 44.8836 8.10906 44.2323 8.10906 43.4548C8.08789 40.219 8.08789 36.9201 8.08789 33.7263V30.4905V26.5402C8.08789 23.5355 8.08789 20.5308 8.08789 17.5261C8.08789 13.4288 10.7556 10.7812 14.8631 10.7812C17.9967 10.7812 21.109 10.7812 24.2426 10.7812C27.3126 10.7812 30.3615 10.7812 33.4315 10.7812H38.2377C38.5129 10.7812 38.7246 10.7813 38.9364 10.8233C39.4233 10.9073 39.7197 11.2645 39.6986 11.7268C39.6774 12.1891 39.3598 12.5252 38.894 12.5883C38.7035 12.6093 38.5129 12.6093 38.2588 12.6093H15.096C11.7296 12.5883 9.92991 14.3533 9.92991 17.6942C9.92991 26.246 9.92991 34.7979 9.92991 43.3287C9.92991 46.5436 11.7084 48.3296 14.9266 48.3296C18.3778 48.3296 21.8289 48.3296 25.28 48.3296C29.9803 48.3296 34.7018 48.3296 39.4022 48.3296C39.7197 48.3296 40.0373 48.3296 40.3337 48.3926C40.7995 48.4977 41.0748 48.8759 41.0113 49.3382C40.9478 49.8425 40.7149 50.0946 40.2067 50.1576C40.0585 50.1786 39.9103 50.1786 39.7621 50.1786C39.8044 50.1786 28.0113 50.1786 25.3012 50.1786Z" fill="#105F43"/>
<path d="M15.7733 44.7955C15.4769 44.7955 15.2016 44.6694 15.0534 44.4803C14.9052 44.3122 14.8629 44.0811 14.9052 43.8289C14.9476 43.5978 15.244 43.2616 15.6251 42.9884C15.9003 42.7993 16.2179 42.6312 16.5567 42.4631C16.8107 42.3371 17.0648 42.211 17.3189 42.0639C18.5681 41.3075 19.2244 40.1728 19.3091 38.66C19.3303 38.0086 19.6055 37.6724 20.0925 37.6094C20.1348 37.6094 20.1772 37.6094 20.2407 37.6094C20.5159 37.6094 20.8971 37.6934 21.1723 38.3658C21.6593 39.6265 22.4638 40.6351 23.6071 41.3285C23.9671 41.5596 24.2423 41.6647 24.4964 41.6647C25.2586 41.6647 25.3856 40.8242 25.4492 40.509C25.555 39.8577 25.8938 39.7106 26.1902 39.6475C26.2537 39.6265 26.3172 39.6265 26.3808 39.6265C26.6983 39.6265 26.9524 39.7946 27.2912 40.2359C27.8417 40.9082 28.3922 41.3285 28.9215 41.4966C30.9752 42.1059 33.1983 42.6733 35.5697 42.6733C35.6755 42.6733 35.7814 42.6733 35.8873 42.6733H35.9296C36.2895 42.6733 36.6071 42.7783 36.7977 42.9884C36.9671 43.1565 37.0306 43.3666 37.0306 43.6188C37.0094 44.1651 36.5859 44.5013 35.8661 44.5013H35.6967C32.9231 44.5013 30.0436 43.934 26.8677 42.7363L26.656 42.6522L26.4654 42.7783C25.7668 43.2826 25.1316 43.5137 24.4752 43.5137C23.4589 43.5137 22.3368 42.9254 20.9394 41.6227L20.5795 41.2865L20.3042 41.6857C19.3726 43.0305 18.0388 44.018 16.1967 44.7114C16.0485 44.7534 15.9215 44.7955 15.7733 44.7955Z" fill="#105F43"/>
<path d="M32.839 31.3881C32.4367 31.3881 32.0556 31.3881 31.6533 31.3881C31.251 31.3881 30.8699 31.3881 30.4676 31.3881H16.3455C16.282 31.3881 16.0703 31.3881 16.0067 31.3881C15.922 31.3881 15.795 31.3881 15.6892 31.3671C15.1598 31.3041 14.8211 30.9048 14.8422 30.4006C14.8634 29.9173 15.2234 29.5811 15.7315 29.5601C15.9432 29.5391 16.1761 29.5391 16.4725 29.5391C16.6419 29.5391 16.7901 29.5391 16.9595 29.5391C17.1289 29.5391 17.2983 29.5391 17.4465 29.5391H33.9823H34.3422C34.4269 29.5391 34.5116 29.5391 34.5963 29.5391C34.9562 29.5601 35.5702 29.6861 35.5914 30.4216C35.5914 30.6947 35.5279 30.9258 35.3585 31.0939C35.1891 31.2831 34.935 31.3671 34.6175 31.3671C34.1093 31.3881 33.5376 31.3881 32.839 31.3881Z" fill="#A87E33"/>
<path d="M16.092 26.0312C16.0284 26.0312 15.9437 26.0312 15.8802 26.0312C15.245 25.9891 14.8639 25.6109 14.8851 25.0646C14.9063 24.5183 15.2662 24.2031 15.8802 24.2031C17.32 24.2031 18.7597 24.2031 20.1994 24.2031H29.9388C31.4633 24.2031 32.9665 24.2031 34.4909 24.2031C35.0838 24.2031 35.3802 24.3502 35.5496 24.7284C35.6766 24.9596 35.6766 25.2537 35.5707 25.4849C35.4649 25.716 35.2743 25.9051 34.9991 25.9681C34.745 26.0522 34.4486 26.0522 34.1098 26.0522C30.5317 26.0522 26.9535 26.0522 23.3753 26.0522H16.3884L16.092 26.0312Z" fill="#A87E33"/>
<path d="M21.2784 20.6562C19.627 20.6562 17.9967 20.6562 16.3452 20.6562C16.0276 20.6562 15.7524 20.6562 15.5195 20.5931C15.0537 20.4671 14.842 20.1519 14.8631 19.6686C14.9055 19.1853 15.1384 18.9122 15.6465 18.8491C15.7947 18.8281 15.9429 18.8281 16.1335 18.8281H16.3664C19.3306 18.8281 22.2947 18.8281 25.2377 18.8281C28.2019 18.8281 34.3843 18.8281 34.3843 18.8281C34.5325 18.8281 34.6807 18.8281 34.8289 18.8491C35.337 18.9122 35.5699 19.1643 35.6123 19.6686C35.6546 20.1729 35.4429 20.4671 34.9771 20.5931C34.723 20.6562 34.4478 20.6772 34.1514 20.6772C32.4999 20.6772 30.8696 20.6772 29.2182 20.6772L21.2784 20.6562Z" fill="#A87E33"/>
<path d="M57.7178 32.7118C54.9442 32.7118 52.3188 31.6402 50.3709 29.6861C48.4231 27.732 47.3433 25.1476 47.3433 22.374C47.3433 16.7008 51.9801 12.0781 57.6755 12.0781H57.6967C63.4344 12.0781 68.0924 16.6797 68.1136 22.353C68.1136 25.1265 67.0549 27.732 65.0859 29.6651C63.138 31.6402 60.5126 32.7118 57.7178 32.7118ZM57.7178 13.9272C53.0175 13.9272 49.1853 17.7303 49.1853 22.395C49.1853 27.0596 52.9963 30.8628 57.6967 30.8628C62.397 30.8628 66.2292 27.0596 66.2292 22.416C66.2292 20.1467 65.34 18.0245 63.7308 16.4276C62.1217 14.8307 60.0045 13.9272 57.7178 13.9272Z" fill="#A87E33"/>
</svg>
