<svg width="66" height="60" viewBox="0 0 66 60" fill="none" xmlns="http://www.w3.org/2000/svg">
<circle cx="32.6862" cy="26.9577" r="26.9577" fill="#105F43"/>
<path d="M64.84 27.1912C64.84 44.8201 50.5489 59.1111 32.92 59.1111C15.2911 59.1111 1 44.8201 1 27.1912" stroke="#105F43" stroke-opacity="0.25" stroke-width="0.6" stroke-dasharray="3 3"/>
<path d="M30.3996 46.7417C30.3686 46.7417 30.3272 46.7417 30.2962 46.7313C28.2191 46.38 26.297 45.7393 24.5919 44.8299C19.2493 41.9777 15.8598 37.6065 14.5164 31.8402C12.6563 23.8521 15.9115 15.7504 22.8248 11.1932C26.0387 9.07472 29.6039 8 33.4481 8C34.0991 8 34.7708 8.031 35.4322 8.093C39.607 8.47536 43.6372 10.2941 46.7684 13.2083C49.9099 16.1224 52.018 20.0079 52.7104 24.1415C52.793 24.6272 52.8551 25.1335 52.9171 25.6089C52.9481 25.8362 52.9791 26.0636 53.0101 26.2806V28.6367C52.9791 28.8641 52.9481 29.0914 52.9274 29.3188C52.8654 29.8148 52.8034 30.3211 52.7207 30.8172C51.7907 35.9221 49.2175 40.0866 45.0737 43.1971C42.6555 45.0056 39.8861 46.1836 36.8272 46.7107C36.7652 46.721 36.7136 46.7313 36.6516 46.7313C36.3829 46.7313 36.2175 46.6176 36.1659 46.38C36.1349 46.256 36.1555 46.1526 36.2175 46.0596C36.3002 45.9356 36.4552 45.8529 36.6619 45.8116C39.08 45.3776 41.1675 44.6129 43.0379 43.4658C48.0085 40.4173 50.9743 36.0048 51.8527 30.3418C53.3821 20.4833 46.8924 11.2242 37.0649 9.26073C35.8972 9.03339 34.7088 8.91971 33.5307 8.91971C25.956 8.91971 19.022 13.6113 16.2732 20.6073C12.956 29.0397 15.9425 38.3299 23.5482 43.1868C25.5116 44.4372 27.7128 45.3052 30.0895 45.7496L30.1929 45.7703C30.2962 45.7909 30.3892 45.8013 30.4822 45.8323C30.7509 45.9046 30.9059 46.132 30.8646 46.3696C30.8233 46.5866 30.6372 46.7417 30.3996 46.7417Z" fill="white"/>
<path d="M33.3756 47.0001C33.3446 46.9794 33.3136 46.9588 33.2722 46.9278C33.0035 46.7314 33.0242 46.5558 33.0655 46.4008C33.1379 46.1734 33.2722 46.0701 33.4996 46.0701H33.5202C33.7372 46.0701 33.8716 46.1734 33.9439 46.3904C33.9956 46.5454 34.0059 46.7211 33.7372 46.9174C33.7062 46.9381 33.6752 46.9691 33.6339 46.9898H33.3756V47.0001Z" fill="white"/>
<path d="M33.5095 43.0524C29.3656 43.0524 25.4698 41.43 22.5246 38.4849C19.5794 35.5397 17.957 31.6335 17.957 27.4896C17.957 18.9332 24.9221 11.9682 33.4785 11.9475H33.5095C42.0659 11.9475 49.031 18.9125 49.0413 27.4793C49.0516 31.6232 47.4292 35.5191 44.4944 38.4745C41.5596 41.4197 37.6534 43.0421 33.5095 43.0524ZM33.5095 39.8076C33.9125 39.8076 33.9745 40.2106 33.9745 40.4483C33.9745 40.7583 33.9745 41.058 33.9745 41.368V42.1224L34.3052 42.1017C37.7464 41.8744 40.6812 40.655 43.2957 38.3609L43.554 38.1335L43.306 37.8958C43.2027 37.7925 43.0993 37.6995 42.996 37.6065C42.7583 37.3791 42.5206 37.1621 42.3139 36.9451C42.2106 36.8315 42.1279 36.7074 42.0969 36.6041C42.0453 36.3974 42.1176 36.2424 42.3139 36.1391C42.3966 36.0874 42.4793 36.0667 42.562 36.0667C42.6653 36.0667 42.779 36.1184 42.872 36.2114C43.1097 36.4491 43.337 36.7074 43.5643 36.9658C43.6677 37.0795 43.771 37.2035 43.8847 37.3171L44.1224 37.5755L44.3497 37.3171C46.6645 34.6613 47.8942 31.7059 48.1112 28.2957L48.1319 27.965H46.9125C46.3648 27.965 46.0238 27.903 45.8895 27.7687C45.8585 27.7377 45.8068 27.6653 45.8068 27.4896C45.8068 27.2623 45.8171 27.035 46.8815 27.035H48.0596L48.0699 26.7353C48.1216 23.8831 46.0548 18.9952 44.2567 17.7241L44.0294 17.5691L43.8434 17.7758C43.802 17.8275 43.7607 17.8688 43.709 17.9205C43.616 18.0342 43.5127 18.1478 43.4093 18.2512C43.244 18.4268 43.0787 18.5818 42.9546 18.7059C42.7996 18.8609 42.6343 18.9435 42.4896 18.9435C42.3863 18.9435 42.2829 18.9022 42.2003 18.8092C42.1073 18.7162 42.0659 18.6232 42.0659 18.5095C42.0659 18.3648 42.1486 18.1995 42.3036 18.0548C42.5206 17.8481 42.7376 17.6415 42.9753 17.4245C43.0787 17.3211 43.1923 17.2281 43.306 17.1248L43.554 16.8871L43.2957 16.6598C40.6605 14.3553 37.7154 13.1256 34.2949 12.9086L33.9642 12.8879C33.9642 12.8879 33.9642 13.5183 33.9642 13.6629C33.9642 13.9936 33.9642 14.3036 33.9642 14.624C33.9642 14.7997 33.9125 15.2027 33.5095 15.2027C33.0858 15.2027 33.0445 14.7893 33.0445 14.6033C33.0445 14.283 33.0445 13.9626 33.0445 13.6526V12.9086L32.7241 12.9189C29.4483 13.0326 25.9244 14.5103 23.744 16.6804L23.5166 16.9078L23.7543 17.1248C23.806 17.1764 23.8577 17.2178 23.9093 17.2694C24.023 17.3728 24.147 17.4865 24.2607 17.5898C24.4054 17.7345 24.581 17.8998 24.736 18.0755C24.9221 18.2718 25.0357 18.5715 24.7877 18.8092C24.6947 18.8919 24.6017 18.9332 24.488 18.9332C24.3537 18.9332 24.209 18.8609 24.0747 18.7369C23.8473 18.5198 23.6407 18.2925 23.4133 18.0445C23.31 17.9308 23.2066 17.8171 23.093 17.7035L22.8553 17.4555L22.6486 17.7138C20.3545 20.3283 19.1248 23.2734 18.9077 26.7043L18.8871 27.035H20.0651C20.6438 27.035 20.9952 27.097 21.1295 27.2313C21.1605 27.2623 21.2122 27.3346 21.2019 27.5103C21.2019 27.748 21.1915 27.965 20.0858 27.965H18.8871L18.9077 28.2957C19.1248 31.7265 20.3545 34.6613 22.6383 37.2758L22.8553 37.5342L23.093 37.2965C23.2066 37.1828 23.31 37.0691 23.4133 36.9658C23.6303 36.7384 23.837 36.5214 24.0437 36.3148C24.1987 36.1598 24.364 36.0771 24.5087 36.0771C24.612 36.0771 24.7154 36.1184 24.798 36.2114C24.8911 36.3044 24.9324 36.3974 24.9324 36.5111C24.9324 36.6558 24.8497 36.8211 24.6947 36.9658C24.4777 37.1828 24.2607 37.3791 24.023 37.5962C23.9197 37.6995 23.806 37.7925 23.6923 37.8958L23.4443 38.1335L23.7027 38.3609C26.3171 40.655 29.2519 41.8847 32.6828 42.1121L32.9928 42.1327L33.0135 41.8227C33.0135 41.7814 33.0238 41.74 33.0238 41.709C33.0341 41.6264 33.0341 41.554 33.0341 41.4714C33.0341 41.2853 33.0341 41.0993 33.0341 40.903C33.0341 40.7583 33.0341 40.6136 33.0341 40.4586C33.0445 40.0246 33.1995 39.8076 33.5095 39.8076Z" fill="white"/>
<path d="M39.876 34.1653C39.7314 34.1653 39.5764 34.1343 39.4524 34.1136C39.4214 34.0929 39.38 34.0413 39.349 33.9999C39.318 33.9586 39.287 33.9276 39.2457 33.8966L38.7497 33.4006C37.5096 32.1708 36.2385 30.8894 34.9881 29.6287C34.8538 29.4944 34.6781 29.3497 34.4094 29.3497C34.3164 29.3497 34.2234 29.3704 34.1098 29.4014C33.9031 29.4634 33.6964 29.5047 33.4897 29.5047C32.694 29.5047 31.9706 29.019 31.6503 28.275C31.2369 27.3036 31.64 26.2082 32.57 25.7328C32.9937 25.5158 33.0454 25.2161 33.0454 24.9268C33.0454 23.7694 33.0454 22.6017 33.0454 21.4443C33.0454 20.5452 33.0454 19.6462 33.0454 18.7368C33.0454 18.3958 33.159 18.2821 33.2727 18.2098C33.3554 18.1581 33.4277 18.1375 33.5104 18.1375C33.7274 18.1375 33.9651 18.3235 33.9651 18.6748C33.9754 19.4085 33.9754 20.1629 33.9651 20.8966C33.9651 21.2169 33.9651 21.527 33.9651 21.8473V22.6533C33.9651 23.4284 33.9651 24.2241 33.9651 25.0095C33.9651 25.3402 34.0891 25.5468 34.3784 25.7018C35.3085 26.1772 35.7218 27.1486 35.4015 28.12C35.2671 28.5333 35.4428 28.7813 35.6288 28.9673C37.0136 30.3417 38.481 31.8092 39.9484 33.2869C40.0827 33.4316 40.2067 33.6382 40.2481 33.8243C40.2791 33.9689 40.2171 34.1033 40.0827 34.1446C40.0311 34.1653 39.9587 34.1653 39.876 34.1653ZM33.4897 26.4149C32.911 26.4252 32.4253 26.9006 32.4253 27.4793C32.4253 27.7686 32.5287 28.0373 32.7353 28.2543C32.942 28.461 33.2107 28.5747 33.5001 28.5747H33.5104C33.7997 28.5747 34.0788 28.4506 34.2751 28.2336C34.4714 28.027 34.5851 27.7376 34.5748 27.4483C34.5541 26.8696 34.0684 26.4045 33.4897 26.4045V26.4149Z" fill="white"/>
</svg>
