<svg width="25" height="24" viewBox="0 0 25 24" fill="none" xmlns="http://www.w3.org/2000/svg">
<path d="M12.2795 23.6883C12.1785 23.6567 12.0837 23.6315 11.9827 23.6062C11.7554 23.5494 11.5343 23.4926 11.3449 23.398C10.0755 22.7985 9.41242 21.7889 9.38084 20.3944C9.36189 19.7192 9.36821 19.0314 9.37453 18.3625C9.37453 18.1038 9.38084 17.8514 9.38084 17.5927C9.38716 15.8069 8.74932 14.2672 7.4926 13.0241C6.2864 11.8315 5.55384 10.4875 5.25702 8.91623C4.60656 5.55923 6.32429 2.19593 9.42505 0.731976C10.4544 0.246095 11.5469 0 12.6711 0C15.9928 0 18.8789 2.1139 19.8514 5.26266C20.7166 8.07698 20.1103 10.6137 18.0516 12.8033C17.3885 13.5037 16.6622 14.3808 16.2833 15.5166C16.0686 16.1666 15.9613 16.8291 15.9613 17.498C15.9613 18.4256 15.9613 19.3532 15.9613 20.2871C15.9613 22.0539 14.8751 23.3475 13.1321 23.6567C13.0879 23.663 13.0563 23.6756 13.031 23.6946H12.2795V23.6883ZM10.2965 18.1732C10.2965 18.1858 10.2965 18.1984 10.2902 18.2111C10.2902 18.2426 10.2839 18.2742 10.2839 18.312C10.2839 18.5392 10.2839 18.7727 10.2776 18.9998C10.2713 19.5173 10.265 20.0599 10.2965 20.59C10.3597 21.7574 11.3449 22.7165 12.5321 22.7733C12.57 22.7733 12.6079 22.7733 12.6521 22.7733C13.8583 22.7733 14.8624 21.9277 14.9887 20.8108C15.0582 20.2051 15.0519 19.5867 15.0456 18.9935C15.0456 18.7411 15.0392 18.4761 15.0456 18.2237C15.0456 18.1416 15.014 18.0722 14.9445 18.0091L14.8814 17.9334H10.3218L10.2965 18.1732ZM12.6837 0.92128C12.3237 0.92128 11.9511 0.952831 11.5912 1.00962C9.81659 1.29358 8.26937 2.25272 7.23368 3.71036C6.19799 5.17431 5.81276 6.99163 6.15378 8.81526C6.40007 10.1467 7.06317 11.3456 8.13043 12.3805C9.01456 13.2387 9.63976 14.2798 9.9871 15.4725C10.0692 15.7627 10.1323 16.0656 10.1955 16.3748C10.2271 16.5199 10.2523 16.6651 10.2902 16.8102L10.3344 17.0058H15.0203L15.0582 16.8039C15.0771 16.6903 15.1024 16.5767 15.1213 16.4695C15.1655 16.236 15.2034 16.0151 15.254 15.8006C15.576 14.4944 16.2581 13.327 17.3506 12.2164C19.1252 10.418 19.6999 8.25997 19.062 5.80533C18.3168 2.9279 15.696 0.92128 12.6837 0.92128Z" fill="black"/>
<path d="M24.5115 7.09375H22.1497V8.00872H24.5115V7.09375Z" fill="black"/>
<path d="M1.72046 2.84676L2.28883 2.28516L3.96866 3.95734L3.39398 4.53157L1.72046 2.84676Z" fill="black"/>
<path d="M21.3669 3.95734L23.0405 2.28516L23.6088 2.85307L21.929 4.52526L21.3669 3.95734Z" fill="black"/>
<path d="M1.72778 12.198L3.41394 10.5195L4.00757 11.1064L2.3151 12.7912L1.72778 12.198Z" fill="black"/>
<path d="M21.3037 11.1244L21.8973 10.5312L23.5835 12.2224L22.9899 12.8155L21.3037 11.1244Z" fill="black"/>
<path d="M3.17957 7.10547H0.830322V7.98889H3.17957V7.10547Z" fill="black"/>
<path d="M12.2106 9.40929C12.1411 8.31133 12.4569 7.52256 13.1831 6.94834C13.5621 6.65176 13.6947 6.29208 13.5873 5.88823C13.4736 5.46545 13.0947 5.16888 12.6653 5.16888C12.6337 5.16888 12.6085 5.16888 12.5769 5.17519C12.1032 5.21936 11.7306 5.61059 11.7054 6.09016C11.6991 6.25422 11.6991 6.40566 11.6991 6.56973H10.7897C10.7139 5.54748 11.0423 4.87861 11.8064 4.46845C12.078 4.32332 12.3685 4.25391 12.6653 4.25391C13.2716 4.25391 13.8462 4.55679 14.1999 5.06791C14.743 5.85668 14.6167 6.92309 13.9094 7.50994C13.3031 8.00844 13.0442 8.6079 13.1137 9.3525C13.1137 9.37143 13.1137 9.39036 13.12 9.40929H12.2106Z" fill="black"/>
<path d="M13.1126 11.3594H12.2285V12.2428H13.1126V11.3594Z" fill="black"/>
</svg>
