<svg width="23" height="24" viewBox="0 0 23 24" fill="none" xmlns="http://www.w3.org/2000/svg">
<path d="M22.08 6.25687C21.2161 2.48395 17.6152 0.112052 13.6864 0.714244C10.2558 1.2427 7.53784 4.36426 7.53784 7.7562C7.57568 8.13718 7.58829 8.5243 7.65135 8.89914C7.92883 10.5521 8.7108 11.947 9.97836 13.0715C10.1675 13.2435 10.2621 13.4402 10.2748 13.6921C10.3315 14.6814 10.3946 15.6646 10.4639 16.6477C10.4702 16.7461 10.5144 16.869 10.5901 16.9181C10.6342 16.9488 10.7793 16.8813 10.8486 16.8321C11.6937 16.236 12.5387 15.6339 13.3837 15.0317C13.5729 14.8965 13.7684 14.8412 14.0017 14.8658C14.8531 14.9641 15.6981 14.9211 16.5305 14.7367C20.4341 13.8887 22.9503 10.0421 22.08 6.25687ZM16.5053 14.6261C15.9693 14.7429 15.4206 14.8043 14.8846 14.8043C14.5945 14.8043 14.3044 14.7859 14.0144 14.7551C13.9702 14.749 13.9261 14.749 13.8882 14.749C13.6801 14.749 13.4909 14.8104 13.3081 14.9456C12.5072 15.5232 11.681 16.107 10.7729 16.7461C10.7288 16.7768 10.672 16.8014 10.6405 16.8137C10.6153 16.7829 10.5901 16.7153 10.5901 16.6539C10.5081 15.5171 10.4513 14.5769 10.4009 13.6982C10.3883 13.4094 10.2748 13.1821 10.0603 12.9916C8.8117 11.8794 8.04234 10.5029 7.77117 8.88685C7.72703 8.63491 7.70811 8.37068 7.68919 8.11875C7.67658 8.00199 7.67027 7.8791 7.65766 7.76235C7.67027 4.39499 10.3189 1.35945 13.7053 0.83714C14.1026 0.775692 14.5062 0.744968 14.9035 0.744968C18.3089 0.744968 21.2098 3.02469 21.9602 6.28145C22.8053 9.97448 20.308 13.7904 16.5053 14.6261ZM22.08 6.25687C21.2161 2.48395 17.6152 0.112052 13.6864 0.714244C10.2558 1.2427 7.53784 4.36426 7.53784 7.7562C7.57568 8.13718 7.58829 8.5243 7.65135 8.89914C7.92883 10.5521 8.7108 11.947 9.97836 13.0715C10.1675 13.2435 10.2621 13.4402 10.2748 13.6921C10.3315 14.6814 10.3946 15.6646 10.4639 16.6477C10.4702 16.7461 10.5144 16.869 10.5901 16.9181C10.6342 16.9488 10.7793 16.8813 10.8486 16.8321C11.6937 16.236 12.5387 15.6339 13.3837 15.0317C13.5729 14.8965 13.7684 14.8412 14.0017 14.8658C14.8531 14.9641 15.6981 14.9211 16.5305 14.7367C20.4341 13.8887 22.9503 10.0421 22.08 6.25687ZM16.5053 14.6261C15.9693 14.7429 15.4206 14.8043 14.8846 14.8043C14.5945 14.8043 14.3044 14.7859 14.0144 14.7551C13.9702 14.749 13.9261 14.749 13.8882 14.749C13.6801 14.749 13.4909 14.8104 13.3081 14.9456C12.5072 15.5232 11.681 16.107 10.7729 16.7461C10.7288 16.7768 10.672 16.8014 10.6405 16.8137C10.6153 16.7829 10.5901 16.7153 10.5901 16.6539C10.5081 15.5171 10.4513 14.5769 10.4009 13.6982C10.3883 13.4094 10.2748 13.1821 10.0603 12.9916C8.8117 11.8794 8.04234 10.5029 7.77117 8.88685C7.72703 8.63491 7.70811 8.37068 7.68919 8.11875C7.67658 8.00199 7.67027 7.8791 7.65766 7.76235C7.67027 4.39499 10.3189 1.35945 13.7053 0.83714C14.1026 0.775692 14.5062 0.744968 14.9035 0.744968C18.3089 0.744968 21.2098 3.02469 21.9602 6.28145C22.8053 9.97448 20.308 13.7904 16.5053 14.6261ZM22.08 6.25687C21.2161 2.48395 17.6152 0.112052 13.6864 0.714244C10.2558 1.2427 7.53784 4.36426 7.53784 7.7562C7.57568 8.13718 7.58829 8.5243 7.65135 8.89914C7.92883 10.5521 8.7108 11.947 9.97836 13.0715C10.1675 13.2435 10.2621 13.4402 10.2748 13.6921C10.3315 14.6814 10.3946 15.6646 10.4639 16.6477C10.4702 16.7461 10.5144 16.869 10.5901 16.9181C10.6342 16.9488 10.7793 16.8813 10.8486 16.8321C11.6937 16.236 12.5387 15.6339 13.3837 15.0317C13.5729 14.8965 13.7684 14.8412 14.0017 14.8658C14.8531 14.9641 15.6981 14.9211 16.5305 14.7367C20.4341 13.8887 22.9503 10.0421 22.08 6.25687ZM16.5053 14.6261C15.9693 14.7429 15.4206 14.8043 14.8846 14.8043C14.5945 14.8043 14.3044 14.7859 14.0144 14.7551C13.9702 14.749 13.9261 14.749 13.8882 14.749C13.6801 14.749 13.4909 14.8104 13.3081 14.9456C12.5072 15.5232 11.681 16.107 10.7729 16.7461C10.7288 16.7768 10.672 16.8014 10.6405 16.8137C10.6153 16.7829 10.5901 16.7153 10.5901 16.6539C10.5081 15.5171 10.4513 14.5769 10.4009 13.6982C10.3883 13.4094 10.2748 13.1821 10.0603 12.9916C8.8117 11.8794 8.04234 10.5029 7.77117 8.88685C7.72703 8.63491 7.70811 8.37068 7.68919 8.11875C7.67658 8.00199 7.67027 7.8791 7.65766 7.76235C7.67027 4.39499 10.3189 1.35945 13.7053 0.83714C14.1026 0.775692 14.5062 0.744968 14.9035 0.744968C18.3089 0.744968 21.2098 3.02469 21.9602 6.28145C22.8053 9.97448 20.308 13.7904 16.5053 14.6261Z" fill="black"/>
<path d="M22.8115 6.83303C22.5971 5.00802 21.7079 3.31205 20.3017 2.04622C18.8954 0.780391 17.0855 0.0553033 15.2062 0.00614481C15.1242 0.00614481 15.0359 0 14.954 0C12.3558 0 10.1927 1.06305 8.52159 3.17072C8.47114 3.23217 8.427 3.27519 8.37655 3.29977C8.3261 3.32434 8.26934 3.33663 8.19367 3.33663C7.24142 3.33049 6.28287 3.33049 5.46306 3.33049H4.46668C4.01893 3.33049 3.57119 3.33049 3.12345 3.33049H3.11714C2.60003 3.33049 2.20273 3.41037 1.85589 3.57628C0.764911 4.09859 0.209961 4.98344 0.209961 6.20012C0.209961 9.64736 0.209961 13.0885 0.209961 16.5357V20.8248C0.209961 20.9108 0.209961 20.9845 0.216267 21.0583C0.285636 22.5576 1.50274 23.6944 3.04777 23.6944C4.4919 23.6944 5.93603 23.6944 7.38016 23.6944C9.56212 23.6944 11.7441 23.6944 13.926 23.6883C14.1531 23.6883 14.3738 23.6637 14.5819 23.6145C15.881 23.3134 16.7512 22.2319 16.7575 20.9231C16.7639 19.6573 16.7575 18.373 16.7575 17.1256C16.7575 16.5849 16.7575 16.038 16.7575 15.4972V15.319C16.8017 15.3067 16.8458 15.2944 16.8837 15.2822C20.7809 14.2928 23.2719 10.735 22.8115 6.83303ZM16.0008 17.1625C16.0008 18.3914 16.0008 19.6204 16.0008 20.8494C16.0008 22.1275 15.1495 22.957 13.8378 22.957C12.0783 22.957 10.3189 22.957 8.55312 22.957C6.74954 22.957 4.94595 22.957 3.14236 22.957C1.81805 22.957 0.960404 22.1213 0.960404 20.8371C0.960404 15.9519 0.960404 11.073 0.960404 6.18783C0.960404 4.89742 1.81805 4.06787 3.14867 4.06172C3.76668 4.06172 4.38469 4.06172 5.00271 4.06172H7.90989C7.90989 4.06787 7.90358 4.07401 7.90358 4.08016C6.16306 7.24474 6.79999 11.0177 9.49906 13.4633C9.61257 13.5678 9.66302 13.6722 9.66933 13.8381C9.70086 14.4219 9.7387 15.0179 9.77653 15.5894C9.80176 15.9765 9.82698 16.3636 9.85221 16.7508C9.87743 17.1195 10.0288 17.3591 10.3189 17.482C10.4261 17.5312 10.5396 17.5496 10.6468 17.5496C10.8297 17.5496 11.0126 17.482 11.1954 17.353C12.154 16.6647 12.9549 16.0933 13.7053 15.5648C13.781 15.5095 13.8756 15.4788 13.9513 15.4788C14.4305 15.4665 14.9224 15.4665 15.3954 15.4665C15.572 15.4665 15.7485 15.4665 15.9251 15.4665C15.9503 15.4665 15.9756 15.4665 16.0008 15.4665V17.1625ZM16.5305 14.7414C15.6918 14.9258 14.8468 14.9688 14.0017 14.8705C13.7684 14.8459 13.5729 14.9012 13.3837 15.0364C12.545 15.6386 11.6999 16.2407 10.8486 16.8368C10.7729 16.8921 10.6342 16.9535 10.59 16.9228C10.5207 16.8737 10.4765 16.7508 10.4639 16.6524C10.3945 15.6693 10.3315 14.68 10.2747 13.6968C10.2621 13.4387 10.1675 13.2421 9.97833 13.0762C8.71078 11.9455 7.9288 10.5568 7.65133 8.90384C7.58827 8.529 7.57565 8.14188 7.53782 7.7609C7.53782 4.36896 10.2558 1.2474 13.6864 0.718943C17.6152 0.110607 21.2161 2.48865 22.08 6.25542C22.9503 10.0406 20.4341 13.8873 16.5305 14.7414Z" fill="black"/>
<path d="M5.51356 15.6253C5.51356 15.4287 5.41897 15.3242 5.21086 15.3242C4.73789 15.3242 4.27123 15.3242 3.79826 15.3242C3.59646 15.3242 3.48926 15.4225 3.48926 15.6192C3.48926 16.08 3.48926 16.5347 3.48926 16.9956C3.48926 17.1922 3.58385 17.2967 3.79196 17.2967H5.20456C5.40636 17.2967 5.50726 17.2045 5.50726 17.0018C5.50726 16.7744 5.50726 16.5409 5.50726 16.3135C5.50726 16.0862 5.51356 15.8527 5.51356 15.6253ZM5.38744 16.4917C5.38744 16.6576 5.38744 16.8297 5.38744 16.9956C5.38744 17.0571 5.37482 17.1062 5.3496 17.1308C5.31807 17.1615 5.25501 17.1677 5.21086 17.1677H3.79826C3.66583 17.1677 3.62169 17.1246 3.62169 16.9895C3.62169 16.5286 3.62169 16.0739 3.62169 15.613C3.62169 15.484 3.67214 15.441 3.80457 15.441H4.56763C4.78204 15.441 4.99645 15.441 5.21086 15.441C5.27392 15.441 5.32437 15.4533 5.34329 15.4778C5.37482 15.5086 5.38113 15.57 5.38113 15.613C5.38113 15.7728 5.38113 15.9326 5.38113 16.0923L5.38744 16.4917Z" fill="black"/>
<path d="M6.14387 15.545C6.13125 15.078 5.75919 14.7154 5.2736 14.7093C5.01505 14.7031 4.75649 14.7031 4.50424 14.7031C4.24569 14.7031 3.98713 14.7031 3.73488 14.7093C3.24299 14.7154 2.87723 15.078 2.86462 15.5634C2.85831 15.7355 2.86462 15.9075 2.86462 16.0734C2.86462 16.1472 2.86462 16.227 2.86462 16.3008C2.86462 16.3745 2.86462 16.4544 2.86462 16.5281C2.86462 16.694 2.86462 16.8661 2.86462 17.0382C2.87723 17.5236 3.24299 17.8861 3.72857 17.8923C3.98082 17.8984 4.23938 17.8984 4.49794 17.8984C4.75019 17.8984 5.01505 17.8984 5.2673 17.8923C5.75288 17.8861 6.12495 17.5236 6.13756 17.0566C6.15017 16.565 6.15017 16.0488 6.14387 15.545ZM3.49524 16.9951C3.49524 16.5343 3.49524 16.0796 3.49524 15.6187C3.49524 15.4221 3.60245 15.3238 3.80425 15.3238C4.27722 15.3238 4.74388 15.3238 5.21685 15.3238C5.41865 15.3238 5.51955 15.4282 5.51955 15.6248C5.51955 15.8522 5.51955 16.0857 5.51955 16.3131C5.51955 16.5404 5.51955 16.7739 5.51955 17.0013C5.51955 17.1979 5.41865 17.2962 5.21685 17.2962H3.79794C3.58984 17.2901 3.49524 17.1856 3.49524 16.9951Z" fill="black"/>
<path d="M5.51296 19.9038C5.51296 19.7194 5.40576 19.6211 5.21657 19.6211C4.73729 19.6211 4.25802 19.6211 3.77875 19.6211C3.59586 19.6211 3.49496 19.7194 3.49496 19.8915C3.48866 20.3646 3.48866 20.8378 3.49496 21.3171C3.49496 21.5014 3.60217 21.5997 3.79136 21.5997C4.26433 21.5997 4.73099 21.5997 5.20396 21.5997C5.40576 21.5997 5.51296 21.5014 5.51296 21.3048C5.51296 21.0651 5.51296 20.8316 5.51296 20.592C5.51296 20.3646 5.51296 20.1311 5.51296 19.9038ZM5.38684 20.3831V20.592V20.7579C5.38684 20.9422 5.38684 21.1204 5.38684 21.3048C5.38684 21.4338 5.34269 21.4768 5.20396 21.4768H4.43459C4.22018 21.4768 4.00577 21.4768 3.79136 21.4768C3.66523 21.4768 3.62109 21.4338 3.62109 21.3171C3.61478 20.7702 3.61478 20.3216 3.62109 19.8976C3.62109 19.7931 3.66523 19.7501 3.77875 19.7501C4.02469 19.7501 4.27694 19.7501 4.52288 19.7501C4.75621 19.7501 4.98324 19.7501 5.21657 19.7501C5.34269 19.7501 5.38684 19.7931 5.38684 19.9099C5.38684 20.0635 5.38684 20.2233 5.38684 20.3831Z" fill="black"/>
<path d="M6.14413 20.8451C6.14413 20.7714 6.14413 20.6976 6.14413 20.6239C6.14413 20.5502 6.14413 20.4764 6.14413 20.4088C6.14413 20.2491 6.14413 20.077 6.14413 19.9111C6.13782 19.4011 5.78467 19.0385 5.28648 19.0201C5.02792 19.014 4.76306 19.0078 4.5045 19.0078C4.24595 19.0078 3.98108 19.014 3.72253 19.0201C3.22433 19.0385 2.87749 19.3949 2.87118 19.8865C2.86488 20.3658 2.86488 20.8574 2.87118 21.3367C2.87749 21.8221 3.23695 22.1908 3.72253 22.2031C3.98108 22.2093 4.24595 22.2154 4.5045 22.2154C4.76306 22.2154 5.02792 22.2093 5.28648 22.2031C5.77836 22.1847 6.13151 21.8283 6.14413 21.3367C6.15043 21.1708 6.14413 21.0049 6.14413 20.8451ZM5.5135 21.306C5.5135 21.5026 5.4063 21.6009 5.2045 21.6009C4.73153 21.6009 4.26486 21.6009 3.7919 21.6009C3.60271 21.6009 3.4955 21.5026 3.4955 21.3183C3.4892 20.8451 3.4892 20.372 3.4955 19.8927C3.4955 19.7206 3.5964 19.6223 3.77928 19.6223C4.25856 19.6223 4.73783 19.6223 5.21711 19.6223C5.4063 19.6223 5.5072 19.7145 5.5135 19.905C5.5135 20.1323 5.5135 20.3658 5.5135 20.5932C5.5135 20.8328 5.5135 21.0663 5.5135 21.306Z" fill="black"/>
<path d="M5.51276 12.0239C5.51276 11.7842 5.51276 11.5507 5.51276 11.3111C5.51276 11.1267 5.41817 11.0223 5.22898 11.0223C4.7497 11.0161 4.27043 11.0223 3.79115 11.0223C3.61458 11.0223 3.50107 11.1083 3.50107 11.2865C3.49476 11.7658 3.49476 12.2512 3.50107 12.7305C3.50107 12.9026 3.60827 12.9947 3.78485 12.9947C4.26412 12.9947 4.7434 12.9947 5.22267 12.9947C5.41186 12.9947 5.51276 12.8964 5.51276 12.7121C5.51276 12.4847 5.51276 12.2512 5.51276 12.0239ZM5.38663 12.7121C5.38663 12.8288 5.34249 12.8719 5.21637 12.8719H4.56682C4.30196 12.8719 4.0434 12.8719 3.78485 12.8719C3.65242 12.8719 3.62719 12.8165 3.62719 12.7244C3.62089 12.2266 3.62089 11.7412 3.62719 11.2803C3.62719 11.2066 3.64611 11.139 3.79115 11.139C4.0434 11.139 4.28935 11.139 4.5416 11.139C4.76862 11.139 4.99565 11.139 5.22898 11.139C5.32988 11.139 5.38663 11.1697 5.39294 11.3111C5.39294 11.477 5.39294 11.6429 5.39294 11.8088V12.0239V12.2389C5.38663 12.3926 5.38663 12.5523 5.38663 12.7121Z" fill="black"/>
<path d="M6.14457 12.0123C6.14457 11.9385 6.14457 11.8648 6.14457 11.7911C6.14457 11.6313 6.14457 11.4654 6.14457 11.2995C6.13827 10.7895 5.79142 10.4331 5.28062 10.4146C5.01575 10.4085 4.7572 10.4023 4.49864 10.4023C4.23378 10.4023 3.96892 10.4085 3.71036 10.4146C3.21848 10.4331 2.87163 10.7895 2.86533 11.2872C2.85902 11.7296 2.85902 12.1966 2.86533 12.7128C2.87163 13.2105 3.21217 13.5792 3.69775 13.5976C3.95631 13.6099 4.22747 13.6161 4.49864 13.6161C4.7572 13.6161 5.02206 13.6099 5.29323 13.5976C5.79773 13.5792 6.13827 13.2167 6.14457 12.7005C6.14457 12.5407 6.14457 12.381 6.14457 12.2212C6.14457 12.1598 6.14457 12.086 6.14457 12.0123ZM5.51395 12.7128C5.51395 12.8971 5.41305 12.9955 5.22386 12.9955C4.74459 12.9955 4.26531 12.9955 3.78604 12.9955C3.60316 12.9955 3.50226 12.9033 3.50226 12.7312C3.49595 12.2458 3.49595 11.7665 3.50226 11.2872C3.50226 11.109 3.61577 11.0291 3.79234 11.023C4.27162 11.023 4.75089 11.0168 5.23017 11.023C5.41935 11.023 5.51395 11.1274 5.51395 11.3118C5.51395 11.5514 5.51395 11.7849 5.51395 12.0246C5.51395 12.2519 5.51395 12.4854 5.51395 12.7128Z" fill="black"/>
<path d="M5.51389 7.70017C5.51389 7.48511 5.5202 7.27004 5.51389 7.05497C5.50758 6.80303 5.44452 6.73544 5.19858 6.72929C4.73822 6.72315 4.27156 6.72929 3.8112 6.72929V6.85219H4.013C4.12652 6.85219 4.57426 6.85219 4.68147 6.85219C4.85173 6.85219 5.02831 6.85219 5.19858 6.85833C5.36885 6.85833 5.38776 6.86448 5.39407 7.06111C5.39407 7.20859 5.39407 7.35606 5.39407 7.50354C5.39407 7.57113 5.39407 7.63873 5.39407 7.70017C5.39407 7.76777 5.39407 7.83536 5.39407 7.89681C5.39407 8.05657 5.39407 8.22248 5.39407 8.38839C5.39407 8.46213 5.38146 8.51129 5.34993 8.53587C5.3247 8.56045 5.27425 8.57888 5.20488 8.57888C4.98416 8.57888 4.75714 8.57888 4.53642 8.57888C4.29678 8.57888 4.05715 8.57888 3.81751 8.57888C3.67247 8.57888 3.62202 8.52972 3.62202 8.39454C3.62202 7.94597 3.62202 7.49125 3.62202 7.04268C3.62202 6.96894 3.63463 6.91978 3.66616 6.88906C3.69138 6.86448 3.74183 6.85219 3.8112 6.85219V6.72929C3.59679 6.72929 3.5022 6.8399 3.5022 7.04268C3.5022 7.4974 3.5022 7.94597 3.5022 8.39454C3.5022 8.60346 3.61571 8.70178 3.82382 8.70178C4.28417 8.70178 4.75083 8.70178 5.21119 8.70178C5.4193 8.70178 5.5265 8.59117 5.5202 8.38225C5.51389 8.15489 5.51389 7.92753 5.51389 7.70017Z" fill="black"/>
<path d="M6.14428 6.98808C6.13797 6.49035 5.7659 6.12781 5.2614 6.11552C5.00915 6.10937 4.7506 6.10938 4.49835 6.10938C4.2461 6.10938 3.99385 6.10937 3.74791 6.11552C3.24971 6.12166 2.87764 6.49035 2.87134 6.98808C2.87134 7.15399 2.87134 7.3199 2.87134 7.47967C2.87134 7.55341 2.87134 7.62714 2.87134 7.70088C2.87134 7.77462 2.87134 7.8545 2.87134 7.92824C2.87134 8.09415 2.87134 8.2662 2.87134 8.43826C2.88395 8.94213 3.24341 9.29853 3.75421 9.30468C4.00646 9.31082 4.25871 9.31082 4.51096 9.31082C4.76321 9.31082 5.01546 9.31082 5.26771 9.30468C5.77221 9.29853 6.14428 8.92985 6.15058 8.43212C6.15058 7.94667 6.15058 7.46123 6.14428 6.98808ZM3.81727 8.70249C3.60917 8.70249 3.49566 8.60417 3.49566 8.39525C3.49566 7.94667 3.49566 7.49196 3.49566 7.04339C3.49566 6.84061 3.59025 6.73 3.80466 6.73C4.26502 6.73 4.73168 6.72386 5.19204 6.73C5.43798 6.73 5.50735 6.80374 5.50735 7.05568C5.51365 7.27074 5.50735 7.48581 5.50735 7.70088C5.50735 7.92824 5.50735 8.16174 5.50735 8.3891C5.51365 8.59802 5.40645 8.70249 5.19834 8.70863C4.74429 8.70863 4.27763 8.70863 3.81727 8.70249Z" fill="black"/>
<path d="M14.071 19.7203C14.071 19.8554 13.9449 19.9599 13.7998 20.0582C13.762 20.0828 13.7115 20.1012 13.6485 20.1012C13.6232 20.1012 13.598 20.1012 13.5728 20.0951C13.5539 20.0951 13.535 20.0951 13.5223 20.0951H8.09897C7.9287 20.0951 7.52511 20.0951 7.5188 19.7325C7.5188 19.6342 7.55033 19.5482 7.60709 19.4929C7.69537 19.4069 7.84042 19.3639 8.08636 19.3639H13.535C13.5476 19.3639 13.5665 19.3639 13.5854 19.3577C13.6106 19.3577 13.6359 19.3516 13.6611 19.3516C13.7178 19.3516 13.762 19.3639 13.7998 19.3884L13.8061 19.3946C13.9196 19.4745 14.071 19.5789 14.071 19.7203Z" fill="black"/>
<path d="M13.1187 21.4881C13.1187 21.5987 13.0872 21.6847 13.0178 21.7462C12.9169 21.8445 12.7656 21.8568 12.6269 21.8568H12.6206C12.2611 21.8568 11.9079 21.8568 11.5485 21.8568H10.3062H9.07013C8.71068 21.8568 8.35122 21.8568 7.99807 21.8568H7.99177C7.68276 21.8568 7.52511 21.7339 7.5188 21.4943C7.5188 21.3837 7.55033 21.2976 7.61339 21.23C7.7206 21.1256 7.87825 21.1133 7.99177 21.1133H12.6332C13.0368 21.1256 13.1187 21.3222 13.1187 21.4881Z" fill="black"/>
<path d="M13.9766 9.3261C13.9766 9.10489 13.9766 8.88367 13.9766 8.65631C13.9829 7.83905 14.3865 7.32289 15.1874 7.08324C15.7424 6.91733 16.0703 6.45647 16.0262 5.92802C15.982 5.418 15.528 4.98171 14.9856 4.92641C14.3613 4.85882 13.8379 5.33811 13.7622 6.00175C13.7433 6.19839 13.6739 6.41346 13.5604 6.57322C13.3397 6.89275 12.9235 6.99721 12.5514 6.87432C12.1794 6.75142 11.9271 6.41346 11.9208 6.01404C11.8893 4.63146 13.037 3.32876 14.4433 3.15056C15.9631 2.96007 17.3694 3.85107 17.7667 5.26438C18.164 6.68383 17.4262 8.12786 15.9883 8.71162C15.8559 8.76692 15.8181 8.82837 15.8181 8.96355C15.8244 9.35682 15.8307 9.74395 15.8181 10.1372C15.8054 10.6288 15.4649 10.9791 14.9793 11.0405C14.5631 11.0897 14.1343 10.8254 14.0145 10.4199C13.9703 10.2663 13.9703 10.1003 13.964 9.94058C13.9703 9.7378 13.9766 9.53502 13.9766 9.3261ZM14.4748 9.3261C14.4748 9.57804 14.4685 9.82997 14.4748 10.0819C14.4811 10.3769 14.6514 10.5612 14.9037 10.5551C15.1559 10.5551 15.3199 10.3707 15.3199 10.0758C15.3199 9.64563 15.3199 9.21549 15.3199 8.78535C15.3199 8.4351 15.3325 8.41667 15.6667 8.3122C16.9217 7.91279 17.6343 6.64081 17.2937 5.40571C16.9532 4.18289 15.673 3.4025 14.3992 3.65443C13.264 3.88179 12.419 4.8834 12.4316 5.98332C12.4379 6.2414 12.583 6.40731 12.8163 6.4196C13.0559 6.43804 13.2325 6.2967 13.2703 6.05091C13.2829 5.97717 13.2829 5.89729 13.2893 5.82355C13.3586 5.10461 14.0208 4.47784 14.7586 4.44097C15.6036 4.39181 16.3604 4.96328 16.4991 5.74367C16.6442 6.56708 16.1586 7.31674 15.3136 7.55639C14.7649 7.71616 14.4748 8.0787 14.4748 8.63173C14.4685 8.86524 14.4748 9.0926 14.4748 9.3261Z" fill="black"/>
<path d="M14.8963 11.3867C15.4197 11.3867 15.8296 11.7861 15.8233 12.29C15.817 12.7754 15.4008 13.1749 14.8963 13.181C14.3855 13.181 13.9756 12.7754 13.9756 12.2716C13.9882 11.7616 14.3792 11.3867 14.8963 11.3867ZM14.9089 11.8783C14.6693 11.8783 14.4801 12.0442 14.4801 12.2716C14.4801 12.4928 14.663 12.6771 14.8963 12.6771C15.1359 12.6771 15.3188 12.5112 15.3188 12.2839C15.3251 12.0504 15.1485 11.8844 14.9089 11.8783Z" fill="black"/>
</svg>
