<svg width="14" height="14" viewBox="0 0 14 14" fill="none" xmlns="http://www.w3.org/2000/svg">
<path d="M5.3262 1.82277L11.0583 4.68884C13.6298 5.97456 13.6298 8.07723 11.0583 9.36295L5.3262 12.229C1.46906 14.1576 -0.104603 12.5772 1.82397 8.72679L2.40656 7.56831C2.55388 7.27366 2.55388 6.78482 2.40656 6.49018L1.82397 5.325C-0.104603 1.47456 1.47575 -0.105801 5.3262 1.82277ZM2.60075 7.02589H6.21683Z" fill="white"/>
<path d="M2.60075 7.02589H6.21683M5.3262 1.82277L11.0583 4.68884C13.6298 5.97456 13.6298 8.07723 11.0583 9.36295L5.3262 12.229C1.46906 14.1576 -0.104603 12.5772 1.82397 8.72679L2.40656 7.56831C2.55388 7.27366 2.55388 6.78482 2.40656 6.49018L1.82397 5.325C-0.104603 1.47456 1.47575 -0.105801 5.3262 1.82277Z" stroke="#105F43" stroke-linecap="round" stroke-linejoin="round"/>
</svg>
