<svg width="26" height="22" viewBox="0 0 26 22" fill="none" xmlns="http://www.w3.org/2000/svg">
<path d="M7.10274 21.0335C6.7698 21.0335 6.45073 20.9913 6.13167 20.8929C5.60451 20.7382 5.27157 20.3305 5.11897 19.6978C4.9525 19.0089 4.78603 18.3199 4.61956 17.6451C4.35598 16.5484 4.07853 15.4095 3.82882 14.2988C3.77333 14.0598 3.66235 13.9614 3.42652 13.9192C1.69245 13.6521 0.305196 12.232 0.0554902 10.4746C0.0554902 10.4324 0.0277451 10.3902 0.0138725 10.348C0.0138725 10.348 0.0138725 10.334 0 10.334V9.46225C0.0416176 9.32165 0.0832353 9.16699 0.124853 9.02639C0.208088 8.68896 0.291323 8.37964 0.430049 8.09845C1.15142 6.63623 2.33059 5.86294 3.92593 5.8067C4.4947 5.79264 5.1051 5.77858 5.85421 5.77858C6.29814 5.77858 6.74206 5.77858 7.18598 5.77858C7.61603 5.77858 8.07382 5.77858 8.51774 5.77858C8.61485 5.77858 8.72583 5.77858 8.82294 5.77858C11.3061 5.76452 13.5673 5.17401 15.565 3.99298C16.869 3.2197 17.9233 2.20739 18.7279 0.970126C18.7557 0.927947 18.7834 0.885768 18.8112 0.829528C18.936 0.632691 19.0609 0.435854 19.2135 0.253076C19.3383 0.0843588 19.5048 0 19.7129 0C19.7961 0 19.8655 0.0140598 19.9626 0.0421794C20.1568 0.0984186 20.4065 0.253076 20.462 0.618631C20.4759 0.74517 20.4897 0.871708 20.4897 0.998246C20.4897 2.81196 20.4897 4.92093 20.4897 7.00178C20.4897 7.18456 20.5175 7.3814 20.8088 7.43764C22.0296 7.70477 22.8342 8.85768 22.6816 10.1231C22.5429 11.3181 21.9048 12.0352 20.7533 12.3304C20.4759 12.4007 20.4897 12.5976 20.4897 12.7101C20.4897 12.7241 20.4897 12.7382 20.4897 12.7522V14.3129C20.4897 15.7892 20.4897 17.3076 20.4897 18.798C20.4897 18.9526 20.4759 19.1354 20.4204 19.2901C20.3094 19.5712 20.0597 19.754 19.7684 19.754C19.5464 19.754 19.3245 19.6415 19.1857 19.4447C19.0609 19.276 18.936 19.0932 18.825 18.9104C18.7141 18.7417 18.6031 18.5589 18.4782 18.3902C17.2713 16.7452 15.6621 15.5642 13.5257 14.7909C12.0136 14.2426 10.4183 13.9754 8.65647 13.9754C8.51774 13.9754 8.39289 13.9754 8.25416 13.9754C8.22642 13.9754 8.1848 13.9754 8.14318 13.9754H8.05995L7.90735 13.9895L8.01833 14.4957C8.07382 14.7487 8.12931 14.9878 8.19867 15.2408C8.30966 15.6767 8.40676 16.1125 8.51774 16.5484C8.71196 17.3498 8.90617 18.1653 9.10039 18.9807C9.30848 19.8946 8.87843 20.682 8.05995 20.9069C7.72701 20.9913 7.40794 21.0335 7.10274 21.0335ZM4.56407 14.1301C4.57794 14.1723 4.57794 14.2004 4.57794 14.2285C4.59181 14.2848 4.59181 14.341 4.60569 14.3832C4.7999 15.1705 4.98024 15.9579 5.17446 16.7593L5.32706 17.392C5.49353 18.095 5.66 18.798 5.82647 19.5009C5.93745 19.979 6.18716 20.218 6.63108 20.2321C6.78367 20.2461 6.95015 20.2461 7.11662 20.2461C7.29696 20.2461 7.4773 20.2461 7.64377 20.2321C7.87961 20.218 8.07382 20.1196 8.21255 19.9509C8.3374 19.7962 8.39289 19.6134 8.37902 19.4166C8.35127 19.1495 8.29578 18.8683 8.1848 18.6292C8.12931 18.5168 7.99059 18.5027 7.83799 18.5027C7.7825 18.5027 7.74088 18.5027 7.69926 18.4886C7.67152 18.4886 7.6299 18.4746 7.58828 18.4605C7.40794 18.4043 7.29696 18.2637 7.31083 18.095C7.3247 17.9263 7.44956 17.7857 7.6299 17.7435C7.67152 17.7294 7.72701 17.7294 7.76863 17.7154L7.85186 17.7013L7.99059 17.6872L7.92122 17.3639C7.89348 17.2373 7.86573 17.1108 7.83799 16.9983C7.72701 16.5203 7.67152 16.4781 7.17211 16.45C7.13049 16.45 7.08887 16.45 7.06113 16.4359C6.88078 16.4078 6.7698 16.2672 6.75593 16.0844C6.75593 15.9016 6.86691 15.761 7.03338 15.7189C7.10274 15.7048 7.15823 15.6907 7.24147 15.6907C7.28309 15.6907 7.3247 15.6767 7.36632 15.6767L7.50505 15.6626L7.40794 15.2268C7.3247 14.8612 7.24147 14.5238 7.14436 14.1723C7.11662 14.0598 6.96402 13.9895 6.88078 13.9895C6.42299 13.9895 5.95132 13.9895 5.54902 13.9895H4.53632L4.56407 14.1301ZM19.4771 1.19508C18.3395 2.95256 16.8551 4.24606 14.9685 5.17401C13.2205 6.03166 11.32 6.48157 9.15588 6.55187H9.03103V13.1881H9.14201C11.3894 13.3146 13.2899 13.7645 14.9407 14.58C16.7719 15.4658 18.2424 16.7593 19.4632 18.5308L19.6851 18.8683V0.843588L19.4771 1.19508ZM5.56289 6.53781C4.88314 6.53781 4.32823 6.55187 3.81495 6.56593C2.20573 6.62217 0.832353 8.02815 0.749117 9.70127C0.7075 10.6292 1.0127 11.5009 1.62309 12.1617C2.24735 12.8366 3.12132 13.2022 4.06466 13.2162C4.53632 13.2162 5.04961 13.2162 5.68774 13.2162C6.07618 13.2162 6.47848 13.2162 6.86691 13.2162C7.21372 13.2162 7.57441 13.2162 7.92122 13.2162C7.97671 13.2162 8.0322 13.2162 8.07382 13.2022C8.10157 13.2022 8.11544 13.2022 8.14318 13.1881L8.25416 13.174V11.8384H6.33975C5.95132 11.8384 5.56289 11.8384 5.17446 11.8384C4.81377 11.8384 4.73054 11.6696 4.70279 11.5572C4.67505 11.4306 4.68892 11.3322 4.75828 11.2478C4.82765 11.1494 4.96637 11.0932 5.13284 11.0932C5.52127 11.0932 5.9097 11.0932 6.29814 11.0932H7.50505H7.86573C7.9351 11.0932 7.99059 11.0932 8.04608 11.0791C8.07382 11.0791 8.10157 11.0791 8.12931 11.0791H8.25416V6.60811L8.15706 6.57999C8.14318 6.57999 8.14318 6.57999 8.12931 6.56593C8.10157 6.55187 8.07382 6.55187 8.04608 6.55187H7.99059C7.58828 6.55187 7.17211 6.55187 6.7698 6.55187C6.38137 6.53781 5.96519 6.53781 5.56289 6.53781ZM20.4897 11.5853L20.6285 11.5712C21.3915 11.4587 21.9464 10.7417 21.9325 9.85592C21.9186 8.99827 21.3637 8.29529 20.6285 8.21093L20.4897 8.19687V11.5853Z" fill="black"/>
<path d="M24.3739 15.0316C24.2907 15.0316 24.2074 14.9895 24.1242 14.9192C23.93 14.7504 23.7358 14.5677 23.5415 14.3989C23.4722 14.3286 23.4028 14.2724 23.3335 14.2021C23.278 14.1459 23.2225 14.0896 23.167 14.0474C23.0283 13.9209 22.8757 13.7803 22.7369 13.6538C22.5566 13.471 22.5288 13.2601 22.6676 13.0914C22.7369 13.007 22.834 12.9648 22.9311 12.9648C23.0283 12.9648 23.1254 13.007 23.2225 13.0914C23.708 13.5272 24.1658 13.949 24.5959 14.3568C24.6513 14.413 24.693 14.4833 24.7346 14.5817C24.7485 14.6098 24.7623 14.638 24.7901 14.6801C24.7762 14.7083 24.7485 14.7364 24.7346 14.7645C24.6652 14.8629 24.6097 14.9473 24.5265 15.0035C24.471 15.0176 24.4294 15.0316 24.3739 15.0316Z" fill="#606060"/>
<path d="M22.9873 6.80507C22.8208 6.79101 22.6959 6.72071 22.6266 6.59418C22.5711 6.49576 22.5711 6.36922 22.6266 6.2708C22.6543 6.21456 22.7098 6.15832 22.7792 6.08802C23.126 5.76465 23.5838 5.32879 24.0554 4.907C24.1664 4.79452 24.2913 4.73828 24.4023 4.73828C24.4994 4.73828 24.5826 4.78046 24.652 4.86482C24.8046 5.03354 24.7768 5.25849 24.5549 5.45533C24.0971 5.87713 23.6809 6.2708 23.2508 6.65041C23.1815 6.70665 23.0844 6.74883 23.015 6.79101C23.015 6.80507 23.0011 6.80507 22.9873 6.80507Z" fill="#606060"/>
<path d="M24.277 10.2772C24.2215 10.2772 24.1522 10.2772 24.0967 10.2631C23.958 10.2631 23.8192 10.2491 23.6805 10.235C23.4863 10.2069 23.3614 10.0522 23.3753 9.8554C23.3892 9.65856 23.5279 9.51797 23.7221 9.51797C23.9025 9.51797 24.0967 9.50391 24.2909 9.50391C24.4712 9.50391 24.6655 9.50391 24.8597 9.51797C25.0539 9.51797 25.1926 9.65856 25.2065 9.8554C25.2204 10.0382 25.0816 10.2069 24.9013 10.235C24.7626 10.2631 24.6238 10.2631 24.4712 10.2631C24.4019 10.2772 24.3464 10.2772 24.277 10.2772Z" fill="#606060"/>
<path d="M3.02397 11.8389C2.92686 11.8389 2.82976 11.7967 2.76039 11.7264C2.69103 11.6561 2.64941 11.5577 2.64941 11.4593C2.64941 11.2625 2.81588 11.0938 3.02397 11.0938C3.23206 11.0938 3.38466 11.2484 3.38466 11.4593C3.38466 11.6702 3.21819 11.8389 3.02397 11.8389Z" fill="#606060"/>
</svg>
