<svg width="62" height="56" viewBox="0 0 62 56" fill="none" xmlns="http://www.w3.org/2000/svg">
<circle cx="30.2348" cy="25.2346" r="25.2346" fill="#A87E33"/>
<mask id="path-2-outside-1_0_1102" maskUnits="userSpaceOnUse" x="12.9999" y="8" width="35" height="35" fill="black">
<rect fill="white" x="12.9999" y="8" width="35" height="35"/>
<path d="M14.0149 42.009C14.0149 41.7107 14.0149 41.4123 14.0059 41.123C13.9968 40.3274 13.9788 39.5047 14.1232 38.7362C14.6469 35.8249 16.4256 33.9715 19.4141 33.2301C20.2176 33.0312 21.0122 32.8504 21.8518 32.6515C22.231 32.5611 22.6102 32.4797 22.9894 32.3893L23.1971 32.3441V32.1271C23.1971 32.0367 23.1971 31.9463 23.1971 31.8468C23.1971 31.6027 23.2061 31.3405 23.1881 31.0874C23.179 30.8885 23.0256 30.7077 22.8811 30.6263C21.5539 29.8488 20.7864 28.7458 20.5336 27.254C20.5065 27.0822 20.3982 26.9104 20.2176 26.7205C18.9717 25.4819 18.3396 23.9811 18.3396 22.2633C18.3396 20.7082 19.3509 19.343 20.8496 18.8638C21.0302 18.8096 21.2108 18.683 21.3462 18.5384C22.4838 17.2907 23.8743 16.6488 25.5987 16.5855C25.6981 16.5855 25.8064 16.5764 25.9057 16.5764C27.3955 16.5764 28.6324 16.9833 29.6888 17.806C29.761 17.8603 29.8422 17.8693 29.8784 17.8693C29.8874 17.8693 29.8964 17.8693 29.9145 17.8693L30.2215 17.9145C30.2215 17.9145 30.2215 17.1099 30.2215 16.8658C30.2215 16.2329 30.2215 15.5819 30.2215 14.94C30.2215 14.6597 30.2305 14.4337 30.2756 14.2167C30.4833 13.0956 31.4494 12.2729 32.578 12.2548C32.8849 12.2458 33.219 12.2458 33.6253 12.2458C33.9052 12.2458 34.1851 12.2458 34.474 12.2458C34.7629 12.2458 35.0518 12.2458 35.3498 12.2458H35.6026L35.6206 11.9926C35.6838 10.9167 36.0992 10.1121 36.9027 9.54247C37.4083 9.18082 37.9862 9 38.6091 9C38.6814 9 38.7536 9 38.8258 9.00904C40.3336 9.10849 41.3448 10.2025 41.6157 12.0197L41.6518 12.2548H41.8866C42.1213 12.2548 42.3561 12.2548 42.5908 12.2548C42.8256 12.2548 43.0603 12.2548 43.2951 12.2548C43.7194 12.2548 44.0625 12.2548 44.3695 12.2638C44.6223 12.2638 44.9112 12.2819 45.1821 12.3452C46.2204 12.5984 46.9788 13.5567 46.9968 14.6236C47.0149 16.5764 47.0149 18.3847 46.9968 20.1658C46.9878 21.4858 45.9314 22.5255 44.5952 22.5436C44.0173 22.5526 43.4395 22.5526 42.8707 22.5526C42.2116 22.5526 41.5435 22.5436 40.8844 22.5345H40.8573C40.5052 22.5345 40.2433 22.6611 40.0176 22.9504C39.5842 23.4929 39.1328 24.0263 38.6994 24.5507C38.5189 24.7586 38.3473 24.9756 38.1667 25.1836C37.8327 25.5814 37.4354 25.7984 37.0201 25.7984C36.8666 25.7984 36.7041 25.7712 36.5506 25.7079C35.8012 25.4367 35.6477 24.7677 35.6477 24.2614C35.6477 23.9359 35.6477 23.6195 35.6477 23.2849V22.5526H31.8827L31.8105 22.9685C31.7925 23.1041 31.7654 23.2307 31.7473 23.3663C31.5126 24.6682 30.9257 25.7803 29.9596 26.7477C29.8061 26.9014 29.6797 27.1364 29.6346 27.3715C29.3547 28.7819 28.6053 29.8578 27.3955 30.5721C27.1878 30.6986 26.944 30.8975 26.9801 31.3315C26.9982 31.5033 26.9892 31.6841 26.9892 31.8649C26.9892 31.9553 26.9892 32.0458 26.9892 32.1362V32.3532L31.3139 33.3748V32.0729C31.3139 31.3405 31.3139 30.6173 31.3139 29.894C31.3139 29.2159 31.5487 28.6373 32.0182 28.1581C32.4877 27.6789 33.0565 27.4348 33.6975 27.4348C35.6026 27.4348 37.6521 27.4258 39.6836 27.4258C41.4803 27.4258 43.0964 27.4258 44.6132 27.4348C45.9134 27.4438 46.9788 28.5107 46.9968 29.8216C47.0149 31.214 47.0149 32.6515 46.9968 34.2156C46.9878 35.5537 45.9134 36.6115 44.5681 36.6296C44.3695 36.6296 44.1799 36.6296 43.9812 36.6296C43.8187 36.6296 43.6472 36.6296 43.4847 36.6296C43.3131 36.6296 43.1325 36.6296 42.952 36.6296H42.6811V37.371C42.6811 37.7055 42.6811 38.04 42.6811 38.3745C42.6811 39.0888 42.3561 39.6041 41.7602 39.8121C41.6067 39.8663 41.4532 39.8934 41.2997 39.8934C40.8844 39.8934 40.4871 39.6855 40.1621 39.2967L39.6926 38.7362C39.196 38.1485 38.6904 37.5337 38.1848 36.937C38.0764 36.8104 37.8778 36.6658 37.6611 36.6567C37.4083 36.6477 37.1284 36.6477 36.7763 36.6477C36.6228 36.6477 36.4693 36.6477 36.3068 36.6477C36.1353 36.6477 35.9637 36.6477 35.7922 36.6477H35.3498L35.5484 37.0455C36.2256 38.3836 36.2075 39.7668 36.1894 41.2405C36.1894 41.5027 36.1804 41.774 36.1804 42.0362H14.0149V42.009ZM24.2806 40.246C24.3167 40.3364 24.3438 40.4268 24.3799 40.5082C24.4611 40.7433 24.5424 40.9603 24.6327 41.1773C24.7049 41.349 24.9126 41.4666 25.057 41.4847C25.0751 41.4847 25.0841 41.4847 25.1022 41.4847C25.2557 41.4847 25.4633 41.3762 25.5446 41.2044C25.6439 40.9693 25.7251 40.7433 25.8064 40.4992C25.8335 40.4178 25.8696 40.3274 25.8967 40.246L26.0321 39.8844H25.996C26.303 39.1882 26.5648 38.483 26.7996 37.814C26.8537 37.6512 26.7996 37.4614 26.7183 37.3529C26.3572 36.8647 26.005 36.3945 25.6258 35.8882L25.1022 35.1921L24.5604 35.9153C24.1903 36.4036 23.8472 36.8647 23.4951 37.3348C23.4319 37.4252 23.3325 37.6332 23.3957 37.823C23.6124 38.4288 23.8381 39.0436 24.0548 39.6403L24.1812 39.9929L24.2806 40.246ZM18.8633 41.4847H24.1541L21.1927 33.4381L20.976 33.4652C16.4526 34.0619 14.1232 36.8918 14.5837 41.2405L14.6108 41.4847H18.3487V38.2751H18.8633V41.4847ZM26.0321 41.4847H31.323V38.2841H31.8647V41.4847H35.6387V41.2134C35.6387 41.0416 35.6387 40.8608 35.6477 40.689C35.6567 40.3184 35.6567 39.9386 35.6387 39.5589C35.5303 37.7959 34.799 36.3041 33.4537 35.1288C32.271 34.089 30.7993 33.7816 29.3818 33.4833L29.0116 33.4019L26.0321 41.4847ZM38.0494 36.0781C38.1667 36.0781 38.2299 36.1052 38.3112 36.2047C38.7897 36.7923 39.2863 37.389 39.7648 37.9677C40.0267 38.2841 40.2885 38.6005 40.5503 38.917C40.7128 39.1068 40.9386 39.3329 41.2726 39.3329C41.3719 39.3329 41.4803 39.3148 41.5796 39.2696C42.1303 39.0526 42.1213 38.5282 42.1213 38.3293C42.1123 37.7416 42.1213 37.1449 42.1213 36.5663C42.1213 36.4126 42.1213 36.2499 42.1213 36.0962C42.4102 36.0962 42.7082 36.0962 42.9971 36.0962C43.4847 36.0962 43.9722 36.0962 44.4507 36.0962C45.6425 36.0871 46.437 35.2915 46.4461 34.1162C46.4461 32.6877 46.4461 31.2863 46.4461 29.9482C46.4461 28.791 45.6335 27.9773 44.4778 27.9773C42.6992 27.9773 40.9205 27.9773 39.1328 27.9773C37.3451 27.9773 35.5755 27.9773 33.7878 27.9773C32.6412 27.9773 31.8376 28.7819 31.8376 29.9301C31.8376 30.3731 31.8376 30.8162 31.8376 31.2592C31.8376 31.8649 31.8376 32.4978 31.8286 33.1126C31.8286 33.4381 31.955 33.637 32.2439 33.7636C33.237 34.2066 34.0767 34.8847 34.7448 35.7707C34.9164 36.0058 35.1331 36.1052 35.431 36.1052H35.4491C35.738 36.1052 36.0269 36.0962 36.3158 36.0962H37.0472C37.3271 36.0962 37.6702 36.0962 38.0132 36.0871L38.0494 36.0781ZM23.152 32.9318C23.1249 32.9318 23.1068 32.9318 23.0797 32.9408C22.8179 32.9951 22.5561 33.0584 22.2852 33.1307C22.1949 33.1578 22.0956 33.1759 22.0053 33.203L21.7074 33.2753L23.0707 36.9822L24.75 34.74L24.3708 34.2337C24.0909 33.863 23.8291 33.5104 23.5583 33.1578C23.486 33.0403 23.3235 32.9318 23.152 32.9318ZM27.0253 32.9318C26.8808 32.9318 26.7273 33.0041 26.637 33.1216C26.3481 33.5014 26.0592 33.8901 25.7793 34.2608L25.4272 34.74L27.1065 36.9822L28.4699 33.2753L28.1719 33.203C28.0816 33.1849 27.9914 33.1578 27.9011 33.1397C27.6302 33.0764 27.3684 33.0041 27.1065 32.9499C27.0795 32.9318 27.0524 32.9318 27.0253 32.9318ZM23.7659 31.431C23.7659 31.5123 23.7569 31.6027 23.7479 31.7112C23.7208 31.9734 23.6937 32.2718 23.8201 32.534C24.0187 32.9137 24.2896 33.2573 24.5514 33.5827C24.6598 33.7184 24.7681 33.854 24.8764 33.9986L25.0931 34.2879L25.3098 33.9986C25.4001 33.8811 25.4814 33.7545 25.5626 33.646C25.7251 33.411 25.8786 33.194 26.0502 33.0132C26.4745 32.5882 26.4565 32.1 26.4384 31.7112C26.4384 31.6208 26.4294 31.5304 26.4294 31.449L26.4384 31.1688H23.7569V31.431H23.7659ZM21.0302 25.8707C21.0302 26.16 21.0212 26.4493 21.0392 26.7477C21.1295 28.3299 21.906 29.5323 23.2693 30.2195C23.8833 30.5268 24.5063 30.6896 25.1202 30.6896C25.9328 30.6896 26.7183 30.4184 27.4677 29.8759C28.6414 29.0351 29.2012 27.7693 29.147 26.1329C29.1109 24.9666 28.3164 24.171 27.1788 24.1619C27.0163 24.1619 26.8447 24.1529 26.6822 24.1529C26.4926 24.1438 26.294 24.1438 26.0953 24.1438C25.8245 24.1438 25.5987 24.1529 25.3911 24.18C25.2286 24.1981 25.0661 24.2071 24.9126 24.2071C24.0548 24.2071 23.3325 23.9359 22.7186 23.3663C22.6825 23.3392 22.6554 23.3211 22.6373 23.3121C22.4297 23.1584 22.213 23.077 21.9963 23.077C21.8338 23.077 21.6712 23.1222 21.5178 23.2126C21.283 23.3482 21.0031 23.6195 21.0122 24.1619C21.0212 24.4693 21.0122 24.7767 21.0122 25.0841C21.0122 25.2197 21.0122 25.3463 21.0122 25.4819V25.7532C21.0392 25.7893 21.0392 25.8345 21.0302 25.8707ZM25.9148 17.1189C25.8245 17.1189 25.7432 17.1189 25.6529 17.1189C23.9916 17.1732 22.6193 17.8422 21.581 19.0989C21.5087 19.1803 21.3823 19.2616 21.2559 19.2978C19.9377 19.6595 19.1432 20.5093 18.9355 21.7479C18.7369 22.9775 19.0349 24.18 19.8474 25.4277C19.8836 25.491 19.9377 25.5271 19.9829 25.5723C20.0009 25.5904 20.019 25.6085 20.0461 25.6266L20.5065 26.0605V25.4277C20.5065 25.283 20.5065 25.1474 20.5065 25.0118C20.5065 24.7225 20.5065 24.4512 20.5065 24.18C20.4975 23.4929 20.7593 23.0137 21.3101 22.7153C21.5629 22.5797 21.8067 22.5074 22.0505 22.5074C22.3665 22.5074 22.6644 22.6249 22.9443 22.8419C23.6034 23.3753 24.3167 23.6375 25.1112 23.6375C25.2466 23.6375 25.3911 23.6285 25.5355 23.6104C25.68 23.5923 25.8425 23.5833 26.0412 23.5833C26.1856 23.5833 26.3301 23.5833 26.4745 23.5923C26.619 23.5923 26.7725 23.6014 26.926 23.6014C28.4338 23.6014 29.1741 24.1348 29.6707 25.5723L29.779 25.8978L30.068 25.717C30.077 25.7079 30.086 25.7079 30.0951 25.6989C30.1221 25.6808 30.1763 25.6537 30.2215 25.5995C31.5487 23.8093 31.9008 20.9071 29.9957 18.8096C28.9394 17.6795 27.6122 17.1189 25.9148 17.1189ZM36.1804 22.4712C36.1804 23.1041 36.1804 23.7008 36.1804 24.3066C36.1804 24.6953 36.3249 24.9756 36.6228 25.1384C36.7492 25.2107 36.8847 25.2468 37.0201 25.2468C37.2729 25.2468 37.5076 25.1112 37.7334 24.8581C38.4105 24.0534 39.2141 23.0951 40.0086 22.1277C40.0899 22.0282 40.1531 21.9921 40.2704 21.9921C41.0198 22.0011 41.8053 22.0011 42.6089 22.0011C43.2499 22.0011 43.9 22.0011 44.541 21.9921C45.6064 21.983 46.4461 21.1874 46.4551 20.1838C46.4732 18.3666 46.4732 16.486 46.4551 14.5964C46.4461 13.6381 45.6606 12.8334 44.7035 12.8063C44.3514 12.7973 43.9632 12.7882 43.5027 12.7882C43.1957 12.7882 42.8978 12.7882 42.5998 12.7882C42.32 12.7882 42.0401 12.7882 41.7692 12.7882H41.6338L40.3065 14.6507L40.6045 14.7863C43.6652 16.2148 43.8548 18.9904 43.7465 20.3375H33.4808C33.4357 19.3249 33.4989 18.1767 34.0948 17.1099C34.6726 16.0701 35.5303 15.2926 36.6319 14.7953L36.9388 14.6597L35.7199 12.9419C35.6838 12.8605 35.6116 12.7701 35.422 12.7701C35.1602 12.7701 34.8983 12.7701 34.6365 12.7701C34.3386 12.7701 34.0406 12.7701 33.7336 12.7701C33.3815 12.7701 33.0294 12.7701 32.6773 12.7701C31.5758 12.7792 30.7812 13.5929 30.7722 14.6959C30.7632 16.034 30.7632 17.3449 30.7722 18.5926C30.7722 18.7825 30.8444 18.9452 30.9076 19.0989L30.9257 19.1351C31.016 19.3611 31.1153 19.5781 31.2146 19.8041C31.3862 20.1929 31.5577 20.5907 31.7022 20.9885C31.7563 21.1241 31.7744 21.2959 31.8015 21.4677C31.8105 21.5581 31.8286 21.6575 31.8466 21.7479L31.8827 21.974H36.1804V22.4712ZM38.573 14.94C37.607 14.94 36.668 15.2836 35.7922 15.9616C34.6546 16.8386 34.0587 18.0411 34.0225 19.551L34.0135 19.8312H43.2409L43.2228 19.5419C43.1145 17.6523 42.2748 16.2871 40.7038 15.4915C39.9905 15.1208 39.2773 14.94 38.573 14.94ZM38.6182 9.55151C37.2819 9.55151 36.1804 10.6455 36.1804 11.9836C36.1804 13.3126 37.2548 14.4156 38.5821 14.4247H38.6091C39.9454 14.4247 41.0379 13.3397 41.0469 12.0107C41.0559 11.3597 40.8031 10.7449 40.3427 10.2748C39.8822 9.8137 39.2773 9.55151 38.6272 9.55151H38.6182ZM24.8313 39.8844V39.36H25.373V39.8844H24.8313Z"/>
</mask>
<path d="M14.0149 42.009C14.0149 41.7107 14.0149 41.4123 14.0059 41.123C13.9968 40.3274 13.9788 39.5047 14.1232 38.7362C14.6469 35.8249 16.4256 33.9715 19.4141 33.2301C20.2176 33.0312 21.0122 32.8504 21.8518 32.6515C22.231 32.5611 22.6102 32.4797 22.9894 32.3893L23.1971 32.3441V32.1271C23.1971 32.0367 23.1971 31.9463 23.1971 31.8468C23.1971 31.6027 23.2061 31.3405 23.1881 31.0874C23.179 30.8885 23.0256 30.7077 22.8811 30.6263C21.5539 29.8488 20.7864 28.7458 20.5336 27.254C20.5065 27.0822 20.3982 26.9104 20.2176 26.7205C18.9717 25.4819 18.3396 23.9811 18.3396 22.2633C18.3396 20.7082 19.3509 19.343 20.8496 18.8638C21.0302 18.8096 21.2108 18.683 21.3462 18.5384C22.4838 17.2907 23.8743 16.6488 25.5987 16.5855C25.6981 16.5855 25.8064 16.5764 25.9057 16.5764C27.3955 16.5764 28.6324 16.9833 29.6888 17.806C29.761 17.8603 29.8422 17.8693 29.8784 17.8693C29.8874 17.8693 29.8964 17.8693 29.9145 17.8693L30.2215 17.9145C30.2215 17.9145 30.2215 17.1099 30.2215 16.8658C30.2215 16.2329 30.2215 15.5819 30.2215 14.94C30.2215 14.6597 30.2305 14.4337 30.2756 14.2167C30.4833 13.0956 31.4494 12.2729 32.578 12.2548C32.8849 12.2458 33.219 12.2458 33.6253 12.2458C33.9052 12.2458 34.1851 12.2458 34.474 12.2458C34.7629 12.2458 35.0518 12.2458 35.3498 12.2458H35.6026L35.6206 11.9926C35.6838 10.9167 36.0992 10.1121 36.9027 9.54247C37.4083 9.18082 37.9862 9 38.6091 9C38.6814 9 38.7536 9 38.8258 9.00904C40.3336 9.10849 41.3448 10.2025 41.6157 12.0197L41.6518 12.2548H41.8866C42.1213 12.2548 42.3561 12.2548 42.5908 12.2548C42.8256 12.2548 43.0603 12.2548 43.2951 12.2548C43.7194 12.2548 44.0625 12.2548 44.3695 12.2638C44.6223 12.2638 44.9112 12.2819 45.1821 12.3452C46.2204 12.5984 46.9788 13.5567 46.9968 14.6236C47.0149 16.5764 47.0149 18.3847 46.9968 20.1658C46.9878 21.4858 45.9314 22.5255 44.5952 22.5436C44.0173 22.5526 43.4395 22.5526 42.8707 22.5526C42.2116 22.5526 41.5435 22.5436 40.8844 22.5345H40.8573C40.5052 22.5345 40.2433 22.6611 40.0176 22.9504C39.5842 23.4929 39.1328 24.0263 38.6994 24.5507C38.5189 24.7586 38.3473 24.9756 38.1667 25.1836C37.8327 25.5814 37.4354 25.7984 37.0201 25.7984C36.8666 25.7984 36.7041 25.7712 36.5506 25.7079C35.8012 25.4367 35.6477 24.7677 35.6477 24.2614C35.6477 23.9359 35.6477 23.6195 35.6477 23.2849V22.5526H31.8827L31.8105 22.9685C31.7925 23.1041 31.7654 23.2307 31.7473 23.3663C31.5126 24.6682 30.9257 25.7803 29.9596 26.7477C29.8061 26.9014 29.6797 27.1364 29.6346 27.3715C29.3547 28.7819 28.6053 29.8578 27.3955 30.5721C27.1878 30.6986 26.944 30.8975 26.9801 31.3315C26.9982 31.5033 26.9892 31.6841 26.9892 31.8649C26.9892 31.9553 26.9892 32.0458 26.9892 32.1362V32.3532L31.3139 33.3748V32.0729C31.3139 31.3405 31.3139 30.6173 31.3139 29.894C31.3139 29.2159 31.5487 28.6373 32.0182 28.1581C32.4877 27.6789 33.0565 27.4348 33.6975 27.4348C35.6026 27.4348 37.6521 27.4258 39.6836 27.4258C41.4803 27.4258 43.0964 27.4258 44.6132 27.4348C45.9134 27.4438 46.9788 28.5107 46.9968 29.8216C47.0149 31.214 47.0149 32.6515 46.9968 34.2156C46.9878 35.5537 45.9134 36.6115 44.5681 36.6296C44.3695 36.6296 44.1799 36.6296 43.9812 36.6296C43.8187 36.6296 43.6472 36.6296 43.4847 36.6296C43.3131 36.6296 43.1325 36.6296 42.952 36.6296H42.6811V37.371C42.6811 37.7055 42.6811 38.04 42.6811 38.3745C42.6811 39.0888 42.3561 39.6041 41.7602 39.8121C41.6067 39.8663 41.4532 39.8934 41.2997 39.8934C40.8844 39.8934 40.4871 39.6855 40.1621 39.2967L39.6926 38.7362C39.196 38.1485 38.6904 37.5337 38.1848 36.937C38.0764 36.8104 37.8778 36.6658 37.6611 36.6567C37.4083 36.6477 37.1284 36.6477 36.7763 36.6477C36.6228 36.6477 36.4693 36.6477 36.3068 36.6477C36.1353 36.6477 35.9637 36.6477 35.7922 36.6477H35.3498L35.5484 37.0455C36.2256 38.3836 36.2075 39.7668 36.1894 41.2405C36.1894 41.5027 36.1804 41.774 36.1804 42.0362H14.0149V42.009ZM24.2806 40.246C24.3167 40.3364 24.3438 40.4268 24.3799 40.5082C24.4611 40.7433 24.5424 40.9603 24.6327 41.1773C24.7049 41.349 24.9126 41.4666 25.057 41.4847C25.0751 41.4847 25.0841 41.4847 25.1022 41.4847C25.2557 41.4847 25.4633 41.3762 25.5446 41.2044C25.6439 40.9693 25.7251 40.7433 25.8064 40.4992C25.8335 40.4178 25.8696 40.3274 25.8967 40.246L26.0321 39.8844H25.996C26.303 39.1882 26.5648 38.483 26.7996 37.814C26.8537 37.6512 26.7996 37.4614 26.7183 37.3529C26.3572 36.8647 26.005 36.3945 25.6258 35.8882L25.1022 35.1921L24.5604 35.9153C24.1903 36.4036 23.8472 36.8647 23.4951 37.3348C23.4319 37.4252 23.3325 37.6332 23.3957 37.823C23.6124 38.4288 23.8381 39.0436 24.0548 39.6403L24.1812 39.9929L24.2806 40.246ZM18.8633 41.4847H24.1541L21.1927 33.4381L20.976 33.4652C16.4526 34.0619 14.1232 36.8918 14.5837 41.2405L14.6108 41.4847H18.3487V38.2751H18.8633V41.4847ZM26.0321 41.4847H31.323V38.2841H31.8647V41.4847H35.6387V41.2134C35.6387 41.0416 35.6387 40.8608 35.6477 40.689C35.6567 40.3184 35.6567 39.9386 35.6387 39.5589C35.5303 37.7959 34.799 36.3041 33.4537 35.1288C32.271 34.089 30.7993 33.7816 29.3818 33.4833L29.0116 33.4019L26.0321 41.4847ZM38.0494 36.0781C38.1667 36.0781 38.2299 36.1052 38.3112 36.2047C38.7897 36.7923 39.2863 37.389 39.7648 37.9677C40.0267 38.2841 40.2885 38.6005 40.5503 38.917C40.7128 39.1068 40.9386 39.3329 41.2726 39.3329C41.3719 39.3329 41.4803 39.3148 41.5796 39.2696C42.1303 39.0526 42.1213 38.5282 42.1213 38.3293C42.1123 37.7416 42.1213 37.1449 42.1213 36.5663C42.1213 36.4126 42.1213 36.2499 42.1213 36.0962C42.4102 36.0962 42.7082 36.0962 42.9971 36.0962C43.4847 36.0962 43.9722 36.0962 44.4507 36.0962C45.6425 36.0871 46.437 35.2915 46.4461 34.1162C46.4461 32.6877 46.4461 31.2863 46.4461 29.9482C46.4461 28.791 45.6335 27.9773 44.4778 27.9773C42.6992 27.9773 40.9205 27.9773 39.1328 27.9773C37.3451 27.9773 35.5755 27.9773 33.7878 27.9773C32.6412 27.9773 31.8376 28.7819 31.8376 29.9301C31.8376 30.3731 31.8376 30.8162 31.8376 31.2592C31.8376 31.8649 31.8376 32.4978 31.8286 33.1126C31.8286 33.4381 31.955 33.637 32.2439 33.7636C33.237 34.2066 34.0767 34.8847 34.7448 35.7707C34.9164 36.0058 35.1331 36.1052 35.431 36.1052H35.4491C35.738 36.1052 36.0269 36.0962 36.3158 36.0962H37.0472C37.3271 36.0962 37.6702 36.0962 38.0132 36.0871L38.0494 36.0781ZM23.152 32.9318C23.1249 32.9318 23.1068 32.9318 23.0797 32.9408C22.8179 32.9951 22.5561 33.0584 22.2852 33.1307C22.1949 33.1578 22.0956 33.1759 22.0053 33.203L21.7074 33.2753L23.0707 36.9822L24.75 34.74L24.3708 34.2337C24.0909 33.863 23.8291 33.5104 23.5583 33.1578C23.486 33.0403 23.3235 32.9318 23.152 32.9318ZM27.0253 32.9318C26.8808 32.9318 26.7273 33.0041 26.637 33.1216C26.3481 33.5014 26.0592 33.8901 25.7793 34.2608L25.4272 34.74L27.1065 36.9822L28.4699 33.2753L28.1719 33.203C28.0816 33.1849 27.9914 33.1578 27.9011 33.1397C27.6302 33.0764 27.3684 33.0041 27.1065 32.9499C27.0795 32.9318 27.0524 32.9318 27.0253 32.9318ZM23.7659 31.431C23.7659 31.5123 23.7569 31.6027 23.7479 31.7112C23.7208 31.9734 23.6937 32.2718 23.8201 32.534C24.0187 32.9137 24.2896 33.2573 24.5514 33.5827C24.6598 33.7184 24.7681 33.854 24.8764 33.9986L25.0931 34.2879L25.3098 33.9986C25.4001 33.8811 25.4814 33.7545 25.5626 33.646C25.7251 33.411 25.8786 33.194 26.0502 33.0132C26.4745 32.5882 26.4565 32.1 26.4384 31.7112C26.4384 31.6208 26.4294 31.5304 26.4294 31.449L26.4384 31.1688H23.7569V31.431H23.7659ZM21.0302 25.8707C21.0302 26.16 21.0212 26.4493 21.0392 26.7477C21.1295 28.3299 21.906 29.5323 23.2693 30.2195C23.8833 30.5268 24.5063 30.6896 25.1202 30.6896C25.9328 30.6896 26.7183 30.4184 27.4677 29.8759C28.6414 29.0351 29.2012 27.7693 29.147 26.1329C29.1109 24.9666 28.3164 24.171 27.1788 24.1619C27.0163 24.1619 26.8447 24.1529 26.6822 24.1529C26.4926 24.1438 26.294 24.1438 26.0953 24.1438C25.8245 24.1438 25.5987 24.1529 25.3911 24.18C25.2286 24.1981 25.0661 24.2071 24.9126 24.2071C24.0548 24.2071 23.3325 23.9359 22.7186 23.3663C22.6825 23.3392 22.6554 23.3211 22.6373 23.3121C22.4297 23.1584 22.213 23.077 21.9963 23.077C21.8338 23.077 21.6712 23.1222 21.5178 23.2126C21.283 23.3482 21.0031 23.6195 21.0122 24.1619C21.0212 24.4693 21.0122 24.7767 21.0122 25.0841C21.0122 25.2197 21.0122 25.3463 21.0122 25.4819V25.7532C21.0392 25.7893 21.0392 25.8345 21.0302 25.8707ZM25.9148 17.1189C25.8245 17.1189 25.7432 17.1189 25.6529 17.1189C23.9916 17.1732 22.6193 17.8422 21.581 19.0989C21.5087 19.1803 21.3823 19.2616 21.2559 19.2978C19.9377 19.6595 19.1432 20.5093 18.9355 21.7479C18.7369 22.9775 19.0349 24.18 19.8474 25.4277C19.8836 25.491 19.9377 25.5271 19.9829 25.5723C20.0009 25.5904 20.019 25.6085 20.0461 25.6266L20.5065 26.0605V25.4277C20.5065 25.283 20.5065 25.1474 20.5065 25.0118C20.5065 24.7225 20.5065 24.4512 20.5065 24.18C20.4975 23.4929 20.7593 23.0137 21.3101 22.7153C21.5629 22.5797 21.8067 22.5074 22.0505 22.5074C22.3665 22.5074 22.6644 22.6249 22.9443 22.8419C23.6034 23.3753 24.3167 23.6375 25.1112 23.6375C25.2466 23.6375 25.3911 23.6285 25.5355 23.6104C25.68 23.5923 25.8425 23.5833 26.0412 23.5833C26.1856 23.5833 26.3301 23.5833 26.4745 23.5923C26.619 23.5923 26.7725 23.6014 26.926 23.6014C28.4338 23.6014 29.1741 24.1348 29.6707 25.5723L29.779 25.8978L30.068 25.717C30.077 25.7079 30.086 25.7079 30.0951 25.6989C30.1221 25.6808 30.1763 25.6537 30.2215 25.5995C31.5487 23.8093 31.9008 20.9071 29.9957 18.8096C28.9394 17.6795 27.6122 17.1189 25.9148 17.1189ZM36.1804 22.4712C36.1804 23.1041 36.1804 23.7008 36.1804 24.3066C36.1804 24.6953 36.3249 24.9756 36.6228 25.1384C36.7492 25.2107 36.8847 25.2468 37.0201 25.2468C37.2729 25.2468 37.5076 25.1112 37.7334 24.8581C38.4105 24.0534 39.2141 23.0951 40.0086 22.1277C40.0899 22.0282 40.1531 21.9921 40.2704 21.9921C41.0198 22.0011 41.8053 22.0011 42.6089 22.0011C43.2499 22.0011 43.9 22.0011 44.541 21.9921C45.6064 21.983 46.4461 21.1874 46.4551 20.1838C46.4732 18.3666 46.4732 16.486 46.4551 14.5964C46.4461 13.6381 45.6606 12.8334 44.7035 12.8063C44.3514 12.7973 43.9632 12.7882 43.5027 12.7882C43.1957 12.7882 42.8978 12.7882 42.5998 12.7882C42.32 12.7882 42.0401 12.7882 41.7692 12.7882H41.6338L40.3065 14.6507L40.6045 14.7863C43.6652 16.2148 43.8548 18.9904 43.7465 20.3375H33.4808C33.4357 19.3249 33.4989 18.1767 34.0948 17.1099C34.6726 16.0701 35.5303 15.2926 36.6319 14.7953L36.9388 14.6597L35.7199 12.9419C35.6838 12.8605 35.6116 12.7701 35.422 12.7701C35.1602 12.7701 34.8983 12.7701 34.6365 12.7701C34.3386 12.7701 34.0406 12.7701 33.7336 12.7701C33.3815 12.7701 33.0294 12.7701 32.6773 12.7701C31.5758 12.7792 30.7812 13.5929 30.7722 14.6959C30.7632 16.034 30.7632 17.3449 30.7722 18.5926C30.7722 18.7825 30.8444 18.9452 30.9076 19.0989L30.9257 19.1351C31.016 19.3611 31.1153 19.5781 31.2146 19.8041C31.3862 20.1929 31.5577 20.5907 31.7022 20.9885C31.7563 21.1241 31.7744 21.2959 31.8015 21.4677C31.8105 21.5581 31.8286 21.6575 31.8466 21.7479L31.8827 21.974H36.1804V22.4712ZM38.573 14.94C37.607 14.94 36.668 15.2836 35.7922 15.9616C34.6546 16.8386 34.0587 18.0411 34.0225 19.551L34.0135 19.8312H43.2409L43.2228 19.5419C43.1145 17.6523 42.2748 16.2871 40.7038 15.4915C39.9905 15.1208 39.2773 14.94 38.573 14.94ZM38.6182 9.55151C37.2819 9.55151 36.1804 10.6455 36.1804 11.9836C36.1804 13.3126 37.2548 14.4156 38.5821 14.4247H38.6091C39.9454 14.4247 41.0379 13.3397 41.0469 12.0107C41.0559 11.3597 40.8031 10.7449 40.3427 10.2748C39.8822 9.8137 39.2773 9.55151 38.6272 9.55151H38.6182ZM24.8313 39.8844V39.36H25.373V39.8844H24.8313Z" fill="white"/>
<path d="M14.0149 42.009C14.0149 41.7107 14.0149 41.4123 14.0059 41.123C13.9968 40.3274 13.9788 39.5047 14.1232 38.7362C14.6469 35.8249 16.4256 33.9715 19.4141 33.2301C20.2176 33.0312 21.0122 32.8504 21.8518 32.6515C22.231 32.5611 22.6102 32.4797 22.9894 32.3893L23.1971 32.3441V32.1271C23.1971 32.0367 23.1971 31.9463 23.1971 31.8468C23.1971 31.6027 23.2061 31.3405 23.1881 31.0874C23.179 30.8885 23.0256 30.7077 22.8811 30.6263C21.5539 29.8488 20.7864 28.7458 20.5336 27.254C20.5065 27.0822 20.3982 26.9104 20.2176 26.7205C18.9717 25.4819 18.3396 23.9811 18.3396 22.2633C18.3396 20.7082 19.3509 19.343 20.8496 18.8638C21.0302 18.8096 21.2108 18.683 21.3462 18.5384C22.4838 17.2907 23.8743 16.6488 25.5987 16.5855C25.6981 16.5855 25.8064 16.5764 25.9057 16.5764C27.3955 16.5764 28.6324 16.9833 29.6888 17.806C29.761 17.8603 29.8422 17.8693 29.8784 17.8693C29.8874 17.8693 29.8964 17.8693 29.9145 17.8693L30.2215 17.9145C30.2215 17.9145 30.2215 17.1099 30.2215 16.8658C30.2215 16.2329 30.2215 15.5819 30.2215 14.94C30.2215 14.6597 30.2305 14.4337 30.2756 14.2167C30.4833 13.0956 31.4494 12.2729 32.578 12.2548C32.8849 12.2458 33.219 12.2458 33.6253 12.2458C33.9052 12.2458 34.1851 12.2458 34.474 12.2458C34.7629 12.2458 35.0518 12.2458 35.3498 12.2458H35.6026L35.6206 11.9926C35.6838 10.9167 36.0992 10.1121 36.9027 9.54247C37.4083 9.18082 37.9862 9 38.6091 9C38.6814 9 38.7536 9 38.8258 9.00904C40.3336 9.10849 41.3448 10.2025 41.6157 12.0197L41.6518 12.2548H41.8866C42.1213 12.2548 42.3561 12.2548 42.5908 12.2548C42.8256 12.2548 43.0603 12.2548 43.2951 12.2548C43.7194 12.2548 44.0625 12.2548 44.3695 12.2638C44.6223 12.2638 44.9112 12.2819 45.1821 12.3452C46.2204 12.5984 46.9788 13.5567 46.9968 14.6236C47.0149 16.5764 47.0149 18.3847 46.9968 20.1658C46.9878 21.4858 45.9314 22.5255 44.5952 22.5436C44.0173 22.5526 43.4395 22.5526 42.8707 22.5526C42.2116 22.5526 41.5435 22.5436 40.8844 22.5345H40.8573C40.5052 22.5345 40.2433 22.6611 40.0176 22.9504C39.5842 23.4929 39.1328 24.0263 38.6994 24.5507C38.5189 24.7586 38.3473 24.9756 38.1667 25.1836C37.8327 25.5814 37.4354 25.7984 37.0201 25.7984C36.8666 25.7984 36.7041 25.7712 36.5506 25.7079C35.8012 25.4367 35.6477 24.7677 35.6477 24.2614C35.6477 23.9359 35.6477 23.6195 35.6477 23.2849V22.5526H31.8827L31.8105 22.9685C31.7925 23.1041 31.7654 23.2307 31.7473 23.3663C31.5126 24.6682 30.9257 25.7803 29.9596 26.7477C29.8061 26.9014 29.6797 27.1364 29.6346 27.3715C29.3547 28.7819 28.6053 29.8578 27.3955 30.5721C27.1878 30.6986 26.944 30.8975 26.9801 31.3315C26.9982 31.5033 26.9892 31.6841 26.9892 31.8649C26.9892 31.9553 26.9892 32.0458 26.9892 32.1362V32.3532L31.3139 33.3748V32.0729C31.3139 31.3405 31.3139 30.6173 31.3139 29.894C31.3139 29.2159 31.5487 28.6373 32.0182 28.1581C32.4877 27.6789 33.0565 27.4348 33.6975 27.4348C35.6026 27.4348 37.6521 27.4258 39.6836 27.4258C41.4803 27.4258 43.0964 27.4258 44.6132 27.4348C45.9134 27.4438 46.9788 28.5107 46.9968 29.8216C47.0149 31.214 47.0149 32.6515 46.9968 34.2156C46.9878 35.5537 45.9134 36.6115 44.5681 36.6296C44.3695 36.6296 44.1799 36.6296 43.9812 36.6296C43.8187 36.6296 43.6472 36.6296 43.4847 36.6296C43.3131 36.6296 43.1325 36.6296 42.952 36.6296H42.6811V37.371C42.6811 37.7055 42.6811 38.04 42.6811 38.3745C42.6811 39.0888 42.3561 39.6041 41.7602 39.8121C41.6067 39.8663 41.4532 39.8934 41.2997 39.8934C40.8844 39.8934 40.4871 39.6855 40.1621 39.2967L39.6926 38.7362C39.196 38.1485 38.6904 37.5337 38.1848 36.937C38.0764 36.8104 37.8778 36.6658 37.6611 36.6567C37.4083 36.6477 37.1284 36.6477 36.7763 36.6477C36.6228 36.6477 36.4693 36.6477 36.3068 36.6477C36.1353 36.6477 35.9637 36.6477 35.7922 36.6477H35.3498L35.5484 37.0455C36.2256 38.3836 36.2075 39.7668 36.1894 41.2405C36.1894 41.5027 36.1804 41.774 36.1804 42.0362H14.0149V42.009ZM24.2806 40.246C24.3167 40.3364 24.3438 40.4268 24.3799 40.5082C24.4611 40.7433 24.5424 40.9603 24.6327 41.1773C24.7049 41.349 24.9126 41.4666 25.057 41.4847C25.0751 41.4847 25.0841 41.4847 25.1022 41.4847C25.2557 41.4847 25.4633 41.3762 25.5446 41.2044C25.6439 40.9693 25.7251 40.7433 25.8064 40.4992C25.8335 40.4178 25.8696 40.3274 25.8967 40.246L26.0321 39.8844H25.996C26.303 39.1882 26.5648 38.483 26.7996 37.814C26.8537 37.6512 26.7996 37.4614 26.7183 37.3529C26.3572 36.8647 26.005 36.3945 25.6258 35.8882L25.1022 35.1921L24.5604 35.9153C24.1903 36.4036 23.8472 36.8647 23.4951 37.3348C23.4319 37.4252 23.3325 37.6332 23.3957 37.823C23.6124 38.4288 23.8381 39.0436 24.0548 39.6403L24.1812 39.9929L24.2806 40.246ZM18.8633 41.4847H24.1541L21.1927 33.4381L20.976 33.4652C16.4526 34.0619 14.1232 36.8918 14.5837 41.2405L14.6108 41.4847H18.3487V38.2751H18.8633V41.4847ZM26.0321 41.4847H31.323V38.2841H31.8647V41.4847H35.6387V41.2134C35.6387 41.0416 35.6387 40.8608 35.6477 40.689C35.6567 40.3184 35.6567 39.9386 35.6387 39.5589C35.5303 37.7959 34.799 36.3041 33.4537 35.1288C32.271 34.089 30.7993 33.7816 29.3818 33.4833L29.0116 33.4019L26.0321 41.4847ZM38.0494 36.0781C38.1667 36.0781 38.2299 36.1052 38.3112 36.2047C38.7897 36.7923 39.2863 37.389 39.7648 37.9677C40.0267 38.2841 40.2885 38.6005 40.5503 38.917C40.7128 39.1068 40.9386 39.3329 41.2726 39.3329C41.3719 39.3329 41.4803 39.3148 41.5796 39.2696C42.1303 39.0526 42.1213 38.5282 42.1213 38.3293C42.1123 37.7416 42.1213 37.1449 42.1213 36.5663C42.1213 36.4126 42.1213 36.2499 42.1213 36.0962C42.4102 36.0962 42.7082 36.0962 42.9971 36.0962C43.4847 36.0962 43.9722 36.0962 44.4507 36.0962C45.6425 36.0871 46.437 35.2915 46.4461 34.1162C46.4461 32.6877 46.4461 31.2863 46.4461 29.9482C46.4461 28.791 45.6335 27.9773 44.4778 27.9773C42.6992 27.9773 40.9205 27.9773 39.1328 27.9773C37.3451 27.9773 35.5755 27.9773 33.7878 27.9773C32.6412 27.9773 31.8376 28.7819 31.8376 29.9301C31.8376 30.3731 31.8376 30.8162 31.8376 31.2592C31.8376 31.8649 31.8376 32.4978 31.8286 33.1126C31.8286 33.4381 31.955 33.637 32.2439 33.7636C33.237 34.2066 34.0767 34.8847 34.7448 35.7707C34.9164 36.0058 35.1331 36.1052 35.431 36.1052H35.4491C35.738 36.1052 36.0269 36.0962 36.3158 36.0962H37.0472C37.3271 36.0962 37.6702 36.0962 38.0132 36.0871L38.0494 36.0781ZM23.152 32.9318C23.1249 32.9318 23.1068 32.9318 23.0797 32.9408C22.8179 32.9951 22.5561 33.0584 22.2852 33.1307C22.1949 33.1578 22.0956 33.1759 22.0053 33.203L21.7074 33.2753L23.0707 36.9822L24.75 34.74L24.3708 34.2337C24.0909 33.863 23.8291 33.5104 23.5583 33.1578C23.486 33.0403 23.3235 32.9318 23.152 32.9318ZM27.0253 32.9318C26.8808 32.9318 26.7273 33.0041 26.637 33.1216C26.3481 33.5014 26.0592 33.8901 25.7793 34.2608L25.4272 34.74L27.1065 36.9822L28.4699 33.2753L28.1719 33.203C28.0816 33.1849 27.9914 33.1578 27.9011 33.1397C27.6302 33.0764 27.3684 33.0041 27.1065 32.9499C27.0795 32.9318 27.0524 32.9318 27.0253 32.9318ZM23.7659 31.431C23.7659 31.5123 23.7569 31.6027 23.7479 31.7112C23.7208 31.9734 23.6937 32.2718 23.8201 32.534C24.0187 32.9137 24.2896 33.2573 24.5514 33.5827C24.6598 33.7184 24.7681 33.854 24.8764 33.9986L25.0931 34.2879L25.3098 33.9986C25.4001 33.8811 25.4814 33.7545 25.5626 33.646C25.7251 33.411 25.8786 33.194 26.0502 33.0132C26.4745 32.5882 26.4565 32.1 26.4384 31.7112C26.4384 31.6208 26.4294 31.5304 26.4294 31.449L26.4384 31.1688H23.7569V31.431H23.7659ZM21.0302 25.8707C21.0302 26.16 21.0212 26.4493 21.0392 26.7477C21.1295 28.3299 21.906 29.5323 23.2693 30.2195C23.8833 30.5268 24.5063 30.6896 25.1202 30.6896C25.9328 30.6896 26.7183 30.4184 27.4677 29.8759C28.6414 29.0351 29.2012 27.7693 29.147 26.1329C29.1109 24.9666 28.3164 24.171 27.1788 24.1619C27.0163 24.1619 26.8447 24.1529 26.6822 24.1529C26.4926 24.1438 26.294 24.1438 26.0953 24.1438C25.8245 24.1438 25.5987 24.1529 25.3911 24.18C25.2286 24.1981 25.0661 24.2071 24.9126 24.2071C24.0548 24.2071 23.3325 23.9359 22.7186 23.3663C22.6825 23.3392 22.6554 23.3211 22.6373 23.3121C22.4297 23.1584 22.213 23.077 21.9963 23.077C21.8338 23.077 21.6712 23.1222 21.5178 23.2126C21.283 23.3482 21.0031 23.6195 21.0122 24.1619C21.0212 24.4693 21.0122 24.7767 21.0122 25.0841C21.0122 25.2197 21.0122 25.3463 21.0122 25.4819V25.7532C21.0392 25.7893 21.0392 25.8345 21.0302 25.8707ZM25.9148 17.1189C25.8245 17.1189 25.7432 17.1189 25.6529 17.1189C23.9916 17.1732 22.6193 17.8422 21.581 19.0989C21.5087 19.1803 21.3823 19.2616 21.2559 19.2978C19.9377 19.6595 19.1432 20.5093 18.9355 21.7479C18.7369 22.9775 19.0349 24.18 19.8474 25.4277C19.8836 25.491 19.9377 25.5271 19.9829 25.5723C20.0009 25.5904 20.019 25.6085 20.0461 25.6266L20.5065 26.0605V25.4277C20.5065 25.283 20.5065 25.1474 20.5065 25.0118C20.5065 24.7225 20.5065 24.4512 20.5065 24.18C20.4975 23.4929 20.7593 23.0137 21.3101 22.7153C21.5629 22.5797 21.8067 22.5074 22.0505 22.5074C22.3665 22.5074 22.6644 22.6249 22.9443 22.8419C23.6034 23.3753 24.3167 23.6375 25.1112 23.6375C25.2466 23.6375 25.3911 23.6285 25.5355 23.6104C25.68 23.5923 25.8425 23.5833 26.0412 23.5833C26.1856 23.5833 26.3301 23.5833 26.4745 23.5923C26.619 23.5923 26.7725 23.6014 26.926 23.6014C28.4338 23.6014 29.1741 24.1348 29.6707 25.5723L29.779 25.8978L30.068 25.717C30.077 25.7079 30.086 25.7079 30.0951 25.6989C30.1221 25.6808 30.1763 25.6537 30.2215 25.5995C31.5487 23.8093 31.9008 20.9071 29.9957 18.8096C28.9394 17.6795 27.6122 17.1189 25.9148 17.1189ZM36.1804 22.4712C36.1804 23.1041 36.1804 23.7008 36.1804 24.3066C36.1804 24.6953 36.3249 24.9756 36.6228 25.1384C36.7492 25.2107 36.8847 25.2468 37.0201 25.2468C37.2729 25.2468 37.5076 25.1112 37.7334 24.8581C38.4105 24.0534 39.2141 23.0951 40.0086 22.1277C40.0899 22.0282 40.1531 21.9921 40.2704 21.9921C41.0198 22.0011 41.8053 22.0011 42.6089 22.0011C43.2499 22.0011 43.9 22.0011 44.541 21.9921C45.6064 21.983 46.4461 21.1874 46.4551 20.1838C46.4732 18.3666 46.4732 16.486 46.4551 14.5964C46.4461 13.6381 45.6606 12.8334 44.7035 12.8063C44.3514 12.7973 43.9632 12.7882 43.5027 12.7882C43.1957 12.7882 42.8978 12.7882 42.5998 12.7882C42.32 12.7882 42.0401 12.7882 41.7692 12.7882H41.6338L40.3065 14.6507L40.6045 14.7863C43.6652 16.2148 43.8548 18.9904 43.7465 20.3375H33.4808C33.4357 19.3249 33.4989 18.1767 34.0948 17.1099C34.6726 16.0701 35.5303 15.2926 36.6319 14.7953L36.9388 14.6597L35.7199 12.9419C35.6838 12.8605 35.6116 12.7701 35.422 12.7701C35.1602 12.7701 34.8983 12.7701 34.6365 12.7701C34.3386 12.7701 34.0406 12.7701 33.7336 12.7701C33.3815 12.7701 33.0294 12.7701 32.6773 12.7701C31.5758 12.7792 30.7812 13.5929 30.7722 14.6959C30.7632 16.034 30.7632 17.3449 30.7722 18.5926C30.7722 18.7825 30.8444 18.9452 30.9076 19.0989L30.9257 19.1351C31.016 19.3611 31.1153 19.5781 31.2146 19.8041C31.3862 20.1929 31.5577 20.5907 31.7022 20.9885C31.7563 21.1241 31.7744 21.2959 31.8015 21.4677C31.8105 21.5581 31.8286 21.6575 31.8466 21.7479L31.8827 21.974H36.1804V22.4712ZM38.573 14.94C37.607 14.94 36.668 15.2836 35.7922 15.9616C34.6546 16.8386 34.0587 18.0411 34.0225 19.551L34.0135 19.8312H43.2409L43.2228 19.5419C43.1145 17.6523 42.2748 16.2871 40.7038 15.4915C39.9905 15.1208 39.2773 14.94 38.573 14.94ZM38.6182 9.55151C37.2819 9.55151 36.1804 10.6455 36.1804 11.9836C36.1804 13.3126 37.2548 14.4156 38.5821 14.4247H38.6091C39.9454 14.4247 41.0379 13.3397 41.0469 12.0107C41.0559 11.3597 40.8031 10.7449 40.3427 10.2748C39.8822 9.8137 39.2773 9.55151 38.6272 9.55151H38.6182ZM24.8313 39.8844V39.36H25.373V39.8844H24.8313Z" stroke="white" stroke-width="0.4" mask="url(#path-2-outside-1_0_1102)"/>
<path d="M36.4216 25V24.9H36.3216H24.9996H24.8996V25V25.4973V25.5973H24.9996H36.3216H36.4216V25.4973V25Z" fill="white" stroke="white" stroke-width="0.2"/>
<path d="M36.4216 25V24.9H36.3216H24.9996H24.8996V25V25.4973V25.5973H24.9996H36.3216H36.4216V25.4973V25Z" fill="white" stroke="white" stroke-width="0.2"/>
<path d="M34.088 25V24.9H33.988H26.9998H26.8998V25V25.4973V25.5973H26.9998H33.988H34.088V25.4973V25Z" fill="white" stroke="white" stroke-width="0.2"/>
<path d="M30.5967 25V24.9H30.4967H30.0001H29.9001V25V25.5063V25.6063H30.0001H30.4967H30.5967V25.5063V25Z" fill="white" stroke="white" stroke-width="0.2"/>
<path d="M30.5971 25V24.9H30.4971H30.0005H29.9005V25V25.5063V25.6063H30.0005H30.4971H30.5971V25.5063V25Z" fill="white" stroke="white" stroke-width="0.2"/>
<path d="M60.7594 25.4529C60.7594 41.955 47.3818 55.3326 30.8797 55.3326C14.3776 55.3326 1 41.955 1 25.4529" stroke="#A87E33" stroke-opacity="0.25" stroke-width="0.6" stroke-dasharray="3 3"/>
</svg>
