<svg width="16" height="12" viewBox="0 0 16 12" fill="none" xmlns="http://www.w3.org/2000/svg">
<path d="M14.4225 3.01754V1.50877L8 5.26316L1.57746 1.50877V3.01754L8 6.73684L14.4225 3.01754ZM14.4225 0C14.8482 0 15.2113 0.152047 15.5117 0.45614C15.8372 0.760234 16 1.11111 16 1.50877V10.4912C16 10.8889 15.8372 11.2398 15.5117 11.5439C15.2113 11.848 14.8482 12 14.4225 12H1.57746C1.1518 12 0.776213 11.848 0.450704 11.5439C0.150235 11.2398 0 10.8889 0 10.4912V1.50877C0 1.11111 0.150235 0.760234 0.450704 0.45614C0.776213 0.152047 1.1518 0 1.57746 0H14.4225Z" fill="#105F43"/>
</svg>
