<?xml version="1.0" encoding="utf-8"?>
<!-- Generator: Adobe Illustrator 24.3.0, SVG Export Plug-In . SVG Version: 6.00 Build 0)  -->
<svg version="1.1" id="Layer_1" xmlns="http://www.w3.org/2000/svg" xmlns:xlink="http://www.w3.org/1999/xlink" x="0px" y="0px"
	 viewBox="0 0 40 36" style="enable-background:new 0 0 40 36;" xml:space="preserve">
<style type="text/css">
	.st0{fill:#21A366;}
	.st1{fill:#185C37;}
	.st2{fill:#107C42;}
	.st3{fill:#3FA071;}
	.st4{fill:#33C481;}
	.st5{opacity:5.000000e-02;enable-background:new    ;}
	.st6{opacity:7.000000e-02;enable-background:new    ;}
	.st7{opacity:9.000000e-02;enable-background:new    ;}
	.st8{fill:url(#SVGID_1_);}
	.st9{fill:#FFFFFF;}
</style>
<g>
	<rect x="24" y="9" class="st0" width="16" height="9"/>
	<path class="st1" d="M40,18H8v16c0,1.1,0.9,2,2,2h28c1.1,0,2-0.9,2-2V18z"/>
	<rect x="24" y="18" class="st2" width="16" height="9"/>
	<rect x="8" y="9" class="st3" width="16" height="9"/>
	<path class="st4" d="M38,0H24v9h16V2C40,0.9,39.1,0,38,0z"/>
	<path class="st0" d="M10,0h14v9H8V2C8,0.9,8.9,0,10,0z"/>
	<path class="st5" d="M18.3,7H8v24h10.3c2,0,3.7-1.6,3.7-3.7V10.7C22,8.6,20.4,7,18.3,7z"/>
	<path class="st6" d="M18.2,30H8V7.3h10.2c1.7,0,3.1,1.4,3.1,3.1v16.4C21.3,28.6,19.9,30,18.2,30z"/>
	<path class="st7" d="M18.1,29H8V7.7h10.1c1.4,0,2.6,1.1,2.6,2.6v16.2C20.7,27.9,19.5,29,18.1,29z"/>
	
		<linearGradient id="SVGID_1_" gradientUnits="userSpaceOnUse" x1="0.725" y1="29.275" x2="19.055" y2="10.945" gradientTransform="matrix(1 0 0 -1 0 38)">
		<stop  offset="0" style="stop-color:#18884F"/>
		<stop  offset="1" style="stop-color:#0B6731"/>
	</linearGradient>
	<path class="st8" d="M18,28H2c-1.1,0-2-0.9-2-2V10c0-1.1,0.9-2,2-2h16c1.1,0,2,0.9,2,2v16C20,27.1,19.1,28,18,28z"/>
	<path class="st9" d="M5.8,13h2.4l1.9,3.8l2-3.8h2.2l-3.1,5l3.1,5h-2.4L10,19.1L7.9,23H5.5l3.2-5L5.8,13z"/>
</g>
</svg>
