<svg width="66" height="60" viewBox="0 0 66 60" fill="none" xmlns="http://www.w3.org/2000/svg">
<circle cx="32.9577" cy="26.9577" r="26.9577" fill="#105F43"/>
<path d="M64.84 27.1912C64.84 44.8201 50.5489 59.1111 32.92 59.1111C15.2911 59.1111 1 44.8201 1 27.1912" stroke="#105F43" stroke-opacity="0.25" stroke-width="0.6" stroke-dasharray="3 3"/>
<path d="M33.6155 28.3808V28.1041C33.6155 27.9134 33.6155 27.7228 33.6155 27.5321C33.6155 27.1665 33.3823 26.8916 33.0213 26.8305L32.901 26.8102L32.8982 26.8296C32.8964 26.8454 32.8945 26.8602 32.8927 26.8759C32.889 26.9083 32.8853 26.9379 32.8797 26.9685C32.8575 27.099 32.7946 27.2026 32.6918 27.2748C32.6428 27.31 32.627 27.3498 32.64 27.4081L32.6437 27.422H32.814C32.8603 27.422 32.8936 27.422 32.9038 27.4322C32.914 27.4423 32.914 27.4757 32.914 27.521V27.695C32.914 27.8496 32.914 28.0041 32.914 28.1587C32.914 28.2078 32.9047 28.217 32.8566 28.217C32.7159 28.217 32.5752 28.217 32.4336 28.217H32.0106C31.9616 28.217 31.9523 28.2078 31.9523 28.1596C31.9523 27.9329 31.9523 27.707 31.9523 27.4803C31.9523 27.4312 31.9606 27.422 32.0097 27.422C32.0356 27.422 32.0615 27.422 32.0874 27.422H32.23V27.4035C32.23 27.3988 32.23 27.3942 32.23 27.3905C32.23 27.384 32.23 27.3785 32.23 27.3748C32.2374 27.3276 32.2115 27.3026 32.1856 27.2841C32.0643 27.198 31.9949 27.0777 31.9801 26.9259C31.9782 26.9046 31.9755 26.8833 31.9727 26.8629C31.9718 26.8537 31.9699 26.8435 31.969 26.8342L31.9671 26.8167L31.9495 26.8176C31.5988 26.837 31.3368 27.0499 31.2665 27.3729C31.2572 27.4173 31.2517 27.4664 31.2517 27.5247C31.2489 27.733 31.2498 27.944 31.2498 28.1476C31.2498 28.2179 31.2498 28.3808 31.2498 28.3808H31.1758V28.105C31.1758 27.9134 31.1758 27.7218 31.1758 27.5293C31.1758 27.1276 31.4433 26.8167 31.8403 26.7556C31.8968 26.7472 31.9523 26.7371 32.0116 26.726C32.0393 26.7204 32.068 26.7158 32.0976 26.7102L32.1411 26.7028L32.106 26.6769C31.969 26.5779 31.8848 26.452 31.8533 26.3002L31.8514 26.29L31.8412 26.2863C31.8264 26.2817 31.8126 26.2771 31.7977 26.2734C31.77 26.265 31.7431 26.2576 31.72 26.2456C31.6709 26.2188 31.6376 26.1743 31.6247 26.1207C31.6117 26.0651 31.6228 26.0059 31.6552 25.9568C31.6663 25.9402 31.6737 25.917 31.6737 25.8967C31.6747 25.8189 31.6747 25.7403 31.6747 25.6634C31.6747 25.6162 31.6747 25.569 31.6747 25.5227C31.6756 25.2219 31.9134 24.985 32.2152 24.9832C32.2735 24.9832 32.3309 24.9832 32.3892 24.9832C32.4558 24.9832 32.5225 24.9832 32.5891 24.9832C32.7455 24.9832 32.8649 25.0748 32.9066 25.2275C32.9112 25.2451 32.9297 25.2627 32.9464 25.2673C33.0981 25.3089 33.1898 25.4274 33.1898 25.5848C33.1898 25.6264 33.1898 25.6681 33.1898 25.7097C33.1898 25.7717 33.1898 25.8365 33.1898 25.9004C33.1898 25.9096 33.1916 25.9337 33.2037 25.9522C33.249 26.0207 33.2564 26.0975 33.224 26.1632C33.1916 26.2299 33.1259 26.2706 33.0445 26.2771C33.0408 26.2771 33.038 26.278 33.0334 26.2789C33.0315 26.2789 33.0297 26.2798 33.0278 26.2798L33.0148 26.2817L33.0121 26.2947C32.9797 26.4538 32.8964 26.5788 32.7585 26.6778L32.7233 26.7028L32.7659 26.7102C32.8029 26.7167 32.8381 26.7232 32.8742 26.7297C32.951 26.7435 33.0232 26.7556 33.0954 26.7713C33.4026 26.8361 33.6498 27.111 33.6812 27.4238C33.6849 27.4627 33.6868 27.4997 33.6868 27.5358C33.6868 27.7441 33.6868 27.9569 33.6868 28.1615V28.3808H33.6155ZM32.0282 28.1402H32.8371V27.4979H32.0282V28.1402ZM32.3031 27.4201H32.5604V27.2767H32.3031V27.4201ZM32.5928 27.2008C32.6039 27.2008 32.6067 27.2017 32.6076 27.2026C32.6178 27.21 32.628 27.2128 32.6381 27.2128C32.6567 27.2128 32.6705 27.2008 32.6807 27.1906C32.7983 27.0823 32.8186 26.9379 32.8223 26.8111L32.8233 26.7945L32.7492 26.7843L32.7446 26.7982C32.6863 26.962 32.5863 27.0471 32.4456 27.0518C32.441 27.0518 32.4373 27.0518 32.4327 27.0518C32.2892 27.0518 32.1985 26.9777 32.1208 26.7972L32.1152 26.7843L32.0402 26.7945L32.0421 26.812C32.043 26.8204 32.0439 26.8278 32.0439 26.8352C32.0458 26.85 32.0467 26.8639 32.0476 26.8777C32.056 27.0027 32.0958 27.0999 32.1689 27.1739L32.1735 27.1786C32.1883 27.1934 32.205 27.2109 32.2291 27.2109C32.2411 27.2109 32.2531 27.2072 32.2652 27.1989C32.2652 27.1989 32.2661 27.1989 32.267 27.1989C32.2689 27.1989 32.2716 27.1989 32.2735 27.1989C32.2763 27.1989 32.28 27.1989 32.2827 27.1989C32.2827 27.1989 32.3864 27.1989 32.428 27.1989C32.479 27.1989 32.5289 27.1989 32.5798 27.1989L32.5928 27.2008ZM32.1967 26.7547C32.2022 26.8805 32.3068 26.9796 32.4336 26.9796C32.4392 26.9796 32.4447 26.9796 32.4512 26.9786C32.5141 26.974 32.5771 26.9407 32.6196 26.8889C32.6548 26.8463 32.6715 26.7982 32.6659 26.7528L32.6631 26.7297L32.6409 26.738C32.5715 26.763 32.5021 26.7759 32.4327 26.7759C32.3623 26.7759 32.292 26.763 32.2216 26.7361L32.1957 26.726L32.1967 26.7547ZM31.9208 25.9069C31.9208 25.9448 31.9199 25.9827 31.919 26.0188C31.9171 26.1021 31.9144 26.1799 31.9236 26.2595C31.9505 26.5075 32.1744 26.701 32.4327 26.701C32.6918 26.701 32.9149 26.5075 32.9427 26.2604C32.9519 26.1743 32.951 26.0864 32.951 26.0013C32.951 25.9652 32.9501 25.9281 32.951 25.892C32.951 25.8809 32.9464 25.8652 32.9362 25.8569C32.8723 25.8023 32.8066 25.7486 32.7437 25.6958L32.6891 25.6505L32.6779 25.656C32.677 25.657 32.6761 25.657 32.6752 25.657C32.6724 25.6579 32.6687 25.6597 32.665 25.6653C32.6613 25.6708 32.6585 25.6755 32.6557 25.681C32.5909 25.7995 32.491 25.868 32.3605 25.8846C32.3346 25.8883 32.3077 25.8883 32.2874 25.8883C32.2763 25.8883 32.2661 25.8883 32.255 25.8883C32.2439 25.8883 32.2337 25.8883 32.2226 25.8883H32.217C32.1781 25.8883 32.1402 25.8883 32.1023 25.8883H31.9218V25.9069H31.9208ZM33.0509 25.9476C33.0482 25.9476 33.0454 25.9476 33.0417 25.9476L33.025 25.9485V26.2021L33.0454 26.2002C33.0852 26.1965 33.1204 26.1799 33.1435 26.1521C33.1648 26.1271 33.175 26.0938 33.1713 26.0596C33.1648 25.9976 33.112 25.9476 33.0509 25.9476ZM31.8209 25.9457C31.7468 25.9485 31.6922 26.004 31.6941 26.0753C31.695 26.1456 31.7505 26.1993 31.8218 26.2002H31.8403V25.9457H31.8209ZM32.3864 25.0572C32.3272 25.0572 32.2679 25.0572 32.2087 25.0572C31.9523 25.059 31.7505 25.2617 31.7487 25.52C31.7487 25.5986 31.7487 25.6792 31.7487 25.7569V25.8282C31.7487 25.8356 31.7496 25.843 31.7496 25.8495C31.7496 25.8532 31.7505 25.8559 31.7505 25.8596L31.7515 25.88L31.8366 25.8661L31.8394 25.8541C31.8459 25.8254 31.8598 25.8152 31.8912 25.8152C31.9579 25.8152 32.0264 25.8161 32.1041 25.8161C32.1717 25.8161 32.2402 25.8161 32.3077 25.8161C32.4595 25.8161 32.5743 25.7282 32.6159 25.5811C32.6215 25.5616 32.6317 25.5394 32.6511 25.5394C32.6622 25.5394 32.6761 25.5459 32.6918 25.5588L32.7076 25.5718C32.801 25.6495 32.8973 25.7291 32.9917 25.8097C33.0019 25.8189 33.0111 25.83 33.0222 25.843C33.0278 25.8504 33.0343 25.8578 33.0408 25.8652L33.0454 25.8708L33.1167 25.8809C33.1167 25.8809 33.1167 25.8023 33.1167 25.7736C33.1167 25.7088 33.1167 25.6477 33.1167 25.5848C33.1157 25.4459 33.0222 25.3469 32.8843 25.3367C32.851 25.3349 32.8418 25.3247 32.8399 25.2914C32.8307 25.1553 32.7298 25.0609 32.5946 25.06C32.5243 25.0572 32.4549 25.0572 32.3864 25.0572Z" fill="white"/>
<path d="M31.6915 27.7014H31.6221V28.3808H31.6915V27.7014Z" fill="white"/>
<path d="M33.2432 27.7014H33.1738V28.3817H33.2432V27.7014Z" fill="white"/>
<path d="M32.4322 27.9957C32.3776 27.9957 32.3239 27.9957 32.2702 27.9947C32.2424 27.9947 32.2304 27.9809 32.2295 27.9512C32.2295 27.9022 32.2295 27.8541 32.2295 27.8022C32.2295 27.7809 32.2295 27.7208 32.2295 27.7208L32.1758 27.718V27.6467H32.6895V27.7171H32.6358V27.9133C32.6358 27.9179 32.6358 27.9216 32.6358 27.9262C32.6358 27.9364 32.6358 27.9457 32.6358 27.954C32.6349 27.9818 32.6219 27.9947 32.5951 27.9947C32.5414 27.9947 32.4868 27.9957 32.4322 27.9957ZM32.3063 27.9188H32.5599V27.7189H32.3063V27.9188Z" fill="white"/>
<path d="M26.8274 43.3739C26.7269 43.3739 26.6355 43.3283 26.5441 43.246C26.3797 43.0907 26.3523 42.9263 26.4528 42.7436C26.5167 42.6339 26.6172 42.5243 26.7269 42.4147C27.4121 41.7295 28.0973 41.0351 28.7825 40.3499C30.1163 39.0069 31.4959 37.6274 32.848 36.257C33.0855 36.0194 33.3322 35.9007 33.6611 35.8824C36.2009 35.7179 38.4484 34.6856 40.3304 32.8035L40.9425 32.1914C42.9707 30.1724 45.0629 28.0802 47.1094 26.0063C47.3835 25.7322 47.6027 25.3303 47.6941 24.9465C47.8403 24.3344 47.5205 23.6949 46.9084 23.366C46.68 23.2381 46.4242 23.1742 46.1684 23.1742C45.8029 23.1742 45.4466 23.3112 45.1725 23.5487C44.9715 23.7223 44.7888 23.905 44.6152 24.0878C44.4965 24.2065 44.3777 24.3253 44.2498 24.4441C44.1036 24.5811 43.9666 24.6542 43.8478 24.6542C43.7839 24.6542 43.7108 24.6359 43.6468 24.5994C43.5189 24.5263 43.4367 24.4258 43.4184 24.2979C43.391 24.1426 43.4641 23.9599 43.6194 23.8045C44.0305 23.3751 44.4691 22.9457 44.8802 22.5346C45.0355 22.3793 45.1908 22.2331 45.337 22.0778C45.7481 21.6667 45.9217 21.2008 45.8395 20.6983C45.7481 20.077 45.3918 19.6476 44.8071 19.4375C44.6244 19.3736 44.4416 19.337 44.2681 19.337C43.8752 19.337 43.5006 19.4923 43.1809 19.8121C42.8337 20.1501 42.4865 20.4973 42.1485 20.8353C41.9292 21.0546 41.71 21.2739 41.4907 21.484C41.3902 21.5845 41.2897 21.685 41.1801 21.7489C41.1161 21.7855 41.043 21.8037 40.97 21.8037C40.8512 21.8037 40.7324 21.7489 40.6593 21.6667C40.504 21.4931 40.4857 21.3287 40.5954 21.1459C40.6593 21.0455 40.7507 20.945 40.8603 20.8353C41.2258 20.4699 41.5912 20.1044 41.9566 19.739C42.386 19.3096 42.8063 18.8893 43.2266 18.46C43.6742 18.0031 43.8113 17.4459 43.6103 16.8429C43.4275 16.2856 42.9982 15.911 42.3952 15.8014C42.3038 15.7831 42.2033 15.774 42.112 15.774C41.6917 15.774 41.308 15.9475 40.9608 16.2947C40.1751 17.0804 39.3986 17.857 38.6129 18.6427C38.5306 18.7249 38.4393 18.8071 38.357 18.8711C38.284 18.9259 38.1926 18.9442 38.1104 18.9442C37.9916 18.9442 37.882 18.8985 37.8089 18.8163C37.6627 18.6701 37.6353 18.4325 37.7541 18.259C37.818 18.1585 37.9185 18.058 38.0099 17.9757C38.9143 17.0713 39.965 16.0115 40.9974 14.9883C41.4998 14.4858 41.6643 13.9285 41.4907 13.3346C41.2897 12.6586 40.6959 12.2109 40.0015 12.2109C39.6361 12.2109 39.2889 12.3388 38.9966 12.5763C38.8778 12.6768 38.7682 12.7865 38.6677 12.887L38.5854 12.9692L37.3338 14.2208C36.338 15.2167 35.3513 16.2033 34.3555 17.1992C34.3098 17.2449 34.2458 17.2905 34.1727 17.3454C34.1362 17.3728 34.0905 17.4002 34.054 17.4367L33.8438 17.6012L33.9991 17.8204C34.6661 18.7614 34.7666 19.6476 34.328 20.543C33.8895 21.4292 33.1221 21.9042 32.044 21.9408L31.7974 21.9499L31.7791 22.1966C31.6786 23.7406 30.7102 24.7364 29.2484 24.8095L29.0566 24.8186L29.0017 25.0014C28.9469 25.1567 28.9012 25.3211 28.8647 25.4764C28.7733 25.8053 28.682 26.1251 28.5358 26.3992C28.1521 27.1209 27.5308 27.532 26.6812 27.6234H26.6446C26.4254 27.6417 26.0234 27.6874 25.9868 28.2447C25.9046 29.5146 24.8357 30.5104 23.5567 30.5104C23.2278 30.5104 22.908 30.4464 22.5974 30.3094C22.4695 30.2546 22.3598 30.2272 22.2593 30.2272C22.0309 30.2272 21.8665 30.3551 21.7477 30.483C20.0393 32.2006 18.2943 33.9364 16.6133 35.6266L14.9414 37.2985C14.786 37.4538 14.6307 37.6091 14.4937 37.6091C14.4663 37.6091 14.4389 37.6 14.4115 37.5908C14.3018 37.5543 14.1922 37.4447 14.0826 37.335C14.0552 37.3076 14.0186 37.2802 13.9912 37.2437V37.0335C14.0369 36.9787 14.0734 36.933 14.1191 36.8782C14.2562 36.7138 14.3932 36.5585 14.5302 36.4123C16.732 34.2014 18.9886 31.9539 20.9711 29.9622C21.026 29.9074 21.0899 29.8617 21.163 29.7886C21.2087 29.7521 21.2544 29.7156 21.3092 29.6699L21.5376 29.478L21.3275 29.2679C21.1721 29.1126 21.0168 28.9664 20.8707 28.8202C20.5418 28.5005 20.2311 28.199 19.9296 27.8975C19.1713 27.1301 18.9429 26.2804 19.2444 25.3028C19.4728 24.5628 19.9753 24.0329 20.7245 23.7406C20.7884 23.7132 20.8615 23.6858 20.9255 23.6675L21.2726 23.5396L21.1813 23.2838C20.8981 22.5164 20.9255 21.7307 21.2726 21.0729C21.6198 20.4151 22.2411 19.9491 23.0176 19.7481L23.2734 19.6842L23.2186 19.4284C22.7984 17.5098 24.0043 16.4866 25.1737 16.2033L25.4387 16.1394L25.3747 15.8745C25.128 14.7964 25.3473 13.9559 26.0417 13.3072C26.535 12.8504 27.074 12.6312 27.6953 12.6312C27.9968 12.6312 28.3257 12.686 28.6728 12.7956L29.1114 12.9326L29.0291 12.485C29.02 12.421 29.0017 12.3571 28.9926 12.2931C28.9652 12.1835 28.9469 12.0921 28.9469 12.0008V11.9916C28.9195 11.5622 28.8921 11.1054 28.8921 10.676C28.8921 10.201 29.0474 10.0457 29.5316 10.0457C30.1711 10.0457 30.8107 10.0457 31.4502 10.0457C32.1628 10.0457 32.8663 10.0457 33.5789 10.0457H33.853C34.3463 10.0457 34.8579 10.0457 35.3513 10.0731C36.4659 10.1279 37.4434 10.5573 38.2657 11.3612C38.357 11.4526 38.5215 11.6079 38.7682 11.6079C38.8595 11.6079 38.9509 11.5896 39.0605 11.544C39.4077 11.4069 39.7457 11.3338 40.0655 11.3338C40.6136 11.3338 41.1344 11.5348 41.6095 11.946C42.3404 12.5672 42.6144 13.3894 42.4226 14.367C42.4134 14.4218 42.4043 14.4675 42.3952 14.5315L42.3769 14.6228L42.3404 14.8695L42.587 14.9334C43.3545 15.1253 43.9118 15.509 44.2772 16.1029C44.6426 16.6967 44.7157 17.3545 44.5239 18.1767L44.4599 18.4417L44.7249 18.5056C45.5562 18.7066 46.1318 19.136 46.4973 19.8212C46.8353 20.4699 46.8718 21.1642 46.5978 21.8951L46.5247 22.0961L46.6983 22.2149C46.8536 22.3245 47.018 22.425 47.1642 22.5164C47.4748 22.7082 47.758 22.8909 47.9773 23.1193C48.9183 24.1152 48.8909 25.5495 47.9042 26.5454C45.2548 29.2313 42.8611 31.6433 40.4127 33.9912C38.7316 35.6083 36.5938 36.5493 34.0722 36.796C33.5789 36.8417 33.3048 37.1158 33.0125 37.4629L32.7475 37.7736L33.1404 37.9015C33.3231 37.9563 33.5058 38.0202 33.6794 38.075C34.0905 38.2121 34.4742 38.3491 34.8853 38.4313C35.2599 38.5044 35.6345 38.5136 35.9908 38.5136C36.073 38.5136 36.1553 38.5136 36.2375 38.5136H36.4293C36.6851 38.5136 36.8587 38.5867 37.014 38.742C37.6353 39.3632 38.2474 39.9845 38.8687 40.5966C39.5173 41.2452 40.1568 41.8848 40.8055 42.5334C40.9974 42.7253 41.1709 43.0085 40.906 43.2735C40.8238 43.3557 40.7233 43.4014 40.6228 43.4014C40.4766 43.4014 40.3213 43.3191 40.166 43.173C39.7457 42.7527 39.3255 42.3324 38.9052 41.9122C38.1835 41.1904 37.4434 40.4504 36.7034 39.7287C36.539 39.5642 36.274 39.4546 36.0548 39.4546H36.0456C36.0091 39.4546 35.9634 39.4546 35.9269 39.4546C34.7026 39.4546 33.5789 39.1531 32.5739 38.5501C32.4552 38.477 32.3455 38.4496 32.245 38.4496C32.0166 38.4496 31.8705 38.5958 31.7882 38.6872C30.4726 40.0119 29.084 41.4006 27.4121 43.0816C27.3024 43.1912 27.1928 43.3009 27.0832 43.3557C26.9735 43.3557 26.9004 43.3739 26.8274 43.3739ZM21.6107 24.4715C21.2087 24.4715 20.8067 24.6359 20.5143 24.9191C19.9114 25.4947 19.8474 26.4083 20.3773 26.9839C21.0442 27.7148 21.7843 28.4548 22.6339 29.2405C22.8806 29.4689 23.1912 29.5968 23.5292 29.5968C23.7759 29.5968 24.0317 29.5328 24.2784 29.4049C24.8448 29.1126 25.1189 28.6284 25.1372 27.8609V27.797L25.1098 27.7422C25.1006 27.7239 25.0824 27.6782 25.0732 27.6325C25.0184 27.4681 24.9362 27.2123 24.7626 27.0296C24.0043 26.2165 23.2917 25.5038 22.5882 24.8552C22.3141 24.6085 21.9761 24.4715 21.6107 24.4715ZM23.4744 20.6435C23.2278 20.6435 22.9811 20.7074 22.7435 20.8353C22.2502 21.0911 21.9396 21.5571 21.9122 22.0596V22.0687C21.903 22.6077 22.0675 23.0188 22.4421 23.3843C22.707 23.6492 22.9719 23.9142 23.2369 24.1791C23.8947 24.8369 24.5799 25.5221 25.2651 26.189C25.4844 26.4083 25.7767 26.5728 26.0599 26.655C26.197 26.6915 26.334 26.7098 26.471 26.7098C27.0101 26.7098 27.5217 26.3992 27.7958 25.9058C28.1429 25.2754 28.0333 24.5537 27.5034 24.0147C26.7451 23.2472 25.9686 22.4707 25.2103 21.7124L24.6438 21.1459C24.5433 21.0455 24.4428 20.9632 24.3423 20.8993C24.05 20.7348 23.7668 20.6435 23.4744 20.6435ZM25.8041 17.0621C24.9819 17.0895 24.4703 17.391 24.1962 17.994C23.913 18.6061 24.0409 19.2548 24.5525 19.7755C25.9229 21.1642 27.0649 22.2971 28.1429 23.3569C28.4627 23.6766 28.883 23.8502 29.3032 23.8502C29.7052 23.8502 30.0981 23.6858 30.3904 23.3934C31.0208 22.7722 31.0025 21.8037 30.3539 21.1459C29.221 19.9948 28.0059 18.7706 26.7543 17.5646C26.5441 17.3636 26.2883 17.2449 26.0965 17.1626C26.0417 17.1352 25.9868 17.1078 25.9503 17.0895L25.8863 17.053L25.8041 17.0621ZM27.7501 13.4991C27.3481 13.4991 26.9644 13.6635 26.672 13.9467C26.3706 14.2391 26.2061 14.6228 26.2061 15.0339C26.2061 15.4633 26.3797 15.8745 26.6903 16.1942C27.9511 17.4733 29.4585 18.9898 31.0025 20.4973C31.1944 20.6891 31.4319 20.7988 31.6695 20.9084C31.77 20.9541 31.8613 20.9998 31.9435 21.0455L32.1811 21.1825L32.2907 20.9906C32.848 20.9358 33.3322 20.6069 33.5698 20.0862C33.853 19.4741 33.7159 18.8071 33.2226 18.3046C31.5416 16.6053 30.162 15.2349 28.8921 13.9742C28.5632 13.6727 28.1612 13.4991 27.7501 13.4991ZM33.2317 16.9251L37.9185 12.2383L37.7267 12.0464C36.9866 11.2973 36.0456 10.9227 34.9493 10.9227C34.3098 10.9227 33.6611 10.9227 33.0216 10.9227C32.1537 10.9227 31.2949 10.9227 30.427 10.9227C30.3447 10.9227 30.2625 10.9319 30.1894 10.9319C30.162 10.9319 30.1255 10.941 30.0981 10.941L29.8697 10.9593L29.8422 11.1877C29.7783 11.7998 29.9519 12.3753 30.3447 12.823C30.7376 13.2798 31.304 13.5356 31.9435 13.5448C32.0989 13.5448 32.2724 13.5539 32.4643 13.5539C32.6379 13.5539 32.8023 13.5539 32.9759 13.5539C33.1404 13.5539 33.3139 13.5539 33.4784 13.5539C33.6337 13.5539 33.789 13.5539 33.9443 13.5539C34.191 13.563 34.3737 13.7183 34.392 13.9467C34.4194 14.1843 34.2915 14.3579 34.0631 14.4218C33.9809 14.4492 33.8804 14.4584 33.7707 14.4584C33.3596 14.4584 32.9485 14.4584 32.5465 14.4584H30.7741L33.2317 16.9251Z" fill="white"/>
<path d="M50.3618 34.9506C50.2339 34.9506 50.0968 34.8775 49.9598 34.7496C49.503 34.3111 49.0553 33.8634 48.6168 33.4158L48.3153 33.1143C48.1234 32.9224 48.0778 32.7488 48.1691 32.5935C48.2239 32.493 48.3518 32.4017 48.4798 32.3012C48.5072 32.2829 48.5254 32.2646 48.5528 32.2463C48.5802 32.2646 48.6168 32.2737 48.6442 32.292C48.7721 32.356 48.8726 32.4017 48.9366 32.4656C49.4756 32.9772 50.0237 33.5254 50.6085 34.1192C50.7729 34.2928 50.9191 34.5486 50.6724 34.8044C50.5719 34.8958 50.4714 34.9506 50.3618 34.9506Z" fill="white"/>
<path d="M46.7439 31.3692C46.5064 31.3601 46.3054 31.1499 46.3145 30.9124C46.3145 30.6749 46.5246 30.4739 46.753 30.4739C46.8718 30.4739 46.9814 30.5287 47.0728 30.6201C47.155 30.7114 47.2098 30.821 47.2007 30.9307C47.1916 31.1591 46.9723 31.3692 46.7439 31.3692Z" fill="white"/>
</svg>
