<svg width="22" height="31" viewBox="0 0 22 31" fill="none" xmlns="http://www.w3.org/2000/svg">
<path d="M1.11599 30.5637C0.509612 30.3637 0.16772 30.0412 0.0516063 29.5444C0.0129016 29.3767 0.00645078 29.1896 0.00645078 29.0542C0 24.4483 0 19.4941 0 13.9013C0 12.9079 0.528964 12.3789 1.52884 12.3789C2.12231 12.3789 2.70933 12.3789 3.3028 12.3789H5.767V13.024H3.3157C2.71578 13.024 2.12231 13.024 1.52239 13.024C0.896659 13.024 0.638628 13.2756 0.638628 13.9013C0.638628 18.9523 0.638628 23.9968 0.638628 29.0477C0.638628 29.6541 0.90311 29.9186 1.50303 29.9186C4.56716 29.9186 7.63128 29.9186 10.6889 29.9186C13.7144 29.9186 16.7398 29.9186 19.7588 29.9186C20.3522 29.9186 20.6232 29.6477 20.6232 29.0477C20.6232 23.9968 20.6232 18.9523 20.6232 13.9013C20.6232 13.282 20.3651 13.024 19.7394 13.024C19.1459 13.024 18.5525 13.024 17.959 13.024H15.4948V12.3854C15.527 12.3854 15.5593 12.3854 15.5915 12.3854H15.6883C16.4882 12.3854 17.2817 12.3854 18.0815 12.3854C18.6363 12.3854 19.1846 12.3854 19.7394 12.3854C20.7393 12.3854 21.2682 12.9143 21.2682 13.9077C21.2682 17.6105 21.2682 21.3132 21.2682 25.016V28.8413C21.2682 29.8928 21.0876 30.1702 20.1458 30.5637H1.11599Z" fill="black"/>
<path d="M10.6474 18.1803C10.4667 18.1803 10.2732 18.1738 10.0797 18.1674C9.3572 18.1416 8.80889 17.5933 8.77663 16.8643C8.77663 16.8514 8.77663 16.8385 8.77663 16.8256C8.77663 16.7934 8.77018 16.7676 8.77663 16.7482C8.83469 16.3225 8.69277 16.0451 8.31218 15.8387C7.86707 15.5935 7.75741 15.1484 7.75096 14.8194C7.74451 14.5549 7.74451 14.2905 7.74451 14.0324C7.74451 13.9163 7.74451 13.7938 7.74451 13.6776V13.5293C7.75096 13.4519 7.75741 13.3745 7.76386 13.297C7.78966 12.9745 7.81547 12.6391 7.6929 12.3488C7.58324 12.0843 7.34456 11.8972 7.11878 11.7166C7.00267 11.6263 6.89301 11.536 6.80269 11.4457C5.24161 9.82652 4.77715 7.96224 5.42223 5.91089C6.08021 3.80794 7.54453 2.53713 9.7636 2.13074C10.0732 2.07268 10.3829 2.04688 10.6925 2.04688C12.8729 2.04688 14.8468 3.39509 15.7177 5.47869C16.6788 7.77517 15.8854 10.5103 13.8405 11.9746C13.6147 12.1359 13.5244 12.3165 13.5309 12.581C13.5373 12.9745 13.5373 13.3809 13.5373 13.7679C13.5373 14.0582 13.5373 14.3614 13.5373 14.6646C13.5438 15.2839 13.2986 15.7032 12.7632 15.9935C12.6213 16.0709 12.5374 16.2515 12.5181 16.387C12.5052 16.5031 12.5052 16.6192 12.5052 16.7289C12.5052 16.8063 12.5052 16.8772 12.4987 16.9482C12.4536 17.6126 11.8988 18.1545 11.2473 18.1803C11.0538 18.1738 10.8538 18.1803 10.6474 18.1803ZM9.42171 16.3225C9.42171 16.3805 9.42171 16.4386 9.42171 16.4966C9.42171 16.6192 9.41526 16.7353 9.42816 16.8514C9.46042 17.2449 9.7249 17.5159 10.1184 17.5288C10.2926 17.5352 10.4732 17.5417 10.6474 17.5417C10.828 17.5417 11.0086 17.5352 11.1892 17.5288C11.5569 17.5159 11.8085 17.2772 11.8601 16.9095C11.8795 16.7676 11.873 16.6256 11.873 16.4902C11.873 16.4321 11.8666 16.3741 11.8666 16.3225V16.1289H9.42171V16.3225ZM8.38959 12.8261C8.38959 13.0261 8.38959 13.2261 8.38959 13.4196C8.38959 13.8905 8.38314 14.3356 8.39604 14.7807C8.40249 15.1807 8.69277 15.4581 9.09917 15.4645C9.58943 15.471 10.1055 15.471 10.6345 15.471C11.1247 15.471 11.6343 15.471 12.1826 15.4645C12.5761 15.4581 12.8664 15.2129 12.8793 14.8517C12.8987 14.3808 12.8922 13.9163 12.8922 13.4261C12.8922 13.2261 12.8922 13.0261 12.8922 12.8261V12.5488L12.6278 12.6455C11.9698 12.8906 11.3053 13.0197 10.6474 13.0197C9.98938 13.0197 9.32495 12.8971 8.65407 12.6455L8.39604 12.5488V12.8261H8.38959ZM10.6151 2.6984C7.94448 2.72421 5.78992 4.90457 5.80282 7.54939C5.81572 10.2071 7.98319 12.3746 10.6409 12.3746H10.6474C11.9311 12.3746 13.1503 11.865 14.0663 10.9425C14.9823 10.02 15.4854 8.8073 15.479 7.52359C15.4661 4.85942 13.3051 2.69195 10.6603 2.69195L10.6151 2.6984Z" fill="black"/>
<path d="M16.8214 18.1739C16.7892 18.1739 16.7505 18.1739 16.7182 18.1739C16.2344 18.1481 15.7635 17.9223 15.4281 17.5417C15.0991 17.174 14.9378 16.7289 14.9636 16.2709C15.0217 15.2323 15.8216 14.4453 16.815 14.4453C16.8537 14.4453 16.8859 14.4453 16.9247 14.4453C17.9503 14.5034 18.7438 15.3678 18.6922 16.3676C18.6341 17.4127 17.8471 18.1739 16.8214 18.1739ZM16.8279 15.0839C16.4989 15.0839 16.1893 15.213 15.957 15.4516C15.7248 15.6903 15.5958 15.9935 15.6022 16.3225C15.6151 16.9869 16.157 17.5288 16.8214 17.5288C17.1569 17.5288 17.4601 17.3998 17.6923 17.1675C17.9245 16.9353 18.0471 16.6257 18.0406 16.2902C18.0406 15.6323 17.4923 15.0904 16.8279 15.0839Z" fill="black"/>
<path d="M4.44256 28.4981C3.94585 28.4981 3.48139 28.2981 3.12015 27.9369C2.76535 27.5756 2.57183 27.1047 2.57828 26.6145C2.59118 25.5952 3.42978 24.7695 4.44256 24.7695H4.45546C5.48113 24.776 6.31974 25.6081 6.31974 26.6338C6.31974 27.6466 5.46178 28.4981 4.45546 28.5045H4.44256V28.4981ZM4.44901 25.4082C3.76523 25.4082 3.22981 25.9436 3.22336 26.6209C3.22336 26.9499 3.35238 27.2595 3.5846 27.4918C3.81683 27.724 4.12002 27.8466 4.43611 27.8466H4.45546C5.11989 27.8401 5.66176 27.2918 5.66821 26.6274C5.67466 25.9629 5.13279 25.4146 4.46836 25.4017L4.44901 25.4082Z" fill="black"/>
<path d="M10.6211 23.334C9.64061 23.334 8.81491 22.5277 8.78266 21.5407C8.76331 21.0375 8.94393 20.5602 9.28582 20.1989C9.63416 19.8312 10.1115 19.6184 10.6276 19.6055C10.6405 19.6055 10.6534 19.6055 10.6727 19.6055C11.6404 19.6055 12.479 20.4376 12.5112 21.4246C12.5435 22.4696 11.7371 23.3082 10.6792 23.3405C10.6534 23.334 10.634 23.334 10.6211 23.334ZM10.6405 20.2441C10.3179 20.2441 10.0083 20.3731 9.77608 20.6053C9.54385 20.8376 9.41484 21.1472 9.42129 21.4762C9.42774 22.1535 9.96315 22.6825 10.6469 22.6825H10.6727C11.3501 22.6696 11.8726 22.1277 11.8661 21.4568C11.8597 20.7924 11.3178 20.2505 10.6534 20.2441H10.6405Z" fill="black"/>
<path d="M2.83458 22.6111L4.02152 21.5081L2.82812 20.3276L3.27968 19.8631L4.39567 21.0436L5.55036 19.8438L6.00836 20.3211L4.83432 21.4822L6.04062 22.6305L5.57616 23.082L4.45372 21.8693L3.30548 23.1078L2.83458 22.6111Z" fill="black"/>
<path d="M15.2663 22.6278L16.4145 21.5247L15.1953 20.3313L15.6856 19.8475L16.8209 21.0602L17.9756 19.8281L18.4207 20.3119L17.2854 21.4279L18.4723 22.5826L17.9821 23.0535L16.8919 21.8859L15.7243 23.0922L15.2663 22.6278Z" fill="black"/>
<path d="M15.2248 27.802L16.4311 26.6538L15.1797 25.4797L15.6764 25.0088L16.8182 26.2345L17.9664 24.9766L18.4438 25.4862L17.2633 26.5957L18.4567 27.7568L17.9664 28.2342L16.8375 27.0602L15.6764 28.2665L15.2248 27.802Z" fill="black"/>
<path d="M2.87529 17.4547L4.02353 16.3516L2.76562 15.1711L3.25588 14.6938L4.41057 15.9581L5.60397 14.668L6.08778 15.1453L4.87503 16.2807L6.10713 17.4354L5.61042 17.8934L4.50089 16.7322L3.33329 17.9385L2.87529 17.4547Z" fill="black"/>
<path d="M9.02853 27.811L10.2606 26.637L9.01562 25.4758L9.50588 24.9985L10.6219 26.1919L11.7701 24.9727L12.241 25.4436L11.0412 26.6176L12.2797 27.7723L11.7959 28.2174L10.6541 27.024L9.49943 28.2948L9.02853 27.811Z" fill="black"/>
<path d="M5.10938 2.43747L5.53513 2.01172L5.95443 2.42457L5.52868 2.85032L5.10938 2.43747Z" fill="black"/>
<path d="M15.4141 2.46381L15.814 2.07031L16.1559 2.4122L15.7237 2.82505L15.4141 2.46381Z" fill="black"/>
<path d="M10.9437 0H10.3438V0.619275H10.9437V0Z" fill="black"/>
<path d="M3.72084 7.23828H3.10156V7.84466H3.72084V7.23828Z" fill="black"/>
<path d="M18.1675 7.23047H17.5547V7.83684H18.1675V7.23047Z" fill="black"/>
</svg>
