<svg width="62" height="57" viewBox="0 0 62 57" fill="none" xmlns="http://www.w3.org/2000/svg">
<circle cx="30.5601" cy="26.0129" r="25.2346" fill="#A87E33"/>
<path d="M60.7594 26.2312C60.7594 42.7333 47.3818 56.1109 30.8797 56.1109C14.3776 56.1109 1 42.7333 1 26.2312" stroke="#A87E33" stroke-opacity="0.25" stroke-width="0.6" stroke-dasharray="3 3"/>
<path d="M42.3165 42.7535V40.0009C42.3165 38.1044 42.3165 36.2079 42.3165 34.3114C42.3165 30.6749 39.9965 27.9406 36.406 27.333L35.2092 27.1305L35.1816 27.3238C35.1632 27.4803 35.1448 27.6276 35.1264 27.7841C35.0895 28.1063 35.0527 28.4009 34.9975 28.7047C34.7765 30.0028 34.1505 31.0339 33.1286 31.752C32.6407 32.1019 32.4842 32.4977 32.613 33.0777L32.6499 33.2158H34.3438C34.8041 33.2158 35.1356 33.2158 35.2368 33.3171C35.3381 33.4184 35.3381 33.7498 35.3381 34.2009V35.9317C35.3381 37.4691 35.3381 39.0066 35.3381 40.544C35.3381 41.032 35.246 41.124 34.7673 41.124C33.368 41.124 31.9686 41.124 30.56 41.124H26.3528C25.8648 41.124 25.7728 41.032 25.7728 40.5532C25.7728 38.2977 25.7728 36.0514 25.7728 33.7958C25.7728 33.3079 25.8556 33.2158 26.3436 33.2158C26.6013 33.2158 26.8591 33.2158 27.1169 33.2158H28.5347V33.0317C28.5347 32.9857 28.5347 32.9396 28.5347 32.9028C28.5347 32.8384 28.5347 32.7831 28.5347 32.7463C28.6083 32.2768 28.3505 32.0282 28.0928 31.8441C26.8867 30.9879 26.1963 29.7911 26.049 28.2813C26.0306 28.0695 26.0029 27.8578 25.9753 27.6552C25.9661 27.5632 25.9477 27.4619 25.9385 27.3698L25.9201 27.1949L25.7452 27.2041C22.256 27.3975 19.6506 29.5149 18.9509 32.7279C18.8589 33.1698 18.8036 33.6577 18.8036 34.2377C18.776 36.3091 18.7852 38.4082 18.7852 40.4335C18.7852 41.1332 18.7852 42.7535 18.7852 42.7535H18.0487V40.0101C18.0487 38.1044 18.0487 36.1987 18.0487 34.2838C18.0487 30.2882 20.7093 27.1949 24.6588 26.5873C25.2204 26.5044 25.7728 26.4032 26.362 26.2927C26.6382 26.2375 26.9236 26.1914 27.2182 26.1362L27.6509 26.0625L27.301 25.8048C25.9385 24.8197 25.1007 23.5676 24.7877 22.0578L24.7693 21.9565L24.668 21.9197C24.5207 21.8737 24.3826 21.8277 24.2353 21.7908C23.9591 21.708 23.6922 21.6343 23.462 21.5146C22.9741 21.2477 22.6426 20.8058 22.5138 20.2718C22.3849 19.7194 22.4953 19.1302 22.8176 18.6423C22.928 18.4766 23.0017 18.2464 23.0017 18.0439C23.0109 17.2705 23.0109 16.488 23.0109 15.7239C23.0109 15.2544 23.0109 14.7849 23.0109 14.3245C23.0201 11.3325 25.3861 8.97569 28.3874 8.95728C28.9674 8.95728 29.5381 8.95728 30.1181 8.95728C30.781 8.95728 31.4438 8.95728 32.1067 8.95728C33.6626 8.95728 34.8502 9.8687 35.2644 11.3877C35.3105 11.5627 35.4946 11.7376 35.6603 11.7836C37.1701 12.1979 38.0816 13.3763 38.0816 14.9414C38.0816 15.3556 38.0816 15.7699 38.0816 16.1842C38.0816 16.801 38.0816 17.4455 38.0816 18.0807C38.0816 18.1728 38.1 18.4121 38.2197 18.5962C38.6708 19.2775 38.7444 20.0416 38.4222 20.6953C38.1 21.3581 37.4463 21.7632 36.6362 21.8277C36.5994 21.8277 36.5717 21.8369 36.5257 21.8461C36.5073 21.8461 36.4889 21.8553 36.4705 21.8553L36.3416 21.8737L36.314 22.0026C35.9917 23.5861 35.1632 24.8289 33.7914 25.814L33.4416 26.0625L33.8651 26.1362C34.2333 26.2006 34.5832 26.2651 34.9422 26.3295C35.7064 26.4676 36.4244 26.5873 37.1425 26.7438C40.199 27.3882 42.6571 30.1225 42.9701 33.2342C43.0069 33.6209 43.0253 33.9891 43.0253 34.3482C43.0253 36.4196 43.0253 38.5371 43.0253 40.5716V42.7535H42.3165ZM26.5277 40.3599H34.574V33.9707H26.5277V40.3599ZM29.262 33.1974H31.8213V31.7704H29.262V33.1974ZM32.1435 31.0155C32.254 31.0155 32.2816 31.0247 32.2908 31.0339C32.3921 31.1076 32.4934 31.1352 32.5946 31.1352C32.7788 31.1352 32.9168 31.0155 33.0181 30.9143C34.1873 29.8371 34.3899 28.4009 34.4267 27.1397L34.4359 26.974L33.6994 26.8727L33.6533 27.0108C33.0734 28.6403 32.0791 29.4873 30.6797 29.5333C30.6337 29.5333 30.5969 29.5333 30.5508 29.5333C29.1239 29.5333 28.2216 28.7968 27.4483 27.0016L27.3931 26.8727L26.6474 26.974L26.6658 27.1489C26.675 27.2317 26.6842 27.3054 26.6842 27.379C26.7026 27.5263 26.7118 27.6644 26.721 27.8025C26.8039 29.0454 27.1997 30.012 27.927 30.7485L27.9731 30.7946C28.1204 30.9419 28.2861 31.1168 28.5255 31.1168C28.6451 31.1168 28.7648 31.08 28.8845 30.9971C28.8845 30.9971 28.8937 30.9971 28.9029 30.9971C28.9213 30.9971 28.9489 30.9971 28.9674 30.9971C28.995 30.9971 29.0318 30.9971 29.0594 30.9971C29.0594 30.9971 30.0905 30.9971 30.5048 30.9971C31.0111 30.9971 31.5083 30.9971 32.0146 30.9971L32.1435 31.0155ZM28.2032 26.5781C28.2585 27.8301 29.2988 28.8152 30.56 28.8152C30.6153 28.8152 30.6705 28.8152 30.735 28.806C31.361 28.76 31.987 28.4286 32.4105 27.913C32.7603 27.4895 32.9261 27.0108 32.8708 26.5597L32.8432 26.3295L32.6222 26.4124C31.9318 26.661 31.2413 26.7898 30.5508 26.7898C29.8512 26.7898 29.1515 26.6609 28.4518 26.394L28.194 26.2927L28.2032 26.5781ZM25.4598 18.1451C25.4598 18.5226 25.4506 18.9001 25.4413 19.2591C25.4229 20.0877 25.3953 20.861 25.4874 21.6527C25.7544 24.12 27.9823 26.0441 30.5508 26.0441C33.1286 26.0441 35.3473 24.12 35.6235 21.6619C35.7156 20.8058 35.7064 19.9312 35.7064 19.0842C35.7064 18.7251 35.6971 18.3569 35.7064 17.9978C35.7064 17.8874 35.6603 17.7309 35.559 17.648C34.9238 17.1048 34.2702 16.5709 33.6441 16.0461L33.101 15.595L32.9905 15.6502C32.9813 15.6594 32.9721 15.6594 32.9629 15.6594C32.9353 15.6687 32.8984 15.6871 32.8616 15.7423C32.8248 15.7975 32.7972 15.8436 32.7695 15.8988C32.1251 17.0772 31.1308 17.7585 29.8327 17.9242C29.575 17.961 29.308 17.961 29.1054 17.961C28.995 17.961 28.8937 17.961 28.7832 17.961C28.6728 17.961 28.5715 17.961 28.461 17.961H28.4058C28.0191 17.961 27.6416 17.961 27.2642 17.961H25.469V18.1451H25.4598ZM36.7006 18.5502C36.673 18.5502 36.6454 18.5502 36.6086 18.5502L36.4429 18.5594V21.0819L36.6454 21.0635C37.0413 21.0267 37.3911 20.861 37.6213 20.5848C37.833 20.3362 37.9343 20.0048 37.8974 19.6642C37.833 19.0474 37.3082 18.5502 36.7006 18.5502ZM24.4655 18.5318C23.729 18.5594 23.1858 19.1118 23.2042 19.8207C23.2134 20.5204 23.7658 21.0543 24.4747 21.0635H24.6588V18.5318H24.4655ZM30.0905 9.69378C29.5013 9.69378 28.9121 9.69378 28.3229 9.69378C25.7728 9.71219 23.7658 11.7284 23.7474 14.2969C23.7474 15.0795 23.7474 15.8804 23.7474 16.6537V17.3626C23.7474 17.4363 23.7566 17.5099 23.7566 17.5744C23.7566 17.6112 23.7658 17.6388 23.7658 17.6756L23.775 17.8782L24.622 17.7401L24.6496 17.6204C24.7141 17.335 24.8521 17.2337 25.1652 17.2337C25.828 17.2337 26.5093 17.2429 27.2826 17.2429C27.9547 17.2429 28.6359 17.2429 29.308 17.2429C30.8178 17.2429 31.9594 16.3683 32.3737 14.9045C32.4289 14.7112 32.5302 14.4902 32.7235 14.4902C32.834 14.4902 32.9721 14.5547 33.1286 14.6836L33.2851 14.8125C34.2149 15.5858 35.1724 16.3775 36.1114 17.1785C36.2127 17.2705 36.3048 17.381 36.4152 17.5099C36.4705 17.5836 36.5349 17.6572 36.5994 17.7309L36.6454 17.7861L37.3543 17.8874C37.3543 17.8874 37.3543 17.1048 37.3543 16.8194C37.3543 16.175 37.3543 15.5674 37.3543 14.9414C37.3451 13.5604 36.4152 12.5753 35.0435 12.4741C34.7121 12.4557 34.62 12.3544 34.6016 12.023C34.5095 10.6696 33.506 9.7306 32.1619 9.7214C31.4623 9.69378 30.7718 9.69378 30.0905 9.69378Z" fill="white"/>
<path d="M23.1767 35.9961H22.4862V42.7535H23.1767V35.9961Z" fill="white"/>
<path d="M38.6154 35.9961H37.9249V42.7627H38.6154V35.9961Z" fill="white"/>
<path d="M30.5422 38.9236C29.999 38.9236 29.4651 38.9236 28.9311 38.9144C28.6549 38.9144 28.5352 38.7764 28.526 38.4817C28.526 37.9938 28.526 37.5151 28.526 36.9995C28.526 36.7878 28.526 36.1894 28.526 36.1894L27.9921 36.1618V35.4529H33.1016V36.1526H32.5676V38.1043C32.5676 38.1503 32.5676 38.1871 32.5676 38.2332C32.5676 38.3344 32.5676 38.4265 32.5676 38.5094C32.5584 38.7856 32.4295 38.9144 32.1625 38.9144C31.6285 38.9144 31.0854 38.9236 30.5422 38.9236ZM29.2902 38.1595H31.8127V36.171H29.2902V38.1595Z" fill="white"/>
</svg>
