<svg width="66" height="60" viewBox="0 0 66 60" fill="none" xmlns="http://www.w3.org/2000/svg">
<circle cx="32.6862" cy="26.9577" r="26.9577" fill="#105F43"/>
<path d="M64.84 27.1912C64.84 44.8201 50.5489 59.1111 32.92 59.1111C15.2911 59.1111 1 44.8201 1 27.1912" stroke="#105F43" stroke-opacity="0.25" stroke-width="0.6" stroke-dasharray="3 3"/>
<path d="M45.7046 44.1899V41.1608C45.7046 39.0739 45.7046 36.9869 45.7046 34.9C45.7046 30.8984 43.1516 27.8895 39.2007 27.2209L37.8837 26.998L37.8533 27.2108C37.833 27.383 37.8128 27.5451 37.7925 27.7173C37.752 28.0719 37.7114 28.3961 37.6507 28.7304C37.4075 30.1588 36.7186 31.2935 35.5941 32.0837C35.0572 32.4686 34.885 32.9043 35.0268 33.5425L35.0673 33.6945H36.9314C37.4379 33.6945 37.8026 33.6945 37.9141 33.8059C38.0255 33.9173 38.0255 34.282 38.0255 34.7784V36.683C38.0255 38.3748 38.0255 40.0667 38.0255 41.7585C38.0255 42.2954 37.9242 42.3967 37.3974 42.3967C35.8575 42.3967 34.3177 42.3967 32.7677 42.3967H28.1379C27.601 42.3967 27.4997 42.2954 27.4997 41.7686C27.4997 39.2866 27.4997 36.8147 27.4997 34.3327C27.4997 33.7958 27.5909 33.6945 28.1278 33.6945C28.4114 33.6945 28.6951 33.6945 28.9788 33.6945H30.5389V33.4918C30.5389 33.4412 30.5389 33.3905 30.5389 33.35C30.5389 33.2791 30.5389 33.2183 30.5389 33.1778C30.6199 32.6611 30.3363 32.3876 30.0526 32.185C28.7255 31.2428 27.9657 29.9258 27.8036 28.2644C27.7833 28.0314 27.7529 27.7984 27.7226 27.5755C27.7124 27.4742 27.6922 27.3628 27.682 27.2614L27.6618 27.069L27.4693 27.0791C23.6297 27.2918 20.7627 29.6219 19.9928 33.1575C19.8915 33.6438 19.8307 34.1807 19.8307 34.819C19.8003 37.0984 19.8105 39.4082 19.8105 41.6369C19.8105 42.4069 19.8105 44.1899 19.8105 44.1899H19V41.1709C19 39.0739 19 36.9768 19 34.8696C19 30.4729 21.9278 27.069 26.2739 26.4003C26.8918 26.3092 27.4997 26.1977 28.148 26.0761C28.452 26.0154 28.766 25.9647 29.0902 25.9039L29.5663 25.8229L29.1814 25.5392C27.682 24.4552 26.7601 23.0775 26.4157 21.416L26.3954 21.3046L26.284 21.2641C26.1219 21.2134 25.9699 21.1627 25.8078 21.1222C25.5039 21.031 25.2101 20.95 24.9569 20.8183C24.4199 20.5245 24.0552 20.0382 23.9134 19.4507C23.7716 18.8428 23.8931 18.1944 24.2477 17.6575C24.3693 17.4752 24.4503 17.2219 24.4503 16.999C24.4605 16.148 24.4605 15.2869 24.4605 14.4461C24.4605 13.9294 24.4605 13.4127 24.4605 12.9062C24.4706 9.61373 27.0742 7.02026 30.3768 7C31.015 7 31.6431 7 32.2814 7C33.0108 7 33.7402 7 34.4696 7C36.1817 7 37.4886 8.00294 37.9445 9.67451C37.9951 9.86699 38.1977 10.0595 38.3801 10.1101C40.0415 10.566 41.0445 11.8627 41.0445 13.585C41.0445 14.0409 41.0445 14.4967 41.0445 14.9526C41.0445 15.6314 41.0445 16.3405 41.0445 17.0395C41.0445 17.1409 41.0647 17.4043 41.1964 17.6069C41.6928 18.3565 41.7739 19.1974 41.4193 19.9167C41.0647 20.6461 40.3454 21.0918 39.4539 21.1627C39.4134 21.1627 39.383 21.1729 39.3324 21.183C39.3121 21.183 39.2918 21.1931 39.2716 21.1931L39.1297 21.2134L39.0994 21.3552C38.7448 23.0977 37.833 24.4654 36.3235 25.5494L35.9386 25.8229L36.4046 25.9039C36.8098 25.9748 37.1948 26.0458 37.5899 26.1167C38.4307 26.2686 39.2209 26.4003 40.0111 26.5726C43.3745 27.2817 46.0794 30.2905 46.4239 33.7147C46.4644 34.1402 46.4846 34.5454 46.4846 34.9405C46.4846 37.2199 46.4846 39.55 46.4846 41.7889V44.1899H45.7046V44.1899ZM28.3304 41.5559H37.1846V34.5252H28.3304V41.5559ZM31.3392 33.6742H34.1556V32.1039H31.3392V33.6742ZM34.5101 31.2732C34.6317 31.2732 34.6621 31.2833 34.6722 31.2935C34.7837 31.3745 34.8951 31.4049 35.0065 31.4049C35.2092 31.4049 35.3611 31.2732 35.4726 31.1618C36.7592 29.9765 36.982 28.3961 37.0226 27.0082L37.0327 26.8258L36.2222 26.7144L36.1716 26.8663C35.5333 28.6595 34.4392 29.5915 32.8994 29.6422C32.8487 29.6422 32.8082 29.6422 32.7575 29.6422C31.1873 29.6422 30.1944 28.8317 29.3435 26.8562L29.2827 26.7144L28.4621 26.8258L28.4824 27.0183C28.4925 27.1095 28.5026 27.1905 28.5026 27.2716C28.5229 27.4337 28.533 27.5856 28.5431 27.7376C28.6343 29.1052 29.0699 30.169 29.8703 30.9794L29.9209 31.0301C30.083 31.1922 30.2654 31.3846 30.5288 31.3846C30.6605 31.3846 30.7922 31.3441 30.9239 31.2529C30.9239 31.2529 30.934 31.2529 30.9441 31.2529C30.9644 31.2529 30.9948 31.2529 31.015 31.2529C31.0454 31.2529 31.086 31.2529 31.1163 31.2529C31.1163 31.2529 32.251 31.2529 32.7069 31.2529C33.2641 31.2529 33.8111 31.2529 34.3683 31.2529L34.5101 31.2732ZM30.1742 26.3902C30.235 27.768 31.3797 28.852 32.7677 28.852C32.8284 28.852 32.8892 28.852 32.9601 28.8418C33.649 28.7912 34.3379 28.4265 34.8039 27.8592C35.1889 27.3931 35.3712 26.8663 35.3105 26.3699L35.2801 26.1167L35.0369 26.2078C34.2771 26.4814 33.5173 26.6232 32.7575 26.6232C31.9876 26.6232 31.2177 26.4814 30.4477 26.1876L30.1641 26.0761L30.1742 26.3902ZM27.1552 17.1105C27.1552 17.5258 27.1451 17.9412 27.135 18.3363C27.1147 19.248 27.0843 20.099 27.1856 20.9703C27.4794 23.6853 29.931 25.8026 32.7575 25.8026C35.5941 25.8026 38.0356 23.6853 38.3395 20.9804C38.4409 20.0382 38.4307 19.0758 38.4307 18.1438C38.4307 17.7487 38.4206 17.3435 38.4307 16.9484C38.4307 16.8268 38.3801 16.6546 38.2686 16.5634C37.5696 15.9657 36.8503 15.3781 36.1614 14.8007L35.5637 14.3043L35.4422 14.365C35.432 14.3752 35.4219 14.3752 35.4118 14.3752C35.3814 14.3853 35.3409 14.4056 35.3003 14.4663C35.2598 14.5271 35.2294 14.5778 35.199 14.6386C34.4899 15.9353 33.3958 16.685 31.9673 16.8673C31.6837 16.9078 31.3899 16.9078 31.167 16.9078C31.0454 16.9078 30.934 16.9078 30.8124 16.9078C30.6909 16.9078 30.5794 16.9078 30.4578 16.9078H30.3971C29.9716 16.9078 29.5562 16.9078 29.1409 16.9078H27.1654V17.1105H27.1552ZM39.5248 17.5562C39.4945 17.5562 39.4641 17.5562 39.4235 17.5562L39.2412 17.5663V20.3422L39.4641 20.3219C39.8997 20.2814 40.2846 20.099 40.5379 19.7951C40.7709 19.5216 40.8824 19.1569 40.8418 18.782C40.7709 18.1033 40.1935 17.5562 39.5248 17.5562ZM26.0611 17.536C25.2507 17.5663 24.6529 18.1742 24.6732 18.9543C24.6833 19.7242 25.2912 20.3118 26.0712 20.3219H26.2739V17.536H26.0611ZM32.251 7.81046C31.6026 7.81046 30.9543 7.81046 30.3059 7.81046C27.4997 7.83072 25.2912 10.0493 25.2709 12.8758C25.2709 13.7369 25.2709 14.6183 25.2709 15.4693V16.2493C25.2709 16.3304 25.281 16.4114 25.281 16.4824C25.281 16.5229 25.2912 16.5533 25.2912 16.5938L25.3013 16.8167L26.2333 16.6647L26.2637 16.533C26.3346 16.219 26.4866 16.1075 26.831 16.1075C27.5605 16.1075 28.3101 16.1176 29.1611 16.1176C29.9007 16.1176 30.6503 16.1176 31.3899 16.1176C33.0513 16.1176 34.3075 15.1552 34.7634 13.5444C34.8242 13.3317 34.9356 13.0886 35.1484 13.0886C35.2699 13.0886 35.4219 13.1595 35.5941 13.3013L35.7663 13.4431C36.7895 14.2941 37.8431 15.1654 38.8765 16.0467C38.9879 16.148 39.0892 16.2696 39.2108 16.4114C39.2716 16.4925 39.3425 16.5735 39.4134 16.6546L39.4641 16.7154L40.2441 16.8268C40.2441 16.8268 40.2441 15.9657 40.2441 15.6516C40.2441 14.9425 40.2441 14.2739 40.2441 13.585C40.234 12.0654 39.2108 10.9814 37.7013 10.8699C37.3366 10.8497 37.2353 10.7382 37.215 10.3735C37.1137 8.88431 36.0095 7.85098 34.5304 7.84085C33.7605 7.81046 33.0007 7.81046 32.251 7.81046Z" fill="white"/>
<path d="M24.6429 36.7539H23.8831V44.1899H24.6429V36.7539Z" fill="white"/>
<path d="M41.632 36.7539H40.8722V44.2H41.632V36.7539Z" fill="white"/>
<path d="M32.7474 39.9755C32.1497 39.9755 31.5621 39.9755 30.9745 39.9654C30.6706 39.9654 30.5389 39.8134 30.5287 39.4893C30.5287 38.9523 30.5287 38.4255 30.5287 37.8582C30.5287 37.6252 30.5287 36.9667 30.5287 36.9667L29.9412 36.9363V36.1562H35.5637V36.9262H34.9761V39.0739C34.9761 39.1246 34.9761 39.1651 34.9761 39.2157C34.9761 39.3272 34.9761 39.4285 34.9761 39.5197C34.966 39.8236 34.8242 39.9654 34.5304 39.9654C33.9428 39.9654 33.3451 39.9755 32.7474 39.9755ZM31.3696 39.1347H34.1454V36.9464H31.3696V39.1347Z" fill="white"/>
</svg>
