<svg width="33" height="31" viewBox="0 0 33 31" fill="none" xmlns="http://www.w3.org/2000/svg">
<g opacity="0.65">
<path d="M24.2586 18.5757C24.2586 18.4461 24.2586 18.3251 24.2586 18.2128C24.2586 15.6813 24.2586 13.1498 24.2586 10.6097C24.2586 9.84939 24.4916 9.67659 25.2079 9.90987C26.0968 10.2036 26.9858 10.4974 27.8747 10.7911C28.3235 10.938 28.4011 11.059 28.4011 11.5169C28.4011 11.7415 28.4011 11.9662 28.4011 12.2254C29.1951 12.4241 29.9805 12.6314 30.7658 12.8215C31.0765 12.8993 31.439 12.9252 31.4908 13.3399C31.5426 13.7546 31.206 13.8756 30.9125 14.0138C30.8435 14.0484 30.7831 14.0916 30.7141 14.1348C30.9298 14.4631 31.1369 14.7741 31.3527 15.0852C31.508 15.3098 31.5685 15.5345 31.3958 15.7677C31.2319 15.9837 31.0161 16.0096 30.7572 15.9405C29.4454 15.6036 28.1336 15.2839 26.8132 14.9469C26.4507 14.8519 26.3299 14.705 26.3299 14.3335C26.3299 14.0311 26.3299 13.7287 26.3299 13.4177C25.9847 13.3054 25.6653 13.2017 25.3115 13.0807C25.3115 14.9124 25.3115 16.7181 25.3115 18.5671C25.5704 18.5671 25.8207 18.5671 26.0796 18.5671C26.701 18.5671 26.8477 18.7139 26.8477 19.3187C26.8477 22.7229 26.8477 26.1356 26.8477 29.5397C26.8477 29.6693 26.8477 29.7903 26.8477 29.9372C27.7107 29.9372 28.5478 29.9372 29.4281 29.9372C29.4281 29.3324 29.4368 28.719 29.4195 28.1142C29.4195 28.0278 29.3159 27.9327 29.2555 27.8463C27.3741 25.2976 27.4432 21.8502 29.4281 19.4224C29.7906 18.9818 30.1099 18.9818 30.4724 19.4311C32.4487 21.8502 32.5178 25.2976 30.6536 27.829C30.5414 27.9759 30.481 28.1919 30.4724 28.382C30.4465 28.8831 30.4638 29.3929 30.4638 29.9372C30.973 29.9372 31.4735 29.9372 31.9913 29.9372C31.9913 30.3001 31.9913 30.6284 31.9913 30.974C21.6695 30.974 11.3563 30.974 1.01723 30.974C1.01723 30.6543 1.01723 30.326 1.01723 29.9631C1.50916 29.9631 2.00971 29.9631 2.53616 29.9631C2.53616 29.3324 2.54479 28.7276 2.52753 28.1314C2.52753 28.0364 2.4326 27.9414 2.37218 27.8636C0.482151 25.3148 0.542563 21.8761 2.52753 19.4397C2.90726 18.9731 3.21795 18.9818 3.59769 19.4483C5.56539 21.8675 5.6258 25.3235 3.76166 27.8463C3.6581 27.9846 3.59769 28.1919 3.58905 28.3647C3.56316 28.8831 3.58042 29.3929 3.58042 29.9285C4.44345 29.9285 5.28922 29.9285 6.16951 29.9285C6.16951 29.7903 6.16951 29.6693 6.16951 29.5397C6.16951 26.1356 6.16951 22.7229 6.16951 19.3187C6.16951 18.7053 6.31623 18.5584 6.92898 18.5584C7.17926 18.5584 7.4209 18.5584 7.69707 18.5584C7.69707 16.7354 7.69707 14.9297 7.69707 13.0807C7.36049 13.193 7.03254 13.2967 6.68733 13.409C6.68733 13.7287 6.68733 14.0397 6.68733 14.3508C6.68733 14.6618 6.54061 14.8605 6.23855 14.9297C4.89223 15.2666 3.5459 15.6036 2.19958 15.9405C1.96656 16.001 1.76806 15.9492 1.62135 15.7505C1.466 15.5431 1.48326 15.3271 1.62135 15.1197C1.84574 14.7914 2.06149 14.4545 2.30314 14.1002C2.13917 14.0138 1.99245 13.9361 1.83711 13.8583C1.61272 13.746 1.48326 13.5732 1.51779 13.314C1.54368 13.0548 1.71628 12.9166 1.95793 12.8561C2.83822 12.6401 3.70988 12.4154 4.61606 12.1908C4.61606 11.923 4.62469 11.6551 4.61606 11.3873C4.60743 11.0763 4.74551 10.8775 5.03894 10.7825C6.0228 10.4628 6.99802 10.1259 7.97324 9.80619C8.45654 9.65067 8.74134 9.86667 8.74997 10.3851C8.74997 12.9598 8.74997 15.5345 8.74997 18.1178C8.74997 18.2474 8.74997 18.377 8.74997 18.5239C9.95821 18.5239 11.1492 18.5239 12.3661 18.5239C12.3661 18.0659 12.3488 17.6167 12.3747 17.1674C12.3833 16.9687 12.4437 16.7354 12.5559 16.5712C13.6865 14.9297 14.8343 13.2967 15.9735 11.6638C16.3101 11.1886 16.6898 11.1799 17.0264 11.6551C18.1742 13.2967 19.3307 14.9383 20.4613 16.5799C20.5648 16.7268 20.6166 16.9341 20.6339 17.1156C20.6598 17.5735 20.6425 18.04 20.6425 18.5152C21.8421 18.5757 23.0245 18.5757 24.2586 18.5757ZM19.5982 29.9717C19.6069 29.8853 19.6069 29.8335 19.6069 29.773C19.6069 25.6518 19.6069 21.5392 19.5982 17.418C19.5982 17.2797 19.5378 17.1242 19.4602 17.0032C18.5453 15.6813 17.6219 14.3681 16.7071 13.0548C16.6467 12.9684 16.5776 12.8906 16.5 12.787C16.4137 12.8993 16.3533 12.977 16.2928 13.0634C15.3867 14.3594 14.4718 15.6554 13.5743 16.96C13.4707 17.1069 13.4103 17.3143 13.4103 17.4871C13.4017 21.5306 13.4017 25.574 13.4017 29.6175C13.4017 29.7298 13.4017 29.8421 13.4017 29.9545C13.7642 29.9545 14.0835 29.9545 14.4373 29.9545C14.4373 29.8249 14.4373 29.7039 14.4373 29.5916C14.4373 28.5548 14.4373 27.518 14.4373 26.4899C14.4373 26.0233 14.6186 25.8332 15.076 25.8332C16.0339 25.8332 16.9919 25.8332 17.9499 25.8332C18.39 25.8332 18.5712 26.0233 18.5712 26.4726C18.5712 27.518 18.5712 28.5634 18.5712 29.6089C18.5712 29.7212 18.5712 29.8421 18.5712 29.9631C18.9251 29.9717 19.2444 29.9717 19.5982 29.9717ZM7.22241 19.6471C7.22241 23.103 7.22241 26.5331 7.22241 29.9545C8.94846 29.9545 10.6573 29.9545 12.3488 29.9545C12.3488 26.5071 12.3488 23.0857 12.3488 19.6471C10.6314 19.6471 8.93983 19.6471 7.22241 19.6471ZM20.6598 19.6298C20.6598 23.103 20.6598 26.5331 20.6598 29.9545C22.3858 29.9545 24.0946 29.9545 25.7862 29.9545C25.7862 26.5071 25.7862 23.0857 25.7862 19.6471C25.7171 19.6384 25.6653 19.6384 25.6136 19.6384C23.9738 19.6298 22.3254 19.6298 20.6598 19.6298ZM15.4902 26.8959C15.4902 27.9414 15.4902 28.9522 15.4902 29.9631C16.1806 29.9631 16.8538 29.9631 17.5183 29.9631C17.5183 28.9263 17.5183 27.9241 17.5183 26.8959C16.8365 26.8959 16.1806 26.8959 15.4902 26.8959ZM3.58042 26.0665C4.46934 24.3904 4.12413 21.7465 3.03672 20.5283C1.87163 22.0921 1.73354 24.5804 2.54479 26.0665C2.54479 25.1075 2.54479 24.2003 2.54479 23.2758C2.89863 23.2758 3.21795 23.2758 3.57179 23.2758C3.58042 24.2003 3.58042 25.1075 3.58042 26.0665ZM29.3505 26.0147C29.3764 26.0147 29.4109 26.0147 29.4368 26.0147C29.4368 25.1075 29.4368 24.1916 29.4368 23.2758C29.7906 23.2758 30.1099 23.2758 30.4638 23.2758C30.4638 24.2003 30.4638 25.1075 30.4638 26.0665C31.3613 24.3472 30.9902 21.712 29.9028 20.5024C28.7981 22.2649 28.6083 24.0966 29.3505 26.0147ZM5.64306 14.057C5.64306 13.746 5.65169 13.4609 5.64306 13.1844C5.63443 12.8561 5.77252 12.6574 6.08321 12.5623C6.55787 12.4154 7.02391 12.2599 7.48995 12.0871C7.57625 12.0526 7.69707 11.9489 7.7057 11.8711C7.73159 11.6119 7.71433 11.3441 7.71433 11.0417C7.23967 11.1972 6.81678 11.3441 6.38527 11.4823C5.65169 11.7243 5.65169 11.7243 5.64306 12.4932C5.64306 12.9425 5.5395 13.0721 5.09072 13.1844C4.56428 13.3226 4.03783 13.4522 3.51138 13.5905C3.58042 13.9102 3.58042 13.9102 3.2611 14.6532C4.06372 14.4458 4.84045 14.2557 5.64306 14.057ZM25.2942 11.0417C25.2942 11.3268 25.277 11.5774 25.3029 11.8193C25.3115 11.9143 25.4151 12.0439 25.5014 12.0785C25.976 12.2599 26.4507 12.4154 26.934 12.571C27.2274 12.666 27.3655 12.8647 27.3655 13.1758C27.3569 13.4695 27.3655 13.7546 27.3655 14.0657C28.1681 14.2644 28.9535 14.4631 29.7906 14.6705C29.5921 14.2989 29.2555 14.0311 29.549 13.6078C28.988 13.4695 28.4874 13.3486 27.9955 13.219C27.4518 13.0807 27.3655 12.9684 27.3655 12.4154C27.3655 12.2426 27.3828 12.0698 27.3569 11.8971C27.3482 11.8193 27.2878 11.707 27.2188 11.6897C26.5888 11.4651 25.9588 11.2577 25.2942 11.0417Z" fill="white"/>
<path d="M25.8035 3.62005C25.8035 4.48404 25.8035 5.31348 25.8035 6.16019C25.4583 6.16019 25.139 6.16019 24.7765 6.16019C24.7765 5.41715 24.7765 4.67412 24.7765 3.90517C24.1119 4.08661 23.4733 4.25941 22.8519 4.44948C22.7829 4.46676 22.7138 4.62228 22.7138 4.71732C22.6793 5.23572 22.7138 5.75411 22.6448 6.26387C22.4118 7.92273 20.9533 9.24464 19.2704 9.27919C17.4321 9.31376 15.5852 9.32239 13.747 9.27919C11.9001 9.236 10.3725 7.66353 10.3121 5.81459C10.3035 5.46899 10.2862 5.1234 10.3121 4.7778C10.3294 4.52724 10.2258 4.44084 10.0101 4.389C9.07798 4.13845 8.14591 3.87061 7.21384 3.62005C6.92904 3.54229 6.70466 3.41269 6.69603 3.09302C6.68739 2.74742 6.92904 2.62646 7.22247 2.54006C10.2258 1.71063 13.2292 0.863921 16.2325 0.0431292C16.4137 -0.00871028 16.6381 -7.03698e-05 16.828 0.0517691C19.8054 0.863921 22.7915 1.69335 25.769 2.52278C26.0451 2.60054 26.2868 2.70422 26.3127 3.03254C26.3472 3.36949 26.1228 3.53365 25.8035 3.62005ZM23.8013 3.09302C23.6977 3.04118 23.6718 3.0239 23.6373 3.01526C21.3157 2.36727 19.0028 1.71927 16.6813 1.07992C16.5432 1.04536 16.3792 1.06264 16.2411 1.0972C14.4288 1.59831 12.6164 2.09943 10.804 2.60054C10.2949 2.73878 9.78567 2.88566 9.26785 3.0239C9.35415 3.11894 9.44046 3.1535 9.52676 3.17942C11.7275 3.79285 13.9368 4.40628 16.1462 5.00244C16.3619 5.06292 16.6122 5.06292 16.828 5.00244C18.1139 4.66548 19.3998 4.30261 20.6857 3.94837C21.7041 3.68053 22.7138 3.39541 23.8013 3.09302ZM21.73 4.76916C21.566 4.80372 21.4883 4.81236 21.402 4.83828C19.909 5.253 18.4246 5.67635 16.9229 6.07379C16.664 6.14291 16.3706 6.14291 16.1117 6.08243C15.3781 5.90963 14.6618 5.68499 13.9368 5.48627C13.0824 5.253 12.2194 5.01108 11.3391 4.76916C11.3391 5.11476 11.3305 5.42579 11.3391 5.73683C11.3736 7.10194 12.4783 8.22513 13.8419 8.24241C15.6197 8.26833 17.3976 8.25969 19.1754 8.24241C20.2715 8.23377 21.264 7.49073 21.5401 6.42802C21.6782 5.90099 21.6696 5.34803 21.73 4.76916Z" fill="white"/>
<path d="M15.4559 19.6211C15.1193 19.6211 14.8 19.6211 14.4634 19.6211C14.4634 19.2928 14.4634 18.9645 14.4634 18.6189C14.7913 18.6189 15.1193 18.6189 15.4559 18.6189C15.4559 18.9472 15.4559 19.2669 15.4559 19.6211Z" fill="white"/>
<path d="M17.5527 18.6017C17.8979 18.6017 18.2086 18.6017 18.5452 18.6017C18.5452 18.93 18.5452 19.2583 18.5452 19.6039C18.2259 19.6039 17.9066 19.6039 17.5527 19.6039C17.5527 19.2842 17.5527 18.9559 17.5527 18.6017Z" fill="white"/>
<path d="M15.4471 22.7228C15.1019 22.7228 14.7825 22.7228 14.4546 22.7228C14.4546 22.3945 14.4546 22.0748 14.4546 21.7292C14.7739 21.7292 15.1019 21.7292 15.4471 21.7292C15.4471 22.0489 15.4471 22.3686 15.4471 22.7228Z" fill="white"/>
<path d="M17.5615 21.712C17.8981 21.712 18.2174 21.712 18.554 21.712C18.554 22.049 18.554 22.3773 18.554 22.7143C18.2261 22.7143 17.9067 22.7143 17.5615 22.7143C17.5615 22.4032 17.5615 22.0749 17.5615 21.712Z" fill="white"/>
<path d="M8.24072 21.6861C8.24072 21.3491 8.24072 21.0295 8.24072 20.6925C8.56867 20.6925 8.89662 20.6925 9.24184 20.6925C9.24184 21.0208 9.24184 21.3405 9.24184 21.6861C8.91389 21.6861 8.60319 21.6861 8.24072 21.6861Z" fill="white"/>
<path d="M11.3133 21.6861C10.9767 21.6861 10.6574 21.6861 10.3208 21.6861C10.3208 21.3578 10.3208 21.0294 10.3208 20.6838C10.6488 20.6838 10.9681 20.6838 11.3133 20.6838C11.3133 21.0122 11.3133 21.3318 11.3133 21.6861Z" fill="white"/>
<path d="M9.2503 23.7942C9.2503 24.1311 9.2503 24.4508 9.2503 24.7878C8.92234 24.7878 8.60302 24.7878 8.25781 24.7878C8.25781 24.4681 8.25781 24.1398 8.25781 23.7942C8.5685 23.7942 8.89645 23.7942 9.2503 23.7942Z" fill="white"/>
<path d="M10.3208 23.7856C10.6574 23.7856 10.9767 23.7856 11.3133 23.7856C11.3133 24.114 11.3133 24.4336 11.3133 24.7792C10.994 24.7792 10.666 24.7792 10.3208 24.7792C10.3208 24.4682 10.3208 24.1399 10.3208 23.7856Z" fill="white"/>
<path d="M22.6964 20.6838C22.6964 21.0208 22.6964 21.3405 22.6964 21.6774C22.3685 21.6774 22.0405 21.6774 21.6953 21.6774C21.6953 21.3491 21.6953 21.0294 21.6953 20.6838C22.0233 20.6838 22.334 20.6838 22.6964 20.6838Z" fill="white"/>
<path d="M23.7495 21.6861C23.7495 21.3492 23.7495 21.0381 23.7495 20.7012C24.0775 20.7012 24.4054 20.7012 24.7506 20.7012C24.7506 21.0122 24.7506 21.3405 24.7506 21.6861C24.4313 21.6861 24.1034 21.6861 23.7495 21.6861Z" fill="white"/>
<path d="M22.6964 23.7856C22.6964 24.1226 22.6964 24.4423 22.6964 24.7879C22.3598 24.7879 22.0405 24.7879 21.6953 24.7879C21.6953 24.4596 21.6953 24.1312 21.6953 23.7856C22.0233 23.7856 22.3426 23.7856 22.6964 23.7856Z" fill="white"/>
<path d="M24.7591 23.7942C24.7591 24.1398 24.7591 24.4595 24.7591 24.7878C24.4311 24.7878 24.1118 24.7878 23.7666 24.7878C23.7666 24.4681 23.7666 24.1398 23.7666 23.7942C24.0859 23.7942 24.4052 23.7942 24.7591 23.7942Z" fill="white"/>
</g>
</svg>
