<svg width="22" height="22" viewBox="0 0 22 22" fill="none" xmlns="http://www.w3.org/2000/svg">
<path d="M13.0641 3.86719C13.2752 3.96475 13.3487 4.12938 13.3364 4.35804C13.3242 4.55926 13.3364 4.76353 13.3334 4.96475C13.3303 5.19037 13.1773 5.35195 12.9661 5.35195C12.758 5.35195 12.6019 5.19037 12.5988 4.96475C12.5958 4.76353 12.608 4.55926 12.5958 4.35804C12.5835 4.13243 12.657 3.96475 12.8682 3.86719C12.9324 3.86719 12.9967 3.86719 13.0641 3.86719Z" fill="#828282"/>
<path d="M9.58399 9.69539C10.1594 9.37527 10.7348 9.07039 11.2949 8.74417C11.5856 8.57649 11.7815 8.30514 11.8672 7.98197C12.0019 7.46977 12.1121 6.95148 12.2284 6.43318C12.2865 6.18013 12.4181 6.07342 12.6752 6.08257C13.5353 6.11306 14.2912 6.79904 14.4106 7.6527C14.4657 8.05209 14.4014 8.43624 14.2698 8.81124C14.1596 9.12527 14.0311 9.43015 13.9056 9.75027C13.9484 9.75332 13.9913 9.75637 14.0311 9.75637C14.634 9.75637 15.237 9.75637 15.8399 9.75637C16.3021 9.75637 16.6632 9.9454 16.8744 10.3631C17.0672 10.7442 17.0366 11.1253 16.7918 11.4789C16.7367 11.5582 16.7275 11.6039 16.7887 11.6863C17.0642 12.0491 17.0642 12.5796 16.7887 12.9454C16.7397 13.0094 16.7183 13.0521 16.7795 13.1314C17.2141 13.7137 16.9662 14.543 16.2806 14.796C16.2531 14.8052 16.2286 14.8174 16.2164 14.8204C16.2286 15.0003 16.2684 15.1741 16.25 15.3418C16.1858 15.921 15.7511 16.3204 15.1666 16.3265C14.0586 16.3357 12.9507 16.3387 11.8427 16.3204C11.0592 16.3082 10.2879 16.168 9.53808 15.9363C9.46156 15.9119 9.41566 15.9241 9.36056 15.9851C9.14632 16.2137 8.88005 16.3296 8.56786 16.3296C7.8425 16.3326 7.11713 16.3326 6.39482 16.3296C6.14997 16.3296 6 16.1802 6 15.9332C6 13.7625 6 11.5917 6 9.42405C6 9.18015 6.14997 9.03076 6.39788 9.03076C7.11407 9.02771 7.83025 9.02466 8.5495 9.03076C9.02084 9.03076 9.3575 9.25942 9.58399 9.69539ZM12.8925 6.86611C12.8344 7.13136 12.767 7.39355 12.7211 7.6588C12.5559 8.61612 12.0233 9.28076 11.1418 9.69235C10.6736 9.90881 10.2298 10.1771 9.77375 10.418C9.69111 10.4606 9.66051 10.5094 9.66051 10.6039C9.66357 12.0978 9.66357 13.5887 9.66357 15.0826C9.66357 15.1223 9.66357 15.1619 9.66357 15.1985C9.68193 15.2107 9.69111 15.2168 9.70335 15.2198C10.4226 15.4363 11.1572 15.5796 11.9101 15.5887C12.9843 15.604 14.0586 15.5948 15.136 15.5948C15.3594 15.5948 15.5185 15.4485 15.5277 15.2442C15.5369 15.043 15.3869 14.8844 15.1635 14.8662C14.9401 14.8448 14.7901 14.6924 14.7962 14.4912C14.8024 14.2838 14.9646 14.1375 15.1972 14.1375C15.4175 14.1344 15.6379 14.1375 15.8583 14.1375C16.097 14.1344 16.2623 13.9881 16.2623 13.7747C16.2623 13.5613 16.1001 13.4088 15.8613 13.4088C15.641 13.4058 15.4206 13.4088 15.2002 13.4088C14.9615 13.4058 14.7962 13.2594 14.7962 13.046C14.7962 12.8326 14.9584 12.6802 15.1972 12.6802C15.4175 12.6771 15.6379 12.6802 15.8583 12.6802C16.097 12.6771 16.2623 12.5308 16.2623 12.3174C16.2623 12.1039 16.1001 11.9515 15.8613 11.9515C15.6379 11.9485 15.4145 11.9515 15.188 11.9515C14.9584 11.9485 14.7962 11.796 14.7962 11.5887C14.7962 11.3814 14.9584 11.2259 15.1849 11.2228C15.39 11.2198 15.592 11.2228 15.7971 11.2228C16.0909 11.2228 16.2623 11.0887 16.2623 10.86C16.2623 10.6283 16.0909 10.4942 15.8001 10.4942C14.7411 10.4942 13.6822 10.4942 12.6232 10.4942C12.3936 10.4942 12.2314 10.3387 12.2314 10.1314C12.2314 9.92405 12.3936 9.76857 12.6201 9.76552C12.7517 9.76247 12.8803 9.76247 13.0119 9.76552C13.0792 9.76857 13.1129 9.74418 13.1374 9.6832C13.2292 9.45149 13.3424 9.22283 13.4251 8.98807C13.523 8.70149 13.6271 8.41185 13.6822 8.11612C13.7832 7.56124 13.4128 7.00026 12.8925 6.86611ZM6.73761 15.5979C7.33749 15.5979 7.92207 15.5979 8.50971 15.5979C8.79435 15.5979 8.93208 15.4546 8.93208 15.168C8.93208 13.5064 8.93208 11.8417 8.93208 10.1802C8.93208 9.89662 8.79129 9.75637 8.50359 9.75637C7.95268 9.75637 7.40483 9.75637 6.85391 9.75637C6.81413 9.75637 6.7774 9.75942 6.73455 9.76247C6.73761 11.7106 6.73761 13.6466 6.73761 15.5979Z" fill="#828282"/>
<path d="M11.6652 5.60717C11.6408 5.76266 11.5734 5.87241 11.4418 5.93339C11.3102 5.99741 11.1694 5.99132 11.0654 5.89375C10.8634 5.70778 10.6644 5.51265 10.4777 5.30839C10.3522 5.17119 10.3767 4.96387 10.5083 4.83277C10.6369 4.70472 10.8511 4.68033 10.9858 4.80229C11.1908 4.98826 11.3837 5.18643 11.5704 5.38765C11.6224 5.44558 11.6346 5.534 11.6652 5.60717Z" fill="#828282"/>
<path d="M15.1206 4.72656C15.3135 4.73571 15.4236 4.79973 15.491 4.93083C15.5583 5.06803 15.5491 5.20522 15.4481 5.31803C15.2645 5.51315 15.0778 5.70523 14.8788 5.88511C14.735 6.01925 14.5177 5.99791 14.383 5.85767C14.2545 5.72352 14.2422 5.51315 14.3708 5.37291C14.5483 5.18388 14.7319 4.99791 14.9248 4.82412C14.986 4.76925 15.0778 4.7479 15.1206 4.72656Z" fill="#828282"/>
<path d="M7.83608 14.8693C7.63713 14.8724 7.4688 14.7077 7.46574 14.5096C7.46268 14.3114 7.62795 14.1437 7.82689 14.1407C8.02583 14.1376 8.19417 14.3023 8.19723 14.5004C8.20029 14.6986 8.03502 14.8663 7.83608 14.8693Z" fill="#828282"/>
<circle cx="11" cy="11" r="10.25" stroke="#828282" stroke-width="0.5"/>
</svg>
