<svg width="22" height="22" viewBox="0 0 22 22" fill="none" xmlns="http://www.w3.org/2000/svg">
<path d="M10.1172 10.1172L9.6172 10.6172L9.11732 14.1172L9.61737 15.6172L12.1174 16.1171L14.6174 16.117L15.6174 16.117L16.1174 15.6169L16.1173 14.6169L16.6173 14.1169L16.6173 13.1169L16.6173 12.1169L16.6172 11.6169L16.6172 11.1169L16.6172 10.6169L15.6172 10.117L13.6172 10.117L13.6172 9.61703L14.1172 9.11702L14.1171 7.61702L13.6171 6.61703L12.6171 6.61707L12.1171 8.11709L11.6172 9.1171L11.1172 9.61712L10.1172 10.1172Z" fill="#FFD8D8"/>
<path d="M13.181 3.98436C13.3922 4.08191 13.4656 4.24655 13.4534 4.47521C13.4412 4.67643 13.4534 4.8807 13.4504 5.08192C13.4473 5.30753 13.2943 5.46912 13.0831 5.46913C12.875 5.46913 12.7189 5.30755 12.7158 5.08194C12.7127 4.88072 12.725 4.67645 12.7127 4.47523C12.7005 4.24962 12.7739 4.08193 12.9851 3.98437C13.0494 3.98436 13.1137 3.98436 13.181 3.98436Z" fill="#FF7474"/>
<path d="M8.11707 9.61714L6.61707 9.61719L6.6171 10.6172L6.61713 11.6172L6.61727 15.6172L6.61729 16.1172L7.11729 16.1172L9.11729 16.1171L9.11727 15.6171L9.61725 15.1171L9.61722 14.1171L9.61717 12.6171L9.61713 11.6171L9.6171 10.6171L9.61708 10.1171L9.11707 9.6171L8.61707 9.61712L8.11707 9.61714Z" fill="white"/>
<path d="M11.7822 5.72431C11.7577 5.8798 11.6904 5.98956 11.5588 6.05054C11.4272 6.11457 11.2864 6.10848 11.1823 6.01092C10.9803 5.82495 10.7814 5.62983 10.5947 5.42557C10.4692 5.28838 10.4937 5.08106 10.6253 4.94996C10.7538 4.8219 10.9681 4.79751 11.1027 4.91945C11.3078 5.10542 11.5006 5.30359 11.6873 5.5048C11.7394 5.56273 11.7516 5.65114 11.7822 5.72431Z" fill="#FF7474"/>
<path d="M15.2376 4.84372C15.4304 4.85286 15.5406 4.91688 15.6079 5.04798C15.6753 5.18517 15.6661 5.32237 15.5651 5.43518C15.3815 5.63031 15.1948 5.82239 14.9958 6.00227C14.852 6.13642 14.6347 6.11509 14.5 5.97485C14.3715 5.84071 14.3592 5.63034 14.4877 5.49009C14.6653 5.30106 14.8489 5.11508 15.0417 4.94129C15.1029 4.88641 15.1947 4.86506 15.2376 4.84372Z" fill="#FF7474"/>
<path d="M7.95341 14.9865C7.75447 14.9896 7.58613 14.8249 7.58306 14.6268C7.57999 14.4286 7.74526 14.2609 7.9442 14.2578C8.14314 14.2548 8.31148 14.4194 8.31455 14.6176C8.31762 14.8158 8.15235 14.9834 7.95341 14.9865Z" fill="#FF7474"/>
<circle cx="11.1172" cy="11.1168" r="10.25" stroke="#FF7474" stroke-width="0.5"/>
<path d="M9.70106 9.81246C10.2764 9.49232 10.8518 9.18742 11.4119 8.86118C11.7027 8.69348 11.8985 8.42213 11.9842 8.09896C12.1189 7.58676 12.229 7.06846 12.3453 6.55016C12.4035 6.29711 12.5351 6.19039 12.7922 6.19953C13.6522 6.22999 14.4082 6.91594 14.5276 7.7696C14.5827 8.16899 14.5184 8.55314 14.3868 8.92815C14.2767 9.24218 14.1481 9.54706 14.0227 9.86719C14.0655 9.87024 14.1084 9.87329 14.1481 9.87329C14.7511 9.87326 15.354 9.87324 15.957 9.87322C16.4191 9.87321 16.7803 10.0622 16.9915 10.4799C17.1843 10.861 17.1537 11.2421 16.9089 11.5958C16.8538 11.675 16.8446 11.7208 16.9058 11.8031C17.1813 12.1659 17.1813 12.6964 16.9059 13.0622C16.8569 13.1263 16.8355 13.1689 16.8967 13.2482C17.3313 13.8305 17.0834 14.6598 16.3979 14.9129C16.3703 14.922 16.3458 14.9342 16.3336 14.9373C16.3458 15.1171 16.3856 15.2909 16.3673 15.4586C16.303 16.0379 15.8684 16.4373 15.2839 16.4434C14.1759 16.4526 13.068 16.4557 11.96 16.4374C11.1765 16.4253 10.4052 16.285 9.65536 16.0533C9.57884 16.029 9.53293 16.0412 9.47784 16.1021C9.26361 16.3308 8.99734 16.4467 8.68515 16.4467C7.95979 16.4498 7.23442 16.4498 6.51211 16.4468C6.26726 16.4468 6.11729 16.2974 6.11728 16.0504C6.1172 13.8797 6.11713 11.7089 6.11706 9.54124C6.11705 9.29734 6.26701 9.14794 6.51492 9.14793C7.23111 9.14486 7.9473 9.14178 8.66654 9.14786C9.13788 9.14784 9.47455 9.37649 9.70106 9.81246ZM13.0095 6.98307C12.9514 7.24831 12.884 7.51051 12.8381 7.77576C12.6729 8.73309 12.1404 9.39774 11.2589 9.80936C10.7906 10.0258 10.3469 10.2941 9.89084 10.535C9.8082 10.5777 9.7776 10.6265 9.7776 10.721C9.78071 12.2149 9.78076 13.7058 9.78081 15.1997C9.78082 15.2393 9.78082 15.279 9.78082 15.3155C9.79918 15.3277 9.80837 15.3338 9.82061 15.3369C10.5399 15.5533 11.2744 15.6966 12.0273 15.7057C13.1016 15.7209 14.1759 15.7117 15.2532 15.7117C15.4767 15.7117 15.6358 15.5653 15.645 15.3611C15.6541 15.1598 15.5042 15.0013 15.2807 14.983C15.0573 14.9617 14.9073 14.8093 14.9135 14.608C14.9196 14.4007 15.0818 14.2544 15.3144 14.2544C15.5348 14.2513 15.7551 14.2544 15.9755 14.2543C16.2142 14.2513 16.3795 14.1049 16.3795 13.8915C16.3795 13.6781 16.2172 13.5257 15.9785 13.5257C15.7582 13.5226 15.5378 13.5257 15.3174 13.5257C15.0787 13.5227 14.9134 13.3763 14.9134 13.1629C14.9134 12.9495 15.0756 12.7971 15.3143 12.797C15.5347 12.794 15.7551 12.797 15.9754 12.797C16.2142 12.794 16.3794 12.6476 16.3794 12.4342C16.3794 12.2208 16.2172 12.0683 15.9785 12.0684C15.755 12.0653 15.5316 12.0684 15.3051 12.0684C15.0756 12.0653 14.9134 11.9129 14.9134 11.7056C14.9134 11.4983 15.0756 11.3428 15.302 11.3397C15.5071 11.3367 15.7091 11.3397 15.9142 11.3397C16.208 11.3397 16.3794 11.2055 16.3794 10.9769C16.3794 10.7452 16.208 10.611 15.9172 10.611C14.8582 10.6111 13.7993 10.6111 12.7403 10.6111C12.5107 10.6111 12.3485 10.4557 12.3485 10.2483C12.3485 10.041 12.5107 9.88554 12.7372 9.88248C12.8688 9.87943 12.9973 9.87942 13.129 9.88247C13.1963 9.88551 13.23 9.86112 13.2544 9.80014C13.3462 9.56843 13.4595 9.33977 13.5421 9.10501C13.64 8.81842 13.7441 8.52878 13.7992 8.23304C13.9002 7.67816 13.5298 7.11719 13.0095 6.98307ZM6.85488 15.715C7.45476 15.715 8.03934 15.715 8.62698 15.715C8.91162 15.715 9.04934 15.5717 9.04933 15.2851C9.04927 13.6235 9.04922 11.9588 9.04916 10.2972C9.04915 10.0137 8.90836 9.87346 8.62066 9.87347C8.06975 9.87349 7.52189 9.87351 6.97098 9.87353C6.93119 9.87353 6.89447 9.87658 6.85162 9.87963C6.85474 11.8278 6.85481 13.7638 6.85488 15.715Z" fill="#FF7474"/>
</svg>
