<svg width="17" height="16" viewBox="0 0 17 16" fill="none" xmlns="http://www.w3.org/2000/svg">
<path d="M2.73352 7.10507C2.50723 7.10415 2.26233 7.10303 1.99882 7.10173C1.63085 7.10173 1.33255 7.40003 1.33255 7.768V13.9866C1.33255 14.3545 1.63085 14.6528 1.99882 14.6528H2.73352V7.10507ZM4.06607 7.10845V14.6528H12.8993C13.2169 14.6528 13.4904 14.4287 13.5526 14.1172L14.7964 7.89867C14.805 7.85564 14.8093 7.81188 14.8093 7.768C14.8093 7.40003 14.511 7.10173 14.143 7.10173H10.6612C10.5757 7.10173 10.4904 7.09258 10.4068 7.07443C9.75947 6.9339 9.34866 6.29523 9.48922 5.64798C9.92497 3.64081 10.0179 2.31834 9.81554 1.78633C9.61851 1.26834 8.63484 1.19416 8.23926 1.58139C8.18068 1.63874 8.14021 1.8234 8.10548 2.38166C8.0305 3.58686 7.91609 4.18811 7.46488 4.98653C7.1046 5.62405 5.15302 6.94129 5.09182 6.96613C5.03061 6.99097 4.87369 7.08827 4.79534 7.10173C4.76939 7.10618 4.5263 7.10843 4.06607 7.10845V7.10845ZM14.143 5.76918C15.2469 5.76918 16.1418 6.66408 16.1418 7.768C16.1418 7.89963 16.1288 8.03093 16.103 8.16L14.8593 14.3786C14.6725 15.3128 13.8521 15.9854 12.8993 15.9854H1.99882C0.894902 15.9854 0 15.0905 0 13.9866V7.768C0 6.66408 0.894902 5.76918 1.99882 5.76918H4.48579C5.49387 5.18172 6.10566 4.68325 6.30477 4.33092C6.62736 3.7601 6.71241 3.31315 6.7755 2.29892C6.83242 1.38407 6.9134 1.01455 7.30711 0.629145C8.327 -0.369225 10.4832 -0.206624 11.061 1.31257C11.3792 2.14913 11.2862 3.60189 10.8261 5.76918L14.143 5.76918Z" fill="#606060"/>
</svg>
