<svg width="25" height="29" viewBox="0 0 25 29" fill="none" xmlns="http://www.w3.org/2000/svg">
<path d="M19.9414 21.1154V23.4466C19.9414 25.5925 19.9414 26.6654 19.2518 27.2635C18.5622 27.8616 17.5 27.7098 15.3757 27.4064L6.1517 26.0886C3.69557 25.7378 2.46751 25.5623 1.73387 24.7164C1.00023 23.8705 1.00023 22.63 1.00023 20.1489L1.00023 8.90943C1.00023 6.42836 1.00023 5.18782 1.73387 4.34193C2.46751 3.49604 3.69557 3.3206 6.1517 2.96973L15.3757 1.65201C17.5 1.34853 18.5622 1.1968 19.2518 1.79488C19.9414 2.39296 19.9414 3.46591 19.9414 5.61181V7.67523" stroke="white" stroke-width="1.2"/>
<path d="M7.76465 14.5283L7.29613 14.9031L6.99627 14.5283L7.29613 14.1534L7.76465 14.5283ZM23.9999 13.9283C24.3313 13.9283 24.5999 14.1969 24.5999 14.5283C24.5999 14.8596 24.3313 15.1283 23.9999 15.1283V13.9283ZM12.7079 21.6678L7.29613 14.9031L8.23317 14.1534L13.6449 20.9182L12.7079 21.6678ZM7.29613 14.1534L12.7079 7.38874L13.6449 8.13837L8.23317 14.9031L7.29613 14.1534ZM7.76465 13.9283L23.9999 13.9283V15.1283L7.76465 15.1283V13.9283Z" fill="white"/>
</svg>
