<svg width="261" height="39" viewBox="0 0 261 39" fill="none" xmlns="http://www.w3.org/2000/svg">
<path d="M240.316 26.1194C240.316 29.2288 240.36 32.3827 240.316 35.4921C240.271 36.958 239.694 38.2462 238.228 38.7792C237.517 39.0458 236.584 39.0457 235.829 38.9125C233.519 38.5571 231.254 38.0685 228.944 37.6243C226.545 37.1801 224.146 36.7803 221.748 36.3361C220.326 36.0696 219.704 35.0479 220.193 33.6709C222.592 26.7412 227.211 22.2992 234.452 20.8777C235.696 20.6556 236.94 20.5224 238.183 20.4779C239.338 20.4335 240.093 21.1887 240.093 22.388C240.093 23.6318 240.271 24.3425 240.271 25.5863C240.316 25.8528 240.316 25.9861 240.316 26.1194Z" fill="#A87E33"/>
<path d="M253.375 20.167C254.264 20.1226 255.33 20.0338 256.396 19.9449C258.75 19.7673 260.838 20.8778 260.571 23.8984C260.172 28.0739 259.861 32.205 259.55 36.3806C259.416 37.9797 258.617 38.6016 257.018 38.3795C253.775 37.9353 250.754 36.8248 248.089 34.9147C245.157 32.7825 243.114 29.984 242.048 26.5192C241.693 25.3643 241.426 24.2093 241.16 23.0544C240.849 21.7218 241.47 20.7889 242.847 20.5668C242.936 20.5668 243.07 20.5224 243.158 20.5224C246.49 20.3891 249.822 20.3003 253.375 20.167Z" fill="#A87E33"/>
<path d="M237.028 19.8116C232.542 19.9004 228.055 19.9893 223.569 20.0781C223.169 20.0781 222.725 20.0781 222.325 20.0781C220.77 19.9893 220.282 18.479 220.415 17.4573C220.815 14.5699 221.17 11.6826 221.614 8.79526C221.792 7.41822 221.97 5.99676 222.325 4.66414C222.681 3.28711 223.747 2.70964 225.124 3.02058C229.566 3.99784 233.43 5.99676 236.362 9.59483C238.272 11.9935 239.205 14.792 239.694 17.7682C239.916 19.012 239.249 19.7227 238.006 19.8116C237.695 19.856 237.384 19.8116 237.073 19.8116C237.028 19.8116 237.028 19.8116 237.028 19.8116Z" fill="#A87E33"/>
<path d="M240.538 11.0607C240.538 9.10616 240.582 7.15165 240.538 5.19714C240.493 3.10938 242.092 2.44307 243.558 2.66517C248.089 3.3759 252.664 4.13105 257.195 4.8862C259.105 5.19714 259.949 6.57418 259.283 8.35101C257.995 11.727 255.863 14.4811 252.842 16.5244C249.955 18.5233 246.668 19.3229 243.247 19.6783C241.515 19.8559 240.626 19.1008 240.582 17.324C240.538 15.2806 240.538 13.1929 240.538 11.0607Z" fill="#A87E33"/>
<path d="M16.1691 13.2372H14.57C13.8148 13.2372 13.1929 12.9707 12.6599 12.3932C12.2601 11.949 11.9936 11.4604 11.8603 10.9273C11.3717 8.66189 10.3944 7.50696 8.97296 7.50696C7.86245 7.50696 7.1073 8.21769 6.66309 9.55031H10.3944V11.9934C10.3944 13.5037 9.9058 14.7919 8.88412 15.9025C7.90687 16.9685 6.66309 17.546 5.24163 17.546C3.82017 17.546 2.62082 17.013 1.59914 15.9025C0.577468 14.8364 0.0888412 13.5482 0.0888412 11.9934C0.0888412 11.5048 0.0444206 10.7052 0 9.59473H2.04335C2.04335 9.90567 2.04335 10.3943 2.04335 10.9718C2.04335 11.5492 2.08777 11.8602 2.08777 11.9934C2.08777 13.0151 2.44313 13.9035 3.15386 14.5254C3.77575 15.1029 4.44206 15.3694 5.19721 15.3694C5.99678 15.3694 6.66309 15.1029 7.28498 14.5254C7.99571 13.8591 8.35107 13.0151 8.35107 11.949V11.5048H4.21996C4.21996 9.55031 4.66416 8.04001 5.50816 6.92949C6.35215 5.90782 7.46266 5.41919 8.92854 5.41919C10.4833 5.41919 11.6826 6.04108 12.5266 7.24043C12.9708 7.90674 13.3706 8.884 13.6815 10.0834C13.9037 10.9273 14.4367 11.3271 15.2807 11.3271H16.1691V13.2372ZM5.01953 20.922H3.15386V18.9675H5.01953V20.922ZM7.86245 20.922H5.99678V18.9675H7.86245V20.922Z" fill="#105F43"/>
<path d="M21.3219 10.7054C21.3219 12.2601 20.3891 13.2374 18.7011 13.2374H15.636V11.3273H17.9459C18.7011 11.3273 19.2785 10.8386 19.2785 9.99466C19.2785 9.23951 19.2785 8.5732 19.2785 8.04015C19.2785 7.24058 19.2785 6.57427 19.2341 6.08564H21.3219C21.3219 9.19509 21.3219 10.7498 21.3219 10.7054ZM21.1442 4.57534H19.2341V2.57642H21.1442V4.57534Z" fill="#105F43"/>
<path d="M28.3848 13.2373H25.9861C25.453 13.2373 24.9644 13.0596 24.609 12.6598C24.1648 12.26 23.9427 11.6826 23.9427 10.9274L23.8983 0.621826H25.9861L26.0749 10.1278C26.0749 10.8386 26.4303 11.3716 26.9633 11.3716H28.4292V13.2373H28.3848Z" fill="#105F43"/>
<path d="M37.4466 13.2373H35.5366C34.9591 13.2373 34.426 12.9708 34.0262 12.4822C33.8041 12.2157 33.6265 11.9491 33.5376 11.6382C33.2267 12.6155 32.205 13.1929 31.0945 13.2373H27.985V11.3273H30.2949C30.6503 11.3273 31.0056 11.2384 31.3166 11.0163C31.7164 10.7498 31.9385 10.3944 31.9385 9.95022L31.8941 6.08562H33.9374C33.9374 6.79635 33.9374 7.81803 33.9818 9.15065C33.9818 9.81696 34.1595 10.3944 34.6037 10.7942C34.9147 11.1496 35.27 11.3273 35.6698 11.3273H37.4466V11.8159V12.7487V13.2373ZM32.4271 4.5309H30.5614V2.5764H32.4271V4.5309ZM33.893 1.95451H31.9829V0H33.893V1.95451ZM35.27 4.5309H33.4044V2.5764H35.27V4.5309Z" fill="#105F43"/>
<path d="M41.8442 10.7055C41.8442 12.2603 40.9114 13.2375 39.2234 13.2375H37.1356V11.3274H38.4682C39.2234 11.3274 39.8009 10.8388 39.8009 9.99481C39.8009 8.79545 39.8009 7.24073 39.7564 5.28622C39.7564 3.10961 39.712 1.55489 39.712 0.577637H41.7554C41.7554 1.46605 41.7554 3.15403 41.7998 5.64159C41.7998 7.77378 41.8442 9.46176 41.8442 10.7055Z" fill="#105F43"/>
<path d="M46.5084 13.2373H44.4651L44.3762 0.621826H46.4196L46.5084 13.2373Z" fill="#105F43"/>
<path d="M68.2301 13.2372H66.6309C65.8758 13.2372 65.2539 12.9707 64.7208 12.3932C64.3211 11.949 64.0545 11.4604 63.9213 10.9273C63.4327 8.66189 62.4554 7.50696 61.0339 7.50696C59.9234 7.50696 59.1683 8.21769 58.7241 9.55031H62.4554V11.9934C62.4554 13.5037 61.9668 14.7919 60.9451 15.9025C59.9678 16.9685 58.7241 17.546 57.3026 17.546C55.8811 17.546 54.6818 17.013 53.6601 15.9025C52.6384 14.8364 52.1498 13.5482 52.1498 11.9934C52.1498 11.5048 52.1054 10.7052 52.061 9.59473H54.1043C54.1043 9.90567 54.1043 10.3943 54.1043 10.9718C54.1043 11.5492 54.1487 11.8602 54.1487 11.9934C54.1487 13.0151 54.5041 13.9035 55.2148 14.5254C55.8367 15.1029 56.503 15.3694 57.2582 15.3694C58.0578 15.3694 58.7241 15.1029 59.346 14.5254C60.0567 13.8591 60.4121 13.0151 60.4121 11.949V11.5048H56.2365C56.2365 9.55031 56.6807 8.04001 57.5247 6.92949C58.3687 5.90782 59.4792 5.41919 60.9451 5.41919C62.4998 5.41919 63.6992 6.04108 64.5432 7.24043C64.9874 7.90674 65.3872 8.884 65.6981 10.0834C65.9202 10.9273 66.4533 11.3271 67.2972 11.3271H68.1857V13.2372H68.2301ZM57.0805 20.922H55.2148V18.9675H57.0805V20.922ZM59.9234 20.922H58.0578V18.9675H59.9234V20.922Z" fill="#105F43"/>
<path d="M80.1792 13.2374H77.8693H67.697V11.3273H76.2702C75.8704 9.0174 74.7599 7.86247 72.8498 7.86247C71.6505 7.86247 70.8065 8.08457 70.229 8.52878L69.4294 6.92963C70.229 6.26332 71.3839 5.90796 72.8942 5.90796C74.4934 5.90796 75.7372 6.44101 76.67 7.55152C77.4696 8.48435 77.9582 9.72813 78.2247 11.3273H80.1348V13.2374H80.1792Z" fill="#105F43"/>
<path d="M97.9474 13.2375H79.8238V11.3274H82.3113L82.2669 7.95147H84.3103V10.2613C85.021 8.6622 86.0871 7.50726 87.4197 6.79653C88.4414 6.21907 89.3742 5.99696 90.2626 6.0858C92.7058 6.35233 94.0384 8.08473 94.3493 11.3274H97.903V13.2375H97.9474ZM92.3948 11.3719C92.3948 10.75 92.306 10.2169 92.1283 9.77272C91.8174 8.6622 91.151 8.08473 90.2626 7.99589C90.085 7.99589 89.9517 7.95147 89.8184 7.95147C88.1304 7.95147 86.6646 9.10641 85.5096 11.3719H92.3948Z" fill="#105F43"/>
<path d="M102.123 10.7055C102.123 12.2603 101.19 13.2375 99.5022 13.2375H97.4144V11.3274H98.747C99.5022 11.3274 100.08 10.8388 100.08 9.99481C100.08 8.79545 100.08 7.24073 100.035 5.28622C100.035 3.10961 99.9908 1.55489 99.9908 0.577637H102.034C102.034 1.46605 102.034 3.15403 102.079 5.64159C102.123 7.77378 102.123 9.46176 102.123 10.7055Z" fill="#105F43"/>
<path d="M106.832 13.2373H104.744L104.655 0.621826H106.698L106.832 13.2373Z" fill="#105F43"/>
<path d="M132.906 13.2374H122.69V12.9708C122.512 14.0814 122.023 15.0142 121.224 15.8582C120.247 16.9243 119.003 17.5017 117.581 17.5017C116.16 17.5017 114.961 16.9687 113.939 15.8582C112.917 14.7921 112.429 13.5039 112.429 11.9492L112.34 7.95131H114.427C114.427 9.46161 114.427 10.7942 114.427 11.9936C114.427 12.9264 114.738 13.726 115.36 14.3479C115.982 15.0142 116.693 15.3251 117.581 15.3251C118.425 15.3251 119.181 15.0142 119.802 14.3479C120.424 13.6816 120.735 12.882 120.735 11.9492L120.646 7.95131H122.734V10.3056C123.4 8.70646 124.467 7.55153 125.844 6.79637C126.865 6.21891 127.843 5.9968 128.731 6.08564C130.374 6.26333 131.574 7.10732 132.24 8.66204C132.729 9.77256 132.906 11.2829 132.906 13.2374ZM130.819 11.2829C130.819 10.661 130.73 10.0835 130.508 9.55045C130.152 8.5732 129.531 8.08457 128.687 7.95131C128.509 7.95131 128.376 7.90689 128.242 7.90689C126.554 7.90689 125.088 9.06183 123.934 11.3273H130.819V11.2829ZM128.997 4.53092H127.132V2.57642H128.997V4.53092Z" fill="#105F43"/>
<path d="M140.147 13.2375H137.748C137.215 13.2375 136.727 13.0598 136.371 12.66C135.927 12.2603 135.705 11.6828 135.705 10.9276L135.661 0.577637H137.748L137.837 10.0836C137.837 10.7944 138.192 11.3274 138.726 11.3274H140.191V13.2375H140.147Z" fill="#105F43"/>
<path d="M141.613 16.2136H139.703V14.2591H141.613V16.2136ZM145.477 10.7054C145.477 12.2602 144.545 13.2374 142.857 13.2374H139.792V11.3273H142.102C142.857 11.3273 143.434 10.8387 143.434 9.99471C143.434 9.23956 143.434 8.57325 143.434 8.0402C143.434 7.24063 143.434 6.57432 143.39 6.08569H145.477C145.433 9.19514 145.477 10.7499 145.477 10.7054ZM144.456 16.2136H142.59V14.2591H144.456V16.2136Z" fill="#105F43"/>
<path d="M145.122 15.8582C147.565 15.8138 149.386 14.0814 149.386 11.6383V6.13013H151.474V9.37283C151.563 10.4389 152.363 11.3273 153.162 11.3273H155.339V13.2374H153.295C152.54 13.2374 151.918 12.8376 151.474 12.0381C151.297 15.1031 149.253 17.2797 146.41 17.5018C146.144 17.102 145.7 16.569 145.122 15.8582Z" fill="#105F43"/>
<path d="M159.692 10.7055C159.692 12.2603 158.759 13.2375 157.071 13.2375H154.984V11.3274H156.316C157.071 11.3274 157.649 10.8388 157.649 9.99481C157.649 8.79545 157.649 7.24073 157.604 5.28622C157.604 3.10961 157.56 1.55489 157.56 0.577637H159.603C159.603 1.46605 159.603 3.15403 159.648 5.64159C159.692 7.77378 159.692 9.46176 159.692 10.7055Z" fill="#105F43"/>
<path d="M164.401 13.2373H162.357L162.224 0.621826H164.312L164.401 13.2373Z" fill="#105F43"/>
<path d="M180.57 13.2373H178.793C177.949 13.2373 177.194 12.9263 176.616 12.3044C176.083 11.8158 175.728 11.1051 175.461 10.2167H174.129C172.752 10.2167 171.952 11.0162 171.952 12.3489C171.952 12.9708 172.174 13.5038 172.618 13.9036C173.018 14.3034 173.507 14.4811 174.04 14.4811H176.927V16.4356H173.862C172.752 16.4356 171.819 16.0358 171.064 15.2806C170.309 14.5255 169.909 13.5926 169.909 12.4821C169.909 11.416 170.22 10.5276 170.842 9.72805C171.508 8.88405 172.308 8.43985 173.329 8.39543C173.152 8.26217 173.018 8.08448 172.929 7.9068C172.663 7.46259 172.53 6.92955 172.53 6.26324C172.53 5.24156 172.885 4.44199 173.596 3.86453C174.218 3.3759 174.928 3.10938 175.817 3.10938C176.972 3.10938 177.905 3.50916 178.571 4.35315L177.505 5.81903C177.016 5.37483 176.527 5.15272 176.039 5.15272C175.195 5.15272 174.573 5.77461 174.573 6.6186C174.573 7.24049 174.839 7.6847 175.373 8.04006C175.817 8.30659 176.35 8.43985 176.972 8.43985H178.749V10.3944H177.638C177.949 11.1051 178.393 11.5049 179.015 11.5049H180.57V11.9935V12.9263V13.2373Z" fill="#105F43"/>
<path d="M190.875 13.2374H188.876C188.299 14.4367 187.233 15.0142 185.723 15.0142C184.257 15.0142 183.191 14.4367 182.48 13.2374H180.214V11.3273H181.947C181.947 9.06184 183.324 7.64038 185.545 7.64038C186.7 7.64038 187.633 8.04017 188.299 8.79532C188.965 9.50605 189.276 10.35 189.276 11.3273H190.875V13.2374ZM187.188 11.3717C187.188 10.7498 187.011 10.2612 186.7 9.90583C186.389 9.59489 186.034 9.41721 185.634 9.41721C185.19 9.41721 184.834 9.59489 184.568 9.90583C184.257 10.2612 184.123 10.7498 184.123 11.3717C184.123 11.9936 184.301 12.4822 184.612 12.8376C184.923 13.1485 185.278 13.3262 185.678 13.3262C186.567 13.3262 187.188 12.6155 187.188 11.3717Z" fill="#105F43"/>
<path d="M202.958 13.2374H200.648H190.476V11.3273H199.049C198.649 9.0174 197.538 7.86247 195.628 7.86247C194.429 7.86247 193.585 8.08457 193.008 8.52878L192.208 6.92963C193.008 6.26332 194.163 5.90796 195.673 5.90796C197.272 5.90796 198.516 6.44101 199.449 7.55152C200.248 8.48435 200.737 9.72813 201.003 11.3273H202.913V13.2374H202.958ZM197.005 16.2135H195.14V14.259H197.005V16.2135Z" fill="#105F43"/>
<path d="M208.288 10.7054C208.288 12.2601 207.355 13.2374 205.667 13.2374H202.602V11.3273H204.912C205.667 11.3273 206.245 10.8386 206.245 9.99466C206.245 9.23951 206.245 8.5732 206.245 8.04015C206.245 7.24058 206.245 6.57427 206.2 6.08564H208.288C208.288 9.19509 208.288 10.7498 208.288 10.7054ZM205.312 4.53092H203.446V2.57642H205.312V4.53092ZM208.111 4.53092H206.245V2.57642H208.111V4.53092Z" fill="#105F43"/>
<path d="M8.04009 35.3143C8.04009 35.3587 8.04009 35.4031 7.99567 35.4475C7.99567 35.4919 7.95125 35.4919 7.90683 35.5364C7.86241 35.5364 7.77357 35.5364 7.68473 35.5364C7.59589 35.5364 7.46263 35.5364 7.28494 35.5364C7.15168 35.5364 7.01842 35.5364 6.92958 35.5364C6.84074 35.5364 6.7519 35.4919 6.70748 35.4919C6.66306 35.4475 6.61864 35.4475 6.57421 35.4031C6.52979 35.3587 6.52979 35.3143 6.48537 35.2254L5.4637 32.649C5.33044 32.3381 5.2416 32.0715 5.10833 31.8494C4.97507 31.5829 4.84181 31.4052 4.66413 31.2276C4.48645 31.0499 4.26434 30.9166 4.04224 30.8278C3.82014 30.6945 3.55361 30.6501 3.19825 30.6501H2.22099V35.3143C2.22099 35.3587 2.22099 35.4031 2.17657 35.4475C2.13215 35.4919 2.13215 35.4919 2.04331 35.5364C1.99889 35.5364 1.91005 35.5808 1.82121 35.5808C1.73237 35.5808 1.59911 35.5808 1.46584 35.5808C1.33258 35.5808 1.19932 35.5808 1.11048 35.5808C1.02164 35.5808 0.932796 35.5364 0.888376 35.5364C0.843955 35.5364 0.799535 35.4919 0.755114 35.4475C0.710693 35.4031 0.710693 35.3587 0.710693 35.3143V25.1864C0.710693 24.9643 0.755114 24.831 0.888376 24.7421C1.02164 24.6533 1.11048 24.6089 1.24374 24.6089H3.55361C3.82014 24.6089 4.04224 24.6089 4.21992 24.6089C4.3976 24.6089 4.57529 24.6533 4.70855 24.6533C5.10833 24.7421 5.50812 24.831 5.81906 25.0087C6.13001 25.1864 6.39653 25.364 6.61863 25.5861C6.84074 25.8082 7.01842 26.1192 7.10726 26.4301C7.1961 26.7411 7.28494 27.0964 7.28494 27.4518C7.28494 27.8072 7.24052 28.1625 7.15168 28.4291C7.06284 28.74 6.92958 28.9621 6.70748 29.1842C6.52979 29.4063 6.30769 29.584 6.04117 29.7617C5.77464 29.9394 5.50812 30.0726 5.15275 30.1615C5.33044 30.2503 5.50812 30.3391 5.64138 30.4724C5.77464 30.6057 5.90791 30.7389 6.04117 30.9166C6.17443 31.0943 6.30769 31.272 6.39653 31.4941C6.52979 31.7162 6.61863 31.9827 6.7519 32.2492L7.72915 34.6479C7.81799 34.87 7.86241 35.0033 7.86241 35.0922C8.04009 35.181 8.04009 35.2698 8.04009 35.3143ZM5.86348 27.6295C5.86348 27.1853 5.77464 26.8299 5.59696 26.5634C5.41928 26.2524 5.06391 26.0748 4.61971 25.9415C4.48645 25.8971 4.30876 25.8527 4.13108 25.8527C3.9534 25.8527 3.7313 25.8082 3.42035 25.8082H2.22099V29.4952H3.64245C4.04224 29.4952 4.35318 29.4507 4.61971 29.3619C4.88623 29.273 5.10833 29.1398 5.33044 28.9621C5.50812 28.7844 5.64138 28.6067 5.73022 28.3846C5.81906 28.1625 5.86348 27.896 5.86348 27.6295Z" fill="#A87E33"/>
<path d="M11.5494 25.1421C11.5494 25.453 11.505 25.6751 11.3717 25.8084C11.2384 25.9417 11.0163 25.9861 10.7054 25.9861C10.3944 25.9861 10.1723 25.9417 10.0391 25.8084C9.90581 25.6751 9.86139 25.4975 9.86139 25.1421C9.86139 24.8311 9.90581 24.609 10.0391 24.4758C10.1723 24.3425 10.3944 24.2981 10.7054 24.2981C11.0163 24.2981 11.2384 24.3425 11.3717 24.4758C11.505 24.609 11.5494 24.8311 11.5494 25.1421ZM11.3717 35.3144C11.3717 35.3588 11.3717 35.4033 11.3273 35.4477C11.2828 35.4921 11.2828 35.4921 11.2384 35.5365C11.194 35.5809 11.1052 35.5365 11.0163 35.5365C10.9275 35.5365 10.7942 35.5365 10.661 35.5365C10.5277 35.5365 10.3944 35.5365 10.3056 35.5365C10.2168 35.5365 10.1279 35.4921 10.0835 35.4921C10.0391 35.4477 9.99465 35.4477 9.99465 35.4032C9.99465 35.3588 9.95023 35.3144 9.95023 35.27V27.7185C9.95023 27.6741 9.95023 27.6296 9.99465 27.6296C9.99465 27.5852 10.0391 27.5852 10.0835 27.5408C10.1279 27.4964 10.2168 27.4964 10.3056 27.4964C10.3944 27.4964 10.5277 27.4964 10.661 27.4964C10.7942 27.4964 10.9275 27.4964 11.0163 27.4964C11.1052 27.4964 11.194 27.5408 11.2384 27.5408C11.2828 27.5852 11.3273 27.5852 11.3273 27.6296C11.3273 27.6741 11.3717 27.7185 11.3717 27.7185V35.3144Z" fill="#A87E33"/>
<path d="M17.4129 35.492L16.3912 38.2905C16.3468 38.3794 16.2579 38.4682 16.1247 38.5126C15.9914 38.557 15.7693 38.6015 15.5028 38.6015C15.3695 38.6015 15.2363 38.6015 15.1474 38.6015C15.0586 38.6015 14.9697 38.557 14.9253 38.5126C14.8809 38.4682 14.8365 38.4238 14.8365 38.3794C14.8365 38.3349 14.8365 38.2461 14.8809 38.1573L15.947 35.5364C15.9026 35.492 15.8582 35.492 15.8137 35.4476C15.7693 35.4032 15.7249 35.3588 15.7249 35.2699L13.0152 27.9849C12.9708 27.8517 12.9264 27.7628 12.9264 27.7184C12.9264 27.6296 12.9264 27.5852 13.0152 27.5407C13.0597 27.4963 13.1485 27.4963 13.2373 27.4519C13.3262 27.4519 13.4594 27.4519 13.6371 27.4519C13.8148 27.4519 13.9481 27.4519 14.0369 27.4519C14.1257 27.4519 14.2146 27.4963 14.259 27.4963C14.3034 27.5407 14.3479 27.5407 14.3923 27.5852C14.4367 27.6296 14.4367 27.674 14.4811 27.7628L16.6577 33.8485H16.7021L18.7899 27.7184C18.8343 27.6296 18.8788 27.5407 18.9232 27.4963C18.9676 27.4519 19.0564 27.4519 19.1453 27.4075C19.2341 27.4075 19.3674 27.4075 19.5451 27.4075C19.7227 27.4075 19.8116 27.4075 19.9448 27.4075C20.0337 27.4075 20.1225 27.4519 20.167 27.4963C20.2114 27.5407 20.2558 27.5852 20.2558 27.674C20.2558 27.7628 20.2558 27.8073 20.2114 27.9405L17.4129 35.492Z" fill="#A87E33"/>
<path d="M27.4964 35.3146C27.4964 35.4034 27.4519 35.4478 27.4075 35.4478C27.3631 35.4922 27.3187 35.4922 27.2298 35.5367C27.141 35.5367 27.0521 35.5811 26.8745 35.5811C26.7412 35.5811 26.6079 35.5811 26.5191 35.5367C26.4303 35.5367 26.3858 35.4922 26.3414 35.4478C26.297 35.4034 26.297 35.359 26.297 35.3146V34.5594C25.9861 34.9148 25.5863 35.1813 25.1865 35.4034C24.7867 35.5811 24.3425 35.7143 23.8983 35.7143C23.4985 35.7143 23.1431 35.6699 22.8322 35.5811C22.5212 35.4922 22.2547 35.3146 21.9882 35.1369C21.7661 34.9592 21.5884 34.6927 21.4551 34.4261C21.3219 34.1596 21.2775 33.8043 21.2775 33.4489C21.2775 33.0047 21.3663 32.6493 21.544 32.3384C21.7217 32.0274 21.9882 31.7609 22.2991 31.5388C22.6101 31.3167 23.0099 31.1834 23.4985 31.0502C23.9871 30.9613 24.5202 30.8725 25.0976 30.8725H26.1637V30.295C26.1637 29.9841 26.1193 29.762 26.0749 29.5399C26.0305 29.3178 25.8972 29.1401 25.7639 28.9624C25.6307 28.8291 25.453 28.6959 25.2309 28.607C25.0088 28.5182 24.7423 28.4738 24.4313 28.4738C24.076 28.4738 23.765 28.5182 23.4985 28.607C23.232 28.6959 22.9654 28.7847 22.7878 28.8736C22.5657 28.9624 22.4324 29.0513 22.2547 29.1401C22.077 29.2289 22.0326 29.2734 21.9438 29.2734C21.8994 29.2734 21.8549 29.2734 21.8105 29.2289C21.7661 29.1845 21.7661 29.1845 21.7217 29.1401C21.6773 29.0957 21.6773 29.0513 21.6773 28.9624C21.6773 28.8736 21.6773 28.8291 21.6773 28.7403C21.6773 28.607 21.6773 28.4738 21.7217 28.3849C21.7217 28.2961 21.8105 28.2073 21.8549 28.1628C21.9438 28.074 22.077 27.9852 22.2547 27.8963C22.4324 27.8075 22.6545 27.7186 22.8766 27.6298C23.0987 27.541 23.3652 27.4965 23.6762 27.4077C23.9427 27.3633 24.2536 27.3188 24.5646 27.3188C25.0976 27.3188 25.5863 27.3633 25.9416 27.4965C26.3414 27.6298 26.6524 27.8075 26.8745 28.0296C27.0966 28.2517 27.2742 28.5626 27.4075 28.918C27.5408 29.2734 27.5852 29.6731 27.5852 30.1618V35.3146H27.4964ZM26.1193 31.8497H24.92C24.5202 31.8497 24.2092 31.8942 23.9427 31.9386C23.6762 31.983 23.4097 32.1163 23.232 32.2051C23.0543 32.3384 22.921 32.4716 22.8322 32.6493C22.7433 32.827 22.6989 33.0491 22.6989 33.2712C22.6989 33.671 22.8322 33.9819 23.0543 34.204C23.3208 34.4261 23.6318 34.5594 24.1204 34.5594C24.4757 34.5594 24.8311 34.4706 25.1421 34.2929C25.453 34.1152 25.7639 33.8043 26.1193 33.4489V31.8497Z" fill="#A87E33"/>
<path d="M36.5138 35.3143C36.5138 35.3587 36.5138 35.4031 36.4693 35.4475C36.4693 35.492 36.4249 35.492 36.3805 35.5364C36.3361 35.5364 36.2917 35.5808 36.2028 35.5808C36.114 35.5808 36.0251 35.5808 35.9363 35.5808C35.803 35.5808 35.7142 35.5808 35.6254 35.5808C35.5365 35.5808 35.4921 35.5364 35.4477 35.5364C35.4033 35.5364 35.3588 35.492 35.3588 35.4475C35.3144 35.4031 35.3144 35.3587 35.3144 35.3143V34.2926C34.9146 34.7368 34.5148 35.0478 34.0706 35.3143C33.6264 35.5364 33.1822 35.6696 32.6492 35.6696C32.0717 35.6696 31.6275 35.5808 31.2277 35.3587C30.8279 35.1366 30.517 34.8701 30.2505 34.4703C30.0284 34.1149 29.8063 33.6707 29.7174 33.1821C29.5842 32.6935 29.5397 32.1604 29.5397 31.6274C29.5397 30.9611 29.6286 30.3836 29.7618 29.8505C29.8951 29.3175 30.1172 28.8733 30.3837 28.5179C30.6502 28.1626 31.0056 27.8516 31.4054 27.6739C31.8052 27.4962 32.2938 27.363 32.8269 27.363C33.2711 27.363 33.6709 27.4518 34.0262 27.6739C34.3816 27.896 34.7369 28.1626 35.1367 28.5179V24.1203C35.1367 24.0759 35.1367 24.0314 35.1812 23.987C35.1812 23.9426 35.2256 23.9426 35.3144 23.8982C35.3588 23.8982 35.4477 23.8538 35.5365 23.8538C35.6254 23.8538 35.7142 23.8538 35.8919 23.8538C36.0251 23.8538 36.1584 23.8538 36.2472 23.8538C36.3361 23.8538 36.4249 23.8982 36.4693 23.8982C36.5138 23.8982 36.5582 23.9426 36.6026 23.987C36.647 24.0314 36.647 24.0759 36.647 24.1203V35.3143H36.5138ZM35.1367 29.9838C34.7814 29.5396 34.3816 29.1842 34.0262 28.9177C33.6709 28.6956 33.3155 28.5623 32.9157 28.5623C32.5603 28.5623 32.2494 28.6512 32.0273 28.8289C31.7608 29.0066 31.5831 29.2287 31.4054 29.4952C31.2721 29.7617 31.1389 30.0726 31.05 30.428C30.9612 30.7834 30.9612 31.1387 30.9612 31.4941C30.9612 31.8939 31.0056 32.2493 31.05 32.6046C31.0945 32.96 31.2277 33.3153 31.361 33.5819C31.4942 33.8484 31.7163 34.1149 31.9384 34.2482C32.1606 34.4259 32.4715 34.5147 32.8269 34.5147C33.0045 34.5147 33.1822 34.4703 33.3599 34.4259C33.5376 34.3814 33.7153 34.2926 33.893 34.1593C34.0706 34.0261 34.2483 33.8928 34.4704 33.7151C34.6481 33.5375 34.8702 33.3154 35.0923 33.0044V29.9838H35.1367Z" fill="#A87E33"/>
<path d="M45.62 35.3145C45.62 35.3589 45.62 35.4033 45.5756 35.4478C45.5311 35.4922 45.5311 35.4922 45.4867 35.5366C45.4423 35.581 45.3535 35.581 45.2646 35.581C45.1758 35.581 45.0425 35.581 44.9092 35.581C44.776 35.581 44.6427 35.581 44.5539 35.581C44.465 35.581 44.3762 35.5366 44.3318 35.5366C44.2874 35.5366 44.2429 35.4922 44.2429 35.4478C44.2429 35.4033 44.1985 35.3589 44.1985 35.3145V30.8724C44.1985 30.4282 44.1541 30.0729 44.1097 29.8063C44.0208 29.5398 43.932 29.3177 43.7987 29.14C43.6655 28.9623 43.4878 28.7847 43.3101 28.6958C43.088 28.607 42.8659 28.5626 42.5994 28.5626C42.244 28.5626 41.8886 28.6958 41.5333 28.9179C41.1779 29.1845 40.8226 29.5398 40.4228 29.984V35.2701C40.4228 35.3145 40.4228 35.3589 40.3783 35.4033C40.3339 35.4478 40.3339 35.4478 40.2895 35.4922C40.2895 35.5366 40.2451 35.5366 40.1562 35.5366C40.0674 35.5366 39.9341 35.5366 39.8009 35.5366C39.6676 35.5366 39.5344 35.5366 39.4455 35.5366C39.3567 35.5366 39.2678 35.4922 39.2234 35.4922C39.179 35.4478 39.1346 35.4478 39.1346 35.4033C39.1346 35.3589 39.0901 35.3145 39.0901 35.2701V24.0317C39.0901 23.9872 39.0901 23.9428 39.1346 23.8984C39.1346 23.854 39.179 23.854 39.2234 23.8096C39.2678 23.7651 39.3567 23.7651 39.4455 23.7651C39.5344 23.7651 39.6676 23.7651 39.8009 23.7651C39.9341 23.7651 40.0674 23.7651 40.1562 23.7651C40.2451 23.7651 40.3339 23.8096 40.3783 23.8096C40.4228 23.854 40.4672 23.854 40.4672 23.8984C40.4672 23.9428 40.5116 23.9872 40.5116 24.0317V28.5626C40.9114 28.1628 41.3112 27.8074 41.711 27.6297C42.1108 27.4076 42.5105 27.3188 42.9547 27.3188C43.4434 27.3188 43.8876 27.4076 44.2429 27.5853C44.5983 27.763 44.8648 27.9851 45.0869 28.2516C45.309 28.5181 45.4423 28.8735 45.5311 29.2733C45.62 29.6731 45.6644 30.1173 45.6644 30.6503V35.3145H45.62Z" fill="#A87E33"/>
<path d="M62.0112 32.4716C62.0112 33.0046 61.9224 33.4488 61.7447 33.8486C61.567 34.2484 61.3005 34.6037 60.9451 34.8703C60.5897 35.1368 60.2344 35.3589 59.7458 35.4922C59.3016 35.6254 58.8129 35.7143 58.2799 35.7143C57.9245 35.7143 57.5691 35.6698 57.2582 35.6254C56.9473 35.581 56.6807 35.4922 56.4142 35.4033C56.1477 35.3145 55.97 35.2256 55.7923 35.1368C55.6146 35.0479 55.5258 34.9591 55.437 34.8703C55.3925 34.7814 55.3037 34.737 55.3037 34.6037C55.2593 34.5149 55.2593 34.3816 55.2593 34.204C55.2593 34.0707 55.2593 33.9819 55.2593 33.893C55.2593 33.8042 55.3037 33.7598 55.3037 33.7153C55.3481 33.6709 55.3481 33.6265 55.3925 33.6265C55.437 33.6265 55.4814 33.5821 55.5258 33.5821C55.6146 33.5821 55.7035 33.6265 55.8367 33.7153C55.97 33.8042 56.1477 33.893 56.3698 34.0263C56.5919 34.1595 56.8584 34.2484 57.1694 34.3372C57.4803 34.4261 57.8357 34.4705 58.2799 34.4705C58.5908 34.4705 58.9018 34.4261 59.1239 34.3372C59.3904 34.2484 59.6125 34.1151 59.7902 33.9819C59.9679 33.8486 60.1011 33.6265 60.2344 33.4044C60.3232 33.1823 60.3676 32.9158 60.3676 32.6492C60.3676 32.3383 60.2788 32.0718 60.1455 31.8497C60.0123 31.6276 59.8346 31.4499 59.5681 31.2722C59.346 31.0945 59.0795 30.9613 58.7685 30.828C58.4576 30.6947 58.191 30.5615 57.8801 30.4282C57.5691 30.2949 57.2582 30.1173 56.9917 29.9396C56.6807 29.7619 56.4586 29.5398 56.1921 29.3177C55.97 29.0956 55.7923 28.7846 55.6146 28.4737C55.4814 28.1628 55.3925 27.763 55.3925 27.3188C55.3925 26.8746 55.4814 26.4748 55.6591 26.1194C55.8367 25.764 56.0588 25.4531 56.3698 25.231C56.6807 25.0089 57.0361 24.7868 57.4359 24.6979C57.8357 24.5647 58.2799 24.5203 58.7685 24.5203C58.9906 24.5203 59.2571 24.5203 59.4792 24.5647C59.7013 24.6091 59.9679 24.6535 60.19 24.7424C60.4121 24.8312 60.5898 24.8756 60.7674 24.9645C60.9451 25.0533 61.034 25.1422 61.0784 25.1866C61.1228 25.231 61.1672 25.2754 61.1672 25.3198C61.1672 25.3643 61.2116 25.4087 61.2116 25.4531C61.2116 25.4975 61.2116 25.5419 61.2561 25.6308C61.2561 25.7196 61.2561 25.764 61.2561 25.8973C61.2561 25.9861 61.2561 26.075 61.2561 26.1638C61.2561 26.2527 61.2561 26.2971 61.2116 26.3415C61.2116 26.3859 61.1672 26.4303 61.1228 26.4748C61.0784 26.5192 61.034 26.5192 61.034 26.5192C60.9895 26.5192 60.8563 26.4748 60.723 26.3859C60.5897 26.2971 60.4121 26.2082 60.2344 26.1194C60.0567 26.0306 59.8346 25.9417 59.5681 25.8529C59.3016 25.764 59.035 25.7196 58.6797 25.7196C58.3687 25.7196 58.1022 25.764 57.8801 25.8529C57.658 25.9417 57.4803 26.0306 57.3026 26.1638C57.1694 26.2971 57.0361 26.4748 56.9917 26.6525C56.9028 26.8301 56.9028 27.0522 56.9028 27.2299C56.9028 27.5409 56.9917 27.8074 57.1249 28.0295C57.2582 28.2516 57.4359 28.4293 57.7024 28.607C57.9245 28.7846 58.191 28.9179 58.502 29.0512C58.8129 29.1844 59.1239 29.3177 59.3904 29.4954C59.7013 29.6286 60.0123 29.8063 60.2788 29.984C60.5897 30.1617 60.8563 30.3394 61.0784 30.6059C61.3005 30.828 61.4782 31.0945 61.6558 31.4499C61.8335 31.8052 62.0112 32.0273 62.0112 32.4716Z" fill="#A87E33"/>
<path d="M70.3623 31.1832C70.3623 31.4053 70.3179 31.5386 70.1846 31.6719C70.0958 31.7607 69.9625 31.8051 69.8292 31.8051H64.8541C64.8541 32.2049 64.8985 32.6047 64.9874 32.96C65.0762 33.3154 65.2095 33.5819 65.4316 33.8485C65.6093 34.0706 65.8758 34.2927 66.1867 34.4259C66.4977 34.5592 66.8975 34.6036 67.3417 34.6036C67.697 34.6036 68.008 34.5592 68.3189 34.5148C68.5855 34.4703 68.852 34.3815 69.0297 34.3371C69.2518 34.2482 69.385 34.2038 69.5183 34.1594C69.6516 34.115 69.7404 34.0706 69.8292 34.0706C69.8737 34.0706 69.9181 34.0706 69.9181 34.115C69.9625 34.115 69.9625 34.1594 70.0069 34.2038C70.0069 34.2482 70.0513 34.2927 70.0513 34.3815C70.0513 34.4703 70.0513 34.5592 70.0513 34.648C70.0513 34.7369 70.0513 34.7813 70.0513 34.8257C70.0513 34.8701 70.0513 34.9146 70.0513 34.959C70.0513 35.0034 70.0513 35.0478 70.0069 35.0922C70.0069 35.1367 69.9625 35.1367 69.9181 35.1811C69.8737 35.2255 69.7848 35.2699 69.6516 35.3143C69.5183 35.4032 69.2962 35.4476 69.0741 35.5364C68.852 35.6253 68.541 35.6697 68.2301 35.7141C67.9192 35.7585 67.5638 35.803 67.2084 35.803C66.5865 35.803 66.0535 35.7141 65.5649 35.5364C65.0762 35.3588 64.7209 35.0922 64.3655 34.7813C64.0546 34.4259 63.788 34.0261 63.6548 33.4931C63.4771 32.96 63.3882 32.3826 63.3882 31.6719C63.3882 31.0055 63.4771 30.4281 63.6548 29.895C63.8325 29.362 64.0546 28.9178 64.3655 28.5624C64.6764 28.207 65.0762 27.9405 65.5204 27.7184C65.9646 27.5407 66.4533 27.4075 67.0307 27.4075C67.6082 27.4075 68.1413 27.4963 68.541 27.674C68.9408 27.8517 69.2962 28.1182 69.5627 28.4291C69.8292 28.7401 70.0513 29.1399 70.1402 29.5841C70.2734 30.0283 70.3179 30.4725 70.3179 30.9611V31.1832H70.3623ZM68.9852 30.7834C68.9852 30.0727 68.852 29.4952 68.4966 29.051C68.1413 28.6512 67.6526 28.4291 66.9863 28.4291C66.631 28.4291 66.32 28.4736 66.0979 28.6068C65.8314 28.7401 65.6093 28.9178 65.4316 29.1399C65.2539 29.362 65.1206 29.5841 65.0318 29.895C64.943 30.1615 64.8985 30.4725 64.8541 30.7834H68.9852Z" fill="#A87E33"/>
<path d="M77.9581 34.1594C77.9581 34.2482 77.9581 34.3371 77.9581 34.4259C77.9581 34.5148 77.9581 34.5592 77.9137 34.6036C77.9137 34.648 77.8693 34.6924 77.8693 34.7369C77.8693 34.7813 77.8249 34.8257 77.736 34.9145C77.6472 35.0034 77.5584 35.0922 77.3807 35.1811C77.203 35.2699 77.0253 35.3587 76.8032 35.4476C76.5811 35.5364 76.359 35.5808 76.1369 35.6253C75.9148 35.6697 75.6483 35.7141 75.3818 35.7141C74.8487 35.7141 74.3601 35.6253 73.9159 35.4476C73.5161 35.2699 73.1607 35.0034 72.8498 34.648C72.5833 34.2927 72.3612 33.8929 72.1835 33.3598C72.0502 32.8712 71.9614 32.2937 71.9614 31.6274C71.9614 30.8723 72.0502 30.2504 72.2279 29.7173C72.4056 29.1843 72.6721 28.7401 72.983 28.3847C73.294 28.0293 73.6938 27.8072 74.0936 27.6296C74.5378 27.4519 74.982 27.363 75.4706 27.363C75.6927 27.363 75.9592 27.4075 76.1813 27.4519C76.4034 27.4963 76.6255 27.5407 76.8032 27.6296C76.9809 27.7184 77.1586 27.8072 77.2918 27.8961C77.4251 27.9849 77.5584 28.0738 77.6028 28.1182C77.6916 28.207 77.736 28.2515 77.736 28.2959C77.7805 28.3403 77.7805 28.3847 77.7805 28.4291C77.7805 28.4736 77.8249 28.5624 77.8249 28.6068C77.8249 28.6957 77.8249 28.7401 77.8249 28.8733C77.8249 29.0954 77.7805 29.2287 77.736 29.3175C77.6916 29.4064 77.6028 29.4508 77.5584 29.4508C77.4695 29.4508 77.3807 29.4064 77.2474 29.3175C77.1586 29.2287 76.9809 29.1399 76.8476 29.0066C76.6699 28.8733 76.4923 28.7845 76.2257 28.6957C76.0036 28.6068 75.6927 28.5624 75.3818 28.5624C74.7154 28.5624 74.1824 28.8289 73.827 29.3175C73.4717 29.8506 73.294 30.5613 73.294 31.5386C73.294 32.0272 73.3384 32.4714 73.4272 32.8268C73.5161 33.1821 73.6493 33.4931 73.827 33.7596C74.0047 34.0261 74.2268 34.2038 74.4933 34.2927C74.7599 34.4259 75.0708 34.4703 75.3818 34.4703C75.6927 34.4703 76.0036 34.4259 76.2257 34.3371C76.4478 34.2482 76.6699 34.115 76.8476 34.0261C77.0253 33.8929 77.1586 33.804 77.2918 33.7152C77.4251 33.6263 77.5139 33.5819 77.5584 33.5819C77.6028 33.5819 77.6472 33.5819 77.6472 33.6263C77.6916 33.6708 77.6916 33.6708 77.736 33.7596C77.736 33.804 77.7805 33.8929 77.7805 33.9817C77.9581 33.9373 77.9581 34.0261 77.9581 34.1594Z" fill="#A87E33"/>
<path d="M86.7091 31.4055C86.7091 32.0274 86.6202 32.6049 86.4426 33.0935C86.2649 33.6266 86.0428 34.0708 85.7318 34.4261C85.4209 34.7815 85.0211 35.0925 84.5325 35.3146C84.0438 35.5367 83.4664 35.6255 82.8445 35.6255C82.2226 35.6255 81.6896 35.5367 81.2009 35.359C80.7567 35.1813 80.3569 34.9148 80.046 34.5594C79.735 34.204 79.5129 33.7598 79.3353 33.2712C79.202 32.7826 79.1132 32.2051 79.1132 31.5388C79.1132 30.9169 79.202 30.3394 79.3353 29.8508C79.5129 29.3178 79.735 28.8736 80.046 28.5182C80.3569 28.1628 80.7567 27.8519 81.2453 27.6298C81.734 27.4077 82.3114 27.3188 82.9333 27.3188C83.5552 27.3188 84.0883 27.4077 84.5769 27.5854C85.0211 27.7631 85.4209 28.0296 85.7318 28.3849C86.0428 28.7403 86.2649 29.1845 86.4426 29.6731C86.6202 30.2062 86.7091 30.7837 86.7091 31.4055ZM85.2432 31.5388C85.2432 31.139 85.1988 30.7392 85.1099 30.3839C85.0211 30.0285 84.8878 29.7176 84.7102 29.4066C84.5325 29.1401 84.3104 28.918 83.9994 28.7403C83.6885 28.5626 83.3331 28.5182 82.8889 28.5182C82.4891 28.5182 82.1338 28.607 81.8228 28.7403C81.5119 28.8736 81.2898 29.0957 81.0677 29.3622C80.89 29.6287 80.7123 29.9397 80.6235 30.295C80.5346 30.6504 80.4902 31.0502 80.4902 31.4944C80.4902 31.8942 80.5346 32.294 80.6235 32.6493C80.7123 33.0047 80.8456 33.3156 81.0232 33.6266C81.2009 33.8931 81.423 34.1152 81.734 34.2929C82.0449 34.4706 82.4003 34.515 82.8445 34.515C83.2443 34.515 83.5996 34.4261 83.9106 34.2929C84.2215 34.1596 84.4436 33.9375 84.6657 33.671C84.8434 33.4045 85.0211 33.0935 85.1099 32.7382C85.1988 32.3384 85.2432 31.9386 85.2432 31.5388Z" fill="#A87E33"/>
<path d="M95.2822 35.3146C95.2822 35.359 95.2822 35.4034 95.2378 35.4478C95.1933 35.4922 95.1933 35.4922 95.1489 35.5367C95.1045 35.5811 95.0157 35.5811 94.9268 35.5811C94.838 35.5811 94.7047 35.5811 94.5714 35.5811C94.4382 35.5811 94.3049 35.5811 94.2161 35.5811C94.1272 35.5811 94.0384 35.5367 93.994 35.5367C93.9496 35.4922 93.9051 35.4922 93.9051 35.4478C93.8607 35.4034 93.8607 35.359 93.8607 35.3146V30.8725C93.8607 30.4283 93.8163 30.0729 93.7719 29.8064C93.683 29.5399 93.5942 29.3178 93.4609 29.1401C93.3277 28.9624 93.15 28.7847 92.9723 28.6959C92.7502 28.607 92.5281 28.5626 92.2616 28.5626C91.9062 28.5626 91.5509 28.6959 91.1955 28.918C90.8401 29.1845 90.4848 29.5399 90.085 29.9841V35.2701C90.085 35.3146 90.085 35.359 90.0405 35.4034C89.9961 35.4478 89.9961 35.4478 89.9517 35.4922C89.9073 35.5367 89.8184 35.5367 89.7296 35.5367C89.6408 35.5367 89.5075 35.5367 89.3742 35.5367C89.241 35.5367 89.1077 35.5367 89.0189 35.5367C88.93 35.5367 88.8412 35.4922 88.7968 35.4922C88.7523 35.4478 88.7079 35.4478 88.7079 35.4034C88.7079 35.359 88.6635 35.3146 88.6635 35.2701V27.7186C88.6635 27.6742 88.6635 27.6298 88.7079 27.5854C88.7079 27.541 88.7523 27.541 88.7968 27.4965C88.8412 27.4521 88.93 27.4521 88.9745 27.4521C89.0633 27.4521 89.1521 27.4521 89.2854 27.4521C89.4187 27.4521 89.5075 27.4521 89.5963 27.4521C89.6852 27.4521 89.7296 27.4965 89.774 27.4965C89.8184 27.541 89.8629 27.541 89.8629 27.5854C89.8629 27.6298 89.9073 27.6742 89.9073 27.7186V28.7403C90.3515 28.2517 90.7513 27.8963 91.1955 27.6742C91.6397 27.4521 92.0395 27.3188 92.4837 27.3188C92.9723 27.3188 93.4165 27.4077 93.7719 27.5854C94.1272 27.7631 94.3938 27.9852 94.6159 28.2517C94.838 28.5182 94.9712 28.8736 95.0601 29.2734C95.1489 29.6731 95.1933 30.1173 95.1933 30.6504V35.3146H95.2822Z" fill="#A87E33"/>
<path d="M104.3 35.3143C104.3 35.3587 104.3 35.4031 104.255 35.4475C104.255 35.492 104.211 35.492 104.166 35.5364C104.122 35.5364 104.077 35.5808 103.989 35.5808C103.9 35.5808 103.811 35.5808 103.722 35.5808C103.589 35.5808 103.5 35.5808 103.411 35.5808C103.322 35.5808 103.278 35.5364 103.233 35.5364C103.189 35.5364 103.145 35.492 103.145 35.4475C103.1 35.4031 103.1 35.3587 103.1 35.3143V34.2926C102.7 34.7368 102.301 35.0478 101.856 35.3143C101.412 35.5364 100.968 35.6696 100.435 35.6696C99.8575 35.6696 99.4133 35.5808 99.0135 35.3587C98.6138 35.1366 98.3028 34.8701 98.0363 34.4703C97.8142 34.1149 97.5921 33.6707 97.5032 33.1821C97.37 32.6935 97.3256 32.1604 97.3256 31.6274C97.3256 30.9611 97.4144 30.3836 97.5477 29.8505C97.6809 29.3175 97.903 28.8733 98.1696 28.5179C98.4361 28.1626 98.7914 27.8516 99.1912 27.6739C99.591 27.4962 100.08 27.363 100.613 27.363C101.057 27.363 101.457 27.4518 101.812 27.6739C102.167 27.896 102.523 28.1626 102.923 28.5179V24.1203C102.923 24.0759 102.923 24.0314 102.967 23.987C102.967 23.9426 103.011 23.9426 103.1 23.8982C103.145 23.8982 103.234 23.8538 103.322 23.8538C103.411 23.8538 103.5 23.8538 103.678 23.8538C103.811 23.8538 103.944 23.8538 104.033 23.8538C104.122 23.8538 104.211 23.8982 104.255 23.8982C104.3 23.8982 104.344 23.9426 104.388 23.987C104.433 24.0314 104.433 24.0759 104.433 24.1203V35.3143H104.3ZM102.923 29.9838C102.567 29.5396 102.167 29.1842 101.812 28.9177C101.457 28.6956 101.101 28.5623 100.702 28.5623C100.346 28.5623 100.035 28.6512 99.8131 28.8289C99.5466 29.0066 99.3689 29.2287 99.1912 29.4952C99.058 29.7617 98.9247 30.0726 98.8359 30.428C98.747 30.7834 98.747 31.1387 98.747 31.4941C98.747 31.8939 98.7914 32.2493 98.8359 32.6046C98.8803 32.96 99.0135 33.3153 99.1468 33.5819C99.2801 33.8484 99.5022 34.1149 99.7243 34.2482C99.9464 34.4259 100.257 34.5147 100.613 34.5147C100.79 34.5147 100.968 34.4703 101.146 34.4259C101.323 34.3814 101.501 34.2926 101.679 34.1593C101.856 34.0261 102.034 33.8928 102.256 33.7151C102.434 33.5375 102.656 33.3154 102.878 33.0044V29.9838H102.923Z" fill="#A87E33"/>
<path d="M118.825 35.3145C118.825 35.3589 118.825 35.4033 118.781 35.4477C118.736 35.4922 118.736 35.4922 118.647 35.5366C118.603 35.5366 118.514 35.581 118.425 35.581C118.336 35.581 118.203 35.581 118.07 35.581C117.937 35.581 117.803 35.581 117.715 35.581C117.626 35.581 117.537 35.5366 117.492 35.5366C117.448 35.5366 117.404 35.4922 117.359 35.4477C117.315 35.4033 117.315 35.3589 117.315 35.3145V30.4726H112.384V35.3145C112.384 35.3589 112.384 35.4033 112.34 35.4477C112.295 35.4922 112.295 35.4922 112.206 35.5366C112.162 35.5366 112.073 35.581 111.984 35.581C111.895 35.581 111.762 35.581 111.629 35.581C111.496 35.581 111.362 35.581 111.274 35.581C111.185 35.581 111.096 35.5366 111.051 35.5366C111.007 35.5366 110.963 35.4922 110.918 35.4477C110.874 35.4033 110.874 35.3589 110.874 35.3145V24.8312C110.874 24.7868 110.874 24.7424 110.918 24.698C110.918 24.6535 110.963 24.6535 111.051 24.6091C111.096 24.6091 111.185 24.5647 111.274 24.5647C111.362 24.5647 111.496 24.5647 111.629 24.5647C111.762 24.5647 111.895 24.5647 111.984 24.5647C112.073 24.5647 112.162 24.6091 112.206 24.6091C112.251 24.6091 112.295 24.6535 112.34 24.698C112.384 24.7424 112.384 24.7868 112.384 24.8312V29.1844H117.359V24.8312C117.359 24.7868 117.359 24.7424 117.404 24.698C117.404 24.6535 117.448 24.6535 117.537 24.6091C117.581 24.6091 117.67 24.5647 117.759 24.5647C117.848 24.5647 117.981 24.5647 118.114 24.5647C118.248 24.5647 118.381 24.5647 118.47 24.5647C118.559 24.5647 118.647 24.6091 118.692 24.6091C118.736 24.6091 118.781 24.6535 118.825 24.698C118.869 24.7424 118.869 24.7868 118.869 24.8312V35.3145H118.825Z" fill="#A87E33"/>
<path d="M128.02 31.1832C128.02 31.4053 127.976 31.5386 127.842 31.6719C127.754 31.7607 127.62 31.8051 127.487 31.8051H122.512C122.512 32.2049 122.556 32.6047 122.645 32.96C122.734 33.3154 122.867 33.5819 123.089 33.8485C123.267 34.0706 123.534 34.2927 123.845 34.4259C124.156 34.5592 124.555 34.6036 125 34.6036C125.355 34.6036 125.666 34.5592 125.977 34.5148C126.243 34.4703 126.51 34.3815 126.688 34.3371C126.91 34.2482 127.043 34.2038 127.176 34.1594C127.309 34.115 127.398 34.0706 127.487 34.0706C127.532 34.0706 127.576 34.0706 127.576 34.115C127.62 34.115 127.62 34.1594 127.665 34.2038C127.665 34.2482 127.709 34.2927 127.709 34.3815C127.709 34.4703 127.709 34.5592 127.709 34.648C127.709 34.7369 127.709 34.7813 127.709 34.8257C127.709 34.8701 127.709 34.9146 127.709 34.959C127.709 35.0034 127.665 35.0478 127.665 35.0922C127.665 35.1367 127.62 35.1367 127.576 35.1811C127.532 35.2255 127.443 35.2699 127.309 35.3143C127.176 35.4032 126.954 35.4476 126.732 35.5364C126.51 35.6253 126.199 35.6697 125.888 35.7141C125.577 35.7585 125.222 35.803 124.866 35.803C124.244 35.803 123.711 35.7141 123.223 35.5364C122.734 35.3588 122.379 35.0922 122.023 34.7813C121.712 34.4259 121.446 34.0261 121.313 33.4931C121.135 32.96 121.091 32.3826 121.091 31.6719C121.091 31.0055 121.179 30.4281 121.357 29.895C121.535 29.362 121.757 28.9178 122.068 28.5624C122.379 28.207 122.778 27.9405 123.223 27.7184C123.667 27.5407 124.156 27.4075 124.733 27.4075C125.31 27.4075 125.844 27.4963 126.243 27.674C126.643 27.8517 126.998 28.1182 127.265 28.4291C127.532 28.7401 127.754 29.1399 127.842 29.5841C127.976 30.0283 128.02 30.4725 128.02 30.9611V31.1832ZM126.599 30.7834C126.599 30.0727 126.465 29.4952 126.11 29.051C125.755 28.6512 125.266 28.4291 124.6 28.4291C124.244 28.4291 123.933 28.4736 123.711 28.6068C123.445 28.7401 123.223 28.9178 123.045 29.1399C122.867 29.362 122.734 29.5841 122.645 29.895C122.556 30.1615 122.512 30.4725 122.468 30.7834H126.599Z" fill="#A87E33"/>
<path d="M135.838 35.3146C135.838 35.4034 135.838 35.4478 135.749 35.4478C135.705 35.4922 135.661 35.4922 135.572 35.5367C135.483 35.5367 135.394 35.5811 135.216 35.5811C135.083 35.5811 134.95 35.5811 134.861 35.5367C134.772 35.5367 134.728 35.4922 134.683 35.4478C134.639 35.4034 134.639 35.359 134.639 35.3146V34.5594C134.328 34.9148 133.928 35.1813 133.528 35.4034C133.129 35.5811 132.684 35.7143 132.24 35.7143C131.84 35.7143 131.485 35.6699 131.174 35.5811C130.863 35.4922 130.597 35.3146 130.33 35.1369C130.108 34.9592 129.93 34.6927 129.797 34.4261C129.664 34.1596 129.619 33.8043 129.619 33.4489C129.619 33.0047 129.708 32.6493 129.886 32.3384C130.064 32.0274 130.33 31.7609 130.641 31.5388C130.952 31.3167 131.352 31.1834 131.84 31.0502C132.329 30.9613 132.862 30.8725 133.44 30.8725H134.506V30.295C134.506 29.9841 134.461 29.762 134.417 29.5399C134.372 29.3178 134.239 29.1401 134.106 28.9624C133.973 28.8291 133.795 28.6959 133.573 28.607C133.351 28.5182 133.084 28.4738 132.773 28.4738C132.418 28.4738 132.107 28.5182 131.84 28.607C131.574 28.6959 131.307 28.7847 131.13 28.8736C130.908 28.9624 130.774 29.0513 130.597 29.1401C130.463 29.2289 130.375 29.2734 130.286 29.2734C130.241 29.2734 130.197 29.2734 130.152 29.2289C130.108 29.1845 130.108 29.1845 130.064 29.1401C130.019 29.0957 130.019 29.0513 130.019 28.9624C130.019 28.8736 130.019 28.8291 130.019 28.7403C130.019 28.607 130.019 28.4738 130.064 28.3849C130.064 28.2961 130.152 28.2073 130.197 28.1628C130.286 28.074 130.419 27.9852 130.597 27.8963C130.774 27.8075 130.996 27.7186 131.219 27.6298C131.441 27.541 131.707 27.4965 132.018 27.4077C132.285 27.3633 132.596 27.3188 132.907 27.3188C133.44 27.3188 133.928 27.3633 134.284 27.4965C134.683 27.6298 134.994 27.8075 135.216 28.0296C135.438 28.2517 135.616 28.5626 135.749 28.918C135.883 29.2734 135.927 29.6731 135.927 30.1618V35.3146H135.838ZM134.461 31.8497H133.262C132.862 31.8497 132.551 31.8942 132.285 31.9386C132.018 31.983 131.752 32.1163 131.574 32.2051C131.396 32.3384 131.263 32.4716 131.174 32.6493C131.085 32.827 131.041 33.0491 131.041 33.2712C131.041 33.671 131.174 33.9819 131.396 34.204C131.663 34.4261 131.974 34.5594 132.462 34.5594C132.818 34.5594 133.173 34.4706 133.484 34.2929C133.795 34.1152 134.106 33.8043 134.461 33.4489V31.8497Z" fill="#A87E33"/>
<path d="M139.792 35.3145C139.792 35.3589 139.792 35.4033 139.747 35.4478C139.703 35.4922 139.703 35.4922 139.658 35.5366C139.614 35.581 139.525 35.581 139.436 35.581C139.347 35.581 139.214 35.581 139.081 35.581C138.948 35.581 138.814 35.581 138.726 35.581C138.637 35.581 138.548 35.5366 138.503 35.5366C138.459 35.4922 138.415 35.4922 138.415 35.4478C138.415 35.4033 138.37 35.3589 138.37 35.3145V24.0317C138.37 23.9872 138.37 23.9428 138.415 23.8984C138.415 23.854 138.459 23.854 138.503 23.8096C138.548 23.7651 138.637 23.7651 138.726 23.7651C138.814 23.7651 138.948 23.7651 139.081 23.7651C139.214 23.7651 139.347 23.7651 139.436 23.7651C139.525 23.7651 139.614 23.8096 139.658 23.8096C139.703 23.854 139.747 23.854 139.747 23.8984C139.747 23.9428 139.792 23.9872 139.792 24.0317V35.3145Z" fill="#A87E33"/>
<path d="M146.322 34.7368C146.322 34.9145 146.322 35.0477 146.277 35.1366C146.233 35.2254 146.233 35.3142 146.188 35.3587C146.144 35.4031 146.055 35.4475 145.966 35.4919C145.877 35.5363 145.788 35.5808 145.655 35.5808C145.522 35.6252 145.433 35.6252 145.3 35.6252C145.167 35.6252 145.033 35.6696 144.9 35.6696C144.5 35.6696 144.189 35.6252 143.878 35.4919C143.612 35.4031 143.39 35.2254 143.168 35.0033C142.99 34.7812 142.857 34.5147 142.768 34.2037C142.679 33.8928 142.635 33.493 142.635 33.0488V28.6067H141.569C141.48 28.6067 141.435 28.5623 141.346 28.4735C141.302 28.3846 141.258 28.2514 141.258 28.0293C141.258 27.9404 141.258 27.8516 141.258 27.7627C141.258 27.6739 141.302 27.6295 141.302 27.5851C141.302 27.5406 141.346 27.4962 141.391 27.4962C141.435 27.4962 141.48 27.4518 141.524 27.4518H142.59V25.6306C142.59 25.5861 142.59 25.5417 142.635 25.5417C142.635 25.4973 142.679 25.4973 142.723 25.4529C142.768 25.4084 142.857 25.4084 142.946 25.4084C143.034 25.4084 143.168 25.4084 143.301 25.4084C143.434 25.4084 143.567 25.4084 143.656 25.4084C143.745 25.4084 143.834 25.4529 143.878 25.4529C143.923 25.4973 143.967 25.4973 143.967 25.5417C143.967 25.5861 144.012 25.6306 144.012 25.6306V27.4518H145.966C146.011 27.4518 146.055 27.4518 146.099 27.4962C146.144 27.4962 146.144 27.5406 146.188 27.5851C146.233 27.6295 146.233 27.6739 146.233 27.7627C146.233 27.8516 146.233 27.9404 146.233 28.0293C146.233 28.2514 146.188 28.3846 146.144 28.4735C146.099 28.5623 146.011 28.6067 145.922 28.6067H143.967V32.8711C143.967 33.4042 144.056 33.8039 144.189 34.0705C144.323 34.337 144.634 34.4703 145.033 34.4703C145.167 34.4703 145.3 34.4703 145.389 34.4258C145.478 34.3814 145.566 34.3814 145.655 34.337C145.744 34.2926 145.788 34.2926 145.877 34.2481C145.922 34.2037 145.966 34.2037 146.011 34.2037C146.055 34.2037 146.055 34.2037 146.099 34.2037C146.144 34.2037 146.144 34.2481 146.144 34.2926C146.144 34.337 146.188 34.3814 146.188 34.4703C146.277 34.5591 146.322 34.6479 146.322 34.7368Z" fill="#A87E33"/>
<path d="M154.673 35.3145C154.673 35.3589 154.673 35.4033 154.628 35.4478C154.584 35.4922 154.584 35.4922 154.539 35.5366C154.495 35.581 154.406 35.581 154.317 35.581C154.228 35.581 154.095 35.581 153.962 35.581C153.829 35.581 153.695 35.581 153.607 35.581C153.518 35.581 153.429 35.5366 153.384 35.5366C153.34 35.4922 153.296 35.4922 153.296 35.4478C153.251 35.4033 153.251 35.3589 153.251 35.3145V30.8724C153.251 30.4282 153.207 30.0729 153.162 29.8063C153.073 29.5398 152.985 29.3177 152.851 29.14C152.718 28.9623 152.54 28.7847 152.363 28.6958C152.141 28.607 151.919 28.5626 151.652 28.5626C151.297 28.5626 150.941 28.6958 150.586 28.9179C150.231 29.1845 149.875 29.5398 149.475 29.984V35.2701C149.475 35.3145 149.475 35.3589 149.431 35.4033C149.387 35.4478 149.387 35.4478 149.342 35.4922C149.298 35.5366 149.209 35.5366 149.12 35.5366C149.031 35.5366 148.898 35.5366 148.765 35.5366C148.631 35.5366 148.498 35.5366 148.409 35.5366C148.32 35.5366 148.232 35.4922 148.187 35.4922C148.143 35.4478 148.098 35.4478 148.098 35.4033C148.098 35.3589 148.054 35.3145 148.054 35.2701V24.0317C148.054 23.9872 148.054 23.9428 148.098 23.8984C148.098 23.854 148.143 23.854 148.187 23.8096C148.232 23.7651 148.32 23.7651 148.409 23.7651C148.498 23.7651 148.631 23.7651 148.765 23.7651C148.898 23.7651 149.031 23.7651 149.12 23.7651C149.209 23.7651 149.298 23.8096 149.342 23.8096C149.387 23.854 149.431 23.854 149.431 23.8984C149.431 23.9428 149.475 23.9872 149.475 24.0317V28.5626C149.875 28.1628 150.275 27.8074 150.675 27.6297C151.075 27.4076 151.474 27.3188 151.919 27.3188C152.407 27.3188 152.851 27.4076 153.207 27.5853C153.562 27.763 153.829 27.9851 154.051 28.2516C154.273 28.5181 154.406 28.8735 154.495 29.2733C154.584 29.6731 154.628 30.1173 154.628 30.6503V35.3145H154.673Z" fill="#A87E33"/>
<path d="M168.532 33.9818C168.532 34.0707 168.532 34.1595 168.532 34.2039C168.532 34.2928 168.532 34.3372 168.487 34.3816C168.487 34.426 168.443 34.4705 168.443 34.5149C168.399 34.5593 168.399 34.6037 168.31 34.6482C168.265 34.6926 168.132 34.7814 167.954 34.9147C167.777 35.0479 167.555 35.1368 167.288 35.27C167.021 35.3589 166.711 35.4921 166.355 35.5366C166 35.6254 165.644 35.6698 165.2 35.6698C164.49 35.6698 163.868 35.5366 163.29 35.3145C162.713 35.0924 162.224 34.737 161.824 34.2484C161.424 33.8042 161.114 33.2267 160.891 32.5604C160.669 31.8941 160.581 31.0945 160.581 30.2061C160.581 29.3177 160.714 28.4737 160.936 27.8074C161.158 27.0966 161.513 26.5192 161.913 25.9861C162.313 25.4975 162.846 25.1421 163.423 24.8756C164.001 24.6091 164.667 24.4758 165.378 24.4758C165.689 24.4758 166 24.5203 166.311 24.5647C166.622 24.6091 166.888 24.6979 167.155 24.7868C167.421 24.8756 167.643 24.9645 167.821 25.0977C167.999 25.231 168.132 25.3198 168.221 25.4087C168.31 25.4975 168.354 25.5419 168.354 25.5863C168.354 25.6308 168.399 25.6752 168.399 25.7196C168.399 25.764 168.443 25.8529 168.443 25.8973C168.443 25.9861 168.443 26.075 168.443 26.1638C168.443 26.2971 168.443 26.3859 168.443 26.4303C168.443 26.5192 168.399 26.5636 168.399 26.608C168.354 26.6524 168.354 26.6969 168.31 26.7413C168.265 26.7857 168.221 26.7857 168.176 26.7857C168.088 26.7857 167.999 26.7413 167.865 26.608C167.732 26.5192 167.555 26.3859 167.332 26.2527C167.11 26.1194 166.844 25.9861 166.533 25.8973C166.222 25.8084 165.822 25.7196 165.378 25.7196C164.889 25.7196 164.445 25.8084 164.045 26.0306C163.646 26.2082 163.29 26.5192 163.024 26.8745C162.757 27.2299 162.535 27.7185 162.357 28.2516C162.224 28.7846 162.135 29.4065 162.135 30.1172C162.135 30.828 162.224 31.4054 162.357 31.9385C162.491 32.4715 162.713 32.9157 163.024 33.2711C163.29 33.6265 163.646 33.893 164.045 34.0707C164.445 34.2484 164.934 34.3372 165.422 34.3372C165.867 34.3372 166.222 34.2928 166.577 34.1595C166.888 34.0707 167.199 33.9374 167.421 33.8042C167.643 33.6709 167.821 33.5376 167.999 33.4488C168.132 33.36 168.265 33.2711 168.354 33.2711C168.399 33.2711 168.443 33.2711 168.443 33.3155C168.487 33.3155 168.487 33.36 168.532 33.4044C168.532 33.4488 168.576 33.5376 168.576 33.5821C168.532 33.7153 168.532 33.8486 168.532 33.9818Z" fill="#A87E33"/>
<path d="M171.686 35.3145C171.686 35.3589 171.686 35.4033 171.641 35.4478C171.597 35.4922 171.597 35.4922 171.552 35.5366C171.508 35.581 171.419 35.581 171.33 35.581C171.242 35.581 171.108 35.581 170.975 35.581C170.842 35.581 170.708 35.581 170.62 35.581C170.531 35.581 170.442 35.5366 170.398 35.5366C170.353 35.4922 170.309 35.4922 170.309 35.4478C170.309 35.4033 170.264 35.3589 170.264 35.3145V24.0317C170.264 23.9872 170.264 23.9428 170.309 23.8984C170.309 23.854 170.353 23.854 170.398 23.8096C170.442 23.7651 170.531 23.7651 170.62 23.7651C170.708 23.7651 170.842 23.7651 170.975 23.7651C171.108 23.7651 171.242 23.7651 171.33 23.7651C171.419 23.7651 171.508 23.8096 171.552 23.8096C171.597 23.854 171.641 23.854 171.641 23.8984C171.686 23.9428 171.686 23.9872 171.686 24.0317V35.3145Z" fill="#A87E33"/>
<path d="M180.747 35.3144C180.747 35.3588 180.747 35.4032 180.703 35.4476C180.703 35.492 180.659 35.492 180.614 35.5365C180.57 35.5809 180.481 35.5809 180.436 35.5809C180.348 35.5809 180.259 35.5809 180.126 35.5809C179.992 35.5809 179.903 35.5809 179.815 35.5809C179.726 35.5809 179.681 35.5365 179.637 35.5365C179.592 35.492 179.548 35.492 179.548 35.4476C179.548 35.4032 179.504 35.3588 179.504 35.3144V34.2927C179.059 34.7813 178.66 35.1367 178.215 35.3588C177.816 35.5809 177.371 35.6697 176.927 35.6697C176.439 35.6697 175.994 35.5809 175.639 35.4032C175.284 35.2255 175.017 35.0034 174.795 34.7369C174.573 34.4259 174.44 34.115 174.351 33.7152C174.262 33.3154 174.218 32.8712 174.218 32.2938V27.7184C174.218 27.674 174.218 27.6296 174.262 27.5852C174.262 27.5407 174.306 27.5407 174.395 27.4963C174.44 27.4519 174.529 27.4519 174.617 27.4519C174.706 27.4519 174.839 27.4519 174.973 27.4519C175.106 27.4519 175.239 27.4519 175.328 27.4519C175.417 27.4519 175.506 27.4963 175.55 27.4963C175.595 27.5407 175.639 27.5407 175.683 27.5852C175.683 27.6296 175.728 27.674 175.728 27.7184V32.1161C175.728 32.5603 175.772 32.9156 175.817 33.1822C175.861 33.4487 175.994 33.6708 176.128 33.8485C176.261 34.0262 176.439 34.2038 176.616 34.2927C176.838 34.3815 177.061 34.4704 177.327 34.4704C177.682 34.4704 178.038 34.3371 178.349 34.115C178.704 33.8485 179.059 33.4931 179.459 33.0489V27.7184C179.459 27.674 179.459 27.6296 179.504 27.5852C179.504 27.5407 179.548 27.5407 179.637 27.4963C179.681 27.4519 179.77 27.4519 179.859 27.4519C179.948 27.4519 180.081 27.4519 180.214 27.4519C180.348 27.4519 180.481 27.4519 180.57 27.4519C180.659 27.4519 180.747 27.4963 180.792 27.4963C180.836 27.5407 180.881 27.5407 180.925 27.5852C180.97 27.6296 180.97 27.674 180.97 27.7184V35.3144H180.747Z" fill="#A87E33"/>
<path d="M188.121 33.2266C188.121 33.6264 188.033 33.9373 187.899 34.2483C187.766 34.5592 187.544 34.8257 187.277 35.0034C187.011 35.2255 186.7 35.3588 186.345 35.492C185.989 35.5809 185.589 35.6697 185.145 35.6697C184.879 35.6697 184.612 35.6697 184.39 35.6253C184.168 35.5809 183.946 35.5365 183.724 35.4476C183.546 35.4032 183.368 35.3144 183.235 35.2255C183.102 35.1367 183.013 35.0923 182.924 35.0478C182.88 35.0034 182.835 34.9146 182.791 34.8257C182.746 34.7369 182.746 34.6036 182.746 34.4259C182.746 34.3371 182.746 34.2483 182.746 34.1594C182.746 34.0706 182.791 34.0262 182.791 33.9817C182.791 33.9373 182.835 33.8929 182.88 33.8929C182.924 33.8929 182.924 33.8485 182.969 33.8485C183.013 33.8485 183.102 33.8929 183.235 33.9817C183.368 34.0706 183.502 34.1594 183.679 34.2483C183.857 34.3371 184.079 34.4259 184.301 34.5148C184.523 34.6036 184.834 34.648 185.145 34.648C185.367 34.648 185.589 34.6036 185.767 34.5592C185.945 34.5148 186.122 34.4259 186.256 34.3371C186.389 34.2483 186.522 34.115 186.567 33.9817C186.655 33.8485 186.7 33.6708 186.7 33.4487C186.7 33.2266 186.655 33.0489 186.522 32.9156C186.433 32.7824 186.256 32.6491 186.078 32.5159C185.9 32.3826 185.678 32.2938 185.456 32.2049C185.234 32.1161 185.012 32.0272 184.745 31.9384C184.523 31.8495 184.257 31.7163 184.035 31.6274C183.813 31.4942 183.59 31.3609 183.413 31.1832C183.235 31.0056 183.102 30.7835 182.969 30.5613C182.88 30.3392 182.791 30.0283 182.791 29.6729C182.791 29.362 182.835 29.0955 182.969 28.8289C183.102 28.5624 183.235 28.3403 183.502 28.1182C183.724 27.8961 184.035 27.7628 184.346 27.6296C184.701 27.4963 185.101 27.4519 185.545 27.4519C185.767 27.4519 185.945 27.4519 186.167 27.4963C186.389 27.5407 186.567 27.5852 186.7 27.6296C186.878 27.674 187.011 27.7184 187.1 27.8073C187.233 27.8517 187.322 27.8961 187.366 27.985C187.411 28.0294 187.455 28.0738 187.499 28.1182C187.499 28.1626 187.544 28.2071 187.544 28.2515C187.544 28.2959 187.544 28.3403 187.588 28.4292C187.588 28.4736 187.588 28.5624 187.588 28.6513C187.588 28.7401 187.588 28.8289 187.588 28.9178C187.588 29.0066 187.544 29.051 187.544 29.0955C187.544 29.1399 187.499 29.1843 187.455 29.1843C187.411 29.1843 187.411 29.2287 187.366 29.2287C187.322 29.2287 187.233 29.1843 187.144 29.1399C187.055 29.0955 186.922 29.0066 186.789 28.9622C186.655 28.8734 186.478 28.8289 186.256 28.7845C186.034 28.7401 185.811 28.6957 185.545 28.6957C185.323 28.6957 185.101 28.7401 184.923 28.7845C184.745 28.8289 184.612 28.9178 184.479 29.0066C184.346 29.0955 184.257 29.2287 184.212 29.362C184.168 29.4953 184.124 29.6285 184.124 29.8062C184.124 30.0283 184.168 30.206 184.301 30.3392C184.434 30.4725 184.568 30.6058 184.745 30.739C184.923 30.8723 185.145 30.9611 185.367 31.05C185.589 31.1388 185.811 31.2277 186.078 31.3165C186.3 31.4053 186.567 31.5386 186.789 31.6274C187.011 31.7607 187.233 31.894 187.411 32.0716C187.588 32.2493 187.722 32.427 187.855 32.6935C188.033 32.6491 188.121 32.9156 188.121 33.2266Z" fill="#A87E33"/>
<path d="M193.852 34.7368C193.852 34.9145 193.852 35.0477 193.807 35.1366C193.763 35.2254 193.763 35.3142 193.718 35.3587C193.674 35.4031 193.585 35.4475 193.496 35.4919C193.407 35.5363 193.318 35.5808 193.185 35.5808C193.052 35.6252 192.963 35.6252 192.83 35.6252C192.697 35.6252 192.563 35.6696 192.43 35.6696C192.03 35.6696 191.719 35.6252 191.408 35.4919C191.142 35.4031 190.875 35.2254 190.698 35.0033C190.52 34.7812 190.387 34.5147 190.298 34.2037C190.209 33.8928 190.165 33.493 190.165 33.0488V28.6067H189.099C189.01 28.6067 188.965 28.5623 188.876 28.4735C188.832 28.3846 188.788 28.2514 188.788 28.0293C188.788 27.9404 188.788 27.8516 188.788 27.7627C188.788 27.6739 188.832 27.6295 188.832 27.5851C188.832 27.5406 188.876 27.4962 188.921 27.4962C188.965 27.4962 189.01 27.4518 189.054 27.4518H190.12V25.6306C190.12 25.5861 190.12 25.5417 190.165 25.5417C190.165 25.4973 190.209 25.4973 190.253 25.4529C190.298 25.4084 190.387 25.4084 190.476 25.4084C190.564 25.4084 190.698 25.4084 190.831 25.4084C190.964 25.4084 191.097 25.4084 191.186 25.4084C191.275 25.4084 191.364 25.4529 191.408 25.4529C191.453 25.4973 191.497 25.4973 191.497 25.5417C191.497 25.5861 191.542 25.6306 191.542 25.6306V27.4518H193.496C193.541 27.4518 193.585 27.4518 193.629 27.4962C193.674 27.4962 193.674 27.5406 193.718 27.5851C193.763 27.6295 193.763 27.6739 193.763 27.7627C193.763 27.8516 193.763 27.9404 193.763 28.0293C193.763 28.2514 193.718 28.3846 193.674 28.4735C193.629 28.5623 193.541 28.6067 193.452 28.6067H191.497V32.8711C191.497 33.4042 191.586 33.8039 191.719 34.0705C191.853 34.337 192.164 34.4703 192.563 34.4703C192.697 34.4703 192.785 34.4703 192.919 34.4258C193.008 34.3814 193.096 34.3814 193.185 34.337C193.274 34.2926 193.318 34.2926 193.407 34.2481C193.452 34.2037 193.496 34.2037 193.541 34.2037C193.585 34.2037 193.585 34.2037 193.629 34.2037C193.674 34.2037 193.674 34.2481 193.674 34.2926C193.674 34.337 193.718 34.3814 193.718 34.4703C193.852 34.5591 193.852 34.6479 193.852 34.7368Z" fill="#A87E33"/>
<path d="M201.981 31.1832C201.981 31.4053 201.936 31.5386 201.803 31.6719C201.714 31.7607 201.581 31.8051 201.447 31.8051H196.472C196.472 32.2049 196.517 32.6047 196.606 32.96C196.694 33.3154 196.828 33.5819 197.05 33.8485C197.228 34.0706 197.494 34.2927 197.805 34.4259C198.116 34.5592 198.516 34.6036 198.96 34.6036C199.315 34.6036 199.626 34.5592 199.937 34.5148C200.248 34.4703 200.47 34.3815 200.648 34.3371C200.87 34.2482 201.003 34.2038 201.137 34.1594C201.27 34.115 201.359 34.0706 201.447 34.0706C201.492 34.0706 201.536 34.0706 201.536 34.115C201.581 34.115 201.581 34.1594 201.625 34.2038C201.625 34.2482 201.67 34.2927 201.67 34.3815C201.67 34.4703 201.67 34.5592 201.67 34.648C201.67 34.7369 201.67 34.7813 201.67 34.8257C201.67 34.8701 201.67 34.9146 201.67 34.959C201.67 35.0034 201.625 35.0478 201.625 35.0922C201.625 35.1367 201.581 35.1367 201.536 35.1811C201.492 35.2255 201.403 35.2699 201.27 35.3143C201.137 35.4032 200.914 35.4476 200.692 35.5364C200.47 35.6253 200.159 35.6697 199.848 35.7141C199.537 35.7585 199.182 35.803 198.827 35.803C198.205 35.803 197.672 35.7141 197.183 35.5364C196.694 35.3588 196.339 35.0922 195.984 34.7813C195.673 34.4259 195.406 34.0261 195.273 33.4931C195.095 32.96 195.051 32.3826 195.051 31.6719C195.051 31.0055 195.14 30.4281 195.317 29.895C195.495 29.362 195.717 28.9178 196.028 28.5624C196.339 28.207 196.739 27.9405 197.183 27.7184C197.627 27.5407 198.116 27.4075 198.693 27.4075C199.271 27.4075 199.804 27.4963 200.204 27.674C200.603 27.8517 200.959 28.1182 201.225 28.4291C201.492 28.7401 201.714 29.1399 201.803 29.5841C201.936 30.0283 201.981 30.4725 201.981 30.9611V31.1832ZM200.603 30.7834C200.603 30.0727 200.47 29.4952 200.115 29.051C199.759 28.6512 199.271 28.4291 198.605 28.4291C198.249 28.4291 197.938 28.4736 197.716 28.6068C197.45 28.7401 197.228 28.9178 197.05 29.1399C196.872 29.362 196.739 29.5841 196.65 29.895C196.561 30.1615 196.517 30.4725 196.472 30.7834H200.603Z" fill="#A87E33"/>
<path d="M208.51 28.207C208.51 28.3403 208.51 28.4291 208.51 28.518C208.51 28.6068 208.51 28.6512 208.466 28.6957C208.466 28.7401 208.422 28.7845 208.422 28.7845C208.377 28.8289 208.377 28.8289 208.333 28.8289C208.288 28.8289 208.244 28.8289 208.155 28.7845C208.111 28.7401 208.022 28.7401 207.933 28.6957C207.844 28.6512 207.755 28.6512 207.666 28.6068C207.578 28.6068 207.444 28.5624 207.355 28.5624C207.222 28.5624 207.089 28.6068 206.956 28.6512C206.822 28.6957 206.689 28.7845 206.511 28.9178C206.378 29.051 206.201 29.2287 206.023 29.4508C205.845 29.6729 205.667 29.9394 205.49 30.2504V35.2255C205.49 35.2699 205.49 35.3143 205.445 35.3587C205.401 35.4032 205.401 35.4032 205.357 35.4476C205.312 35.492 205.223 35.492 205.134 35.492C205.046 35.492 204.912 35.492 204.779 35.492C204.646 35.492 204.513 35.492 204.424 35.492C204.335 35.492 204.246 35.4476 204.202 35.4476C204.157 35.4032 204.113 35.4032 204.113 35.3587C204.113 35.3143 204.068 35.2699 204.068 35.2255V27.7184C204.068 27.674 204.068 27.6296 204.113 27.5851C204.113 27.5407 204.157 27.5407 204.202 27.4963C204.246 27.4519 204.335 27.4519 204.379 27.4519C204.468 27.4519 204.557 27.4519 204.69 27.4519C204.823 27.4519 204.912 27.4519 205.001 27.4519C205.09 27.4519 205.134 27.4963 205.179 27.4963C205.223 27.5407 205.268 27.5407 205.268 27.5851C205.268 27.6296 205.312 27.674 205.312 27.7184V28.8289C205.534 28.518 205.712 28.2959 205.89 28.0738C206.067 27.8961 206.245 27.7184 206.423 27.6296C206.6 27.5407 206.734 27.4519 206.911 27.4075C207.089 27.363 207.222 27.363 207.4 27.363C207.489 27.363 207.533 27.363 207.666 27.363C207.755 27.363 207.844 27.4075 207.977 27.4075C208.066 27.4519 208.155 27.4519 208.244 27.4963C208.333 27.5407 208.377 27.5407 208.422 27.5851C208.466 27.6296 208.466 27.6296 208.51 27.674C208.51 27.7184 208.51 27.7184 208.555 27.7628C208.555 27.8072 208.555 27.8517 208.555 27.9405C208.51 27.9849 208.51 28.0738 208.51 28.207Z" fill="#A87E33"/>
</svg>
