<svg width="36" height="36" viewBox="0 0 36 36" fill="none" xmlns="http://www.w3.org/2000/svg">
<circle cx="18" cy="18" r="18" fill="#105F43" fill-opacity="0.15"/>
<circle cx="18" cy="18" r="15" fill="white" fill-opacity="0.65"/>
<path d="M11.6949 22.9131C11.1926 22.9131 10.7354 22.9131 10.2782 22.9131C9.52482 22.9067 9.02254 22.4192 9.00966 21.6687C8.99678 20.899 8.99678 20.1293 9.00966 19.3596C9.02254 18.6092 9.53126 18.1153 10.2782 18.1153C10.7354 18.1153 11.1926 18.1153 11.6885 18.1153C11.6885 18.0126 11.6885 17.9164 11.6885 17.8266C11.6885 15.1519 11.6885 12.4707 11.6885 9.79599C11.6949 8.66708 12.3646 8 13.498 8C16.1575 8 18.817 8 21.4765 8C22.5841 8 23.2603 8.6735 23.2603 9.78316C23.2603 10.5978 23.2603 11.4188 23.2603 12.2334C23.2603 12.3168 23.2603 12.4066 23.2603 12.5156C23.9107 12.5156 24.5353 12.5092 25.1599 12.5156C26.0292 12.5285 26.7505 13.1057 26.9437 13.9524C26.9823 14.132 26.9952 14.318 26.9952 14.504C27.0016 15.6073 27.0016 16.717 26.9952 17.8202C26.9887 19.0453 26.216 19.815 24.9925 19.815C24.4258 19.815 23.8527 19.815 23.2603 19.815C23.2603 19.9305 23.2603 20.0203 23.2603 20.1165C23.2603 22.2781 23.2603 24.4461 23.2603 26.6077C23.2603 27.6981 22.5777 28.378 21.4894 28.378C18.817 28.378 16.1382 28.378 13.4658 28.378C12.384 28.378 11.7014 27.6981 11.7014 26.627C11.7014 25.4788 11.7014 24.3371 11.7014 23.1889C11.6949 23.112 11.6949 23.0286 11.6949 22.9131ZM12.2616 22.9388C12.2616 23.035 12.2616 23.1248 12.2616 23.2082C12.2616 24.3435 12.2616 25.4852 12.2616 26.6205C12.2616 27.4031 12.6802 27.8136 13.4722 27.8136C16.1382 27.8136 18.8041 27.8136 21.4701 27.8136C22.2557 27.8136 22.6807 27.3967 22.6807 26.6205C22.6807 24.4461 22.6807 22.2781 22.6807 20.1037C22.6807 20.0203 22.6807 19.9305 22.6807 19.8214C22.1398 19.8214 21.6182 19.815 21.0966 19.8279C20.9807 19.8279 20.8455 19.8856 20.7682 19.9626C20.2659 20.4436 19.7765 20.9439 19.2807 21.4378C19.1583 21.5597 19.0166 21.6367 18.8814 21.5212C18.7977 21.4507 18.7462 21.3031 18.7397 21.1941C18.7269 20.7323 18.7333 20.2704 18.7333 19.8086C17.6643 19.5585 17.1299 18.7439 17.1621 17.7496C17.1943 16.6528 17.1685 15.556 17.1685 14.4527C17.1749 13.2853 17.9477 12.5156 19.1261 12.5156C20.2208 12.5156 21.3091 12.5156 22.4038 12.5156C22.4875 12.5156 22.5777 12.5156 22.6743 12.5156C22.6743 11.4893 22.6936 10.4887 22.6678 9.4881C22.655 9.02628 22.2364 8.62218 21.7727 8.59011C21.2447 8.55162 20.7167 8.57728 20.1886 8.57728C20.0534 9.27643 19.725 9.54583 19.0231 9.54583C17.9928 9.54583 16.9689 9.54583 15.9386 9.54583C15.2109 9.54583 14.8954 9.28926 14.7473 8.57087C14.3094 8.57087 13.8715 8.57087 13.4336 8.57087C12.6995 8.57087 12.268 9.00062 12.268 9.73185C12.268 12.4322 12.268 15.1326 12.268 17.833C12.268 17.9164 12.268 17.9998 12.268 18.1024C12.3904 18.1024 12.4741 18.1024 12.5643 18.1024C13.2404 18.1024 13.9166 18.096 14.5863 18.1024C15.3268 18.1088 15.8355 18.6027 15.842 19.334C15.8484 20.1165 15.8484 20.9055 15.842 21.688C15.8355 22.2204 15.5844 22.6052 15.0885 22.8105C14.9469 22.8682 14.9147 22.9452 14.9211 23.0799C14.9276 23.3814 14.9276 23.6892 14.9211 23.9907C14.9211 24.1639 14.9598 24.3563 14.7408 24.4461C14.5347 24.5295 14.4253 24.382 14.3094 24.2665C13.9294 23.9137 13.5302 23.5738 13.176 23.1889C12.9249 22.9195 12.6415 22.8682 12.2616 22.9388ZM19.3064 20.6168C19.6219 20.3025 19.9053 20.0588 20.1435 19.7701C20.472 19.3596 20.8648 19.2249 21.3928 19.2442C22.6099 19.2891 23.8334 19.257 25.0504 19.257C25.8683 19.257 26.4156 18.7246 26.4221 17.91C26.4285 16.749 26.4349 15.588 26.4221 14.4271C26.4156 13.6189 25.8747 13.0993 25.0633 13.0993C23.0735 13.0993 21.0837 13.0993 19.0875 13.0993C18.2825 13.0993 17.7481 13.6189 17.7416 14.4142C17.7287 15.5945 17.7287 16.7683 17.7416 17.9485C17.7481 18.6925 18.231 19.1929 18.9716 19.2634C19.2227 19.2891 19.3 19.3725 19.3064 19.6354C19.3064 19.9241 19.3064 20.232 19.3064 20.6168ZM14.348 23.5353C14.348 23.2082 14.348 22.958 14.348 22.7014C14.348 22.4898 14.4446 22.3743 14.6507 22.3422C15.0821 22.2717 15.2624 22.0664 15.2624 21.6303C15.2688 20.8926 15.2624 20.155 15.2624 19.4174C15.2624 18.9235 15.0177 18.6797 14.5219 18.6797C13.1245 18.6797 11.7271 18.6797 10.3298 18.6797C9.82104 18.6797 9.57633 18.9235 9.5699 19.4302C9.56346 20.1486 9.5699 20.8734 9.5699 21.5918C9.5699 22.1049 9.8146 22.3422 10.3233 22.3422C11.1605 22.3422 11.9911 22.3358 12.8283 22.3487C12.9635 22.3487 13.1245 22.4192 13.234 22.5026C13.6075 22.8233 13.9488 23.1569 14.348 23.5353ZM15.3654 8.5837C15.3976 8.85309 15.5136 8.96855 15.7647 8.97496C16.0351 8.98779 16.312 8.98138 16.5825 8.98138C17.4261 8.98138 18.2697 8.98138 19.1132 8.98138C19.4288 8.98138 19.5447 8.87875 19.5898 8.59011C18.1795 8.5837 16.7693 8.5837 15.3654 8.5837Z" fill="#105F43"/>
<path d="M17.4718 27.0117C16.9115 27.0117 16.3449 27.0117 15.7846 27.0117C15.5206 27.0117 15.3918 26.9091 15.4047 26.7231C15.424 26.4858 15.5914 26.4473 15.7846 26.4473C16.918 26.4473 18.0513 26.4473 19.1847 26.4473C19.3779 26.4473 19.5453 26.4986 19.5517 26.7295C19.5582 26.9091 19.4358 27.0117 19.1847 27.0117C18.6116 27.0181 18.0384 27.0117 17.4718 27.0117Z" fill="#105F43"/>
<path d="M22.243 14.7799C21.5153 14.7799 20.7812 14.7799 20.0535 14.7799C19.796 14.7799 19.6607 14.6836 19.6543 14.4976C19.6543 14.318 19.7895 14.209 20.0471 14.209C21.5089 14.209 22.9642 14.209 24.426 14.209C24.6835 14.209 24.8188 14.3052 24.8188 14.4912C24.8188 14.6772 24.69 14.7799 24.4324 14.7799C23.7047 14.7799 22.9771 14.7799 22.243 14.7799Z" fill="#105F43"/>
<path d="M22.2429 18.1659C21.5346 18.1659 20.8327 18.1659 20.1243 18.1659C20.0471 18.1659 19.944 18.1851 19.8861 18.1466C19.7959 18.0761 19.6671 17.9735 19.6736 17.8772C19.6736 17.7874 19.8024 17.6848 19.8925 17.6143C19.9312 17.5822 20.0149 17.6014 20.0793 17.6014C21.5153 17.6014 22.9513 17.6014 24.3937 17.6014C24.4517 17.6014 24.5032 17.6014 24.5612 17.6078C24.7221 17.6207 24.8123 17.7169 24.8187 17.8708C24.8252 18.0376 24.7286 18.1402 24.5612 18.1595C24.4903 18.1659 24.4195 18.1659 24.3422 18.1659C23.6403 18.1659 22.9448 18.1659 22.2429 18.1659Z" fill="#105F43"/>
<path d="M22.5843 16.4674C21.9855 16.4674 21.3801 16.4674 20.7813 16.4674C20.4979 16.4674 20.3691 16.3776 20.3691 16.1787C20.3756 15.9927 20.4979 15.8965 20.7684 15.8965C21.9855 15.8965 23.209 15.8965 24.426 15.8965C24.4582 15.8965 24.4904 15.8965 24.5226 15.8965C24.7094 15.9157 24.8317 16.0055 24.8188 16.2044C24.806 16.384 24.69 16.4674 24.5097 16.4674C23.8658 16.4674 23.2218 16.4674 22.5843 16.4674Z" fill="#105F43"/>
<path d="M10.7678 20.7967C10.6583 20.7967 10.5424 20.8031 10.4329 20.7967C10.2655 20.7903 10.1367 20.6877 10.1625 20.5273C10.1818 20.4247 10.2977 20.2708 10.3943 20.2515C10.6454 20.213 10.9095 20.213 11.1606 20.2515C11.2507 20.2643 11.3731 20.4183 11.3924 20.5209C11.4246 20.6813 11.2958 20.7839 11.1284 20.7903C11.006 20.8031 10.8837 20.7967 10.7678 20.7967Z" fill="#105F43"/>
<path d="M12.4036 20.7969C12.2812 20.7969 12.146 20.8289 12.0494 20.7905C11.9464 20.7456 11.8047 20.6237 11.8047 20.5339C11.8047 20.4377 11.9335 20.2709 12.0236 20.2581C12.2748 20.2196 12.5324 20.2324 12.7899 20.2452C12.9509 20.2581 13.0733 20.3799 13.0218 20.5403C12.9896 20.6429 12.8672 20.7456 12.7577 20.7905C12.6611 20.8289 12.5259 20.7969 12.4036 20.7969Z" fill="#105F43"/>
<path d="M14.0518 20.7956C13.9295 20.7956 13.7943 20.8277 13.6977 20.7892C13.5946 20.7443 13.453 20.6289 13.4465 20.5391C13.4401 20.4428 13.5689 20.2761 13.659 20.2632C13.9166 20.2248 14.1871 20.2248 14.4446 20.2632C14.5348 20.2761 14.6636 20.4493 14.6571 20.5455C14.6507 20.6353 14.509 20.7507 14.406 20.7956C14.303 20.8277 14.1677 20.7956 14.0518 20.7956Z" fill="#105F43"/>
</svg>
