<svg width="26" height="26" viewBox="0 0 26 26" fill="none" xmlns="http://www.w3.org/2000/svg">
<path d="M9.73877 0.0101182C10.1182 0.0910638 10.5128 0.136596 10.8771 0.263073C13.3257 1.09277 14.7321 2.82804 15.1115 5.36264C15.3999 7.29016 14.8434 9.0052 13.5533 10.4774C13.5381 10.4976 13.528 10.5179 13.5179 10.528C13.9985 10.8265 14.4791 11.13 14.9598 11.4234C15.0002 11.4487 15.0812 11.4336 15.1318 11.4083C15.582 11.2008 15.9615 11.297 16.2448 11.6966C16.4421 11.9799 16.6343 12.2683 16.8721 12.6174C16.9227 12.4808 16.9581 12.41 16.9733 12.3391C17.0289 12.0609 17.0745 11.7776 17.125 11.4993C17.2212 10.9884 17.6158 10.7152 18.1217 10.8062C18.8755 10.9428 19.6293 11.0794 20.3781 11.2211C20.9093 11.3223 21.1774 11.6966 21.0914 12.2278C21.0509 12.4909 20.9953 12.759 20.9548 13.0221C20.9396 13.1132 20.9548 13.2042 20.9548 13.3661C21.2583 13.1537 21.5062 12.9766 21.7592 12.8046C21.8654 12.7338 21.9767 12.6528 22.0931 12.6073C22.4219 12.4808 22.8014 12.587 23.0088 12.8855C23.4894 13.5736 23.9599 14.2717 24.4152 14.9749C24.6479 15.3341 24.5417 15.7894 24.1825 16.0576C23.9397 16.2397 23.6867 16.4016 23.4439 16.5837C23.3933 16.6242 23.3579 16.69 23.3174 16.7456C23.373 16.781 23.4287 16.8316 23.4894 16.8417C23.7676 16.9025 24.051 16.9429 24.3292 17.0036C24.8199 17.1099 25.1184 17.55 25.0274 18.0407C24.8908 18.8047 24.7542 19.5635 24.6125 20.3224C24.5063 20.8789 24.1268 21.1369 23.5653 21.0357C23.2921 20.9902 23.0189 20.9295 22.7457 20.889C22.6951 20.8789 22.6344 20.9143 22.5788 20.9295C22.5939 20.9801 22.5939 21.0357 22.6243 21.0813C22.7963 21.3393 22.9734 21.5922 23.1454 21.8502C23.4135 22.26 23.3427 22.7255 22.943 23.0138C22.2954 23.4793 21.6428 23.9397 20.9851 24.395C20.5956 24.6631 20.1251 24.5771 19.8418 24.1876C19.6546 23.9295 19.4826 23.6614 19.3055 23.3983C19.2802 23.3579 19.265 23.3073 19.2448 23.2617C19.2145 23.2719 19.1892 23.287 19.1588 23.2972C19.1335 23.368 19.0981 23.4337 19.0829 23.5046C19.0273 23.7828 18.9817 24.0661 18.9311 24.3444C18.835 24.8503 18.4354 25.1285 17.9294 25.0324C17.1706 24.8958 16.4067 24.7542 15.6478 24.6125C15.1318 24.5164 14.8586 24.1117 14.9496 23.5906C15.0002 23.3123 15.0559 23.029 15.1014 22.7508C15.1115 22.685 15.0862 22.6192 15.0761 22.5484C15.0103 22.5686 14.9395 22.5788 14.8839 22.6142C14.6461 22.771 14.4184 22.943 14.1807 23.1049C13.781 23.3781 13.3408 23.3326 13.0525 22.9531C12.9462 22.8115 12.8349 22.7912 12.6781 22.7912C8.64094 22.7912 4.60378 22.7912 0.571678 22.7963C0.318723 22.7963 0.126477 22.7356 0 22.5079C0 20.9244 0 19.346 0 17.7625C0.0303546 17.5703 0.0607092 17.378 0.0910638 17.1858C0.495792 14.5904 1.77068 12.5466 3.97645 11.0997C4.28506 10.8973 4.61896 10.7303 4.9478 10.5381C4.92756 10.5077 4.90733 10.4774 4.88709 10.4572C3.52113 8.88884 2.99499 7.06756 3.38454 5.0338C3.81962 2.75215 5.14004 1.14842 7.34075 0.328841C7.77584 0.16695 8.25139 0.106241 8.71177 0C9.05579 0.0101182 9.39981 0.0101182 9.73877 0.0101182ZM5.04392 21.9666C7.47229 21.9666 9.90066 21.9666 12.329 21.9666C12.329 21.9363 12.329 21.9261 12.329 21.9211C12.1115 21.5973 11.8939 21.2735 11.6764 20.9447C11.3931 20.5197 11.469 20.0745 11.8838 19.7608C12.1165 19.5838 12.3594 19.4168 12.5921 19.2398C12.6427 19.2043 12.6629 19.1285 12.6983 19.0728C12.6477 19.0424 12.5972 18.9969 12.5415 18.9868C12.2784 18.9311 12.0154 18.8856 11.7472 18.8401C11.2211 18.744 10.9378 18.3645 11.0288 17.8384C11.1654 17.0593 11.3071 16.2852 11.4538 15.5061C11.555 14.9547 11.9496 14.6967 12.5061 14.8029C12.7641 14.8535 13.0171 14.899 13.2751 14.9395C13.3408 14.9496 13.4066 14.9294 13.4724 14.9243C13.4521 14.8535 13.4471 14.7726 13.4117 14.7119C13.265 14.4842 13.1132 14.2667 12.9614 14.0441C12.6376 13.5634 12.7135 13.1132 13.1891 12.7742C13.5685 12.5061 13.9429 12.243 14.378 11.9344C13.9075 11.6865 13.4774 11.4639 13.0525 11.2312C12.9058 11.1503 12.8096 11.1857 12.6832 11.2767C10.6443 12.7945 7.89725 12.8096 5.83314 11.3071C5.68137 11.1958 5.56501 11.1755 5.39806 11.2565C2.60544 12.6073 1.09782 14.8485 0.860047 17.9143C0.758865 19.2094 0.829692 20.5197 0.824633 21.825C0.824633 21.8705 0.834751 21.916 0.83981 21.9615C1.99328 21.9615 3.12652 21.9615 4.24458 21.9615C4.24458 21.2634 4.23952 20.5905 4.24458 19.9126C4.24458 19.6141 4.41659 19.432 4.65943 19.4421C4.90227 19.4522 5.04898 19.6344 5.04898 19.9379C5.04392 20.6158 5.04392 21.2937 5.04392 21.9666ZM9.2278 0.814515C8.56 0.819574 7.92761 0.951111 7.32052 1.20407C4.06246 2.57508 3.03546 6.86014 5.2817 9.67806C7.05744 11.9041 10.1789 12.2481 12.3897 10.4622C14.2667 8.94955 14.9243 6.24799 13.9125 3.99669C13.012 1.98823 11.4336 0.920756 9.2278 0.814515ZM23.7171 15.3999C23.2617 14.7169 22.8216 14.0542 22.3663 13.3712C21.997 13.6242 21.6529 13.867 21.3089 14.1098C21.1116 14.2515 20.9244 14.2515 20.7271 14.0997C20.6108 14.0086 20.4843 13.9328 20.3578 13.8569C20.0846 13.7 20.034 13.5938 20.0947 13.2751C20.1656 12.8703 20.2364 12.4656 20.3123 12.0457C19.5129 11.8889 18.7389 11.7371 17.9497 11.5853C17.889 11.8889 17.8283 12.1671 17.7827 12.4454C17.636 13.3206 17.6208 13.2093 16.9227 13.351C16.5129 13.4319 16.4522 13.4218 16.2144 13.0727C15.9969 12.754 15.7793 12.4302 15.5567 12.1014C14.8839 12.5719 14.2363 13.0221 13.5786 13.4825C13.7506 13.7456 13.8923 14.0086 14.0795 14.2312C14.4184 14.6309 14.4842 14.9901 14.125 15.4353C13.8164 15.8198 13.8316 15.8653 13.3307 15.7692C12.9816 15.7034 12.6326 15.6478 12.2683 15.582C12.1165 16.4067 11.9749 17.1959 11.8282 17.98C11.8838 18.0003 11.9041 18.0104 11.9294 18.0155C12.2481 18.0812 12.5668 18.147 12.8855 18.2128C13.3813 18.319 13.4016 18.3392 13.4876 18.835C13.5027 18.9311 13.523 19.0273 13.5483 19.1183C13.6292 19.3713 13.5483 19.5585 13.3307 19.7052C12.9968 19.9328 12.673 20.1757 12.3341 20.4236C12.7894 21.1066 13.2346 21.7744 13.6899 22.4573C14.0441 22.2145 14.3729 21.9767 14.7119 21.7491C14.7827 21.6985 14.8636 21.6479 14.9446 21.6276C15.1824 21.5669 15.9412 22.0425 15.9716 22.2853C15.9918 22.427 15.9564 22.5737 15.9311 22.7204C15.8755 23.0695 15.8097 23.4186 15.7439 23.7778C16.5483 23.9346 17.3224 24.0864 18.1166 24.2381C18.1824 23.8941 18.2431 23.5754 18.3038 23.2567C18.4202 22.6192 18.4202 22.6192 19.0526 22.5029C19.093 22.4978 19.1335 22.4826 19.1689 22.4725C19.5281 22.3764 19.6141 22.4067 19.8266 22.7154C20.0543 23.0493 20.2819 23.3832 20.5146 23.7221C21.1824 23.2567 21.83 22.8014 22.4675 22.3511C22.4624 22.3157 22.4624 22.2954 22.4573 22.2853C22.3106 22.0577 22.1589 21.8351 22.0172 21.6125C21.6782 21.0813 21.4506 21.0307 21.9717 20.3781C21.9767 20.373 21.9767 20.3629 21.9818 20.3578C22.1892 19.9885 22.26 19.9581 22.6901 20.0391C23.0543 20.1099 23.4186 20.1706 23.8031 20.2415C23.9447 19.4624 24.0813 18.7136 24.223 17.9598C24.2483 17.8131 24.1774 17.7777 24.056 17.7574C23.7525 17.7068 23.4489 17.6512 23.1454 17.5905C22.6445 17.4944 22.6293 17.4741 22.5433 16.9783C22.5231 16.8721 22.5029 16.7709 22.4725 16.6697C22.4118 16.437 22.4725 16.2599 22.6749 16.1233C23.0189 15.9058 23.3528 15.6579 23.7171 15.3999Z" fill="black"/>
<path d="M18.0381 20.7791C16.4799 20.7892 15.1898 19.484 15.1797 17.9055C15.1746 16.3322 16.4597 15.0219 18.0179 15.0117C19.5761 15.0067 20.856 16.2917 20.8712 17.8853C20.8914 19.4536 19.5963 20.769 18.0381 20.7791ZM15.9942 17.8853C15.9942 19.0236 16.9099 19.9697 18.0179 19.9747C19.1359 19.9747 20.0617 19.0388 20.0617 17.9055C20.0617 16.7622 19.1511 15.8212 18.0381 15.8161C16.9251 15.8111 15.9993 16.7521 15.9942 17.8853Z" fill="black"/>
</svg>
