<svg width="26" height="29" viewBox="0 0 26 29" fill="none" xmlns="http://www.w3.org/2000/svg">
<path d="M2.17037 28.4331C2.10339 28.4107 2.04386 28.3959 1.97689 28.381C1.82806 28.3438 1.68667 28.2991 1.56016 28.2396C0.570442 27.7931 0.049537 27.0192 0.0123295 25.955C-0.00255352 25.5011 -0.00255352 25.0472 0.00488799 24.6007C0.00488799 24.3998 0.00488799 24.2063 0.00488799 24.0054C0.00488799 24.0054 0.00488799 15.6262 0.00488799 11.5036C0.00488799 10.7521 0.30999 10.4469 1.06902 10.4469H2.67639L2.69871 10.2758C2.70615 10.2088 2.7136 10.1493 2.72104 10.0898C2.77313 9.68791 3.08567 9.3977 3.47263 9.3977C3.96377 9.39025 4.49212 9.39025 5.08 9.39025C5.66043 9.39025 6.24087 9.39025 6.82131 9.3977C6.94037 9.3977 7.04455 9.4349 7.11153 9.50932C7.17106 9.56885 7.20082 9.65815 7.20082 9.74745C7.19338 9.95581 7.04455 10.0823 6.80642 10.0823C6.33017 10.0823 5.85391 10.0823 5.37766 10.0823H3.42054V23.1868H5.31068C5.6902 23.1868 6.06972 23.1868 6.45667 23.1868C6.6948 23.1868 6.82131 23.2538 6.88084 23.4175C6.91805 23.5217 6.91061 23.6259 6.85852 23.7077C6.79154 23.8119 6.65759 23.8714 6.49388 23.8714C6.09948 23.8714 5.70508 23.8714 5.31812 23.8714H3.4131V23.9458C3.4131 24.0798 3.4131 24.2137 3.4131 24.3402C3.4131 24.7644 3.4131 25.1737 3.42054 25.5755C3.42054 25.6797 3.54705 25.7541 3.64378 25.8211L3.65867 25.8285C3.69588 25.8509 3.73308 25.8583 3.76285 25.8583C3.77773 25.8583 3.80006 25.8583 3.82238 25.8583C3.83726 25.8583 3.85215 25.8583 3.86703 25.8583C3.86703 25.8583 10.5123 25.8583 12.209 25.8583C12.261 25.8583 12.3131 25.8583 12.3652 25.8509C12.3876 25.8509 12.4099 25.8509 12.4322 25.8434L12.5066 25.836L12.4992 25.7616C12.4173 24.8686 11.5764 24.0351 10.6611 23.9235C10.2444 23.8789 9.84256 23.8714 9.38863 23.8714H9.21003C9.05376 23.8714 8.88261 23.8714 8.70401 23.864C8.68168 23.864 8.65192 23.864 8.62959 23.864H8.4882C8.44356 23.864 8.39147 23.864 8.34682 23.864C8.1459 23.8491 8.03427 23.7449 8.01939 23.544C8.01195 23.4324 8.04171 23.3356 8.10125 23.2761C8.1459 23.224 8.21287 23.1942 8.28728 23.1942H8.42867C9.25468 23.2017 10.1179 23.2017 10.9513 23.2761C11.5318 23.3282 12.008 23.7077 12.4396 24.1096L12.5662 24.2286V18.8856V18.8261C12.5662 18.7814 12.5662 18.7368 12.5662 18.6921C12.5736 18.454 12.7075 18.3126 12.9085 18.3126C13.1243 18.3126 13.2508 18.4615 13.2508 18.6996C13.2508 19.28 13.2508 19.8753 13.2508 20.4558V21.133V24.1989L13.3698 24.1021C13.3996 24.0798 13.4294 24.0575 13.4517 24.0426C13.4963 24.0054 13.5335 23.983 13.5633 23.9533C14.1512 23.4473 14.8358 23.1868 15.6097 23.1868C16.5399 23.1868 20.1937 23.1868 20.1937 23.1868H22.4187C22.4187 23.1868 22.4187 18.8484 22.4187 17.3452V17.2857C22.4187 17.2113 22.4187 17.1443 22.4261 17.0699C22.4485 16.8615 22.575 16.7425 22.761 16.7425C22.9619 16.7425 23.081 16.8615 23.1033 17.0773C23.1108 17.1369 23.1108 17.189 23.1108 17.2485V18.9526C23.1108 21.0883 23.1108 23.2166 23.1108 25.3523C23.1108 26.1709 22.7387 26.5355 21.9127 26.5355H3.88935C3.09311 26.5355 2.7136 26.1634 2.7136 25.3597C2.7136 22.0334 2.7136 18.707 2.7136 15.3807V11.1316H1.90247C1.61225 11.1316 1.26994 11.1316 0.927635 11.139C0.823454 11.139 0.741597 11.273 0.711831 11.3399C0.689507 11.3995 0.689507 11.4664 0.696948 11.526C0.696948 11.5483 0.696948 11.5706 0.696948 11.5855V25.702C0.696948 27.0192 1.41877 27.741 2.73592 27.741H23.0215C24.3312 27.741 25.053 27.0117 25.053 25.6946V11.5781C25.053 11.1613 25.0158 11.1316 24.5916 11.1316H23.0959V12.3148C23.0959 13.2226 23.0959 14.1305 23.0959 15.0384V15.0681C23.0959 15.1574 23.0959 15.2467 23.081 15.336C23.0512 15.5221 22.9322 15.6188 22.7536 15.6188C22.5675 15.6188 22.4485 15.5221 22.4187 15.336C22.4038 15.2542 22.4038 15.1649 22.4038 15.0756V15.0458C22.4038 13.8254 22.4038 12.5975 22.4038 11.3771V10.0749H20.4393C19.9779 10.0749 19.5165 10.0749 19.0551 10.0749C18.817 10.0749 18.7054 10.0153 18.6384 9.86651C18.5863 9.75489 18.5938 9.64327 18.6533 9.54653C18.7128 9.44979 18.8245 9.39025 18.951 9.39025C19.576 9.38281 20.1342 9.38281 20.6774 9.38281C21.2727 9.38281 21.8234 9.38281 22.3592 9.39025C22.7313 9.3977 23.0289 9.68047 23.0884 10.0823C23.0959 10.1418 23.1033 10.2014 23.1108 10.2684L23.1331 10.4395H24.1898C24.3907 10.4395 24.5916 10.4395 24.8 10.4395C25.4028 10.4395 25.7525 10.7893 25.7525 11.3846V12.0097C25.7525 16.549 25.7525 21.252 25.7525 25.8657C25.7525 27.1382 24.9414 28.128 23.6838 28.3884C23.6466 28.3959 23.6242 28.4107 23.5945 28.4256C23.587 28.4256 23.587 28.4331 23.5796 28.4331H2.17037ZM21.9424 25.8434C21.9573 25.8434 21.9648 25.8434 21.9797 25.8434C21.9945 25.8434 22.0169 25.8509 22.0317 25.8509C22.069 25.8509 22.0987 25.8434 22.121 25.8285C22.1359 25.8137 22.1583 25.8062 22.1806 25.7913C22.2848 25.7244 22.3889 25.6574 22.3889 25.5532C22.4038 25.1514 22.4038 24.7495 22.4038 24.3551C22.4038 24.2286 22.4038 24.0947 22.4038 23.9682V23.9086L22.3443 23.8938C22.322 23.8863 22.3071 23.8863 22.2922 23.8789C22.2624 23.8714 22.2327 23.864 22.1955 23.864C21.5853 23.864 20.9751 23.864 20.3649 23.864C19.7398 23.864 19.1147 23.864 18.497 23.864C17.3138 23.864 16.3539 23.8714 15.4758 23.8789C14.5381 23.8863 13.6973 24.5114 13.3847 25.4267C13.3624 25.4937 13.3475 25.5681 13.3326 25.6425C13.3252 25.6797 13.3177 25.7169 13.3103 25.7616L13.288 25.8509L21.9424 25.8434Z" fill="black"/>
<path d="M12.8981 16.788C12.7791 16.788 12.66 16.788 12.5409 16.7806C11.8712 16.7508 11.3726 16.282 11.3056 15.6048C11.2982 15.5007 11.2908 15.4114 11.2982 15.3369C11.3131 15.017 11.3056 14.7342 10.9633 14.5109C10.7103 14.3472 10.688 14.0124 10.6657 13.7147C10.6582 13.5882 10.621 13.3426 10.4945 13.1417C10.182 12.6431 9.85455 12.1371 9.53457 11.6534C8.99878 10.8274 8.44811 9.97906 7.93464 9.12329C7.64442 8.64703 7.4435 8.09636 7.25002 7.56801C7.22026 7.48615 7.19049 7.41174 7.16073 7.32988C7.12352 7.2257 7.19049 7.02478 7.27979 6.91316C7.29467 6.89083 7.36165 6.86851 7.46583 6.86851C7.51792 6.86851 7.56257 6.87595 7.59233 6.89083C7.68163 6.92804 7.77837 7.05455 7.80814 7.16617C7.96441 7.77637 8.2323 8.35681 8.64903 9.00422C9.07319 9.65163 9.48992 10.3065 9.8992 10.9465C10.301 11.5715 10.7103 12.219 11.127 12.844C11.3131 13.1268 11.3801 13.3649 11.3577 13.6328C11.3503 13.7296 11.3652 13.8263 11.3875 13.9156C11.3949 13.9528 11.4024 13.99 11.4098 14.0347L11.4173 14.1091L11.6777 14.0793L11.4098 9.4656H11.3429C11.2833 9.4656 11.2238 9.4656 11.1717 9.4656C11.1196 9.4656 11.0675 9.4656 11.0154 9.4656C10.9559 9.4656 10.8964 9.4656 10.8368 9.45815C10.2192 9.42839 9.73549 8.95213 9.70572 8.35681C9.67596 7.71684 10.0778 7.18849 10.6582 7.0992C10.7252 7.09175 10.7996 7.08431 10.8666 7.08431C11.4098 7.08431 11.8563 7.42662 11.9903 7.94009C12.0275 8.09636 12.0424 8.26751 12.0572 8.43867C12.0647 8.52797 12.0721 8.60982 12.087 8.70656L12.0944 8.77354H13.6646L13.6869 8.53541C13.6944 8.41634 13.7093 8.30472 13.7167 8.1931C13.7688 7.53825 14.245 7.08431 14.8701 7.08431C14.885 7.08431 14.8925 7.08431 14.9073 7.08431C15.5473 7.10664 16.031 7.61266 16.0384 8.26007C16.0384 8.92237 15.5622 9.42839 14.8999 9.45815C14.8404 9.45815 14.7883 9.45815 14.7287 9.45815C14.6766 9.45815 14.632 9.45815 14.5799 9.45815C14.5204 9.45815 14.4683 9.45815 14.4013 9.45815H14.3343L14.0664 14.0942L14.2971 14.1612L14.3195 14.0942C14.3343 14.0644 14.3492 14.0347 14.3641 14.0049C14.4088 13.9231 14.446 13.8412 14.4385 13.7519C14.3939 13.3724 14.5353 13.0598 14.7808 12.6952C15.3315 11.8543 15.8822 10.9911 16.418 10.1577C16.7156 9.69628 17.0058 9.23491 17.3035 8.78098C18.2858 7.26291 18.4123 5.37277 17.6458 3.73564C16.8793 2.09106 15.3464 0.982279 13.5455 0.759034C13.3297 0.729268 13.1065 0.721826 12.8907 0.721826C10.2713 0.721826 8.05371 2.70127 7.71884 5.32812V5.35788C7.71884 5.37277 7.7114 5.39509 7.7114 5.40997C7.68163 5.56625 7.59977 5.75973 7.36909 5.75973C7.35421 5.75973 7.33932 5.75973 7.32444 5.75973C7.11608 5.7374 7.0119 5.58857 7.03422 5.343C7.11608 4.40537 7.43606 3.50495 7.98673 2.67894C9.05831 1.01204 10.941 0 12.9056 0C13.3223 0 13.739 0.044649 14.1483 0.133947C16.5668 0.677177 18.4197 2.65662 18.762 5.06767C18.9704 6.5262 18.6653 7.90288 17.8691 9.14561C17.5788 9.59954 17.2812 10.0609 16.991 10.5148C16.4328 11.3781 15.8598 12.271 15.2943 13.1566C15.205 13.3054 15.1455 13.4989 15.138 13.6849C15.1306 14.1612 14.9818 14.4663 14.6543 14.6746C14.565 14.7342 14.5204 14.8607 14.5129 14.9574C14.5055 15.069 14.5055 15.1732 14.5055 15.2774C14.5055 15.389 14.5055 15.5081 14.4906 15.6197C14.4236 16.2746 13.9399 16.7285 13.2851 16.7657C13.1586 16.788 13.0321 16.788 12.8981 16.788ZM11.9828 14.9128C11.9977 15.0095 11.9903 15.1137 11.9828 15.2179C11.9679 15.4783 11.9531 15.776 12.2507 15.9992C12.3921 16.1034 12.727 16.1109 12.8684 16.1109C12.9577 16.1109 13.4265 16.1034 13.5827 15.9695C13.8432 15.7388 13.8283 15.456 13.8134 15.203C13.806 15.0988 13.806 15.0021 13.8134 14.9053L13.8209 14.8235H11.9754L11.9828 14.9128ZM12.3847 14.1091H13.3669L13.6348 9.4656H12.1093L12.3847 14.1091ZM10.8592 7.76149C10.6061 7.76893 10.4127 7.95497 10.3978 8.21542C10.3829 8.50564 10.5615 8.72145 10.8443 8.75121C10.8889 8.75865 10.9485 8.75865 11.008 8.75865C11.0526 8.75865 11.0973 8.75865 11.1419 8.75865C11.194 8.75865 11.2461 8.75865 11.3056 8.75865H11.3875L11.3801 8.6768C11.3726 8.61726 11.3726 8.56517 11.3652 8.51308C11.3577 8.4089 11.3503 8.31216 11.3429 8.22286C11.3056 7.93265 11.1419 7.76149 10.874 7.76149H10.8592ZM14.8776 7.76893C14.6022 7.76893 14.4385 7.9252 14.4088 8.20798C14.4013 8.30472 14.3939 8.4089 14.3864 8.51308L14.3641 8.74377H14.446C14.5055 8.74377 14.565 8.74377 14.6171 8.75121C14.6692 8.75121 14.7213 8.75865 14.7734 8.75865C14.8478 8.75865 14.9148 8.75121 14.9743 8.74377C15.2348 8.69912 15.391 8.46099 15.3464 8.17822C15.3017 7.91776 15.1306 7.76893 14.8776 7.76893Z" fill="black"/>
<path d="M5.496 18.9893C5.23555 18.9893 5.10904 18.9074 5.07184 18.7065C5.03463 18.5279 5.10904 18.394 5.28764 18.327C5.33973 18.3047 5.4067 18.3047 5.4588 18.3047H5.52577C5.90529 18.3047 6.2848 18.3047 6.66432 18.3047H8.98607C9.30605 18.3047 9.62604 18.3047 9.93858 18.3047C10.1023 18.3047 10.3851 18.3493 10.3925 18.6396C10.3925 18.7363 10.3627 18.8107 10.3107 18.8702C10.2288 18.9521 10.1023 18.9893 9.93114 18.9967C9.29861 18.9967 8.66608 18.9967 8.03356 18.9967C8.041 18.9893 6.03179 18.9893 5.496 18.9893Z" fill="black"/>
<path d="M18.1001 18.9889C17.3559 18.9889 16.6043 18.9889 15.8602 18.9889C15.5774 18.9889 15.4137 18.8624 15.4062 18.6466C15.4062 18.5573 15.4286 18.4829 15.4881 18.4234C15.57 18.3415 15.6965 18.3043 15.8676 18.2969C16.1802 18.2969 16.4927 18.2969 16.7978 18.2969H18.0926H19.3651C19.6777 18.2969 19.9828 18.2969 20.2953 18.2969C20.4516 18.2969 20.5707 18.3341 20.6451 18.4085C20.6972 18.468 20.7269 18.5424 20.7269 18.6466C20.7269 18.9294 20.4814 18.9889 20.2804 18.9889C19.5586 18.9889 18.8293 18.9889 18.1001 18.9889Z" fill="black"/>
<path d="M6.4243 16.946C6.11175 16.946 5.80665 16.946 5.49411 16.946C5.33784 16.946 5.21133 16.9088 5.14436 16.8343C5.09227 16.7748 5.0625 16.7004 5.0625 16.5962C5.0625 16.3134 5.30807 16.2539 5.50155 16.2539C6.23826 16.2539 6.98241 16.2539 7.71912 16.2539C8.45583 16.2539 9.19998 16.2539 9.93669 16.2539C10.1004 16.2539 10.2343 16.306 10.3162 16.3953C10.3757 16.4623 10.3981 16.5441 10.3906 16.6409C10.3683 16.8343 10.2195 16.946 9.98878 16.946C9.65391 16.946 9.31904 16.946 8.99162 16.946H7.734H6.4243Z" fill="black"/>
<path d="M18.0703 16.946H16.7829C16.4778 16.946 16.1727 16.946 15.8676 16.946C15.6965 16.946 15.5625 16.9013 15.4881 16.8195C15.4286 16.7599 15.4062 16.6855 15.4062 16.5962C15.4137 16.3804 15.5774 16.2539 15.8602 16.2539C16.5969 16.2539 17.341 16.2539 18.0778 16.2539C18.8145 16.2539 19.5586 16.2539 20.2953 16.2539C20.459 16.2539 20.7344 16.2986 20.7344 16.5962C20.7344 16.693 20.7046 16.7748 20.6525 16.8343C20.5781 16.9088 20.459 16.946 20.3028 16.946C19.9828 16.946 19.6628 16.946 19.3502 16.946H18.0703Z" fill="black"/>
<path d="M6.40978 21.0284C6.09724 21.0284 5.7847 21.0284 5.4796 21.0284C5.20426 21.0284 5.07031 20.9167 5.07031 20.6935C5.07031 20.4851 5.19682 20.3661 5.42751 20.3512C5.50936 20.3438 5.59866 20.3438 5.71028 20.3438C5.76981 20.3438 5.82935 20.3438 5.88888 20.3438C5.94841 20.3438 6.00794 20.3438 6.06747 20.3438H9.80311C9.82544 20.3438 9.90729 20.3438 9.92962 20.3438C9.97427 20.3438 10.0115 20.3438 10.0487 20.3512C10.2645 20.3735 10.4133 20.5149 10.4059 20.7009C10.3984 20.8944 10.2496 21.0284 10.0338 21.0284C9.69893 21.0284 9.35662 21.0284 9.02175 21.0284C8.82827 21.0284 7.74925 21.0284 7.74925 21.0284C7.74925 21.0284 6.64791 21.0284 6.40978 21.0284Z" fill="black"/>
<path d="M16.9108 21.028C16.4643 21.028 16.122 21.0206 15.802 21.0131C15.6829 21.0057 15.5192 20.9089 15.4522 20.7973C15.415 20.7378 15.4522 20.5592 15.5192 20.455C15.5564 20.3955 15.6904 20.3434 15.7946 20.3434C16.5982 20.3359 17.4317 20.3359 18.2726 20.3359C18.9721 20.3359 19.6716 20.3359 20.3711 20.3434C20.4901 20.3434 20.5869 20.3806 20.6539 20.4476C20.7134 20.5071 20.7432 20.5964 20.7432 20.7006C20.7357 20.9164 20.6018 21.028 20.3488 21.028C20.0288 21.028 19.7088 21.028 19.3888 21.028C19.1656 21.028 18.0791 21.028 18.0791 21.028C17.8856 21.028 17.6921 21.028 17.4987 21.028C17.2977 21.028 17.1043 21.028 16.9108 21.028Z" fill="black"/>
<path d="M5.55561 14.8174C5.28028 14.8174 5.00494 14.8174 4.72961 14.8174C4.58078 14.8174 4.45427 14.7728 4.37986 14.6984C4.32032 14.6388 4.29056 14.557 4.298 14.4677C4.30544 14.2593 4.46171 14.1328 4.72216 14.1328C5.38446 14.1328 6.05419 14.1328 6.71649 14.1328C7.37134 14.1328 8.02619 14.1328 8.68105 14.1328C8.82988 14.1328 8.94894 14.1775 9.02336 14.2519C9.08289 14.3114 9.11265 14.3933 9.10521 14.49C9.09777 14.6984 8.9415 14.8174 8.68105 14.8249C8.39827 14.8249 8.12293 14.8249 7.84016 14.8249H6.70161L5.55561 14.8174Z" fill="black"/>
<path d="M17.9302 14.8171C17.6549 14.8171 17.387 14.8171 17.1117 14.8171C16.9628 14.8171 16.8363 14.7724 16.7694 14.698C16.7098 14.6385 16.6875 14.5566 16.6875 14.4599C16.6949 14.2515 16.8512 14.125 17.1117 14.125C17.774 14.125 18.4288 14.125 19.0911 14.125C19.7534 14.125 20.4083 14.125 21.0705 14.125C21.2194 14.125 21.3384 14.1696 21.4203 14.2441C21.4798 14.3036 21.5096 14.3855 21.5022 14.4748C21.4947 14.6831 21.3384 14.8096 21.078 14.8096C20.7952 14.8096 20.5124 14.8096 20.2222 14.8096H19.0688L17.9302 14.8171Z" fill="black"/>
<path d="M20.231 3.03703C20.1417 3.03703 20.0598 2.99982 19.9928 2.91797C19.8589 2.76914 19.8812 2.56077 20.0524 2.4045C20.097 2.35985 20.1491 2.31521 20.1938 2.27056C20.4319 2.05475 20.67 1.83151 20.9305 1.64547C20.9826 1.60826 21.0793 1.58594 21.176 1.58594C21.2281 1.58594 21.2802 1.59338 21.3249 1.60826C21.377 1.62315 21.429 1.705 21.4811 1.77942C21.5035 1.80918 21.5183 1.83895 21.5407 1.86871C21.5183 1.90592 21.5035 1.93569 21.4886 1.96545C21.4439 2.04731 21.4067 2.11428 21.3546 2.16638C21.1165 2.38962 20.856 2.62031 20.4989 2.91797C20.417 2.99982 20.3203 3.03703 20.231 3.03703Z" fill="black"/>
<path d="M5.58085 3.03723C5.49155 3.03723 5.38737 2.99258 5.29063 2.91072C5.23854 2.86607 5.18645 2.82142 5.13436 2.77677C4.90367 2.5833 4.6581 2.37493 4.44974 2.15169C4.36789 2.06239 4.32324 1.87635 4.353 1.75729C4.36789 1.69776 4.45718 1.63822 4.53904 1.57869C4.56881 1.55637 4.59857 1.53404 4.62834 1.51172C4.66555 1.5266 4.69531 1.54148 4.72508 1.55637C4.79949 1.59358 4.85902 1.62334 4.91112 1.66055C5.17157 1.88379 5.4469 2.12192 5.74456 2.38982C5.92316 2.54609 5.95293 2.75445 5.82642 2.90328C5.75945 2.99258 5.67015 3.03723 5.58085 3.03723Z" fill="black"/>
<path d="M4.61538 6.42803C4.56329 6.42803 4.51864 6.42059 4.48143 6.4057C4.42934 6.39082 4.37725 6.30152 4.32516 6.21966C4.30283 6.1899 4.28795 6.15269 4.26562 6.12293C4.28795 6.08572 4.31027 6.05595 4.32516 6.02619C4.37725 5.94433 4.4219 5.87736 4.47399 5.83271C4.75676 5.56481 5.03954 5.31924 5.28511 5.11832C5.38929 5.02902 5.49347 4.98438 5.58277 4.98438C5.67207 4.98438 5.74648 5.02158 5.8209 5.10344C5.96229 5.25971 5.92508 5.46063 5.73904 5.63923C5.67951 5.69132 5.61998 5.75085 5.56045 5.80294C5.35209 5.99642 5.13628 6.19734 4.89815 6.36105C4.82374 6.39826 4.71956 6.42803 4.61538 6.42803Z" fill="black"/>
<path d="M21.1786 6.47436C21.0819 6.47436 20.9851 6.42971 20.8884 6.34785C20.8289 6.29576 20.7693 6.24367 20.7024 6.19158C20.4791 6.00554 20.241 5.80462 20.0401 5.58882C19.9582 5.50696 19.9136 5.30604 19.9508 5.18698C19.9656 5.12744 20.0549 5.06791 20.1368 5.00838C20.1666 4.98606 20.1963 4.96373 20.2261 4.94141C20.2633 4.95629 20.2931 4.97117 20.3228 4.98606C20.3973 5.02326 20.4568 5.05303 20.5089 5.09768C20.7917 5.33581 21.0744 5.58138 21.3423 5.82695C21.4465 5.92369 21.4986 6.02042 21.506 6.12461C21.506 6.20646 21.4763 6.28832 21.4093 6.35529C21.3423 6.43715 21.2605 6.47436 21.1786 6.47436Z" fill="black"/>
</svg>
