<svg width="29" height="24" viewBox="0 0 29 24" fill="none" xmlns="http://www.w3.org/2000/svg">
<g clip-path="url(#clip0_1132_9188)">
<path d="M14.1742 24.001C10.3021 24.001 6.42118 24.001 2.54908 24.001C1.07609 24.001 0.00883416 22.9338 1.38767e-05 21.4608C-0.00880641 20.1024 1.38767e-05 18.7441 1.38767e-05 17.4299C1.38767e-05 16.2568 0.50277 15.4806 1.57002 14.9955C1.61413 14.9779 1.64941 14.9602 1.69351 14.9338L1.73761 14.9073L2.11688 14.7044V10.603C2.11688 7.96573 2.11688 5.31964 2.11688 2.68237C2.11688 1.0418 3.14004 0.00982807 4.78061 0.00982807H4.85117C5.11578 0.00982807 5.38921 0.00982807 5.65382 0.00982807C5.92725 0.00982807 6.19185 0.00982807 6.46528 0.00982807C6.87984 0.00982807 7.21501 0.00982807 7.53254 0.00100779C7.559 0.00100779 7.58546 0.00100779 7.6031 0.00100779C8.32636 0.00100779 8.89086 0.203874 9.39362 0.627248L9.80817 0.98006L10.258 0.671349L10.3197 0.627248C10.3727 0.591967 10.4344 0.547866 10.4873 0.512584C10.9372 0.177414 11.4135 0.00982807 11.9427 0.00982807C12.6748 0.00982807 13.4068 0.00100779 14.1389 0.00100779C14.8446 0.00100779 15.559 0.00100779 16.2646 0.00982807C16.8556 0.00982807 17.3848 0.221515 17.8876 0.644889L18.3638 1.0418L18.8225 0.627248C19.3076 0.186234 19.9074 -0.0078125 20.8247 -0.0078125C20.9129 -0.0078125 21.0011 -0.0078125 21.0893 0.00100779C21.3539 0.00982807 21.645 0.00982807 21.989 0.00982807C22.2183 0.00982807 22.4388 0.00982807 22.6681 0.00982807C22.8887 0.00982807 23.118 0.00982807 23.3385 0.00982807C23.409 0.00982807 23.4796 0.00982807 23.5502 0.00982807C25.0408 0.0186484 26.1081 1.0859 26.1081 2.55007C26.1169 5.22262 26.1081 7.93927 26.1081 10.5677C26.1081 11.6702 26.1081 14.7573 26.1081 14.7573L26.5402 14.9338C27.4135 15.2954 27.9162 15.8422 28.1279 16.6537C28.1808 16.8654 28.2161 17.1035 28.2161 17.324C28.2249 18.5677 28.2249 19.8731 28.2161 21.4519C28.2073 22.9249 27.14 23.9922 25.6847 23.9922C21.8567 24.001 18.011 24.001 14.1742 24.001ZM2.602 15.5335C1.43772 15.5335 0.705637 16.2568 0.705637 17.4211C0.705637 18.7441 0.705637 20.0672 0.705637 21.3902C0.705637 22.5633 1.43772 23.2954 2.61964 23.2954C6.44764 23.2954 10.2845 23.2954 14.1125 23.2954C17.9405 23.2954 21.7773 23.2954 25.6053 23.2954C26.7872 23.2954 27.5193 22.5633 27.5193 21.3902C27.5193 20.1113 27.5193 18.8323 27.5193 17.5534V17.4828C27.5193 16.2392 26.8049 15.5247 25.5524 15.5247H8.11468C6.28006 15.5335 4.44544 15.5335 2.602 15.5335ZM12.2073 0.715451C10.9372 0.715451 10.2404 1.42107 10.2404 2.6912V14.8103H17.9581L17.9934 14.1399V14.0605C17.9934 13.9988 18.0022 13.9371 18.0022 13.8841V11.7232C18.0022 8.66253 18.0022 5.60189 18.0022 2.54125C18.0022 1.46518 17.2437 0.715451 16.15 0.715451C15.5855 0.715451 15.021 0.715451 14.4565 0.715451H12.2073ZM6.43 0.715451C6.07719 0.715451 5.71556 0.715451 5.36275 0.715451H4.73651C3.54577 0.715451 2.8225 1.43871 2.8225 2.64709C2.8225 5.35492 2.8225 8.07157 2.8225 10.7794V14.8103H9.45536L9.50828 14.1664L9.5171 14.1135C9.5171 14.0694 9.52592 14.0253 9.52592 13.9723V11.5732C9.52592 8.55669 9.52592 5.54897 9.52592 2.53243C9.52592 1.49164 8.76738 0.733092 7.72658 0.724271C7.29439 0.715451 6.8622 0.715451 6.43 0.715451ZM22.2977 0.715451C21.9361 0.715451 21.5744 0.715451 21.2128 0.715451H20.6218C19.4223 0.715451 18.699 1.43871 18.699 2.64709C18.699 5.35492 18.699 8.07157 18.699 10.7794V14.8103H25.3495L25.3848 14.1399V14.0782C25.3848 14.0253 25.3936 13.9635 25.3936 13.9018V11.6879C25.3936 8.63607 25.3936 5.58425 25.3936 2.53243C25.3936 1.49164 24.6351 0.733092 23.5943 0.724271C23.1709 0.715451 22.7299 0.715451 22.2977 0.715451Z" fill="black"/>
<path d="M14.1125 18.7105C13.4333 18.7105 12.7454 18.7105 12.0662 18.7105C11.8721 18.7105 11.6516 18.6223 11.6428 18.3577C11.6428 18.2607 11.6693 18.1813 11.731 18.1196C11.8104 18.0402 11.9339 17.9961 12.0838 17.9961C12.3484 17.9961 12.6131 17.9961 12.8777 17.9961H14.1301H15.365C15.6208 17.9961 15.8854 17.9961 16.1412 17.9961C16.2911 17.9961 16.4146 18.0402 16.494 18.1196C16.5557 18.1813 16.5822 18.2607 16.5822 18.3489C16.5822 18.6047 16.3617 18.6929 16.1588 18.7017C15.4796 18.7105 14.8005 18.7105 14.1125 18.7105Z" fill="black"/>
<path d="M14.1125 11.6533C14.0419 11.6533 13.9802 11.6445 13.9185 11.6357C13.8744 11.6269 13.8479 11.3182 13.8479 10.7537C13.8479 8.37218 13.8479 6.00834 13.8479 3.72389C13.8479 3.15057 13.8744 2.85068 13.9185 2.84186C13.989 2.83304 14.0596 2.82422 14.1213 2.82422C14.1919 2.82422 14.2536 2.83304 14.3154 2.84186C14.3595 2.85068 14.3859 3.15939 14.3859 3.70625C14.3859 4.50007 14.3859 5.31154 14.3859 6.10537C14.3859 6.47582 14.3859 6.83745 14.3859 7.2079C14.3859 7.56071 14.3859 7.91352 14.3859 8.26634C14.3859 9.06898 14.3859 9.89809 14.3859 10.7096C14.3859 11.3358 14.3595 11.6269 14.3066 11.6357C14.2448 11.6533 14.1743 11.6533 14.1125 11.6533Z" fill="black"/>
<path d="M6.15661 11.6533C6.1125 11.6533 6.0684 11.6445 6.0243 11.6357C5.96256 11.618 5.91846 11.3093 5.91846 10.8242C5.91846 8.40746 5.91846 5.9907 5.91846 3.65333C5.91846 3.15939 5.95374 2.8595 6.0243 2.84186C6.07722 2.83304 6.13014 2.82422 6.17425 2.82422C6.22717 2.82422 6.27127 2.83304 6.32419 2.84186C6.38593 2.8595 6.42121 3.16821 6.42121 3.63569C6.42121 4.42951 6.42121 5.25862 6.42121 6.05244C6.42121 6.43172 6.42121 6.81981 6.42121 7.19908C6.42121 7.54307 6.42121 7.88706 6.42121 8.22223C6.42121 9.0337 6.42121 9.88045 6.42121 10.7007C6.42121 11.327 6.38593 11.618 6.30655 11.6269C6.26245 11.6533 6.20953 11.6533 6.15661 11.6533Z" fill="black"/>
<path d="M22.0419 11.6533C21.9978 11.6533 21.9537 11.6533 21.9185 11.6445C21.8832 11.6357 21.8126 11.5475 21.8126 10.8154C21.8126 8.34572 21.8126 5.92896 21.8126 3.64451C21.8126 3.15939 21.8479 2.8595 21.9096 2.84186C21.9537 2.83304 21.9978 2.82422 22.0508 2.82422C22.0949 2.82422 22.1478 2.83304 22.1919 2.84186C22.2536 2.85068 22.2889 3.16821 22.2977 3.71507C22.2977 4.50889 22.2977 5.32036 22.2977 6.11419C22.2977 6.48464 22.2977 6.84627 22.2977 7.21672C22.2977 7.56953 22.2977 7.92234 22.2977 8.27516C22.2977 9.0778 22.2977 9.90691 22.2977 10.7184C22.2977 11.3446 22.2625 11.6269 22.1831 11.6445C22.139 11.6533 22.0861 11.6533 22.0419 11.6533Z" fill="black"/>
</g>
<defs>
<clipPath id="clip0_1132_9188">
<rect width="28.2337" height="24" fill="white"/>
</clipPath>
</defs>
</svg>
