<svg width="22" height="23" viewBox="0 0 22 23" fill="none" xmlns="http://www.w3.org/2000/svg">
<path d="M10.3591 0C9.93453 0.0573727 9.50997 0.0975335 9.08541 0.172118C7.32407 0.470456 5.74058 1.18188 4.32348 2.26622C4.08251 2.44981 4.03088 2.69078 4.17431 2.89732C4.32348 3.1096 4.59313 3.13829 4.83409 2.94896C5.97007 2.08263 7.22654 1.46874 8.62069 1.13598C14.0137 -0.143432 19.4756 3.09812 20.8066 8.48542C21.759 12.3294 20.7435 15.68 17.8979 18.4568C17.852 18.5027 17.8003 18.5371 17.7315 18.6002C17.3413 16.9307 16.4922 15.5709 15.144 14.5497C13.7957 13.5285 12.2639 13.0695 10.5771 13.1728C7.51914 13.3621 4.96605 15.5423 4.27758 18.5887C4.22021 18.5428 4.16857 18.5084 4.12841 18.4683C2.20643 16.661 1.11634 14.4407 0.904066 11.8016C0.737684 9.68451 1.19667 7.70515 2.2638 5.86349C2.27527 5.84628 2.28675 5.82906 2.29822 5.80611C2.45313 5.53073 2.41297 5.28402 2.18921 5.15207C1.96546 5.02011 1.70728 5.09469 1.56385 5.37008C1.28272 5.92086 0.961439 6.4659 0.754898 7.0511C-0.650732 10.9983 -0.105692 14.6702 2.49329 17.9576C4.24889 20.178 6.58396 21.4689 9.38949 21.8992C9.6993 21.945 10.0091 21.9795 10.3189 22.0196C10.7779 22.0196 11.2369 22.0196 11.6959 22.0196C11.7532 22.0082 11.8049 21.9909 11.8622 21.9852C13.7326 21.8418 15.4595 21.2681 17.0201 20.2239C19.6477 18.4625 21.2656 16.0242 21.8394 12.9031C21.9082 12.513 21.9426 12.1056 22 11.704C22 11.245 22 10.7861 22 10.3271C21.9312 9.83941 21.8795 9.34601 21.7877 8.86408C20.9673 4.46933 17.3184 0.895014 12.9236 0.166381C12.5163 0.0975335 12.1032 0.0516354 11.6959 0C11.2484 0 10.8066 0 10.3591 0ZM11.0361 21.1705C9.00509 21.1533 7.16343 20.6255 5.48814 19.5354C5.02343 19.2313 5.02342 19.2313 5.14964 18.6863C5.91844 15.4447 9.05099 13.4654 12.3098 14.1653C14.662 14.6702 16.5037 16.5864 16.9283 18.9674C16.9569 19.1395 16.9455 19.2543 16.7733 19.3748C15.0292 20.5681 13.1015 21.1533 11.0361 21.1705Z" fill="black"/>
<path d="M10.9909 4.56251C8.86233 4.56825 7.13541 6.31238 7.14115 8.45238C7.14689 10.5809 8.89102 12.3136 11.0253 12.3078C13.1538 12.3021 14.8807 10.5522 14.875 8.41796C14.8635 6.28943 13.1251 4.55678 10.9909 4.56251ZM8.00174 8.43517C8.00174 6.7771 9.35 5.42884 11.0023 5.4231C12.6547 5.4231 14.0087 6.77136 14.0087 8.4237C14.0144 10.0932 12.6604 11.4472 10.9966 11.4472C9.35 11.4415 8.00174 10.0875 8.00174 8.43517Z" fill="black"/>
<path d="M3.11243 3.52747C2.88294 3.52173 2.68787 3.71106 2.6764 3.94055C2.66492 4.17578 2.85999 4.38232 3.09522 4.38806C3.33045 4.3938 3.53125 4.19299 3.53125 3.95777C3.53125 3.72254 3.33618 3.53321 3.11243 3.52747Z" fill="black"/>
</svg>
