<svg width="400" height="352" viewBox="0 0 400 352" fill="none" xmlns="http://www.w3.org/2000/svg">
<path d="M53.6626 332.823L56.5485 346.987H59.4344L62.1157 334.89L64.7969 346.987H67.6829L70.5483 332.823H68.9314L66.5162 345.595H65.9226L63.0367 332.946H61.1946L58.3087 345.595H57.7152L55.3 332.823H53.6626Z" fill="#303030"/>
<path d="M76.0379 345.841C74.0321 345.841 73.3567 344.694 73.3567 342.504H80.111L80.1928 341.338C80.1928 337.981 78.801 336.548 76.0789 336.548C73.4795 336.548 71.8011 338.042 71.8011 341.931C71.8011 345.411 72.8041 347.191 75.8537 347.191C77.5116 347.191 79.8449 346.864 79.8449 346.864L79.8039 345.656C79.8039 345.656 77.573 345.841 76.0379 345.841ZM73.3362 341.276C73.3567 338.8 74.3391 337.838 76.0789 337.838C77.88 337.838 78.6578 338.738 78.6578 341.276H73.3362Z" fill="#303030"/>
<path d="M94.3074 339.844C94.3074 337.613 93.325 336.548 91.0122 336.548C89.252 336.548 87.0005 336.999 87.0005 336.999L87.0619 338.165C87.0619 338.165 89.4976 337.899 90.9303 337.899C92.1583 337.899 92.7724 338.411 92.7724 339.844V340.724L89.559 341.031C87.4508 341.235 86.4274 342.095 86.4274 344.06C86.4274 346.127 87.4508 347.191 89.3134 347.191C91.1554 347.191 92.9975 346.373 92.9975 346.373C93.6115 346.987 94.3484 347.191 95.4331 347.191L95.4945 345.984C94.8396 345.902 94.3484 345.677 94.3074 345.083V339.844ZM92.7724 341.89V345.267C92.7724 345.267 91.0736 345.902 89.559 345.902C88.5151 345.902 88.0034 345.206 88.0034 344.019C88.0034 342.893 88.4947 342.3 89.7432 342.177L92.7724 341.89Z" fill="#303030"/>
<path d="M97.3361 346.987H98.8712V339.475C98.8712 339.475 100.672 338.472 102.596 338.083V336.528C100.631 336.917 98.8507 338.145 98.8507 338.145V336.753H97.3361V346.987Z" fill="#303030"/>
<path d="M107.998 345.841C105.993 345.841 105.317 344.694 105.317 342.504H112.071L112.153 341.338C112.153 337.981 110.762 336.548 108.039 336.548C105.44 336.548 103.762 338.042 103.762 341.931C103.762 345.411 104.765 347.191 107.814 347.191C109.472 347.191 111.805 346.864 111.805 346.864L111.764 345.656C111.764 345.656 109.534 345.841 107.998 345.841ZM105.297 341.276C105.317 338.8 106.3 337.838 108.039 337.838C109.841 337.838 110.618 338.738 110.618 341.276H105.297Z" fill="#303030"/>
<path d="M122.829 345.841C120.824 345.841 120.148 344.694 120.148 342.504H126.902L126.984 341.338C126.984 337.981 125.593 336.548 122.87 336.548C120.271 336.548 118.593 338.042 118.593 341.931C118.593 345.411 119.596 347.191 122.645 347.191C124.303 347.191 126.636 346.864 126.636 346.864L126.595 345.656C126.595 345.656 124.364 345.841 122.829 345.841ZM120.128 341.276C120.148 338.8 121.131 337.838 122.87 337.838C124.671 337.838 125.449 338.738 125.449 341.276H120.128Z" fill="#303030"/>
<path d="M128.273 336.753L131.487 341.87L128.273 346.987H129.952L132.449 342.996L134.925 346.987H136.604L133.37 341.829L136.624 336.753H134.946L132.449 340.765L129.952 336.753H128.273Z" fill="#303030"/>
<path d="M142.139 336.548C139.089 336.548 137.881 337.981 137.881 341.686C137.881 345.697 138.843 347.191 142.098 347.191C143.039 347.191 144.943 346.905 144.943 346.905L144.881 345.636C144.881 345.636 143.244 345.82 142.466 345.82C139.928 345.82 139.457 344.715 139.457 341.686C139.457 338.943 140.092 337.92 142.446 337.92C143.223 337.92 144.861 338.104 144.861 338.104L144.922 336.855C144.922 336.855 143.08 336.548 142.139 336.548Z" fill="#303030"/>
<path d="M147.226 346.987H148.761V336.753H147.226V346.987ZM147.226 334.44H148.761V332.659H147.226V334.44Z" fill="#303030"/>
<path d="M157.004 338.083V336.753H153.75V333.621H152.235V336.753H150.782V338.083H152.235V343.466C152.235 346.414 152.952 347.212 155.06 347.212C155.776 347.212 157.147 346.987 157.147 346.987L157.045 345.718C157.045 345.718 155.797 345.841 155.223 345.841C153.893 345.841 153.75 345.206 153.75 342.975V338.083H157.004Z" fill="#303030"/>
<path d="M162.665 345.841C160.659 345.841 159.984 344.694 159.984 342.504H166.738L166.82 341.338C166.82 337.981 165.428 336.548 162.706 336.548C160.107 336.548 158.428 338.042 158.428 341.931C158.428 345.411 159.431 347.191 162.481 347.191C164.139 347.191 166.472 346.864 166.472 346.864L166.431 345.656C166.431 345.656 164.2 345.841 162.665 345.841ZM159.963 341.276C159.984 338.8 160.966 337.838 162.706 337.838C164.507 337.838 165.285 338.738 165.285 341.276H159.963Z" fill="#303030"/>
<path d="M177.072 332.291H175.557V336.814C175.25 336.753 173.92 336.548 173.04 336.548C169.929 336.548 168.762 338.349 168.762 341.952C168.762 346.373 170.44 347.191 172.446 347.191C173.981 347.191 175.557 346.291 175.557 346.291V346.987H177.072V332.291ZM172.63 345.82C171.423 345.82 170.338 345.267 170.338 341.952C170.338 339.291 170.973 337.879 173.122 337.879C173.961 337.879 175.23 338.063 175.557 338.124V345.063C175.557 345.063 174.084 345.82 172.63 345.82Z" fill="#303030"/>
<path d="M191.768 339.844C191.768 337.613 190.786 336.548 188.473 336.548C186.713 336.548 184.461 336.999 184.461 336.999L184.523 338.165C184.523 338.165 186.958 337.899 188.391 337.899C189.619 337.899 190.233 338.411 190.233 339.844V340.724L187.02 341.031C184.911 341.235 183.888 342.095 183.888 344.06C183.888 346.127 184.911 347.191 186.774 347.191C188.616 347.191 190.458 346.373 190.458 346.373C191.072 346.987 191.809 347.191 192.894 347.191L192.955 345.984C192.3 345.902 191.809 345.677 191.768 345.083V339.844ZM190.233 341.89V345.267C190.233 345.267 188.534 345.902 187.02 345.902C185.976 345.902 185.464 345.206 185.464 344.019C185.464 342.893 185.955 342.3 187.204 342.177L190.233 341.89Z" fill="#303030"/>
<path d="M201.633 336.937C201.633 336.937 199.463 336.548 197.928 336.548C196.066 336.548 194.244 337.285 194.244 339.537C194.244 341.583 195.349 342.013 197.662 342.382C199.893 342.729 200.425 342.996 200.425 344.06C200.425 345.452 199.525 345.82 197.846 345.82C196.803 345.82 194.469 345.472 194.469 345.472L194.387 346.802C194.387 346.802 196.68 347.191 197.99 347.191C200.446 347.191 201.96 346.393 201.96 343.998C201.96 342.013 200.998 341.501 198.44 341.072C196.27 340.703 195.779 340.437 195.779 339.475C195.779 338.268 196.741 337.92 198.01 337.92C199.32 337.92 201.592 338.247 201.592 338.247L201.633 336.937Z" fill="#303030"/>
<path d="M210.343 346.987V338.677C210.343 338.677 211.633 337.92 213.086 337.92C214.948 337.92 215.235 338.882 215.235 341.706V346.987H216.77V341.665C216.77 340.437 216.688 339.148 216.504 338.677C216.504 338.677 217.875 337.92 219.39 337.92C221.232 337.92 221.539 338.922 221.539 341.624V346.987H223.074V341.583C223.074 337.879 222.399 336.548 219.615 336.548C217.793 336.548 215.972 337.592 215.972 337.592C215.44 336.855 214.682 336.548 213.311 336.548C211.858 336.548 210.323 337.469 210.323 337.469V336.753H208.808V346.987H210.343Z" fill="#303030"/>
<path d="M232.304 336.753V345.063C232.304 345.063 231.014 345.82 229.5 345.82C227.596 345.82 227.351 344.899 227.351 342.074V336.753H225.815V342.095C225.815 345.861 226.409 347.191 229.274 347.191C230.769 347.191 232.304 346.27 232.304 346.27V346.987H233.839V336.753H232.304Z" fill="#303030"/>
<path d="M240.619 336.548C237.569 336.548 236.361 337.981 236.361 341.686C236.361 345.697 237.323 347.191 240.578 347.191C241.519 347.191 243.423 346.905 243.423 346.905L243.361 345.636C243.361 345.636 241.724 345.82 240.946 345.82C238.408 345.82 237.937 344.715 237.937 341.686C237.937 338.943 238.572 337.92 240.926 337.92C241.703 337.92 243.341 338.104 243.341 338.104L243.402 336.855C243.402 336.855 241.56 336.548 240.619 336.548Z" fill="#303030"/>
<path d="M247.241 346.987V338.534C247.241 338.534 248.674 337.92 250.127 337.92C252.01 337.92 252.317 338.922 252.317 341.624V346.987H253.852V341.583C253.852 337.94 253.197 336.548 250.393 336.548C248.878 336.548 247.241 337.326 247.241 337.326V332.291H245.706V346.987H247.241Z" fill="#303030"/>
<path d="M268.421 339.844C268.421 337.613 267.439 336.548 265.126 336.548C263.366 336.548 261.114 336.999 261.114 336.999L261.176 338.165C261.176 338.165 263.611 337.899 265.044 337.899C266.272 337.899 266.886 338.411 266.886 339.844V340.724L263.673 341.031C261.565 341.235 260.541 342.095 260.541 344.06C260.541 346.127 261.565 347.191 263.427 347.191C265.269 347.191 267.111 346.373 267.111 346.373C267.725 346.987 268.462 347.191 269.547 347.191L269.608 345.984C268.953 345.902 268.462 345.677 268.421 345.083V339.844ZM266.886 341.89V345.267C266.886 345.267 265.187 345.902 263.673 345.902C262.629 345.902 262.117 345.206 262.117 344.019C262.117 342.893 262.609 342.3 263.857 342.177L266.886 341.89Z" fill="#303030"/>
<path d="M278.286 336.937C278.286 336.937 276.117 336.548 274.582 336.548C272.719 336.548 270.897 337.285 270.897 339.537C270.897 341.583 272.003 342.013 274.315 342.382C276.546 342.729 277.079 342.996 277.079 344.06C277.079 345.452 276.178 345.82 274.5 345.82C273.456 345.82 271.123 345.472 271.123 345.472L271.041 346.802C271.041 346.802 273.333 347.191 274.643 347.191C277.099 347.191 278.614 346.393 278.614 343.998C278.614 342.013 277.652 341.501 275.093 341.072C272.924 340.703 272.432 340.437 272.432 339.475C272.432 338.268 273.394 337.92 274.663 337.92C275.973 337.92 278.245 338.247 278.245 338.247L278.286 336.937Z" fill="#303030"/>
<path d="M284.5 336.753L287.406 346.987H288.921L287.59 351.53H289.125L293.382 336.753H291.847L289.268 345.656H288.593L286.035 336.753H284.5Z" fill="#303030"/>
<path d="M299.105 336.548C295.871 336.548 294.725 338.227 294.725 341.747C294.725 345.472 295.667 347.191 299.105 347.191C302.564 347.191 303.485 345.472 303.485 341.747C303.485 338.227 302.36 336.548 299.105 336.548ZM299.105 345.861C296.69 345.861 296.301 344.653 296.301 341.747C296.301 338.902 296.936 337.879 299.105 337.879C301.295 337.879 301.909 338.902 301.909 341.747C301.909 344.653 301.541 345.861 299.105 345.861Z" fill="#303030"/>
<path d="M312.375 336.753V345.063C312.375 345.063 311.085 345.82 309.571 345.82C307.667 345.82 307.422 344.899 307.422 342.074V336.753H305.887V342.095C305.887 345.861 306.48 347.191 309.346 347.191C310.84 347.191 312.375 346.27 312.375 346.27V346.987H313.91V336.753H312.375Z" fill="#303030"/>
<path d="M328.585 339.844C328.585 337.613 327.602 336.548 325.289 336.548C323.529 336.548 321.278 336.999 321.278 336.999L321.339 338.165C321.339 338.165 323.775 337.899 325.208 337.899C326.436 337.899 327.05 338.411 327.05 339.844V340.724L323.836 341.031C321.728 341.235 320.705 342.095 320.705 344.06C320.705 346.127 321.728 347.191 323.591 347.191C325.433 347.191 327.275 346.373 327.275 346.373C327.889 346.987 328.626 347.191 329.71 347.191L329.772 345.984C329.117 345.902 328.626 345.677 328.585 345.083V339.844ZM327.05 341.89V345.267C327.05 345.267 325.351 345.902 323.836 345.902C322.792 345.902 322.281 345.206 322.281 344.019C322.281 342.893 322.772 342.3 324.02 342.177L327.05 341.89Z" fill="#303030"/>
<path d="M331.613 346.987H333.148V339.475C333.148 339.475 334.95 338.472 336.874 338.083V336.528C334.909 336.917 333.128 338.145 333.128 338.145V336.753H331.613V346.987Z" fill="#303030"/>
<path d="M342.276 345.841C340.27 345.841 339.594 344.694 339.594 342.504H346.349L346.431 341.338C346.431 337.981 345.039 336.548 342.317 336.548C339.717 336.548 338.039 338.042 338.039 341.931C338.039 345.411 339.042 347.191 342.091 347.191C343.749 347.191 346.083 346.864 346.083 346.864L346.042 345.656C346.042 345.656 343.811 345.841 342.276 345.841ZM339.574 341.276C339.594 338.8 340.577 337.838 342.317 337.838C344.118 337.838 344.895 338.738 344.895 341.276H339.574Z" fill="#303030"/>
<path d="M0 283.911L3.50663 302.253H9.1442L12.0304 288.308L14.9166 302.253H20.5542L24.0609 283.911H20.1496L17.8838 299.07H17.4792L14.1883 283.911H9.8725L6.58167 299.07H6.17706L3.91124 283.911H0Z" fill="#105F43"/>
<path d="M26.2373 302.253H29.8518V288.766H26.2373V302.253ZM26.2373 287.04H29.8518V283.372H26.2373V287.04Z" fill="#105F43"/>
<path d="M33.3534 302.253H36.9679V283.372H33.3534V302.253Z" fill="#105F43"/>
<path d="M40.6238 302.253H44.2383V283.372H40.6238V302.253Z" fill="#105F43"/>
<path d="M60.1869 288.443C59 288.443 57.2737 289.171 57.2737 289.171V283.372H53.6592V302.199C53.6592 302.199 57.6244 302.577 58.9191 302.577C63.6665 302.577 65.6356 301.121 65.6356 295.321C65.6356 290.142 63.8554 288.443 60.1869 288.443ZM58.9191 299.34C58.5145 299.34 57.2737 299.232 57.2737 299.232V292.03C57.2737 292.03 58.6224 291.68 59.7014 291.68C61.104 291.68 61.9672 292.597 61.9672 295.321C61.9672 298.234 61.4007 299.34 58.9191 299.34Z" fill="#105F43"/>
<path d="M74.0231 299.394C72.081 299.394 71.3257 298.666 71.2987 297.047H79.2291L79.4988 294.539C79.4988 290.466 77.5837 288.443 73.6185 288.443C69.6803 288.443 67.6572 290.897 67.6572 295.699C67.6572 300.554 69.3836 302.577 73.4566 302.577C75.9652 302.577 79.0672 301.822 79.0672 301.822L79.0133 299.151C79.0133 299.151 76.235 299.394 74.0231 299.394ZM71.2718 294.296C71.2987 292.246 71.8921 291.41 73.6185 291.41C75.3179 291.41 75.9383 292.111 75.9383 294.296H71.2718Z" fill="#105F43"/>
<path d="M99.4729 283.372H95.8584V288.82C95.8584 288.82 93.9432 288.443 92.9452 288.443C89.2767 288.443 87.3616 290.52 87.3616 295.456C87.3616 300.203 88.5484 302.577 92.6215 302.577C93.9972 302.577 95.8854 301.687 95.8854 301.687V302.253H99.4729V283.372ZM93.2419 299.34C91.5425 299.34 91.03 298.207 91.03 295.456C91.03 292.732 91.8662 291.572 93.2149 291.572C94.3748 291.572 95.8584 291.841 95.8584 291.841V298.936C95.8584 298.936 94.5097 299.34 93.2419 299.34Z" fill="#105F43"/>
<path d="M102.813 302.253H106.428V288.766H102.813V302.253ZM102.813 287.04H106.428V283.372H102.813V287.04Z" fill="#105F43"/>
<path d="M119.505 289.144C119.505 289.144 116.214 288.47 114.272 288.47C111.44 288.47 109.066 289.737 109.066 292.866C109.066 295.834 110.603 296.535 113.517 297.02C115.998 297.425 116.295 297.695 116.295 298.288C116.295 298.99 115.836 299.34 114.11 299.34C112.734 299.34 109.39 298.909 109.39 298.909L109.282 301.93C109.282 301.93 112.465 302.577 114.461 302.577C117.833 302.577 119.883 301.363 119.883 298.207C119.883 295.483 118.777 294.566 115.648 293.999C113.166 293.541 112.654 293.406 112.654 292.786C112.654 292.057 112.977 291.707 114.542 291.707C116.106 291.707 119.451 292.138 119.451 292.138L119.505 289.144Z" fill="#105F43"/>
<path d="M127.535 288.443C123.515 288.443 121.843 290.601 121.843 295.375C121.843 300.446 123.434 302.577 127.454 302.577C128.964 302.577 131.85 302.011 131.85 302.011L131.742 299.124C131.742 299.124 129.639 299.34 128.614 299.34C126.024 299.34 125.511 298.396 125.511 295.375C125.511 292.678 125.997 291.68 128.587 291.68C129.612 291.68 131.742 291.895 131.742 291.895L131.85 289.036C131.85 289.036 129.099 288.443 127.535 288.443Z" fill="#105F43"/>
<path d="M134.69 302.253H138.305V283.372H134.69V302.253Z" fill="#105F43"/>
<path d="M147.302 288.443C142.608 288.443 141.098 291.329 141.098 295.483C141.098 299.637 142.608 302.577 147.302 302.577C151.995 302.577 153.506 299.637 153.506 295.483C153.506 291.329 151.995 288.443 147.302 288.443ZM147.302 299.502C145.306 299.502 144.766 298.099 144.766 295.483C144.766 292.866 145.306 291.518 147.302 291.518C149.298 291.518 149.837 292.866 149.837 295.483C149.837 298.099 149.298 299.502 147.302 299.502Z" fill="#105F43"/>
<path d="M165.893 289.144C165.893 289.144 162.602 288.47 160.66 288.47C157.828 288.47 155.454 289.737 155.454 292.866C155.454 295.834 156.991 296.535 159.905 297.02C162.386 297.425 162.683 297.695 162.683 298.288C162.683 298.99 162.224 299.34 160.498 299.34C159.122 299.34 155.778 298.909 155.778 298.909L155.67 301.93C155.67 301.93 158.853 302.577 160.849 302.577C164.221 302.577 166.271 301.363 166.271 298.207C166.271 295.483 165.165 294.566 162.036 293.999C159.554 293.541 159.041 293.406 159.041 292.786C159.041 292.057 159.365 291.707 160.93 291.707C162.494 291.707 165.839 292.138 165.839 292.138L165.893 289.144Z" fill="#105F43"/>
<path d="M174.57 299.394C172.628 299.394 171.873 298.666 171.846 297.047H179.776L180.046 294.539C180.046 290.466 178.13 288.443 174.165 288.443C170.227 288.443 168.204 290.897 168.204 295.699C168.204 300.554 169.93 302.577 174.003 302.577C176.512 302.577 179.614 301.822 179.614 301.822L179.56 299.151C179.56 299.151 176.782 299.394 174.57 299.394ZM171.819 294.296C171.846 292.246 172.439 291.41 174.165 291.41C175.865 291.41 176.485 292.111 176.485 294.296H171.819Z" fill="#105F43"/>
<path d="M194.093 283.372H190.478V288.82C190.478 288.82 188.563 288.443 187.565 288.443C183.897 288.443 181.981 290.52 181.981 295.456C181.981 300.203 183.168 302.577 187.241 302.577C188.617 302.577 190.505 301.687 190.505 301.687V302.253H194.093V283.372ZM187.862 299.34C186.162 299.34 185.65 298.207 185.65 295.456C185.65 292.732 186.486 291.572 187.835 291.572C188.995 291.572 190.478 291.841 190.478 291.841V298.936C190.478 298.936 189.13 299.34 187.862 299.34Z" fill="#105F43"/>
<path d="M203.36 302.253H206.974V288.766H203.36V302.253ZM203.36 287.04H206.974V283.372H203.36V287.04Z" fill="#105F43"/>
<path d="M213.929 302.253V292.165C213.929 292.165 215.115 291.68 216.383 291.68C218.137 291.68 218.406 293.001 218.406 295.051V302.253H222.021V294.943C222.021 290.816 221.05 288.443 217.273 288.443C215.736 288.443 213.902 289.522 213.902 289.522V288.766H210.314V302.253H213.929Z" fill="#105F43"/>
<path d="M238.622 291.841V288.766H235.305V285.017H231.69V288.766H230.099V291.841H231.69V297.452C231.69 301.336 232.634 302.577 235.898 302.577C236.842 302.577 238.649 302.172 238.649 302.172L238.487 299.286C238.487 299.286 237.193 299.34 236.437 299.34C235.305 299.34 235.305 298.72 235.305 297.371V291.841H238.622Z" fill="#105F43"/>
<path d="M244.591 302.253V292.111C244.591 292.111 245.858 291.68 247.045 291.68C248.798 291.68 249.068 293.001 249.068 295.024V302.253H252.683V294.943C252.683 290.816 251.712 288.443 247.935 288.443C246.452 288.443 244.591 289.414 244.591 289.414V283.372H240.976V302.253H244.591Z" fill="#105F43"/>
<path d="M261.577 299.394C259.635 299.394 258.88 298.666 258.853 297.047H266.783L267.053 294.539C267.053 290.466 265.138 288.443 261.172 288.443C257.234 288.443 255.211 290.897 255.211 295.699C255.211 300.554 256.937 302.577 261.011 302.577C263.519 302.577 266.621 301.822 266.621 301.822L266.567 299.151C266.567 299.151 263.789 299.394 261.577 299.394ZM258.826 294.296C258.853 292.246 259.446 291.41 261.172 291.41C262.872 291.41 263.492 292.111 263.492 294.296H258.826Z" fill="#105F43"/>
<path d="M279.177 302.253V292.165C279.177 292.165 280.364 291.68 281.632 291.68C283.385 291.68 283.655 293.001 283.655 295.051V302.253H287.27V294.943C287.27 290.816 286.299 288.443 282.522 288.443C280.985 288.443 279.15 289.522 279.15 289.522V288.766H275.563V302.253H279.177Z" fill="#105F43"/>
<path d="M296.164 299.394C294.222 299.394 293.466 298.666 293.439 297.047H301.37L301.64 294.539C301.64 290.466 299.724 288.443 295.759 288.443C291.821 288.443 289.798 290.897 289.798 295.699C289.798 300.554 291.524 302.577 295.597 302.577C298.106 302.577 301.208 301.822 301.208 301.822L301.154 299.151C301.154 299.151 298.376 299.394 296.164 299.394ZM293.412 294.296C293.439 292.246 294.033 291.41 295.759 291.41C297.459 291.41 298.079 292.111 298.079 294.296H293.412Z" fill="#105F43"/>
<path d="M302.928 288.766L306.623 295.483L302.928 302.253H306.785L308.943 298.126L311.128 302.253H314.985L311.155 295.375L314.985 288.766H311.128L308.943 292.947L306.785 288.766H302.928Z" fill="#105F43"/>
<path d="M324.47 291.841V288.766H321.153V285.017H317.538V288.766H315.947V291.841H317.538V297.452C317.538 301.336 318.482 302.577 321.746 302.577C322.69 302.577 324.497 302.172 324.497 302.172L324.335 299.286C324.335 299.286 323.041 299.34 322.285 299.34C321.153 299.34 321.153 298.72 321.153 297.371V291.841H324.47Z" fill="#105F43"/>
<path d="M332.751 307.918H336.365V302.361C336.365 302.361 337.606 302.577 338.604 302.577C342.731 302.577 344.727 301.147 344.727 295.402C344.727 290.385 342.974 288.443 339.414 288.443C338.092 288.443 336.339 289.495 336.339 289.495V288.766H332.751V307.918ZM338.712 291.68C340.142 291.68 341.059 292.678 341.059 295.402C341.059 298.261 340.493 299.448 338.335 299.448C337.579 299.448 336.365 299.286 336.365 299.286V292.219C336.365 292.219 337.606 291.68 338.712 291.68Z" fill="#105F43"/>
<path d="M351.038 302.253V292.111C351.038 292.111 352.306 291.68 353.493 291.68C355.246 291.68 355.516 293.001 355.516 295.024V302.253H359.13V294.943C359.13 290.816 358.159 288.443 354.383 288.443C352.899 288.443 351.038 289.414 351.038 289.414V283.372H347.423V302.253H351.038Z" fill="#105F43"/>
<path d="M372.664 292.974C372.664 289.818 371.261 288.443 367.755 288.443C365.165 288.443 362.279 289.225 362.279 289.225L362.387 291.734C362.387 291.734 365.678 291.518 367.458 291.518C368.537 291.518 369.049 291.814 369.049 292.974V293.811L366.163 294.026C363.196 294.242 361.443 295.105 361.443 298.153C361.443 301.013 362.791 302.577 365.624 302.577C367.647 302.577 369.589 301.633 369.589 301.633C370.722 302.388 371.639 302.577 373.446 302.577L373.554 299.853C372.826 299.718 372.718 299.394 372.664 298.585V292.974ZM369.049 296.319V299.205C369.049 299.205 367.566 299.637 366.406 299.637C365.435 299.637 365.084 298.99 365.084 298.045C365.084 297.074 365.651 296.616 366.595 296.535L369.049 296.319Z" fill="#105F43"/>
<path d="M385.847 289.144C385.847 289.144 382.556 288.47 380.614 288.47C377.782 288.47 375.408 289.737 375.408 292.866C375.408 295.834 376.946 296.535 379.859 297.02C382.341 297.425 382.637 297.695 382.637 298.288C382.637 298.99 382.179 299.34 380.452 299.34C379.077 299.34 375.732 298.909 375.732 298.909L375.624 301.93C375.624 301.93 378.807 302.577 380.803 302.577C384.175 302.577 386.225 301.363 386.225 298.207C386.225 295.483 385.119 294.566 381.99 293.999C379.508 293.541 378.996 293.406 378.996 292.786C378.996 292.057 379.32 291.707 380.884 291.707C382.449 291.707 385.793 292.138 385.793 292.138L385.847 289.144Z" fill="#105F43"/>
<path d="M394.524 299.394C392.582 299.394 391.827 298.666 391.8 297.047H399.73L400 294.539C400 290.466 398.085 288.443 394.12 288.443C390.181 288.443 388.158 290.897 388.158 295.699C388.158 300.554 389.885 302.577 393.958 302.577C396.466 302.577 399.568 301.822 399.568 301.822L399.514 299.151C399.514 299.151 396.736 299.394 394.524 299.394ZM391.773 294.296C391.8 292.246 392.393 291.41 394.12 291.41C395.819 291.41 396.439 292.111 396.439 294.296H391.773Z" fill="#105F43"/>
<path d="M59.665 198.01L201.228 129.92L341.14 196.691L200.835 263.498L59.665 198.01Z" fill="#D1D1D1"/>
<path d="M200.836 263.454L59.6662 198.011L54.0908 200.693L200.836 268.725L346.667 199.329L341.141 196.692L200.836 263.454Z" fill="#939393"/>
<g opacity="0.5">
<path d="M101.704 196.484L86.8246 203.654L74.562 198.172L89.4418 191.006L101.704 196.484Z" fill="#FEFFFE"/>
<path d="M119.761 187.783L104.886 194.949L92.623 189.471L107.503 182.305L119.761 187.783Z" fill="#FEFFFE"/>
<path d="M137.822 179.085L122.942 186.251L110.684 180.773L125.563 173.603L137.822 179.085Z" fill="#FEFFFE"/>
<path d="M155.883 170.38L141.004 177.55L128.745 172.072L143.621 164.902L155.883 170.38Z" fill="#FEFFFE"/>
<path d="M173.945 161.681L159.065 168.851L146.802 163.369L161.682 156.203L173.945 161.681Z" fill="#FEFFFE"/>
<path d="M192.006 152.982L177.126 160.152L164.864 154.67L179.744 147.504L192.006 152.982Z" fill="#FEFFFE"/>
<path d="M210.062 144.282L195.182 151.448L182.924 145.97L197.804 138.804L210.062 144.282Z" fill="#FEFFFE"/>
<path d="M116.203 202.965L101.327 210.135L89.0649 204.653L103.945 197.487L116.203 202.965Z" fill="#FEFFFE"/>
<path d="M134.263 194.266L119.383 201.432L107.125 195.954L122.005 188.788L134.263 194.266Z" fill="#FEFFFE"/>
<path d="M152.325 185.566L137.446 192.732L125.187 187.254L140.063 180.084L152.325 185.566Z" fill="#FEFFFE"/>
<path d="M170.386 176.866L155.506 184.032L143.244 178.554L158.123 171.384L170.386 176.866Z" fill="#FEFFFE"/>
<path d="M188.443 168.162L173.568 175.332L161.305 169.854L176.185 162.684L188.443 168.162Z" fill="#FEFFFE"/>
<path d="M206.504 159.461L191.624 166.631L179.366 161.149L194.246 153.983L206.504 159.461Z" fill="#FEFFFE"/>
<path d="M224.566 150.762L209.686 157.928L197.427 152.45L212.307 145.284L224.566 150.762Z" fill="#FEFFFE"/>
<path d="M130.705 209.445L115.825 216.615L103.566 211.133L118.446 203.967L130.705 209.445Z" fill="#FEFFFE"/>
<path d="M148.766 200.746L133.886 207.916L121.624 202.434L136.503 195.268L148.766 200.746Z" fill="#FEFFFE"/>
<path d="M166.827 192.045L151.947 199.211L139.685 193.733L154.564 186.567L166.827 192.045Z" fill="#FEFFFE"/>
<path d="M184.884 183.346L170.008 190.512L157.746 185.034L172.625 177.864L184.884 183.346Z" fill="#FEFFFE"/>
<path d="M202.945 174.642L188.066 181.812L175.807 176.334L190.687 169.164L202.945 174.642Z" fill="#FEFFFE"/>
<path d="M221.006 165.941L206.126 173.111L193.868 167.629L208.743 160.463L221.006 165.941Z" fill="#FEFFFE"/>
<path d="M239.067 157.242L224.187 164.412L211.924 158.93L226.804 151.764L239.067 157.242Z" fill="#FEFFFE"/>
<path d="M145.207 215.925L130.327 223.095L118.065 217.617L132.945 210.447L145.207 215.925Z" fill="#FEFFFE"/>
<path d="M163.268 207.226L148.388 214.396L136.125 208.914L151.005 201.748L163.268 207.226Z" fill="#FEFFFE"/>
<path d="M181.325 198.526L166.446 205.692L154.187 200.214L169.067 193.048L181.325 198.526Z" fill="#FEFFFE"/>
<path d="M199.387 189.826L184.507 196.992L172.249 191.514L187.128 184.344L199.387 189.826Z" fill="#FEFFFE"/>
<path d="M217.448 181.126L202.568 188.292L190.31 182.814L205.185 175.644L217.448 181.126Z" fill="#FEFFFE"/>
<path d="M235.508 172.422L220.628 179.592L208.366 174.114L223.246 166.944L235.508 172.422Z" fill="#FEFFFE"/>
<path d="M253.566 163.723L238.69 170.893L226.427 165.411L241.307 158.245L253.566 163.723Z" fill="#FEFFFE"/>
<path d="M159.706 222.406L144.83 229.576L132.568 224.098L147.448 216.928L159.706 222.406Z" fill="#FEFFFE"/>
<path d="M177.767 213.706L162.887 220.876L150.629 215.394L165.509 208.228L177.767 213.706Z" fill="#FEFFFE"/>
<path d="M195.828 205.006L180.948 212.176L168.689 206.694L183.569 199.528L195.828 205.006Z" fill="#FEFFFE"/>
<path d="M213.889 196.307L199.01 203.473L186.747 197.995L201.627 190.829L213.889 196.307Z" fill="#FEFFFE"/>
<path d="M231.95 187.606L217.07 194.772L204.808 189.294L219.687 182.124L231.95 187.606Z" fill="#FEFFFE"/>
<path d="M250.008 178.903L235.132 186.073L222.87 180.595L237.749 173.425L250.008 178.903Z" fill="#FEFFFE"/>
<path d="M268.068 170.202L253.189 177.372L240.93 171.89L255.81 164.724L268.068 170.202Z" fill="#FEFFFE"/>
<path d="M174.208 228.891L159.328 236.057L147.07 230.579L161.95 223.409L174.208 228.891Z" fill="#FEFFFE"/>
<path d="M192.269 220.186L177.389 227.356L165.131 221.878L180.007 214.708L192.269 220.186Z" fill="#FEFFFE"/>
<path d="M210.33 211.486L195.45 218.656L183.188 213.174L198.067 206.008L210.33 211.486Z" fill="#FEFFFE"/>
<path d="M228.392 202.787L213.512 209.953L201.25 204.475L216.129 197.309L228.392 202.787Z" fill="#FEFFFE"/>
<path d="M246.448 194.086L231.569 201.252L219.31 195.774L234.19 188.604L246.448 194.086Z" fill="#FEFFFE"/>
<path d="M264.509 185.387L249.629 192.553L237.371 187.075L252.25 179.905L264.509 185.387Z" fill="#FEFFFE"/>
<path d="M282.571 176.683L267.691 183.853L255.433 178.375L270.308 171.205L282.571 176.683Z" fill="#FEFFFE"/>
<path d="M188.711 235.369L173.831 242.535L161.573 237.057L176.449 229.887L188.711 235.369Z" fill="#FEFFFE"/>
<path d="M206.772 226.666L191.892 233.836L179.629 228.358L194.509 221.188L206.772 226.666Z" fill="#FEFFFE"/>
<path d="M224.828 217.966L209.952 225.136L197.69 219.654L212.57 212.488L224.828 217.966Z" fill="#FEFFFE"/>
<path d="M242.891 209.267L228.011 216.437L215.752 210.955L230.632 203.789L242.891 209.267Z" fill="#FEFFFE"/>
<path d="M260.951 200.567L246.071 207.733L233.813 202.255L248.693 195.089L260.951 200.567Z" fill="#FEFFFE"/>
<path d="M279.012 191.867L264.132 199.033L251.87 193.555L266.749 186.385L279.012 191.867Z" fill="#FEFFFE"/>
<path d="M297.073 183.163L282.193 190.333L269.93 184.855L284.81 177.685L297.073 183.163Z" fill="#FEFFFE"/>
<path d="M203.214 241.851L188.334 249.017L176.072 243.539L190.952 236.369L203.214 241.851Z" fill="#FEFFFE"/>
<path d="M221.27 233.15L206.394 240.316L194.132 234.839L209.012 227.668L221.27 233.15Z" fill="#FEFFFE"/>
<path d="M239.332 224.446L224.452 231.616L212.193 226.138L227.073 218.968L239.332 224.446Z" fill="#FEFFFE"/>
<path d="M257.392 215.747L242.512 222.917L230.253 217.435L245.129 210.269L257.392 215.747Z" fill="#FEFFFE"/>
<path d="M275.453 207.048L260.574 214.218L248.311 208.736L263.191 201.57L275.453 207.048Z" fill="#FEFFFE"/>
<path d="M293.515 198.347L278.635 205.513L266.373 200.035L281.252 192.865L293.515 198.347Z" fill="#FEFFFE"/>
<path d="M311.571 189.648L296.692 196.814L284.433 191.336L299.313 184.166L311.571 189.648Z" fill="#FEFFFE"/>
<path d="M217.711 248.331L202.831 255.497L190.573 250.019L205.453 242.853L217.711 248.331Z" fill="#FEFFFE"/>
<path d="M235.772 239.631L220.892 246.797L208.634 241.319L223.514 234.149L235.772 239.631Z" fill="#FEFFFE"/>
<path d="M253.834 230.927L238.954 238.097L226.695 232.619L241.571 225.449L253.834 230.927Z" fill="#FEFFFE"/>
<path d="M271.895 222.227L257.015 229.397L244.752 223.915L259.632 216.749L271.895 222.227Z" fill="#FEFFFE"/>
<path d="M289.951 213.527L275.076 220.697L262.813 215.215L277.693 208.049L289.951 213.527Z" fill="#FEFFFE"/>
<path d="M308.013 204.827L293.133 211.993L280.875 206.515L295.754 199.349L308.013 204.827Z" fill="#FEFFFE"/>
<path d="M326.073 196.128L311.194 203.294L298.935 197.816L313.815 190.646L326.073 196.128Z" fill="#FEFFFE"/>
</g>
<path d="M59.665 125.141L201.228 57.0518L341.14 123.822L200.835 190.629L59.665 125.141Z" fill="#A87E33"/>
<path d="M200.836 190.584L59.6662 125.141L54.0908 127.823L200.836 195.855L346.667 126.459L341.141 123.822L200.836 190.584Z" fill="#7C581D"/>
<path opacity="0.5" d="M125.903 108.345L97.9102 121.965L99.0268 124.26L127.02 110.641L125.903 108.345Z" fill="#FEFFFE"/>
<path opacity="0.5" d="M147.581 97.7979L128.298 107.18L129.414 109.475L148.698 100.093L147.581 97.7979Z" fill="#FEFFFE"/>
<path opacity="0.5" d="M208.943 79.9068L110.963 127.578L112.08 129.873L210.06 82.2019L208.943 79.9068Z" fill="#FEFFFE"/>
<path opacity="0.5" d="M232.161 79.7051L128.384 130.197L129.5 132.492L233.278 82.0001L232.161 79.7051Z" fill="#FEFFFE"/>
<path opacity="0.5" d="M242.744 86.2685L128.28 141.96L129.396 144.256L243.861 88.5635L242.744 86.2685Z" fill="#FEFFFE"/>
<path opacity="0.5" d="M257.11 91.7748L142.645 147.467L143.762 149.762L258.226 94.0699L257.11 91.7748Z" fill="#FEFFFE"/>
<path opacity="0.5" d="M269.369 99.373L154.904 155.065L156.021 157.36L270.485 101.668L269.369 99.373Z" fill="#FEFFFE"/>
<path opacity="0.5" d="M281.484 104.894L167.02 160.586L168.136 162.881L282.601 107.189L281.484 104.894Z" fill="#FEFFFE"/>
<path opacity="0.5" d="M293.974 111.672L179.51 167.364L180.626 169.659L295.091 113.967L293.974 111.672Z" fill="#FEFFFE"/>
<path opacity="0.5" d="M307.099 118.655L192.635 174.347L193.751 176.642L308.216 120.95L307.099 118.655Z" fill="#FEFFFE"/>
<path d="M163.666 112.984L204.808 93.5801L205.781 95.7753L164.583 115.025L163.666 112.984Z" fill="#ADADAD"/>
<path d="M171.055 116.17L212.314 96.875L213.357 98.9526L171.96 118.369L171.055 116.17Z" fill="#ADADAD"/>
<path d="M178.302 119.436L179.353 121.465L220.617 102.215L219.18 99.9385L178.302 119.436Z" fill="#ADADAD"/>
<path d="M185.631 122.561L211.248 110.785L212.214 112.887L187.445 124.513L185.631 122.561Z" fill="#ADADAD"/>
<path d="M59.665 68.0892L201.228 0L341.14 66.7704L200.835 133.577L59.665 68.0892Z" fill="#105F43"/>
<path d="M200.836 133.532L59.6662 68.0888L54.0908 70.771L200.836 138.803L346.667 69.4076L341.141 66.77L200.836 133.532Z" fill="#063F29"/>
<path d="M201.258 0L115.765 41.1092L255.936 107.34L341.141 66.7704L201.258 0Z" fill="#E5E5E5"/>
<path d="M163.666 31.5858L204.808 12.1816L205.781 14.3769L164.583 33.6269L163.666 31.5858Z" fill="#ADADAD"/>
<path d="M171.055 34.7707L212.314 15.4761L213.357 17.5536L171.96 36.97L171.055 34.7707Z" fill="#ADADAD"/>
<path d="M178.302 38.0376L179.353 40.0624L220.617 20.8124L219.18 18.54L178.302 38.0376Z" fill="#ADADAD"/>
<path d="M185.631 41.1578L211.248 29.3862L212.214 31.4841L187.445 43.1136L185.631 41.1578Z" fill="#ADADAD"/>
<path d="M220.617 59.9198L261.755 40.5156L262.733 42.7109L221.53 61.9609L220.617 59.9198Z" fill="#ADADAD"/>
<path d="M228.003 63.1057L269.262 43.811L270.309 45.8886L228.908 65.305L228.003 63.1057Z" fill="#ADADAD"/>
<path d="M235.253 66.373L236.3 68.3978L277.567 49.1478L276.131 46.8755L235.253 66.373Z" fill="#ADADAD"/>
<path d="M242.582 69.4924L268.194 57.7168L269.164 59.8187L244.391 71.4442L242.582 69.4924Z" fill="#ADADAD"/>
<path d="M158.955 78.6477C156.963 79.5404 154.991 80.4859 152.966 81.2893C152.365 81.5287 151.493 81.6058 150.937 81.3461C142.716 77.5197 134.528 73.6202 126.327 69.745C124.205 68.7427 122.07 67.7689 119.826 66.7707C114.515 64.2873 109.317 61.8121 103.766 59.1664C105.344 58.3468 106.675 57.6529 108.067 56.8738C109.321 56.3341 110.542 55.9527 111.69 55.4171C116.004 53.4166 120.293 51.3715 124.586 49.3304C124.773 49.2412 124.915 49.0667 125.13 48.8354C126.087 48.4377 127.029 48.2267 127.885 47.825C134.215 44.8507 140.529 41.8439 146.952 38.7965C147.553 38.553 148.137 38.4637 148.531 38.1432C150.901 36.2076 153.144 36.9827 155.571 38.1472C165.452 42.9029 175.381 47.5572 185.298 52.2398C186.942 53.0149 188.605 53.7412 190.48 54.5528C193.702 56.0907 196.709 57.5636 200.012 59.1867C198.904 59.767 198.076 60.2012 197.135 60.6475C193.053 62.51 189.076 64.3482 185.12 66.2229C183.245 67.1115 181.403 68.0692 179.431 69.0065C174.334 71.3275 169.347 73.6242 164.372 75.9534C162.55 76.8136 160.761 77.751 158.955 78.6477ZM152.649 61.6051C151.947 61.6254 151.164 61.4509 150.56 61.7025C148.49 62.5628 146.478 63.5732 144.449 64.5308C142.538 65.4316 140.634 66.3406 138.618 67.2982C138.881 67.5416 138.971 67.6755 139.101 67.7364C143.016 69.5868 146.924 71.4574 150.872 73.2306C151.4 73.466 152.244 73.3686 152.804 73.117C156.46 71.4696 160.079 69.7409 163.703 68.0286C164.052 67.8663 164.36 67.6187 164.827 67.3225C160.708 65.3829 156.796 63.5366 152.649 61.6051ZM167.123 60.0632C169.81 60.5298 172.459 60.3554 175.012 59.4058C176.525 58.8418 178.201 58.1682 178.181 56.2408C178.161 54.4107 176.554 53.729 175.081 53.1975C174.034 52.8201 172.926 52.5198 171.826 52.4062C168.694 52.0816 165.606 52.2682 162.859 54.0252C160.846 55.3156 160.806 57.2674 162.847 58.4969C164.056 59.2192 165.508 59.5276 167.123 60.0632ZM143.357 51.3187C140.979 51.1605 138.597 51.0022 136.13 50.8358C135.915 54.2931 135.716 57.5636 135.493 61.1263C141.827 58.1276 147.894 55.2588 153.956 52.39C153.92 52.2845 153.879 52.183 153.842 52.0775C150.446 51.83 147.05 51.5825 143.357 51.3187Z" fill="#FEFFFE"/>
<path d="M202.08 66.7503C203.529 66.0848 205.01 65.4843 206.414 64.7295C207.506 64.1452 208.431 64.133 209.571 64.6768C215.678 67.5781 221.821 70.3982 227.953 73.2387C228.237 73.3685 228.557 73.4213 228.979 73.5146C232.209 75.0646 235.293 76.6553 238.43 78.1485C242.63 80.149 246.87 82.0683 251.09 84.0242C252.725 84.783 254.361 85.5458 256.475 86.5278C251.407 88.9138 246.76 91.1009 242.045 93.3773C237.675 95.4589 233.366 97.4432 229.069 99.4437C226.123 100.815 223.185 102.207 220.17 103.68C217.143 105.137 214.12 106.378 211.255 107.92C209.186 109.032 207.42 109.028 205.306 107.993C197.954 104.402 190.524 100.969 183.11 97.5041C175.892 94.1321 168.657 90.7925 161.324 87.4002C160.923 87.1689 160.63 86.9823 160.079 86.6211C161.523 85.8948 162.757 85.274 164.181 84.5598C166.466 83.5291 168.576 82.6283 170.653 81.6544C175.242 79.4957 179.811 77.3005 184.494 75.0768C190.423 72.2689 196.249 69.5096 202.08 66.7503ZM203.521 86.2113C203.241 90.7317 202.961 95.252 202.661 100.069C213.463 94.9598 223.988 89.981 234.51 85.0021C234.474 84.8804 234.441 84.7546 234.405 84.6328C228.561 84.219 222.714 83.801 216.774 83.379C216.66 84.6166 216.567 85.6554 216.473 86.7064C212.107 86.4629 207.895 86.2275 203.521 86.2113ZM180.282 89.1126C182.851 89.7132 185.415 89.7294 187.797 88.5486C188.601 88.1509 189.607 87.1527 189.611 86.4264C189.615 85.7 188.613 84.6978 187.809 84.2961C185.371 83.0747 182.729 83.1274 180.136 83.7929C178.704 84.1621 176.971 84.5679 176.979 86.4426C176.995 88.2158 178.679 88.5486 180.282 89.1126Z" fill="#FEFFFE"/>
<path d="M152.763 61.65C156.792 63.541 160.708 65.3872 164.822 67.3268C164.356 67.6231 164.047 67.8706 163.698 68.0329C160.075 69.7453 156.455 71.4739 152.799 73.1213C152.239 73.3729 151.399 73.4703 150.868 73.2349C146.915 71.4617 143.012 69.5911 139.096 67.7407C138.97 67.6799 138.877 67.546 138.613 67.3025C140.626 66.3449 142.533 65.4359 144.444 64.5351C146.473 63.5775 148.486 62.5671 150.555 61.7069C151.164 61.4512 151.947 61.6257 152.763 61.65Z" fill="#A87E33"/>
<path d="M166.989 60.0423C165.512 59.527 164.056 59.2186 162.851 58.4923C160.809 57.2628 160.85 55.311 162.863 54.0206C165.61 52.2636 168.698 52.0769 171.83 52.4016C172.934 52.5152 174.038 52.8155 175.085 53.1928C176.558 53.7244 178.165 54.4061 178.185 56.2361C178.205 58.1636 176.529 58.8372 175.016 59.4012C172.459 60.3548 169.814 60.5293 166.989 60.0423Z" fill="#105F43"/>
<path d="M143.508 51.3263C147.054 51.5819 150.447 51.8295 153.839 52.081C153.875 52.1865 153.916 52.288 153.953 52.3935C147.89 55.2623 141.824 58.1311 135.49 61.1298C135.709 57.5671 135.912 54.2966 136.127 50.8394C138.598 51.0017 140.976 51.1599 143.508 51.3263Z" fill="#A87E33"/>
<path d="M203.603 86.1018C207.896 86.2276 212.104 86.4589 216.478 86.7024C216.571 85.6514 216.669 84.6126 216.778 83.375C222.719 83.797 228.562 84.2109 234.409 84.6288C234.446 84.7506 234.478 84.8764 234.515 84.9981C223.989 89.977 213.467 94.9558 202.666 100.065C202.962 95.248 203.242 90.7277 203.603 86.1018Z" fill="#105F43"/>
<path d="M180.16 89.0712C178.683 88.5477 176.995 88.215 176.987 86.4418C176.979 84.563 178.711 84.1572 180.144 83.792C182.737 83.1266 185.374 83.0779 187.817 84.2952C188.62 84.6969 189.619 85.7033 189.619 86.4255C189.615 87.1519 188.608 88.1501 187.805 88.5477C185.415 89.7286 182.85 89.7123 180.16 89.0712Z" fill="#A87E33"/>
<path d="M298.797 202.398C298.939 202.723 299.04 203.076 299.17 203.408C299.446 204.131 299.722 204.857 300.002 205.587C300.404 206.63 300.821 207.701 301.272 208.85C301.284 208.89 301.3 208.931 301.312 208.967C301.41 209.251 301.503 209.527 301.592 209.791C301.876 210.631 302.116 211.386 302.355 212.141C302.684 212.903 303.009 213.666 303.427 214.616C303.78 215.728 304.039 216.649 304.299 217.566C305.687 221.128 307.074 224.687 308.466 228.368C308.787 229.212 309.107 229.987 309.432 230.794C309.542 231.062 309.647 231.338 309.757 231.618C312.228 238.082 314.687 244.424 317.154 250.884C317.361 251.513 317.564 252.097 317.771 252.694C317.779 252.726 317.791 252.755 317.803 252.787C317.876 252.994 317.945 253.205 318.018 253.42C318.059 253.542 318.095 253.664 318.136 253.789C318.14 253.793 318.14 253.793 318.14 253.798C318.136 253.923 318.144 253.923 318.144 253.923C318.241 253.944 318.323 253.992 318.534 254.183C320.291 254.694 321.086 253.968 320.575 252.422C319.97 250.588 319.219 248.806 318.521 246.968C322.587 245.053 326.467 243.223 330.346 241.389C331.133 241.064 331.924 240.74 332.829 240.411C333.608 240.009 334.266 239.608 334.992 239.165C335.268 239.896 335.499 240.512 335.767 241.235C335.885 241.515 335.998 241.787 336.112 242.058C336.116 242.075 336.12 242.087 336.128 242.099C336.465 242.898 336.793 243.69 337.159 244.607C337.95 244.83 338.672 244.83 339.399 244.834C339.39 244.237 339.447 243.629 339.35 243.049C339.285 242.643 338.981 242.282 338.83 241.884C334.403 230.36 329.981 218.832 325.562 207.308C325.306 206.723 325.054 206.139 324.795 205.502C324.709 205.291 324.62 205.072 324.535 204.849C324.109 203.753 323.687 202.686 323.265 201.607C322.863 200.568 322.457 199.517 322.048 198.409C322.031 198.364 322.011 198.316 321.995 198.267C321.463 196.697 320.94 195.37 320.42 194.043C319.885 194.85 319.353 195.654 318.797 196.575C319.548 198.498 320.311 200.361 321.102 202.28C321.366 202.917 321.638 203.567 321.91 204.224C316.213 206.87 310.682 209.442 304.952 212.108C303.84 209.304 302.802 206.792 301.885 204.236C301.763 203.899 302.112 203.145 302.461 202.938C302.854 202.698 303.26 202.483 303.686 202.272C304.38 201.931 305.102 201.607 305.833 201.225C304.863 201.095 303.84 200.953 302.814 200.949C302.615 200.949 302.416 200.953 302.221 200.966C301.864 200.986 301.536 200.986 301.256 200.925C300.72 200.811 300.326 200.479 300.132 199.671C299.665 198.352 299.215 197.155 298.752 195.828C298.444 195.053 298.143 194.408 297.827 193.649C297.859 193.248 297.831 192.753 297.888 192.444C297.912 192.306 297.957 192.201 298.034 192.16C299.876 191.247 301.787 190.464 303.788 189.665C303.918 189.6 303.999 189.527 304.092 189.441C304.141 189.385 304.198 189.324 304.271 189.255C304.25 188.642 304.173 188.066 304.072 187.441C304.068 187.425 304.068 187.409 304.064 187.388C304.035 187.198 303.999 186.999 303.966 186.796C303.962 186.796 303.962 186.796 303.958 186.8C303.057 187.104 302.181 187.534 301.191 187.993C300.046 188.61 298.967 189.214 297.79 189.88C297.401 190.099 296.995 190.33 296.573 190.57C295.895 188.78 295.303 187.222 294.686 185.55C294.288 184.187 293.911 182.937 293.522 181.655C296.954 180.023 300.347 178.412 303.84 176.753C303.958 176.173 304.043 175.613 304.088 175.04C304.092 175.016 304.092 174.996 304.092 174.971C304.12 174.618 304.133 174.253 304.129 173.88C304.124 173.88 304.124 173.884 304.12 173.884C300.225 175.592 296.423 177.378 292.507 179.224C291.428 176.457 290.373 173.758 289.245 170.877C294.52 168.337 299.779 165.809 305.147 163.236C305.597 161.483 305.967 159.759 306.332 157.949C306.34 157.921 306.344 157.896 306.348 157.868C306.393 157.637 306.441 157.401 306.486 157.166C305.873 155.632 305.257 154.236 304.64 152.723C304.323 151.988 304.011 151.315 303.69 150.613C303.589 150.381 303.479 150.142 303.374 149.895C302.834 148.458 302.294 147.066 301.755 145.658C301.434 144.818 301.11 143.97 300.785 143.106C300.071 142.96 299.361 142.931 298.496 142.911C299.093 144.879 299.807 146.839 300.582 148.925C300.696 149.221 300.805 149.521 300.919 149.826C295.315 152.455 289.78 155.048 284.014 157.754C283.061 155.279 282.144 152.914 281.21 150.434C280.707 150.264 280.224 150.175 279.741 150.093C279.66 150.081 279.583 150.069 279.502 150.057C279.457 150.649 279.226 151.303 279.405 151.814C280.107 153.871 280.959 155.876 281.709 157.917C281.73 157.974 281.746 158.03 281.762 158.091C281.774 158.136 281.787 158.176 281.791 158.221C281.799 158.258 281.807 158.298 281.811 158.335C281.872 158.688 281.868 159.077 281.888 159.503C282.351 160.506 282.854 161.398 283.361 162.413C284.436 165.403 285.512 168.276 286.579 171.153C288.088 175.219 289.594 179.289 291.107 183.497C291.347 183.907 291.655 184.215 291.87 184.54C291.943 184.645 292.004 184.755 292.049 184.872C292.515 186.065 292.974 187.267 293.432 188.472C294.195 190.484 294.966 192.538 295.774 194.664C296.106 195.561 296.354 196.254 296.601 196.948C296.816 197.419 297.052 197.882 297.251 198.356C297.32 198.515 297.385 198.673 297.441 198.835C297.531 199.083 297.673 199.346 297.762 199.606L298.797 202.398ZM285.67 161.565C285.142 160.952 284.834 160.453 284.984 160.023C284.988 160.002 284.996 159.982 285.004 159.966C285.021 159.925 285.045 159.885 285.069 159.848C285.081 159.832 285.094 159.812 285.11 159.791C285.248 159.617 285.479 159.451 285.82 159.292C291.042 156.862 296.261 154.415 301.767 151.838C301.816 152.09 301.864 152.325 301.909 152.556C301.986 152.93 302.055 153.275 302.124 153.624C302.992 156.034 303.938 158.258 304.924 160.57C299.353 163.176 293.891 165.728 288.344 168.321C287.419 165.984 286.546 163.772 285.67 161.565ZM309.205 222.788C308.393 220.638 307.61 218.564 306.827 216.49C306.137 215.594 305.813 215.046 305.89 214.62C305.89 214.604 305.894 214.591 305.898 214.575C305.963 214.311 306.186 214.092 306.583 213.857C306.742 213.764 306.928 213.67 307.139 213.569C312.232 211.155 317.341 208.76 322.62 206.273C322.713 206.565 322.802 206.837 322.883 207.101C323.026 207.531 323.151 207.925 323.281 208.318C323.951 210.347 324.673 212.116 325.274 213.926C325.403 214.316 325.237 215.143 324.965 215.277C319.804 217.793 314.606 220.236 309.205 222.788ZM314.062 233.436C313.835 233.57 313.595 233.708 313.344 233.858C313.202 233.415 313.068 233.006 312.942 232.604C312.727 231.946 312.532 231.342 312.337 230.733C311.603 228.798 310.881 227.106 310.081 225.243C315.624 222.642 321.049 220.094 326.621 217.477C327.737 220.297 328.804 222.991 329.94 225.868C325.343 228.031 320.733 230.194 316.123 232.356C315.377 232.701 314.76 233.038 314.066 233.436C314.066 233.436 314.066 233.436 314.062 233.436ZM329.948 238.707C328.95 239.1 328.175 239.433 327.396 239.77C325.622 240.585 324.121 241.446 322.567 242.213C320.993 242.988 319.374 243.665 317.548 244.489C316.472 241.718 315.397 238.942 314.297 236.098C315.101 235.732 315.864 235.383 316.626 235.034C317.637 234.556 318.432 234.142 319.223 233.732C323.155 231.938 326.864 230.218 330.82 228.38C331.924 231.184 333.004 233.923 334.123 236.767C332.724 237.416 331.336 238.062 329.948 238.707Z" fill="#303030"/>
<path d="M304.369 189.193C304.243 188.438 304.117 187.684 303.939 186.677C303.906 183.188 303.927 179.95 303.947 176.711C304.044 175.794 304.138 174.881 304.126 173.749C304.43 170.085 304.844 166.644 305.258 163.199C305.668 161.235 306.077 159.275 306.52 157.052C307.08 155.7 307.603 154.613 308.277 153.525C310.151 153.724 311.884 154.089 313.617 154.077C315.861 154.061 318.105 153.749 320.344 153.566C320.835 155.262 321.554 156.926 321.765 158.654C322.053 161.032 322.15 163.467 321.976 165.853C321.728 169.253 321.046 172.617 320.783 176.018C320.689 177.206 321.473 178.44 321.517 179.665C321.594 181.763 321.408 183.873 321.168 186.117C319.626 186.267 318.247 186.276 316.814 186.17C316.567 184.863 316.372 183.666 316.193 182.327C315.885 177.085 315.56 171.984 315.236 166.884C315.106 166.863 314.976 166.843 314.85 166.823C313.897 168.604 312.939 170.389 311.896 172.24C311.446 173.559 311.089 174.804 310.618 176.111C310.598 178.59 310.691 181.013 310.728 183.545C310.492 184.669 310.31 185.683 310.115 186.819C309.677 187.943 309.255 188.946 308.711 189.948C307.173 189.696 305.769 189.445 304.369 189.193Z" fill="#CECECE"/>
<path d="M320.361 153.408C318.097 153.745 315.853 154.057 313.609 154.073C311.88 154.085 310.147 153.72 308.24 153.412C307.985 152.527 307.899 151.756 307.912 150.896C307.908 149.792 307.81 148.782 307.676 147.638C307.465 146.388 307.295 145.272 307.08 143.905C305.169 143.629 302.973 143.308 300.782 142.992C300.072 142.963 299.366 142.935 298.408 142.866C297.41 142.561 296.57 142.436 295.925 142.014C292.894 140.025 289.879 138.013 286.953 135.874C286.32 135.412 286.097 134.385 285.772 133.553C286.535 132.778 287.213 132.068 288.016 131.358C288.885 131.618 289.708 131.752 290.358 132.157C292.488 133.488 294.509 134.994 296.663 136.272C297.52 136.779 298.623 137.108 299.613 137.104C303.777 137.087 307.94 136.913 312.233 136.812C314.055 137.035 315.747 137.246 317.549 137.505C319.614 138.122 321.318 138.938 321.335 141.486C321.225 142.695 321.144 143.779 321.059 144.866C320.831 147.662 320.604 150.458 320.361 153.408Z" fill="#063F29"/>
<path d="M311.985 128.778C312.171 126.522 313.689 125.17 316.047 125.231C316.822 125.251 317.422 125.239 318.096 124.566C319.415 123.235 321.663 123.365 322.961 124.773C325.351 127.353 325.055 130.677 321.622 132.353C321.435 132.442 321.293 132.612 321.03 132.945C320.125 134.621 319.159 135.936 317.321 136.475C315.154 136.362 313.831 135.453 313.644 133.98C313.506 132.88 314.119 131.513 312.46 130.989C312.342 130.953 312.419 130.389 312.346 130.084C312.244 129.662 312.082 129.252 311.948 128.839C311.956 128.839 311.956 128.782 311.985 128.778Z" fill="#303030"/>
<path d="M316.859 186.279C318.239 186.271 319.618 186.263 321.124 186.239C320.969 188.734 320.685 191.246 320.409 193.9C319.886 194.845 319.35 195.653 318.681 196.541C317.89 196.468 317.232 196.314 316.506 196.042C315.272 195.641 314.104 195.353 312.813 195.068C312.245 194.93 311.799 194.797 310.987 194.545C311.726 194.127 312.067 193.932 312.521 193.729C314.436 193.161 315.917 192.277 316.348 190.138C316.591 188.811 316.725 187.545 316.859 186.279Z" fill="#5A5A5A"/>
<path d="M318.174 253.991C318.243 253.942 318.325 253.991 318.432 254.126C318.354 254.2 318.268 254.159 318.174 253.991Z" fill="#063F29"/>
<path d="M306.856 200.742C306.609 200.868 306.361 200.993 306.008 201.127C304.677 201.071 303.444 200.896 302.222 200.965C301.192 201.026 300.429 200.904 300.234 199.634C302.531 198.242 303.598 196.364 303.533 193.681C303.594 192.74 303.614 191.945 303.679 191.052C303.784 190.533 303.841 190.107 303.898 189.685C303.987 189.563 304.081 189.437 304.267 189.254C305.769 189.445 307.173 189.693 308.69 190.066C308.702 190.727 308.597 191.267 308.402 191.892C307.834 194.071 307.355 196.165 306.868 198.401C306.864 199.273 306.86 200.007 306.856 200.742Z" fill="#5A5A5A"/>
<path d="M284.527 132.799C283.505 133.74 282.486 134.682 281.407 135.712C280.77 136.301 280.226 136.942 279.597 137.372C279.455 137.469 279.305 137.559 279.147 137.632C278.501 137.936 277.276 138.041 276.915 137.66C276.326 137.039 276.671 136.15 277.487 135.513C277.82 135.25 278.148 134.978 278.477 134.698C279.459 133.862 280.425 132.965 281.524 132.048C282.34 131.659 282.993 131.622 283.533 131.874C283.687 131.947 283.837 132.044 283.979 132.162C284.178 132.332 284.357 132.547 284.527 132.799Z" fill="#063F29"/>
<path d="M291.904 126.014C291.535 126.334 291.165 126.663 290.796 126.992C289.696 127.978 288.589 128.996 287.379 130.011C286.641 129.503 286.069 128.98 285.497 128.452C285.756 128.176 286.02 127.905 286.304 127.588C286.397 127.487 286.495 127.373 286.596 127.259C287.396 126.46 288.175 125.713 288.938 124.975C289.282 124.638 289.623 124.305 289.96 123.969C290.747 123.189 291.701 122.897 292.464 123.721C293.227 124.545 292.687 125.34 291.904 126.014Z" fill="#063F29"/>
<path d="M287.858 131.248C287.29 131.962 286.702 132.595 286.053 133.261C285.959 133.354 285.862 133.451 285.769 133.549C285.513 133.451 285.294 133.33 285.058 133.179C285.058 133.175 285.058 133.175 285.054 133.179C284.965 133.115 284.872 133.05 284.774 132.985C284.722 132.948 284.673 132.912 284.62 132.875C284.417 132.583 284.206 132.344 283.979 132.161C283.837 132.043 283.687 131.946 283.533 131.873C282.985 131.605 282.352 131.629 281.589 131.966C281.573 130.85 282.372 129.678 283.399 128.996C283.407 128.996 283.415 128.988 283.419 128.984C283.468 128.951 283.521 128.923 283.569 128.894C283.813 128.744 284.072 128.627 284.332 128.55C284.369 128.537 284.405 128.525 284.446 128.513C284.474 128.505 284.499 128.501 284.527 128.493C284.612 128.472 284.697 128.456 284.783 128.444C284.99 128.416 285.192 128.412 285.395 128.436C286.069 128.98 286.641 129.503 287.29 130.091C287.517 130.481 287.672 130.814 287.858 131.248Z" fill="#EA997D"/>
<path d="M316.81 186.171C316.729 187.546 316.595 188.812 316.298 190.038C315.475 188.293 314.813 186.593 314.132 184.832C312.72 185.489 311.421 186.094 310.123 186.694C310.301 185.68 310.484 184.665 310.829 183.505C311.709 183.05 312.431 182.742 313.223 182.401C312.367 180.226 311.547 178.136 310.727 176.051C311.084 174.801 311.445 173.551 311.945 172.342C313.45 175.742 314.813 179.106 316.177 182.466C316.367 183.667 316.562 184.86 316.81 186.171Z" fill="#303030"/>
<path d="M317.325 136.471C317.451 136.715 317.447 136.962 317.443 137.327C315.746 137.238 314.05 137.027 312.232 136.804C311.928 136.337 311.863 135.599 311.555 135.481C310.431 135.055 310.694 134.296 310.557 133.383C310.285 131.59 311.405 130.446 311.965 128.936C312.09 129.244 312.249 129.654 312.354 130.076C312.427 130.381 312.346 130.941 312.468 130.981C314.123 131.505 313.515 132.872 313.653 133.972C313.831 135.449 315.158 136.362 317.325 136.471Z" fill="#EA997D"/>
<path d="M306.873 198.4C308.91 197.272 310.947 196.282 312.959 195.182C314.108 195.357 315.272 195.645 316.51 196.046C313.41 197.678 310.245 199.191 306.966 200.725C306.861 200.007 306.865 199.272 306.873 198.4Z" fill="#303030"/>
<path d="M93.6871 233.244C93.9421 233.536 93.9753 233.864 93.8486 234.212C93.8486 234.214 93.847 234.215 93.8455 234.217C93.6117 234.862 92.8393 235.584 91.9433 236.305C91.8286 236.397 91.726 236.481 91.6385 236.56C91.6159 236.581 91.5918 236.6 91.5706 236.621C91.5525 236.637 91.5359 236.653 91.5178 236.67C90.6821 237.441 90.9959 237.617 89.4934 239.181C87.7796 240.965 86.6 240.996 86.2651 240.833C85.9814 240.695 86.5577 239.749 87.1973 238.687C87.229 238.635 87.2592 238.584 87.2909 238.531C87.3754 238.389 87.4598 238.246 87.5458 238.104C88.2956 236.825 88.1025 236.225 87.9245 234.321C87.7781 232.776 85.5153 225.681 85.5153 225.681L88.7994 225.116C88.7994 225.116 89.789 230.765 90.8782 231.636C91.4605 232.099 92.1122 232.105 92.6734 232.449C92.7126 232.473 92.7518 232.497 92.7896 232.523C93.1063 232.734 93.4307 232.951 93.6871 233.244Z" fill="#303030"/>
<path d="M93.6871 233.245C93.9421 233.537 93.9753 233.865 93.8486 234.213C93.8486 234.215 93.847 234.216 93.8455 234.218C93.5589 234.863 92.8062 235.581 91.9402 236.298C91.8271 236.391 91.7275 236.479 91.6385 236.559C91.6159 236.58 91.5918 236.6 91.5706 236.621C91.5525 236.636 91.5359 236.652 91.5178 236.669C90.6821 237.44 90.9959 237.616 89.4934 239.181C87.7796 240.964 86.6 240.996 86.2651 240.833C85.9814 240.694 86.5577 239.748 87.1973 238.686C87.5307 238.564 89.08 237.935 90.2522 236.435C91.2463 235.167 91.9221 233.549 92.598 232.557C92.6719 232.543 92.7171 232.534 92.7911 232.521C93.1063 232.735 93.4307 232.952 93.6871 233.245Z" fill="#303030"/>
<path d="M67.2087 231.194C67.0065 232.208 65.5613 232.039 63.9472 231.643C62.333 231.25 62.7162 231.717 60.4187 231.464C58.1211 231.209 57.4257 230.354 57.3548 230.011C57.2914 229.708 58.4274 229.601 59.6448 229.461C59.7986 229.444 59.951 229.424 60.1049 229.405C61.4792 229.233 62.4869 228.346 63.7345 227.617C64.9172 226.928 66.6822 224.116 66.6822 224.116L69.832 224.365C69.832 224.365 68.1787 226.876 67.539 227.967C67.1634 228.61 67.183 229.459 67.2298 230.114C67.2569 230.473 67.2811 230.836 67.2087 231.194Z" fill="#303030"/>
<path d="M63.9476 231.643C62.3334 231.25 62.7166 231.717 60.419 231.464C58.1215 231.209 57.4261 230.354 57.3552 230.011C57.2918 229.708 58.4278 229.601 59.6452 229.46L59.6572 229.483C59.6572 229.483 61.0345 230.461 62.9474 230.506C64.5057 230.544 66.1561 230.097 67.2332 230.115C67.2573 230.471 67.2815 230.836 67.2091 231.192C67.0069 232.208 65.5617 232.039 63.9476 231.643Z" fill="#303030"/>
<path d="M79.284 211.048L82.2287 218.974L86.074 229.321C86.074 229.321 87.1179 229.422 88.1166 229.134C89.0368 228.869 90.0928 228.173 90.0928 228.173C90.0928 228.173 89.0247 217.063 87.0334 210.684C86.5235 209.048 85.9503 207.723 85.3197 206.978C82.2317 203.327 79.284 211.048 79.284 211.048Z" fill="#105F43"/>
<path d="M82.2782 198.461C83.9542 197.921 88.329 198.452 93.0734 199.312C94.3843 199.549 95.7058 198.95 96.3967 197.811L108.337 196.879C108.337 196.879 112.277 205.616 110.12 211.185C109.803 212.002 109.108 212.514 108.034 212.53C108.034 212.53 100.818 212.541 98.5102 212.541C92.5725 212.541 85.9424 208.459 85.0856 208.287C83.6826 208.006 83.1199 210.813 81.717 213.761C80.314 216.709 68.5232 226.815 68.5232 226.815C68.5232 226.815 66.7114 226.833 65.9616 226.552C65.1561 226.25 64.8619 225.858 64.8619 225.858C64.8619 225.858 77.926 199.866 82.2782 198.461Z" fill="#105F43"/>
<path d="M97.6648 162.747C98.5518 162.219 99.4162 162.139 99.9457 162.155C100.314 162.165 100.682 162.141 101.047 162.088C105.604 161.42 108.348 168.039 108.51 170.04C108.805 173.712 110.747 174.271 113.482 176.572C118.964 181.183 117.357 186.542 114.358 188.532C112.56 189.726 109.389 188.532 109.389 188.532C109.344 188.563 100.718 183.709 96.467 181.369C90.0918 180.461 95.1032 164.273 97.6648 162.747Z" fill="#303030"/>
<path d="M100.03 179.375C100.012 179.387 102.122 180.108 103.533 179.482C104.86 178.895 105.866 176.711 105.847 176.709C105.243 176.681 104.58 176.153 104.068 172.689L103.81 172.781L99.4853 174.338C99.4853 174.338 99.7991 175.726 100.001 177.047C100.175 178.154 100.265 179.218 100.03 179.375Z" fill="#EA997D"/>
<path d="M99.4875 174.337C99.4875 174.337 99.6595 175.085 99.9114 176.484C102.396 176.037 103.463 174.123 103.811 172.78L99.4875 174.337Z" fill="#D9866A"/>
<path d="M98.844 175.715C98.844 175.715 104.761 174.921 104.21 171.244C103.659 167.566 104.052 164.988 100.25 165.339C96.4484 165.691 95.9264 167.204 95.8118 168.475C95.6987 169.747 97.2917 175.827 98.844 175.715Z" fill="#EA997D"/>
<path d="M96.0281 166.46C96.0281 166.46 99.8161 169.724 102.393 169.987C104.969 170.249 105.944 169.423 105.944 169.423C105.944 169.423 104.425 168.162 103.512 166.128C103.242 165.529 102.673 165.116 102.019 165.06C100.178 164.9 96.6904 164.828 96.0281 166.46Z" fill="#303030"/>
<path d="M98.3955 166.167C98.3955 166.167 97.1283 167.392 96.7301 168.3C96.3454 169.177 96.2292 171.275 96.5355 172.108C96.5355 172.108 94.5608 168.268 95.6786 166.404C96.8643 164.426 98.3955 166.167 98.3955 166.167Z" fill="#303030"/>
<path d="M95.0479 188.091C95.2275 200.068 95.0977 197.565 96.4071 198.703C96.7224 198.976 97.611 199.139 98.7786 199.217C102.45 199.461 108.907 198.856 109.153 198.178C110.001 195.829 109.402 195.1 110.109 191.504C110.183 191.122 110.274 190.707 110.381 190.256C110.971 187.787 111.544 186.946 109.453 182.979C107.557 179.386 105.588 176.468 105.41 176.574C100.408 179.542 100.005 177.047 100.005 177.047C100.005 177.047 94.9604 182.249 95.0479 188.091Z" fill="white"/>
<path d="M82.2287 218.973L86.074 229.321C86.074 229.321 87.1179 229.422 88.1166 229.134C89.0368 228.869 90.0928 228.173 90.0928 228.173C90.0928 228.173 89.0247 217.063 87.0334 210.685L82.2287 218.973Z" fill="#105F43"/>
<path d="M100.003 177.045C100.003 177.045 94.8557 177.917 94.2523 180.133C93.6474 182.349 91.6591 195.8 91.6591 195.8C91.6591 195.8 93.1103 197.218 94.3187 196.008C95.5271 194.8 98.1233 183.424 98.1233 183.424L100.003 177.045Z" fill="white"/>
<path d="M98.7786 199.215C102.45 199.46 108.907 198.855 109.153 198.176C110.001 195.827 109.402 195.098 110.109 191.502L108.338 186.515C108.338 186.515 108.631 192.069 106.993 193.529C105.356 194.99 100.286 196.349 99.4891 197.571C99.1045 198.156 98.8525 198.743 98.7786 199.215Z" fill="#7E7E7E"/>
<path d="M102.986 196.878C102.986 196.878 99.3623 196.071 98.7785 196.392C98.1932 196.714 96.7646 197.884 96.5866 198.292C96.407 198.699 97.8884 197.982 98.3697 197.853C98.6819 197.77 99.5026 198.055 99.9084 198.189C101.619 198.759 102.666 198.465 102.666 198.465L102.986 196.878Z" fill="#EA997D"/>
<path d="M105.413 176.571C105.413 176.571 110.278 176.871 111.962 179.22C114.333 182.527 119.035 196.618 116.34 198.498C113.304 200.614 102.526 199.051 102.526 199.051C102.526 199.051 102.167 197.375 102.666 196.564C103.165 195.752 111.275 194.443 111.65 194.069C112.024 193.694 106.97 186.769 106.97 185.646C106.972 184.522 105.413 176.571 105.413 176.571Z" fill="white"/>
<path d="M98.6045 197.402C98.6045 197.402 97.8457 198.381 97.5968 198.499C97.3479 198.615 97.1864 198.587 97.1864 198.587L97.6978 197.666L98.6045 197.402Z" fill="#EA997D"/>
<path d="M98.7773 196.394L96.5703 197.465C96.5703 197.465 96.6639 197.619 96.9354 197.606C97.2069 197.594 97.8933 197.344 97.8933 197.344L98.7773 196.394Z" fill="#EA997D"/>
<path d="M79.9306 198.914H102.986V199.422H80.1358L79.9306 198.914Z" fill="#303030"/>
<path d="M97.5942 199.422H80.1357L74.883 186.361H92.3158L97.5942 199.422Z" fill="#303030"/>
<path d="M84.5423 192.891C84.4111 192.433 84.6766 192.06 85.1352 192.06C85.5938 192.06 86.0735 192.433 86.2047 192.891C86.336 193.35 86.0705 193.722 85.6119 193.722C85.1533 193.722 84.6751 193.351 84.5423 192.891Z" fill="white"/>
</svg>
