<svg width="38" height="38" viewBox="0 0 38 38" fill="none" xmlns="http://www.w3.org/2000/svg">
<g clip-path="url(#clip0_129_156)">
<circle cx="25.9939" cy="22.3804" r="9.09202" fill="#CFDFD9"/>
<path d="M6.3335 4.75001H14.2502V6.33335H6.3335V4.75001Z" fill="#D5D5D5"/>
<path d="M6.3335 7.91668H7.91683V9.50001H6.3335V7.91668Z" fill="#D5D5D5"/>
<path d="M9.50016 7.91668H11.0835V9.50001H9.50016V7.91668Z" fill="#D5D5D5"/>
<path d="M29.2918 38H3.9585C3.32861 38 2.72452 37.7498 2.27912 37.3044C1.83372 36.859 1.5835 36.2549 1.5835 35.625V19V2.37501C1.5835 1.74512 1.83372 1.14103 2.27912 0.695635C2.72452 0.250236 3.32861 1.32321e-05 3.9585 1.32321e-05H24.5418C24.646 -0.000589142 24.7493 0.0193807 24.8458 0.0587777C24.9422 0.0981747 25.0299 0.156224 25.1039 0.229597L31.4372 6.56293C31.5106 6.6369 31.5687 6.72463 31.6081 6.82109C31.6475 6.91754 31.6674 7.02083 31.6668 7.12501V10.2917H30.0835V7.4496L24.2172 1.58335H3.9585C3.74853 1.58335 3.54717 1.66675 3.3987 1.81522C3.25024 1.96369 3.16683 2.16505 3.16683 2.37501V35.625C3.16683 35.835 3.25024 36.0363 3.3987 36.1848C3.54717 36.3333 3.74853 36.4167 3.9585 36.4167H29.2918C29.5018 36.4167 29.7032 36.3333 29.8516 36.1848C30.0001 36.0363 30.0835 35.835 30.0835 35.625V34.0417H31.6668V35.625C31.6668 36.2549 31.4166 36.859 30.9712 37.3044C30.5258 37.7498 29.9217 38 29.2918 38Z" fill="#D5D5D5"/>
<path d="M27.7085 7.91668H26.1252C25.4953 7.91668 24.8912 7.66646 24.4458 7.22106C24.0004 6.77566 23.7502 6.17157 23.7502 5.54168V0.79168H25.3335V5.54168C25.3335 5.75164 25.4169 5.95301 25.5654 6.10147C25.7138 6.24994 25.9152 6.33335 26.1252 6.33335H27.7085V7.91668Z" fill="#D5D5D5"/>
<path d="M26.1252 32.4583C24.0897 32.4583 22.0999 31.8548 20.4074 30.7239C18.715 29.593 17.3959 27.9857 16.6169 26.1051C15.838 24.2246 15.6341 22.1553 16.0312 20.1589C16.4284 18.1625 17.4085 16.3287 18.8479 14.8894C20.2872 13.4501 22.121 12.4699 24.1174 12.0728C26.1137 11.6757 28.1831 11.8795 30.0636 12.6584C31.9442 13.4374 33.5515 14.7565 34.6824 16.4489C35.8132 18.1414 36.4168 20.1312 36.4168 22.1667C36.4168 24.8962 35.3325 27.5139 33.4025 29.444C31.4724 31.374 28.8547 32.4583 26.1252 32.4583ZM26.1252 13.4583C24.4028 13.4583 22.7191 13.9691 21.2871 14.926C19.855 15.8829 18.7388 17.2429 18.0797 18.8341C17.4206 20.4254 17.2481 22.1763 17.5842 23.8656C17.9202 25.5548 18.7496 27.1065 19.9674 28.3244C21.1853 29.5423 22.737 30.3717 24.4263 30.7077C26.1155 31.0437 27.8665 30.8712 29.4577 30.2121C31.0489 29.553 32.409 28.4369 33.3659 27.0048C34.3228 25.5727 34.8335 23.889 34.8335 22.1667C34.8335 19.8571 33.916 17.6421 32.2829 16.009C30.6498 14.3758 28.4348 13.4583 26.1252 13.4583Z" fill="#D5D5D5"/>
<path d="M26.7808 24.8857H25.1974V22.5107C25.1974 22.3007 25.2808 22.0993 25.4293 21.9509C25.5778 21.8024 25.7791 21.719 25.9891 21.719C26.4588 21.719 26.918 21.5797 27.3086 21.3187C27.6991 21.0578 28.0035 20.6868 28.1833 20.2529C28.3631 19.8189 28.4101 19.3414 28.3185 18.8807C28.2268 18.42 28.0006 17.9968 27.6685 17.6646C27.3363 17.3325 26.9131 17.1063 26.4524 17.0146C25.9917 16.923 25.5142 16.97 25.0802 17.1498C24.6462 17.3295 24.2753 17.634 24.0144 18.0245C23.7534 18.4151 23.6141 18.8743 23.6141 19.344H22.0308C22.0309 18.5951 22.2435 17.8615 22.6439 17.2286C23.0443 16.5957 23.6161 16.0893 24.2928 15.7684C24.9694 15.4474 25.7233 15.325 26.4668 15.4154C27.2102 15.5058 27.9128 15.8052 28.4929 16.279C29.073 16.7527 29.5067 17.3813 29.7438 18.0917C29.9809 18.8021 30.0116 19.5652 29.8323 20.2924C29.6531 21.0195 29.2712 21.6809 28.731 22.1997C28.1908 22.7185 27.5146 23.0734 26.7808 23.2232V24.8857Z" fill="white"/>
<path d="M25.1973 26.469H26.7806V28.0523H25.1973V26.469Z" fill="white"/>
</g>
<defs>
<clipPath id="clip0_129_156">
<rect width="38" height="38" fill="white"/>
</clipPath>
</defs>
</svg>
