<svg width="42" height="42" viewBox="0 0 42 42" fill="none" xmlns="http://www.w3.org/2000/svg">
<path d="M30.1875 3.9375C28.63 3.9375 27.1074 4.39936 25.8124 5.26468C24.5174 6.12999 23.508 7.3599 22.912 8.79887C22.3159 10.2378 22.16 11.8212 22.4638 13.3488C22.7677 14.8764 23.5177 16.2796 24.619 17.381C25.7204 18.4823 27.1236 19.2323 28.6512 19.5362C30.1788 19.84 31.7622 19.6841 33.2011 19.0881C34.6401 18.492 35.87 17.4827 36.7353 16.1876C37.6006 14.8926 38.0625 13.37 38.0625 11.8125C38.0604 9.72456 37.2301 7.72273 35.7537 6.24634C34.2773 4.76994 32.2754 3.93958 30.1875 3.9375ZM30.1875 6.5625C31.1218 6.56707 32.0374 6.82421 32.8374 7.30669L25.6817 14.4624C25.1992 13.6624 24.9421 12.7468 24.9375 11.8125C24.9375 10.4201 25.4906 9.08476 26.4752 8.10019C27.4598 7.11562 28.7951 6.5625 30.1875 6.5625ZM30.1875 17.0625C29.2532 17.0579 28.3376 16.8008 27.5376 16.3183L34.6933 9.16256C35.1758 9.96261 35.4329 10.8782 35.4375 11.8125C35.4375 13.2049 34.8844 14.5402 33.8998 15.5248C32.9152 16.5094 31.5799 17.0625 30.1875 17.0625Z" fill="#D5D5D5"/>
<path d="M35.2143 28.7333L34.4136 26.7108C34.2248 26.2432 34.1268 25.7438 34.1249 25.2395V23.3363C34.1249 22.9883 33.9866 22.6544 33.7405 22.4083C33.4943 22.1621 33.1605 22.0238 32.8124 22.0238C32.4643 22.0238 32.1305 22.1621 31.8843 22.4083C31.6382 22.6544 31.4999 22.9883 31.4999 23.3363V25.2395C31.5012 26.075 31.6616 26.9026 31.9724 27.6781L32.7783 29.7072C32.8563 29.9055 32.8848 30.1199 32.8614 30.3317C32.838 30.5435 32.7634 30.7465 32.644 30.923C32.5246 31.0995 32.364 31.2443 32.1761 31.3449C31.9882 31.4454 31.7786 31.4987 31.5655 31.5001H10.4343C10.2205 31.4986 10.0104 31.4448 9.8221 31.3436C9.63384 31.2423 9.47315 31.0966 9.35401 30.9192C9.23487 30.7417 9.16088 30.5378 9.13848 30.3252C9.11608 30.1126 9.14593 29.8978 9.22546 29.6993L10.0274 27.6794C10.3381 26.9034 10.4984 26.0754 10.4999 25.2395V18.3751C10.4968 15.8109 11.4339 13.3346 13.1338 11.4148C14.8337 9.49504 17.1784 8.2651 19.7241 7.95779C20.0684 7.91506 20.3818 7.73777 20.5957 7.46468C20.8096 7.19158 20.9068 6.84489 20.8658 6.5004C20.8249 6.15591 20.6492 5.84164 20.3773 5.62628C20.1053 5.41093 19.7591 5.31201 19.4144 5.35116C16.2306 5.7343 13.2978 7.27146 11.1712 9.67162C9.04462 12.0718 7.87184 15.1684 7.8749 18.3751V25.2395C7.87291 25.7442 7.77492 26.244 7.58615 26.7121L6.78946 28.7255C6.54886 29.322 6.45834 29.9684 6.52587 30.608C6.59339 31.2476 6.81688 31.8609 7.17673 32.394C7.53658 32.9271 8.02178 33.3637 8.58975 33.6656C9.15772 33.9674 9.79109 34.1252 10.4343 34.1251H14.5686C14.8699 35.6086 15.6747 36.9423 16.8468 37.9003C18.0189 38.8583 19.4861 39.3817 20.9999 39.3817C22.5137 39.3817 23.9809 38.8583 25.153 37.9003C26.3251 36.9423 27.1299 35.6086 27.4311 34.1251H31.5655C32.2079 34.125 32.8405 33.9674 33.408 33.6662C33.9754 33.365 34.4603 32.9293 34.8204 32.3973C35.1804 31.8652 35.4046 31.2531 35.4733 30.6143C35.5419 29.9756 35.453 29.3298 35.2143 28.7333ZM20.9999 36.7501C20.1884 36.7467 19.3978 36.4927 18.7362 36.0229C18.0746 35.553 17.5744 34.8902 17.3039 34.1251H24.6959C24.4254 34.8902 23.9252 35.553 23.2636 36.0229C22.602 36.4927 21.8114 36.7467 20.9999 36.7501Z" fill="#CFDFD9"/>
</svg>
