<svg width="66" height="43" viewBox="0 0 66 43" fill="none" xmlns="http://www.w3.org/2000/svg">
<path d="M21.167 7.75685L15.2443 38.2078L14.4688 42.1942L54.0081 41.9999C55.7819 41.9916 57.3547 40.4154 57.9258 38.0755L64.9373 9.3263C65.3711 7.54915 64.4197 5.70166 63.073 5.70166L23.0546 5.74353C22.1719 5.74353 21.3998 6.56762 21.167 7.75685Z" fill="#CFDFD9"/>
<g opacity="0.5">
<path d="M21.167 7.75685L15.2443 38.2078L14.4688 42.1942L54.0081 41.9999C55.7819 41.9916 57.3547 40.4154 57.9258 38.0755L64.9373 9.3263C65.3711 7.54915 64.4197 5.70166 63.073 5.70166L23.0546 5.74353C22.1719 5.74353 21.3998 6.56762 21.167 7.75685Z" fill="#F3FBF8"/>
</g>
<path d="M49.2232 36.2567L49.224 36.2646C49.2256 36.2802 49.228 36.302 49.2312 36.3294C49.2377 36.384 49.2476 36.4599 49.2621 36.5537C49.2911 36.7408 49.339 37.001 49.4158 37.3069C49.5679 37.9121 49.8418 38.7288 50.3328 39.5162C50.723 40.142 51.2618 40.7664 51.9979 41.2408C51.6902 41.2492 51.357 41.2504 50.9963 41.243L50.985 41.2427L50.9737 41.2428L6.47816 41.3299H6.47754C5.73896 41.3318 5.01995 40.7334 4.90303 39.7992C4.90302 39.7991 4.90301 39.799 4.90299 39.7989L1.01548 8.62007C0.873494 7.47726 1.69603 6.60593 2.57934 6.6011C2.57938 6.6011 2.57942 6.6011 2.57946 6.6011L28.1109 6.46711L28.54 6.46486L28.834 6.1523L33.1921 1.51952C33.1922 1.51946 33.1922 1.5194 33.1923 1.51934C33.4948 1.19806 33.8874 1.03113 34.2804 1.03017L34.2812 1.03016L43.4617 1.00001L43.4623 1.00001C44.2024 0.99715 44.9232 1.59709 45.0387 2.53133L45.0388 2.53176L49.2232 36.2567Z" fill="#CFDFD9" stroke="white" stroke-width="2"/>
<path d="M31.0307 29.3924L29.5299 31.0037L17.9727 20.6072L19.4734 18.9958L31.0307 29.3924Z" fill="white"/>
<path d="M28.8982 18.6375L30.5581 20.1299L20.0996 31.3622L18.4414 29.8698L28.8982 18.6375Z" fill="white"/>
</svg>
