<svg width="42" height="42" viewBox="0 0 42 42" fill="none" xmlns="http://www.w3.org/2000/svg">
<g clip-path="url(#clip0_2324_1864)">
<path d="M0.820316 11.1562L0.820314 39.5391C0.820314 40.4455 1.55449 41.1797 2.46094 41.1797L39.5391 41.1797C40.4455 41.1797 41.1797 40.4455 41.1797 39.5391L41.1797 11.1562L0.820316 11.1562Z" fill="white"/>
<path d="M2.46094 4.10156C1.55449 4.10156 0.820315 4.83574 0.820315 5.74218L0.820314 11.1562L41.1797 11.1562L41.1797 5.74219C41.1797 4.83574 40.4455 4.10156 39.5391 4.10156L2.46094 4.10156Z" fill="#F3FBF8"/>
<path d="M12.7969 27.5625C12.7969 32.0931 16.4694 35.7656 21 35.7656C25.5306 35.7656 29.2031 32.0931 29.2031 27.5625C29.2031 23.0319 25.5306 19.3594 21 19.3594C16.4694 19.3594 12.7969 23.0319 12.7969 27.5625Z" fill="#CFDFD9"/>
<path d="M32.4844 13.6172C32.9372 13.6172 33.3047 13.9847 33.3047 14.4375C33.3047 14.8903 32.9372 15.2578 32.4844 15.2578C32.0316 15.2578 31.6641 14.8903 31.6641 14.4375C31.6641 13.9847 32.0316 13.6172 32.4844 13.6172Z" fill="#D5D5D5"/>
<path d="M39.5391 42L2.46094 42C1.10414 42 2.39468e-07 40.8959 3.58083e-07 39.5391L3.3127e-06 5.74218C3.43131e-06 4.38539 1.10414 3.28125 2.46094 3.28125L3.77344 3.28125L3.77344 2.46093C3.77344 1.10414 4.87758 -3.24534e-06 6.23438 -3.12673e-06C7.59118 -3.00812e-06 8.69532 1.10414 8.69532 2.46093L8.69532 3.28125L13.6172 3.28125L13.6172 2.46093C13.6172 1.10414 14.7213 -2.38478e-06 16.0781 -2.26616e-06C17.4349 -2.14755e-06 18.5391 1.10414 18.5391 2.46094L18.5391 3.28125L23.4609 3.28125L23.4609 2.46094C23.4609 1.10414 24.5651 -1.52421e-06 25.9219 -1.40559e-06C27.2787 -1.28698e-06 28.3828 1.10414 28.3828 2.46094L28.3828 3.28125L33.3047 3.28125L33.3047 2.46094C33.3047 1.10414 34.4088 -6.63641e-07 35.7656 -5.45026e-07C37.1224 -4.26411e-07 38.2266 1.10414 38.2266 2.46094L38.2266 3.28125L39.5391 3.28125C40.8959 3.28125 42 4.38539 42 5.74219L42 39.5391C42 40.8959 40.8959 42 39.5391 42ZM2.46094 40.3594L39.5391 40.3594C39.9919 40.3594 40.3594 39.9919 40.3594 39.5391L40.3594 11.9766L1.64063 11.9766L1.64063 39.5391C1.64063 39.9919 2.00813 40.3594 2.46094 40.3594ZM7.05469 2.46093C7.05469 2.00812 6.68719 1.64062 6.23438 1.64062C5.78157 1.64062 5.41407 2.00812 5.41407 2.46093L5.41407 3.28125L7.05469 3.28125L7.05469 2.46093ZM16.8984 2.46094C16.8984 2.00812 16.5309 1.64062 16.0781 1.64062C15.6253 1.64062 15.2578 2.00812 15.2578 2.46093L15.2578 3.28125L16.8984 3.28125L16.8984 2.46094ZM26.7422 2.46094C26.7422 2.00812 26.3747 1.64062 25.9219 1.64062C25.4691 1.64062 25.1016 2.00812 25.1016 2.46094L25.1016 3.28125L26.7422 3.28125L26.7422 2.46094ZM36.5859 2.46094C36.5859 2.00812 36.2184 1.64062 35.7656 1.64062C35.3128 1.64062 34.9453 2.00812 34.9453 2.46094L34.9453 3.28125L36.5859 3.28125L36.5859 2.46094ZM39.5391 4.92187L38.2266 4.92187L38.2266 5.98828C38.2266 7.34508 37.1224 8.44922 35.7656 8.44922C35.3128 8.44922 34.9453 8.08172 34.9453 7.6289C34.9453 7.17609 35.3128 6.80859 35.7656 6.80859C36.2184 6.80859 36.5859 6.44109 36.5859 5.98828L36.5859 4.92187L28.3828 4.92187L28.3828 5.98828C28.3828 7.34508 27.2787 8.44922 25.9219 8.44922C25.4691 8.44922 25.1016 8.08172 25.1016 7.6289C25.1016 7.17609 25.4691 6.80859 25.9219 6.80859C26.3747 6.80859 26.7422 6.44109 26.7422 5.98828L26.7422 4.92187L18.5391 4.92187L18.5391 5.98828C18.5391 7.34508 17.4349 8.44922 16.0781 8.44922C15.6253 8.44922 15.2578 8.08172 15.2578 7.6289C15.2578 7.17609 15.6253 6.80859 16.0781 6.80859C16.5309 6.80859 16.8984 6.44109 16.8984 5.98828L16.8984 4.92187L8.69532 4.92187L8.69532 5.98828C8.69531 7.34507 7.59117 8.44921 6.23438 8.44921C5.78157 8.44921 5.41407 8.08171 5.41407 7.6289C5.41407 7.17609 5.78157 6.80859 6.23438 6.80859C6.68719 6.80859 7.05469 6.44109 7.05469 5.98828L7.05469 4.92187L2.46094 4.92187C2.00813 4.92187 1.64063 5.28937 1.64063 5.74218L1.64063 10.3359L40.3594 10.3359L40.3594 5.74219C40.3594 5.28937 39.9919 4.92187 39.5391 4.92187Z" fill="#D5D5D5"/>
<path d="M9.51563 13.6172L29.2031 13.6172C29.6559 13.6172 30.0234 13.9847 30.0234 14.4375C30.0234 14.8903 29.6559 15.2578 29.2031 15.2578L9.51563 15.2578C9.06281 15.2578 8.69531 14.8903 8.69531 14.4375C8.69531 13.9847 9.06281 13.6172 9.51563 13.6172Z" fill="#D5D5D5"/>
<path d="M21 18.5391C25.9752 18.5391 30.0234 22.5873 30.0234 27.5625C30.0234 32.5377 25.9752 36.5859 21 36.5859C16.0248 36.5859 11.9766 32.5377 11.9766 27.5625C11.9766 22.5873 16.0248 18.5391 21 18.5391ZM21 34.9453C25.0704 34.9453 28.3828 31.6329 28.3828 27.5625C28.3828 23.4921 25.0704 20.1797 21 20.1797C16.9296 20.1797 13.6172 23.4921 13.6172 27.5625C13.6172 31.6329 16.9296 34.9453 21 34.9453Z" fill="#D5D5D5"/>
<path d="M18.1005 24.6627C18.4212 24.3419 18.9396 24.3419 19.2604 24.6627L21.0003 26.4026L22.7401 24.6627C23.0601 24.3419 23.5793 24.3419 23.9001 24.6627C24.2208 24.9834 24.2208 25.5027 23.9001 25.8226L22.1602 27.5625L23.9001 29.3024C24.2208 29.6231 24.2208 30.1424 23.9001 30.4623C23.5793 30.7822 23.0609 30.783 22.7401 30.4623L21.0003 28.7224L19.2604 30.4623C18.9405 30.783 18.4212 30.783 18.1005 30.4623C17.7797 30.1415 17.7797 29.6223 18.1005 29.3024L19.8403 27.5625L18.1005 25.8226C17.7797 25.5027 17.7797 24.9826 18.1005 24.6627Z" fill="white"/>
</g>
<defs>
<clipPath id="clip0_2324_1864">
<rect width="42" height="42" fill="white" transform="matrix(-1 -8.74228e-08 -8.74228e-08 1 42 0)"/>
</clipPath>
</defs>
</svg>
