<svg width="62" height="56" viewBox="0 0 62 56" fill="none" xmlns="http://www.w3.org/2000/svg">
<circle cx="30.56" cy="25.2346" r="25.2346" fill="#A87E33"/>
<mask id="path-2-outside-1_0_1053" maskUnits="userSpaceOnUse" x="14" y="12" width="34" height="31" fill="black">
<rect fill="white" x="14" y="12" width="34" height="31"/>
<path d="M17.8658 42C16.0686 42 15 40.9558 15 39.2092C15 31.4062 15 23.5938 15 15.7908C15 14.0442 16.0686 13 17.8658 13H44.1536C45.912 13 47 14.0632 47 15.7718C47 23.5938 47 31.4062 47 39.2281C47 40.9368 45.912 42 44.1536 42H38.7426H17.8658ZM15.5829 30.8462C15.5829 31.634 15.5829 32.4219 15.5829 33.2003C15.5829 35.2887 15.5829 37.453 15.5926 39.5794C15.6023 40.4052 16.2338 41.1646 17.0692 41.345C17.3898 41.4115 17.7007 41.4304 18.031 41.4399C18.1767 41.4494 18.3321 41.4494 18.4778 41.4589L18.8276 41.4874L18.7887 41.1457C18.575 39.2661 19.391 37.9561 21.2951 37.1588L21.5865 37.0354L21.4311 36.7601C20.5762 35.2318 20.6733 34.1591 21.7225 33.3712C22.1305 33.0674 22.6163 32.9061 23.1214 32.9061C23.7043 32.9061 24.258 33.1149 24.6855 33.5041C25.4432 34.1781 25.8027 35.4786 24.8215 36.7221L24.5883 37.0164L24.9381 37.1588C26.8519 37.9656 27.6873 39.2471 27.4833 41.0982L27.4444 41.4115H30.6697V30.5614H15.5829V30.8462ZM38.8591 32.8966C39.3643 32.8966 39.85 33.0579 40.2483 33.3522C40.6952 33.6845 40.9866 34.1211 41.1032 34.6527C41.2684 35.3741 41.0838 36.0481 40.5398 36.7126L40.2969 37.0069L40.6466 37.1493C42.5701 37.9466 43.4056 39.2471 43.2016 41.1172L43.1627 41.4304H44.173C45.5719 41.4304 46.4074 40.6141 46.4074 39.2566C46.4074 37.3581 46.4074 35.4596 46.4074 33.561V30.5614H31.3109V41.402H34.5361L34.4973 41.0887C34.2933 39.2471 35.119 37.9561 37.0328 37.1493L37.3534 37.0164L37.1591 36.7316C36.3236 35.507 36.3625 34.33 37.2757 33.5041C37.7128 33.1149 38.2665 32.8966 38.8591 32.8966ZM38.8591 37.4245C37.8002 37.4245 36.7705 37.7663 36.0516 38.3643C35.2356 39.0383 34.9247 39.9591 35.0996 41.1836L35.1384 41.4304H42.5604L42.5993 41.1836C42.7838 39.9116 42.4341 38.9529 41.5307 38.2694C40.8118 37.7283 39.8695 37.4245 38.8591 37.4245ZM23.1311 37.4151C22.5288 37.4151 21.9265 37.5385 21.3437 37.7758C19.8282 38.3928 19.1384 39.5984 19.4007 41.1836L19.4396 41.4209H26.8616L26.8907 41.1646C27.0947 39.418 26.3564 38.2504 24.7049 37.6809C24.19 37.5005 23.6557 37.4151 23.1311 37.4151ZM38.83 33.4851C37.8974 33.4946 37.1299 34.2445 37.1202 35.1463C37.1105 35.583 37.2854 36.0007 37.6059 36.3234C37.9362 36.6462 38.3734 36.836 38.8397 36.836C39.3157 36.836 39.7529 36.6556 40.0832 36.3329C40.4038 36.0196 40.5786 35.602 40.5786 35.1653C40.5689 34.2635 39.782 33.4946 38.8494 33.4946L38.83 33.4851ZM23.1409 33.4851C22.2083 33.4851 21.4214 34.2445 21.4117 35.1558C21.4117 35.5925 21.5865 36.0101 21.9071 36.3234C22.2374 36.6462 22.6746 36.8265 23.1506 36.8265C23.6169 36.8265 24.054 36.6462 24.3843 36.3234C24.7049 36.0007 24.8798 35.5925 24.8798 35.1463C24.8701 34.2445 24.1026 33.4946 23.17 33.4851H23.1409ZM38.8397 25.9195C38.0625 25.9195 37.2951 26.1283 36.5568 26.546C35.3522 27.22 34.8179 28.4065 35.1287 29.726L35.1773 29.9444H42.5507L42.5896 29.707C42.8324 28.2072 42.2593 27.0776 40.9284 26.4321C40.2386 26.0903 39.5392 25.9195 38.8397 25.9195ZM23.1409 21.42C23.6946 21.42 24.2386 21.6193 24.6661 21.98C25.6181 22.7869 25.6764 24.0115 24.8312 25.2645L24.6369 25.5493L24.9575 25.6822C26.8713 26.4795 27.7067 27.7705 27.493 29.6311L27.4542 29.9444H30.6794V19.0753H15.6023V29.9444H18.8373L18.7984 29.6311C18.5944 27.78 19.4202 26.489 21.3339 25.6917L21.6545 25.5588L21.4602 25.274C20.6053 24.002 20.6636 22.8059 21.6254 21.9895C22.0431 21.6193 22.5871 21.42 23.1409 21.42ZM31.3109 29.9444H34.5264L34.507 29.6406C34.4293 28.5584 34.575 27.8275 35.0121 27.2105C35.4784 26.546 36.139 26.0524 37.0328 25.6917L37.3534 25.5682L37.1688 25.2835C36.3139 23.9545 36.3819 22.7774 37.3534 21.9705C37.7808 21.6193 38.3151 21.4295 38.8591 21.4295C39.4226 21.4295 39.9763 21.6383 40.4038 22.0085C41.3364 22.8249 41.3947 24.0399 40.5495 25.2645L40.3552 25.5493L40.6758 25.6822C42.5896 26.4795 43.425 27.7705 43.2113 29.6216L43.1724 29.9349H46.3977V19.0753H31.3109V29.9444ZM23.17 25.9385C22.7231 25.9385 22.2665 26.0049 21.81 26.1378C20.003 26.6694 19.2064 27.8275 19.391 29.6786L19.4202 29.9349H26.881L26.9101 29.6881C27.1336 27.9604 26.4147 26.8213 24.7146 26.2043C24.2095 26.0239 23.6946 25.9385 23.17 25.9385ZM23.1603 22.018C22.218 22.018 21.4505 22.73 21.4214 23.6412C21.4019 24.0684 21.5768 24.4956 21.8877 24.8183C22.2083 25.1506 22.6551 25.3499 23.1117 25.3594H23.1506C24.0735 25.3594 24.8604 24.6 24.8798 23.7077C24.8992 22.8154 24.1318 22.037 23.1992 22.018H23.1603ZM38.83 22.018C37.8974 22.0275 37.1299 22.7679 37.1202 23.6792C37.1202 24.1159 37.2951 24.5336 37.6254 24.8563C37.9557 25.1791 38.4025 25.3594 38.8494 25.3594C39.306 25.3594 39.7529 25.1696 40.0832 24.8468C40.4135 24.5241 40.5883 24.1064 40.5786 23.6697C40.5689 22.7584 39.7917 22.018 38.8397 22.018H38.83ZM17.7298 13.5696C17.6715 13.5696 17.6132 13.5696 17.5647 13.5696C16.4669 13.6075 15.6023 14.4619 15.5829 15.5155C15.5732 16.1136 15.5732 16.7211 15.5829 17.3097C15.5829 17.5185 15.5829 17.7273 15.5829 17.9362C15.5829 18.0121 15.5926 18.0786 15.6023 18.1355C15.6023 18.164 15.612 18.183 15.612 18.2115L15.6412 18.4678H46.4171V15.8383C46.4171 14.348 45.6205 13.5696 44.105 13.5696H17.7298Z"/>
</mask>
<path d="M17.8658 42C16.0686 42 15 40.9558 15 39.2092C15 31.4062 15 23.5938 15 15.7908C15 14.0442 16.0686 13 17.8658 13H44.1536C45.912 13 47 14.0632 47 15.7718C47 23.5938 47 31.4062 47 39.2281C47 40.9368 45.912 42 44.1536 42H38.7426H17.8658ZM15.5829 30.8462C15.5829 31.634 15.5829 32.4219 15.5829 33.2003C15.5829 35.2887 15.5829 37.453 15.5926 39.5794C15.6023 40.4052 16.2338 41.1646 17.0692 41.345C17.3898 41.4115 17.7007 41.4304 18.031 41.4399C18.1767 41.4494 18.3321 41.4494 18.4778 41.4589L18.8276 41.4874L18.7887 41.1457C18.575 39.2661 19.391 37.9561 21.2951 37.1588L21.5865 37.0354L21.4311 36.7601C20.5762 35.2318 20.6733 34.1591 21.7225 33.3712C22.1305 33.0674 22.6163 32.9061 23.1214 32.9061C23.7043 32.9061 24.258 33.1149 24.6855 33.5041C25.4432 34.1781 25.8027 35.4786 24.8215 36.7221L24.5883 37.0164L24.9381 37.1588C26.8519 37.9656 27.6873 39.2471 27.4833 41.0982L27.4444 41.4115H30.6697V30.5614H15.5829V30.8462ZM38.8591 32.8966C39.3643 32.8966 39.85 33.0579 40.2483 33.3522C40.6952 33.6845 40.9866 34.1211 41.1032 34.6527C41.2684 35.3741 41.0838 36.0481 40.5398 36.7126L40.2969 37.0069L40.6466 37.1493C42.5701 37.9466 43.4056 39.2471 43.2016 41.1172L43.1627 41.4304H44.173C45.5719 41.4304 46.4074 40.6141 46.4074 39.2566C46.4074 37.3581 46.4074 35.4596 46.4074 33.561V30.5614H31.3109V41.402H34.5361L34.4973 41.0887C34.2933 39.2471 35.119 37.9561 37.0328 37.1493L37.3534 37.0164L37.1591 36.7316C36.3236 35.507 36.3625 34.33 37.2757 33.5041C37.7128 33.1149 38.2665 32.8966 38.8591 32.8966ZM38.8591 37.4245C37.8002 37.4245 36.7705 37.7663 36.0516 38.3643C35.2356 39.0383 34.9247 39.9591 35.0996 41.1836L35.1384 41.4304H42.5604L42.5993 41.1836C42.7838 39.9116 42.4341 38.9529 41.5307 38.2694C40.8118 37.7283 39.8695 37.4245 38.8591 37.4245ZM23.1311 37.4151C22.5288 37.4151 21.9265 37.5385 21.3437 37.7758C19.8282 38.3928 19.1384 39.5984 19.4007 41.1836L19.4396 41.4209H26.8616L26.8907 41.1646C27.0947 39.418 26.3564 38.2504 24.7049 37.6809C24.19 37.5005 23.6557 37.4151 23.1311 37.4151ZM38.83 33.4851C37.8974 33.4946 37.1299 34.2445 37.1202 35.1463C37.1105 35.583 37.2854 36.0007 37.6059 36.3234C37.9362 36.6462 38.3734 36.836 38.8397 36.836C39.3157 36.836 39.7529 36.6556 40.0832 36.3329C40.4038 36.0196 40.5786 35.602 40.5786 35.1653C40.5689 34.2635 39.782 33.4946 38.8494 33.4946L38.83 33.4851ZM23.1409 33.4851C22.2083 33.4851 21.4214 34.2445 21.4117 35.1558C21.4117 35.5925 21.5865 36.0101 21.9071 36.3234C22.2374 36.6462 22.6746 36.8265 23.1506 36.8265C23.6169 36.8265 24.054 36.6462 24.3843 36.3234C24.7049 36.0007 24.8798 35.5925 24.8798 35.1463C24.8701 34.2445 24.1026 33.4946 23.17 33.4851H23.1409ZM38.8397 25.9195C38.0625 25.9195 37.2951 26.1283 36.5568 26.546C35.3522 27.22 34.8179 28.4065 35.1287 29.726L35.1773 29.9444H42.5507L42.5896 29.707C42.8324 28.2072 42.2593 27.0776 40.9284 26.4321C40.2386 26.0903 39.5392 25.9195 38.8397 25.9195ZM23.1409 21.42C23.6946 21.42 24.2386 21.6193 24.6661 21.98C25.6181 22.7869 25.6764 24.0115 24.8312 25.2645L24.6369 25.5493L24.9575 25.6822C26.8713 26.4795 27.7067 27.7705 27.493 29.6311L27.4542 29.9444H30.6794V19.0753H15.6023V29.9444H18.8373L18.7984 29.6311C18.5944 27.78 19.4202 26.489 21.3339 25.6917L21.6545 25.5588L21.4602 25.274C20.6053 24.002 20.6636 22.8059 21.6254 21.9895C22.0431 21.6193 22.5871 21.42 23.1409 21.42ZM31.3109 29.9444H34.5264L34.507 29.6406C34.4293 28.5584 34.575 27.8275 35.0121 27.2105C35.4784 26.546 36.139 26.0524 37.0328 25.6917L37.3534 25.5682L37.1688 25.2835C36.3139 23.9545 36.3819 22.7774 37.3534 21.9705C37.7808 21.6193 38.3151 21.4295 38.8591 21.4295C39.4226 21.4295 39.9763 21.6383 40.4038 22.0085C41.3364 22.8249 41.3947 24.0399 40.5495 25.2645L40.3552 25.5493L40.6758 25.6822C42.5896 26.4795 43.425 27.7705 43.2113 29.6216L43.1724 29.9349H46.3977V19.0753H31.3109V29.9444ZM23.17 25.9385C22.7231 25.9385 22.2665 26.0049 21.81 26.1378C20.003 26.6694 19.2064 27.8275 19.391 29.6786L19.4202 29.9349H26.881L26.9101 29.6881C27.1336 27.9604 26.4147 26.8213 24.7146 26.2043C24.2095 26.0239 23.6946 25.9385 23.17 25.9385ZM23.1603 22.018C22.218 22.018 21.4505 22.73 21.4214 23.6412C21.4019 24.0684 21.5768 24.4956 21.8877 24.8183C22.2083 25.1506 22.6551 25.3499 23.1117 25.3594H23.1506C24.0735 25.3594 24.8604 24.6 24.8798 23.7077C24.8992 22.8154 24.1318 22.037 23.1992 22.018H23.1603ZM38.83 22.018C37.8974 22.0275 37.1299 22.7679 37.1202 23.6792C37.1202 24.1159 37.2951 24.5336 37.6254 24.8563C37.9557 25.1791 38.4025 25.3594 38.8494 25.3594C39.306 25.3594 39.7529 25.1696 40.0832 24.8468C40.4135 24.5241 40.5883 24.1064 40.5786 23.6697C40.5689 22.7584 39.7917 22.018 38.8397 22.018H38.83ZM17.7298 13.5696C17.6715 13.5696 17.6132 13.5696 17.5647 13.5696C16.4669 13.6075 15.6023 14.4619 15.5829 15.5155C15.5732 16.1136 15.5732 16.7211 15.5829 17.3097C15.5829 17.5185 15.5829 17.7273 15.5829 17.9362C15.5829 18.0121 15.5926 18.0786 15.6023 18.1355C15.6023 18.164 15.612 18.183 15.612 18.2115L15.6412 18.4678H46.4171V15.8383C46.4171 14.348 45.6205 13.5696 44.105 13.5696H17.7298Z" fill="white"/>
<path d="M17.8658 42C16.0686 42 15 40.9558 15 39.2092C15 31.4062 15 23.5938 15 15.7908C15 14.0442 16.0686 13 17.8658 13H44.1536C45.912 13 47 14.0632 47 15.7718C47 23.5938 47 31.4062 47 39.2281C47 40.9368 45.912 42 44.1536 42H38.7426H17.8658ZM15.5829 30.8462C15.5829 31.634 15.5829 32.4219 15.5829 33.2003C15.5829 35.2887 15.5829 37.453 15.5926 39.5794C15.6023 40.4052 16.2338 41.1646 17.0692 41.345C17.3898 41.4115 17.7007 41.4304 18.031 41.4399C18.1767 41.4494 18.3321 41.4494 18.4778 41.4589L18.8276 41.4874L18.7887 41.1457C18.575 39.2661 19.391 37.9561 21.2951 37.1588L21.5865 37.0354L21.4311 36.7601C20.5762 35.2318 20.6733 34.1591 21.7225 33.3712C22.1305 33.0674 22.6163 32.9061 23.1214 32.9061C23.7043 32.9061 24.258 33.1149 24.6855 33.5041C25.4432 34.1781 25.8027 35.4786 24.8215 36.7221L24.5883 37.0164L24.9381 37.1588C26.8519 37.9656 27.6873 39.2471 27.4833 41.0982L27.4444 41.4115H30.6697V30.5614H15.5829V30.8462ZM38.8591 32.8966C39.3643 32.8966 39.85 33.0579 40.2483 33.3522C40.6952 33.6845 40.9866 34.1211 41.1032 34.6527C41.2684 35.3741 41.0838 36.0481 40.5398 36.7126L40.2969 37.0069L40.6466 37.1493C42.5701 37.9466 43.4056 39.2471 43.2016 41.1172L43.1627 41.4304H44.173C45.5719 41.4304 46.4074 40.6141 46.4074 39.2566C46.4074 37.3581 46.4074 35.4596 46.4074 33.561V30.5614H31.3109V41.402H34.5361L34.4973 41.0887C34.2933 39.2471 35.119 37.9561 37.0328 37.1493L37.3534 37.0164L37.1591 36.7316C36.3236 35.507 36.3625 34.33 37.2757 33.5041C37.7128 33.1149 38.2665 32.8966 38.8591 32.8966ZM38.8591 37.4245C37.8002 37.4245 36.7705 37.7663 36.0516 38.3643C35.2356 39.0383 34.9247 39.9591 35.0996 41.1836L35.1384 41.4304H42.5604L42.5993 41.1836C42.7838 39.9116 42.4341 38.9529 41.5307 38.2694C40.8118 37.7283 39.8695 37.4245 38.8591 37.4245ZM23.1311 37.4151C22.5288 37.4151 21.9265 37.5385 21.3437 37.7758C19.8282 38.3928 19.1384 39.5984 19.4007 41.1836L19.4396 41.4209H26.8616L26.8907 41.1646C27.0947 39.418 26.3564 38.2504 24.7049 37.6809C24.19 37.5005 23.6557 37.4151 23.1311 37.4151ZM38.83 33.4851C37.8974 33.4946 37.1299 34.2445 37.1202 35.1463C37.1105 35.583 37.2854 36.0007 37.6059 36.3234C37.9362 36.6462 38.3734 36.836 38.8397 36.836C39.3157 36.836 39.7529 36.6556 40.0832 36.3329C40.4038 36.0196 40.5786 35.602 40.5786 35.1653C40.5689 34.2635 39.782 33.4946 38.8494 33.4946L38.83 33.4851ZM23.1409 33.4851C22.2083 33.4851 21.4214 34.2445 21.4117 35.1558C21.4117 35.5925 21.5865 36.0101 21.9071 36.3234C22.2374 36.6462 22.6746 36.8265 23.1506 36.8265C23.6169 36.8265 24.054 36.6462 24.3843 36.3234C24.7049 36.0007 24.8798 35.5925 24.8798 35.1463C24.8701 34.2445 24.1026 33.4946 23.17 33.4851H23.1409ZM38.8397 25.9195C38.0625 25.9195 37.2951 26.1283 36.5568 26.546C35.3522 27.22 34.8179 28.4065 35.1287 29.726L35.1773 29.9444H42.5507L42.5896 29.707C42.8324 28.2072 42.2593 27.0776 40.9284 26.4321C40.2386 26.0903 39.5392 25.9195 38.8397 25.9195ZM23.1409 21.42C23.6946 21.42 24.2386 21.6193 24.6661 21.98C25.6181 22.7869 25.6764 24.0115 24.8312 25.2645L24.6369 25.5493L24.9575 25.6822C26.8713 26.4795 27.7067 27.7705 27.493 29.6311L27.4542 29.9444H30.6794V19.0753H15.6023V29.9444H18.8373L18.7984 29.6311C18.5944 27.78 19.4202 26.489 21.3339 25.6917L21.6545 25.5588L21.4602 25.274C20.6053 24.002 20.6636 22.8059 21.6254 21.9895C22.0431 21.6193 22.5871 21.42 23.1409 21.42ZM31.3109 29.9444H34.5264L34.507 29.6406C34.4293 28.5584 34.575 27.8275 35.0121 27.2105C35.4784 26.546 36.139 26.0524 37.0328 25.6917L37.3534 25.5682L37.1688 25.2835C36.3139 23.9545 36.3819 22.7774 37.3534 21.9705C37.7808 21.6193 38.3151 21.4295 38.8591 21.4295C39.4226 21.4295 39.9763 21.6383 40.4038 22.0085C41.3364 22.8249 41.3947 24.0399 40.5495 25.2645L40.3552 25.5493L40.6758 25.6822C42.5896 26.4795 43.425 27.7705 43.2113 29.6216L43.1724 29.9349H46.3977V19.0753H31.3109V29.9444ZM23.17 25.9385C22.7231 25.9385 22.2665 26.0049 21.81 26.1378C20.003 26.6694 19.2064 27.8275 19.391 29.6786L19.4202 29.9349H26.881L26.9101 29.6881C27.1336 27.9604 26.4147 26.8213 24.7146 26.2043C24.2095 26.0239 23.6946 25.9385 23.17 25.9385ZM23.1603 22.018C22.218 22.018 21.4505 22.73 21.4214 23.6412C21.4019 24.0684 21.5768 24.4956 21.8877 24.8183C22.2083 25.1506 22.6551 25.3499 23.1117 25.3594H23.1506C24.0735 25.3594 24.8604 24.6 24.8798 23.7077C24.8992 22.8154 24.1318 22.037 23.1992 22.018H23.1603ZM38.83 22.018C37.8974 22.0275 37.1299 22.7679 37.1202 23.6792C37.1202 24.1159 37.2951 24.5336 37.6254 24.8563C37.9557 25.1791 38.4025 25.3594 38.8494 25.3594C39.306 25.3594 39.7529 25.1696 40.0832 24.8468C40.4135 24.5241 40.5883 24.1064 40.5786 23.6697C40.5689 22.7584 39.7917 22.018 38.8397 22.018H38.83ZM17.7298 13.5696C17.6715 13.5696 17.6132 13.5696 17.5647 13.5696C16.4669 13.6075 15.6023 14.4619 15.5829 15.5155C15.5732 16.1136 15.5732 16.7211 15.5829 17.3097C15.5829 17.5185 15.5829 17.7273 15.5829 17.9362C15.5829 18.0121 15.5926 18.0786 15.6023 18.1355C15.6023 18.164 15.612 18.183 15.612 18.2115L15.6412 18.4678H46.4171V15.8383C46.4171 14.348 45.6205 13.5696 44.105 13.5696H17.7298Z" stroke="white" stroke-width="0.6" mask="url(#path-2-outside-1_0_1053)"/>
<path d="M19.4882 15.6029V15.6028L19.4687 16.313L19.4668 16.463C19.4671 16.463 19.4674 16.463 19.4677 16.463C20.2164 16.4725 20.9552 16.4725 21.6929 16.4725H21.6934C22.0631 16.4725 22.4327 16.4701 22.7994 16.4677L22.8065 16.4677C23.1709 16.4653 23.5323 16.463 23.8889 16.463C24.0472 16.463 24.2081 16.4196 24.3143 16.3159C24.3984 16.2337 24.4275 16.1341 24.4275 16.0282C24.4275 15.8944 24.3737 15.7764 24.2599 15.6989C24.1559 15.6282 24.0185 15.6029 23.8695 15.6029H23.8678H23.866H23.8643H23.8626H23.8609H23.8592H23.8575H23.8558H23.8541H23.8524H23.8507H23.849H23.8473H23.8456H23.8438H23.8421H23.8404H23.8387H23.837H23.8353H23.8336H23.8319H23.8302H23.8285H23.8268H23.8251H23.8234H23.8216H23.8199H23.8182H23.8165H23.8148H23.8131H23.8114H23.8097H23.808H23.8063H23.8046H23.8029H23.8012H23.7994H23.7977H23.796H23.7943H23.7926H23.7909H23.7892H23.7875H23.7858H23.7841H23.7824H23.7807H23.7789H23.7772H23.7755H23.7738H23.7721H23.7704H23.7687H23.767H23.7653H23.7636H23.7619H23.7602H23.7584H23.7567H23.755H23.7533H23.7516H23.7499H23.7482H23.7465H23.7448H23.7431H23.7414H23.7396H23.7379H23.7362H23.7345H23.7328H23.7311H23.7294H23.7277H23.726H23.7243H23.7226H23.7208H23.7191H23.7174H23.7157H23.714H23.7123H23.7106H23.7089H23.7072H23.7055H23.7038H23.702H23.7003H23.6986H23.6969H23.6952H23.6935H23.6918H23.6901H23.6884H23.6867H23.6849H23.6832H23.6815H23.6798H23.6781H23.6764H23.6747H23.673H23.6713H23.6695H23.6678H23.6661H23.6644H23.6627H23.661H23.6593H23.6576H23.6559H23.6542H23.6524H23.6507H23.649H23.6473H23.6456H23.6439H23.6422H23.6405H23.6388H23.637H23.6353H23.6336H23.6319H23.6302H23.6285H23.6268H23.6251H23.6233H23.6216H23.6199H23.6182H23.6165H23.6148H23.6131H23.6114H23.6096H23.6079H23.6062H23.6045H23.6028H23.6011H23.5994H23.5977H23.5959H23.5942H23.5925H23.5908H23.5891H23.5874H23.5857H23.5839H23.5822H23.5805H23.5788H23.5771H23.5754H23.5737H23.5719H23.5702H23.5685H23.5668H23.5651H23.5634H23.5617H23.5599H23.5582H23.5565H23.5548H23.5531H23.5514H23.5497H23.5479H23.5462H23.5445H23.5428H23.5411H23.5394H23.5376H23.5359H23.5342H23.5325H23.5308H23.5291H23.5274H23.5256H23.5239H23.5222H23.5205H23.5188H23.5171H23.5153H23.5136H23.5119H23.5102H23.5085H23.5067H23.505H23.5033H23.5016H23.4999H23.4982H23.4964H23.4947H23.493H23.4913H23.4896H23.4879H23.4861H23.4844H23.4827H23.481H23.4793H23.4775H23.4758H23.4741H23.4724H23.4707H23.4689H23.4672H23.4655H23.4638H23.4621H23.4603H23.4586H23.4569H23.4552H23.4535H23.4517H23.45H23.4483H23.4466H23.4449H23.4431H23.4414H23.4397H23.438H23.4363H23.4345H23.4328H23.4311H23.4294H23.4276H23.4259H23.4242H23.4225H23.4208H23.419H23.4173H23.4156H23.4139H23.4121H23.4104H23.4087H23.407H23.4052H23.4035H23.4018H23.4001H23.3984H23.3966H23.3949H23.3932H23.3915H23.3897H23.388H23.3863H23.3846H23.3828H23.3811H23.3794H23.3777H23.3759H23.3742H23.3725H23.3708H23.369H23.3673H23.3656H23.3638H23.3621H23.3604H23.3587H23.3569H23.3552H23.3535H23.3518H23.35H23.3483H23.3466H23.3448H23.3431H23.3414H23.3397H23.3379H23.3362H23.3345H23.3327H23.331H23.3293H23.3276H23.3258H23.3241H23.3224H23.3206H23.3189H23.3172H23.3155H23.3137H23.312H23.3103H23.3085H23.3068H23.3051H23.3033H23.3016H23.2999H23.2981H23.2964H23.2947H23.2929H23.2912H23.2895H23.2877H23.286H23.2843H23.2825H23.2808H23.2791H23.2773H23.2756H23.2739H23.2721H23.2704H23.2687H23.2669H23.2652H23.2635H23.2617H23.26H23.2583H23.2565H23.2548H23.2531H23.2513H23.2496H23.2479H23.2461H23.2444H23.2426H23.2409H23.2392H23.2374H23.2357H23.234H23.2322H23.2305H23.2288H23.227H23.2253H23.2235H23.2218H23.2201H23.2183H23.2166H23.2148H23.2131H23.2114H23.2096H23.2079H23.2061H23.2044H23.2027H23.2009H23.1992H23.1974H23.1957H23.194H23.1922H23.1905H23.1887H23.187H23.1853H23.1835H23.1818H23.18H23.1783H23.1765H23.1748H23.1731H23.1713H23.1696H23.1678H23.1661H23.1643H23.1626H23.1608H23.1591H23.1574H23.1556H23.1539H23.1521H23.1504H23.1486H23.1469H23.1451H23.1434H23.1416H23.1399H23.1382H23.1364H23.1347H23.1329H23.1312H23.1294H23.1277H23.1259H23.1242H23.1224H23.1207H23.1189H23.1172H23.1154H23.1137H23.1119H23.1102H23.1084H23.1067H23.1049H23.1032H23.1014H23.0997H23.0979H23.0962H23.0944H23.0927H23.0909H23.0892H23.0874H23.0857H23.0839H23.0822H23.0804H23.0786H23.0769H23.0751H23.0734H23.0716H23.0699H23.0681H23.0664H23.0646H23.0629H23.0611H23.0594H23.0576H23.0558H23.0541H23.0523H23.0506H23.0488H23.0471H23.0453H23.0435H23.0418H23.04H23.0383H23.0365H23.0348H23.033H23.0312H23.0295H23.0277H23.026H23.0242H23.0224H23.0207H23.0189H23.0172H23.0154H23.0136H23.0119H23.0101H23.0083H23.0066H23.0048H23.0031H23.0013H22.9995H22.9978H22.996H22.9942H22.9925H22.9907H22.989H22.9872H22.9854H21.6934H20.3916H20.3899H20.3881H20.3863H20.3846H20.3828H20.381H20.3793H20.3775H20.3757H20.374H20.3722H20.3704H20.3687H20.3669H20.3652H20.3634H20.3616H20.3599H20.3581H20.3563H20.3546H20.3528H20.351H20.3493H20.3475H20.3457H20.344H20.3422H20.3404H20.3387H20.3369H20.3352H20.3334H20.3316H20.3299H20.3281H20.3263H20.3246H20.3228H20.321H20.3193H20.3175H20.3157H20.314H20.3122H20.3105H20.3087H20.3069H20.3052H20.3034H20.3016H20.2999H20.2981H20.2963H20.2946H20.2928H20.291H20.2893H20.2875H20.2857H20.284H20.2822H20.2805H20.2787H20.2769H20.2752H20.2734H20.2716H20.2699H20.2681H20.2663H20.2646H20.2628H20.261H20.2593H20.2575H20.2558H20.254H20.2522H20.2505H20.2487H20.2469H20.2452H20.2434H20.2416H20.2399H20.2381H20.2363H20.2346H20.2328H20.231H20.2293H20.2275H20.2258H20.224H20.2222H20.2205H20.2187H20.2169H20.2152H20.2134H20.2116H20.2099H20.2081H20.2063H20.2046H20.2028H20.201H20.1993H20.1975H20.1958H20.194H20.1922H20.1905H20.1887H20.1869H20.1852H20.1834H20.1816H20.1799H20.1781H20.1763H20.1746H20.1728H20.1711H20.1693H20.1675H20.1658H20.164H20.1622H20.1605H20.1587H20.1569H20.1552H20.1534H20.1516H20.1499H20.1481H20.1463H20.1446H20.1428H20.1411H20.1393H20.1375H20.1358H20.134H20.1322H20.1305H20.1287H20.1269H20.1252H20.1234H20.1216H20.1199H20.1181H20.1163H20.1146H20.1128H20.1111H20.1093H20.1075H20.1058H20.104H20.1022H20.1005H20.0987H20.0969H20.0952H20.0934H20.0916H20.0899H20.0881H20.0864H20.0846H20.0828H20.0811H20.0793H20.0775H20.0758H20.074H20.0722H20.0705H20.0687H20.0669H20.0652H20.0634H20.0616H20.0599H20.0581H20.0564H20.0546H20.0528H20.0511H20.0493H20.0475H20.0458H20.044H20.0422H20.0405H20.0387H20.0369H20.0352H20.0334H20.0316H20.0299H20.0281H20.0264H20.0246H20.0228H20.0211H20.0193H20.0175H20.0158H20.014H20.0122H20.0105H20.0087H20.0069H20.0052H20.0034H20.0017H19.9999H19.9981H19.9964H19.9946H19.9928H19.9911H19.9893H19.9875H19.9858H19.984H19.9822H19.9805H19.9787H19.9769H19.9752H19.9734H19.9717H19.9699H19.9681H19.9664H19.9646H19.9628H19.9611H19.9593H19.9575H19.9558H19.954H19.9522H19.9505H19.9487H19.947H19.9452H19.9434H19.9417H19.9399H19.9381H19.9364H19.9346H19.9328H19.9311H19.9293H19.9275H19.9258H19.924H19.9222H19.9205H19.9187H19.917H19.9152H19.9134H19.9117H19.9099H19.9081H19.9064H19.9046H19.9028H19.9011H19.8993H19.8975H19.8958H19.894H19.8922H19.8905H19.8887H19.887H19.8852H19.8834H19.8817H19.8799H19.8781H19.8764H19.8746H19.8728H19.8711H19.8693H19.8675H19.8658H19.864H19.8623H19.8605H19.8587H19.857H19.8552H19.8534H19.8517H19.8499H19.8481H19.8464H19.8446H19.8428H19.8411H19.8393H19.8375H19.8358H19.834H19.8323H19.8305H19.8287H19.827H19.8252H19.8234H19.8217H19.8199H19.8181H19.8164H19.8146H19.8128H19.8111H19.8093H19.8075H19.8058H19.804H19.8023H19.8005H19.7987H19.797H19.7952H19.7934H19.7917H19.7899H19.7881H19.7864H19.7846H19.7828H19.7811H19.7793H19.7776H19.7758H19.774H19.7723H19.7705H19.7687H19.767H19.7652H19.7634H19.7617H19.7599H19.7581H19.7564H19.7546H19.7528H19.7511H19.7493H19.7476H19.7458H19.744H19.7423H19.7405H19.7387H19.737H19.7352H19.7334H19.7317H19.7299H19.7281H19.7264H19.7246H19.7228H19.7211H19.7193H19.7176H19.7158H19.714H19.7123H19.7105H19.7087H19.707H19.7052H19.7034H19.7017H19.6999H19.6981H19.6964H19.6946H19.6929H19.6911H19.6893H19.6876H19.6858H19.684H19.6823H19.6805H19.6787H19.677H19.6752H19.6734H19.6717H19.6699H19.6681H19.6664H19.6646H19.6629H19.6611H19.6593H19.6576H19.6558H19.654H19.6523H19.6505H19.6487H19.647H19.6452H19.6434H19.6417H19.6399H19.6382H19.6364H19.6346H19.6329H19.6311H19.6293H19.6276H19.6258H19.624H19.6223H19.6205H19.6187H19.617H19.6152H19.6134H19.6117H19.6099H19.6082H19.6064H19.6046H19.6029H19.6011H19.5993H19.5976H19.5958H19.594H19.5923H19.5905H19.5887H19.587H19.5852H19.5834H19.5817H19.5799H19.5782H19.5764H19.5746H19.5729H19.5711H19.5693H19.5676H19.5658H19.564H19.5623H19.5605H19.5587H19.557H19.5552H19.5535H19.5517H19.5499H19.5482H19.5464H19.5446H19.5429H19.5411H19.5393H19.5376H19.5358H19.534H19.5323H19.5305H19.5287H19.527H19.5252H19.5235H19.5217H19.5199H19.5182H19.5164H19.5146H19.5129H19.5111H19.5093H19.5076H19.5058H19.504H19.5023H19.5005H19.4987H19.497H19.4952H19.4935H19.4917H19.4899H19.4882Z" fill="white" stroke="white" stroke-width="0.3"/>
<path d="M37.9654 15.6029V15.6026L37.9549 15.6033C37.7464 15.6178 37.5531 15.8011 37.5531 16.0282C37.5531 16.147 37.609 16.2528 37.6845 16.3265C37.7601 16.4004 37.8667 16.4535 37.9848 16.4535C38.1052 16.4535 38.2071 16.3887 38.2738 16.3344L38.2844 16.3258L38.2932 16.3154C38.3625 16.2342 38.4068 16.1244 38.4068 16.0187H38.4071L38.4065 16.0091C38.3917 15.7772 38.1989 15.6029 37.9751 15.6029H37.9654Z" fill="white" stroke="white" stroke-width="0.3"/>
<path d="M40.5925 16.3533L40.6107 16.3414L40.6248 16.3249C40.694 16.2437 40.7383 16.134 40.7383 16.0282C40.7383 15.7964 40.5381 15.6125 40.3066 15.6125H40.2969C40.0716 15.6125 39.8749 15.7998 39.8749 16.0282C39.8749 16.141 39.9249 16.2447 40.0075 16.3254C40.0902 16.4062 40.1947 16.4535 40.3066 16.4535C40.4318 16.4535 40.5321 16.3926 40.5925 16.3533Z" fill="white" stroke="white" stroke-width="0.3"/>
<path d="M42.3293 16.3254L42.3289 16.3258L42.3394 16.3344C42.4061 16.3887 42.508 16.4535 42.6284 16.4535C42.7407 16.4535 42.8485 16.4126 42.928 16.3254C43.0189 16.2455 43.0601 16.129 43.0601 16.0282C43.0601 15.7902 42.8634 15.6029 42.6284 15.6029C42.4063 15.6029 42.2119 15.7851 42.2065 16.0092C42.1933 16.1376 42.2473 16.2452 42.3293 16.3254Z" fill="white" stroke="white" stroke-width="0.3"/>
<path d="M60.7594 25.4529C60.7594 41.955 47.3818 55.3326 30.8797 55.3326C14.3776 55.3326 1 41.955 1 25.4529" stroke="#A87E33" stroke-opacity="0.25" stroke-width="0.6" stroke-dasharray="3 3"/>
</svg>
