<svg width="66" height="60" viewBox="0 0 66 60" fill="none" xmlns="http://www.w3.org/2000/svg">
<circle cx="32.6862" cy="26.9577" r="26.9577" fill="#105F43"/>
<path d="M64.84 27.1912C64.84 44.8201 50.5489 59.1111 32.92 59.1111C15.2911 59.1111 1 44.8201 1 27.1912" stroke="#105F43" stroke-opacity="0.25" stroke-width="0.6" stroke-dasharray="3 3"/>
<path d="M19.7585 40C18.083 40 17 38.927 17 37.2578C17 31.8836 17 26.5002 17 21.1259C17 19.7961 17.6572 18.8974 18.9439 18.4663C19.1013 18.4113 19.2494 18.2646 19.2957 18.1178C19.5919 17.164 20.2028 16.5587 21.1655 16.2653C21.3322 16.2102 21.471 16.0451 21.5173 15.9076C21.9338 14.6603 22.8503 14 24.1647 14C25.9235 14 27.6823 14 29.4411 14H48.2045C49.9262 14 51 15.0638 51 16.7788C51 22.1347 51 27.4907 51 32.8466C51 34.2222 50.3613 35.1026 49.0561 35.5337C48.8987 35.5887 48.7506 35.7354 48.7043 35.8822C48.4081 36.836 47.7972 37.4413 46.8345 37.7347C46.6678 37.7898 46.529 37.9548 46.4827 38.0924C46.0662 39.3397 45.1405 40.0092 43.826 40.0092C39.6327 40.0092 35.4394 40.0092 31.2461 40.0092C27.4231 40 23.5908 40 19.7585 40ZM17.7405 26.5735C17.7405 30.1319 17.7405 33.6903 17.7405 37.2487C17.7405 38.5326 18.4903 39.2755 19.7955 39.2755H43.7705C45.0757 39.2755 45.8255 38.5418 45.8255 37.2487C45.8255 33.7637 45.8255 30.2787 45.8255 26.7937V22.4374H17.7405V26.5735ZM43.752 18.3929C45.483 18.3929 46.566 19.466 46.566 21.1901C46.566 24.8586 46.566 28.527 46.566 32.1954V37.0286L46.816 36.9369C47.6305 36.6434 48.0471 36.0106 48.0471 35.066C48.0471 29.7009 48.0471 24.3358 48.0471 18.9707C48.0471 17.6593 47.3066 16.9256 45.9736 16.9256H21.9894H21.9061C21.8228 16.9256 21.7302 16.9256 21.6376 16.9347C20.8878 16.9989 20.2213 17.5492 20.1195 18.182L20.0825 18.3929H32.2366H43.752ZM45.9551 16.2011C47.7231 16.2011 48.7876 17.2557 48.7876 19.0166C48.7876 22.5383 48.7876 34.9559 48.7876 34.9559L49.0746 34.7817C49.1487 34.7358 49.2042 34.6991 49.269 34.6716C49.3893 34.5982 49.4912 34.5432 49.593 34.4607C50.0558 34.0847 50.278 33.5619 50.278 32.8557C50.278 28.848 50.278 24.7852 50.278 20.8416V16.788C50.278 15.4582 49.5374 14.7337 48.186 14.7337H24.3036H24.1369C24.0629 14.7337 23.9703 14.7337 23.8685 14.7429C23.1187 14.8071 22.48 15.3115 22.3226 15.9718L22.2763 16.2011H34.4397H45.9551ZM19.7955 19.1266C19.092 19.1266 18.5366 19.3467 18.1756 19.7686C17.8053 20.1996 17.6665 20.8049 17.7776 21.5203L17.8053 21.6762H45.7699L45.7885 21.5203C45.8903 20.7958 45.7514 20.1905 45.3812 19.7594C45.0201 19.3467 44.4555 19.1266 43.7612 19.1266H31.7367H19.7955Z" fill="white"/>
<path d="M25.8962 33.9562C25.4148 33.9562 25.3223 33.8645 25.3223 33.3876C25.3223 30.5996 25.3223 27.8024 25.3223 25.0144C25.3223 24.5283 25.4056 24.4458 25.8962 24.4458H31.7835H37.6708C38.1521 24.4458 38.2447 24.5375 38.2447 25.0144C38.2447 27.8024 38.2447 30.5996 38.2447 33.3876C38.2447 33.8645 38.1521 33.9562 37.6708 33.9562C36.7729 33.9562 28.4973 33.9562 28.4973 33.9562C27.6272 33.9562 26.7663 33.9562 25.8962 33.9562ZM26.0813 33.2042H37.4949V25.1887H26.0813V33.2042Z" fill="white"/>
<path d="M37.7994 35.6071C37.7716 35.6071 37.7439 35.6071 37.7254 35.6071C37.6976 35.6071 37.6698 35.6071 37.642 35.6071H25.9323C25.9045 35.6071 25.8767 35.6071 25.849 35.6071C25.8212 35.6071 25.7934 35.6071 25.7749 35.6071C25.7286 35.6071 25.6916 35.6071 25.6638 35.5979C25.3676 35.5429 25.3398 35.3687 25.3398 35.2403C25.3398 35.1119 25.3769 34.9376 25.6638 34.8826C25.6916 34.8734 25.7286 34.8734 25.7749 34.8734C25.8027 34.8734 25.8305 34.8734 25.849 34.8734C25.8767 34.8734 25.9045 34.8734 25.9323 34.8734H37.642C37.6698 34.8734 37.6976 34.8734 37.7254 34.8734C37.7531 34.8734 37.7809 34.8734 37.7994 34.8734C37.8457 34.8734 37.8827 34.8734 37.9105 34.8826C38.2067 34.9376 38.2345 35.1119 38.2345 35.2403C38.2345 35.3687 38.1975 35.5429 37.9105 35.5979C37.8827 35.6071 37.8457 35.6071 37.7994 35.6071Z" fill="white"/>
<path d="M30.987 37.2579H28.7283C27.886 37.2579 26.8863 37.2579 25.8588 37.2487C25.6366 37.2487 25.5163 37.2028 25.4885 37.1753C25.3959 37.0744 25.3404 36.8818 25.3589 36.7534C25.3774 36.6067 25.5163 36.5242 25.7477 36.5242C26.2198 36.5242 26.6919 36.5242 27.164 36.5242H31.6627C32.2181 36.5242 32.7735 36.5242 33.3289 36.5242C33.5326 36.5242 33.7825 36.5884 33.801 36.8635C33.8103 36.9644 33.7825 37.0561 33.7177 37.1203C33.6437 37.2028 33.5141 37.2487 33.366 37.2487C33.0235 37.2487 32.6902 37.2487 32.3477 37.2487C32.1256 37.2579 30.987 37.2579 30.987 37.2579Z" fill="white"/>
<path d="M35.3283 37.2578C35.2728 37.2578 35.208 37.2578 35.1524 37.2578C34.9025 37.2487 34.7451 37.1019 34.7451 36.891C34.7451 36.6801 34.9025 36.5425 35.1617 36.5333C35.1894 36.5333 35.2172 36.5333 35.245 36.5333H35.3838H35.5042C35.5227 36.5333 35.5412 36.5333 35.5597 36.5333C35.6986 36.5333 36.0318 36.5792 36.0318 36.9002C36.0318 37.212 35.7263 37.2578 35.5505 37.2578H35.5134C35.4486 37.2578 35.3931 37.2578 35.3283 37.2578Z" fill="white"/>
<path d="M19.5826 20.7682C19.3882 20.7682 19.2216 20.594 19.2216 20.4014C19.2216 20.2088 19.3882 20.0437 19.5918 20.0437C19.6937 20.0437 19.7862 20.0804 19.851 20.1538C19.9158 20.2271 19.9528 20.3188 19.9528 20.4105C19.9528 20.6123 19.7862 20.7682 19.5826 20.7682Z" fill="white"/>
<path d="M21.8039 20.7682C21.6095 20.7682 21.4429 20.6031 21.4336 20.4105C21.4336 20.218 21.6002 20.0437 21.7946 20.0437C21.9983 20.0437 22.1649 20.2088 22.1649 20.4014C22.1649 20.4931 22.1278 20.5848 22.0538 20.6582C21.989 20.7315 21.9057 20.7682 21.8039 20.7682Z" fill="white"/>
<path d="M24.0163 20.7682C23.8219 20.7682 23.6553 20.6031 23.6553 20.4014C23.6553 20.2088 23.8219 20.0437 24.0255 20.0437C24.1274 20.0437 24.2199 20.0804 24.2847 20.1538C24.3588 20.2271 24.3958 20.3188 24.3958 20.4105C24.3866 20.6031 24.2199 20.7682 24.0163 20.7682Z" fill="white"/>
<path d="M34.0051 32.3055C33.857 32.3055 33.6904 32.2597 33.6071 31.902L33.57 31.7552H29.423H28.5899C28.4048 31.7552 28.2196 31.7552 28.0345 31.7552C27.8031 31.7552 27.5254 31.6911 27.5254 31.3884C27.5254 31.0858 27.8031 31.0216 28.0345 31.0216C28.8028 31.0216 29.5711 31.0216 30.3487 31.0216H33.5608L33.5978 30.884C33.6904 30.5263 33.8477 30.4805 33.9959 30.4805C34.1532 30.4805 34.3013 30.5263 34.3939 30.884L34.4309 31.0216H34.579C34.6901 31.0216 34.7919 31.0216 34.8938 31.0216C34.9956 31.0216 35.0974 31.0216 35.1992 31.0216C35.3288 31.0216 35.4584 31.0216 35.588 31.0216C35.8657 31.0307 36.0231 31.1591 36.0231 31.3884C36.0231 31.6085 35.8565 31.7461 35.5788 31.7552C35.4492 31.7552 35.3196 31.7552 35.19 31.7552C35.0881 31.7552 34.9863 31.7552 34.8845 31.7552C34.7827 31.7552 34.6716 31.7552 34.5698 31.7552H34.4217L34.3846 31.8928C34.3106 32.2597 34.1532 32.3055 34.0051 32.3055Z" fill="white"/>
<path d="M30.6355 30.1044C30.3486 30.1044 30.3115 29.7651 30.3115 29.6184C30.3115 29.2607 30.3115 28.903 30.3115 28.5545C30.3115 28.3986 30.3115 28.2427 30.3115 28.0868C30.3115 27.9309 30.3115 27.775 30.3115 27.6191C30.3115 27.2797 30.3115 26.9312 30.3115 26.5827C30.3115 26.4727 30.3393 26.1058 30.6448 26.1058C30.7373 26.1058 30.8484 26.1425 30.9595 26.2067C31.7833 26.6928 32.635 27.2155 33.4866 27.7475C33.6625 27.8575 33.7643 27.9859 33.7643 28.1143C33.7643 28.2427 33.6625 28.3803 33.4773 28.4903C32.6442 29.0039 31.8019 29.5175 30.978 30.0127C30.8484 30.0677 30.7281 30.1044 30.6355 30.1044ZM31.0613 29.0773L32.672 28.096L31.0613 27.1238V29.0773Z" fill="white"/>
</svg>
