<svg width="70" height="69" viewBox="0 0 70 69" fill="none" xmlns="http://www.w3.org/2000/svg">
<path d="M3.74664 0.7H3.80803H66.2397H66.2865L66.331 0.714247C67.544 1.10202 68.3382 1.89955 68.7343 3.12206L68.7489 3.16714V3.21453V54.3355V54.439L68.6852 54.5204C68.6626 54.5493 68.6476 54.573 68.6381 54.598C68.638 54.5982 68.6379 54.5984 68.6378 54.5986L68.3572 54.4924C67.8107 55.9471 66.989 56.5448 65.5168 56.5589L3.74664 0.7ZM3.74664 0.7L3.69018 0.724119M3.74664 0.7L3.69018 0.724119M3.69018 0.724119C2.76688 1.11854 2.13655 1.501 1.75701 2.0952C1.37932 2.6865 1.28293 3.43667 1.28293 4.47342C1.28293 8.31004 1.28293 12.1485 1.28469 15.9852C1.28822 28.2021 1.29174 40.8346 1.25472 53.259L3.69018 0.724119ZM66.7472 10.0782V4.29182C66.7472 3.56844 66.6361 3.21111 66.4383 3.01551C66.2393 2.81882 65.8754 2.70876 65.143 2.70876H5.17448H4.76366L66.7472 10.0782ZM66.7472 10.0782H3.34287L3.33645 10.032L3.33628 10.0308C3.33295 10.0074 3.32577 9.96589 3.32141 9.94066C3.31971 9.9308 3.31844 9.92344 3.318 9.92063L3.31774 9.91908C3.31693 9.91408 3.31613 9.90918 3.31534 9.90435C3.30138 9.81908 3.29169 9.75987 3.29169 9.69413L3.29169 9.69354L3.28993 8.79609L3.28993 8.79602C3.2864 7.20581 3.28464 5.56158 3.29169 3.94225L3.29169 3.94203C3.29326 3.50473 3.41053 3.21359 3.59395 3.02859C3.77784 2.84312 4.07133 2.72081 4.51461 2.71045C4.51473 2.71045 4.51485 2.71045 4.51497 2.71045L66.7472 10.0782ZM2.24147 55.9367C2.87261 56.5698 3.76306 56.8878 4.78881 56.8888L1.25472 53.2591C1.25101 54.3397 1.58283 55.2761 2.24147 55.9367Z" fill="#105F43" stroke="#105F43" stroke-width="0.6"/>
<path d="M39.9923 68.4115L39.6008 68.2862C36.9983 67.4531 34.5149 66.2224 32.1359 65.0434L32.1203 65.0357L32.1203 65.0357C30.6859 64.3246 29.2101 63.5947 27.7216 62.953C26.5802 62.4613 25.3549 61.8262 24.5591 60.6213L24.559 60.6211C23.9286 59.665 23.7805 58.4762 24.1784 57.4377C24.5501 56.4651 25.3477 55.7539 26.3591 55.4898M39.9923 68.4115L26.4351 55.7801M39.9923 68.4115V68.297M39.9923 68.4115V68.297M26.3591 55.4898C26.3592 55.4898 26.3592 55.4898 26.3593 55.4898L26.4351 55.7801M26.3591 55.4898C26.359 55.4899 26.3589 55.4899 26.3589 55.4899L26.4351 55.7801M26.3591 55.4898C26.7689 55.3822 27.2266 55.3267 27.6816 55.3267C28.042 55.3267 28.3984 55.3601 28.7381 55.4276M26.4351 55.7801C26.8177 55.6796 27.2497 55.6267 27.6816 55.6267C28.0237 55.6267 28.3605 55.6584 28.6796 55.7219M28.7381 55.4276C28.738 55.4276 28.7379 55.4276 28.7379 55.4276L28.6796 55.7219M28.7381 55.4276C29.7783 55.6336 30.7941 55.9241 31.8527 56.2268L31.9023 56.241L31.9025 56.241L31.9427 56.2525C32.3848 56.3794 32.8295 56.5069 33.2822 56.6295L33.2824 56.6295L33.3847 56.6572M28.7381 55.4276L28.6796 55.7219M28.6796 55.7219L33.5283 57.007M39.9923 68.297H41.2932H41.3424L41.3889 68.2813C41.5643 68.2223 41.7436 68.1648 41.9235 68.1089L41.9251 68.1084L41.9658 68.0955C42.3762 67.9655 42.7873 67.8354 43.1764 67.6534C45.7801 66.4362 48.5211 65.1327 51.8065 63.5526C52.9432 63.006 53.717 62.2298 54.055 61.2699C54.3928 60.3101 54.2772 59.2178 53.7374 58.0745L53.7373 58.0745C51.967 54.3275 50.1173 50.4272 48.0861 46.1497C47.2171 44.3182 45.3561 43.1344 43.342 43.1344C43.0799 43.1344 42.814 43.155 42.5534 43.1962C40.6746 43.4896 38.6607 43.8482 36.3955 44.2931L36.3945 44.2934C36.2774 44.3168 36.1828 44.3263 36.1007 44.3263C35.8898 44.3263 35.7571 44.2612 35.6588 44.1739C35.5515 44.0786 35.4688 43.9422 35.3904 43.7745L35.3904 43.7745C34.5753 42.0332 33.7356 40.2692 32.9228 38.5642L32.9228 38.5642C32.415 37.4991 31.9074 36.4346 31.4034 35.3685L31.4032 35.368C30.9211 34.3527 30.3313 33.6373 29.5404 33.1501L29.5401 33.15C28.9776 32.8044 28.3345 32.6189 27.6834 32.6189C26.015 32.6189 24.6145 33.7482 24.2914 35.3708C24.2913 35.3709 24.2913 35.371 24.2913 35.3711L24.5855 35.4297M39.9923 68.297L31.845 53.3116L32.1152 53.1833L31.845 53.3116L33.0633 55.877L33.064 55.8785C33.1271 56.0095 33.1813 56.147 33.2438 56.3059M24.5855 35.4297C24.4004 36.3553 24.5609 37.3004 25.088 38.4077C27.2152 42.8664 29.367 47.396 31.4634 51.8092C31.6816 52.2684 31.8991 52.7264 32.116 53.1829L33.3343 55.7483C33.4028 55.8905 33.4608 56.0379 33.5222 56.1941L33.523 56.1962M24.5855 35.4297C24.88 33.9504 26.1548 32.9189 27.6834 32.9189C28.2776 32.9189 28.8665 33.0882 29.3831 33.4056M24.5855 35.4297L35.1186 43.9017M33.523 56.1962L33.2432 56.3043L33.2438 56.3059M33.523 56.1962L33.2438 56.3059M33.523 56.1962L33.5302 56.2148C33.5581 56.287 33.5876 56.3636 33.6217 56.4448M33.2438 56.3059L33.2505 56.3233C33.2781 56.3947 33.309 56.4749 33.3447 56.5598L33.3442 56.5587L33.6217 56.4448M33.6217 56.4448L33.3451 56.5609L33.3847 56.6572M33.6217 56.4448L33.7496 56.7562L33.3847 56.6572M33.3847 56.6572L33.5283 57.007M33.5283 57.007L33.2039 56.919C32.749 56.7959 32.3024 56.6678 31.861 56.5412L33.5283 57.007ZM35.1186 43.9017C34.3041 42.1614 33.4648 40.3983 32.652 38.6933C32.1442 37.6283 31.6364 36.5634 31.1321 35.4967C30.6684 34.5199 30.113 33.8552 29.3831 33.4056M35.1186 43.9017C35.2861 44.2596 35.533 44.6263 36.1007 44.6263M35.1186 43.9017L36.1007 44.6263M29.3831 33.4056L29.3831 33.4056L29.3831 33.4056ZM27.8932 57.295V57.2949C27.5003 57.2949 27.1291 57.3157 26.8116 57.4323C26.5093 57.5433 26.2498 57.7433 26.0759 58.1313L27.8932 57.295ZM27.8932 57.295L27.9007 57.2948M27.8932 57.295L27.9007 57.2948M27.9007 57.2948L27.9378 57.2938L27.9402 57.2943C27.9402 57.2943 27.9402 57.2943 27.9402 57.2943C27.9958 57.3055 28.065 57.3182 28.142 57.3322C28.1422 57.3322 28.1425 57.3323 28.1428 57.3323L28.1763 57.3386C28.3996 57.3804 28.6814 57.4331 28.9602 57.5112L28.9603 57.5112C30.7312 58.0064 32.5974 58.5368 34.6611 59.1325C34.8544 59.1887 35.0942 59.252 35.3214 59.252C35.4631 59.252 35.6006 59.2277 35.7313 59.1649C35.8614 59.1025 35.9674 59.0104 36.0586 58.8999C36.2303 58.6924 36.308 58.4691 36.2854 58.2101C36.2653 57.9783 36.1652 57.7366 36.0437 57.4813L36.0436 57.4812C32.5719 50.194 29.6788 44.1186 26.7029 37.8141L26.7027 37.8138C26.5071 37.4008 26.2762 36.7727 26.2518 36.0978C26.2369 35.6835 26.3804 35.3069 26.6476 35.0296L26.6477 35.0294M27.9007 57.2948L26.6477 35.0294M26.6002 59.9698L26.6008 59.9703C26.9401 60.2813 27.3195 60.5392 27.6949 60.7196C31.1912 62.3946 34.6174 64.0319 38.1138 65.6585L38.114 65.6586C38.9632 66.0543 39.7469 66.2406 40.5139 66.2406C41.2968 66.2406 42.0536 66.0482 42.8315 65.6433L42.8316 65.6432C44.6702 64.6877 46.5819 63.7946 48.4253 62.9346L48.4254 62.9346C49.2346 62.5573 50.0446 62.1787 50.8491 61.7949L50.8492 61.7949C51.5979 61.4382 51.9993 61.041 52.1556 60.5997C52.312 60.1583 52.2506 59.595 51.8938 58.8425C50.8231 56.5849 49.7513 54.3283 48.6793 52.0711C48.3356 51.3474 47.9919 50.6238 47.6482 49.8999C47.6482 49.8999 47.6482 49.8999 47.6482 49.8999L46.4035 47.28C46.0522 46.5413 45.6256 46.0132 45.1248 45.6689C44.6263 45.3263 44.0347 45.152 43.3279 45.152C43.0699 45.152 42.7904 45.1767 42.4978 45.2254C40.7461 45.5194 38.83 45.8646 36.4691 46.3156C36.1543 46.376 35.8823 46.4074 35.637 46.4074C35.2097 46.4074 34.845 46.3131 34.5227 46.0564C34.2128 45.8096 33.9703 45.4341 33.7333 44.9348C33.5508 44.5503 33.3687 44.1658 33.1866 43.7815L33.1865 43.7812C33.0045 43.3969 32.8225 43.0127 32.6402 42.6286L32.64 42.6283C32.5792 42.4999 32.5184 42.3713 32.4574 42.2424C31.5306 40.2838 30.5778 38.2703 29.6127 36.3004L29.6126 36.3002C29.3164 35.6946 28.89 35.177 28.4597 34.8748L26.6002 59.9698ZM26.6002 59.9698C25.9727 59.3976 25.8145 58.715 26.0759 58.1314L26.6002 59.9698ZM26.6477 35.0294C26.9072 34.7598 27.2683 34.6065 27.6358 34.6065C27.922 34.6065 28.2061 34.6969 28.4596 34.8747L26.6477 35.0294ZM36.1007 44.6263C36.2065 44.6263 36.3211 44.614 36.4534 44.5875L36.1007 44.6263Z" fill="#105F43" stroke="#105F43" stroke-width="0.6"/>
<path d="M37.7665 29.5024L37.7665 29.5022C37.74 25.8599 37.74 22.4873 37.7683 19.1919L37.7665 29.5024ZM37.7665 29.5024C37.7715 30.1138 37.9813 30.6476 38.3626 31.0305C38.744 31.4135 39.276 31.6244 39.8857 31.6284M37.7665 29.5024L39.8857 31.6284M41.9789 17.0906H41.9791L45.0467 17.0924H45.047L48.0811 17.0906L48.0812 17.0906L41.9789 17.0906ZM41.9789 17.0906C41.3073 17.0906 40.6366 17.0906 39.9657 17.0942L41.9789 17.0906ZM52.2672 29.416V29.4163C52.2653 30.0683 52.0727 30.6261 51.6869 31.0231C51.3003 31.4209 50.7532 31.6226 50.111 31.6266M52.2672 29.416L50.1107 31.6266C50.1108 31.6266 50.1109 31.6266 50.111 31.6266M52.2672 29.416C52.2743 26.1149 52.2743 22.7134 52.2672 19.303M52.2672 29.416V19.303M50.111 31.6266C48.451 31.6407 46.7435 31.646 45.0363 31.646C43.3536 31.646 41.6214 31.6407 39.8857 31.6284M50.111 31.6266L39.8857 31.6284M38.3789 17.6639C38.7743 17.2893 39.326 17.0971 39.9656 17.0942L38.3789 17.6639ZM38.3789 17.6639C37.9819 18.0401 37.7733 18.5716 37.7683 19.1918L38.3789 17.6639ZM52.2672 19.303C52.2662 18.6356 52.0802 18.0738 51.685 17.6786M52.2672 19.303L51.685 17.6786M51.685 17.6786C51.29 17.2835 50.728 17.0971 50.0611 17.0942L51.685 17.6786ZM50.0608 17.0942L50.0595 17.3942L50.0608 17.0942ZM50.2303 19.1364V29.5879H39.8264V19.1364H50.2303Z" fill="#A87E33" stroke="#A87E33" stroke-width="0.6"/>
<path d="M9.60371 31.6294H9.60368C8.96664 31.6254 8.41986 31.4182 8.03195 31.0202C7.64482 30.623 7.44562 30.0663 7.44363 29.4192L9.60371 31.6294ZM9.60371 31.6294C11.3551 31.6399 13.0748 31.6452 14.7134 31.6452C16.4331 31.6452 18.1318 31.6399 19.7618 31.6276C20.4111 31.6236 20.9612 31.4306 21.3494 31.0368C21.7371 30.6434 21.9256 30.0879 21.9285 29.4335V29.4334C21.9426 26.0209 21.9426 22.596 21.9285 19.2558C21.9265 18.609 21.7354 18.0603 21.3432 17.6729C20.9516 17.2861 20.3977 17.0981 19.7453 17.0951L9.60371 31.6294ZM7.44363 19.307L7.44363 19.3069C7.4465 18.629 7.63403 18.0626 8.04143 17.6673C8.44742 17.2735 9.0258 17.0943 9.71776 17.0934M7.44363 19.307L9.71796 17.0934C9.71789 17.0934 9.71783 17.0934 9.71776 17.0934M7.44363 19.307C7.43129 22.6507 7.43129 26.0525 7.44363 29.419L7.44363 19.307ZM9.71776 17.0934C10.3793 17.0916 11.0426 17.0916 11.7037 17.0916M9.71776 17.0934L11.7037 17.0916M11.7037 17.0916H11.7039L14.7309 17.0934H14.7312L17.7529 17.0916L17.7531 17.0916L17.7538 17.0916H11.7037ZM19.8862 29.5889H9.50529V19.1427H19.8862V29.5889Z" fill="#A87E33" stroke="#A87E33" stroke-width="0.6"/>
<path d="M9.69712 36.9033L9.69739 36.9033C11.3622 36.8981 13.0252 36.8963 14.6898 36.8963C16.367 36.8963 18.0441 36.8998 19.721 36.9051L9.69712 36.9033ZM9.69712 36.9033C9.00178 36.9062 8.42466 37.0891 8.02274 37.4989M9.69712 36.9033L8.02274 37.4989M21.9279 49.222L21.9279 49.2223C21.925 49.8883 21.7373 50.4492 21.3404 50.8437C20.9438 51.2378 20.3803 51.4241 19.7108 51.427H19.7108C18.0336 51.434 16.3582 51.4376 14.6828 51.4376C13.0162 51.4376 11.3513 51.434 9.6865 51.427M21.9279 49.222L7.44125 49.1774C7.44602 49.8633 7.63101 50.4363 8.03132 50.8377C8.43192 51.2393 9.0032 51.4241 9.6865 51.427M21.9279 49.222C21.9385 45.9861 21.9402 42.6795 21.9279 39.112M21.9279 49.222L21.9279 39.112M9.6865 51.427L9.68777 51.127M9.6865 51.427L9.68777 51.127M9.68777 51.127C11.3522 51.134 13.0166 51.1376 14.6828 51.1376C16.3578 51.1376 18.0328 51.134 19.7096 51.127H9.68777ZM7.43595 45.6998C7.43595 45.4422 7.43639 45.1846 7.43683 44.9273L7.43683 44.9272C7.43727 44.6698 7.43771 44.4127 7.43772 44.1557C7.43772 44.1556 7.43772 44.1555 7.43772 44.1555L7.43595 42.6784C7.43595 42.6784 7.43595 42.6783 7.43595 42.6783C7.43419 41.5201 7.43242 40.3589 7.43948 39.1992M7.43595 45.6998L7.43948 39.1992M7.43595 45.6998C7.43419 46.8384 7.43242 48.0174 7.44125 49.1773L7.43595 45.6998ZM7.43948 39.1992C7.44329 38.493 7.62193 37.9075 8.02274 37.4989M7.43948 39.1992L8.02274 37.4989M21.9279 39.112C21.926 38.4453 21.7394 37.8837 21.3443 37.4886M21.9279 39.112L21.3443 37.4886M21.3443 37.4886C20.9493 37.0936 20.3877 36.907 19.7211 36.9051L21.3443 37.4886ZM19.8715 38.9527V49.3548H9.49056V38.9527H19.8715Z" fill="#A87E33" stroke="#A87E33" stroke-width="0.6"/>
<path d="M50.5631 40.0989L50.2631 40.0983C50.2629 40.2004 50.2626 40.3019 50.2624 40.4029C50.2607 41.1659 50.259 41.9002 50.2684 42.6469L50.2684 42.6472C50.2768 43.2591 50.6407 43.8176 51.2754 43.8176H51.2847L51.2941 43.8171L51.3186 43.8155C51.7412 43.799 51.9953 43.5635 52.1269 43.2977C52.2486 43.052 52.2673 42.7834 52.2683 42.6385C52.2754 41.7675 52.2736 40.8809 52.2718 40.026V40.0258L52.2701 39.3386L51.9701 39.339L52.2701 39.3382L52.2701 39.3385C52.2691 38.5421 52.1154 37.9083 51.689 37.4816C51.2626 37.0549 50.6291 36.9012 49.8335 36.9002H49.8331H49.5016C48.5982 36.9002 47.6949 36.9038 46.7923 36.9073L46.7882 36.9073C45.8849 36.9108 44.9841 36.9144 44.0817 36.9144C42.5756 36.9144 41.3451 36.9038 40.2083 36.8827L40.2083 36.8826H40.2027H40.1322C39.3564 36.8826 38.6947 37.1246 38.2656 37.6302M50.5631 40.0989H50.2631C50.2631 39.9164 50.2635 39.7335 50.2639 39.5506L50.2639 39.5494C50.2644 39.3659 50.2648 39.1825 50.2648 38.9987V38.946H39.7979L39.7953 38.995C39.7953 38.9951 39.7953 38.9951 39.7953 38.9951C39.7932 39.034 39.7911 39.0805 39.789 39.1279C39.7865 39.184 39.7839 39.2414 39.7812 39.2888C39.7803 39.3092 39.7794 39.3296 39.7785 39.35C39.7709 39.5216 39.7633 39.6947 39.7467 39.8652C39.7229 40.1166 39.6491 40.3506 39.4801 40.5256C39.3082 40.7038 39.0791 40.7783 38.8349 40.7948M50.5631 40.0989C50.5628 40.2011 50.5626 40.3026 50.5624 40.4036C50.5607 41.1669 50.559 41.8988 50.5683 42.6431L50.5648 38.946V38.9987C50.5648 39.1834 50.5644 39.3676 50.5639 39.5514C50.5635 39.7343 50.5631 39.9168 50.5631 40.0989ZM38.8349 40.7948C38.8343 40.7949 38.8338 40.7949 38.8333 40.7949L38.8134 40.4956L38.8364 40.7947C38.8359 40.7947 38.8354 40.7948 38.8349 40.7948ZM38.8349 40.7948C38.8007 40.7974 38.7667 40.7974 38.7459 40.7974L38.7428 40.7974C38.5091 40.7974 38.2874 40.7367 38.1116 40.5854C37.9366 40.4348 37.8423 40.2245 37.8035 39.9935L37.8034 39.9934C37.6439 39.0439 37.7754 38.2067 38.2656 37.6302M38.2656 37.6302C38.2656 37.6302 38.2655 37.6302 38.2655 37.6303L38.4942 37.8244L38.2657 37.6301C38.2657 37.6301 38.2656 37.6301 38.2656 37.6302Z" fill="#A87E33" stroke="#A87E33" stroke-width="0.6"/>
<path d="M61.4971 19.0959C61.8053 19.0936 62.0998 19.001 62.3042 18.7861C62.4962 18.5855 62.5727 18.316 62.5614 18.0379L62.2617 18.05L62.5615 18.0392C62.5483 17.6773 62.3869 17.4209 62.1434 17.2693C61.9205 17.1305 61.6587 17.0979 61.4571 17.0959L61.457 17.0959C61.0822 17.0924 60.7058 17.0906 60.3293 17.0906C60.1859 17.0906 59.8322 17.0915 59.4776 17.0924L59.4718 17.0924C59.1148 17.0933 58.7578 17.0942 58.6119 17.0942C58.3244 17.0942 58.0362 17.0942 57.7498 17.0924L57.7498 17.0924H57.748C57.6059 17.0924 57.4632 17.092 57.3198 17.0915L57.3194 17.0915C57.176 17.0911 57.0318 17.0906 56.8876 17.0906C56.4988 17.0906 56.1112 17.0924 55.7233 17.0977L55.7229 17.0977C55.432 17.1021 55.1632 17.1902 54.9617 17.3645C54.7566 17.5418 54.64 17.793 54.6375 18.0774L54.6375 18.0774L55.701 18.7941L55.6983 19.0941C56.6705 19.1029 57.6641 19.1082 58.656 19.1082C59.5894 19.1082 60.5458 19.1047 61.4971 19.0959ZM61.4971 19.0959C61.497 19.0959 61.4969 19.0959 61.4968 19.0959L61.4947 18.7959L61.4975 19.0958C61.4974 19.0959 61.4973 19.0959 61.4971 19.0959Z" fill="#105F43" stroke="#105F43" stroke-width="0.6"/>
<path d="M54.9099 38.5706L54.9095 38.5701L54.9095 38.5701C54.7272 38.3827 54.6329 38.1394 54.6377 37.8749M54.9099 38.5706L54.6377 37.8739C54.6377 37.8743 54.6377 37.8746 54.6377 37.8749M54.9099 38.5706C55.1269 38.7927 55.4353 38.9002 55.7601 38.9025M54.9099 38.5706L55.7628 38.6025M54.6377 37.8749C54.6416 37.5824 54.7614 37.3277 54.9859 37.1522M54.6377 37.8749L54.9859 37.1522M61.4656 36.9043L61.4666 36.9044C61.8663 36.9114 62.1605 37.0208 62.3481 37.2335C62.5303 37.44 62.56 37.6871 62.5652 37.8471M61.4656 36.9043L62.2653 37.8567M61.4656 36.9043C61.097 36.899 60.727 36.8973 60.3593 36.8973C60.2233 36.8973 60.0869 36.8977 59.9509 36.8981L59.95 36.8981C59.8135 36.8986 59.6773 36.899 59.5412 36.899C59.4032 36.899 59.2656 36.8995 59.1288 36.8999L59.1284 36.8999C58.9916 36.9004 58.8556 36.9008 58.7196 36.9008L58.7188 36.9008L58.7138 36.9008L58.6947 36.9007L58.6243 36.9005L58.3913 36.8999C58.2094 36.8995 57.9919 36.899 57.8495 36.899C57.5493 36.8973 57.2493 36.8973 56.9503 36.8973H56.9494C56.5659 36.8973 56.1819 36.899 55.7975 36.9043L61.4656 36.9043ZM62.5652 37.8471L62.2653 37.8567M62.5652 37.8471C62.5652 37.847 62.5652 37.847 62.5652 37.8469L62.2653 37.8567M62.5652 37.8471C62.5741 38.1228 62.4983 38.3919 62.3079 38.5909M62.2653 37.8567C62.2724 38.0736 62.2124 38.2569 62.0908 38.3839C61.9585 38.5232 61.7505 38.5972 61.4913 38.6007C60.5603 38.6113 59.5959 38.6166 58.6279 38.6166C57.6987 38.6166 56.7361 38.6113 55.7628 38.6025M62.3079 38.5909C62.308 38.5908 62.3082 38.5906 62.3083 38.5904L62.0908 38.3839L62.3074 38.5914C62.3075 38.5913 62.3077 38.5911 62.3079 38.5909ZM62.3079 38.5909C62.1016 38.8078 61.8039 38.8965 61.4954 38.9007L61.4947 38.9007C60.5626 38.9113 59.597 38.9166 58.6279 38.9166C57.6976 38.9166 56.734 38.9113 55.7601 38.9025M55.7601 38.9025C55.7603 38.9025 55.7605 38.9025 55.7608 38.9025L55.7628 38.6025M55.7601 38.9025L55.7628 38.6025M54.9859 37.1522C55.2017 36.9835 55.4875 36.9085 55.7974 36.9043L54.9859 37.1522Z" fill="#105F43" stroke="#105F43" stroke-width="0.6"/>
<path d="M24.5998 18.787L24.5995 18.7866C24.4069 18.5857 24.3304 18.3159 24.3417 18.0362L24.3418 18.035L24.3418 18.035C24.3419 18.0324 24.342 18.0296 24.3421 18.0266C24.3457 17.9407 24.3557 17.7044 24.5115 17.4897C24.6859 17.2494 24.9892 17.1011 25.4456 17.0959L25.4462 17.0959C25.8227 17.0924 26.1974 17.0906 26.5739 17.0906C26.7153 17.0906 27.0676 17.0915 27.4193 17.0924L27.4201 17.0924C27.7725 17.0933 28.1242 17.0942 28.2648 17.0942C28.4133 17.0942 28.7715 17.0933 29.1293 17.0924L29.1398 17.0924C29.4935 17.0915 29.8446 17.0906 29.9874 17.0906C30.3621 17.0906 30.7386 17.0924 31.1133 17.0959L31.1135 17.0959C31.421 17.099 31.7053 17.1752 31.9192 17.3479C32.1411 17.5271 32.2556 17.7854 32.2568 18.0788C32.258 18.3746 32.1414 18.6373 31.9289 18.8228C31.7202 19.0051 31.4399 19.0954 31.1356 19.0976L24.5998 18.787ZM24.5998 18.787C24.8045 18.9997 25.0937 19.0937 25.4028 19.0959L25.4049 18.7959L24.5998 18.787Z" fill="#105F43" stroke="#105F43" stroke-width="0.6"/>
<path d="M54.6457 23.0355C54.6532 23.3083 54.7639 23.5509 54.9563 23.7253C55.1464 23.8977 55.3999 23.9894 55.6753 23.9986C55.9066 24.0076 56.1384 24.0094 56.3667 24.0094C56.5427 24.0094 56.7201 24.0076 56.8959 24.0058L56.8969 24.0058C57.0734 24.0041 57.25 24.0023 57.4263 24.0023H57.4457C57.6167 24.0023 57.788 24.0041 57.9611 24.0058L57.9611 24.0058L59.1437 23.6988L59.153 23.9987C59.1535 23.9986 59.154 23.9986 59.1544 23.9986C59.4311 23.9897 59.6864 23.9077 59.8783 23.7352C60.074 23.5592 60.1739 23.3155 60.1823 23.0451L60.1823 23.0438C60.1895 22.7748 60.1013 22.5096 59.9133 22.3112L59.9133 22.3112L59.9121 22.3099C59.7321 22.1221 59.4915 22.0222 59.2296 22.0148L59.2293 22.0148C58.6397 21.9989 58.0304 21.99 57.4211 21.99C56.8351 21.99 56.2277 21.9971 55.6201 22.0131L55.6194 22.0131C55.356 22.0206 55.1077 22.1293 54.9236 22.3234C54.7434 22.5134 54.638 22.7711 54.6457 23.0355ZM54.6457 23.0355C54.6457 23.0356 54.6457 23.0358 54.6457 23.0359L54.9456 23.027L54.6457 23.0352C54.6457 23.0353 54.6457 23.0354 54.6457 23.0355Z" fill="#105F43" stroke="#105F43" stroke-width="0.6"/>
<path d="M55.6219 43.8123L55.6223 43.8123C56.212 43.8283 56.8177 43.8371 57.4218 43.8371C57.996 43.8371 58.582 43.8283 59.1632 43.8159L59.1639 43.8159C59.4515 43.809 59.7185 43.7088 59.9118 43.5023L59.9121 43.502C60.097 43.3039 60.1819 43.0379 60.1724 42.7684L60.1724 42.767C60.1616 42.497 60.0582 42.2555 59.8607 42.0821C59.6674 41.9123 59.4115 41.8319 59.1348 41.8232C58.9132 41.816 58.6909 41.8143 58.4709 41.8143H58.4706C58.3075 41.8143 58.1408 41.8143 57.9756 41.816C57.8925 41.816 57.8091 41.8165 57.7265 41.8169L57.7261 41.8169C57.6427 41.8173 57.5602 41.8178 57.4782 41.8178V42.1178L57.4782 41.8178H57.4782H57.4781H57.4779H57.4778H57.4775H57.4773H57.477H57.4767H57.4763H57.4759H57.4755H57.475H57.4745H57.4739H57.4733H57.4727H57.472H57.4713H57.4706H57.4698H57.469H57.4682H57.4673H57.4664H57.4654H57.4645H57.4634H57.4624H57.4613H57.4602H57.459H57.4578H57.4566H57.4553H57.454H57.4527H57.4514H57.45H57.4485H57.4471H57.4456H57.444H57.4425H57.4409H57.4393H57.4376H57.4359H57.4342H57.4325H57.4307H57.4289H57.427H57.4251H57.4232H57.4213H57.4193H57.4173H57.4153H57.4132H57.4111H57.409H57.4069H57.4047H57.4025H57.4002H57.398H57.3957H57.3933H57.391H57.3886H57.3862H57.3838H57.3813H57.3788H57.3763H57.3737H57.3711H57.3685H57.3659H57.3632H57.3606H57.3578H57.3551H57.3523H57.3495H57.3467H57.3439H57.341H57.3381H57.3352H57.3323H57.3293H57.3263H57.3233H57.3202H57.3172H57.3141H57.3109H57.3078H57.3046H57.3014H57.2982H57.295H57.2917H57.2885H57.2852H57.2818H57.2785H57.2751H57.2717H57.2683H57.2648H57.2614H57.2579H57.2544H57.2509H57.2473H57.2437H57.2402H57.2365H57.2329H57.2293H57.2256H57.2219H57.2182H57.2144H57.2107H57.2069H57.2031H57.1993H57.1955H57.1916H57.1878H57.1839H57.18H57.176H57.1721H57.1681H57.1642H57.1602H57.1562H57.1521H57.1481H57.144H57.1399H57.1358H57.1317H57.1276H57.1234H57.1193H57.1151H57.1109H57.1067H57.1024H57.0982H57.0939H57.0897H57.0854H57.0811H57.0767H57.0724H57.0681H57.0637H57.0593H57.0549H57.0505H57.0461H57.0417H57.0372H57.0328H57.0283H57.0238H57.0193H57.0148H57.0103H57.0057H57.0012H56.9966H56.9921H56.9875H56.9829H56.9783H56.9737H56.9691H56.9644H56.9598H56.9551H56.9504H56.9458H56.9411H56.9364H56.9317H56.9269H56.9222H56.9175H56.9127H56.908H56.9032H56.8984H56.8936H56.8888H56.884H56.8792H56.8744H56.8696H56.8648H56.8599H56.8551H56.8502H56.8454H56.8405H56.8356H56.8307H56.8259H56.821H56.8161H56.8112H56.8062H56.8013H56.7964H56.7915H56.7865H56.7816H56.7767H56.7717H56.7668H56.7618H56.7568H56.7519H56.7469H56.7419H56.737H56.732H56.727H56.722H56.717H56.712H56.707H56.702H56.697H56.692H56.687H56.682H56.677H56.672H56.667H56.6619H56.6569H56.6519H56.6469H56.6419H56.6369H56.6318H56.6268H56.6218H56.6168H56.6117H56.6067H56.6017H56.5967H56.5917H56.5867H56.5816H56.5766H56.5716H56.5666H56.5616H56.5566H56.5516H56.5466H56.5416H56.5366H56.5316H56.5266H56.5216H56.5166H56.5116H56.5066H56.5016H56.4967H56.4917H56.4867H56.4818H56.4768H56.4718H56.4669H56.4619H56.457H56.4521H56.4471H56.4422H56.4373H56.4324H56.4275H56.4226H56.4177H56.4128H56.4079H56.403H56.3981H56.3933H56.3884H56.3836H56.3787H56.3739H56.3691H56.3642H56.3594H56.3546H56.3498H56.345H56.3403H56.3355H56.3307H56.326H56.3212H56.3165H56.3118H56.3071H56.3023H56.2977H56.293H56.2883H56.2836H56.279H56.2743H56.2697H56.2651H56.2605H56.2559H56.2513H56.2467H56.2421H56.2376H56.233H56.2285H56.224H56.2195H56.215H56.2105H56.2061H56.2016H56.1972H56.1927H56.1883H56.1839H56.1795H56.1752H56.1708H56.1665H56.1621H56.1578H56.1535H56.1493H56.145H56.1407H56.1365H56.1323H56.1281H56.1239H56.1197H56.1155H56.1114H56.1073H56.1032H56.0991H56.095H56.0909H56.0869H56.0829H56.0789H56.0749H56.0709H56.067H56.063H56.0591H56.0552H56.0513H56.0475H56.0436H56.0398H56.036H56.0322H56.0285H56.0247H56.021H56.0173H56.0136H56.01H56.0063H56.0027H55.9991H55.9955H55.9919H55.9884H55.9849H55.9814H55.9779H55.9745H55.971H55.9676H55.9642H55.9609H55.9575H55.9542H55.9509H55.9477H55.9444H55.9412H55.938H55.9348H55.9316H55.9285H55.9254H55.9223H55.9193H55.9162H55.9132H55.9102H55.9073H55.9043H55.9014H55.8986H55.8957H55.8929H55.8901H55.8873H55.8845H55.8818H55.8791H55.8764H55.8738H55.8712H55.8686H55.866H55.8635H55.861H55.8585H55.856H55.8536H55.8512H55.8488H55.8465H55.8442H55.8419H55.8396H55.8374H55.8352H55.8331H55.8309H55.8288H55.8267H55.8247H55.8227H55.8207H55.8187H55.8168H55.8149H55.8131H55.8112H55.8094H55.8077H55.8059H55.8042H55.8025H55.8009H55.7993H55.7977H55.7962H55.7946H55.7932H55.7917H55.7903H55.7889H55.7876H55.7863H55.785H55.7837H55.7825H55.7814H55.7802H55.7791H55.778H55.777H55.776H55.775H55.7741H55.7732H55.7723H55.7715H55.7707H55.77H55.7692H55.7686H55.7679H55.7673H55.7667H55.7662H55.7657H55.7653H55.7648H55.7644H55.7641H55.7638H55.7635H55.7633H55.7631H55.7629H55.7628H55.7627H55.7627L55.7599 41.8178C55.7333 41.8178 55.6988 41.8178 55.6611 41.8201L55.6611 41.8201L55.6596 41.8202C55.3836 41.8389 55.1306 41.9327 54.9418 42.1052C54.7496 42.2806 54.6413 42.5223 54.6376 42.7942L54.6376 42.7942L54.6376 42.7952C54.6326 43.2698 55.0017 43.7947 55.6219 43.8123Z" fill="#105F43" stroke="#105F43" stroke-width="0.6"/>
<path d="M26.5028 24.0058L26.5028 24.0058L26.5073 24.0058C26.6805 24.004 26.8504 24.0023 27.034 24.0023C27.2177 24.0023 27.3999 24.004 27.5854 24.0058L27.5901 24.0058C27.5901 24.0058 27.5901 24.0058 27.5901 24.0058C27.7732 24.0076 27.9598 24.0094 28.1448 24.0094C28.4205 24.0094 28.6507 24.0058 28.8662 23.9968L28.8666 23.9968C29.1289 23.9854 29.3699 23.8972 29.5498 23.7247C29.7311 23.5509 29.8262 23.3144 29.8357 23.0539L29.8358 23.0531C29.8451 22.7771 29.7587 22.5075 29.5718 22.3074L29.5718 22.3074L29.5693 22.3048C29.3912 22.1187 29.1514 22.0221 28.892 22.0148L28.8916 22.0148C28.295 21.9989 27.6875 21.99 27.0834 21.99C26.4849 21.99 25.8761 21.9989 25.2746 22.0148C25.0172 22.0199 24.7781 22.1144 24.6034 22.3025C24.4151 22.5043 24.3303 22.7786 24.3416 23.0597C24.3512 23.3202 24.4435 23.5574 24.6262 23.7315C24.8074 23.9042 25.0498 23.9885 25.3122 23.9986L25.3128 23.9986C25.5093 24.0058 25.7193 24.0094 25.9726 24.0094C26.1486 24.0094 26.326 24.0076 26.5018 24.0058L26.5028 24.0058Z" fill="#105F43" stroke="#105F43" stroke-width="0.6"/>
<path d="M24.2652 6.34694L24.2652 6.34694C24.2807 6.11022 24.3544 5.8898 24.518 5.72045C24.6806 5.5522 24.8987 5.46889 25.1355 5.43949C25.2953 5.41931 25.4564 5.41777 25.5907 5.41777H25.5927V5.41778L25.8509 5.41954H25.8721H25.8947H25.9176H25.9408H25.9644H25.9884H26.0127H26.0373H26.0623H26.0876H26.1132H26.1392H26.1655H26.1921H26.219H26.2463H26.2739H26.3019H26.3301H26.3587H26.3876H26.4168H26.4463H26.4762H26.5063H26.5368H26.5675H26.5986H26.63H26.6617H26.6937H26.726H26.7586H26.7915H26.8247H26.8582H26.892H26.9261H26.9604H26.9951H27.0301H27.0653H27.1008H27.1366H27.1727H27.2091H27.2457H27.2826H27.3199H27.3573H27.3951H27.4331H27.4714H27.5099H27.5488H27.5879H27.6272H27.6668H27.7067H27.7468H27.7872H27.8279H27.8688H27.91H27.9514H27.993H28.0349H28.0771H28.1195H28.1621H28.205H28.2481H28.2915H28.3351H28.379H28.423H28.4673H28.5119H28.5566H28.6016H28.6469H28.6923H28.738H28.7839H28.83H28.8763H28.9229H28.9697H29.0167H29.0638H29.1113H29.1589H29.2067H29.2547H29.303H29.3514H29.4001H29.4489H29.498H29.5472H29.5967H29.6463H29.6961H29.7461H29.7964H29.8468H29.8973H29.9481H29.9991H30.0502H30.1015H30.153H30.2047H30.2566H30.3086H30.3608H30.4132H30.4657H30.5184H30.5713H30.6243H30.6776H30.7309H30.7845H30.8381H30.892H30.946H31.0002H31.0545H31.1089H31.1636H31.2183H31.2732H31.3283H31.3835H31.4388H31.4943H31.55H31.6057H31.6616H31.7176H31.7738H31.8301H31.8865H31.9431H31.9998H32.0566H32.1135H32.1706H32.2278H32.2851H32.3425H32.4H32.4577H32.5154H32.5733H32.6313H32.6894H32.7476H32.8059H32.8643H32.9228H32.9814H33.0401H33.099H33.1579H33.2169H33.276H33.3351H33.3944H33.4538H33.5132H33.5728H33.6324H33.6921H33.7519H33.8118H33.8717H33.9318H33.9919H34.052H34.1123H34.1726H34.233H34.2934H34.3539H34.4145H34.4752H34.5359H34.5966H34.6575H34.7183H34.7793H34.8403H34.9013H34.9624H35.0235H35.0847H35.146H35.2072H35.2685H35.3299H35.3913H35.4528H35.5142H35.5757H35.6373H35.6989H35.7605H35.8221H35.8838H35.9455H36.0072H36.0689H36.1307H36.1925H36.2543H36.3161H36.3779H36.4397H36.5016H36.5635H36.6253H36.6872H36.7491H36.811H36.8729H36.9348H36.9967H37.0586H37.1205H37.1824H37.2443H37.3061H37.368H37.4299H37.4917H37.5535H37.6153H37.6771H37.7389H37.8007H37.8624H37.9241H37.9858H38.0475H38.1091H38.1707H38.2323H38.2938H38.3553H38.4168H38.4782H38.5396H38.601H38.6623H38.7236H38.7848H38.846H38.9071H38.9682H39.0292H39.0902H39.1511H39.212H39.2728H39.3336H39.3943H39.4549H39.5155H39.576H39.6364H39.6968H39.7571H39.8174H39.8775H39.9376H39.9976H40.0576H40.1174H40.1772H40.2369H40.2965H40.356H40.4155H40.4748H40.5341H40.5933H40.6524H40.7113H40.7702H40.829H40.8877H40.9463H41.0048H41.0632H41.1215H41.1797H41.2378H41.2958H41.3536H41.4114H41.469H41.5265H41.5839H41.6412H41.6984H41.7554H41.8123H41.8691H41.9258H41.9823H42.0387H42.095H42.1512H42.2072H42.2631H42.3188H42.3744H42.4299H42.4852H42.5404H42.5954H42.6503H42.7051H42.7597H42.8141H42.8684H42.9225H42.9765H43.0304H43.084H43.1375H43.1909H43.2441H43.2971H43.35H43.4026H43.4552H43.5075H43.5597H43.6117H43.6635H43.7152H43.7667H43.818H43.8691H43.92H43.9707H44.0213H44.0717H44.1219H44.1719H44.2217H44.2713H44.3207H44.3699H44.4189H44.4678H44.5164H44.5648H44.613H44.661H44.7088H44.7564H44.8038H44.851H44.8979H44.9447H44.9912H45.0375H45.0836H45.1294H45.1751H45.2205H45.2657H45.3107H45.3554H45.3999H45.4442H45.4882H45.532H45.5756H45.6189H45.662H45.7049H45.7475H45.7899H45.832H45.8739H45.9155H45.9569H45.998H46.0389H46.0795H46.1198H46.1599H46.1998H46.2394H46.2787H46.3177H46.3565H46.3951H46.4333H46.4713H46.509H46.5464H46.5836H46.6205H46.6571H46.6934H46.7295H46.7653H46.8007H46.8359H46.8708H46.9055H46.9398H46.9738H47.0076H47.041H47.0742H47.1071H47.1396H47.1719H47.2038H47.2355H47.2668H47.2979H47.3286H47.359H47.3891H47.4189H47.4484H47.4776H47.5064H47.535H47.5632H47.5911H47.6186H47.6459H47.6728H47.6994H47.7256H47.7515H47.7771H47.8024H47.8273H47.8519H47.8761H47.9H47.9236H47.9468H47.9697H47.9922H48.0144H48.0362H48.0577H48.0788H48.0995H48.12H48.14H48.1597H48.179H48.198H48.2166H48.2348H48.2527H48.2702H48.2874H48.3041H48.3205H48.3365H48.3522H48.3674H48.3823H48.3968H48.4109H48.4247H48.438H48.451H48.4636H48.4758H48.4876H48.499H48.51H48.5206H48.5308H48.5406H48.55H48.5591H48.5677H48.5759H48.5837H48.5911H48.5981H48.6046H48.6108H48.6165H48.6219H48.6268H48.6313H48.6353H48.639H48.6422H48.645H48.6474H48.6493H48.6508H48.6519H48.6526C48.6527 5.41954 48.6528 5.41954 48.6528 5.71954V5.41954H48.6762H48.6995H48.7229H48.7463H48.7696H48.793H48.8164H48.8397H48.8631H48.8865H48.9098H48.9332H48.9566H48.9799H49.0033H49.0267H49.0501H49.0734H49.0968H49.1202H49.1435H49.1669H49.1903H49.2136H49.237H49.2604H49.2837H49.3071H49.3305H49.3538H49.3772H49.4006H49.4239H49.4473H49.4707H49.494H49.5174H49.5408H49.5641H49.5875H49.6109H49.6342H49.6576H49.681H49.7043H49.7277H49.7511H49.7744H49.7978H49.8212H49.8445H49.8679H49.8913H49.9146H49.938H49.9614H49.9847H50.0081H50.0315H50.0548H50.0782H50.1016H50.1249H50.1483H50.1717H50.195H50.2184H50.2418H50.2651H50.2885H50.3119H50.3352H50.3586H50.382H50.4053H50.4287H50.4521H50.4754H50.4988H50.5222H50.5455H50.5689H50.5923H50.6156H50.639H50.6624H50.6857H50.7091H50.7325H50.7558H50.7792H50.8026H50.8259H50.8493H50.8726H50.896H50.9194H50.9427H50.9661H50.9895H51.0128H51.0362H51.0596H51.0829H51.1063H51.1297H51.153H51.1764H51.1998H51.2231H51.2465H51.2699H51.2932H51.3166H51.3399H51.3633H51.3867H51.41H51.4334H51.4568H51.4801H51.5035H51.5269H51.5502H51.5736H51.597H51.6203H51.6437H51.667H51.6904H51.7138H51.7371H51.7605H51.7839H51.8072H51.8306H51.854H51.8773H51.9007H51.9241H51.9474H51.9708H51.9941H52.0175H52.0409H52.0642H52.0876H52.111H52.1343H52.1577H52.1811H52.2044H52.2278H52.2511H52.2745H52.2979H52.3212H52.3446H52.368H52.3913H52.4147H52.4381H52.4614H52.4848H52.5081H52.5315H52.5549H52.5782H52.6016H52.625H52.6483H52.6717H52.695H52.7184H52.7418H52.7651H52.7885H52.8119H52.8352H52.8586H52.8819H52.9053H52.9287H52.952H52.9754H52.9988H53.0221H53.0455H53.0688H53.0922H53.1156H53.1389H53.1623H53.1857H53.209H53.2324H53.2557H53.2791H53.3025H53.3258H53.3492H53.3726H53.3959H53.4193H53.4426H53.466H53.4894H53.5127H53.5361H53.5595H53.5828H53.6062H53.6295H53.6529H53.6763H53.6996H53.723H53.7464H53.7697H53.7931H53.8164H53.8398H53.8632H53.8865H53.9099H53.9332H53.9566H53.98H54.0033H54.0267H54.0501H54.0734H54.0968H54.1201H54.1435H54.1669H54.1902H54.2136H54.2369H54.2603H54.2837H54.307H54.3304H54.3538H54.3771H54.4005H54.4238H54.4472H54.4706H54.4939H54.5173H54.5406H54.564H54.5874H54.6107H54.6341H54.6574H54.6808H54.7042H54.7275H54.7509H54.7743H54.7976H54.821H54.8443H54.8677H54.8911H54.9144H54.9378H54.9611H54.9845H55.0079H55.0312H55.0546H55.0779H55.1013H55.1247H55.148H55.1714H55.1947H55.2181H55.2415H55.2648H55.2882H55.3115H55.3349H55.3583H55.3816H55.405H55.4283H55.4517H55.4751H55.4984H55.5218H55.5451H55.5685H55.5919H55.6152H55.6386H55.6619H55.6853H55.7087H55.732H55.7554H55.7787H55.8021H55.8255H55.8488H55.8722H55.8955H55.9189H55.9423H55.9656H55.989H56.0124H56.0357H56.0591H56.0824H56.1058H56.1292H56.1525H56.1759H56.1992H56.2226H56.2459H56.2693H56.2927H56.316H56.3394H56.3627H56.3861H56.4095H56.4328H56.4562H56.4795H56.5029H56.5263H56.5496H56.573H56.5963H56.6197H56.6431H56.6664H56.6898H56.7131H56.7365H56.7599H56.7832H56.8066H56.8299H56.8533H56.8767H56.9H56.9234H56.9467H56.9701H56.9935H57.0168H57.0402H57.0635H57.0869H57.1103H57.1336H57.157H57.1803H57.2037H57.227H57.2504H57.2738H57.2971H57.3205H57.3438H57.3672H57.3906H57.4139H57.4373H57.4606H57.484H57.5074H57.5307H57.5541H57.5774H57.6008H57.6242H57.6475H57.6709H57.6942H57.7176H57.7409H57.7643H57.7877H57.811H57.8344H57.8577H57.8811H57.9045H57.9278H57.9512H57.9745H57.9979H58.0213H58.0446H58.068H58.0913H58.1147H58.1381H58.1614H58.1848H58.2081H58.2315H58.2548H58.2782H58.3016H58.3249H58.3483H58.3716H58.395H58.4184H58.4417H58.4651H58.4884H58.5118H58.5352H58.5585H58.5819H58.6052H58.6286H58.6519H58.6753H58.6987H58.722H58.7454H58.7687H58.7921H58.8155H58.8388H58.8622H58.8855H58.9089H58.9322H58.9556H58.979H59.0023H59.0257H59.049H59.0724H59.0958H59.1191H59.1425H59.1658H59.1892H59.2126H59.2359H59.2593H59.2826H59.306H59.3293H59.3527H59.3761H59.3994H59.4228H59.4461H59.4695H59.4929H59.5162H59.5396H59.5629H59.5863H59.6096H59.633H59.6564H59.6797H59.7031H59.7264H59.7498H59.7732H59.7965H59.8199H59.8432H59.8666H59.8899H59.9133H59.9367H59.96H59.9834H60.0067H60.0301H60.0535H60.0768H60.1002H60.1235H60.1469H60.1702H60.1936H60.217H60.2403H60.2637H60.287H60.3104H60.3338H60.3571H60.3805H60.4038H60.4272H60.4506H60.4739H60.4973H60.5206H60.544H60.5673H60.5907H60.613H60.6141L60.8694 5.41778L60.8715 5.41777C61.0106 5.41777 61.1705 5.42121 61.3295 5.44363L61.3312 5.44388C61.554 5.47664 61.7598 5.55792 61.9138 5.7207C62.0683 5.88382 62.1373 6.0935 62.156 6.3169L62.1561 6.31769C62.1754 6.55589 62.1406 6.78689 62.0089 6.98122C61.8764 7.17674 61.6749 7.29233 61.447 7.35697L61.4469 7.35701C61.2145 7.42277 60.9527 7.42654 60.7445 7.42654H60.7444C56.7716 7.42536 52.7981 7.42575 48.8242 7.42614C46.837 7.42634 44.8498 7.42654 42.8626 7.42654H42.8591C37.1459 7.42654 31.4344 7.42654 25.7212 7.42477C25.7211 7.42477 25.7211 7.42477 25.7211 7.42477L25.7212 7.12477C25.4972 7.12477 25.2804 7.12125 25.0917 7.07188L24.2652 6.34694ZM24.2652 6.34694L24.2651 6.34834C24.2506 6.58502 24.2957 6.81315 24.4369 7.0024C24.577 7.19033 24.7833 7.30153 25.0159 7.36215L24.2652 6.34694Z" fill="#105F43" stroke="#105F43" stroke-width="0.6"/>
<path d="M16.4374 7.36513L16.4132 7.36466C15.8918 7.35459 15.4578 6.93357 15.4578 6.40706C15.4578 6.15209 15.5632 5.91143 15.7461 5.73362L16.4374 7.36513ZM16.4374 7.36513L16.4545 7.36269M16.4374 7.36513L16.4545 7.36269M16.4545 7.36269C16.9611 7.35092 17.3772 6.95489 17.3976 6.44203L16.4545 7.36269ZM16.48 5.45293L16.48 5.45323C16.997 5.47626 17.4184 5.92195 17.3976 6.44185L16.48 5.45293ZM16.48 5.45293H16.4666M16.48 5.45293H16.4666M16.4666 5.45293H16.4366C16.179 5.45293 15.9328 5.55195 15.7462 5.73354L16.4666 5.45293Z" fill="#105F43" stroke="#105F43" stroke-width="0.6"/>
<path d="M11.9737 7.36551H11.9825L11.9913 7.36499L12.0185 7.36339C12.5508 7.34111 12.941 6.90889 12.9259 6.37816L12.9259 6.37791C12.9105 5.85078 12.4939 5.45195 11.9596 5.45195V5.4519L11.9538 5.45201C11.4241 5.46215 11.0125 5.87373 11.0125 6.40785L11.0125 6.40924C11.015 6.95498 11.4257 7.36551 11.9737 7.36551Z" fill="#105F43" stroke="#105F43" stroke-width="0.6"/>
<path d="M6.82763 7.08314C7.00216 7.26019 7.23719 7.35781 7.48686 7.36437L7.50171 7.36684L7.52871 7.36645C8.06505 7.35872 8.45912 6.9427 8.45912 6.40882C8.45912 5.87589 8.05545 5.4606 7.51807 5.45296L7.51807 5.45293H7.5138C6.98817 5.45293 6.57512 5.8554 6.5598 6.37889L6.55979 6.37918C6.55237 6.64163 6.64433 6.89454 6.82614 7.08162L6.82613 7.08162L6.82763 7.08314Z" fill="#105F43" stroke="#105F43" stroke-width="0.6"/>
</svg>
