<svg width="68" height="68" viewBox="0 0 68 68" fill="none" xmlns="http://www.w3.org/2000/svg">
<mask id="path-1-outside-1_2007_1343" maskUnits="userSpaceOnUse" x="-0.5" y="-1" width="69" height="69" fill="black">
<rect fill="white" x="-0.5" y="-1" width="69" height="69"/>
<path d="M44.9941 0C47.0877 0 49.1813 0 51.2749 0C51.6888 0.2827 51.8342 0.66578 51.8219 1.17177C51.7953 2.42958 51.8137 3.6874 51.8137 5.01691C52.1476 5.01691 52.4037 5.01691 52.6598 5.01691C56.3451 5.01691 60.0284 5.01691 63.7138 5.01691C63.976 5.01691 64.2382 5.01076 64.4984 5.03535C65.0023 5.08246 65.3219 5.36107 65.3301 5.8732C65.3485 7.26827 65.3547 8.66333 65.326 10.0584C65.3157 10.5951 64.9757 10.8799 64.4267 10.884C64.0641 10.886 63.7015 10.884 63.3245 10.884C63.3245 26.2112 63.3245 41.4422 63.3245 56.6978C63.4638 56.7163 63.5683 56.7388 63.6728 56.7449C64.9204 56.8023 65.0269 56.915 65.0269 58.181C65.0269 59.1336 65.0269 60.0882 65.0269 61.1084C65.4591 61.1084 65.8258 61.1329 66.1864 61.1022C66.7231 61.0571 67.1717 61.1883 67.4995 61.6328C67.4995 63.247 67.4995 64.8613 67.4995 66.4735C67.1553 66.9549 66.6657 67.0041 66.1188 67.0041C51.574 66.9959 37.0273 66.9979 22.4825 66.9979C15.5687 66.9979 8.65683 66.9979 1.74296 66.9979C0.757606 66.9979 0.503585 66.7439 0.501536 65.7647C0.499488 64.6298 0.499488 63.497 0.501536 62.3621C0.503585 61.346 0.745314 61.1084 1.78598 61.1084C3.55183 61.1063 5.31974 61.1084 7.08559 61.1063C7.29454 61.1063 7.50554 61.0858 7.70425 61.0735C7.70425 58.5702 7.70425 56.1201 7.70425 53.7479C6.85615 53.4836 6.06746 53.2993 5.32588 52.9981C1.20829 51.3163 -0.850509 46.4632 1.79827 42.3395C1.95806 42.0916 2.01542 41.6819 1.93962 41.3951C1.44797 39.5842 1.67331 37.8921 2.70168 36.3291C2.93112 35.9787 2.88605 35.6776 2.85737 35.2986C2.79387 34.4423 2.66071 33.5307 2.87581 32.7277C3.73415 29.5381 7.15114 27.7763 10.308 28.7699C10.5825 28.8559 11.0291 28.944 11.1725 28.8047C11.5228 28.4606 11.8259 28.0672 11.6272 27.4322C11.4121 26.7398 11.2851 25.9757 11.3302 25.2546C11.6026 20.7867 16.0828 17.6299 20.5077 18.7996C21.5586 19.0782 22.5481 19.5903 23.601 20.0082C23.601 19.832 23.601 19.5965 23.601 19.3609C23.601 16.8535 23.601 14.346 23.601 11.8365C23.601 10.6975 23.6359 10.9004 22.6607 10.886C21.7819 10.8717 21.5463 10.6402 21.5402 9.74702C21.532 8.61212 21.5361 7.47927 21.5381 6.34437C21.5402 5.23201 21.7553 5.01691 22.884 5.01691C26.678 5.01486 30.4739 5.01691 34.2679 5.01691C34.5178 5.01691 34.7656 5.01691 35.0504 5.01691C35.0504 3.6874 35.0709 2.46851 35.0402 1.25167C35.0279 0.731334 35.1631 0.319574 35.5728 0C37.6664 0 39.76 0 41.8536 0C42.3064 0.247875 42.4662 0.643246 42.4539 1.14104C42.4395 1.68596 42.4518 2.23088 42.4518 2.77579C42.4518 3.50712 42.4518 4.23846 42.4518 4.97389C43.1627 4.97389 43.7629 4.97389 44.4369 4.97389C44.4369 3.67511 44.4512 2.41525 44.4307 1.15743C44.4205 0.657586 44.5577 0.266312 44.9941 0ZM61.5648 56.7163C61.5648 41.4156 61.5648 26.1846 61.5648 10.9331C49.4579 10.9331 37.3939 10.9331 25.2645 10.9331C25.2645 11.2138 25.2645 11.4494 25.2645 11.685C25.2645 14.9565 25.2563 18.226 25.2747 21.4975C25.2767 21.8478 25.373 22.2268 25.5267 22.5423C26.2621 24.0541 26.4772 25.6213 25.9937 27.2355C25.8258 27.7948 25.8954 28.1902 26.2129 28.6716C27.5752 30.7426 27.8866 32.9838 27.1163 35.3478C26.9893 35.7391 27.0098 36.0013 27.2393 36.3536C29.97 40.5102 29.3267 45.2689 25.6352 48.5487C25.4304 48.731 25.2829 49.0936 25.2788 49.3722C25.2501 51.6174 25.2624 53.8647 25.2645 56.1099C25.2645 56.2984 25.2911 56.4868 25.3075 56.706C28.1754 56.706 30.9984 56.706 33.8827 56.706C33.8827 56.411 33.8827 56.1529 33.8827 55.8948C33.8827 50.9885 33.8827 46.0822 33.8827 41.1759C33.8827 40.1066 34.1101 39.8812 35.1917 39.8812C40.731 39.8792 46.2683 39.8792 51.8076 39.8812C52.9466 39.8812 53.1186 40.0574 53.1186 41.223C53.1186 46.1293 53.1186 51.0356 53.1186 55.9419C53.1186 56.1918 53.1186 56.4418 53.1186 56.7163C55.9887 56.7163 58.7501 56.7163 61.5648 56.7163ZM17.9265 49.3025C17.9265 48.0406 17.9491 46.8238 17.9101 45.607C17.8999 45.3202 17.7401 44.9924 17.5476 44.7691C17.1235 44.2733 16.5602 43.8862 16.1894 43.3576C15.7039 42.6673 14.1039 42.1715 15.1446 41.135C16.1422 40.1414 16.6114 41.7413 17.3284 42.1674C17.5168 42.2801 17.6623 42.4645 17.9183 42.698C17.9183 42.3026 17.9183 42.0466 17.9183 41.7885C17.9183 41.0264 17.902 40.2623 17.9224 39.5002C17.9368 39.0065 18.1969 38.6562 18.7132 38.6234C19.1966 38.5927 19.4793 38.8918 19.5736 39.3507C19.6125 39.5391 19.5982 39.7419 19.6002 39.9366C19.6023 40.8625 19.6002 41.7884 19.6002 42.9049C20.2373 42.2596 20.731 41.7454 21.239 41.2497C21.7389 40.7601 22.1752 40.7089 22.5563 41.0653C22.9578 41.4402 22.9168 41.9216 22.417 42.4317C21.6057 43.2552 20.7822 44.0644 19.9689 44.8859C19.8358 45.0211 19.6371 45.187 19.635 45.3427C19.6084 46.6579 19.6207 47.9751 19.6207 49.2964C21.827 49.1182 23.8755 48.1123 25.2767 46.5595C27.8047 43.7592 27.9194 39.8321 25.5451 36.8781C25.2112 36.4643 24.9879 36.0791 25.244 35.5199C26.3174 33.1681 25.9692 30.9782 24.3795 28.9829C23.9739 28.4728 23.9247 28.0242 24.1828 27.4301C24.8445 25.904 24.6929 24.3983 23.8305 22.993C22.3535 20.5859 19.2806 19.619 16.5417 20.6597C13.7659 21.7147 12.2664 24.6646 13.3009 27.2396C13.6307 28.059 13.4791 28.5896 12.9772 29.2431C11.6805 30.9291 11.2708 32.867 12.0656 34.8418C12.4979 35.9173 12.2561 36.5872 11.6334 37.425C10.48 38.9758 10.0703 40.7806 10.394 42.6878C11.0004 46.283 14.0609 48.9666 17.9265 49.3025ZM2.21208 65.2649C23.4433 65.2649 44.6069 65.2649 65.7685 65.2649C65.7685 64.425 65.7685 63.6301 65.7685 62.8373C44.5598 62.8373 23.3962 62.8373 2.21208 62.8373C2.21208 63.665 2.21208 64.4414 2.21208 65.2649ZM10.3162 30.4722C9.76715 30.3801 9.22018 30.2285 8.66912 30.2039C5.76017 30.0748 3.4535 32.8322 4.67239 35.5055C4.91002 36.0279 4.71541 36.4171 4.39789 36.8187C3.3101 38.2014 3.04789 39.7174 3.7403 41.3542C3.97998 41.9216 3.90214 42.3723 3.5211 42.8578C2.19569 44.5438 1.89865 46.4284 2.76109 48.3827C3.68704 50.4784 5.42011 51.5703 7.72679 51.9411C7.72679 51.6277 7.72679 51.3695 7.72679 51.1114C7.72679 50.1957 7.7063 49.28 7.73088 48.3643C7.74522 47.8829 7.98285 47.5224 8.51958 47.4937C9.00918 47.467 9.29803 47.7334 9.38202 48.2045C9.41684 48.395 9.40045 48.5958 9.40045 48.7925C9.4025 49.8311 9.40045 50.8676 9.40045 51.937C11.0905 51.6809 12.4487 51.0028 13.5344 49.6897C13.2599 49.5094 13.0264 49.3599 12.797 49.2042C11.5699 48.3705 10.5415 47.3359 9.8327 46.0331C8.05455 42.7697 8.19795 39.5658 10.2527 36.4684C10.5231 36.0607 10.5272 35.7391 10.4165 35.274C10.2117 34.4157 10.0867 33.5225 10.058 32.6396C10.0376 31.9554 10.2137 31.2671 10.3162 30.4722ZM23.5498 61.0694C36.8408 61.0694 50.0663 61.0694 63.3 61.0694C63.3 60.1763 63.3 59.32 63.3 58.4493C50.0233 58.4493 36.7999 58.4493 23.5498 58.4493C23.5498 59.3343 23.5498 60.1783 23.5498 61.0694ZM35.6015 41.5693C35.6015 46.6476 35.6015 51.6584 35.6015 56.706C37.9532 56.706 40.2742 56.706 42.6157 56.706C42.6157 51.644 42.6157 46.621 42.6157 41.5693C40.266 41.5693 37.9614 41.5693 35.6015 41.5693ZM44.3775 56.6937C46.7538 56.6937 49.0727 56.6937 51.4101 56.6937C51.4101 51.6338 51.4101 46.6251 51.4101 41.5795C49.0523 41.5795 46.7313 41.5795 44.3775 41.5795C44.3775 46.6271 44.3775 51.6358 44.3775 56.6937ZM23.2364 9.17138C36.7323 9.17138 50.1728 9.17138 63.64 9.17138C63.64 8.33352 63.64 7.54073 63.64 6.72745C50.1544 6.72745 36.7138 6.72745 23.2364 6.72745C23.2364 7.54278 23.2364 8.31918 23.2364 9.17138ZM17.945 61.0715C17.9655 60.9568 17.9921 60.8748 17.9921 60.7908C17.9798 57.675 17.9573 54.5591 17.9552 51.4433C17.9552 51.0623 17.7749 50.9721 17.4554 50.9168C16.8572 50.8144 16.259 50.6956 15.6711 50.544C15.3228 50.4559 15.0852 50.462 14.8312 50.7857C13.9032 51.9657 12.6822 52.7482 11.2708 53.2214C10.6788 53.4201 10.058 53.5308 9.46806 53.6762C9.46806 56.157 9.46806 58.6091 9.46806 61.0694C12.3237 61.0715 15.1241 61.0715 17.945 61.0715ZM21.8331 61.0797C21.8331 59.9837 21.829 58.9615 21.8331 57.9392C21.8372 57.0174 22.0687 56.747 22.9762 56.7572C23.4638 56.7634 23.6133 56.6159 23.6072 56.1283C23.5826 54.2559 23.599 52.3836 23.5949 50.5132C23.5949 50.3494 23.5621 50.1834 23.5498 50.0667C22.2285 50.4252 20.9441 50.7755 19.6883 51.1176C19.6883 54.4301 19.6883 57.7487 19.6883 61.0797C20.4237 61.0797 21.0916 61.0797 21.8331 61.0797ZM40.729 4.98003C40.729 3.86972 40.729 2.79832 40.729 1.73103C39.379 1.73103 38.0802 1.73103 36.7732 1.73103C36.7732 2.83315 36.7732 3.8902 36.7732 4.98003C38.1068 4.98003 39.4036 4.98003 40.729 4.98003ZM46.1392 1.70849C46.1392 2.8352 46.1392 3.89225 46.1392 4.97799C47.4749 4.97799 48.7696 4.97799 50.0868 4.97799C50.0868 3.86767 50.0868 2.79832 50.0868 1.70849C48.7552 1.70849 47.4769 1.70849 46.1392 1.70849Z"/>
</mask>
<path d="M44.9941 0C47.0877 0 49.1813 0 51.2749 0C51.6888 0.2827 51.8342 0.66578 51.8219 1.17177C51.7953 2.42958 51.8137 3.6874 51.8137 5.01691C52.1476 5.01691 52.4037 5.01691 52.6598 5.01691C56.3451 5.01691 60.0284 5.01691 63.7138 5.01691C63.976 5.01691 64.2382 5.01076 64.4984 5.03535C65.0023 5.08246 65.3219 5.36107 65.3301 5.8732C65.3485 7.26827 65.3547 8.66333 65.326 10.0584C65.3157 10.5951 64.9757 10.8799 64.4267 10.884C64.0641 10.886 63.7015 10.884 63.3245 10.884C63.3245 26.2112 63.3245 41.4422 63.3245 56.6978C63.4638 56.7163 63.5683 56.7388 63.6728 56.7449C64.9204 56.8023 65.0269 56.915 65.0269 58.181C65.0269 59.1336 65.0269 60.0882 65.0269 61.1084C65.4591 61.1084 65.8258 61.1329 66.1864 61.1022C66.7231 61.0571 67.1717 61.1883 67.4995 61.6328C67.4995 63.247 67.4995 64.8613 67.4995 66.4735C67.1553 66.9549 66.6657 67.0041 66.1188 67.0041C51.574 66.9959 37.0273 66.9979 22.4825 66.9979C15.5687 66.9979 8.65683 66.9979 1.74296 66.9979C0.757606 66.9979 0.503585 66.7439 0.501536 65.7647C0.499488 64.6298 0.499488 63.497 0.501536 62.3621C0.503585 61.346 0.745314 61.1084 1.78598 61.1084C3.55183 61.1063 5.31974 61.1084 7.08559 61.1063C7.29454 61.1063 7.50554 61.0858 7.70425 61.0735C7.70425 58.5702 7.70425 56.1201 7.70425 53.7479C6.85615 53.4836 6.06746 53.2993 5.32588 52.9981C1.20829 51.3163 -0.850509 46.4632 1.79827 42.3395C1.95806 42.0916 2.01542 41.6819 1.93962 41.3951C1.44797 39.5842 1.67331 37.8921 2.70168 36.3291C2.93112 35.9787 2.88605 35.6776 2.85737 35.2986C2.79387 34.4423 2.66071 33.5307 2.87581 32.7277C3.73415 29.5381 7.15114 27.7763 10.308 28.7699C10.5825 28.8559 11.0291 28.944 11.1725 28.8047C11.5228 28.4606 11.8259 28.0672 11.6272 27.4322C11.4121 26.7398 11.2851 25.9757 11.3302 25.2546C11.6026 20.7867 16.0828 17.6299 20.5077 18.7996C21.5586 19.0782 22.5481 19.5903 23.601 20.0082C23.601 19.832 23.601 19.5965 23.601 19.3609C23.601 16.8535 23.601 14.346 23.601 11.8365C23.601 10.6975 23.6359 10.9004 22.6607 10.886C21.7819 10.8717 21.5463 10.6402 21.5402 9.74702C21.532 8.61212 21.5361 7.47927 21.5381 6.34437C21.5402 5.23201 21.7553 5.01691 22.884 5.01691C26.678 5.01486 30.4739 5.01691 34.2679 5.01691C34.5178 5.01691 34.7656 5.01691 35.0504 5.01691C35.0504 3.6874 35.0709 2.46851 35.0402 1.25167C35.0279 0.731334 35.1631 0.319574 35.5728 0C37.6664 0 39.76 0 41.8536 0C42.3064 0.247875 42.4662 0.643246 42.4539 1.14104C42.4395 1.68596 42.4518 2.23088 42.4518 2.77579C42.4518 3.50712 42.4518 4.23846 42.4518 4.97389C43.1627 4.97389 43.7629 4.97389 44.4369 4.97389C44.4369 3.67511 44.4512 2.41525 44.4307 1.15743C44.4205 0.657586 44.5577 0.266312 44.9941 0ZM61.5648 56.7163C61.5648 41.4156 61.5648 26.1846 61.5648 10.9331C49.4579 10.9331 37.3939 10.9331 25.2645 10.9331C25.2645 11.2138 25.2645 11.4494 25.2645 11.685C25.2645 14.9565 25.2563 18.226 25.2747 21.4975C25.2767 21.8478 25.373 22.2268 25.5267 22.5423C26.2621 24.0541 26.4772 25.6213 25.9937 27.2355C25.8258 27.7948 25.8954 28.1902 26.2129 28.6716C27.5752 30.7426 27.8866 32.9838 27.1163 35.3478C26.9893 35.7391 27.0098 36.0013 27.2393 36.3536C29.97 40.5102 29.3267 45.2689 25.6352 48.5487C25.4304 48.731 25.2829 49.0936 25.2788 49.3722C25.2501 51.6174 25.2624 53.8647 25.2645 56.1099C25.2645 56.2984 25.2911 56.4868 25.3075 56.706C28.1754 56.706 30.9984 56.706 33.8827 56.706C33.8827 56.411 33.8827 56.1529 33.8827 55.8948C33.8827 50.9885 33.8827 46.0822 33.8827 41.1759C33.8827 40.1066 34.1101 39.8812 35.1917 39.8812C40.731 39.8792 46.2683 39.8792 51.8076 39.8812C52.9466 39.8812 53.1186 40.0574 53.1186 41.223C53.1186 46.1293 53.1186 51.0356 53.1186 55.9419C53.1186 56.1918 53.1186 56.4418 53.1186 56.7163C55.9887 56.7163 58.7501 56.7163 61.5648 56.7163ZM17.9265 49.3025C17.9265 48.0406 17.9491 46.8238 17.9101 45.607C17.8999 45.3202 17.7401 44.9924 17.5476 44.7691C17.1235 44.2733 16.5602 43.8862 16.1894 43.3576C15.7039 42.6673 14.1039 42.1715 15.1446 41.135C16.1422 40.1414 16.6114 41.7413 17.3284 42.1674C17.5168 42.2801 17.6623 42.4645 17.9183 42.698C17.9183 42.3026 17.9183 42.0466 17.9183 41.7885C17.9183 41.0264 17.902 40.2623 17.9224 39.5002C17.9368 39.0065 18.1969 38.6562 18.7132 38.6234C19.1966 38.5927 19.4793 38.8918 19.5736 39.3507C19.6125 39.5391 19.5982 39.7419 19.6002 39.9366C19.6023 40.8625 19.6002 41.7884 19.6002 42.9049C20.2373 42.2596 20.731 41.7454 21.239 41.2497C21.7389 40.7601 22.1752 40.7089 22.5563 41.0653C22.9578 41.4402 22.9168 41.9216 22.417 42.4317C21.6057 43.2552 20.7822 44.0644 19.9689 44.8859C19.8358 45.0211 19.6371 45.187 19.635 45.3427C19.6084 46.6579 19.6207 47.9751 19.6207 49.2964C21.827 49.1182 23.8755 48.1123 25.2767 46.5595C27.8047 43.7592 27.9194 39.8321 25.5451 36.8781C25.2112 36.4643 24.9879 36.0791 25.244 35.5199C26.3174 33.1681 25.9692 30.9782 24.3795 28.9829C23.9739 28.4728 23.9247 28.0242 24.1828 27.4301C24.8445 25.904 24.6929 24.3983 23.8305 22.993C22.3535 20.5859 19.2806 19.619 16.5417 20.6597C13.7659 21.7147 12.2664 24.6646 13.3009 27.2396C13.6307 28.059 13.4791 28.5896 12.9772 29.2431C11.6805 30.9291 11.2708 32.867 12.0656 34.8418C12.4979 35.9173 12.2561 36.5872 11.6334 37.425C10.48 38.9758 10.0703 40.7806 10.394 42.6878C11.0004 46.283 14.0609 48.9666 17.9265 49.3025ZM2.21208 65.2649C23.4433 65.2649 44.6069 65.2649 65.7685 65.2649C65.7685 64.425 65.7685 63.6301 65.7685 62.8373C44.5598 62.8373 23.3962 62.8373 2.21208 62.8373C2.21208 63.665 2.21208 64.4414 2.21208 65.2649ZM10.3162 30.4722C9.76715 30.3801 9.22018 30.2285 8.66912 30.2039C5.76017 30.0748 3.4535 32.8322 4.67239 35.5055C4.91002 36.0279 4.71541 36.4171 4.39789 36.8187C3.3101 38.2014 3.04789 39.7174 3.7403 41.3542C3.97998 41.9216 3.90214 42.3723 3.5211 42.8578C2.19569 44.5438 1.89865 46.4284 2.76109 48.3827C3.68704 50.4784 5.42011 51.5703 7.72679 51.9411C7.72679 51.6277 7.72679 51.3695 7.72679 51.1114C7.72679 50.1957 7.7063 49.28 7.73088 48.3643C7.74522 47.8829 7.98285 47.5224 8.51958 47.4937C9.00918 47.467 9.29803 47.7334 9.38202 48.2045C9.41684 48.395 9.40045 48.5958 9.40045 48.7925C9.4025 49.8311 9.40045 50.8676 9.40045 51.937C11.0905 51.6809 12.4487 51.0028 13.5344 49.6897C13.2599 49.5094 13.0264 49.3599 12.797 49.2042C11.5699 48.3705 10.5415 47.3359 9.8327 46.0331C8.05455 42.7697 8.19795 39.5658 10.2527 36.4684C10.5231 36.0607 10.5272 35.7391 10.4165 35.274C10.2117 34.4157 10.0867 33.5225 10.058 32.6396C10.0376 31.9554 10.2137 31.2671 10.3162 30.4722ZM23.5498 61.0694C36.8408 61.0694 50.0663 61.0694 63.3 61.0694C63.3 60.1763 63.3 59.32 63.3 58.4493C50.0233 58.4493 36.7999 58.4493 23.5498 58.4493C23.5498 59.3343 23.5498 60.1783 23.5498 61.0694ZM35.6015 41.5693C35.6015 46.6476 35.6015 51.6584 35.6015 56.706C37.9532 56.706 40.2742 56.706 42.6157 56.706C42.6157 51.644 42.6157 46.621 42.6157 41.5693C40.266 41.5693 37.9614 41.5693 35.6015 41.5693ZM44.3775 56.6937C46.7538 56.6937 49.0727 56.6937 51.4101 56.6937C51.4101 51.6338 51.4101 46.6251 51.4101 41.5795C49.0523 41.5795 46.7313 41.5795 44.3775 41.5795C44.3775 46.6271 44.3775 51.6358 44.3775 56.6937ZM23.2364 9.17138C36.7323 9.17138 50.1728 9.17138 63.64 9.17138C63.64 8.33352 63.64 7.54073 63.64 6.72745C50.1544 6.72745 36.7138 6.72745 23.2364 6.72745C23.2364 7.54278 23.2364 8.31918 23.2364 9.17138ZM17.945 61.0715C17.9655 60.9568 17.9921 60.8748 17.9921 60.7908C17.9798 57.675 17.9573 54.5591 17.9552 51.4433C17.9552 51.0623 17.7749 50.9721 17.4554 50.9168C16.8572 50.8144 16.259 50.6956 15.6711 50.544C15.3228 50.4559 15.0852 50.462 14.8312 50.7857C13.9032 51.9657 12.6822 52.7482 11.2708 53.2214C10.6788 53.4201 10.058 53.5308 9.46806 53.6762C9.46806 56.157 9.46806 58.6091 9.46806 61.0694C12.3237 61.0715 15.1241 61.0715 17.945 61.0715ZM21.8331 61.0797C21.8331 59.9837 21.829 58.9615 21.8331 57.9392C21.8372 57.0174 22.0687 56.747 22.9762 56.7572C23.4638 56.7634 23.6133 56.6159 23.6072 56.1283C23.5826 54.2559 23.599 52.3836 23.5949 50.5132C23.5949 50.3494 23.5621 50.1834 23.5498 50.0667C22.2285 50.4252 20.9441 50.7755 19.6883 51.1176C19.6883 54.4301 19.6883 57.7487 19.6883 61.0797C20.4237 61.0797 21.0916 61.0797 21.8331 61.0797ZM40.729 4.98003C40.729 3.86972 40.729 2.79832 40.729 1.73103C39.379 1.73103 38.0802 1.73103 36.7732 1.73103C36.7732 2.83315 36.7732 3.8902 36.7732 4.98003C38.1068 4.98003 39.4036 4.98003 40.729 4.98003ZM46.1392 1.70849C46.1392 2.8352 46.1392 3.89225 46.1392 4.97799C47.4749 4.97799 48.7696 4.97799 50.0868 4.97799C50.0868 3.86767 50.0868 2.79832 50.0868 1.70849C48.7552 1.70849 47.4769 1.70849 46.1392 1.70849Z" fill="#105F43"/>
<path d="M44.9941 0C47.0877 0 49.1813 0 51.2749 0C51.6888 0.2827 51.8342 0.66578 51.8219 1.17177C51.7953 2.42958 51.8137 3.6874 51.8137 5.01691C52.1476 5.01691 52.4037 5.01691 52.6598 5.01691C56.3451 5.01691 60.0284 5.01691 63.7138 5.01691C63.976 5.01691 64.2382 5.01076 64.4984 5.03535C65.0023 5.08246 65.3219 5.36107 65.3301 5.8732C65.3485 7.26827 65.3547 8.66333 65.326 10.0584C65.3157 10.5951 64.9757 10.8799 64.4267 10.884C64.0641 10.886 63.7015 10.884 63.3245 10.884C63.3245 26.2112 63.3245 41.4422 63.3245 56.6978C63.4638 56.7163 63.5683 56.7388 63.6728 56.7449C64.9204 56.8023 65.0269 56.915 65.0269 58.181C65.0269 59.1336 65.0269 60.0882 65.0269 61.1084C65.4591 61.1084 65.8258 61.1329 66.1864 61.1022C66.7231 61.0571 67.1717 61.1883 67.4995 61.6328C67.4995 63.247 67.4995 64.8613 67.4995 66.4735C67.1553 66.9549 66.6657 67.0041 66.1188 67.0041C51.574 66.9959 37.0273 66.9979 22.4825 66.9979C15.5687 66.9979 8.65683 66.9979 1.74296 66.9979C0.757606 66.9979 0.503585 66.7439 0.501536 65.7647C0.499488 64.6298 0.499488 63.497 0.501536 62.3621C0.503585 61.346 0.745314 61.1084 1.78598 61.1084C3.55183 61.1063 5.31974 61.1084 7.08559 61.1063C7.29454 61.1063 7.50554 61.0858 7.70425 61.0735C7.70425 58.5702 7.70425 56.1201 7.70425 53.7479C6.85615 53.4836 6.06746 53.2993 5.32588 52.9981C1.20829 51.3163 -0.850509 46.4632 1.79827 42.3395C1.95806 42.0916 2.01542 41.6819 1.93962 41.3951C1.44797 39.5842 1.67331 37.8921 2.70168 36.3291C2.93112 35.9787 2.88605 35.6776 2.85737 35.2986C2.79387 34.4423 2.66071 33.5307 2.87581 32.7277C3.73415 29.5381 7.15114 27.7763 10.308 28.7699C10.5825 28.8559 11.0291 28.944 11.1725 28.8047C11.5228 28.4606 11.8259 28.0672 11.6272 27.4322C11.4121 26.7398 11.2851 25.9757 11.3302 25.2546C11.6026 20.7867 16.0828 17.6299 20.5077 18.7996C21.5586 19.0782 22.5481 19.5903 23.601 20.0082C23.601 19.832 23.601 19.5965 23.601 19.3609C23.601 16.8535 23.601 14.346 23.601 11.8365C23.601 10.6975 23.6359 10.9004 22.6607 10.886C21.7819 10.8717 21.5463 10.6402 21.5402 9.74702C21.532 8.61212 21.5361 7.47927 21.5381 6.34437C21.5402 5.23201 21.7553 5.01691 22.884 5.01691C26.678 5.01486 30.4739 5.01691 34.2679 5.01691C34.5178 5.01691 34.7656 5.01691 35.0504 5.01691C35.0504 3.6874 35.0709 2.46851 35.0402 1.25167C35.0279 0.731334 35.1631 0.319574 35.5728 0C37.6664 0 39.76 0 41.8536 0C42.3064 0.247875 42.4662 0.643246 42.4539 1.14104C42.4395 1.68596 42.4518 2.23088 42.4518 2.77579C42.4518 3.50712 42.4518 4.23846 42.4518 4.97389C43.1627 4.97389 43.7629 4.97389 44.4369 4.97389C44.4369 3.67511 44.4512 2.41525 44.4307 1.15743C44.4205 0.657586 44.5577 0.266312 44.9941 0ZM61.5648 56.7163C61.5648 41.4156 61.5648 26.1846 61.5648 10.9331C49.4579 10.9331 37.3939 10.9331 25.2645 10.9331C25.2645 11.2138 25.2645 11.4494 25.2645 11.685C25.2645 14.9565 25.2563 18.226 25.2747 21.4975C25.2767 21.8478 25.373 22.2268 25.5267 22.5423C26.2621 24.0541 26.4772 25.6213 25.9937 27.2355C25.8258 27.7948 25.8954 28.1902 26.2129 28.6716C27.5752 30.7426 27.8866 32.9838 27.1163 35.3478C26.9893 35.7391 27.0098 36.0013 27.2393 36.3536C29.97 40.5102 29.3267 45.2689 25.6352 48.5487C25.4304 48.731 25.2829 49.0936 25.2788 49.3722C25.2501 51.6174 25.2624 53.8647 25.2645 56.1099C25.2645 56.2984 25.2911 56.4868 25.3075 56.706C28.1754 56.706 30.9984 56.706 33.8827 56.706C33.8827 56.411 33.8827 56.1529 33.8827 55.8948C33.8827 50.9885 33.8827 46.0822 33.8827 41.1759C33.8827 40.1066 34.1101 39.8812 35.1917 39.8812C40.731 39.8792 46.2683 39.8792 51.8076 39.8812C52.9466 39.8812 53.1186 40.0574 53.1186 41.223C53.1186 46.1293 53.1186 51.0356 53.1186 55.9419C53.1186 56.1918 53.1186 56.4418 53.1186 56.7163C55.9887 56.7163 58.7501 56.7163 61.5648 56.7163ZM17.9265 49.3025C17.9265 48.0406 17.9491 46.8238 17.9101 45.607C17.8999 45.3202 17.7401 44.9924 17.5476 44.7691C17.1235 44.2733 16.5602 43.8862 16.1894 43.3576C15.7039 42.6673 14.1039 42.1715 15.1446 41.135C16.1422 40.1414 16.6114 41.7413 17.3284 42.1674C17.5168 42.2801 17.6623 42.4645 17.9183 42.698C17.9183 42.3026 17.9183 42.0466 17.9183 41.7885C17.9183 41.0264 17.902 40.2623 17.9224 39.5002C17.9368 39.0065 18.1969 38.6562 18.7132 38.6234C19.1966 38.5927 19.4793 38.8918 19.5736 39.3507C19.6125 39.5391 19.5982 39.7419 19.6002 39.9366C19.6023 40.8625 19.6002 41.7884 19.6002 42.9049C20.2373 42.2596 20.731 41.7454 21.239 41.2497C21.7389 40.7601 22.1752 40.7089 22.5563 41.0653C22.9578 41.4402 22.9168 41.9216 22.417 42.4317C21.6057 43.2552 20.7822 44.0644 19.9689 44.8859C19.8358 45.0211 19.6371 45.187 19.635 45.3427C19.6084 46.6579 19.6207 47.9751 19.6207 49.2964C21.827 49.1182 23.8755 48.1123 25.2767 46.5595C27.8047 43.7592 27.9194 39.8321 25.5451 36.8781C25.2112 36.4643 24.9879 36.0791 25.244 35.5199C26.3174 33.1681 25.9692 30.9782 24.3795 28.9829C23.9739 28.4728 23.9247 28.0242 24.1828 27.4301C24.8445 25.904 24.6929 24.3983 23.8305 22.993C22.3535 20.5859 19.2806 19.619 16.5417 20.6597C13.7659 21.7147 12.2664 24.6646 13.3009 27.2396C13.6307 28.059 13.4791 28.5896 12.9772 29.2431C11.6805 30.9291 11.2708 32.867 12.0656 34.8418C12.4979 35.9173 12.2561 36.5872 11.6334 37.425C10.48 38.9758 10.0703 40.7806 10.394 42.6878C11.0004 46.283 14.0609 48.9666 17.9265 49.3025ZM2.21208 65.2649C23.4433 65.2649 44.6069 65.2649 65.7685 65.2649C65.7685 64.425 65.7685 63.6301 65.7685 62.8373C44.5598 62.8373 23.3962 62.8373 2.21208 62.8373C2.21208 63.665 2.21208 64.4414 2.21208 65.2649ZM10.3162 30.4722C9.76715 30.3801 9.22018 30.2285 8.66912 30.2039C5.76017 30.0748 3.4535 32.8322 4.67239 35.5055C4.91002 36.0279 4.71541 36.4171 4.39789 36.8187C3.3101 38.2014 3.04789 39.7174 3.7403 41.3542C3.97998 41.9216 3.90214 42.3723 3.5211 42.8578C2.19569 44.5438 1.89865 46.4284 2.76109 48.3827C3.68704 50.4784 5.42011 51.5703 7.72679 51.9411C7.72679 51.6277 7.72679 51.3695 7.72679 51.1114C7.72679 50.1957 7.7063 49.28 7.73088 48.3643C7.74522 47.8829 7.98285 47.5224 8.51958 47.4937C9.00918 47.467 9.29803 47.7334 9.38202 48.2045C9.41684 48.395 9.40045 48.5958 9.40045 48.7925C9.4025 49.8311 9.40045 50.8676 9.40045 51.937C11.0905 51.6809 12.4487 51.0028 13.5344 49.6897C13.2599 49.5094 13.0264 49.3599 12.797 49.2042C11.5699 48.3705 10.5415 47.3359 9.8327 46.0331C8.05455 42.7697 8.19795 39.5658 10.2527 36.4684C10.5231 36.0607 10.5272 35.7391 10.4165 35.274C10.2117 34.4157 10.0867 33.5225 10.058 32.6396C10.0376 31.9554 10.2137 31.2671 10.3162 30.4722ZM23.5498 61.0694C36.8408 61.0694 50.0663 61.0694 63.3 61.0694C63.3 60.1763 63.3 59.32 63.3 58.4493C50.0233 58.4493 36.7999 58.4493 23.5498 58.4493C23.5498 59.3343 23.5498 60.1783 23.5498 61.0694ZM35.6015 41.5693C35.6015 46.6476 35.6015 51.6584 35.6015 56.706C37.9532 56.706 40.2742 56.706 42.6157 56.706C42.6157 51.644 42.6157 46.621 42.6157 41.5693C40.266 41.5693 37.9614 41.5693 35.6015 41.5693ZM44.3775 56.6937C46.7538 56.6937 49.0727 56.6937 51.4101 56.6937C51.4101 51.6338 51.4101 46.6251 51.4101 41.5795C49.0523 41.5795 46.7313 41.5795 44.3775 41.5795C44.3775 46.6271 44.3775 51.6358 44.3775 56.6937ZM23.2364 9.17138C36.7323 9.17138 50.1728 9.17138 63.64 9.17138C63.64 8.33352 63.64 7.54073 63.64 6.72745C50.1544 6.72745 36.7138 6.72745 23.2364 6.72745C23.2364 7.54278 23.2364 8.31918 23.2364 9.17138ZM17.945 61.0715C17.9655 60.9568 17.9921 60.8748 17.9921 60.7908C17.9798 57.675 17.9573 54.5591 17.9552 51.4433C17.9552 51.0623 17.7749 50.9721 17.4554 50.9168C16.8572 50.8144 16.259 50.6956 15.6711 50.544C15.3228 50.4559 15.0852 50.462 14.8312 50.7857C13.9032 51.9657 12.6822 52.7482 11.2708 53.2214C10.6788 53.4201 10.058 53.5308 9.46806 53.6762C9.46806 56.157 9.46806 58.6091 9.46806 61.0694C12.3237 61.0715 15.1241 61.0715 17.945 61.0715ZM21.8331 61.0797C21.8331 59.9837 21.829 58.9615 21.8331 57.9392C21.8372 57.0174 22.0687 56.747 22.9762 56.7572C23.4638 56.7634 23.6133 56.6159 23.6072 56.1283C23.5826 54.2559 23.599 52.3836 23.5949 50.5132C23.5949 50.3494 23.5621 50.1834 23.5498 50.0667C22.2285 50.4252 20.9441 50.7755 19.6883 51.1176C19.6883 54.4301 19.6883 57.7487 19.6883 61.0797C20.4237 61.0797 21.0916 61.0797 21.8331 61.0797ZM40.729 4.98003C40.729 3.86972 40.729 2.79832 40.729 1.73103C39.379 1.73103 38.0802 1.73103 36.7732 1.73103C36.7732 2.83315 36.7732 3.8902 36.7732 4.98003C38.1068 4.98003 39.4036 4.98003 40.729 4.98003ZM46.1392 1.70849C46.1392 2.8352 46.1392 3.89225 46.1392 4.97799C47.4749 4.97799 48.7696 4.97799 50.0868 4.97799C50.0868 3.86767 50.0868 2.79832 50.0868 1.70849C48.7552 1.70849 47.4769 1.70849 46.1392 1.70849Z" stroke="#105F43" mask="url(#path-1-outside-1_2007_1343)"/>
<path d="M33.7366 20.0741C33.7366 18.9413 33.7304 17.8105 33.7386 16.6776C33.7448 15.8725 34.0357 15.5796 34.8469 15.5755C36.4366 15.5673 38.0242 15.5673 39.6139 15.5755C40.4395 15.5796 40.7222 15.8459 40.7263 16.6694C40.7385 18.9556 40.7365 21.2418 40.7263 23.5259C40.7222 24.3576 40.4538 24.6137 39.6221 24.6158C38.0324 24.6219 36.4448 24.6219 34.8551 24.6158C34.0029 24.6117 33.7427 24.3412 33.7386 23.4686C33.7325 22.3378 33.7366 21.2049 33.7366 20.0741ZM39.0321 17.3106C37.8194 17.3106 36.6394 17.3106 35.4656 17.3106C35.4656 19.2035 35.4656 21.0451 35.4656 22.9052C36.6701 22.9052 37.8337 22.9052 39.0321 22.9052C39.0321 21.0205 39.0321 19.1809 39.0321 17.3106Z" fill="#A87E33"/>
<path d="M52.9726 20.115C52.9726 21.2684 52.9808 22.4217 52.9706 23.5771C52.9645 24.3207 52.6797 24.6116 51.9443 24.6157C50.289 24.6259 48.6359 24.6259 46.9806 24.6157C46.278 24.6116 45.9912 24.335 45.9871 23.616C45.9727 21.2643 45.9727 18.9146 45.9891 16.5628C45.9932 15.8663 46.3026 15.5836 47.0073 15.5795C48.6625 15.5672 50.3157 15.5672 51.9709 15.5795C52.6592 15.5857 52.9604 15.8971 52.9685 16.5895C52.9829 17.7653 52.9726 18.9412 52.9726 20.115ZM47.671 22.9031C48.9042 22.9031 50.0678 22.9031 51.2314 22.9031C51.2314 21 51.2314 19.142 51.2314 17.3147C50.0125 17.3147 48.8489 17.3147 47.671 17.3147C47.671 19.1932 47.671 21.0164 47.671 22.9031Z" fill="#A87E33"/>
<path d="M33.7366 32.2054C33.7366 31.0725 33.7304 29.9417 33.7386 28.8089C33.7448 27.9895 34.0131 27.719 34.8408 27.7149C36.4509 27.7067 38.0631 27.7047 39.6733 27.7149C40.4354 27.719 40.7181 27.9772 40.7222 28.7269C40.7365 31.0561 40.7365 33.3853 40.7222 35.7145C40.7181 36.4828 40.419 36.7552 39.6262 36.7593C38.0365 36.7675 36.4489 36.7675 34.8592 36.7593C34.0234 36.7552 33.7427 36.4582 33.7386 35.6019C33.7345 34.469 33.7366 33.3362 33.7366 32.2054ZM39.028 35.0529C39.028 33.1457 39.028 31.304 39.028 29.4193C37.8235 29.4193 36.6599 29.4193 35.4697 29.4193C35.4697 31.3122 35.4697 33.1723 35.4697 35.0529C36.664 35.0529 37.8153 35.0529 39.028 35.0529Z" fill="#A87E33"/>
<path d="M52.9726 32.2543C52.9726 33.3871 52.9788 34.5179 52.9706 35.6508C52.9645 36.4579 52.6756 36.7549 51.8664 36.759C50.2768 36.7693 48.6891 36.7672 47.0994 36.759C46.2759 36.7549 45.9891 36.4825 45.985 35.6651C45.9727 33.3789 45.9748 31.0927 45.985 28.8086C45.9891 27.9728 46.2534 27.7188 47.0851 27.7147C48.6953 27.7065 50.3075 27.7044 51.9176 27.7167C52.694 27.7229 52.9645 28.0056 52.9706 28.7943C52.9788 29.9455 52.9726 31.0989 52.9726 32.2543ZM51.2314 35.0546C51.2314 33.131 51.2314 31.273 51.2314 29.417C50.0248 29.417 48.8755 29.417 47.6915 29.417C47.6915 31.316 47.6915 33.1761 47.6915 35.0546C48.8899 35.0546 50.0412 35.0546 51.2314 35.0546Z" fill="#A87E33"/>
</svg>
