<svg width="243" height="213" viewBox="0 0 243 213" fill="none" xmlns="http://www.w3.org/2000/svg">
<mask id="mask0_0_252" style="mask-type:alpha" maskUnits="userSpaceOnUse" x="0" y="0" width="243" height="213">
<rect x="243" y="212.406" width="243" height="212.406" transform="rotate(-180 243 212.406)" fill="#D9D9D9"/>
</mask>
<g mask="url(#mask0_0_252)">
<path d="M83.9984 39.3479C83.9984 17.1245 83.681 -5.41649 83.9985 -27.6399C84.3159 -38.1167 88.4432 -47.3236 98.92 -51.1333C104 -53.0382 110.667 -53.0382 116.064 -52.0857C132.572 -49.5459 148.764 -46.0536 165.273 -42.8789C182.417 -39.7041 199.56 -36.8468 216.704 -33.672C226.863 -31.7672 231.308 -24.4652 227.816 -14.6233C210.672 34.9032 177.654 66.651 125.906 76.8103C117.016 78.3977 108.127 79.3501 99.2374 79.6676C90.9829 79.9851 85.5858 74.588 85.5858 66.0161C85.5858 57.1267 84.3158 52.047 84.3158 43.1576C83.9984 41.2528 83.9984 40.3003 83.9984 39.3479Z" fill="white" fill-opacity="0.07"/>
<path d="M-9.33825 81.8901C-15.6878 82.2076 -23.3072 82.8425 -30.9267 83.4775C-47.753 84.7474 -62.6744 76.8104 -60.7695 55.2219C-57.9122 25.379 -55.6899 -4.14644 -53.4675 -33.9894C-52.5151 -45.4186 -46.8005 -49.8632 -35.3713 -48.2759C-12.1954 -45.1011 9.39304 -37.1641 28.4417 -23.5126C49.3952 -8.27363 63.9992 11.7275 71.6186 36.4907C74.1584 44.7452 76.0633 52.9996 77.9682 61.254C80.1905 70.7784 75.7459 77.4454 65.9041 79.0328C65.2691 79.0328 64.3166 79.3503 63.6817 79.3503C39.8708 80.3027 16.06 80.9376 -9.33825 81.8901Z" fill="white" fill-opacity="0.07"/>
<path d="M107.489 84.4297C139.555 83.7948 171.62 83.1598 203.685 82.5249C206.543 82.5249 209.717 82.5249 212.575 82.5249C223.686 83.1598 227.179 93.9541 226.226 101.256C223.369 121.892 220.829 142.528 217.654 163.164C216.384 173.006 215.114 183.165 212.575 192.69C210.035 202.532 202.415 206.659 192.574 204.436C160.826 197.452 133.205 183.165 112.252 157.45C98.6001 140.306 91.9331 120.305 88.4408 99.0337C86.8534 90.1443 91.6156 85.0647 100.505 84.4297C102.727 84.1122 104.95 84.4297 107.172 84.4297C107.489 84.4297 107.489 84.4297 107.489 84.4297Z" fill="white" fill-opacity="0.07"/>
<path d="M82.4102 146.973C82.4102 160.942 82.0927 174.911 82.4102 188.881C82.7276 203.802 71.2985 208.564 60.8217 206.977C28.439 201.897 -4.26131 196.5 -36.6441 191.103C-50.2956 188.88 -56.3277 179.039 -51.5656 166.34C-42.3587 142.211 -27.1198 122.528 -5.53126 107.924C15.1048 93.6371 38.5983 87.9225 63.0441 85.3827C75.4257 84.1128 81.7753 89.5099 82.0928 102.209C82.4102 116.813 82.4102 131.734 82.4102 146.973Z" fill="white" fill-opacity="0.07"/>
</g>
</svg>
