<svg width="214" height="217" viewBox="0 0 214 217" fill="none" xmlns="http://www.w3.org/2000/svg">
<path d="M-108.704 127.234C-108.704 77.7727 -109.411 27.6049 -108.704 -21.8562C-107.998 -45.1736 -98.8118 -65.6646 -75.4945 -74.1437C-64.1891 -78.3832 -49.351 -78.3832 -37.339 -76.2634C-0.596441 -70.6107 35.4395 -62.8382 72.182 -55.7724C110.338 -48.7065 148.494 -42.3472 186.649 -35.2813C209.26 -31.0418 219.152 -14.7903 211.38 7.11391C173.224 117.342 99.7392 188 -15.4345 210.611C-35.219 214.144 -55.0036 216.264 -74.7881 216.97C-93.1593 217.677 -105.171 205.665 -105.171 186.587C-105.171 166.803 -107.998 155.497 -107.998 135.713C-108.704 131.473 -108.704 129.354 -108.704 127.234Z" fill="#33865C"/>
</svg>
