<svg width="433" height="230" viewBox="0 0 433 230" fill="none" xmlns="http://www.w3.org/2000/svg">
<path d="M431.647 119.943C431.647 186.031 432.592 253.063 431.647 319.151C430.703 350.307 418.43 377.686 387.274 389.015C372.168 394.68 352.342 394.68 336.292 391.848C287.198 384.295 239.049 373.91 189.955 364.468C138.973 355.027 87.9906 346.53 37.0085 337.089C6.79687 331.425 -6.42071 309.71 3.96453 280.442C54.9466 133.161 153.134 38.7496 307.024 8.53799C333.46 3.81743 359.895 0.985079 386.33 0.0409662C410.877 -0.903147 426.927 15.1468 426.927 40.6378C426.927 67.073 430.704 82.1788 430.704 108.614C431.648 114.279 431.647 117.111 431.647 119.943Z" fill="white" fill-opacity="0.07"/>
</svg>
