<svg width="412" height="365" viewBox="0 0 412 365" fill="none" xmlns="http://www.w3.org/2000/svg">
<path d="M353.79 358.879C258.434 360.768 163.079 362.656 67.7237 364.544C59.2267 364.544 49.7857 364.544 41.2887 364.544C8.24471 362.656 -2.14042 330.556 0.691919 308.841C9.18893 247.474 16.7417 186.107 26.1828 124.739C29.9592 95.472 33.7357 65.2604 41.2887 36.937C48.8416 7.6695 71.5001 -4.60396 100.768 2.00483C195.179 22.7753 277.317 65.2604 339.628 141.733C380.225 192.716 400.051 252.195 410.436 315.45C415.157 341.885 400.995 356.991 374.56 358.879C367.952 359.823 361.343 358.879 354.734 358.879C353.79 358.879 353.79 358.879 353.79 358.879Z" fill="white" fill-opacity="0.07"/>
</svg>
