<svg width="946" height="625" viewBox="0 0 946 625" fill="none" xmlns="http://www.w3.org/2000/svg">
<mask id="mask0_188_402" style="mask-type:alpha" maskUnits="userSpaceOnUse" x="0" y="0" width="946" height="625">
<rect width="946" height="624.697" fill="#D9D9D9"/>
</mask>
<g mask="url(#mask0_188_402)">
<path d="M505.647 514.64C505.647 580.728 506.592 647.76 505.647 713.848C504.703 745.004 492.43 772.383 461.274 783.712C446.168 789.377 426.342 789.377 410.292 786.545C361.198 778.992 313.049 768.607 263.955 759.165C212.973 749.724 161.991 741.227 111.009 731.786C80.7969 726.122 67.5794 704.407 77.9646 675.139C128.947 527.858 227.134 433.447 381.024 403.235C407.46 398.514 433.895 395.682 460.33 394.738C484.877 393.794 500.927 409.844 500.927 435.335C500.927 461.77 504.704 476.876 504.704 503.311C505.648 508.976 505.647 511.808 505.647 514.64Z" fill="white" fill-opacity="0.07"/>
<path d="M783.211 388.128C802.094 387.184 824.752 385.296 847.411 383.408C897.449 379.631 941.822 403.234 936.157 467.434C927.66 556.18 921.051 643.983 914.443 732.73C911.61 766.718 894.616 779.935 860.628 775.215C791.708 765.774 727.508 742.171 670.862 701.574C608.55 656.256 565.121 596.777 542.463 523.137C534.91 498.59 529.245 474.043 523.58 449.496C516.971 421.172 530.189 401.346 559.456 396.625C561.345 396.625 564.177 395.681 566.065 395.681C636.874 392.849 707.682 390.961 783.211 388.128Z" fill="white" fill-opacity="0.07"/>
<path d="M435.79 380.576C340.434 382.465 245.079 384.353 149.724 386.241C141.227 386.241 131.786 386.241 123.289 386.241C90.2448 384.353 79.8597 352.253 82.692 330.538C91.189 269.171 98.7418 207.804 108.183 146.436C111.959 117.169 115.736 86.9574 123.289 58.634C130.842 29.3665 153.5 17.0931 182.768 23.7018C277.179 44.4723 359.317 86.9574 421.628 163.431C462.225 214.413 482.051 273.892 492.437 337.147C497.157 363.582 482.996 378.688 456.56 380.576C449.952 381.52 443.343 380.576 436.734 380.576C435.79 380.576 435.79 380.576 435.79 380.576Z" fill="white" fill-opacity="0.07"/>
<path d="M510.371 194.584C510.371 153.043 511.315 111.502 510.371 69.9615C509.426 25.5882 543.414 11.4265 574.57 16.1471C670.87 31.2529 768.113 47.3028 864.413 63.3527C905.01 69.9615 922.948 99.229 908.786 136.993C881.407 208.746 836.09 267.281 771.89 310.71C710.523 353.195 640.658 370.189 567.961 377.742C531.141 381.519 512.259 365.469 511.314 327.704C510.37 284.275 510.371 239.902 510.371 194.584Z" fill="white" fill-opacity="0.07"/>
</g>
</svg>
