<svg width="66" height="60" viewBox="0 0 66 60" fill="none" xmlns="http://www.w3.org/2000/svg">
<circle cx="32.9577" cy="26.9577" r="26.9577" fill="#105F43"/>
<path d="M64.84 27.1912C64.84 44.8201 50.5489 59.1111 32.92 59.1111C15.2911 59.1111 1 44.8201 1 27.1912" stroke="#105F43" stroke-opacity="0.25" stroke-width="0.6" stroke-dasharray="3 3"/>
<path d="M34.9698 43.3263C34.6102 43.1685 34.3646 42.8878 34.198 42.4318C34.0226 41.967 33.8297 41.5109 33.628 41.0373C33.5403 40.8356 33.4526 40.6252 33.3649 40.4059L33.207 40.02L33.0491 40.4059C32.9614 40.6252 32.8737 40.8356 32.786 41.0373C32.5843 41.5197 32.3914 41.967 32.216 42.4318C32.0406 42.8966 31.8038 43.1685 31.4354 43.3263H30.9794C30.5847 43.186 30.3392 42.8791 30.1638 42.3529L30.1111 42.1775L29.9357 42.2389L29.813 42.2827C29.734 42.309 29.6639 42.3353 29.5937 42.3616C29.4095 42.4406 29.2341 42.4756 29.0763 42.4756C28.8307 42.4756 28.629 42.3879 28.4536 42.2038C28.1466 41.8793 28.094 41.5109 28.2957 41.0549C28.5413 40.4848 28.7869 39.906 29.0149 39.336L29.1991 38.9062C29.2341 38.8273 29.2517 38.7571 29.278 38.6782C29.2868 38.6431 29.3043 38.5993 29.3218 38.5554L29.4008 38.3186H29.0237C29.0061 38.3186 28.9886 38.3186 28.971 38.3186C25.2262 38.4326 21.5077 38.7659 17.9207 39.3272C17.7892 39.3447 17.6839 39.3535 17.5875 39.3535C17.263 39.3535 17.0262 39.257 16.8332 38.7571C16.5351 38.0117 16.3596 37.2224 16.2369 36.6172C16.1492 36.205 16.1141 35.7753 16.0878 35.3543C16.0702 35.1702 16.0527 34.9772 16.0352 34.7843V31.9779C16.0527 31.7849 16.0702 31.6007 16.0878 31.4078C16.1229 30.9868 16.1579 30.5571 16.2369 30.1449C16.3684 29.5047 16.5351 28.7505 16.8157 28.0401C17.0262 27.5051 17.2454 27.4086 17.6138 27.4086C17.719 27.4086 17.8418 27.4174 18.0084 27.4349C18.3505 27.4788 18.6925 27.5226 19.0345 27.5577C20.8587 27.7857 22.7355 28.0138 24.5948 28.1804C26.9627 28.3997 29.4797 28.5049 32.2949 28.5049C33.5403 28.5049 34.847 28.4874 36.2853 28.4435C39.2057 28.3558 42.1349 28.1278 44.994 27.7507C45.5377 27.6805 46.0815 27.6016 46.6165 27.5226C46.8971 27.4788 47.1865 27.4437 47.4672 27.3999C47.5636 27.3823 47.6513 27.3823 47.7215 27.3823C48.0547 27.3823 48.2302 27.5139 48.4669 27.9173C48.8616 28.6101 49.0019 29.3994 49.0896 30.0747C49.3703 32.2585 49.3703 34.4686 49.0896 36.6523C49.0019 37.3276 48.8616 38.1169 48.4582 38.8097C48.1951 39.257 48.0197 39.336 47.7303 39.336C47.6338 39.336 47.5285 39.3272 47.3882 39.3009C44.2047 38.801 40.9334 38.4853 37.6797 38.3537C37.6359 38.3537 37.6008 38.3537 37.557 38.3537C37.5219 38.3537 37.4868 38.3537 37.4517 38.3537C37.4079 38.3537 37.364 38.3537 37.3114 38.3537H37.0658L37.1448 38.5817C37.1535 38.6168 37.1623 38.6519 37.1798 38.6782C37.1974 38.7484 37.2237 38.8097 37.25 38.8711L37.4429 39.3447C37.671 39.8972 37.9078 40.4673 38.1445 41.0198C38.3463 41.4846 38.2936 41.853 37.9867 42.1599C37.8025 42.3529 37.592 42.4406 37.3552 42.4406C37.1974 42.4406 37.0307 42.3967 36.8553 42.3178C36.7852 42.2827 36.715 42.2652 36.6361 42.2301C36.601 42.2125 36.5572 42.2038 36.5045 42.1862L36.3291 42.1248L36.2765 42.3002C36.1187 42.8177 35.8556 43.1334 35.4609 43.2737H34.9698V43.3263ZM30.2865 41.2829C30.3918 41.2829 30.5233 41.3268 30.6637 41.6249C30.7426 41.7916 30.8128 41.967 30.9005 42.1512L31.1986 42.8089L32.5755 39.5114L30.2865 38.266L28.8921 41.6249L29.1026 41.6688C29.1289 41.6688 29.1377 41.6776 29.1464 41.6776C29.164 41.6776 29.1815 41.6863 29.2078 41.6863H29.2429L29.278 41.6688C29.3745 41.6249 29.4709 41.5811 29.5762 41.546C29.7165 41.4846 29.8568 41.4232 30.0059 41.3618C30.1111 41.3092 30.2076 41.2829 30.2865 41.2829ZM33.8121 39.5114L35.189 42.8001L35.3557 42.4318L35.496 42.1248C35.5837 41.9319 35.6538 41.7653 35.7328 41.6074C35.8643 41.318 35.9871 41.2829 36.1011 41.2829C36.18 41.2829 36.2677 41.3092 36.3818 41.3531C36.5572 41.4232 36.7238 41.4934 36.9167 41.5723L37.6096 41.8617L36.1099 38.266L33.8121 39.5114ZM33.207 32.6707C31.5758 32.6707 30.2427 33.9862 30.2252 35.6087C30.2164 36.4243 30.5233 37.1785 31.0846 37.7486C31.6371 38.3099 32.3826 38.6256 33.1807 38.6256H33.1894C34.8207 38.6256 36.1537 37.3013 36.1625 35.6701C36.1713 34.0301 34.8558 32.6795 33.2245 32.6707H33.207ZM47.4672 28.233C47.3531 28.233 47.2216 28.2506 47.0374 28.2769C43.4943 28.8118 39.7582 29.1363 35.9169 29.2416C35.8292 29.2416 35.7503 29.2504 35.6977 29.2504L35.4872 29.2679L35.5749 30.1888C35.6538 31.0745 35.7328 31.9165 35.8205 32.7672C35.8292 32.8899 35.8994 33.0215 36.0222 33.1618C36.6536 33.916 36.9606 34.7229 36.9255 35.5648C36.908 35.9595 36.8378 36.3541 36.7589 36.7663C36.7238 36.9593 36.6887 37.1522 36.6536 37.3539L36.6273 37.5381L36.8115 37.5556C36.829 37.5556 36.8466 37.5644 36.8729 37.5644C36.9343 37.5732 37.022 37.5819 37.1009 37.5907C37.4166 37.6082 37.7411 37.617 38.0568 37.6346C38.7058 37.6609 39.3811 37.6872 40.0389 37.7486C42.4507 37.9854 44.8361 38.2485 47.0462 38.5028L47.1339 38.5116C47.2742 38.5291 47.3882 38.5379 47.4847 38.5379C47.9144 38.5379 47.967 38.2222 48.0284 37.8275C48.2126 36.7312 48.388 35.6525 48.4582 34.5563C48.5897 32.4602 48.4494 30.6273 48.046 28.9522C47.932 28.5137 47.8618 28.233 47.4672 28.233ZM18.4996 28.5751C19.1836 32.1708 19.1924 34.9421 18.5171 38.1169L18.4645 38.3449L29.5148 37.4504L29.6025 37.5556L29.7165 37.4328L29.8042 37.4241L29.7779 37.2399C29.7691 37.1961 29.7603 37.1522 29.7428 37.1084C29.2868 35.9858 29.3394 34.9158 29.9007 33.8371C29.9533 33.7406 29.9796 33.6266 29.9884 33.5126C30.0322 32.1006 29.9007 30.8202 29.5762 29.5836C29.5323 29.4258 29.3394 29.2591 29.1727 29.2504C28.936 29.2328 28.6992 29.224 28.4711 29.2153C28.2694 29.2065 28.0589 29.1977 27.8572 29.189C25.577 29.0136 23.1389 28.8206 20.7008 28.6101C20.2448 28.5751 19.78 28.5137 19.3239 28.4523C19.1135 28.426 18.8942 28.3997 18.6837 28.3733L18.4469 28.347L18.4996 28.5751ZM17.3331 28.7066C16.5526 31.82 16.5526 34.9772 17.3331 38.0906H17.6752C18.4469 34.986 18.4469 31.8288 17.6752 28.7066H17.3331ZM30.8303 29.2767C30.7601 29.2767 30.6987 29.2854 30.6461 29.2942C30.6286 29.2942 30.6023 29.303 30.5847 29.303L30.4006 29.3205L30.8303 32.6268L31.0408 32.5391C32.1195 32.0919 32.6457 31.8902 33.1894 31.8902C33.6016 31.8902 34.0314 31.9954 34.8295 32.2322L35.0926 32.3111L35.0487 32.0392C35.0136 31.8112 34.9785 31.5832 34.9347 31.3639C34.847 30.8202 34.7593 30.3028 34.6804 29.7853C34.6277 29.4345 34.4436 29.2767 34.084 29.2767H34.0577C33.6893 29.2854 33.2947 29.2854 32.8211 29.2854C32.4791 29.2854 32.1283 29.2854 31.7862 29.2854C31.4705 29.2767 31.1548 29.2767 30.8303 29.2767Z" fill="white"/>
<path d="M32.7859 25.9177C32.0931 25.9177 31.3915 25.9002 30.6285 25.8563C29.4007 25.7949 27.9536 25.6721 26.5416 25.3038C26.0681 25.1723 25.5506 24.9793 25.0244 24.7162C24.5771 24.497 24.3667 24.1286 24.3842 23.5936C24.4105 22.8394 24.4017 22.0589 24.4017 21.3134C24.4017 20.9889 24.4017 20.6732 24.4017 20.3487V20.2259L23.2967 19.8313C22.5513 19.5682 21.8058 19.3051 21.0691 19.0332C20.6481 18.8841 20.236 18.735 19.815 18.5771C18.8766 18.2527 17.9031 17.8931 16.9296 17.5686C16.4297 17.3932 16.1403 17.1564 16 16.7705V16.3759C16.1403 15.9987 16.4034 15.7444 16.8332 15.5953C20.8148 14.1833 24.7964 12.7538 28.8657 11.298C29.6813 11.0086 30.5057 10.7016 31.3126 10.4034C31.6721 10.2719 32.0405 10.1403 32.4001 10H32.8649C33.2508 10.1403 33.6366 10.2806 34.0225 10.421C34.8732 10.7279 35.7502 11.0524 36.6185 11.3681C38.7321 12.1311 40.8457 12.8854 42.968 13.6396C44.8185 14.3061 46.669 14.9639 48.5195 15.6304C48.8352 15.7444 49.072 15.9461 49.186 16.1917C49.2825 16.4109 49.2913 16.6477 49.1948 16.8933C49.0895 17.1739 48.8703 17.3669 48.5195 17.4897C47.888 17.7089 47.2478 17.9457 46.6251 18.165C46.3708 18.2527 45.6955 18.4982 45.6955 18.4982L45.7481 18.6648C45.9499 19.27 45.9235 19.8751 45.8972 20.5241C45.8885 20.717 45.8797 20.91 45.8797 21.1029C45.8797 21.6116 45.485 21.9799 44.9325 21.9975C44.7483 22.0063 44.5642 22.0063 44.38 22.0063C44.1958 22.0063 44.0117 22.0063 43.8363 21.9975C43.2662 21.9712 42.9066 21.6028 42.8891 21.0328C42.8803 20.7609 42.8803 20.489 42.8891 20.1908C42.8891 20.0505 42.8891 19.9102 42.8891 19.7523V19.5068L42.6523 19.5945C42.5207 19.6383 42.398 19.6822 42.2664 19.726C41.8454 19.8751 41.4508 20.0154 41.0561 20.1733C40.8632 20.2522 40.8544 20.5767 40.8544 20.6118V21.0591C40.8457 21.9185 40.8457 22.8043 40.8632 23.6726C40.872 24.1023 40.7053 24.4005 40.337 24.6548C39.688 25.0933 38.9426 25.2863 38.2322 25.4266C36.5571 25.7598 34.7768 25.9177 32.7859 25.9177ZM32.4615 22.5588C30.1374 22.5588 28.2518 22.7692 26.5066 23.2165C26.2347 23.2867 25.9716 23.3919 25.7173 23.4884C25.6032 23.5322 25.4805 23.5761 25.3665 23.6199L25.2437 23.6638L25.2524 24.0497L25.3665 24.0935C25.4717 24.1286 25.5769 24.1725 25.6822 24.2163C25.9102 24.304 26.147 24.4005 26.3926 24.4706C27.5853 24.8127 28.9271 25.0144 30.6022 25.1021C31.3915 25.1459 32.1194 25.1635 32.8123 25.1635C34.768 25.1635 36.5045 25.0056 38.1182 24.6724C38.6619 24.5583 39.3372 24.418 40.03 23.9795L40.3282 23.7866L39.995 23.6638C39.8459 23.6112 39.7055 23.5586 39.5652 23.5059C39.2846 23.4007 39.0215 23.2955 38.7496 23.2253C36.9079 22.7342 35.0399 22.6289 33.6103 22.5938C33.2069 22.5675 32.8298 22.5588 32.4615 22.5588ZM32.6369 21.7695C35.0399 21.7695 37.4692 22.0764 39.8722 22.6815L40.0914 22.7342V22.5061C40.0914 22.1203 40.0914 21.7256 40.0914 21.331C40.0914 20.2873 40.0827 19.2086 40.1002 18.1386C40.109 17.6563 39.9073 17.3756 39.4863 17.2704C39.232 17.209 38.9776 17.1389 38.7233 17.0775C38.0568 16.9021 37.3639 16.7267 36.6623 16.6302C35.2942 16.446 33.9173 16.3583 32.5842 16.3583C31.1021 16.3583 29.6199 16.4723 28.1817 16.6916C27.5414 16.788 26.91 16.9722 26.2961 17.1476C26.0768 17.209 25.8488 17.2704 25.6296 17.3318C25.3138 17.4195 25.1472 17.6475 25.156 18.0159C25.1647 19.0157 25.1647 20.033 25.1647 21.024C25.1647 21.4362 25.1647 21.8484 25.1647 22.2606C25.1647 22.3483 25.1735 22.4272 25.1735 22.4798V22.5149L25.1823 22.7254L25.384 22.6728C27.8133 22.0764 30.2426 21.7695 32.6369 21.7695ZM44.3888 18.6385C44.0117 18.6385 43.7398 18.8578 43.7135 19.1735C43.6784 19.6208 43.6872 20.0681 43.6959 20.5066C43.6959 20.682 43.7047 20.8661 43.7047 21.0415V21.2169H45.143V21.0415C45.143 20.8661 45.143 20.6907 45.143 20.5153C45.143 20.0944 45.1518 19.6997 45.1342 19.2963C45.1167 18.9192 44.8448 18.6561 44.4502 18.6385C44.4239 18.6385 44.4063 18.6385 44.3888 18.6385ZM32.6018 15.6041C34.3821 15.6041 36.2063 15.7619 38.0392 16.0689C38.7058 16.1829 39.5652 16.3759 40.3107 16.8582C40.7141 17.1213 40.8895 17.4458 40.872 17.8755C40.8544 18.165 40.8632 18.4456 40.8632 18.7525C40.8632 18.8929 40.8632 19.042 40.8632 19.1998V19.498L41.1263 19.3577C41.4069 19.1998 41.7139 19.1034 42.0121 19.0069C42.5471 18.8402 43.0996 18.6648 43.503 18.165C43.5381 18.1211 43.617 18.0685 43.6959 18.0422C44.0204 17.9282 44.0204 17.6563 44.0204 17.516C44.0117 16.6302 44.0117 15.9023 44.0204 15.2182C44.0204 14.9463 43.9152 14.7885 43.6609 14.7008C41.9419 14.0869 40.223 13.473 38.504 12.859C36.6448 12.1925 34.7855 11.526 32.9263 10.8682C32.8386 10.8419 32.7421 10.8244 32.6456 10.8244C32.5492 10.8244 32.4527 10.8419 32.3738 10.8682C27.3134 12.6661 22.218 14.4903 17.2804 16.2531C17.2015 16.2794 17.1313 16.3145 17.0524 16.3495C17.0086 16.3671 16.9647 16.3846 16.9121 16.4109L16.4999 16.5863L24.4105 19.4103V19.1647C24.4105 19.0332 24.4105 18.9104 24.4193 18.7876C24.4281 18.5245 24.4281 18.279 24.4017 18.0334C24.3316 17.402 24.6122 16.9634 25.2437 16.7003C25.8137 16.4636 26.4189 16.2355 27.0415 16.1215C28.8569 15.7795 30.7337 15.6041 32.6018 15.6041ZM44.801 18.0071L48.8352 16.56L44.801 15.1217V18.0071Z" fill="white"/>
</svg>
