<svg width="62" height="56" viewBox="0 0 62 56" fill="none" xmlns="http://www.w3.org/2000/svg">
<circle cx="30.2349" cy="25.2346" r="25.2346" fill="#A87E33"/>
<mask id="path-2-outside-1_0_1097" maskUnits="userSpaceOnUse" x="12" y="12" width="36" height="27" fill="black">
<rect fill="white" x="12" y="12" width="36" height="27"/>
<path d="M36.6304 38C36.1651 38 35.7088 38 35.2435 38C34.9661 38 34.8946 37.9647 34.8946 37.6292C34.8946 37.2761 34.8946 36.9142 34.8946 36.5523V35.7578L34.5814 35.8107C34.3935 35.846 34.2056 35.8725 34.0087 35.9078C33.5972 35.9785 33.1677 36.0579 32.7471 36.1109C31.7003 36.2345 30.6892 36.2963 29.7229 36.2963C27.2176 36.2963 24.9718 35.8902 22.8423 35.0516L22.8065 35.0427C22.7617 35.0251 22.717 35.0074 22.6723 34.9898C22.5112 34.9103 22.4486 34.8044 22.5023 34.672C22.538 34.5837 22.6096 34.5395 22.708 34.5395C22.7528 34.5395 22.8065 34.5484 22.8602 34.566C23.0481 34.6278 23.2449 34.6984 23.4328 34.7691C23.8265 34.9103 24.2291 35.0604 24.6497 35.1751C26.3586 35.6165 28.1123 35.846 29.8571 35.846C31.4229 35.846 33.0245 35.6607 34.6172 35.3076C34.9214 35.2369 35.0914 35.078 35.1809 34.7691C35.3688 34.0893 35.5925 33.6126 36.1293 33.339C36.2993 33.2507 36.3888 33.0477 36.3888 32.8976C36.3888 31.3528 36.3888 29.7814 36.3888 28.2631V28.2101C36.3888 28.1218 36.353 28.06 36.3351 28.0335C36.3351 28.0247 36.3262 28.0159 36.3172 28.0071L36.2009 27.7864L35.9683 27.8923C35.9056 27.9188 35.8519 27.9453 35.7893 27.9718C35.6551 28.0335 35.5209 28.0865 35.3956 28.1483C35.1182 28.2807 34.8498 28.4043 34.5724 28.5367C33.794 28.9075 32.9887 29.2871 32.2013 29.6667C31.4319 30.0374 30.6534 30.2316 29.8839 30.2316C29.1145 30.2316 28.3271 30.0374 27.5397 29.6667C25.8128 28.8369 24.0502 28.0071 22.3501 27.1949C21.6701 26.8771 20.9901 26.5505 20.3101 26.2239C20.2385 26.1886 20.167 26.1621 20.0864 26.1268C20.0506 26.1091 20.0059 26.0915 19.9612 26.0738L19.6033 25.9237L19.5854 26.3033C19.5854 26.3475 19.5764 26.3916 19.5764 26.4269C19.5675 26.5152 19.5675 26.5946 19.5675 26.6829C19.5675 27.0978 19.5675 27.5127 19.5764 27.9276C19.5854 28.8369 19.5854 29.7814 19.5585 30.7083C19.5227 31.7147 19.8985 32.5445 20.7038 33.2684C21.0617 33.595 20.9722 33.6921 20.9096 33.7539C20.838 33.8333 20.7933 33.8333 20.7754 33.8333C20.7217 33.8333 20.6054 33.798 20.3638 33.5862C19.469 32.7828 19.0485 31.8471 19.0843 30.726C19.1111 29.7903 19.1022 28.8369 19.1022 27.9188C19.1022 27.345 19.0933 26.7447 19.1022 26.1621C19.1022 25.7913 18.968 25.5706 18.6459 25.4206C18.0822 25.1645 17.5095 24.8909 16.9637 24.6261C16.1585 24.2465 15.3353 23.8492 14.5121 23.4785C13.6532 23.0989 13.1968 22.6487 13 21.9778V21.2627C13.2416 20.4594 13.8858 20.0621 14.5569 19.7532C17.7332 18.2348 20.9722 16.69 24.1128 15.2069C25.2849 14.6508 26.4571 14.0946 27.6292 13.5385C28.3808 13.1854 29.1324 13 29.875 13C30.5908 13 31.3245 13.1677 32.0403 13.5032C32.935 13.9181 33.8298 14.3506 34.5993 14.7126C34.7335 14.7744 34.823 14.8538 34.8498 14.9333C34.8677 14.9774 34.8588 15.0304 34.8319 15.0833C34.7961 15.1628 34.7424 15.1981 34.653 15.1981C34.5814 15.1981 34.5009 15.1716 34.4024 15.1275C33.9014 14.8891 33.4093 14.6596 32.9172 14.4213C32.5682 14.2535 32.2192 14.0946 31.8792 13.9269C31.2082 13.6179 30.5282 13.459 29.8571 13.459C29.2129 13.459 28.5597 13.6091 27.9334 13.9093C24.7123 15.4364 21.4375 16.9901 18.2611 18.4908C16.9369 19.1176 15.6037 19.7532 14.2795 20.3799C13.7426 20.6359 13.4653 21.0508 13.4653 21.5982C13.4653 22.1543 13.7426 22.578 14.2705 22.8252L17.4738 24.3436C20.9185 25.9767 24.4797 27.6628 27.9781 29.3224C28.6045 29.6225 29.2487 29.7726 29.8661 29.7726C30.3671 29.7726 30.8503 29.6755 31.3155 29.4813C32.3714 29.0399 33.3914 28.5632 34.4651 28.0512C34.9124 27.8393 35.3688 27.6186 35.834 27.4068L36.2009 27.2391L35.8967 26.9742C35.8519 26.9301 35.8072 26.8948 35.7625 26.8595C35.6819 26.7888 35.6103 26.7182 35.5388 26.6653C35.163 26.3563 34.7961 26.0385 34.4203 25.7295C33.4451 24.9085 32.425 24.0611 31.4408 23.2136C31.2082 23.0106 30.9666 22.9135 30.6892 22.9135C30.6087 22.9135 30.5371 22.9223 30.4476 22.9311C30.224 22.9665 30.0092 22.9841 29.7945 22.9841C29.2755 22.9841 28.7834 22.8782 28.3092 22.6663C27.6918 22.3927 27.4144 22.0572 27.4144 21.5893C27.4144 21.1215 27.6918 20.786 28.2823 20.53C28.8013 20.3093 29.3292 20.1946 29.8571 20.1946C30.385 20.1946 30.9219 20.3005 31.4587 20.5212C31.4677 20.5212 31.4766 20.53 31.4766 20.53C31.4945 20.5388 31.5124 20.5477 31.5303 20.5565C31.9777 20.7684 32.2729 21.1126 32.3177 21.4657C32.3624 21.81 32.1656 22.172 31.754 22.5074L31.4766 22.7369L31.7808 22.9311C31.8077 22.9488 31.8435 22.9665 31.8703 22.9841C31.924 23.0194 31.9687 23.0459 31.9956 23.0724L32.5771 23.5579C33.803 24.5819 35.0646 25.6412 36.2993 26.6917C36.3888 26.7712 36.5409 26.8771 36.7377 26.8771C36.8719 26.8771 36.9972 26.8242 37.0867 26.7888C39.5741 25.6059 42.2047 24.3524 45.3721 22.8517C45.9716 22.5692 46.2668 22.1367 46.2668 21.5717C46.2668 21.0067 45.9626 20.5918 45.3631 20.3005C43.1263 19.2412 40.8625 18.1642 38.6704 17.1225L36.8093 16.2398L36.7556 16.2133C36.7019 16.1868 36.6393 16.1603 36.6035 16.1338C36.4783 16.0544 36.4514 15.9661 36.514 15.8337C36.5767 15.7013 36.6572 15.7013 36.684 15.7013C36.7109 15.7013 36.7467 15.7101 36.7914 15.7278C37.1225 15.869 37.4446 16.0191 37.7667 16.1691L37.9904 16.2751C38.8493 16.6811 39.7083 17.0872 40.5673 17.5021C42.2136 18.279 43.9047 19.0911 45.5779 19.8768C46.3474 20.2387 46.7321 20.786 46.7411 21.5452C46.75 22.322 46.3742 22.8782 45.5868 23.2489C45.0052 23.5226 44.4147 23.8051 43.8331 24.0787C42.9563 24.4936 42.0526 24.9262 41.1578 25.3411C40.791 25.5088 40.6478 25.7472 40.6478 26.1532C40.6567 26.7977 40.6478 27.4509 40.6478 28.0865C40.6478 28.9693 40.6388 29.8785 40.6657 30.779C40.6925 31.7941 40.3257 32.6328 39.5651 33.3478C39.2251 33.6656 38.8315 33.9481 38.4467 34.2129L38.3841 34.2571C38.1604 34.416 38.0799 34.5925 38.1067 34.875C38.2141 35.8902 38.2946 36.7465 38.3483 37.6204C38.3572 37.744 38.3393 37.8323 38.3035 37.8764C38.2588 37.9205 38.1604 37.947 38.0172 37.947C37.5609 38 37.0956 38 36.6304 38ZM36.6304 33.7274C36.3262 33.7362 35.9951 34.0011 35.8788 34.2394C35.4582 35.0692 35.4225 35.9608 35.3867 36.8259C35.3777 36.9672 35.3777 37.0996 35.3688 37.2408L35.3509 37.5233H37.9635L37.9278 37.232C37.9009 37.029 37.883 36.8259 37.8651 36.6229C37.8114 36.1285 37.7667 35.6607 37.6951 35.1928C37.6414 34.8573 37.5251 34.5219 37.3641 34.2394C37.2477 34.0275 36.9435 33.7362 36.6483 33.7362H36.6393L36.6304 33.7274ZM39.2072 26.3121C38.5004 26.6476 37.8293 26.9654 37.1583 27.292C36.9704 27.3803 36.863 27.6275 36.863 27.8129C36.8541 29.3136 36.8541 30.9025 36.863 32.827C36.863 32.9594 36.9167 33.1624 37.0509 33.2772C37.2298 33.4273 37.4177 33.5685 37.6146 33.7186C37.6862 33.7715 37.7667 33.8333 37.8383 33.8951L37.9904 34.0099L38.1514 33.904C39.2878 33.1713 40.3257 32.262 40.1915 30.6112C40.1736 30.3464 40.1736 30.0816 40.1825 29.7991C40.1825 29.6667 40.1915 29.5431 40.1915 29.4107V25.8355L39.2072 26.3121ZM29.8661 20.6889C29.2218 20.6889 28.6402 20.8302 28.2555 21.0773C27.9871 21.2539 27.8529 21.4481 27.8708 21.6688C27.8797 21.81 27.9692 22.0042 28.2913 22.1455C28.6313 22.2867 28.9892 22.3927 29.3292 22.4898C29.4813 22.5339 29.6334 22.578 29.7855 22.6222L29.8661 22.6487L29.9466 22.6222C30.0987 22.578 30.2508 22.5339 30.4029 22.4898C30.7519 22.3927 31.1098 22.2867 31.4408 22.1455C31.7629 22.0042 31.8435 21.8189 31.8524 21.6776C31.8703 21.4657 31.754 21.2804 31.4945 21.1038C31.1187 20.839 30.5192 20.6889 29.8661 20.6889Z"/>
</mask>
<path d="M36.6304 38C36.1651 38 35.7088 38 35.2435 38C34.9661 38 34.8946 37.9647 34.8946 37.6292C34.8946 37.2761 34.8946 36.9142 34.8946 36.5523V35.7578L34.5814 35.8107C34.3935 35.846 34.2056 35.8725 34.0087 35.9078C33.5972 35.9785 33.1677 36.0579 32.7471 36.1109C31.7003 36.2345 30.6892 36.2963 29.7229 36.2963C27.2176 36.2963 24.9718 35.8902 22.8423 35.0516L22.8065 35.0427C22.7617 35.0251 22.717 35.0074 22.6723 34.9898C22.5112 34.9103 22.4486 34.8044 22.5023 34.672C22.538 34.5837 22.6096 34.5395 22.708 34.5395C22.7528 34.5395 22.8065 34.5484 22.8602 34.566C23.0481 34.6278 23.2449 34.6984 23.4328 34.7691C23.8265 34.9103 24.2291 35.0604 24.6497 35.1751C26.3586 35.6165 28.1123 35.846 29.8571 35.846C31.4229 35.846 33.0245 35.6607 34.6172 35.3076C34.9214 35.2369 35.0914 35.078 35.1809 34.7691C35.3688 34.0893 35.5925 33.6126 36.1293 33.339C36.2993 33.2507 36.3888 33.0477 36.3888 32.8976C36.3888 31.3528 36.3888 29.7814 36.3888 28.2631V28.2101C36.3888 28.1218 36.353 28.06 36.3351 28.0335C36.3351 28.0247 36.3262 28.0159 36.3172 28.0071L36.2009 27.7864L35.9683 27.8923C35.9056 27.9188 35.8519 27.9453 35.7893 27.9718C35.6551 28.0335 35.5209 28.0865 35.3956 28.1483C35.1182 28.2807 34.8498 28.4043 34.5724 28.5367C33.794 28.9075 32.9887 29.2871 32.2013 29.6667C31.4319 30.0374 30.6534 30.2316 29.8839 30.2316C29.1145 30.2316 28.3271 30.0374 27.5397 29.6667C25.8128 28.8369 24.0502 28.0071 22.3501 27.1949C21.6701 26.8771 20.9901 26.5505 20.3101 26.2239C20.2385 26.1886 20.167 26.1621 20.0864 26.1268C20.0506 26.1091 20.0059 26.0915 19.9612 26.0738L19.6033 25.9237L19.5854 26.3033C19.5854 26.3475 19.5764 26.3916 19.5764 26.4269C19.5675 26.5152 19.5675 26.5946 19.5675 26.6829C19.5675 27.0978 19.5675 27.5127 19.5764 27.9276C19.5854 28.8369 19.5854 29.7814 19.5585 30.7083C19.5227 31.7147 19.8985 32.5445 20.7038 33.2684C21.0617 33.595 20.9722 33.6921 20.9096 33.7539C20.838 33.8333 20.7933 33.8333 20.7754 33.8333C20.7217 33.8333 20.6054 33.798 20.3638 33.5862C19.469 32.7828 19.0485 31.8471 19.0843 30.726C19.1111 29.7903 19.1022 28.8369 19.1022 27.9188C19.1022 27.345 19.0933 26.7447 19.1022 26.1621C19.1022 25.7913 18.968 25.5706 18.6459 25.4206C18.0822 25.1645 17.5095 24.8909 16.9637 24.6261C16.1585 24.2465 15.3353 23.8492 14.5121 23.4785C13.6532 23.0989 13.1968 22.6487 13 21.9778V21.2627C13.2416 20.4594 13.8858 20.0621 14.5569 19.7532C17.7332 18.2348 20.9722 16.69 24.1128 15.2069C25.2849 14.6508 26.4571 14.0946 27.6292 13.5385C28.3808 13.1854 29.1324 13 29.875 13C30.5908 13 31.3245 13.1677 32.0403 13.5032C32.935 13.9181 33.8298 14.3506 34.5993 14.7126C34.7335 14.7744 34.823 14.8538 34.8498 14.9333C34.8677 14.9774 34.8588 15.0304 34.8319 15.0833C34.7961 15.1628 34.7424 15.1981 34.653 15.1981C34.5814 15.1981 34.5009 15.1716 34.4024 15.1275C33.9014 14.8891 33.4093 14.6596 32.9172 14.4213C32.5682 14.2535 32.2192 14.0946 31.8792 13.9269C31.2082 13.6179 30.5282 13.459 29.8571 13.459C29.2129 13.459 28.5597 13.6091 27.9334 13.9093C24.7123 15.4364 21.4375 16.9901 18.2611 18.4908C16.9369 19.1176 15.6037 19.7532 14.2795 20.3799C13.7426 20.6359 13.4653 21.0508 13.4653 21.5982C13.4653 22.1543 13.7426 22.578 14.2705 22.8252L17.4738 24.3436C20.9185 25.9767 24.4797 27.6628 27.9781 29.3224C28.6045 29.6225 29.2487 29.7726 29.8661 29.7726C30.3671 29.7726 30.8503 29.6755 31.3155 29.4813C32.3714 29.0399 33.3914 28.5632 34.4651 28.0512C34.9124 27.8393 35.3688 27.6186 35.834 27.4068L36.2009 27.2391L35.8967 26.9742C35.8519 26.9301 35.8072 26.8948 35.7625 26.8595C35.6819 26.7888 35.6103 26.7182 35.5388 26.6653C35.163 26.3563 34.7961 26.0385 34.4203 25.7295C33.4451 24.9085 32.425 24.0611 31.4408 23.2136C31.2082 23.0106 30.9666 22.9135 30.6892 22.9135C30.6087 22.9135 30.5371 22.9223 30.4476 22.9311C30.224 22.9665 30.0092 22.9841 29.7945 22.9841C29.2755 22.9841 28.7834 22.8782 28.3092 22.6663C27.6918 22.3927 27.4144 22.0572 27.4144 21.5893C27.4144 21.1215 27.6918 20.786 28.2823 20.53C28.8013 20.3093 29.3292 20.1946 29.8571 20.1946C30.385 20.1946 30.9219 20.3005 31.4587 20.5212C31.4677 20.5212 31.4766 20.53 31.4766 20.53C31.4945 20.5388 31.5124 20.5477 31.5303 20.5565C31.9777 20.7684 32.2729 21.1126 32.3177 21.4657C32.3624 21.81 32.1656 22.172 31.754 22.5074L31.4766 22.7369L31.7808 22.9311C31.8077 22.9488 31.8435 22.9665 31.8703 22.9841C31.924 23.0194 31.9687 23.0459 31.9956 23.0724L32.5771 23.5579C33.803 24.5819 35.0646 25.6412 36.2993 26.6917C36.3888 26.7712 36.5409 26.8771 36.7377 26.8771C36.8719 26.8771 36.9972 26.8242 37.0867 26.7888C39.5741 25.6059 42.2047 24.3524 45.3721 22.8517C45.9716 22.5692 46.2668 22.1367 46.2668 21.5717C46.2668 21.0067 45.9626 20.5918 45.3631 20.3005C43.1263 19.2412 40.8625 18.1642 38.6704 17.1225L36.8093 16.2398L36.7556 16.2133C36.7019 16.1868 36.6393 16.1603 36.6035 16.1338C36.4783 16.0544 36.4514 15.9661 36.514 15.8337C36.5767 15.7013 36.6572 15.7013 36.684 15.7013C36.7109 15.7013 36.7467 15.7101 36.7914 15.7278C37.1225 15.869 37.4446 16.0191 37.7667 16.1691L37.9904 16.2751C38.8493 16.6811 39.7083 17.0872 40.5673 17.5021C42.2136 18.279 43.9047 19.0911 45.5779 19.8768C46.3474 20.2387 46.7321 20.786 46.7411 21.5452C46.75 22.322 46.3742 22.8782 45.5868 23.2489C45.0052 23.5226 44.4147 23.8051 43.8331 24.0787C42.9563 24.4936 42.0526 24.9262 41.1578 25.3411C40.791 25.5088 40.6478 25.7472 40.6478 26.1532C40.6567 26.7977 40.6478 27.4509 40.6478 28.0865C40.6478 28.9693 40.6388 29.8785 40.6657 30.779C40.6925 31.7941 40.3257 32.6328 39.5651 33.3478C39.2251 33.6656 38.8315 33.9481 38.4467 34.2129L38.3841 34.2571C38.1604 34.416 38.0799 34.5925 38.1067 34.875C38.2141 35.8902 38.2946 36.7465 38.3483 37.6204C38.3572 37.744 38.3393 37.8323 38.3035 37.8764C38.2588 37.9205 38.1604 37.947 38.0172 37.947C37.5609 38 37.0956 38 36.6304 38ZM36.6304 33.7274C36.3262 33.7362 35.9951 34.0011 35.8788 34.2394C35.4582 35.0692 35.4225 35.9608 35.3867 36.8259C35.3777 36.9672 35.3777 37.0996 35.3688 37.2408L35.3509 37.5233H37.9635L37.9278 37.232C37.9009 37.029 37.883 36.8259 37.8651 36.6229C37.8114 36.1285 37.7667 35.6607 37.6951 35.1928C37.6414 34.8573 37.5251 34.5219 37.3641 34.2394C37.2477 34.0275 36.9435 33.7362 36.6483 33.7362H36.6393L36.6304 33.7274ZM39.2072 26.3121C38.5004 26.6476 37.8293 26.9654 37.1583 27.292C36.9704 27.3803 36.863 27.6275 36.863 27.8129C36.8541 29.3136 36.8541 30.9025 36.863 32.827C36.863 32.9594 36.9167 33.1624 37.0509 33.2772C37.2298 33.4273 37.4177 33.5685 37.6146 33.7186C37.6862 33.7715 37.7667 33.8333 37.8383 33.8951L37.9904 34.0099L38.1514 33.904C39.2878 33.1713 40.3257 32.262 40.1915 30.6112C40.1736 30.3464 40.1736 30.0816 40.1825 29.7991C40.1825 29.6667 40.1915 29.5431 40.1915 29.4107V25.8355L39.2072 26.3121ZM29.8661 20.6889C29.2218 20.6889 28.6402 20.8302 28.2555 21.0773C27.9871 21.2539 27.8529 21.4481 27.8708 21.6688C27.8797 21.81 27.9692 22.0042 28.2913 22.1455C28.6313 22.2867 28.9892 22.3927 29.3292 22.4898C29.4813 22.5339 29.6334 22.578 29.7855 22.6222L29.8661 22.6487L29.9466 22.6222C30.0987 22.578 30.2508 22.5339 30.4029 22.4898C30.7519 22.3927 31.1098 22.2867 31.4408 22.1455C31.7629 22.0042 31.8435 21.8189 31.8524 21.6776C31.8703 21.4657 31.754 21.2804 31.4945 21.1038C31.1187 20.839 30.5192 20.6889 29.8661 20.6889Z" fill="white"/>
<path d="M36.6304 38C36.1651 38 35.7088 38 35.2435 38C34.9661 38 34.8946 37.9647 34.8946 37.6292C34.8946 37.2761 34.8946 36.9142 34.8946 36.5523V35.7578L34.5814 35.8107C34.3935 35.846 34.2056 35.8725 34.0087 35.9078C33.5972 35.9785 33.1677 36.0579 32.7471 36.1109C31.7003 36.2345 30.6892 36.2963 29.7229 36.2963C27.2176 36.2963 24.9718 35.8902 22.8423 35.0516L22.8065 35.0427C22.7617 35.0251 22.717 35.0074 22.6723 34.9898C22.5112 34.9103 22.4486 34.8044 22.5023 34.672C22.538 34.5837 22.6096 34.5395 22.708 34.5395C22.7528 34.5395 22.8065 34.5484 22.8602 34.566C23.0481 34.6278 23.2449 34.6984 23.4328 34.7691C23.8265 34.9103 24.2291 35.0604 24.6497 35.1751C26.3586 35.6165 28.1123 35.846 29.8571 35.846C31.4229 35.846 33.0245 35.6607 34.6172 35.3076C34.9214 35.2369 35.0914 35.078 35.1809 34.7691C35.3688 34.0893 35.5925 33.6126 36.1293 33.339C36.2993 33.2507 36.3888 33.0477 36.3888 32.8976C36.3888 31.3528 36.3888 29.7814 36.3888 28.2631V28.2101C36.3888 28.1218 36.353 28.06 36.3351 28.0335C36.3351 28.0247 36.3262 28.0159 36.3172 28.0071L36.2009 27.7864L35.9683 27.8923C35.9056 27.9188 35.8519 27.9453 35.7893 27.9718C35.6551 28.0335 35.5209 28.0865 35.3956 28.1483C35.1182 28.2807 34.8498 28.4043 34.5724 28.5367C33.794 28.9075 32.9887 29.2871 32.2013 29.6667C31.4319 30.0374 30.6534 30.2316 29.8839 30.2316C29.1145 30.2316 28.3271 30.0374 27.5397 29.6667C25.8128 28.8369 24.0502 28.0071 22.3501 27.1949C21.6701 26.8771 20.9901 26.5505 20.3101 26.2239C20.2385 26.1886 20.167 26.1621 20.0864 26.1268C20.0506 26.1091 20.0059 26.0915 19.9612 26.0738L19.6033 25.9237L19.5854 26.3033C19.5854 26.3475 19.5764 26.3916 19.5764 26.4269C19.5675 26.5152 19.5675 26.5946 19.5675 26.6829C19.5675 27.0978 19.5675 27.5127 19.5764 27.9276C19.5854 28.8369 19.5854 29.7814 19.5585 30.7083C19.5227 31.7147 19.8985 32.5445 20.7038 33.2684C21.0617 33.595 20.9722 33.6921 20.9096 33.7539C20.838 33.8333 20.7933 33.8333 20.7754 33.8333C20.7217 33.8333 20.6054 33.798 20.3638 33.5862C19.469 32.7828 19.0485 31.8471 19.0843 30.726C19.1111 29.7903 19.1022 28.8369 19.1022 27.9188C19.1022 27.345 19.0933 26.7447 19.1022 26.1621C19.1022 25.7913 18.968 25.5706 18.6459 25.4206C18.0822 25.1645 17.5095 24.8909 16.9637 24.6261C16.1585 24.2465 15.3353 23.8492 14.5121 23.4785C13.6532 23.0989 13.1968 22.6487 13 21.9778V21.2627C13.2416 20.4594 13.8858 20.0621 14.5569 19.7532C17.7332 18.2348 20.9722 16.69 24.1128 15.2069C25.2849 14.6508 26.4571 14.0946 27.6292 13.5385C28.3808 13.1854 29.1324 13 29.875 13C30.5908 13 31.3245 13.1677 32.0403 13.5032C32.935 13.9181 33.8298 14.3506 34.5993 14.7126C34.7335 14.7744 34.823 14.8538 34.8498 14.9333C34.8677 14.9774 34.8588 15.0304 34.8319 15.0833C34.7961 15.1628 34.7424 15.1981 34.653 15.1981C34.5814 15.1981 34.5009 15.1716 34.4024 15.1275C33.9014 14.8891 33.4093 14.6596 32.9172 14.4213C32.5682 14.2535 32.2192 14.0946 31.8792 13.9269C31.2082 13.6179 30.5282 13.459 29.8571 13.459C29.2129 13.459 28.5597 13.6091 27.9334 13.9093C24.7123 15.4364 21.4375 16.9901 18.2611 18.4908C16.9369 19.1176 15.6037 19.7532 14.2795 20.3799C13.7426 20.6359 13.4653 21.0508 13.4653 21.5982C13.4653 22.1543 13.7426 22.578 14.2705 22.8252L17.4738 24.3436C20.9185 25.9767 24.4797 27.6628 27.9781 29.3224C28.6045 29.6225 29.2487 29.7726 29.8661 29.7726C30.3671 29.7726 30.8503 29.6755 31.3155 29.4813C32.3714 29.0399 33.3914 28.5632 34.4651 28.0512C34.9124 27.8393 35.3688 27.6186 35.834 27.4068L36.2009 27.2391L35.8967 26.9742C35.8519 26.9301 35.8072 26.8948 35.7625 26.8595C35.6819 26.7888 35.6103 26.7182 35.5388 26.6653C35.163 26.3563 34.7961 26.0385 34.4203 25.7295C33.4451 24.9085 32.425 24.0611 31.4408 23.2136C31.2082 23.0106 30.9666 22.9135 30.6892 22.9135C30.6087 22.9135 30.5371 22.9223 30.4476 22.9311C30.224 22.9665 30.0092 22.9841 29.7945 22.9841C29.2755 22.9841 28.7834 22.8782 28.3092 22.6663C27.6918 22.3927 27.4144 22.0572 27.4144 21.5893C27.4144 21.1215 27.6918 20.786 28.2823 20.53C28.8013 20.3093 29.3292 20.1946 29.8571 20.1946C30.385 20.1946 30.9219 20.3005 31.4587 20.5212C31.4677 20.5212 31.4766 20.53 31.4766 20.53C31.4945 20.5388 31.5124 20.5477 31.5303 20.5565C31.9777 20.7684 32.2729 21.1126 32.3177 21.4657C32.3624 21.81 32.1656 22.172 31.754 22.5074L31.4766 22.7369L31.7808 22.9311C31.8077 22.9488 31.8435 22.9665 31.8703 22.9841C31.924 23.0194 31.9687 23.0459 31.9956 23.0724L32.5771 23.5579C33.803 24.5819 35.0646 25.6412 36.2993 26.6917C36.3888 26.7712 36.5409 26.8771 36.7377 26.8771C36.8719 26.8771 36.9972 26.8242 37.0867 26.7888C39.5741 25.6059 42.2047 24.3524 45.3721 22.8517C45.9716 22.5692 46.2668 22.1367 46.2668 21.5717C46.2668 21.0067 45.9626 20.5918 45.3631 20.3005C43.1263 19.2412 40.8625 18.1642 38.6704 17.1225L36.8093 16.2398L36.7556 16.2133C36.7019 16.1868 36.6393 16.1603 36.6035 16.1338C36.4783 16.0544 36.4514 15.9661 36.514 15.8337C36.5767 15.7013 36.6572 15.7013 36.684 15.7013C36.7109 15.7013 36.7467 15.7101 36.7914 15.7278C37.1225 15.869 37.4446 16.0191 37.7667 16.1691L37.9904 16.2751C38.8493 16.6811 39.7083 17.0872 40.5673 17.5021C42.2136 18.279 43.9047 19.0911 45.5779 19.8768C46.3474 20.2387 46.7321 20.786 46.7411 21.5452C46.75 22.322 46.3742 22.8782 45.5868 23.2489C45.0052 23.5226 44.4147 23.8051 43.8331 24.0787C42.9563 24.4936 42.0526 24.9262 41.1578 25.3411C40.791 25.5088 40.6478 25.7472 40.6478 26.1532C40.6567 26.7977 40.6478 27.4509 40.6478 28.0865C40.6478 28.9693 40.6388 29.8785 40.6657 30.779C40.6925 31.7941 40.3257 32.6328 39.5651 33.3478C39.2251 33.6656 38.8315 33.9481 38.4467 34.2129L38.3841 34.2571C38.1604 34.416 38.0799 34.5925 38.1067 34.875C38.2141 35.8902 38.2946 36.7465 38.3483 37.6204C38.3572 37.744 38.3393 37.8323 38.3035 37.8764C38.2588 37.9205 38.1604 37.947 38.0172 37.947C37.5609 38 37.0956 38 36.6304 38ZM36.6304 33.7274C36.3262 33.7362 35.9951 34.0011 35.8788 34.2394C35.4582 35.0692 35.4225 35.9608 35.3867 36.8259C35.3777 36.9672 35.3777 37.0996 35.3688 37.2408L35.3509 37.5233H37.9635L37.9278 37.232C37.9009 37.029 37.883 36.8259 37.8651 36.6229C37.8114 36.1285 37.7667 35.6607 37.6951 35.1928C37.6414 34.8573 37.5251 34.5219 37.3641 34.2394C37.2477 34.0275 36.9435 33.7362 36.6483 33.7362H36.6393L36.6304 33.7274ZM39.2072 26.3121C38.5004 26.6476 37.8293 26.9654 37.1583 27.292C36.9704 27.3803 36.863 27.6275 36.863 27.8129C36.8541 29.3136 36.8541 30.9025 36.863 32.827C36.863 32.9594 36.9167 33.1624 37.0509 33.2772C37.2298 33.4273 37.4177 33.5685 37.6146 33.7186C37.6862 33.7715 37.7667 33.8333 37.8383 33.8951L37.9904 34.0099L38.1514 33.904C39.2878 33.1713 40.3257 32.262 40.1915 30.6112C40.1736 30.3464 40.1736 30.0816 40.1825 29.7991C40.1825 29.6667 40.1915 29.5431 40.1915 29.4107V25.8355L39.2072 26.3121ZM29.8661 20.6889C29.2218 20.6889 28.6402 20.8302 28.2555 21.0773C27.9871 21.2539 27.8529 21.4481 27.8708 21.6688C27.8797 21.81 27.9692 22.0042 28.2913 22.1455C28.6313 22.2867 28.9892 22.3927 29.3292 22.4898C29.4813 22.5339 29.6334 22.578 29.7855 22.6222L29.8661 22.6487L29.9466 22.6222C30.0987 22.578 30.2508 22.5339 30.4029 22.4898C30.7519 22.3927 31.1098 22.2867 31.4408 22.1455C31.7629 22.0042 31.8435 21.8189 31.8524 21.6776C31.8703 21.4657 31.754 21.2804 31.4945 21.1038C31.1187 20.839 30.5192 20.6889 29.8661 20.6889Z" stroke="white" stroke-width="0.6" mask="url(#path-2-outside-1_0_1097)"/>
<path d="M60.7594 25.453C60.7594 41.9551 47.3818 55.3327 30.8797 55.3327C14.3776 55.3327 1 41.9551 1 25.453" stroke="#A87E33" stroke-opacity="0.2" stroke-width="0.6" stroke-dasharray="3 3"/>
</svg>
