<?xml version="1.0" encoding="utf-8"?>
<!-- Generator: Adobe Illustrator 24.3.0, SVG Export Plug-In . SVG Version: 6.00 Build 0)  -->
<svg version="1.1" id="Layer_1" xmlns="http://www.w3.org/2000/svg" xmlns:xlink="http://www.w3.org/1999/xlink" x="0px" y="0px"
	 viewBox="0 0 40 36" style="enable-background:new 0 0 40 36;" xml:space="preserve">
<style type="text/css">
	.st0{fill:#DC4C2C;}
	.st1{fill:#F7A278;}
	.st2{fill:#C06346;}
	.st3{fill:#9B341F;}
	.st4{fill:#FFFFFF;}
</style>
<g>
	<path class="st0" d="M4,18c0,9.9,8.1,18,18,18s18-8.1,18-18H22H4z"/>
	<path class="st1" d="M22,0v18h18C40,8.1,31.9,0,22,0z"/>
	<path class="st2" d="M22,0C12.1,0,4,8.1,4,18h18V0z"/>
	<path class="st3" d="M18.3,28H1.7C0.8,28,0,27.2,0,26.3V9.7C0,8.8,0.8,8,1.7,8h16.6C19.2,8,20,8.8,20,9.7v16.6
		C20,27.2,19.2,28,18.3,28z"/>
	<path class="st4" d="M10.7,13H6v10h2v-3.5h2.3c1.9,0,3.4-1.5,3.4-3.4V16C13.7,14.4,12.3,13,10.7,13z M11.6,16.4
		c0,0.9-0.7,1.6-1.6,1.6H8v-3.3h2c0.9,0,1.6,0.7,1.6,1.6V16.4z"/>
</g>
</svg>
