<svg width="40" height="41" viewBox="0 0 40 41" fill="none" xmlns="http://www.w3.org/2000/svg">
<g filter="url(#filter0_d_1132_22573)">
<circle cx="20" cy="17" r="16" fill="#11B64C" fill-opacity="0.25" shape-rendering="crispEdges"/>
</g>
<path d="M20 33C23.7017 33 27.2889 31.7165 30.1503 29.3682C33.0117 27.0198 34.9704 23.752 35.6926 20.1214C36.4147 16.4909 35.8557 12.7222 34.1107 9.45765C32.3658 6.19306 29.5428 3.6345 26.1229 2.21793C22.703 0.801355 18.8977 0.614412 15.3554 1.68895C11.8132 2.7635 8.75303 5.03304 6.69649 8.11087C4.63994 11.1887 3.71422 14.8844 4.07704 18.5683C4.43987 22.2521 6.0688 25.6962 8.68629 28.3137" stroke="#11B64C" stroke-width="1.2" stroke-linecap="round"/>
<path d="M27 13L19.678 22.2048C19.0132 23.0405 18.6809 23.4583 18.2265 23.4788C17.7721 23.4994 17.4034 23.1131 16.6661 22.3407L13 18.5" stroke="#11B64C" stroke-width="1.2" stroke-linecap="round"/>
<defs>
<filter id="filter0_d_1132_22573" x="0" y="1" width="40" height="40" filterUnits="userSpaceOnUse" color-interpolation-filters="sRGB">
<feFlood flood-opacity="0" result="BackgroundImageFix"/>
<feColorMatrix in="SourceAlpha" type="matrix" values="0 0 0 0 0 0 0 0 0 0 0 0 0 0 0 0 0 0 127 0" result="hardAlpha"/>
<feOffset dy="4"/>
<feGaussianBlur stdDeviation="2"/>
<feComposite in2="hardAlpha" operator="out"/>
<feColorMatrix type="matrix" values="0 0 0 0 0 0 0 0 0 0 0 0 0 0 0 0 0 0 0.25 0"/>
<feBlend mode="normal" in2="BackgroundImageFix" result="effect1_dropShadow_1132_22573"/>
<feBlend mode="normal" in="SourceGraphic" in2="effect1_dropShadow_1132_22573" result="shape"/>
</filter>
</defs>
</svg>
