<svg width="66" height="60" viewBox="0 0 66 60" fill="none" xmlns="http://www.w3.org/2000/svg">
<circle cx="32.9577" cy="26.9577" r="26.9577" fill="#105F43"/>
<path d="M64.84 27.1912C64.84 44.8201 50.5489 59.1111 32.92 59.1111C15.2911 59.1111 1 44.8201 1 27.1912" stroke="#105F43" stroke-opacity="0.25" stroke-width="0.6" stroke-dasharray="3 3"/>
<path d="M26.3479 44.8011C26.3251 44.8011 26.2908 44.8011 26.268 44.8011C26.1653 44.7897 26.0855 44.7555 26.0399 44.6985C25.9828 44.6186 25.96 44.4817 25.9828 44.3106L26.0513 43.7972C26.1996 42.622 26.3479 41.4013 26.5304 40.2148C26.6103 39.7128 26.4962 39.3477 26.1539 39.0054C25.0245 37.8645 23.7238 37.2827 22.3091 37.2827C21.8528 37.2827 21.3736 37.3397 20.883 37.4652C18.8408 37.99 17.4832 39.3933 16.947 41.5268C16.81 42.0858 16.7188 42.6563 16.6389 43.2039C16.6047 43.4663 16.5591 43.7287 16.5134 43.9797C16.4906 44.1166 16.4564 44.2649 16.4221 44.4018C16.3081 44.8011 16.1597 44.8011 16.1027 44.8011C16.0799 44.8011 16.0457 44.8011 16.0114 44.7897C15.8061 44.7441 15.692 44.5159 15.749 44.2535C15.7947 44.0367 15.8289 43.82 15.8631 43.6032C15.9658 42.9871 16.0799 42.3482 16.251 41.7436C16.502 40.8651 16.7986 40.0779 17.1409 39.3819C17.5744 38.5034 18.3388 37.7847 19.4683 37.1914C19.514 37.1686 19.5596 37.1458 19.6052 37.1229C19.6737 37.0887 19.7421 37.0545 19.8106 37.0089C19.8905 36.9632 19.9361 36.9062 19.9589 36.872L19.9703 36.8605L20.1985 36.5867L19.9133 36.37C18.8979 35.5942 18.4301 34.5445 18.4529 33.0614V32.8788C18.4643 31.8634 18.4757 30.9165 19.0462 30.0837C19.1489 29.9353 19.1489 29.7642 19.1489 29.6615V29.6387C19.1489 27.6193 19.1489 25.5885 19.1489 23.5121V21.8122L18.1791 22.4739C17.8711 22.6793 17.5859 22.8846 17.2892 23.0786C17.0725 23.2269 16.9127 23.3068 16.8215 23.3068C16.7872 23.3068 16.6731 23.3068 16.4107 22.9075C16.2852 22.7249 16.1597 22.531 16.0342 22.3484C15.7376 21.9035 15.4296 21.4471 15.1329 20.9908C14.9276 20.6827 14.9504 20.5458 15.2698 20.3405C20.4951 16.8493 25.9144 13.2441 31.2879 9.68453C31.3792 9.62749 31.4705 9.55904 31.5732 9.49058C31.9154 9.251 32.2691 9 32.5543 9C32.7825 9 33.102 9.23959 33.3872 9.45636C33.5013 9.54763 33.6154 9.62749 33.7409 9.70735C39.6849 13.6662 44.6478 16.9862 49.3368 20.1351C49.5764 20.2948 49.9757 20.5686 49.9985 20.6713C50.0214 20.774 49.7704 21.1619 49.5878 21.4357C49.2227 21.9833 48.8577 22.5196 48.4926 23.0672C48.3443 23.2839 48.2188 23.398 48.1275 23.398C48.059 23.398 47.9335 23.3638 47.7054 23.1927C47.4544 22.9987 47.192 22.8048 46.9296 22.5994L46.0739 21.9491L45.994 22.531C45.9826 22.5766 45.9826 22.6222 45.9712 22.6565C45.9598 22.7477 45.937 22.8276 45.937 22.9303C45.937 24.9611 45.937 27.3227 45.937 29.6387C45.937 29.8098 45.9598 30.0494 46.0853 30.2548C46.4047 30.791 46.5873 31.3957 46.5987 32.0346L46.6101 32.2628C46.6557 33.4036 46.69 34.4875 46.0397 35.4116C45.8571 35.674 45.6518 35.925 45.4236 36.176C45.3209 36.2901 45.2182 36.4156 45.1155 36.5411L44.8988 36.8035L45.1612 37.0089C45.184 37.0317 45.2296 37.0773 45.2981 37.1115C47.1805 37.933 48.3214 39.439 48.7778 41.7207C48.9489 42.565 49.0972 43.4321 49.257 44.3106C49.3026 44.573 49.1885 44.7555 48.9375 44.8011C48.9033 44.8011 48.8805 44.8125 48.8577 44.8125C48.8006 44.8125 48.6409 44.8125 48.561 44.4703C48.4812 44.071 48.4013 43.6717 48.3214 43.2723C48.2188 42.7247 48.1047 42.1657 47.9906 41.6181C47.5114 39.4618 46.1423 38.0357 44.0089 37.5109C43.5297 37.3854 43.0505 37.3283 42.5942 37.3283C41.0654 37.3283 39.7077 37.99 38.5668 39.302C38.3843 39.5188 38.3501 39.8497 38.3729 40.0779C38.487 41.059 38.6239 42.063 38.7494 43.0328C38.795 43.4207 38.852 43.8086 38.8977 44.1851L38.9091 44.2307C38.9205 44.3334 38.9319 44.4246 38.9319 44.4931C38.9091 44.7555 38.7836 44.8011 38.6581 44.8125C38.6353 44.8125 38.6125 44.8125 38.5896 44.8125C38.4185 44.8125 38.3501 44.7555 38.3272 44.5844C38.2017 43.7743 38.0877 42.9529 37.9736 42.1543L37.9165 41.7664C37.8709 41.4355 37.8252 41.0932 37.791 40.7624C37.7112 40.0664 37.6199 39.3591 37.4716 38.6632C36.9582 36.2445 34.8818 34.5559 32.4174 34.5559C32.3718 34.5559 32.3262 34.5559 32.2919 34.5559C29.8618 34.613 27.8196 36.4498 27.4203 38.9141C27.2264 40.1463 27.0552 41.3899 26.8955 42.5992C26.8157 43.2039 26.7358 43.8086 26.6559 44.4132C26.6217 44.8011 26.462 44.8011 26.3479 44.8011ZM22.2293 28.3951C24.0661 28.3951 25.6177 29.73 25.9144 31.5668C26.0056 32.1487 25.9942 32.7762 25.9714 33.3922V33.5976C25.9486 34.6814 25.5493 35.6056 24.7735 36.3129C24.705 36.3814 24.6594 36.4384 24.6137 36.4955C24.6023 36.5069 24.5909 36.5297 24.5795 36.5411L24.3399 36.8377L26.7928 38.4236L26.9297 38.0014C27.466 36.37 28.5156 35.1834 30.1585 34.362L30.649 34.111L30.2155 33.7801C29.3256 33.107 28.8464 32.2628 28.7552 31.2131C28.6981 30.6427 28.7095 30.0494 28.7209 29.479V29.3763C28.7438 27.4254 30.284 25.8053 32.2121 25.6684C32.3033 25.657 32.3946 25.657 32.4859 25.657C34.3227 25.657 35.8059 26.9576 36.0911 28.8173C36.1367 29.1367 36.1481 29.4562 36.1481 29.7984C36.1481 29.9924 36.1481 30.1977 36.1595 30.3917C36.2394 31.7494 35.7831 32.8332 34.7677 33.7117C34.665 33.803 34.6422 33.917 34.6422 33.9627C34.6422 33.9741 34.6422 33.9855 34.6308 33.9969L34.5623 34.2707L34.8247 34.3848C36.3763 35.0808 37.4488 36.2901 38.0192 37.9786L38.1561 38.3893L40.7573 36.7465L40.4037 36.4498C40.3694 36.4156 40.3238 36.3814 40.2896 36.3586C40.2097 36.2901 40.1413 36.2331 40.0728 36.176C39.4567 35.5827 39.1145 34.921 39.0574 34.2023C39.0004 33.552 38.9433 32.6849 39.0004 31.8292C39.103 30.1293 40.5063 28.6804 42.2633 28.4636C42.4116 28.4408 42.5599 28.4408 42.7083 28.4408C43.3129 28.4408 43.929 28.5891 44.5907 28.9085L45.0129 29.1025L45.0813 28.6461C45.0927 28.6005 45.0927 28.5777 45.0927 28.5435C45.1041 28.4864 45.1155 28.4294 45.1155 28.3609V27.414C45.1155 25.6 45.1269 23.7175 45.1155 21.8692C45.1155 21.5954 44.8988 21.3102 44.6934 21.1619C42.617 19.77 40.5292 18.3781 38.4527 16.9862C36.6159 15.7655 34.7905 14.5333 32.9536 13.3126C32.7939 13.1985 32.6456 13.1528 32.4859 13.1528C32.2805 13.1528 32.1208 13.2441 32.0067 13.324C30.5578 14.2937 29.1088 15.2635 27.6599 16.2218C25.2298 17.8419 22.7199 19.519 20.2555 21.1733C20.0274 21.333 19.8448 21.6639 19.8448 21.9605C19.8334 23.0672 19.8334 24.1967 19.8334 25.2805C19.8334 25.6114 19.8334 25.9422 19.8334 26.2731V29.0797L20.4267 28.8287C20.4951 28.7944 20.5636 28.7716 20.6206 28.7488C21.134 28.5206 21.6816 28.3951 22.2293 28.3951ZM22.2179 29.0683C20.7233 29.0683 19.4683 30.1065 19.2173 31.544C19.1032 32.2171 19.1261 32.9017 19.1375 33.5634V33.609C19.1831 35.1834 20.4039 36.4955 21.9212 36.5867C21.9897 36.5867 22.0696 36.5981 22.138 36.5981C23.701 36.5981 24.9674 35.5485 25.2298 34.0311C25.2755 33.7573 25.2869 33.4835 25.2869 33.2211C25.2869 33.107 25.2869 32.9929 25.2983 32.8788L25.3097 32.5366H25.2755C25.2755 32.3883 25.2755 32.2399 25.2755 32.0916C25.2298 30.5058 24.0205 29.2166 22.4575 29.0911C22.389 29.0797 22.3091 29.0683 22.2179 29.0683ZM39.6507 32.8218C39.6507 32.9131 39.6507 32.9929 39.6507 33.0842C39.6507 33.2781 39.6507 33.4835 39.6507 33.6889C39.7305 35.1948 40.9171 36.4384 42.4344 36.5867C42.5257 36.5981 42.6284 36.5981 42.7197 36.5981C44.1914 36.5981 45.4692 35.5599 45.6974 34.1795C45.8229 33.4265 45.8229 32.5822 45.7202 31.6695C45.5491 30.2206 44.2256 29.0797 42.7083 29.0797C41.2023 29.0797 39.9359 30.1635 39.6963 31.6581C39.6507 31.9319 39.6621 32.2057 39.6735 32.4795H39.6621V32.8218H39.6507ZM32.4745 26.3415C30.9799 26.3415 29.7249 27.3797 29.4853 28.8173C29.3598 29.5703 29.3827 30.3461 29.4169 31.0192C29.4967 32.5822 30.8772 33.86 32.4745 33.86H32.4973C34.0831 33.8486 35.4522 32.5594 35.5435 30.9735C35.5549 30.7682 35.5549 30.5628 35.5435 30.3689C35.5435 30.3461 35.5435 30.3232 35.5435 30.3004V30.1065C35.5435 30.0266 35.5435 29.9582 35.5435 29.8783C35.5435 29.7072 35.5435 29.5474 35.5435 29.3763C35.5092 27.7905 34.2999 26.4898 32.7369 26.3644C32.6456 26.3415 32.5543 26.3415 32.4745 26.3415ZM32.4631 12.4683C32.7825 12.4683 33.1248 12.6052 33.5583 12.9018C36.8213 15.1266 40.1641 17.3513 43.3928 19.5076C44.5565 20.2834 45.7202 21.0592 46.8839 21.835C47.0665 21.9605 47.249 22.0746 47.443 22.2001L48.0134 22.5766L49.1087 20.8767L48.8463 20.6827C48.812 20.6599 48.7778 20.6257 48.7436 20.6029C48.6751 20.5572 48.6181 20.5116 48.561 20.4659L45.4236 18.3781C41.3278 15.6514 37.1065 12.8334 32.9422 10.0496C32.7711 9.93553 32.6228 9.88989 32.4631 9.88989C32.2463 9.88989 32.0752 9.98117 31.9268 10.0838C27.9794 12.7307 24.0205 15.3662 20.0616 18.013L16.4221 20.4317C16.3423 20.4888 16.2738 20.5344 16.194 20.5914C16.1597 20.6143 16.1141 20.6485 16.0799 20.6827L15.8175 20.8767L16.9241 22.5766L17.3805 22.28C17.4832 22.2115 17.5744 22.1545 17.6543 22.0974C18.8522 21.2988 20.0616 20.4888 21.2595 19.6901C24.5795 17.4882 28.0022 15.2064 31.3336 12.9133C31.7899 12.6052 32.1322 12.4683 32.4631 12.4683Z" fill="white"/>
<path d="M32.4402 42.736C32.2919 42.736 32.1322 42.5649 32.1322 42.2797C32.1322 41.1274 32.1322 39.9865 32.1322 38.8342V36.6893L31.8698 36.6323C31.5161 36.5524 31.4704 36.4041 31.4704 36.2558C31.459 36.0504 31.5845 35.9249 31.8013 35.9135C31.9382 35.9021 32.0979 35.9021 32.2919 35.9021C32.406 35.9021 32.5201 35.9021 32.6342 35.9021C32.7368 35.9021 32.8395 35.9021 32.9422 35.9021C33.4556 35.9021 33.467 36.0504 33.4898 36.1987C33.5126 36.3242 33.5355 36.4725 33.0449 36.6551L32.8281 36.7349V36.9745C32.8281 37.4081 32.8281 37.8302 32.8281 38.2637C32.8281 39.5758 32.8281 40.922 32.8167 42.2455C32.8167 42.4052 32.7026 42.6219 32.6227 42.679C32.5543 42.7132 32.4972 42.736 32.4402 42.736Z" fill="white"/>
<path d="M22.2522 44.7898C22.2065 44.7898 22.1495 44.767 22.0924 44.7328C22.0126 44.6758 21.8985 44.459 21.8871 44.3221C21.8643 43.2953 21.8643 42.2571 21.8643 41.2417C21.8643 40.888 21.8643 40.5457 21.8643 40.1921V39.4391L21.6019 39.3706C21.1683 39.2679 21.1911 39.074 21.2025 38.9485C21.2254 38.7431 21.3166 38.6519 21.522 38.6519C21.6703 38.6519 21.8072 38.6519 21.9555 38.6519H22.4689C22.583 38.6519 22.6857 38.6519 22.7998 38.6519H22.8112C23.085 38.6519 23.1649 38.7545 23.1991 38.9371C23.2219 39.0169 23.2561 39.1995 22.8911 39.3478C22.8682 39.3592 22.834 39.3706 22.7998 39.382L22.5374 39.4961C22.5374 39.4961 22.5374 40.6028 22.5374 41.0477C22.5374 42.1316 22.5374 43.2611 22.5374 44.3677C22.5602 44.6301 22.4005 44.7898 22.2522 44.7898Z" fill="white"/>
<path d="M42.7417 44.7897C42.6846 44.7897 42.6276 44.7669 42.5705 44.7213C42.4907 44.6642 42.3994 44.4589 42.3994 44.3105C42.3766 43.2837 42.3766 42.2341 42.388 41.2301C42.388 40.8765 42.388 40.5342 42.388 40.1805V39.5416L42.2169 39.4389C42.1484 39.3933 42.0685 39.3591 42.0115 39.3363C41.9659 39.3134 41.8974 39.2792 41.8632 39.2678C41.7719 39.0853 41.7491 38.9141 41.7719 38.8685C41.7947 38.8 41.9544 38.6745 42.0457 38.6631C42.2283 38.6403 42.4222 38.6289 42.6504 38.6289C42.8329 38.6289 43.0269 38.6403 43.2208 38.6403L43.4376 38.6517C43.5631 38.6517 43.6772 38.686 43.7228 38.9141C43.7571 39.1081 43.7 39.2108 43.5403 39.2906C43.4946 39.3134 43.449 39.3249 43.392 39.3477C43.3577 39.3591 43.3235 39.3705 43.2893 39.3819L43.0725 39.4618C43.0725 39.4618 43.0725 40.5798 43.0725 41.0248C43.0725 42.1086 43.0725 43.2381 43.0725 44.3448C43.0611 44.6186 42.89 44.7897 42.7417 44.7897Z" fill="white"/>
</svg>
