<svg width="25" height="29" viewBox="0 0 25 29" fill="none" xmlns="http://www.w3.org/2000/svg">
<path d="M19.9833 21.0151V23.2708C19.9833 25.4167 19.9833 26.4896 19.2937 27.0877C18.6041 27.6858 17.5419 27.534 15.4176 27.2306L6.39963 25.9423C3.9435 25.5914 2.71543 25.416 1.98179 24.5701C1.24816 23.7242 1.24816 22.4837 1.24816 20.0026L1.24816 8.99857C1.24816 6.5175 1.24816 5.27697 1.98179 4.43108C2.71543 3.58519 3.9435 3.40975 6.39963 3.05887L15.4176 1.77059C17.5419 1.46712 18.6041 1.31538 19.2937 1.91346C19.9833 2.51155 19.9833 3.58449 19.9833 5.73039V7.72119" stroke="white" stroke-width="1.2"/>
<path d="M7.94031 14.5003L7.47179 14.8751L7.17193 14.5003L7.47179 14.1255L7.94031 14.5003ZM23.999 13.9003C24.3304 13.9003 24.599 14.1689 24.599 14.5003C24.599 14.8317 24.3304 15.1003 23.999 15.1003V13.9003ZM12.8247 21.5662L7.47179 14.8751L8.40883 14.1255L13.7617 20.8166L12.8247 21.5662ZM7.47179 14.1255L12.8247 7.43436L13.7617 8.18399L8.40883 14.8751L7.47179 14.1255ZM7.94031 13.9003L23.999 13.9003V15.1003L7.94031 15.1003V13.9003Z" fill="white"/>
</svg>
