<svg width="62" height="56" viewBox="0 0 62 56" fill="none" xmlns="http://www.w3.org/2000/svg">
<circle cx="30.56" cy="25.2346" r="25.2346" fill="#A87E33"/>
<mask id="path-2-outside-1_0_1037" maskUnits="userSpaceOnUse" x="13" y="11" width="35" height="34" fill="black">
<rect fill="white" x="13" y="11" width="35" height="34"/>
<path d="M39.0212 44C37.359 44 35.6967 44 34.0257 44C33.8507 44 33.6058 43.9659 33.4571 43.8042C33.3083 43.6424 33.2996 43.4125 33.3171 43.2422C33.4133 42.2629 33.5358 41.2666 33.6495 40.2959L33.667 40.1682C33.6845 40.0404 33.7195 39.8957 33.7808 39.7339C34.0257 39.0782 34.0257 39.0271 33.8857 38.3459L33.877 38.3204C33.842 38.1416 33.842 37.9457 33.842 37.7328V37.6988C33.842 36.9665 33.842 36.2427 33.842 35.4933V34.4119C33.842 34.4119 26.1344 34.4119 24.7434 34.4119C22.145 34.4119 18.7155 34.4119 15.2598 34.4204C14.5599 34.4204 14.2012 34.2076 14 33.6966V32.5726C14.1837 32.0788 14.5337 31.8489 15.0848 31.8489C15.1811 31.8489 15.2861 31.8574 15.391 31.8744L15.6885 31.917V14.5035L15.3998 14.546C15.2861 14.5631 15.1811 14.5716 15.0848 14.5716C14.5424 14.5716 14.2012 14.3502 14 13.8648V12.6897C14.2275 12.2044 14.6037 12 15.2861 12C20.9202 12.0085 26.4931 12.0085 31.2086 12.0085H42.302C43.1856 12.0085 43.5093 12.3321 43.5093 13.1921V13.3028C43.5093 13.388 43.5093 13.4816 43.5093 13.5668C43.5005 14.1969 43.1331 14.5546 42.4769 14.5546C42.4332 14.5546 42.3807 14.5546 42.337 14.5546H41.7858V14.81C41.7858 14.9377 41.7858 15.0569 41.7858 15.1762C41.7858 15.5593 41.7858 15.9255 41.7945 16.2916C41.8033 16.4705 41.9433 16.5897 42.0832 16.6919C43.4043 17.6285 44.0779 18.9058 44.1042 20.4896C44.1217 21.5285 44.1217 22.3885 44.0954 23.1889C44.0954 23.3081 44.0167 23.4784 43.9467 23.5381C43.9205 23.5636 43.8855 23.5721 43.8592 23.5721C43.7717 23.5721 43.6668 23.4784 43.658 23.3337C43.6405 22.8739 43.6405 22.4311 43.658 22.0138C43.6755 21.5966 43.4918 21.3497 43.0981 21.29C43.0368 21.2815 42.9756 21.2475 42.8881 21.2134C42.8356 21.1879 42.7831 21.1708 42.7219 21.1453L42.3632 21.009V21.3837C42.3632 21.5114 42.3632 21.6307 42.3632 21.7584C42.3632 22.0224 42.3632 22.2693 42.3632 22.5247C42.3807 23.521 42.022 24.3385 41.2959 24.9516C40.9197 25.2666 40.9722 25.6498 41.0072 25.9223L41.0159 25.9564C41.0422 26.1607 41.2521 26.3395 41.4358 26.3736C41.8995 26.4758 42.3632 26.5695 42.8531 26.6716C43.0106 26.7057 43.1768 26.7312 43.3343 26.7653L43.6493 26.8249V26.5098C43.6493 26.3821 43.6493 26.2544 43.6493 26.1352C43.6493 25.8712 43.6493 25.6158 43.6493 25.3603C43.6493 25.0197 43.8067 25.0197 43.868 25.0197C44.0167 25.0197 44.0954 25.1304 44.1042 25.3518C44.1129 25.6583 44.1042 25.9564 44.1042 26.2799C44.1042 26.4162 44.1042 26.5524 44.1042 26.6972V26.893L44.4279 26.9697C44.5154 26.9867 44.5941 27.0122 44.6641 27.0293C45.8802 27.3358 46.7638 28.4002 46.7988 29.6179C46.8775 32.198 46.9475 34.463 47 36.5322C47.0437 38.2097 46.2914 39.2315 44.6291 39.7509C44.5679 39.768 44.5241 39.802 44.4979 39.8276C44.4891 39.8361 44.4804 39.8446 44.4629 39.8531L44.3492 39.9383L44.5504 41.7265C44.5679 41.8797 44.5854 42.033 44.6029 42.1948C44.6466 42.5354 44.6903 42.893 44.7166 43.2422C44.7341 43.4039 44.7166 43.6253 44.5679 43.7786C44.4454 43.9063 44.2529 43.9745 44.008 43.9745C42.3545 44 40.6835 44 39.0212 44ZM34.2794 39.6573C34.0782 40.3981 34.0082 41.1389 33.9295 41.8542C33.8857 42.3055 33.8332 42.7823 33.7545 43.2422L33.702 43.5402H44.2442V43.2847C44.2442 43.2507 44.2442 43.2251 44.2442 43.1911C44.2442 43.1229 44.2442 43.0548 44.2354 42.9782C44.2004 42.6887 44.1654 42.3906 44.1304 42.1011C44.0692 41.5902 43.9992 41.0623 43.9467 40.5514L43.938 40.4918C43.8942 40.1256 43.868 39.8361 43.4305 39.8361C43.3955 39.8361 43.3606 39.8361 43.3168 39.8361C43.2643 39.8361 43.2031 39.8361 43.1331 39.8361C41.987 39.8361 40.8497 39.8361 39.7211 39.8361C38.6188 39.8361 37.5252 39.8361 36.4229 39.8361H36.2041C35.653 39.8361 35.163 39.8105 34.6819 39.4955L34.3757 39.2996L34.2794 39.6573ZM44.2092 32.8111C44.2092 32.8281 44.2092 32.8622 44.2004 32.8792C44.2004 32.9218 44.1917 32.9643 44.1917 32.9984C44.1917 34.5822 44.1917 36.1746 44.1917 37.7584V39.4188L44.5329 39.3167C44.5854 39.2996 44.6291 39.2911 44.6729 39.2741C44.7603 39.2485 44.8478 39.223 44.9353 39.1974C45.9414 38.8057 46.5713 37.8691 46.5451 36.8047C46.4838 34.2672 46.4226 31.917 46.3438 29.6349C46.3001 28.4172 45.2153 27.3869 43.973 27.3869C43.9292 27.3869 43.8767 27.3869 43.833 27.3954L43.6405 27.4039L43.588 27.5828C42.9844 29.7882 40.8584 30.7759 39.0125 30.7759H38.9862C37.1402 30.7674 35.0143 29.7712 34.4369 27.5742L34.3844 27.3784L34.1744 27.3869C32.7747 27.4295 31.7423 28.3917 31.6723 29.7286C31.6636 29.8904 31.6548 30.0522 31.6373 30.2139C31.6286 30.3417 31.6198 30.4609 31.6111 30.5886C31.5848 31.074 31.2699 31.4061 30.8499 31.4061C30.675 31.4061 30.4913 31.3465 30.3163 31.2358C29.9488 30.9973 29.5726 30.7419 29.2139 30.5035C29.039 30.3842 28.8727 30.2736 28.6978 30.1543C28.5141 30.0351 27.9541 29.6605 27.9541 29.6605L27.7442 29.5157L26.4756 31.2613L27.5255 31.917C28.4878 32.5216 29.4852 33.1432 30.4738 33.7563C30.6137 33.8414 30.7975 33.9436 30.9987 33.9436C31.3661 33.9521 31.7686 33.9521 32.2935 33.9521C32.5034 33.9521 32.7134 33.9521 32.9321 33.9521C33.1508 33.9521 33.3696 33.9521 33.5883 33.9521H33.8507V33.6966C33.8507 33.603 33.8507 33.5093 33.8507 33.4156C33.8507 33.2113 33.8507 32.9984 33.8595 32.794C33.8682 32.6663 33.947 32.5726 34.0607 32.5726H34.0695C34.2182 32.5812 34.2882 32.6408 34.3144 32.7855C34.3232 32.8281 34.3232 32.8877 34.3232 32.9558C34.3232 32.9814 34.3232 33.0069 34.3232 33.0325C34.3232 33.0325 34.3232 36.9239 34.3232 37.7839C34.3232 38.8568 34.9093 39.4188 36.0117 39.4188C36.974 39.4188 37.9364 39.4188 38.8987 39.4188C40.316 39.4188 41.7333 39.4188 43.1506 39.4188C43.2293 39.4188 43.3081 39.4188 43.3868 39.4103C43.4305 39.4103 43.4655 39.4018 43.518 39.4018L43.7717 39.3933V37.6732C43.7717 36.1235 43.7717 34.5652 43.7717 33.0154C43.7717 32.9899 43.7717 32.9643 43.7717 32.9388C43.7717 32.8877 43.7717 32.8111 43.7805 32.7685C43.8767 32.6663 43.9817 32.6067 44.0255 32.5897C44.0517 32.6067 44.1567 32.7344 44.2092 32.8111ZM15.1111 32.3087C14.8749 32.3087 14.6999 32.3683 14.5862 32.496C14.4724 32.6237 14.4287 32.7855 14.4637 33.0069C14.4637 33.041 14.4637 33.075 14.4637 33.1176C14.4637 33.1432 14.4637 33.1687 14.4637 33.1943C14.4637 33.8499 14.5862 33.9691 15.2511 33.9691H20.1241C22.9674 33.9691 25.802 33.9691 28.6453 33.9691C28.724 33.9691 28.8028 33.9606 28.8727 33.9606C28.9077 33.9606 28.934 33.9606 28.969 33.9521L29.6601 33.918L29.1177 33.5008C28.654 33.1432 28.1816 32.8196 27.6567 32.5301C27.4292 32.4023 27.158 32.3257 26.9218 32.3257C25.382 32.3172 23.8773 32.3172 22.215 32.3172H21.5676C21.0077 32.3172 20.439 32.3172 19.8791 32.3172H19.8616C19.7391 32.3172 19.6166 32.3172 19.5204 32.2916C19.4504 32.2746 19.3979 32.2406 19.3804 32.2065C19.3717 32.1895 19.3629 32.1724 19.3717 32.1384C19.3804 32.1043 19.4329 32.0192 19.6254 31.8744C19.6341 31.8744 19.6341 31.8744 19.6429 31.8744C19.6691 31.8744 19.6954 31.8744 19.7304 31.8744C19.7654 31.8744 19.8091 31.8829 19.8441 31.8829C20.719 31.8829 21.5938 31.8829 22.4687 31.8829H25.7757L26.0382 31.4912L25.872 31.3465C25.802 31.2869 25.732 31.2187 25.662 31.1591C25.5045 31.0144 25.3383 30.8696 25.1633 30.7334C24.6296 30.3417 24.4197 29.8648 24.5334 29.2688C24.5859 28.9878 24.4984 28.7834 24.2534 28.6216C23.5973 28.1873 22.9324 27.7445 22.2937 27.3103C22.0575 27.1485 21.8213 26.9952 21.5851 26.8334C21.1127 26.5184 21.1827 26.4162 21.2352 26.331C21.2964 26.2374 21.3401 26.2374 21.3664 26.2374C21.4364 26.2374 21.5676 26.2714 21.8301 26.4502L24.8921 28.5024L25.0408 28.4087C25.3558 28.2044 25.6532 28.1022 25.9594 28.1022C26.3094 28.1022 26.6681 28.2384 27.0443 28.5109C27.2805 28.6812 27.5342 28.843 27.7792 28.9963C27.9191 29.0814 28.0504 29.1751 28.1903 29.2602C28.6015 29.5327 29.0127 29.8052 29.4239 30.0862C29.7564 30.3076 30.0976 30.5375 30.43 30.7589C30.4913 30.8015 30.5525 30.8356 30.64 30.8866C30.6837 30.9122 30.7362 30.9377 30.7887 30.9718L31.1999 31.2187L31.1824 30.7504C31.1124 28.5365 31.8998 27.3784 33.7283 26.9782L33.9382 26.9356V26.3395C33.9382 25.7435 33.9382 25.1389 33.9382 24.5428C33.9382 23.2315 33.9295 21.8691 33.947 20.5407C33.9645 17.9095 36.0117 15.917 38.7063 15.917H38.7413C39.2574 15.917 39.7823 15.9681 40.2985 16.0106C40.5347 16.0277 40.7797 16.0532 41.0247 16.0703L41.3046 16.0873V14.5801H16.2047V31.8659H16.4671C16.5896 31.8659 16.7121 31.8659 16.8346 31.8659C16.9483 31.8659 17.062 31.8659 17.1758 31.8659C17.3507 31.8659 17.4907 31.8659 17.622 31.8744C17.8319 31.8829 17.8582 31.9766 17.8669 32.0788C17.8669 32.1384 17.8757 32.2831 17.622 32.3087C17.5695 32.3172 17.5257 32.3172 17.4732 32.3172H17.3507C17.1408 32.3172 16.9396 32.3172 16.7383 32.3172C16.5109 32.3172 16.2922 32.3172 16.0647 32.3172C15.6972 32.3172 15.3998 32.3172 15.1286 32.3087H15.1111ZM25.9419 28.5365C25.7145 28.5365 25.4958 28.6216 25.3033 28.7749C24.9796 29.0474 24.8659 29.4816 25.0233 29.8733C25.1546 30.1969 25.6882 30.6312 26.0644 30.6312C26.4144 30.6227 26.5281 30.4609 26.8343 30.0181C27.0005 29.7712 27.1493 29.5242 27.088 29.2688C27.0268 29.0133 26.7906 28.86 26.5194 28.7068C26.3269 28.5875 26.1344 28.5365 25.9419 28.5365ZM37.5077 26.0245C37.3677 26.5524 37.0265 26.8079 36.2829 26.9186C36.0204 26.9612 35.7667 27.0122 35.4955 27.0718C35.373 27.0974 35.2593 27.1229 35.1368 27.1485L34.8918 27.1996L34.9268 27.438C35.198 29.107 36.9478 30.3161 39.0912 30.3161C39.2049 30.3161 39.3274 30.3161 39.4411 30.3076C41.3046 30.1969 43.0456 28.8089 43.0893 27.4039L43.0981 27.1911L42.4507 27.0633C42.1182 26.9952 41.7858 26.9271 41.4446 26.8675C41.0159 26.7823 40.7447 26.5865 40.596 26.2374C40.5697 26.1863 40.5435 26.1352 40.5172 26.0841C40.5085 26.0585 40.491 26.0415 40.4822 26.016L40.351 25.7775L40.1148 25.9138C39.7473 26.1267 39.3974 26.2288 39.0387 26.2288C38.6625 26.2288 38.2863 26.1181 37.8926 25.8797L37.5864 25.7009L37.5077 26.0245ZM34.4107 26.8334L34.7256 26.7738C34.8918 26.7398 35.0493 26.7142 35.2068 26.6801C35.6092 26.6035 35.9942 26.5269 36.3791 26.4332C36.4753 26.4077 36.939 26.2799 37.0178 25.9734C37.079 25.7435 37.184 25.3092 36.7903 24.9601C36.2041 24.4492 35.8804 23.8957 35.7754 23.2741C35.7317 22.9846 35.723 22.678 35.7142 22.38V22.3289C35.7055 21.9372 35.4517 21.835 35.2418 21.818C35.1368 21.8095 35.0231 21.7839 34.9093 21.7584C34.8481 21.7414 34.7868 21.7328 34.7256 21.7158L34.4107 21.6562V26.8334ZM41.3309 20.0894C39.5899 21.2134 38.0326 21.7839 36.4229 21.8946L36.1954 21.9117L36.1866 22.1416C36.1429 22.8909 36.1516 23.6062 36.6853 24.1852C37.0703 24.6024 37.5339 25.0112 38.1376 25.471C38.4088 25.6839 38.7238 25.7946 39.0387 25.7946C39.3537 25.7946 39.6686 25.6839 39.9486 25.471C40.5522 25.0197 40.9809 24.6365 41.3396 24.2448C41.6108 23.9468 41.8033 23.521 41.847 23.1378C41.917 22.4907 41.9083 21.8265 41.9083 21.1879C41.9083 21.0772 41.9083 20.9665 41.9083 20.8643C41.9083 20.7025 41.8558 20.5663 41.8033 20.4215C41.7858 20.3619 41.7595 20.3023 41.742 20.2427L41.6458 19.9021L41.3309 20.0894ZM38.7762 16.3342C37.5252 16.3427 36.3966 16.794 35.5917 17.5859C34.7956 18.3779 34.3669 19.4763 34.3844 20.677C34.3932 20.992 34.5419 21.1794 34.8568 21.2645C35.2855 21.3837 35.7405 21.4433 36.1866 21.4433C36.4141 21.4433 36.6416 21.4263 36.8778 21.4007C38.3476 21.2049 39.7648 20.6173 41.3309 19.5359C41.5146 19.4082 41.6021 19.3912 41.6458 19.3912C41.7333 19.3912 41.8208 19.5444 41.8908 19.6807C42.1795 20.2597 42.6344 20.6514 43.2993 20.8813L43.6493 21.0005V20.6344C43.6405 19.0335 43.0019 17.8499 41.7158 16.9984C40.8147 16.4109 39.8348 16.3257 38.9075 16.3257C38.8637 16.3342 38.82 16.3342 38.7762 16.3342ZM42.2582 14.1118C42.2845 14.1118 42.3107 14.1118 42.3282 14.1118C42.3545 14.1118 42.3894 14.1118 42.4157 14.1118C42.4857 14.1118 42.5382 14.1118 42.5907 14.0947C42.6519 14.0862 42.9756 14.0181 42.9931 13.7712L43.0019 13.6519C43.0194 13.3709 43.0456 13.0899 42.9931 12.8004C42.9319 12.4683 42.302 12.4513 42.2232 12.4513C34.9443 12.4513 27.5604 12.4513 20.6315 12.4513H15.4173C15.0061 12.4513 14.7786 12.4513 14.6212 12.6131C14.4549 12.7749 14.4549 12.9878 14.4549 13.3795C14.4549 13.9925 14.5774 14.1118 15.2161 14.1118H42.2582Z"/>
</mask>
<path d="M39.0212 44C37.359 44 35.6967 44 34.0257 44C33.8507 44 33.6058 43.9659 33.4571 43.8042C33.3083 43.6424 33.2996 43.4125 33.3171 43.2422C33.4133 42.2629 33.5358 41.2666 33.6495 40.2959L33.667 40.1682C33.6845 40.0404 33.7195 39.8957 33.7808 39.7339C34.0257 39.0782 34.0257 39.0271 33.8857 38.3459L33.877 38.3204C33.842 38.1416 33.842 37.9457 33.842 37.7328V37.6988C33.842 36.9665 33.842 36.2427 33.842 35.4933V34.4119C33.842 34.4119 26.1344 34.4119 24.7434 34.4119C22.145 34.4119 18.7155 34.4119 15.2598 34.4204C14.5599 34.4204 14.2012 34.2076 14 33.6966V32.5726C14.1837 32.0788 14.5337 31.8489 15.0848 31.8489C15.1811 31.8489 15.2861 31.8574 15.391 31.8744L15.6885 31.917V14.5035L15.3998 14.546C15.2861 14.5631 15.1811 14.5716 15.0848 14.5716C14.5424 14.5716 14.2012 14.3502 14 13.8648V12.6897C14.2275 12.2044 14.6037 12 15.2861 12C20.9202 12.0085 26.4931 12.0085 31.2086 12.0085H42.302C43.1856 12.0085 43.5093 12.3321 43.5093 13.1921V13.3028C43.5093 13.388 43.5093 13.4816 43.5093 13.5668C43.5005 14.1969 43.1331 14.5546 42.4769 14.5546C42.4332 14.5546 42.3807 14.5546 42.337 14.5546H41.7858V14.81C41.7858 14.9377 41.7858 15.0569 41.7858 15.1762C41.7858 15.5593 41.7858 15.9255 41.7945 16.2916C41.8033 16.4705 41.9433 16.5897 42.0832 16.6919C43.4043 17.6285 44.0779 18.9058 44.1042 20.4896C44.1217 21.5285 44.1217 22.3885 44.0954 23.1889C44.0954 23.3081 44.0167 23.4784 43.9467 23.5381C43.9205 23.5636 43.8855 23.5721 43.8592 23.5721C43.7717 23.5721 43.6668 23.4784 43.658 23.3337C43.6405 22.8739 43.6405 22.4311 43.658 22.0138C43.6755 21.5966 43.4918 21.3497 43.0981 21.29C43.0368 21.2815 42.9756 21.2475 42.8881 21.2134C42.8356 21.1879 42.7831 21.1708 42.7219 21.1453L42.3632 21.009V21.3837C42.3632 21.5114 42.3632 21.6307 42.3632 21.7584C42.3632 22.0224 42.3632 22.2693 42.3632 22.5247C42.3807 23.521 42.022 24.3385 41.2959 24.9516C40.9197 25.2666 40.9722 25.6498 41.0072 25.9223L41.0159 25.9564C41.0422 26.1607 41.2521 26.3395 41.4358 26.3736C41.8995 26.4758 42.3632 26.5695 42.8531 26.6716C43.0106 26.7057 43.1768 26.7312 43.3343 26.7653L43.6493 26.8249V26.5098C43.6493 26.3821 43.6493 26.2544 43.6493 26.1352C43.6493 25.8712 43.6493 25.6158 43.6493 25.3603C43.6493 25.0197 43.8067 25.0197 43.868 25.0197C44.0167 25.0197 44.0954 25.1304 44.1042 25.3518C44.1129 25.6583 44.1042 25.9564 44.1042 26.2799C44.1042 26.4162 44.1042 26.5524 44.1042 26.6972V26.893L44.4279 26.9697C44.5154 26.9867 44.5941 27.0122 44.6641 27.0293C45.8802 27.3358 46.7638 28.4002 46.7988 29.6179C46.8775 32.198 46.9475 34.463 47 36.5322C47.0437 38.2097 46.2914 39.2315 44.6291 39.7509C44.5679 39.768 44.5241 39.802 44.4979 39.8276C44.4891 39.8361 44.4804 39.8446 44.4629 39.8531L44.3492 39.9383L44.5504 41.7265C44.5679 41.8797 44.5854 42.033 44.6029 42.1948C44.6466 42.5354 44.6903 42.893 44.7166 43.2422C44.7341 43.4039 44.7166 43.6253 44.5679 43.7786C44.4454 43.9063 44.2529 43.9745 44.008 43.9745C42.3545 44 40.6835 44 39.0212 44ZM34.2794 39.6573C34.0782 40.3981 34.0082 41.1389 33.9295 41.8542C33.8857 42.3055 33.8332 42.7823 33.7545 43.2422L33.702 43.5402H44.2442V43.2847C44.2442 43.2507 44.2442 43.2251 44.2442 43.1911C44.2442 43.1229 44.2442 43.0548 44.2354 42.9782C44.2004 42.6887 44.1654 42.3906 44.1304 42.1011C44.0692 41.5902 43.9992 41.0623 43.9467 40.5514L43.938 40.4918C43.8942 40.1256 43.868 39.8361 43.4305 39.8361C43.3955 39.8361 43.3606 39.8361 43.3168 39.8361C43.2643 39.8361 43.2031 39.8361 43.1331 39.8361C41.987 39.8361 40.8497 39.8361 39.7211 39.8361C38.6188 39.8361 37.5252 39.8361 36.4229 39.8361H36.2041C35.653 39.8361 35.163 39.8105 34.6819 39.4955L34.3757 39.2996L34.2794 39.6573ZM44.2092 32.8111C44.2092 32.8281 44.2092 32.8622 44.2004 32.8792C44.2004 32.9218 44.1917 32.9643 44.1917 32.9984C44.1917 34.5822 44.1917 36.1746 44.1917 37.7584V39.4188L44.5329 39.3167C44.5854 39.2996 44.6291 39.2911 44.6729 39.2741C44.7603 39.2485 44.8478 39.223 44.9353 39.1974C45.9414 38.8057 46.5713 37.8691 46.5451 36.8047C46.4838 34.2672 46.4226 31.917 46.3438 29.6349C46.3001 28.4172 45.2153 27.3869 43.973 27.3869C43.9292 27.3869 43.8767 27.3869 43.833 27.3954L43.6405 27.4039L43.588 27.5828C42.9844 29.7882 40.8584 30.7759 39.0125 30.7759H38.9862C37.1402 30.7674 35.0143 29.7712 34.4369 27.5742L34.3844 27.3784L34.1744 27.3869C32.7747 27.4295 31.7423 28.3917 31.6723 29.7286C31.6636 29.8904 31.6548 30.0522 31.6373 30.2139C31.6286 30.3417 31.6198 30.4609 31.6111 30.5886C31.5848 31.074 31.2699 31.4061 30.8499 31.4061C30.675 31.4061 30.4913 31.3465 30.3163 31.2358C29.9488 30.9973 29.5726 30.7419 29.2139 30.5035C29.039 30.3842 28.8727 30.2736 28.6978 30.1543C28.5141 30.0351 27.9541 29.6605 27.9541 29.6605L27.7442 29.5157L26.4756 31.2613L27.5255 31.917C28.4878 32.5216 29.4852 33.1432 30.4738 33.7563C30.6137 33.8414 30.7975 33.9436 30.9987 33.9436C31.3661 33.9521 31.7686 33.9521 32.2935 33.9521C32.5034 33.9521 32.7134 33.9521 32.9321 33.9521C33.1508 33.9521 33.3696 33.9521 33.5883 33.9521H33.8507V33.6966C33.8507 33.603 33.8507 33.5093 33.8507 33.4156C33.8507 33.2113 33.8507 32.9984 33.8595 32.794C33.8682 32.6663 33.947 32.5726 34.0607 32.5726H34.0695C34.2182 32.5812 34.2882 32.6408 34.3144 32.7855C34.3232 32.8281 34.3232 32.8877 34.3232 32.9558C34.3232 32.9814 34.3232 33.0069 34.3232 33.0325C34.3232 33.0325 34.3232 36.9239 34.3232 37.7839C34.3232 38.8568 34.9093 39.4188 36.0117 39.4188C36.974 39.4188 37.9364 39.4188 38.8987 39.4188C40.316 39.4188 41.7333 39.4188 43.1506 39.4188C43.2293 39.4188 43.3081 39.4188 43.3868 39.4103C43.4305 39.4103 43.4655 39.4018 43.518 39.4018L43.7717 39.3933V37.6732C43.7717 36.1235 43.7717 34.5652 43.7717 33.0154C43.7717 32.9899 43.7717 32.9643 43.7717 32.9388C43.7717 32.8877 43.7717 32.8111 43.7805 32.7685C43.8767 32.6663 43.9817 32.6067 44.0255 32.5897C44.0517 32.6067 44.1567 32.7344 44.2092 32.8111ZM15.1111 32.3087C14.8749 32.3087 14.6999 32.3683 14.5862 32.496C14.4724 32.6237 14.4287 32.7855 14.4637 33.0069C14.4637 33.041 14.4637 33.075 14.4637 33.1176C14.4637 33.1432 14.4637 33.1687 14.4637 33.1943C14.4637 33.8499 14.5862 33.9691 15.2511 33.9691H20.1241C22.9674 33.9691 25.802 33.9691 28.6453 33.9691C28.724 33.9691 28.8028 33.9606 28.8727 33.9606C28.9077 33.9606 28.934 33.9606 28.969 33.9521L29.6601 33.918L29.1177 33.5008C28.654 33.1432 28.1816 32.8196 27.6567 32.5301C27.4292 32.4023 27.158 32.3257 26.9218 32.3257C25.382 32.3172 23.8773 32.3172 22.215 32.3172H21.5676C21.0077 32.3172 20.439 32.3172 19.8791 32.3172H19.8616C19.7391 32.3172 19.6166 32.3172 19.5204 32.2916C19.4504 32.2746 19.3979 32.2406 19.3804 32.2065C19.3717 32.1895 19.3629 32.1724 19.3717 32.1384C19.3804 32.1043 19.4329 32.0192 19.6254 31.8744C19.6341 31.8744 19.6341 31.8744 19.6429 31.8744C19.6691 31.8744 19.6954 31.8744 19.7304 31.8744C19.7654 31.8744 19.8091 31.8829 19.8441 31.8829C20.719 31.8829 21.5938 31.8829 22.4687 31.8829H25.7757L26.0382 31.4912L25.872 31.3465C25.802 31.2869 25.732 31.2187 25.662 31.1591C25.5045 31.0144 25.3383 30.8696 25.1633 30.7334C24.6296 30.3417 24.4197 29.8648 24.5334 29.2688C24.5859 28.9878 24.4984 28.7834 24.2534 28.6216C23.5973 28.1873 22.9324 27.7445 22.2937 27.3103C22.0575 27.1485 21.8213 26.9952 21.5851 26.8334C21.1127 26.5184 21.1827 26.4162 21.2352 26.331C21.2964 26.2374 21.3401 26.2374 21.3664 26.2374C21.4364 26.2374 21.5676 26.2714 21.8301 26.4502L24.8921 28.5024L25.0408 28.4087C25.3558 28.2044 25.6532 28.1022 25.9594 28.1022C26.3094 28.1022 26.6681 28.2384 27.0443 28.5109C27.2805 28.6812 27.5342 28.843 27.7792 28.9963C27.9191 29.0814 28.0504 29.1751 28.1903 29.2602C28.6015 29.5327 29.0127 29.8052 29.4239 30.0862C29.7564 30.3076 30.0976 30.5375 30.43 30.7589C30.4913 30.8015 30.5525 30.8356 30.64 30.8866C30.6837 30.9122 30.7362 30.9377 30.7887 30.9718L31.1999 31.2187L31.1824 30.7504C31.1124 28.5365 31.8998 27.3784 33.7283 26.9782L33.9382 26.9356V26.3395C33.9382 25.7435 33.9382 25.1389 33.9382 24.5428C33.9382 23.2315 33.9295 21.8691 33.947 20.5407C33.9645 17.9095 36.0117 15.917 38.7063 15.917H38.7413C39.2574 15.917 39.7823 15.9681 40.2985 16.0106C40.5347 16.0277 40.7797 16.0532 41.0247 16.0703L41.3046 16.0873V14.5801H16.2047V31.8659H16.4671C16.5896 31.8659 16.7121 31.8659 16.8346 31.8659C16.9483 31.8659 17.062 31.8659 17.1758 31.8659C17.3507 31.8659 17.4907 31.8659 17.622 31.8744C17.8319 31.8829 17.8582 31.9766 17.8669 32.0788C17.8669 32.1384 17.8757 32.2831 17.622 32.3087C17.5695 32.3172 17.5257 32.3172 17.4732 32.3172H17.3507C17.1408 32.3172 16.9396 32.3172 16.7383 32.3172C16.5109 32.3172 16.2922 32.3172 16.0647 32.3172C15.6972 32.3172 15.3998 32.3172 15.1286 32.3087H15.1111ZM25.9419 28.5365C25.7145 28.5365 25.4958 28.6216 25.3033 28.7749C24.9796 29.0474 24.8659 29.4816 25.0233 29.8733C25.1546 30.1969 25.6882 30.6312 26.0644 30.6312C26.4144 30.6227 26.5281 30.4609 26.8343 30.0181C27.0005 29.7712 27.1493 29.5242 27.088 29.2688C27.0268 29.0133 26.7906 28.86 26.5194 28.7068C26.3269 28.5875 26.1344 28.5365 25.9419 28.5365ZM37.5077 26.0245C37.3677 26.5524 37.0265 26.8079 36.2829 26.9186C36.0204 26.9612 35.7667 27.0122 35.4955 27.0718C35.373 27.0974 35.2593 27.1229 35.1368 27.1485L34.8918 27.1996L34.9268 27.438C35.198 29.107 36.9478 30.3161 39.0912 30.3161C39.2049 30.3161 39.3274 30.3161 39.4411 30.3076C41.3046 30.1969 43.0456 28.8089 43.0893 27.4039L43.0981 27.1911L42.4507 27.0633C42.1182 26.9952 41.7858 26.9271 41.4446 26.8675C41.0159 26.7823 40.7447 26.5865 40.596 26.2374C40.5697 26.1863 40.5435 26.1352 40.5172 26.0841C40.5085 26.0585 40.491 26.0415 40.4822 26.016L40.351 25.7775L40.1148 25.9138C39.7473 26.1267 39.3974 26.2288 39.0387 26.2288C38.6625 26.2288 38.2863 26.1181 37.8926 25.8797L37.5864 25.7009L37.5077 26.0245ZM34.4107 26.8334L34.7256 26.7738C34.8918 26.7398 35.0493 26.7142 35.2068 26.6801C35.6092 26.6035 35.9942 26.5269 36.3791 26.4332C36.4753 26.4077 36.939 26.2799 37.0178 25.9734C37.079 25.7435 37.184 25.3092 36.7903 24.9601C36.2041 24.4492 35.8804 23.8957 35.7754 23.2741C35.7317 22.9846 35.723 22.678 35.7142 22.38V22.3289C35.7055 21.9372 35.4517 21.835 35.2418 21.818C35.1368 21.8095 35.0231 21.7839 34.9093 21.7584C34.8481 21.7414 34.7868 21.7328 34.7256 21.7158L34.4107 21.6562V26.8334ZM41.3309 20.0894C39.5899 21.2134 38.0326 21.7839 36.4229 21.8946L36.1954 21.9117L36.1866 22.1416C36.1429 22.8909 36.1516 23.6062 36.6853 24.1852C37.0703 24.6024 37.5339 25.0112 38.1376 25.471C38.4088 25.6839 38.7238 25.7946 39.0387 25.7946C39.3537 25.7946 39.6686 25.6839 39.9486 25.471C40.5522 25.0197 40.9809 24.6365 41.3396 24.2448C41.6108 23.9468 41.8033 23.521 41.847 23.1378C41.917 22.4907 41.9083 21.8265 41.9083 21.1879C41.9083 21.0772 41.9083 20.9665 41.9083 20.8643C41.9083 20.7025 41.8558 20.5663 41.8033 20.4215C41.7858 20.3619 41.7595 20.3023 41.742 20.2427L41.6458 19.9021L41.3309 20.0894ZM38.7762 16.3342C37.5252 16.3427 36.3966 16.794 35.5917 17.5859C34.7956 18.3779 34.3669 19.4763 34.3844 20.677C34.3932 20.992 34.5419 21.1794 34.8568 21.2645C35.2855 21.3837 35.7405 21.4433 36.1866 21.4433C36.4141 21.4433 36.6416 21.4263 36.8778 21.4007C38.3476 21.2049 39.7648 20.6173 41.3309 19.5359C41.5146 19.4082 41.6021 19.3912 41.6458 19.3912C41.7333 19.3912 41.8208 19.5444 41.8908 19.6807C42.1795 20.2597 42.6344 20.6514 43.2993 20.8813L43.6493 21.0005V20.6344C43.6405 19.0335 43.0019 17.8499 41.7158 16.9984C40.8147 16.4109 39.8348 16.3257 38.9075 16.3257C38.8637 16.3342 38.82 16.3342 38.7762 16.3342ZM42.2582 14.1118C42.2845 14.1118 42.3107 14.1118 42.3282 14.1118C42.3545 14.1118 42.3894 14.1118 42.4157 14.1118C42.4857 14.1118 42.5382 14.1118 42.5907 14.0947C42.6519 14.0862 42.9756 14.0181 42.9931 13.7712L43.0019 13.6519C43.0194 13.3709 43.0456 13.0899 42.9931 12.8004C42.9319 12.4683 42.302 12.4513 42.2232 12.4513C34.9443 12.4513 27.5604 12.4513 20.6315 12.4513H15.4173C15.0061 12.4513 14.7786 12.4513 14.6212 12.6131C14.4549 12.7749 14.4549 12.9878 14.4549 13.3795C14.4549 13.9925 14.5774 14.1118 15.2161 14.1118H42.2582Z" fill="white"/>
<path d="M39.0212 44C37.359 44 35.6967 44 34.0257 44C33.8507 44 33.6058 43.9659 33.4571 43.8042C33.3083 43.6424 33.2996 43.4125 33.3171 43.2422C33.4133 42.2629 33.5358 41.2666 33.6495 40.2959L33.667 40.1682C33.6845 40.0404 33.7195 39.8957 33.7808 39.7339C34.0257 39.0782 34.0257 39.0271 33.8857 38.3459L33.877 38.3204C33.842 38.1416 33.842 37.9457 33.842 37.7328V37.6988C33.842 36.9665 33.842 36.2427 33.842 35.4933V34.4119C33.842 34.4119 26.1344 34.4119 24.7434 34.4119C22.145 34.4119 18.7155 34.4119 15.2598 34.4204C14.5599 34.4204 14.2012 34.2076 14 33.6966V32.5726C14.1837 32.0788 14.5337 31.8489 15.0848 31.8489C15.1811 31.8489 15.2861 31.8574 15.391 31.8744L15.6885 31.917V14.5035L15.3998 14.546C15.2861 14.5631 15.1811 14.5716 15.0848 14.5716C14.5424 14.5716 14.2012 14.3502 14 13.8648V12.6897C14.2275 12.2044 14.6037 12 15.2861 12C20.9202 12.0085 26.4931 12.0085 31.2086 12.0085H42.302C43.1856 12.0085 43.5093 12.3321 43.5093 13.1921V13.3028C43.5093 13.388 43.5093 13.4816 43.5093 13.5668C43.5005 14.1969 43.1331 14.5546 42.4769 14.5546C42.4332 14.5546 42.3807 14.5546 42.337 14.5546H41.7858V14.81C41.7858 14.9377 41.7858 15.0569 41.7858 15.1762C41.7858 15.5593 41.7858 15.9255 41.7945 16.2916C41.8033 16.4705 41.9433 16.5897 42.0832 16.6919C43.4043 17.6285 44.0779 18.9058 44.1042 20.4896C44.1217 21.5285 44.1217 22.3885 44.0954 23.1889C44.0954 23.3081 44.0167 23.4784 43.9467 23.5381C43.9205 23.5636 43.8855 23.5721 43.8592 23.5721C43.7717 23.5721 43.6668 23.4784 43.658 23.3337C43.6405 22.8739 43.6405 22.4311 43.658 22.0138C43.6755 21.5966 43.4918 21.3497 43.0981 21.29C43.0368 21.2815 42.9756 21.2475 42.8881 21.2134C42.8356 21.1879 42.7831 21.1708 42.7219 21.1453L42.3632 21.009V21.3837C42.3632 21.5114 42.3632 21.6307 42.3632 21.7584C42.3632 22.0224 42.3632 22.2693 42.3632 22.5247C42.3807 23.521 42.022 24.3385 41.2959 24.9516C40.9197 25.2666 40.9722 25.6498 41.0072 25.9223L41.0159 25.9564C41.0422 26.1607 41.2521 26.3395 41.4358 26.3736C41.8995 26.4758 42.3632 26.5695 42.8531 26.6716C43.0106 26.7057 43.1768 26.7312 43.3343 26.7653L43.6493 26.8249V26.5098C43.6493 26.3821 43.6493 26.2544 43.6493 26.1352C43.6493 25.8712 43.6493 25.6158 43.6493 25.3603C43.6493 25.0197 43.8067 25.0197 43.868 25.0197C44.0167 25.0197 44.0954 25.1304 44.1042 25.3518C44.1129 25.6583 44.1042 25.9564 44.1042 26.2799C44.1042 26.4162 44.1042 26.5524 44.1042 26.6972V26.893L44.4279 26.9697C44.5154 26.9867 44.5941 27.0122 44.6641 27.0293C45.8802 27.3358 46.7638 28.4002 46.7988 29.6179C46.8775 32.198 46.9475 34.463 47 36.5322C47.0437 38.2097 46.2914 39.2315 44.6291 39.7509C44.5679 39.768 44.5241 39.802 44.4979 39.8276C44.4891 39.8361 44.4804 39.8446 44.4629 39.8531L44.3492 39.9383L44.5504 41.7265C44.5679 41.8797 44.5854 42.033 44.6029 42.1948C44.6466 42.5354 44.6903 42.893 44.7166 43.2422C44.7341 43.4039 44.7166 43.6253 44.5679 43.7786C44.4454 43.9063 44.2529 43.9745 44.008 43.9745C42.3545 44 40.6835 44 39.0212 44ZM34.2794 39.6573C34.0782 40.3981 34.0082 41.1389 33.9295 41.8542C33.8857 42.3055 33.8332 42.7823 33.7545 43.2422L33.702 43.5402H44.2442V43.2847C44.2442 43.2507 44.2442 43.2251 44.2442 43.1911C44.2442 43.1229 44.2442 43.0548 44.2354 42.9782C44.2004 42.6887 44.1654 42.3906 44.1304 42.1011C44.0692 41.5902 43.9992 41.0623 43.9467 40.5514L43.938 40.4918C43.8942 40.1256 43.868 39.8361 43.4305 39.8361C43.3955 39.8361 43.3606 39.8361 43.3168 39.8361C43.2643 39.8361 43.2031 39.8361 43.1331 39.8361C41.987 39.8361 40.8497 39.8361 39.7211 39.8361C38.6188 39.8361 37.5252 39.8361 36.4229 39.8361H36.2041C35.653 39.8361 35.163 39.8105 34.6819 39.4955L34.3757 39.2996L34.2794 39.6573ZM44.2092 32.8111C44.2092 32.8281 44.2092 32.8622 44.2004 32.8792C44.2004 32.9218 44.1917 32.9643 44.1917 32.9984C44.1917 34.5822 44.1917 36.1746 44.1917 37.7584V39.4188L44.5329 39.3167C44.5854 39.2996 44.6291 39.2911 44.6729 39.2741C44.7603 39.2485 44.8478 39.223 44.9353 39.1974C45.9414 38.8057 46.5713 37.8691 46.5451 36.8047C46.4838 34.2672 46.4226 31.917 46.3438 29.6349C46.3001 28.4172 45.2153 27.3869 43.973 27.3869C43.9292 27.3869 43.8767 27.3869 43.833 27.3954L43.6405 27.4039L43.588 27.5828C42.9844 29.7882 40.8584 30.7759 39.0125 30.7759H38.9862C37.1402 30.7674 35.0143 29.7712 34.4369 27.5742L34.3844 27.3784L34.1744 27.3869C32.7747 27.4295 31.7423 28.3917 31.6723 29.7286C31.6636 29.8904 31.6548 30.0522 31.6373 30.2139C31.6286 30.3417 31.6198 30.4609 31.6111 30.5886C31.5848 31.074 31.2699 31.4061 30.8499 31.4061C30.675 31.4061 30.4913 31.3465 30.3163 31.2358C29.9488 30.9973 29.5726 30.7419 29.2139 30.5035C29.039 30.3842 28.8727 30.2736 28.6978 30.1543C28.5141 30.0351 27.9541 29.6605 27.9541 29.6605L27.7442 29.5157L26.4756 31.2613L27.5255 31.917C28.4878 32.5216 29.4852 33.1432 30.4738 33.7563C30.6137 33.8414 30.7975 33.9436 30.9987 33.9436C31.3661 33.9521 31.7686 33.9521 32.2935 33.9521C32.5034 33.9521 32.7134 33.9521 32.9321 33.9521C33.1508 33.9521 33.3696 33.9521 33.5883 33.9521H33.8507V33.6966C33.8507 33.603 33.8507 33.5093 33.8507 33.4156C33.8507 33.2113 33.8507 32.9984 33.8595 32.794C33.8682 32.6663 33.947 32.5726 34.0607 32.5726H34.0695C34.2182 32.5812 34.2882 32.6408 34.3144 32.7855C34.3232 32.8281 34.3232 32.8877 34.3232 32.9558C34.3232 32.9814 34.3232 33.0069 34.3232 33.0325C34.3232 33.0325 34.3232 36.9239 34.3232 37.7839C34.3232 38.8568 34.9093 39.4188 36.0117 39.4188C36.974 39.4188 37.9364 39.4188 38.8987 39.4188C40.316 39.4188 41.7333 39.4188 43.1506 39.4188C43.2293 39.4188 43.3081 39.4188 43.3868 39.4103C43.4305 39.4103 43.4655 39.4018 43.518 39.4018L43.7717 39.3933V37.6732C43.7717 36.1235 43.7717 34.5652 43.7717 33.0154C43.7717 32.9899 43.7717 32.9643 43.7717 32.9388C43.7717 32.8877 43.7717 32.8111 43.7805 32.7685C43.8767 32.6663 43.9817 32.6067 44.0255 32.5897C44.0517 32.6067 44.1567 32.7344 44.2092 32.8111ZM15.1111 32.3087C14.8749 32.3087 14.6999 32.3683 14.5862 32.496C14.4724 32.6237 14.4287 32.7855 14.4637 33.0069C14.4637 33.041 14.4637 33.075 14.4637 33.1176C14.4637 33.1432 14.4637 33.1687 14.4637 33.1943C14.4637 33.8499 14.5862 33.9691 15.2511 33.9691H20.1241C22.9674 33.9691 25.802 33.9691 28.6453 33.9691C28.724 33.9691 28.8028 33.9606 28.8727 33.9606C28.9077 33.9606 28.934 33.9606 28.969 33.9521L29.6601 33.918L29.1177 33.5008C28.654 33.1432 28.1816 32.8196 27.6567 32.5301C27.4292 32.4023 27.158 32.3257 26.9218 32.3257C25.382 32.3172 23.8773 32.3172 22.215 32.3172H21.5676C21.0077 32.3172 20.439 32.3172 19.8791 32.3172H19.8616C19.7391 32.3172 19.6166 32.3172 19.5204 32.2916C19.4504 32.2746 19.3979 32.2406 19.3804 32.2065C19.3717 32.1895 19.3629 32.1724 19.3717 32.1384C19.3804 32.1043 19.4329 32.0192 19.6254 31.8744C19.6341 31.8744 19.6341 31.8744 19.6429 31.8744C19.6691 31.8744 19.6954 31.8744 19.7304 31.8744C19.7654 31.8744 19.8091 31.8829 19.8441 31.8829C20.719 31.8829 21.5938 31.8829 22.4687 31.8829H25.7757L26.0382 31.4912L25.872 31.3465C25.802 31.2869 25.732 31.2187 25.662 31.1591C25.5045 31.0144 25.3383 30.8696 25.1633 30.7334C24.6296 30.3417 24.4197 29.8648 24.5334 29.2688C24.5859 28.9878 24.4984 28.7834 24.2534 28.6216C23.5973 28.1873 22.9324 27.7445 22.2937 27.3103C22.0575 27.1485 21.8213 26.9952 21.5851 26.8334C21.1127 26.5184 21.1827 26.4162 21.2352 26.331C21.2964 26.2374 21.3401 26.2374 21.3664 26.2374C21.4364 26.2374 21.5676 26.2714 21.8301 26.4502L24.8921 28.5024L25.0408 28.4087C25.3558 28.2044 25.6532 28.1022 25.9594 28.1022C26.3094 28.1022 26.6681 28.2384 27.0443 28.5109C27.2805 28.6812 27.5342 28.843 27.7792 28.9963C27.9191 29.0814 28.0504 29.1751 28.1903 29.2602C28.6015 29.5327 29.0127 29.8052 29.4239 30.0862C29.7564 30.3076 30.0976 30.5375 30.43 30.7589C30.4913 30.8015 30.5525 30.8356 30.64 30.8866C30.6837 30.9122 30.7362 30.9377 30.7887 30.9718L31.1999 31.2187L31.1824 30.7504C31.1124 28.5365 31.8998 27.3784 33.7283 26.9782L33.9382 26.9356V26.3395C33.9382 25.7435 33.9382 25.1389 33.9382 24.5428C33.9382 23.2315 33.9295 21.8691 33.947 20.5407C33.9645 17.9095 36.0117 15.917 38.7063 15.917H38.7413C39.2574 15.917 39.7823 15.9681 40.2985 16.0106C40.5347 16.0277 40.7797 16.0532 41.0247 16.0703L41.3046 16.0873V14.5801H16.2047V31.8659H16.4671C16.5896 31.8659 16.7121 31.8659 16.8346 31.8659C16.9483 31.8659 17.062 31.8659 17.1758 31.8659C17.3507 31.8659 17.4907 31.8659 17.622 31.8744C17.8319 31.8829 17.8582 31.9766 17.8669 32.0788C17.8669 32.1384 17.8757 32.2831 17.622 32.3087C17.5695 32.3172 17.5257 32.3172 17.4732 32.3172H17.3507C17.1408 32.3172 16.9396 32.3172 16.7383 32.3172C16.5109 32.3172 16.2922 32.3172 16.0647 32.3172C15.6972 32.3172 15.3998 32.3172 15.1286 32.3087H15.1111ZM25.9419 28.5365C25.7145 28.5365 25.4958 28.6216 25.3033 28.7749C24.9796 29.0474 24.8659 29.4816 25.0233 29.8733C25.1546 30.1969 25.6882 30.6312 26.0644 30.6312C26.4144 30.6227 26.5281 30.4609 26.8343 30.0181C27.0005 29.7712 27.1493 29.5242 27.088 29.2688C27.0268 29.0133 26.7906 28.86 26.5194 28.7068C26.3269 28.5875 26.1344 28.5365 25.9419 28.5365ZM37.5077 26.0245C37.3677 26.5524 37.0265 26.8079 36.2829 26.9186C36.0204 26.9612 35.7667 27.0122 35.4955 27.0718C35.373 27.0974 35.2593 27.1229 35.1368 27.1485L34.8918 27.1996L34.9268 27.438C35.198 29.107 36.9478 30.3161 39.0912 30.3161C39.2049 30.3161 39.3274 30.3161 39.4411 30.3076C41.3046 30.1969 43.0456 28.8089 43.0893 27.4039L43.0981 27.1911L42.4507 27.0633C42.1182 26.9952 41.7858 26.9271 41.4446 26.8675C41.0159 26.7823 40.7447 26.5865 40.596 26.2374C40.5697 26.1863 40.5435 26.1352 40.5172 26.0841C40.5085 26.0585 40.491 26.0415 40.4822 26.016L40.351 25.7775L40.1148 25.9138C39.7473 26.1267 39.3974 26.2288 39.0387 26.2288C38.6625 26.2288 38.2863 26.1181 37.8926 25.8797L37.5864 25.7009L37.5077 26.0245ZM34.4107 26.8334L34.7256 26.7738C34.8918 26.7398 35.0493 26.7142 35.2068 26.6801C35.6092 26.6035 35.9942 26.5269 36.3791 26.4332C36.4753 26.4077 36.939 26.2799 37.0178 25.9734C37.079 25.7435 37.184 25.3092 36.7903 24.9601C36.2041 24.4492 35.8804 23.8957 35.7754 23.2741C35.7317 22.9846 35.723 22.678 35.7142 22.38V22.3289C35.7055 21.9372 35.4517 21.835 35.2418 21.818C35.1368 21.8095 35.0231 21.7839 34.9093 21.7584C34.8481 21.7414 34.7868 21.7328 34.7256 21.7158L34.4107 21.6562V26.8334ZM41.3309 20.0894C39.5899 21.2134 38.0326 21.7839 36.4229 21.8946L36.1954 21.9117L36.1866 22.1416C36.1429 22.8909 36.1516 23.6062 36.6853 24.1852C37.0703 24.6024 37.5339 25.0112 38.1376 25.471C38.4088 25.6839 38.7238 25.7946 39.0387 25.7946C39.3537 25.7946 39.6686 25.6839 39.9486 25.471C40.5522 25.0197 40.9809 24.6365 41.3396 24.2448C41.6108 23.9468 41.8033 23.521 41.847 23.1378C41.917 22.4907 41.9083 21.8265 41.9083 21.1879C41.9083 21.0772 41.9083 20.9665 41.9083 20.8643C41.9083 20.7025 41.8558 20.5663 41.8033 20.4215C41.7858 20.3619 41.7595 20.3023 41.742 20.2427L41.6458 19.9021L41.3309 20.0894ZM38.7762 16.3342C37.5252 16.3427 36.3966 16.794 35.5917 17.5859C34.7956 18.3779 34.3669 19.4763 34.3844 20.677C34.3932 20.992 34.5419 21.1794 34.8568 21.2645C35.2855 21.3837 35.7405 21.4433 36.1866 21.4433C36.4141 21.4433 36.6416 21.4263 36.8778 21.4007C38.3476 21.2049 39.7648 20.6173 41.3309 19.5359C41.5146 19.4082 41.6021 19.3912 41.6458 19.3912C41.7333 19.3912 41.8208 19.5444 41.8908 19.6807C42.1795 20.2597 42.6344 20.6514 43.2993 20.8813L43.6493 21.0005V20.6344C43.6405 19.0335 43.0019 17.8499 41.7158 16.9984C40.8147 16.4109 39.8348 16.3257 38.9075 16.3257C38.8637 16.3342 38.82 16.3342 38.7762 16.3342ZM42.2582 14.1118C42.2845 14.1118 42.3107 14.1118 42.3282 14.1118C42.3545 14.1118 42.3894 14.1118 42.4157 14.1118C42.4857 14.1118 42.5382 14.1118 42.5907 14.0947C42.6519 14.0862 42.9756 14.0181 42.9931 13.7712L43.0019 13.6519C43.0194 13.3709 43.0456 13.0899 42.9931 12.8004C42.9319 12.4683 42.302 12.4513 42.2232 12.4513C34.9443 12.4513 27.5604 12.4513 20.6315 12.4513H15.4173C15.0061 12.4513 14.7786 12.4513 14.6212 12.6131C14.4549 12.7749 14.4549 12.9878 14.4549 13.3795C14.4549 13.9925 14.5774 14.1118 15.2161 14.1118H42.2582Z" stroke="white" stroke-width="0.5" mask="url(#path-2-outside-1_0_1037)"/>
<path d="M19.0655 17.3815L19.0655 17.5065H19.0656H19.0657H19.0659H19.0662H19.0665H19.0669H19.0673H19.0678H19.0683H19.0689H19.0696H19.0703H19.0711H19.0719H19.0728H19.0737H19.0747H19.0757H19.0768H19.078H19.0792H19.0804H19.0817H19.0831H19.0845H19.086H19.0875H19.0891H19.0907H19.0924H19.0942H19.096H19.0978H19.0997H19.1016H19.1036H19.1057H19.1078H19.1099H19.1121H19.1144H19.1167H19.1191H19.1215H19.1239H19.1264H19.129H19.1316H19.1342H19.1369H19.1397H19.1425H19.1453H19.1482H19.1512H19.1542H19.1572H19.1603H19.1634H19.1666H19.1699H19.1732H19.1765H19.1799H19.1833H19.1867H19.1903H19.1938H19.1974H19.2011H19.2048H19.2085H19.2123H19.2161H19.22H19.2239H19.2279H19.2319H19.236H19.2401H19.2442H19.2484H19.2526H19.2569H19.2612H19.2656H19.27H19.2745H19.2789H19.2835H19.2881H19.2927H19.2973H19.302H19.3068H19.3116H19.3164H19.3212H19.3261H19.3311H19.3361H19.3411H19.3462H19.3513H19.3564H19.3616H19.3668H19.3721H19.3774H19.3828H19.3881H19.3936H19.399H19.4045H19.4101H19.4156H19.4212H19.4269H19.4326H19.4383H19.4441H19.4499H19.4557H19.4616H19.4675H19.4734H19.4794H19.4854H19.4915H19.4976H19.5037H19.5098H19.516H19.5223H19.5285H19.5348H19.5411H19.5475H19.5539H19.5603H19.5668H19.5733H19.5798H19.5864H19.593H19.5996H19.6063H19.613H19.6197H19.6265H19.6333H19.6401H19.647H19.6538H19.6608H19.6677H19.6747H19.6817H19.6887H19.6958H19.7029H19.71H19.7172H19.7244H19.7316H19.7389H19.7461H19.7535H19.7608H19.7682H19.7755H19.783H19.7904H19.7979H19.8054H19.8129H19.8205H19.8281H19.8357H19.8433H19.851H19.8587H19.8664H19.8742H19.882H19.8898H19.8976H19.9054H19.9133H19.9212H19.9291H19.9371H19.9451H19.9531H19.9611H19.9691H19.9772H19.9853H19.9934H20.0016H20.0097H20.0179H20.0261H20.0344H20.0426H20.0509H20.0592H20.0676H20.0759H20.0843H20.0927H20.1011H20.1095H20.118H20.1264H20.1349H20.1434H20.152H20.1605H20.1691H20.1777H20.1863H20.195H20.2036H20.2123H20.221H20.2297H20.2384H20.2472H20.2559H20.2647H20.2735H20.2824H20.2912H20.3001H20.3089H20.3178H20.3267H20.3356H20.3446H20.3535H20.3625H20.3715H20.3805H20.3895H20.3986H20.4076H20.4167H20.4258H20.4349H20.444H20.4531H20.4623H20.4714H20.4806H20.4898H20.499H20.5082H20.5174H20.5266H20.5359H20.5451H20.5544H20.5637H20.573H20.5823H20.5916H20.601H20.6103H20.6197H20.629H20.6384H20.6478H20.6572H20.6666H20.6761H20.6855H20.6949H20.7044H20.7138H20.7233H20.7328H20.7423H20.7518H20.7613H20.7708H20.7803H20.7899H20.7994H20.809H20.8185H20.8281H20.8377H20.8472H20.8568H20.8664H20.876H20.8856H20.8952H20.9049H20.9145H20.9241H20.9338H20.9434H20.9531H20.9627H20.9724H20.982H20.9917H21.0014H21.0111H21.0207H21.0304H21.0401H21.0498H21.0595H21.0692H21.0789H21.0886H21.0983H21.108H21.1177H21.1275H21.1372H21.1469H21.1566H21.1663H21.1761H21.1858H21.1955H21.2053H21.215H21.2247H21.2344H21.2442H21.2539H21.2636H21.2734H21.2831H21.2928H21.3026H21.3123H21.322H21.3317H21.3415H21.3512H21.3609H21.3706H21.3803H21.39H21.3998H21.4095H21.4192H21.4289H21.4386H21.4483H21.458H21.4676H21.4773H21.487H21.4967H21.5064H21.516H21.5257H21.5353H21.545H21.5546H21.5643H21.5739H21.5835H21.5932H21.6028H21.6124H21.622H21.6316H21.6412H21.6508H21.6604H21.6699H21.6795H21.689H21.6986H21.7081H21.7177H21.7272H21.7367H21.7462H21.7557H21.7652H21.7747H21.7841H21.7936H21.803H21.8125H21.8219H21.8313H21.8407H21.8501H21.8595H21.8689H21.8783H21.8876H21.8969H21.9063H21.9156H21.9249H21.9342H21.9435H21.9527H21.962H21.9712H21.9805H21.9897H21.9989H22.0081H22.0173H22.0264H22.0356H22.0447H22.0538H22.0629H22.072H22.0811H22.0902H22.0992H22.1082H22.1173H22.1263H22.1352H22.1442H22.1532H22.1621H22.171H22.1799H22.1888H22.1977H22.2065H22.2153H22.2242H22.233H22.2417H22.2505H22.2592H22.268H22.2767H22.2853H22.294H22.3027H22.3113H22.3199H22.3285H22.3371H22.3456H22.3541H22.3626H22.3711H22.3796H22.388H22.3965H22.4049H22.4132H22.4216H22.4299H22.4383H22.4466H22.4548H22.4631H22.4713H22.4795H22.4877H22.4958H22.504H22.5121H22.5202H22.5282H22.5363H22.5443H22.5523H22.5603H22.5682H22.5761H22.584H22.5919H22.5997H22.6075H22.6153H22.6231H22.6308H22.6385H22.6462H22.6539H22.6615H22.6691H22.6767H22.6842H22.6917H22.6992H22.7067H22.7141H22.7216H22.7289H22.7363H22.7436H22.7509H22.7582H22.7654H22.7726H22.7798H22.787H22.7941H22.8012H27.263H27.2702H27.2774H27.2847H27.2919H27.2991H27.3064H27.3136H27.3208H27.328H27.3353H27.3425H27.3497H27.3569H27.3642H27.3714H27.3786H27.3858H27.3931H27.4003H27.4075H27.4147H27.422H27.4292H27.4364H27.4436H27.4508H27.4581H27.4653H27.4725H27.4797H27.487H27.4942H27.5014H27.5086H27.5158H27.5231H27.5303H27.5375H27.5447H27.552H27.5592H27.5664H27.5736H27.5808H27.5881H27.5953H27.6025H27.6097H27.6169H27.6241H27.6314H27.6386H27.6458H27.653H27.6602H27.6675H27.6747H27.6819H27.6891H27.6963H27.7035H27.7108H27.718H27.7252H27.7324H27.7396H27.7468H27.7541H27.7613H27.7685H27.7757H27.7829H27.7901H27.7974H27.8046H27.8118H27.819H27.8262H27.8334H27.8406H27.8479H27.8551H27.8623H27.8695H27.8767H27.8839H27.8911H27.8984H27.9056H27.9128H27.92H27.9272H27.9344H27.9416H27.9488H27.9561H27.9633H27.9705H27.9777H27.9849H27.9921H27.9993H28.0065H28.0138H28.021H28.0282H28.0354H28.0426H28.0498H28.057H28.0642H28.0714H28.0787H28.0859H28.0931H28.1003H28.1075H28.1147H28.1219H28.1291H28.1363H28.1435H28.1507H28.158H28.1652H28.1724H28.1796H28.1868H28.194H28.2012H28.2084H28.2156H28.2228H28.23H28.2373H28.2445H28.2517H28.2589H28.2661H28.2733H28.2805H28.2877H28.2949H28.3021H28.3093H28.3165H28.3237H28.3309H28.3382H28.3454H28.3526H28.3598H28.367H28.3742H28.3814H28.3886H28.3958H28.403H28.4102H28.4174H28.4246H28.4318H28.439H28.4462H28.4535H28.4607H28.4679H28.4751H28.4823H28.4895H28.4967H28.5039H28.5111H28.5183H28.5255H28.5327H28.5399H28.5471H28.5543H28.5615H28.5687H28.5759H28.5831H28.5903H28.5975H28.6048H28.612H28.6192H28.6264H28.6336H28.6408H28.648H28.6552H28.6624H28.6696H28.6768H28.684H28.6912H28.6984H28.7056H28.7128H28.72H28.7272H28.7344H28.7416H28.7488H28.756H28.7632H28.7704H28.7776H28.7848H28.792H28.7992H28.8065H28.8137H28.8209H28.8281H28.8353H28.8425H28.8497H28.8569H28.8641H28.8713H28.8785H28.8857H28.8929H28.9001H28.9073H28.9145H28.9217H28.9289H28.9361H28.9433H28.9505H28.9577H28.9649H28.9721H28.9793H28.9865H28.9937H29.0009H29.0081H29.0153H29.0225H29.0297H29.0369H29.0441H29.0513H29.0585H29.0657H29.0729H29.0801H29.0874H29.0946H29.1018H29.109H29.1162H29.1234H29.1306H29.1378H29.145H29.1522H29.1594H29.1666H29.1738H29.181H29.1882H29.1954H29.2026H29.2098H29.217H29.2242H29.2314H29.2386H29.2458H29.253H29.2602H29.2674H29.2746H29.2818H29.289H29.2962H29.3034H29.3106H29.3178H29.325H29.3322H29.3394H29.3466H29.3538H29.361H29.3682H29.3754H29.3827H29.3899H29.3971H29.4043H29.4115H29.4187H29.4259H29.4331H29.4403H29.4475H29.4547H29.4619H29.4691H29.4763H29.4835H29.4907H29.4979H29.5051H29.5123H29.5195H29.5267H29.5339H29.5411H29.5483H29.5555H29.5627H29.5699H29.5771H29.5843H29.5915H29.5988H29.606H29.6132H29.6204H29.6276H29.6348H29.642H29.6492H29.6564H29.6636H29.6708H29.678H29.6852H29.6924H29.6996H29.7068H29.714H29.7212H29.7284H29.7356H29.7428H29.7501H29.7573H29.7645H29.7717H29.7789H29.7861H29.7933H29.8005H29.8077H29.8149H29.8221H29.8293H29.8365H29.8437H29.8509H29.8581H29.8653H29.8726H29.8798H29.887H29.8942H29.9014H29.9086H29.9158H29.923H29.9302H29.9374H29.9446H29.9518H29.959H29.9662H29.9735H29.9807H29.9879H29.9951H30.0023H30.0095H30.0167H30.0239H30.0311H30.0383H30.0455H30.0527H30.06H30.0672H30.0744H30.0816H30.0888H30.096H30.1032H30.1104H30.1176H30.1248H30.1321H30.1393H30.1465H30.1537H30.1609H30.1681H30.1753H30.1825H30.1897H30.1969H30.2042H30.2114H30.2186H30.2258H30.233H30.2402H30.2474H30.2546H30.2619H30.2691H30.2763H30.2835H30.2907H30.2979H30.3051H30.3123H30.3196H30.3268H30.334H30.3412H30.3484H30.3556H30.3628H30.3701H30.3773H30.3845L19.0655 17.3815ZM19.0655 17.3815V17.5065C19.0639 17.5065 19.0623 17.5065 19.0606 17.5065C18.9942 17.5065 18.9087 17.5066 18.8389 17.4969C18.76 17.4866 18.6795 17.461 18.6199 17.399C18.5582 17.3348 18.538 17.2519 18.538 17.1687C18.538 17.096 18.551 17.0182 18.6024 16.9535C18.6542 16.8885 18.7282 16.8577 18.8037 16.8419L18.8054 16.8416L18.8054 16.8416C18.9048 16.8222 19.0284 16.8223 19.1203 16.8223C19.1224 16.8223 19.1246 16.8223 19.1267 16.8223H19.1382H19.1496H19.161H19.1724H19.1839H19.1953H19.2067H19.2182H19.2296H19.241H19.2525H19.2639H19.2753H19.2867H19.2982H19.3096H19.321H19.3325H19.3439H19.3553H19.3667H19.3782H19.3896H19.401H19.4124H19.4239H19.4353H19.4467H19.4581H19.4696H19.481H19.4924H19.5039H19.5153H19.5267H19.5381H19.5496H19.561H19.5724H19.5838H19.5952H19.6067H19.6181H19.6295H19.6409H19.6524H19.6638H19.6752H19.6866H19.6981H19.7095H19.7209H19.7323H19.7437H19.7552H19.7666H19.778H19.7894H19.8008H19.8123H19.8237H19.8351H19.8465H19.858H19.8694H19.8808H19.8922H19.9036H19.9151H19.9265H19.9379H19.9493H19.9607H19.9721H19.9836H19.995H20.0064H20.0178H20.0292H20.0407H20.0521H20.0635H20.0749H20.0863H20.0977H20.1092H20.1206H20.132H20.1434H20.1548H20.1662H20.1777H20.1891H20.2005H20.2119H20.2233H20.2347H20.2462H20.2576H20.269H20.2804H20.2918H20.3032H20.3146H20.3261H20.3375H20.3489H20.3603H20.3717H20.3831H20.3945H20.406H20.4174H20.4288H20.4402H20.4516H20.463H20.4744H20.4859H20.4973H20.5087H20.5201H20.5315H20.5429H20.5543H20.5657H20.5772H20.5886H20.6H20.6114H20.6228H20.6342H20.6456H20.657H20.6685H20.6799H20.6913H20.7027H20.7141H20.7255H20.7369H20.7483H20.7597H20.7712H20.7826H20.794H20.8054H20.8168H20.8282H20.8396H20.851H20.8624H20.8738H20.8853H20.8967H20.9081H20.9195H20.9309H20.9423H20.9537H20.9651H20.9765H20.9879H20.9993H21.0108H21.0222H21.0336H21.045H21.0564H21.0678H21.0792H21.0906H21.102H21.1134H21.1248H21.1363H21.1477H21.1591H21.1705H21.1819H21.1933H21.2047H21.2161H21.2275H21.2389H21.2503H21.2617H21.2731H21.2846H21.296H21.3074H21.3188H21.3302H21.3416H21.353H21.3644H21.3758H21.3872H21.3986H21.41H21.4214H21.4328H21.4443H21.4557H21.4671H21.4785H21.4899H21.5013H21.5127H21.5241H21.5355H21.5469H21.5583H21.5697H21.5811H21.5925H21.6039H21.6154H21.6268H21.6382H21.6496H21.661H21.6724H21.6838H21.6952H21.7066H21.718H21.7294H21.7408H21.7522H21.7636H21.775H21.7864H21.7978H21.8093H21.8207H21.8321H21.8435H21.8549H21.8663H21.8777H21.8891H21.9005H21.9119H21.9233H21.9347H21.9461H21.9575H21.9689H21.9803H21.9917H22.0032H22.0146H22.026H22.0374H22.0488H22.0602H22.0716H22.083H22.0944H22.1058H22.1172H22.1286H22.14H22.1514H22.1628H22.1742H22.1856H22.1971H22.2085H22.2199H22.2313H22.2427H22.2541H22.2655H22.2769H22.2883H22.2997H22.3111H22.3225H22.3339H22.3453H22.3567H22.3681H22.3795H22.391H22.4024H22.4138H22.4252H22.4366H22.448H22.4594H22.4708H22.4822H22.4936H22.505H22.5164H22.5278H22.5392H22.5506H22.562H22.5735H22.5849H22.5963H22.6077H22.6191H22.6305H22.6419H22.6533H22.6647H22.6761H22.6875H22.6989H22.7103H22.7217H22.7332H22.7446H22.756H22.7674H22.7788H22.7902H22.8016H22.813H22.8244H22.8358H22.8472H22.8586H22.87H22.8814H22.8929H22.9043H22.9157H22.9271H22.9385H22.9499H22.9613H22.9727H22.9841H22.9955H23.0069H23.0183H23.0298H23.0412H23.0526H23.064H23.0754H23.0868H23.0982H23.1096H23.121H23.1324H23.1438H23.1553H23.1667H23.1781H23.1895H23.2009H23.2123H23.2237H23.2351H23.2465H23.2579H23.2694H23.2808H23.2922H23.3036H23.315H23.3264H23.3378H23.3492H23.3606H23.372H23.3835H23.3949H23.4063H23.4177H23.4291H23.4405H23.4519H23.4633H23.4748H23.4862H23.4976H23.509H23.5204H23.5318H23.5432H23.5546H23.566H23.5775H23.5889H23.6003H23.6117H23.6231H23.6345H23.6459H23.6574H23.6688H23.6802H23.6916H23.703H23.7144H23.7258H23.7373H23.7487H23.7601H23.7715H23.7829H23.7943H23.8057H23.8172H23.8286H23.84H23.8514H23.8628H23.8742H23.8856H23.8971H23.9085H23.9199H23.9313H23.9427H23.9541H23.9656H23.977H23.9884H23.9998H24.0112H24.0226H24.0341H24.0455H24.0569H24.0683H24.0797H24.0912H24.1026H24.114H24.1254H24.1368H24.1482H24.1597H24.1711H24.1825H24.1939H24.2053H24.2168H24.2282H24.2396H24.251H24.2624H24.2739H24.2853H24.2967H24.3081H24.3195H24.331H24.3424H24.3538H24.3652H24.3767H24.3881H24.3995H24.4109H24.4223H24.4338H24.4452H24.4566H24.468H24.4795H24.4909H24.5023H24.5137H24.5252H24.5366H24.548H24.5594H24.5709H24.5823H24.5937H24.6051H24.6166H24.628H24.6394H24.6508H24.6623H24.6737H24.6851H24.6965H24.708H24.7194H24.7308H24.7422H24.7537H24.7651H24.7765H24.788H24.7994H24.8108H24.8222H24.8337H24.8451H24.8565H24.868H24.8794H24.8908H24.9023H24.9137H24.9251H24.9365H24.948H24.9594H24.9708H24.9826H24.9944H25.0062H25.018H25.0298H25.0416H25.0534H25.0652H25.0769H25.0887H25.1005H25.1123H25.1241H25.1359H25.1477H25.1595H25.1713H25.1831H25.1948H25.2066H25.2184H25.2302H25.242H25.2538H25.2656H25.2774H25.2892H25.301H25.3127H25.3245H25.3363H25.3481H25.3599H25.3717H25.3835H25.3953H25.4071H25.4189H25.4306H25.4424H25.4542H25.466H25.4778H25.4896H25.5014H25.5132H25.525H25.5368H25.5485H25.5603H25.5721H25.5839H25.5957H25.6075H25.6193H25.6311H25.6429H25.6547H25.6664H25.6782H25.69H25.7018H25.7136H25.7254H25.7372H25.749H25.7608H25.7725H25.7843H25.7961H25.8079H25.8197H25.8315H25.8433H25.8551H25.8669H25.8787H25.8904H25.9022H25.914H25.9258H25.9376H25.9494H25.9612H25.973H25.9848H25.9965H26.0083H26.0201H26.0319H26.0437H26.0555H26.0673H26.0791H26.0908H26.1026H26.1144H26.1262H26.138H26.1498H26.1616H26.1734H26.1852H26.1969H26.2087H26.2205H26.2323H26.2441H26.2559H26.2677H26.2795H26.2912H26.303H26.3148H26.3266H26.3384H26.3502H26.362H26.3738H26.3855H26.3973H26.4091H26.4209H26.4327H26.4445H26.4563H26.4681H26.4798H26.4916H26.5034H26.5152H26.527H26.5388H26.5506H26.5624H26.5741H26.5859H26.5977H26.6095H26.6213H26.6331H26.6449H26.6566H26.6684H26.6802H26.692H26.7038H26.7156H26.7274H26.7391H26.7509H26.7627H26.7745H26.7863H26.7981H26.8099H26.8216H26.8334H26.8452H26.857H26.8688H26.8806H26.8924H26.9041H26.9159H26.9277H26.9395H26.9513H26.9631H26.9748H26.9866H26.9984H27.0102H27.022H27.0338H27.0456H27.0573H27.0691H27.0809H27.0927H27.1045H27.1163H27.128H27.1398H27.1516H27.1634H27.1752H27.187H27.1987H27.2105H27.2223H27.2341H27.2459H27.2577H27.2694H27.2812H27.293H27.3048H27.3166H27.3284H27.3401H27.3519H27.3637H27.3755H27.3873H27.399H27.4108H27.4226H27.4344H27.4462H27.458H27.4697H27.4815H27.4933H27.5051H27.5169H27.5286H27.5404H27.5522H27.564H27.5758H27.5875H27.5993H27.6111H27.6229H27.6347H27.6464H27.6582H27.67H27.6818H27.6936H27.7053H27.7171H27.7289H27.7407H27.7525H27.7642H27.776H27.7878H27.7996H27.8114H27.8231H27.8349H27.8467H27.8585H27.8703H27.882H27.8938H27.9056H27.9174H27.9291H27.9409H27.9527H27.9645H27.9763H27.988H27.9998H28.0116H28.0234H28.0351H28.0469H28.0587H28.0705H28.0822H28.094H28.1058H28.1176H28.1294H28.1411H28.1529H28.1647H28.1765H28.1882H28.2H28.2118H28.2236H28.2353H28.2471H28.2589H28.2707H28.2824H28.2942H28.306H28.3178H28.3295H28.3413H28.3531H28.3649H28.3766H28.3884H28.4002H28.412H28.4237H28.4355H28.4473H28.459H28.4708H28.4826H28.4944H28.5061H28.5179H28.5297H28.5415H28.5532H28.565H28.5768H28.5885H28.6003H28.6121H28.6239H28.6356H28.6474H28.6592H28.6709H28.6827H28.6945H28.7063H28.718H28.7298H28.7416H28.7533H28.7651H28.7769H28.7886H28.8004H28.8122H28.824H28.8357H28.8475H28.8593H28.871H28.8828H28.8946H28.9063H28.9181H28.9299H28.9416H28.9534H28.9652H28.9769H28.9887H29.0005H29.0122H29.024H29.0358H29.0475H29.0593H29.0711H29.0828H29.0946H29.1064H29.1181H29.1299H29.1417H29.1534H29.1652H29.177H29.1887H29.2005H29.2123H29.224H29.2358H29.2476H29.2593H29.2711H29.2829H29.2946H29.3064H29.3181H29.3299H29.3417H29.3534H29.3652H29.377H29.3887H29.4005H29.4122H29.424H29.4358H29.4475H29.4593H29.4711H29.4828H29.4946H29.5063H29.5181H29.5299H29.5416H29.5534H29.5651H29.5769H29.5887H29.6004H29.6122H29.6239H29.6357H29.6475H29.6592H29.671H29.6827H29.6945H29.7063H29.718H29.7298H29.7415H29.7533H29.7651H29.7768H29.7886H29.8003H29.8121H29.8238H29.8356H29.8474H29.8591H29.8709H29.8826H29.8944H29.9061H29.9179H29.9296H29.9414H29.9532H29.9649H29.9767H29.9884H30.0002H30.0119H30.0237H30.0354H30.0472H30.0589H30.0707H30.0825H30.0942H30.106H30.1177H30.1295H30.1412H30.153H30.1647H30.1765H30.1882H30.2H30.2117H30.2235H30.2352H30.247H30.2587H30.2705H30.2822H30.294H30.3057H30.3175H30.3292H30.341H30.3527H30.3645H30.3762H30.388H30.3997H30.4115H30.4232H30.435H30.4467H30.4585H30.4702H30.482H30.4937H30.5055H30.5172H30.529H30.5407H30.5525H30.5642H30.5759H30.5877H30.5994H30.6112H30.6229H30.6347H30.6464H30.6582H30.6699H30.6816H30.6934H30.7051H30.7169H30.7286H30.7404H30.7521H30.7639H30.7756H30.7873H30.7991H30.8108H30.8226H30.8343H30.846H30.8578H30.8695H30.8813H30.893H30.9048H30.9165H30.9282H30.94H30.9517H30.9635H30.9752H30.9869H30.9987L31.0068 16.8223C31.0973 16.8222 31.2218 16.8222 31.3138 16.8421L31.3169 16.8428L31.3169 16.8428C31.3768 16.8574 31.4494 16.8826 31.5021 16.9467C31.5551 17.0112 31.5699 17.0926 31.5699 17.1772V17.1857L31.5696 17.1857C31.5645 17.2589 31.5485 17.3375 31.4936 17.3995C31.4374 17.4629 31.3606 17.4866 31.2871 17.4968L31.285 17.4971L31.285 17.4971C31.2074 17.5065 31.1224 17.5065 31.0546 17.5065L31.0512 17.5065H30.9549L19.0655 17.3815Z" fill="white" stroke="white" stroke-width="0.25"/>
<path d="M31.2349 20.2683L31.2539 20.1447C31.3518 20.1598 31.4384 20.1938 31.4958 20.2662C31.5521 20.3372 31.5611 20.4216 31.5611 20.4897C31.5611 20.5684 31.5452 20.6525 31.484 20.7184C31.4241 20.783 31.341 20.8081 31.2587 20.8181L31.2571 20.8183C31.1716 20.8276 31.087 20.8276 30.9856 20.8276H30.9812V20.7026L30.9811 20.8276H30.981H30.9807H30.9803H30.9798H30.9792H30.9785H30.9777H30.9768H30.9758H30.9747H30.9734H30.9721H30.9707H30.9691H30.9675H30.9657H30.9639H30.9619H30.9599H30.9577H30.9554H30.9531H30.9506H30.948H30.9454H30.9426H30.9397H30.9368H30.9337H30.9305H30.9273H30.9239H30.9204H30.9169H30.9132H30.9095H30.9056H30.9016H30.8976H30.8935H30.8892H30.8849H30.8805H30.8759H30.8713H30.8666H30.8618H30.8569H30.8519H30.8468H30.8417H30.8364H30.831H30.8256H30.82H30.8144H30.8087H30.8029H30.797H30.791H30.7849H30.7787H30.7725H30.7661H30.7597H30.7531H30.7465H30.7398H30.7331H30.7262H30.7192H30.7122H30.7051H30.6978H30.6905H30.6832H30.6757H30.6681H30.6605H30.6528H30.645H30.6371H30.6291H30.6211H30.613H30.6048H30.5965H30.5881H30.5796H30.5711H30.5625H30.5538H30.545H30.5362H30.5273H30.5183H30.5092H30.5H30.4908H30.4815H30.4721H30.4626H30.4531H30.4434H30.4338H30.424H30.4141H30.4042H30.3942H30.3842H30.374H30.3638H30.3535H30.3432H30.3328H30.3223H30.3117H30.3011H30.2903H30.2796H30.2687H30.2578H30.2468H30.2357H30.2246H30.2134H30.2021H30.1908H30.1794H30.1679H30.1564H30.1448H30.1331H30.1214H30.1096H30.0977H30.0858H30.0738H30.0617H30.0496H30.0374H30.0252H30.0129H30.0005H29.9881H29.9756H29.963H29.9504H29.9377H29.9249H29.9121H29.8993H29.8863H29.8734H29.8603H29.8472H29.8341H29.8208H29.8076H29.7942H29.7808H29.7674H29.7539H29.7403H29.7267H29.713H29.6993H29.6855H29.6717H29.6578H29.6438H29.6298H29.6158H29.6016H29.5875H29.5733H29.559H29.5447H29.5303H29.5159H29.5014H29.4869H29.4723H29.4577H29.443H29.4283H29.4135H29.3987H29.3839H29.3689H29.354H29.339H29.3239H29.3088H29.2937H29.2785H29.2632H29.2479H29.2326H29.2172H29.2018H29.1863H29.1708H29.1553H29.1397H29.124H29.1083H29.0926H29.0768H29.061H29.0452H29.0293H29.0134H28.9974H28.9814H28.9653H28.9492H28.9331H28.9169H28.9007H28.8845H28.8682H28.8519H28.8355H28.8191H28.8027H28.7862H28.7697H28.7532H28.7366H28.72H28.7034H28.6867H28.67H28.6532H28.6364H28.6196H28.6028H28.5859H28.569H28.5521H28.5351H28.5181H28.5011H28.484H28.4669H28.4498H28.4326H28.4154H28.3982H28.381H28.3637H28.3464H28.3291H28.3117H28.2944H28.277H28.2595H28.2421H28.2246H28.2071H28.1895H28.172H28.1544H28.1368H28.1192H28.1015H28.0838H28.0661H28.0484H28.0307H28.0129H27.9951H27.9773H27.9595H27.9416H27.9238H27.9059H27.888H27.87H27.8521H27.8341H27.8161H27.7981H27.7801H27.7621H27.744H27.7259H27.7079H27.6898H27.6716H27.6535H27.6354H27.6172H27.599H27.5808H27.5626H27.5444H27.5261H27.5079H27.4896H27.4714H27.4531H27.4348H27.4165H27.3982H27.3798H27.3615H27.3432H27.3248H27.3064H27.2881H27.2697H27.2513H27.2329H27.2145H27.196H27.1776H27.1592H27.1407H27.1223H27.1039H27.0854H27.0669H27.0485H27.03H27.0115H26.9931H26.9746H26.9561H26.9376H26.9191H26.9006H26.8821H26.8636H26.8451H26.8266H26.8081H26.7896H26.7711H26.7526H26.7341H26.7156H26.6971H26.6786H26.6601H26.6417H26.6232H26.6047H26.5862H26.5677H26.5492H26.5308H26.5123H26.4938H26.4754H26.4569H26.4385H26.42H26.4016H26.3832H26.3648H26.3463H26.3279H26.3095H26.2911H26.2728H26.2544H26.236H26.2177H26.1993H26.181H26.1627H26.1444H26.1261H26.1078H26.0895H26.0712H26.053H26.0347H26.0165H25.9983H25.9801H25.9619H25.9437H25.9256H25.9074H25.8893H25.8712H25.8531H25.835H25.8169H25.7989H25.7809H25.7628H25.7448H25.7269H25.7089H25.691H25.6731H25.6551H25.6373H25.6194H25.6016H25.5837H25.5659H25.5482H25.5304H25.5127H25.495H25.4773H25.4596H25.442H25.4243H25.4067H25.3892H25.3716H25.3541H25.3366H25.3191H25.3017H25.2843H25.2669H25.2495H25.2322H25.2149H25.1976H25.1803H25.1631H25.1459H25.1287H25.1116H25.0945H25.0774H25.0603H25.0433H25.0263H25.0094H24.9924H24.9755H24.9587H24.9418H24.925H24.9083H24.8915H24.8748H24.8582H24.8416H24.825H24.8084H24.7919H24.7754H24.7589H24.7425H24.7261H24.7098H24.6935H24.6772H24.661H24.6448H24.6287H24.6125H24.5965H24.5804H24.5644H24.5485H24.5326H24.5167H24.5009H24.4851H24.4693H24.4536H24.4379H24.4223H24.4067H24.3912H24.3757H24.3603H24.3449H24.3295H24.3142H24.2989H24.2837H24.2685H24.2534H24.2383H24.2233H24.2083H24.1933H24.1784H24.1636H24.1488H24.134H24.1193H24.1047H24.0901H24.0755H24.061H24.0466H24.0322H24.0178H24.0035H23.9893H23.9751H23.961H23.9469H23.9328H23.9189H23.9049H23.8911H23.8773H19.1442C18.9745 20.8276 18.8542 20.8098 18.7688 20.7838C18.6896 20.7597 18.6311 20.7256 18.5954 20.6831C18.5604 20.645 18.5293 20.5778 18.5293 20.4726V20.4723C18.5293 20.4504 18.5293 20.4078 18.5451 20.3624C18.5625 20.3126 18.5955 20.2671 18.6483 20.2311C18.7442 20.1656 18.9005 20.1348 19.1442 20.1348H27.1055H27.1129H27.1204H27.1278H27.1353H27.1427H27.1501H27.1576H27.165H27.1724H27.1799H27.1873H27.1947H27.2022H27.2096H27.217H27.2245H27.2319H27.2393H27.2468H27.2542H27.2617H27.2691H27.2765H27.284H27.2914H27.2988H27.3063H27.3137H27.3212H27.3286H27.336H27.3435H27.3509H27.3583H27.3658H27.3732H27.3807H27.3881H27.3955H27.403H27.4104H27.4179H27.4253H27.4327H27.4402H27.4476H27.4551H27.4625H27.47H27.4774H27.4848H27.4923H27.4997H27.5072H27.5146H27.5221H27.5295H27.5369H27.5444H27.5518H27.5593H27.5667H27.5742H27.5816H27.589H27.5965H27.6039H27.6114H27.6188H27.6263H27.6337H27.6412H27.6486H27.6561H27.6635H27.6709H27.6784H27.6858H27.6933H27.7007H27.7082H27.7156H27.7231H27.7305H27.738H27.7454H27.7529H27.7603H27.7678H27.7752H27.7826H27.7901H27.7975H27.805H27.8124H27.8199H27.8273H27.8348H27.8422H27.8497H27.8571H27.8646H27.872H27.8795H27.8869H27.8944H27.9018H27.9093H27.9167H27.9242H27.9316H27.9391H27.9465H27.954H27.9614H27.9689H27.9763H27.9838H27.9912H27.9987H28.0061H28.0136H28.021H28.0285H28.0359H28.0434H28.0508H28.0583H28.0658H28.0732H28.0807H28.0881H28.0956H28.103H28.1105H28.1179H28.1254H28.1328H28.1403H28.1477H28.1552H28.1626H28.1701H28.1775H28.185H28.1925H28.1999H28.2074H28.2148H28.2223H28.2297H28.2372H28.2446H28.2521H28.2595H28.267H28.2745H28.2819H28.2894H28.2968H28.3043H28.3117H28.3192H28.3266H28.3341H28.3415H28.349H28.3565H28.3639H28.3714H28.3788H28.3863H28.3937H28.4012H28.4087H28.4161H28.4236H28.431H28.4385H28.4459H28.4534H28.4608H28.4683H28.4758H28.4832H28.4907H28.4981H28.5056H28.513H28.5205H28.528H28.5354H28.5429H28.5503H28.5578H28.5652H28.5727H28.5802H28.5876H28.5951H28.6025H28.61H28.6174H28.6249H28.6324H28.6398H28.6473H28.6547H28.6622H28.6696H28.6771H28.6846H28.692H28.6995H28.7069H28.7144H28.7219H28.7293H28.7368H28.7442H28.7517H28.7591H28.7666H28.7741H28.7815H28.789H28.7964H28.8039H28.8113H28.8188H28.8263H28.8337H28.8412H28.8486H28.8561H28.8636H28.871H28.8785H28.8859H28.8934H28.9008H28.9083H28.9158H28.9232H28.9307H28.9381H28.9456H28.9531H28.9605H28.968H28.9754H28.9829H28.9904H28.9978H29.0053H29.0127H29.0202H29.0276H29.0351H29.0426H29.05H29.0575H29.0649H29.0724H29.0799H29.0873H29.0948H29.1022H29.1097H29.1171H29.1246H29.1321H29.1395H29.147H29.1544H29.1619H29.1694H29.1768H29.1843H29.1917H29.1992H29.2066H29.2141H29.2216H29.229H29.2365H29.2439H29.2514H29.2589H29.2663H29.2738H29.2812H29.2887H29.2961H29.3036H29.3111H29.3185H29.326H29.3334H29.3409H29.3484H29.3558H29.3633H29.3707H29.3782H29.3856H29.3931H29.4006H29.408H29.4155H29.4229H29.4304H29.4378H29.4453H29.4528H29.4602H29.4677H29.4751H29.4826H29.49H29.4975H29.505H29.5124H29.5199H29.5273H29.5348H29.5422H29.5497H29.5572H29.5646H29.5721H29.5795H29.587H29.5944H29.6019H29.6093H29.6168H29.6243H29.6317H29.6392H29.6466H29.6541H29.6615H29.669H29.6764H29.6839H29.6914H29.6988H29.7063H29.7137H29.7212H29.7286H29.7361H29.7435H29.751H29.7585H29.7659H29.7734H29.7808H29.7883H29.7957H29.8032H29.8106H29.8181H29.8255H29.833H29.8405H29.8479H29.8554H29.8628H29.8703H29.8777H29.8852H29.8926H29.9001H29.9075H29.915H29.9224H29.9299H29.9373H29.9448H29.9522H29.9597H29.9672H29.9746H29.9821H29.9895H29.997H30.0044H30.0119H30.0193H30.0268H30.0342H30.0417H30.0491H30.0566H30.064H30.0715H30.0789H30.0864H30.0938H30.1013H30.1087H30.1162H30.1236H30.1311H30.1385H30.146H30.1534H30.1609H30.1683H30.1758H30.1832H30.1907H30.1981H30.2056H30.213H30.2205H30.2279H30.2354H30.2428H30.2503H30.2577H30.2652H30.2726H30.28H30.2875H30.2949H30.3024H30.3098H30.3173H30.3247H30.3322H30.3396H30.3471H30.3545H30.362H30.3694H30.3768H30.3843H30.3917H30.3992H30.4066H30.4141H30.4215H30.429H30.4364H30.4439H30.4513H30.4587H30.4662H30.4736H30.4811H30.4885H30.496H30.5034H30.5108H30.5183H30.5257H30.5332H30.5406H30.5481H30.5555H30.5629H30.5704H30.5778H30.5853H30.5927H30.6001H30.6076H30.615H30.6225H30.6299H30.6373H30.6448H30.6522H30.6597H30.6671H30.6745H30.682H30.6894H30.6969H30.7043H30.7117H30.7192H30.7266H30.7341H30.7415H30.7489H30.7564H30.7638H30.7712H30.7787H30.7861H30.7935H30.801H30.8084H30.8159H30.8233H30.8307H30.8382H30.8456H30.853H30.8605H30.8679H30.8753H30.8828H30.8902H30.8976H30.9051H30.9125H30.9199H31.0512L31.0566 20.1348C31.114 20.1348 31.1923 20.1347 31.2549 20.1449L31.2349 20.2683ZM31.2349 20.2683C31.4011 20.2938 31.4361 20.3705 31.4361 20.4897C31.4361 20.6174 31.3836 20.677 31.2436 20.694L31.2349 20.2683Z" fill="white" stroke="white" stroke-width="0.25"/>
<path d="M25.0488 23.4471L25.0826 23.4735C25.1282 23.509 25.189 23.559 25.2428 23.6114C25.2697 23.6375 25.2965 23.6659 25.3192 23.6946C25.3407 23.7218 25.3645 23.7567 25.3778 23.7956L25.3818 23.8071L25.3812 23.8073C25.4125 23.9395 25.3252 24.0231 25.271 24.0593C25.2422 24.0785 25.2134 24.0917 25.1927 24.1002C25.1821 24.1045 25.1729 24.108 25.1667 24.1103C25.1644 24.1111 25.1629 24.1117 25.1619 24.1121L25.156 24.1149L25.1459 24.1179C25.0409 24.1485 24.9036 24.1485 24.7978 24.1485C24.7942 24.1484 24.7906 24.1484 24.7871 24.1484L25.0488 23.4471ZM25.0488 23.4471H25.0058M25.0488 23.4471H25.0058M25.0058 23.4471H25.0058H25.0057H25.0057H25.0056H25.0056H25.0055H25.0055H25.0054H25.0054H25.0053H25.0053H25.0052H25.0052H25.0051H25.0051H25.005H25.005H25.0049H25.0049H25.0048H25.0048H25.0048H25.0047H25.0047H25.0046H25.0046H25.0045H25.0045H25.0044H25.0044H25.0043H25.0043H25.0043H25.0042H25.0042H25.0041H25.0041H25.004H25.004H25.0039H25.0039H25.0039H25.0038H25.0038H25.0037H25.0037H25.0036H25.0036H25.0036H25.0035H25.0035H25.0034H25.0034H25.0033H25.0033H25.0033H25.0032H25.0032H25.0031H25.0031H25.0031H25.003H25.003H25.0029H25.0029H25.0029H25.0028H25.0028H25.0028H25.0027H25.0027H25.0026H25.0026H25.0026H25.0025H25.0025H25.0025H25.0024H25.0024H25.0023H25.0023H25.0023H25.0022H25.0022H25.0022H25.0021H25.0021H25.0021H25.002H25.002H25.002H25.0019H25.0019H25.0018H25.0018H25.0018H25.0017H25.0017H25.0017H25.0016H25.0016H25.0016H25.0015H25.0015H25.0015H25.0014H25.0014H25.0014H25.0014H25.0013H25.0013H25.0013H25.0012H25.0012H25.0012H25.0011H25.0011H25.0011H25.001H25.001H25.001H25.001H25.0009H25.0009H25.0009H25.0008H25.0008H25.0008H25.0007H25.0007H25.0007H25.0007H25.0006H25.0006H25.0006H25.0006H25.0005H25.0005H25.0005H25.0004H25.0004H25.0004H25.0004H25.0003H25.0003H25.0003H25.0003H25.0002H25.0002H25.0002H25.0002H25.0001H25.0001H25.0001H25.0001H25H25H25H25H24.9999H24.9999H24.9999H24.9999H24.9998H24.9998H24.9998H24.9998H24.9997H24.9997H24.9997H24.9997H24.9996H24.9996H24.9996H24.9996H24.9996H24.9995H24.9995H24.9995H24.9995H24.9995H24.9994H24.9994H24.9994H24.9994H24.9993H24.9993H24.9993H24.9993H24.9993H24.9992H24.9992H24.9992H24.9992H24.9992H24.9991H24.9991H24.9991H24.9991H24.9991H24.999H24.999H24.999H24.999H24.999H24.999H24.9989H24.9989H24.9989H24.9989H24.9989H24.9988H24.9988H24.9988H24.9988H24.9988H24.9988H24.9987H24.9987H24.9987H24.9987H24.9987H24.9987H24.9986H24.9986H24.9986H24.9986H24.9986H24.9986H24.9985H24.9985H24.9985H24.9985H24.9985H24.9985H24.9985H24.9984H24.9984H24.9984H24.9984H24.9984H24.9984H24.9984H24.9983H24.9983H24.9983H24.9983H24.9983H24.9983H24.9983H24.9982H24.9982H24.9982H24.9982H24.9982H24.9982H24.9982H24.9982H24.9981H24.9981H24.9981H24.9981H24.9981H24.9981H24.9981H24.9981H24.998H24.998H24.998H24.998H24.998H24.998H24.998H24.998H24.998H24.9979H24.9979H24.9979H24.9979H24.9979H24.9979H24.9979H24.9979H24.9979H24.9978H24.9978H24.9978H24.9978H24.9978H24.9978H24.9978H24.9978H24.9978H24.9978H24.9978H24.9977H24.9977H24.9977H24.9977H24.9977H24.9977H24.9977H24.9977H24.9977H24.9977H24.9977H24.9976H24.9976H24.9976H24.9976H24.9976H24.9976H24.9976H24.9976H24.9976H24.9976H24.9976H24.9976H24.9976H24.9975H24.9975H24.9975H24.9975H24.9975H24.9975H24.9975H24.9975H24.9975H24.9975H24.9975H24.9975H24.9975H24.9975H24.9975H24.9974H24.9974H24.9974H24.9974H24.9974H24.9974H24.9974H24.9974H24.9974H24.9974H24.9974H24.9974H24.9974H24.9974H24.9974H24.9974H24.9974H24.9974H24.9973H24.9973H24.9973H24.9973H24.9973H24.9973H24.9973H24.9973H24.9973H24.9973H24.9973H24.9973H24.9973H24.9973H24.9973H24.9973H24.9973H24.9973H24.9973H24.9973H24.9973H24.9973H24.9972H24.9972H24.9972H24.9972H24.9972H24.9972H24.9972H24.9972H24.9972H24.9972H24.9972H24.9972H24.9972H24.9972H24.9972H24.9972H24.9972H24.9972H24.9972H24.9971H24.9971H24.9971H24.9971H24.9971H24.9971H24.9971H24.9971H24.9971H24.9971H24.9971H24.9971H24.9971H24.9971H24.9971H24.9969H24.9968H24.9966H24.9965H24.9963H24.9962H24.996H24.9959H24.9957H24.9955H24.9954H24.9952H24.9951H24.9949H24.9948H24.9946H24.9945H24.9943H24.9942H24.994H24.9939H24.9937H24.9935H24.9934H24.9932H24.9931H24.9929H24.9928H24.9926H24.9925H24.9923H24.9922H24.992H24.9919H24.9917H24.9915H24.9914H24.9912H24.9911H24.9909H24.9908H24.9906H24.9905H24.9903H24.9902H24.99H24.9899H24.9897H24.9896H24.9894H24.9892H24.9891H24.9889H24.9888H24.9886H24.9885H24.9883H24.9882H24.988H24.9879H24.9877H24.9876H24.9874H24.9872H24.9871H24.9869H24.9868H24.9866H24.9865H24.9863H24.9862H24.986H24.9859H24.9857H24.9856H24.9854H24.9852H24.9851H24.9849H24.9848H24.9846H24.9845H24.9843H24.9842H24.984H24.9839H24.9837H24.9836H24.9834H24.9832H24.9831H24.9829H24.9828H24.9826H24.9825H24.9823H24.9822H24.982H24.9819H24.9817H24.9816H24.9814H24.9812H24.9811H24.9809H24.9808H24.9806H24.9805H24.9803H24.9802H24.98H24.9799H24.9797H24.9796H24.9794H24.9792H24.9791H24.9789H24.9788H24.9786H24.9785H24.9783H24.9782H24.978H24.9779H24.9777H24.9776H24.9774H24.9772H24.9771H24.9769H24.9768H24.9766H24.9765H24.9763H24.9762H24.976H24.9759H24.9757H24.9756H24.9754H24.9752H24.9751H24.9749H24.9748H24.9746H24.9745H24.9743H24.9742H24.974H24.9739H24.9737H24.9736H24.9734H24.9732H24.9731H24.9729H24.9728H24.9726H24.9725H24.9723H24.9722H24.972H24.9719H24.9717H24.9716H24.9714H24.9713H24.9711H24.9709H24.9708H24.9706H24.9705H24.9703H24.9702H24.97H24.9699H24.9697H24.9696H24.9694H24.9693H24.9691H24.9689H24.9688H24.9686H24.9685H24.9683H24.9682H24.968H24.9679H24.9677H24.9676H24.9674H24.9673H24.9671H24.9669H24.9668H24.9666H24.9665H24.9663H24.9662H24.966H24.9659H24.9657H24.9656H24.9654H24.9653H24.9651H24.9649H24.9648H24.9646H24.9645H24.9643H24.9642H24.964H24.9639H24.9637H24.9636H24.9634H24.9633H24.9631H24.9629H24.9628H24.9626H24.9625H24.9623H24.9622H24.962H24.9619H24.9617H24.9616H24.9614H24.9613H24.9611H24.9609H24.9608H24.9606H24.9605H24.9603H24.9602H24.96H24.9599H24.9597H24.9596H24.9594H24.9593H24.9591H24.9589H24.9588H24.9586H24.9585H24.9583H24.9582H24.958H24.9579H24.9577H24.9576H24.9574H24.9573H24.9571H24.9569H24.9568H24.9566H24.9565H24.9563H24.9562H24.956H24.9559H24.9557H24.9556H24.9554H24.9553H24.9551H24.9549H24.9548H24.9546H24.9545H24.9543H24.9542H24.954H24.9539H24.9537H24.9536H24.9534H24.9533H24.9531H24.953H24.9528H24.9526H24.9525H24.9523H24.9522H24.952H24.9519H24.9517H24.9516H24.9514H24.9513H24.9511H24.951H24.9508H24.9506H24.9505H24.9503H24.9502H24.95H24.9499H24.9497H24.9496H24.9494H24.9493H24.9491H24.949H24.9488H24.9486H24.9485H24.9483H24.9482H24.948H24.9479H24.9477H24.9476H24.9474H24.9473H24.9471H24.947H24.9468H24.9466H24.9465H24.9463H24.9462H24.946H24.9459H24.9457H24.9456H24.9454H24.9453H24.9451H24.945H24.9448H24.9446H24.9445H24.9443H24.9442H24.944H24.9439H24.9437H24.9436H24.9434H24.9433H24.9431H24.943H24.9428H24.9426H24.9425H24.9423H24.9422H24.942H24.9419H24.9417H24.9416H24.9414H24.9413H24.9411H24.941H24.9408H24.9406H24.9405H24.9403H24.9402H24.94H24.9399H24.9397H24.9396H24.9394H24.9393H24.9391H24.939H24.9388H24.9386H24.9385H24.9383H24.9382H24.938H24.9379H24.9377H24.9376H24.9374H24.9373H24.9371H24.937H24.9368H24.9366H24.9365H24.9363H24.9362H24.936H24.9359H24.9357H24.9356H24.9354H24.9353H24.9351H24.935H24.9348H24.9346H24.9345H24.9343H24.9342H24.934H24.9339H24.9337H24.9336H24.9334H24.9333H24.9331H24.933H24.9328H24.9327H24.9325H24.9323H24.9322H24.932H24.9319H24.9317H24.9316H24.9314H24.9313H24.9311H24.931H24.9308H24.9307H24.9305H24.9303H24.9302H24.93H24.9299H24.9297H24.9296H24.9294H24.9293H24.9291H24.929H24.9288H24.9287H24.9285H24.9283H24.9282H24.928H24.9279H24.9277H24.9276H24.9274H24.9273H24.9271H24.927H24.9268H24.9267H24.9265H24.9263H24.9262H24.926H24.9259H24.9257H24.9256H24.9254H24.9253H24.9251H24.925H24.9248H24.9247H24.9245H24.9243H24.9242H24.924H24.9239H24.9237H24.9236H24.9234H24.9233H24.9231H24.923H24.9228H24.9227H24.9225H24.9223H24.9222H24.922H24.9219H24.9217H24.9216H24.9214H24.9213H24.9211H24.921H24.9208H24.9207H24.9205H24.9203H24.9202H24.92H24.9199H24.9197H24.9196H24.9194H24.9193H24.9191H24.919H24.9188H24.9187H24.9185H24.9183H24.9181H24.9179H24.9177H24.9175H24.9173H24.9171H24.9169H24.9167H24.9165H24.9163H24.9161H24.9159H24.9157H24.9155H24.9153H24.9151H24.9149H24.9147H24.9145H24.9142H24.914H24.9138H24.9136H24.9134H24.9132H24.913H24.9128H24.9126H24.9124H24.9122H24.912H24.9118H24.9116H24.9114H24.9112H24.911H24.9108H24.9106H24.9104H24.9101H24.9099H24.9097H24.9095H24.9093H24.9091H24.9089H24.9087H24.9085H24.9083H24.9081H24.9079H24.9077H24.9075H24.9073H24.9071H24.9069H24.9067H24.9065H24.9063H24.906H24.9058H24.9056H24.9054H24.9052H24.905H24.9048H24.9046H24.9044H24.9042H24.904H24.9038H24.9036H24.9034H24.9032H24.903H24.9028H24.9026H24.9024H24.9021H24.9019H24.9017H24.9015H24.9013H24.9011H24.9009H24.9007H24.9005H24.9003H24.9001H24.8999H24.8997H24.8995H24.8993H24.8991H24.8989H24.8987H24.8985H24.8983H24.898H24.8978H24.8976H24.8974H24.8972H24.897H24.8968H24.8966H24.8964H24.8962H24.896H24.8958H24.8956H24.8954H24.8952H24.895H24.8948H24.8946H24.8944H24.8942H24.8939H24.8937H24.8935H24.8933H24.8931H24.8929H24.8927H24.8925H24.8923H24.8921H24.8919H24.8917H24.8915H24.8913H24.8911H24.8909H24.8907H24.8905H24.8903H24.8901H24.8898H24.8896H24.8894H24.8892H24.889H24.8888H24.8886H24.8884H24.8882H24.888H24.8878H24.8876H24.8874H24.8872H24.887H24.8868H24.8866H24.8864H24.8862H24.886H24.8857H24.8855H24.8853H24.8851H24.8849H24.8847H24.8845H24.8843H24.8841H24.8839H24.8837H24.8835H24.8833H24.8831H24.8829H24.8827H24.8825H24.8823H24.8821H24.8818H24.8816H24.8814H24.8812H24.881H24.8808H24.8806H24.8804H24.8802H24.88H24.8798H24.8796H24.8794H24.8792H24.879H24.8788H24.8786H24.8784H24.8782H24.878H24.8777H24.8775H24.8773H24.8771H24.8769H24.8767H24.8765H24.8763H24.8761H24.8759H24.8757H24.8755H24.8753H24.8751H24.8749H24.8747H24.8745H24.8743H24.8741H24.8739H24.8736H24.8734H24.8732H24.873H24.8728H24.8726H24.8724H24.8722H24.872H24.8718H24.8716H24.8714H24.8712H24.871H24.8708H24.8706H24.8704H24.8702H24.87H24.8698H24.8695H24.8693H24.8691H24.8689H24.8687H24.8685H24.8683H24.8681H24.8679H24.8677H24.8675H24.8673H24.8671H24.8669H24.8667H24.8665H24.8663H24.8661H24.8659H24.8657H24.8654H24.8652H24.865H24.8648H24.8646H24.8644H24.8642H24.864H24.8638H24.8636H24.8634H24.8632H24.863H24.8628H24.8626H24.8624H24.8622H24.862H24.8618H24.8615H24.8613H24.8611H24.8609H24.8607H24.8605H24.8603H24.8601H24.8599H24.8597H24.8595H24.8593H24.8591H24.8589H24.8587H24.8585H24.8583H24.8581H24.8579H24.8577H24.8574H24.8572H24.857H24.8568H24.8566H24.8564H24.8562H24.856H24.8558H24.8556H24.8554H24.8552H24.855H24.8548H24.8546H24.8544H24.8542H24.854H24.8538H24.8536H24.8533H24.8531H24.8529H24.8527H24.8525H24.8523H24.8521H24.8519H24.8517H24.8515H24.8513H24.8511H24.8509H24.8507H24.8505H24.8503H24.8501H24.8499H24.8497H24.8495H24.8492H24.849H24.8488H24.8486H24.8484H24.8482H24.848H24.8478H24.8476H24.8474H24.8472H24.847H24.8468H24.8466H24.8464H24.8462H24.846H24.8458H24.8456H24.8454H24.8451H24.8449H24.8447H24.8445H24.8443H24.8441H24.8439H24.8437H24.8435H24.8433H24.8431H24.8429H24.8427H24.8425H24.8423H24.8421H24.8419H24.8417H24.8415H24.8412H24.841H24.8408H24.8406H24.8404H24.8402H24.84H24.8398H24.8396H24.8394H24.8392H24.839H24.8388H24.8386H24.8384H24.8382H24.838H24.8378H24.8376H24.8374H24.8371H24.8369H24.8367H24.8365H24.8363H24.8361H24.8359H24.8357H24.8355H24.8353H24.8351H24.8349H24.8347H24.8345H24.8343H24.8341H24.8339H24.8337H24.8335H24.8333H24.833H24.8328H24.8326H24.8324H24.8322H24.832H24.8318H24.8316H24.8314H24.8312H24.831H24.8308H24.8306H24.8304H24.8302H24.83H24.8298H24.8296H24.8294H24.8292H24.8289H24.8287H24.8285H24.8283H24.8281H24.8279H24.8277H24.8275H24.8273H24.8271H24.8269H24.8267H24.8265H24.8263H24.8261H24.8259H24.8257H24.8255H24.8253H24.8251H24.8248H24.8246H24.8244H24.8242H24.824H24.8238H24.8236H24.8234H24.8232H24.823H24.8228H24.8226H24.8224H24.8222H24.822H24.8218H24.8216H24.8214H24.8212H24.821H24.8207H24.8205H24.8203H24.8201H24.8199H24.8197H24.8195H24.8193H24.8191H24.8189H24.8187H24.8185H24.8183H24.8181H24.8179H24.8177H24.8175H24.8173H24.8171H24.8168H24.8166H24.8164H24.8162H24.816H24.8158H24.8156H24.8154H24.8152H24.815H24.8148H24.8146H24.8144H24.8142H24.814H24.8138H24.8136H24.8134H24.8103H24.8073H24.8043H24.8013H24.7982H24.7952H24.7922H24.7892H24.7861H24.7831H24.7801H24.7771H24.774H24.771H24.768H24.7649H24.7619H24.7589H24.7559H24.7528H24.7498H24.7468H24.7437H24.7407H24.7377H24.7347H24.7316H24.7286H24.7256H24.7225H24.7195H24.7165H24.7135H24.7104H24.7074H24.7044H24.7013H24.6983H24.6953H24.6922H24.6892H24.6862H24.6831H24.6801H24.6771H24.674H24.671H24.668H24.6649H24.6619H24.6589H24.6558H24.6528H24.6498H24.6467H24.6437H24.6407H24.6376H24.6346H24.6316H24.6285H24.6255H24.6225H24.6194H24.6164H24.6134H24.6103H24.6073H24.6042H24.6012H24.5982H24.5951H24.5921H24.5891H24.586H24.583H24.5799H24.5769H24.5739H24.5708H24.5678H24.5648H24.5617H24.5587H24.5556H24.5526H24.5496H24.5465H24.5435H24.5404H24.5374H24.5344H24.5313H24.5283H24.5252H24.5222H24.5192H24.5161H24.5131H24.51H24.507H24.504H24.5009H24.4979H24.4948H24.4918H24.4888H24.4857H24.4827H24.4796H24.4766H24.4736H24.4705H24.4675H24.4644H24.4614H24.4583H24.4553H24.4523H24.4492H24.4462H24.4431H24.4401H24.437H24.434H24.431H24.4279H24.4249H24.4218H24.4188H24.4157H24.4127H24.4096H24.4066H24.4036H24.4005H24.3975H24.3944H24.3914H24.3883H24.3853H24.3822H24.3792H24.3762H24.3731H24.3701H24.367H24.364H24.3609H24.3579H24.3548H24.3518H24.3487H24.3457H24.3427H24.3396H24.3366H24.3335H24.3305H24.3274H24.3244H24.3213H24.3183H24.3152H24.3122H24.3091H24.3061H24.303H24.3H24.297H24.2939H24.2909H24.2878H24.2848H24.2817H24.2787H24.2756H24.2726H24.2695H24.2665H24.2634H24.2604H24.2573H24.2543H24.2512H24.2482H24.2451H24.2421H24.239H24.236H24.233H24.2299H24.2269H24.2238H24.2208H24.2177H24.2147H24.2116H24.2086H24.2055H24.2025H24.1994H24.1964H24.1933H24.1903H24.1872H24.1842H24.1811H24.1781H24.175H24.172H24.1689H24.1659H24.1628H24.1598H24.1567H24.1537H24.1506H24.1476H24.1445H24.1415H24.1384H24.1354H24.1323H24.1293H24.1262H24.1232H24.1201H24.1171H24.114H24.111H24.1079H24.1049H24.1018H24.0988H24.0957H24.0927H24.0896H24.0866H24.0835H24.0805H24.0774H24.0744H24.0713H24.0683H24.0652H24.0622H24.0591H24.0561H24.053H24.05H24.0469H24.0439H24.0408H24.0378H24.0347H24.0317H24.0286H24.0256H24.0225H24.0195H24.0164H24.0134H24.0103H24.0073H24.0042H24.0012H23.9981H23.9951H23.992H23.989H23.9859H23.9829H23.9798H23.9768H23.9737H23.9707H23.9676H23.9646H23.9615H23.9585H23.9554H23.9524H23.9493H23.9463H23.9432H23.9402H23.9371H23.9341H23.931H23.928H23.9249H23.9219H23.9188H23.9158H23.9127H23.9097H23.9066H23.9036H23.9005H23.8975H23.8944H23.8914H23.8883H23.8853H23.8822H23.8792H23.8761H23.8731H23.87H23.867H23.864H23.8609H23.8579H23.8548H23.8518H23.8487H23.8457H23.8426H23.8396H23.8365H23.8335H23.8304H23.8274H23.8243H23.8213H23.8182H23.8152H23.8121H23.8091H23.806H23.803H23.7999H23.7969H23.7938H23.7908H23.7877H23.7847H23.7817H23.7786H23.7756H23.7725H23.7695H23.7664H23.7634H23.7603H23.7573H23.7542H23.7512H23.7481H23.7451H23.742H23.739H23.7359H23.7329H23.7299H23.7268H23.7238H23.7207H23.7177H23.7146H23.7116H23.7085H23.7055H23.7024H23.6994H23.6964H23.6933H23.6903H23.6872H23.6842H23.6811H23.6781H23.675H23.672H23.6689H23.6659H23.6629H23.6598H23.6568H23.6537H23.6507H23.6476H23.6446H23.6416H23.6385H23.6355H23.6324H23.6294H23.6263H23.6233H23.6202H23.6172H23.6142H23.6111H23.6081H23.605H23.602H23.599H23.5959H23.5929H23.5898H23.5868H23.5837H23.5807H23.5777H23.5746H23.5716H23.5685H23.5655H23.5625H23.5594H23.5564H23.5533H23.5503H23.5473H23.5442H23.5412H23.5381H23.5351H23.5321H23.529H23.526H23.5229H23.5199H23.5169H23.5138H23.5108H23.5077H23.5047H23.5017H23.4986H23.4956H23.4926H23.4895H23.4865H23.4834H23.4804H23.4774H23.4743H23.4713H23.4683H23.4652H23.4622H23.4591H23.4561H23.4531H23.45H23.447H23.444H23.4409H23.4379H23.4349H23.4318H23.4288H23.4258H23.4227H23.4197H23.4167H23.4136H23.4106H23.4076H23.4045H23.4015H23.3985H23.3954H23.3924H23.3894H23.3863H23.3833H23.3803H23.3772H23.3742H23.3712H23.3681H23.3651H23.3621H23.359H23.356H23.353H23.3499H23.3469H23.3439H23.3409H23.3378H23.3348H23.3318H23.3287H23.3257H23.3227H23.3197H23.3166H23.3136H23.3106H23.3075H23.3045H23.3015H23.2985H23.2954H23.2924H23.2894H23.2864H23.2833H23.2803H23.2773H23.2743H23.2712H23.2682H23.2652H23.2621H23.2591H23.2561H19.153C18.804 23.4471 18.6611 23.5273 18.6021 23.5848C18.5645 23.6213 18.5293 23.6903 18.5293 23.8021V23.8021C18.5293 23.8241 18.5293 23.8667 18.5447 23.9125C18.5614 23.962 18.5934 24.0086 18.646 24.0463C18.7423 24.1153 18.8995 24.1484 19.1442 24.1484V24.0234L25.0058 23.4471Z" fill="white" stroke="white" stroke-width="0.25"/>
<path d="M60.7594 25.4529C60.7594 41.955 47.3818 55.3326 30.8797 55.3326C14.3776 55.3326 1 41.955 1 25.4529" stroke="#A87E33" stroke-opacity="0.25" stroke-width="0.6" stroke-dasharray="3 3"/>
</svg>
