<svg width="66" height="60" viewBox="0 0 66 60" fill="none" xmlns="http://www.w3.org/2000/svg">
<circle cx="32.6862" cy="26.9577" r="26.9577" fill="#105F43"/>
<path d="M64.84 27.1912C64.84 44.8201 50.5489 59.1111 32.92 59.1111C15.2911 59.1111 1 44.8201 1 27.1912" stroke="#105F43" stroke-opacity="0.25" stroke-width="0.6" stroke-dasharray="3 3"/>
<g clip-path="url(#clip0_2630_1765)">
<path d="M32.7627 10C31.988 10.2588 31.2212 10.5257 30.4465 10.7845C28.2647 11.4962 26.075 12.2079 23.8932 12.9196C23.8062 12.9439 23.7272 12.9763 23.6402 13.0167C23.2371 13.1946 23.0236 13.5667 23.0631 14.0115C23.1027 14.424 23.3873 14.7717 23.8062 14.8526C24.6126 15.0063 25.4189 15.1518 26.2252 15.2732C26.4386 15.3055 26.5256 15.3783 26.5177 15.6128C26.5019 16.1143 26.4861 16.6238 26.5256 17.1252C26.5414 17.3679 26.6837 17.6024 26.7707 17.845C26.8102 17.9583 26.8813 18.0796 26.8813 18.2009C26.8892 19.2927 26.8971 20.3765 26.8813 21.4683C26.8734 22.1315 27.1185 22.5925 27.743 22.827C27.8141 22.8513 27.8853 22.9645 27.9011 23.0373C28.0987 24.4284 28.739 25.5607 29.7904 26.4503C30.0039 26.6282 29.9643 27.0973 29.7351 27.251C28.5414 28.0517 27.3556 28.8685 26.1382 29.6368C25.8537 29.8148 25.4979 29.8795 25.1659 29.9765C24.3833 30.2111 23.5849 30.4133 22.9129 30.9228C21.656 31.8771 21.0315 33.1711 21.0157 34.7644C21.0078 36.1636 21.0078 37.5708 21.0157 38.97C21.0236 40.1831 21.8299 40.9919 23.0157 40.9919C29.6718 40.9919 36.328 40.9919 42.9841 40.9919C44.1936 40.9919 44.9841 40.1831 44.9999 38.9538C44.9999 38.7112 45.0078 38.4686 44.9999 38.2259C44.992 37.8943 44.8181 37.7083 44.5414 37.7083C44.2726 37.7164 44.1224 37.8863 44.1145 38.2178C44.1066 38.4928 44.1224 38.7597 44.1066 39.0347C44.0829 39.6736 43.6718 40.078 43.0473 40.0861C42.4307 40.0942 41.8062 40.0861 41.158 40.0861C41.158 39.5119 41.158 38.97 41.158 38.4281C41.158 38.3149 41.1659 38.2017 41.1501 38.0965C41.1185 37.8377 40.9209 37.6598 40.6916 37.676C40.4545 37.6841 40.2805 37.8701 40.2726 38.137C40.2647 38.7678 40.2726 39.4067 40.2726 40.0618C35.4268 40.0618 30.6046 40.0618 25.7351 40.0618C25.7351 39.5523 25.7351 39.0428 25.7351 38.5333C25.7351 38.4119 25.7351 38.2906 25.7351 38.1693C25.7272 37.8782 25.5612 37.6922 25.3161 37.676C25.0631 37.6679 24.8576 37.862 24.8497 38.1612C24.8339 38.6869 24.8418 39.2126 24.8418 39.7383C24.8418 39.8435 24.8418 39.9567 24.8418 40.0861C24.1224 40.0861 23.4347 40.1104 22.7469 40.078C22.2726 40.0537 21.9011 39.6251 21.9011 39.1075C21.8932 37.5223 21.8616 35.9371 21.9327 34.36C22.0039 32.8557 23.0473 31.5941 24.4624 31.1492C24.9604 30.9875 25.4584 30.8419 25.9643 30.7044C26.0829 30.6721 26.241 30.6963 26.3438 30.761C28.3991 31.9984 30.4465 33.2439 32.494 34.4975C32.8497 34.7159 33.1264 34.7321 33.49 34.5056C35.5137 33.252 37.5533 32.0308 39.577 30.7853C39.7667 30.6721 39.9248 30.6478 40.1303 30.7125C40.5572 30.8581 40.9999 30.9713 41.4347 31.1088C43.0948 31.6345 44.0908 33.0013 44.1066 34.7806C44.1145 35.1931 44.0987 35.6055 44.1145 36.018C44.1224 36.293 44.2884 36.4709 44.5256 36.479C44.7628 36.4952 44.9762 36.3253 44.9841 36.0665C44.9999 35.0879 45.079 34.1093 44.739 33.1631C44.2015 31.6668 43.1738 30.7044 41.6956 30.2353C41.3477 30.1221 40.9999 30.017 40.6442 29.928C40.2094 29.8148 39.8141 29.6368 39.4426 29.378C38.4307 28.6825 37.4031 28.0031 36.3754 27.3238C36.0039 27.0731 35.9722 26.6687 36.3122 26.3775C37.3003 25.504 37.909 24.4203 38.1066 23.102C38.1224 22.9969 38.2094 22.8594 38.2963 22.8189C38.8655 22.5925 39.1264 22.1719 39.1264 21.5573C39.1264 20.4654 39.1185 19.3817 39.1343 18.2899C39.1343 18.12 39.245 17.9502 39.3003 17.7722C39.3714 17.5539 39.4742 17.3436 39.49 17.1171C39.5216 16.5914 39.49 16.0657 39.5058 15.54C39.5058 15.4592 39.5849 15.3136 39.6481 15.3055C40.3122 15.1761 40.9841 15.0629 41.6797 14.9416C41.6797 15.6775 41.6797 16.3812 41.6797 17.012C41.4031 17.2061 41.1422 17.3517 40.9367 17.5539C40.826 17.6671 40.7628 17.8855 40.7707 18.0553C40.8418 19.5111 40.4545 20.9103 40.2568 22.3337C40.2252 22.552 40.1778 22.7704 40.162 22.9888C40.1382 23.5549 40.5414 24.0159 41.0869 24.0321C41.7825 24.0564 42.4861 24.0564 43.1896 24.0321C43.8062 24.0159 44.2173 23.466 44.1145 22.8189C43.9406 21.7271 43.7351 20.6353 43.577 19.5434C43.5137 19.1067 43.5375 18.6619 43.5295 18.2171C43.5216 17.57 43.2371 17.2304 42.5888 17.1252C42.5888 16.3326 42.5888 15.54 42.5967 14.7475C42.5967 14.6908 42.6521 14.6261 42.6995 14.5695C43.1817 13.9549 42.9683 13.2027 42.2331 12.9601C40.2647 12.3131 38.2963 11.6741 36.328 11.0352C35.3398 10.7117 34.3596 10.3963 33.3714 10.0728C33.324 10.0566 33.2845 10.0243 33.245 10.0081C33.079 10 32.9209 10 32.7627 10ZM36.3043 18.1281C36.3043 18.4354 36.2963 18.7428 36.3043 19.0501C36.328 19.8508 36.9209 20.4493 37.7035 20.4735C37.8695 20.4816 38.0355 20.4735 38.2252 20.4735C38.2252 20.8941 38.2489 21.2823 38.2094 21.6705C38.2015 21.7675 38.0355 21.905 37.9169 21.9374C37.4663 22.0587 37.2924 22.2285 37.2529 22.6895C37.0473 24.9703 35.2054 26.701 32.992 26.701C30.7944 26.701 28.9604 24.9783 28.739 22.7138C28.6916 22.2205 28.5335 22.0587 28.0592 21.9374C27.9485 21.905 27.7825 21.7675 27.7746 21.6705C27.743 21.2823 27.7588 20.8941 27.7588 20.4816C27.9169 20.4816 28.0434 20.4816 28.1699 20.4816C29.0948 20.4735 29.6718 19.8831 29.6797 18.9288C29.6797 18.67 29.6797 18.4112 29.6797 18.1362C31.909 18.1281 34.0829 18.1281 36.3043 18.1281ZM38.5888 17.1818C34.8418 17.1818 31.1343 17.1818 27.411 17.1818C27.411 16.5591 27.411 15.9606 27.411 15.354C27.5375 15.3298 27.656 15.3055 27.7746 15.2893C27.9011 15.2732 28.0276 15.2651 28.1541 15.2408C28.4544 15.1842 28.6046 14.9982 28.573 14.7232C28.5414 14.4725 28.3517 14.3269 28.0592 14.3512C27.9327 14.3592 27.8062 14.3835 27.6797 14.3916C27.3714 14.4078 27.0473 14.4725 26.7469 14.432C25.988 14.335 25.2292 14.1813 24.4703 14.0519C24.2963 14.0196 24.1303 13.9791 23.9643 13.9387C24.0434 13.8416 24.1145 13.8093 24.1857 13.785C27.0552 12.8388 29.9327 11.9006 32.8181 10.9705C32.9446 10.9301 33.1106 10.9463 33.2371 10.9867C35.9722 11.8682 38.6995 12.7579 41.4268 13.6475C41.6402 13.7122 41.8458 13.7931 42.1224 13.8902C41.9801 13.9387 41.9248 13.9791 41.8616 13.9872C41.2371 14.0924 40.6205 14.2056 39.996 14.3026C39.6402 14.3592 39.2687 14.4806 38.9209 14.4482C37.9169 14.3592 36.9288 14.2056 35.9327 14.0762C34.3675 13.8659 32.8023 13.6394 31.2292 13.9306C30.8892 13.9953 30.5414 14.0115 30.2015 14.06C29.909 14.1004 29.7351 14.3188 29.7667 14.5695C29.7983 14.8202 29.996 14.9739 30.2726 14.9658C30.3675 14.9658 30.4703 14.9416 30.5651 14.9335C31.5137 14.8607 32.4703 14.7232 33.4189 14.7232C34.1857 14.7232 34.9446 14.8688 35.7114 14.9658C36.6679 15.0791 37.6244 15.2085 38.5967 15.3379C38.5888 15.9606 38.5888 16.5591 38.5888 17.1818ZM35.1975 27.1054C35.245 27.9546 35.1422 28.7472 34.9446 29.5317C34.9288 29.5964 34.8102 29.6692 34.7311 29.6773C33.6244 29.8876 32.5177 29.8714 31.411 29.7177C31.1501 29.6854 31.0394 29.556 31.0078 29.3052C30.9841 29.1031 30.9209 28.9089 30.905 28.7148C30.8576 28.1972 30.826 27.6715 30.7786 27.0892C32.2884 27.7686 33.7351 27.7605 35.1975 27.1054ZM27.0631 30.114C28.0276 29.467 28.9604 28.8442 29.9406 28.1891C30.0987 29.8795 30.6284 31.3838 31.4821 32.791C30.0118 31.9095 28.5572 31.0279 27.0631 30.114ZM38.9446 30.114C37.4426 31.0279 35.988 31.9095 34.5256 32.7991C35.3873 31.3838 35.9011 29.8714 36.075 28.1972C37.0394 28.8442 37.9722 29.467 38.9446 30.114ZM42.6758 19.8103C42.6916 19.8346 42.7074 19.8508 42.7074 19.8669C42.8813 20.886 43.0552 21.905 43.2292 22.9241C43.2608 23.1263 43.1422 23.1344 42.9999 23.1344C42.4307 23.1344 41.8616 23.1263 41.2845 23.1344C41.0552 23.1424 41.0157 23.0373 41.0552 22.8432C41.1185 22.5035 41.1659 22.1719 41.2292 21.8322C41.3398 21.161 41.4584 20.4897 41.5691 19.8103C41.9564 19.8103 42.3201 19.8103 42.6758 19.8103ZM31.3714 30.6963C32.5019 30.6963 33.5216 30.6963 34.6363 30.6963C34.0987 31.6102 33.577 32.4999 32.9999 33.4785C32.4307 32.508 31.909 31.6183 31.3714 30.6963ZM38.2252 19.5596C38.0276 19.5596 37.8537 19.5677 37.6956 19.5596C37.4347 19.5354 37.2371 19.3898 37.2133 19.1229C37.1817 18.7994 37.2054 18.4678 37.2054 18.1281C37.5612 18.1281 37.8932 18.1281 38.2331 18.1281C38.2252 18.6053 38.2252 19.0663 38.2252 19.5596ZM28.8102 18.12C28.8102 18.4516 28.826 18.7589 28.8102 19.0744C28.7944 19.3493 28.6205 19.5192 28.3596 19.5515C28.1778 19.5758 27.988 19.5596 27.7904 19.5596C27.7904 19.0744 27.7904 18.6053 27.7904 18.1281C28.1224 18.12 28.4465 18.12 28.8102 18.12ZM42.6284 18.8722C42.2884 18.8722 41.9722 18.8722 41.656 18.8722C41.656 18.5972 41.656 18.3384 41.656 18.0715C41.988 18.0715 42.3043 18.0715 42.6284 18.0715C42.6284 18.3465 42.6284 18.5972 42.6284 18.8722Z" fill="white"/>
</g>
<defs>
<clipPath id="clip0_2630_1765">
<rect width="24" height="31" fill="white" transform="matrix(-1 0 0 1 45 10)"/>
</clipPath>
</defs>
</svg>
