<svg width="24" height="24" viewBox="0 0 24 24" fill="none" xmlns="http://www.w3.org/2000/svg">
<path d="M12.004 1.00145C9.29085 1.00145 6.5777 0.999965 3.86381 1.00294C3.64181 1.00294 3.4146 1.00294 3.19781 1.04392C1.8621 1.29422 1.00241 2.36846 1.00167 3.79282C0.998689 9.26605 1.00018 14.7393 1.00241 20.2125C1.00241 20.4159 1.00837 20.6237 1.04786 20.8226C1.31008 22.1568 2.37985 22.9987 3.81315 22.9987C9.26775 23.0009 14.7224 23.0001 20.177 22.9979C20.39 22.9979 20.6068 22.9942 20.8146 22.9532C22.1422 22.6947 22.9966 21.6294 22.9974 20.2214C23.0004 14.7385 22.9989 9.25636 22.9966 3.77345C22.9966 3.57902 22.9907 3.38086 22.9542 3.19089C22.6972 1.86188 21.6334 1.00443 20.2276 1.0022C17.4869 0.99773 14.7454 1.00145 12.004 1.00145Z" stroke="#105F43" stroke-width="1.2" stroke-miterlimit="10"/>
<path d="M13.4883 7.17188H20.625" stroke="#105F43" stroke-width="1.2" stroke-miterlimit="10" stroke-linecap="round" stroke-linejoin="round"/>
<path d="M3.20508 12.3809H20.6245" stroke="#105F43" stroke-width="1.2" stroke-miterlimit="10" stroke-linecap="round" stroke-linejoin="round"/>
<path d="M3.20508 17.5894H20.6245" stroke="#105F43" stroke-width="1.2" stroke-miterlimit="10" stroke-linecap="round" stroke-linejoin="round"/>
<path d="M3.77344 6.76847L6.15955 8.98026L10.8319 4.65576" stroke="#A87E33" stroke-width="1.2" stroke-miterlimit="10" stroke-linecap="round" stroke-linejoin="round"/>
</svg>
