<svg width="300" height="211" viewBox="0 0 300 211" fill="none" xmlns="http://www.w3.org/2000/svg">
<g clip-path="url(#clip0_3087_2017)">
<path d="M293 0H7C3.13401 0 0 3.13401 0 7V204C0 207.866 3.13401 211 7 211H293C296.866 211 300 207.866 300 204V7C300 3.13401 296.866 0 293 0Z" fill="#DCCBAD"/>
<mask id="mask0_3087_2017" style="mask-type:alpha" maskUnits="userSpaceOnUse" x="0" y="0" width="300" height="211">
<path d="M293 0H7C3.13401 0 0 3.13401 0 7V204C0 207.866 3.13401 211 7 211H293C296.866 211 300 207.866 300 204V7C300 3.13401 296.866 0 293 0Z" fill="#105F43"/>
</mask>
<g mask="url(#mask0_3087_2017)">
<path d="M147.454 156.451C147.454 182.117 147.821 208.149 147.454 233.815C147.087 245.915 142.321 256.548 130.221 260.947C124.355 263.147 116.655 263.147 110.422 262.047C91.3559 259.114 72.6565 255.081 53.5905 251.414C33.7912 247.748 13.9918 244.448 -5.80745 240.782C-17.5404 238.582 -22.6736 230.149 -18.6404 218.782C1.15898 161.584 39.2909 124.919 99.0555 113.186C109.322 111.353 119.588 110.253 129.855 109.886C139.388 109.519 145.621 115.752 145.621 125.652C145.621 135.918 147.087 141.785 147.087 152.051C147.454 154.251 147.454 155.351 147.454 156.451Z" fill="white" fill-opacity="0.19"/>
<path d="M255.249 107.315C262.583 106.949 271.382 106.215 280.182 105.482C299.615 104.015 316.847 113.182 314.647 138.114C311.347 172.58 308.781 206.679 306.214 241.144C305.114 254.344 298.514 259.477 285.315 257.644C258.549 253.977 233.617 244.811 211.618 229.044C187.418 211.445 170.552 188.346 161.753 159.747C158.819 150.214 156.62 140.681 154.42 131.148C151.853 120.148 156.986 112.448 168.352 110.615C169.086 110.615 170.186 110.249 170.919 110.249C198.418 109.149 225.917 108.415 255.249 107.315Z" fill="white" fill-opacity="0.19"/>
<path d="M120.322 104.387C83.2904 105.12 46.2584 105.853 9.22634 106.587C5.92645 106.587 2.25996 106.587 -1.03993 106.587C-13.8728 105.853 -17.906 93.3866 -16.806 84.9536C-13.5061 61.1211 -10.573 37.2886 -6.90642 13.456C-5.4398 2.08976 -3.97317 -9.64317 -1.03993 -20.6428C1.8933 -32.0091 10.6929 -36.7756 22.0592 -34.209C58.7246 -26.1426 90.6235 -9.64317 114.823 20.0558C130.589 39.8551 138.288 62.9543 142.322 87.5202C144.155 97.7865 138.655 103.653 128.389 104.387C125.822 104.753 123.256 104.387 120.689 104.387C120.323 104.387 120.322 104.387 120.322 104.387Z" fill="white" fill-opacity="0.19"/>
<path d="M149.287 32.1527C149.287 16.02 149.654 -0.112808 149.287 -16.2456C148.92 -33.4783 162.12 -38.9781 174.219 -37.1449C211.618 -31.2784 249.384 -25.0453 286.782 -18.8122C302.549 -16.2456 309.515 -4.87932 304.015 9.78684C293.382 37.6526 275.783 60.3851 250.85 77.2512C227.018 93.7506 199.885 100.351 171.653 103.284C157.353 104.75 150.02 98.5171 149.654 83.851C149.287 66.9849 149.287 49.7521 149.287 32.1527Z" fill="white" fill-opacity="0.19"/>
<path d="M269.5 238C296.838 238 319 215.838 319 188.5C319 161.162 296.838 139 269.5 139C242.162 139 220 161.162 220 188.5C220 215.838 242.162 238 269.5 238Z" fill="white" fill-opacity="0.85"/>
</g>
<circle cx="17.9976" cy="17.9976" r="17.9976" transform="matrix(-1 0 0 1 283.994 161.316)" fill="white"/>
<path d="M245.47 174.278C240.975 174.278 236.495 174.278 232 174.278C232 173.214 232 172.151 232 171.102C236.835 171.102 241.67 171.102 246.505 171.102C246.108 172.137 245.782 173.2 245.47 174.278Z" fill="#064931"/>
<path d="M245.464 174.28C245.776 173.203 246.102 172.139 246.499 171.104C247.094 169.786 247.746 168.495 248.597 167.318C248.796 167.035 248.597 166.95 248.441 166.822C247.576 166.099 246.711 165.362 245.832 164.653C245.577 164.454 245.506 164.313 245.761 164.043C246.3 163.448 246.797 162.838 247.293 162.214C247.477 161.987 247.591 161.959 247.832 162.157C248.682 162.895 249.576 163.604 250.426 164.341C250.681 164.568 250.837 164.61 251.107 164.341C253.872 161.604 257.161 159.789 260.947 158.925C261.301 158.84 261.259 158.712 261.16 158.457C260.139 155.479 261.84 152.601 264.931 152.062C265.158 152.02 265.385 152.034 265.612 152.02C265.612 153.069 265.612 154.118 265.612 155.167C264.619 155.323 264.038 155.905 264.024 156.755C264.01 157.62 264.605 158.23 265.612 158.386C265.612 159.435 265.612 160.484 265.612 161.533C263.187 161.576 260.848 162.016 258.622 163.008C251.617 166.142 247.52 172.976 248.2 180.604C248.696 186.219 251.405 190.572 256.069 193.705C258.948 195.633 262.166 196.512 265.612 196.569C265.612 197.618 265.612 198.668 265.612 199.717C260.933 199.717 256.736 198.285 253.021 195.449C250.086 193.223 247.959 190.359 246.485 186.999C246.073 185.963 245.747 184.886 245.45 183.822C245.294 182.759 245.123 181.696 244.967 180.632C244.925 179.569 244.925 178.52 244.967 177.456C245.138 176.393 245.294 175.344 245.464 174.28Z" fill="#064931"/>
<path d="M265.635 199.716C265.635 198.667 265.635 197.617 265.635 196.568L265.621 196.54C266.67 196.625 267.705 196.497 268.726 196.299C272.881 195.505 276.369 193.548 279.063 190.273C282.65 185.906 283.883 180.901 282.763 175.371C281.955 171.443 279.956 168.168 276.865 165.602C273.618 162.908 269.875 161.504 265.635 161.547L265.649 161.518C265.649 160.469 265.649 159.42 265.649 158.371C266.911 158.229 267.479 157.095 267.11 156.201C266.84 155.549 266.316 155.251 265.649 155.152C265.649 154.103 265.649 153.054 265.649 152.004C268.06 151.891 270.357 154.018 270.428 156.428C270.442 157.123 270.399 157.803 270.116 158.456C270.002 158.711 270.045 158.824 270.328 158.881C274.143 159.746 277.418 161.589 280.197 164.326C280.438 164.567 280.58 164.567 280.835 164.354C281.7 163.603 282.607 162.879 283.472 162.142C283.699 161.944 283.827 161.958 284.011 162.185C284.521 162.823 285.032 163.447 285.571 164.056C285.769 164.283 285.755 164.397 285.528 164.595C284.635 165.318 283.77 166.07 282.862 166.793C282.607 166.991 282.579 167.133 282.763 167.417C285.4 171.302 286.591 175.598 286.322 180.277C285.797 189.209 279.644 196.625 271.25 198.993C269.407 199.489 267.535 199.787 265.635 199.716Z" fill="#064931"/>
<path d="M244.971 177.455C244.928 178.518 244.928 179.567 244.971 180.631C241.866 180.631 238.761 180.631 235.641 180.645C235.287 180.645 235.145 180.574 235.159 180.191C235.188 179.44 235.188 178.674 235.159 177.908C235.145 177.525 235.287 177.44 235.641 177.455C238.761 177.455 241.866 177.455 244.971 177.455Z" fill="#064931"/>
<path d="M245.472 183.823C245.784 184.9 246.11 185.964 246.507 186.999C243.926 186.999 241.346 186.999 238.78 187.013C238.453 187.013 238.354 186.928 238.354 186.602C238.383 185.85 238.397 185.085 238.354 184.319C238.326 183.865 238.524 183.809 238.907 183.809C241.091 183.823 243.288 183.823 245.472 183.823Z" fill="#064931"/>
<path d="M265.631 155.152C266.298 155.252 266.836 155.549 267.092 156.202C267.46 157.109 266.893 158.229 265.631 158.371C264.625 158.215 264.029 157.605 264.043 156.74C264.057 155.89 264.639 155.308 265.631 155.152Z" fill="#FBFCFC"/>
<path d="M265.498 164.312C267.838 164.312 270.144 164.879 272.218 165.964C274.291 167.048 276.072 168.619 277.407 170.541L265.498 178.811L265.498 164.312Z" fill="#A87E33"/>
</g>
<defs>
<clipPath id="clip0_3087_2017">
<rect width="300" height="211" fill="white"/>
</clipPath>
</defs>
</svg>
