<svg width="68" height="67" viewBox="0 0 68 67" fill="none" xmlns="http://www.w3.org/2000/svg">
<path d="M67.4983 28.2591C67.1539 28.8429 66.6401 29.0421 65.9689 29.0421C52.9108 29.0316 39.8527 29.0351 26.7963 29.0334C26.625 29.0334 26.452 29.0194 26.23 29.0089C26.23 28.2871 26.23 27.5844 26.23 26.8101C39.2304 26.8101 52.2117 26.8101 65.2296 26.8101C65.2296 18.5988 65.2296 10.4573 65.2296 2.27219C44.4198 2.27219 23.6152 2.27219 2.76347 2.27219C2.76347 9.30026 2.76347 16.3109 2.76347 23.3774C2.0119 23.3774 1.30752 23.3774 0.5105 23.3774C0.5105 23.1659 0.5105 22.9352 0.5105 22.7045C0.5105 15.6624 0.517491 8.6221 0.500013 1.58005C0.498265 0.884408 0.678292 0.349568 1.29703 0C23.3478 0 45.4003 0 67.4983 0C67.4983 9.41912 67.4983 18.84 67.4983 28.2591Z" fill="#105F43"/>
<path d="M67.4973 66.2017C67.1477 66.8204 66.6129 67.0022 65.9155 66.997C62.4932 66.9725 59.071 66.9865 55.6487 66.9847C54.4567 66.9847 54.1106 66.6317 54.1088 65.4117C54.1053 62.5784 54.1246 59.7434 54.1018 56.9102C54.0844 54.8232 54.8709 53.1925 56.6694 52.0861C56.7236 52.0529 56.7795 52.0214 56.8879 51.955C55.5298 50.4466 54.9513 48.7442 55.3533 46.7971C55.626 45.4758 56.3251 44.3939 57.4 43.5514C59.5499 41.8682 62.5352 42.0133 64.6413 43.9219C66.8401 45.9145 66.8891 48.7355 64.7549 51.962C65.9697 52.6856 66.8663 53.6802 67.2718 55.0644C67.3383 55.2899 67.4204 55.5084 67.4956 55.7304C67.4973 59.2243 67.4973 62.713 67.4973 66.2017ZM56.3426 64.7073C59.3803 64.7073 62.3097 64.7073 65.2566 64.7073C65.2566 61.8898 65.3003 59.1247 65.2391 56.3596C65.2059 54.811 64.0086 53.6959 62.4478 53.6207C61.469 53.5735 60.4867 53.5893 59.5062 53.6015C57.5084 53.626 56.3548 54.7813 56.3443 56.7843C56.3321 59.2033 56.3408 61.6223 56.3408 64.0414C56.3426 64.2528 56.3426 64.4661 56.3426 64.7073ZM64.1292 47.9647C64.1292 46.1242 62.6453 44.6298 60.8136 44.6211C58.9993 44.6123 57.4752 46.1137 57.4455 47.935C57.4158 49.7685 58.9556 51.3048 60.8153 51.2978C62.661 51.2908 64.1292 49.8139 64.1292 47.9647Z" fill="#A87E33"/>
<path d="M10.5568 43.4196C10.5568 38.1761 10.5568 32.9903 10.5568 27.8027C10.5201 27.7904 10.4816 27.78 10.4449 27.7677C10.1408 28.7255 9.90656 29.7131 9.51155 30.6307C9.20218 31.349 8.80367 32.0989 8.24786 32.6302C7.1205 33.7104 5.3779 33.7506 4.06877 32.9011C2.7876 32.0692 2.16187 30.4996 2.58136 29.0244C3.57588 25.5287 4.56865 22.0331 5.61561 18.5531C6.43709 15.8177 9.22315 13.6609 12.0599 13.4651C12.2696 13.4512 12.4794 13.4127 12.7957 13.3725C11.7995 11.9305 11.4709 10.4152 11.8397 8.79141C12.1281 7.52073 12.8132 6.48251 13.8392 5.66102C15.6395 4.22255 18.3259 4.07923 20.3167 5.3936C22.0226 6.51921 23.5764 8.88579 22.4001 12.3308C22.6588 12.2119 22.8668 12.1263 23.0661 12.0232C25.7717 10.6214 28.4704 9.20215 31.1865 7.81786C32.7788 7.00686 34.635 7.4578 35.6977 8.85258C36.7254 10.2002 36.6468 12.1508 35.467 13.4179C35.1489 13.7605 34.7381 14.0437 34.3204 14.2622C31.0432 15.9838 27.759 17.6879 24.4678 19.3816C24.1008 19.5703 23.933 19.7696 23.9347 20.2188C23.9522 27.4356 23.947 34.6507 23.9487 41.8676C23.9487 42.0581 23.9679 42.2503 23.9802 42.4566C26.4971 42.1612 28.5455 42.925 29.8267 45.1116C31.2407 47.5236 30.8055 49.8255 29.0332 51.9264C29.4299 52.234 29.8319 52.4944 30.1728 52.8213C31.2145 53.8176 31.7598 55.0585 31.7686 56.497C31.7895 59.5487 31.7825 62.6005 31.7738 65.6539C31.7703 66.5576 31.3438 66.984 30.4454 66.9858C26.8694 66.9945 23.295 66.9928 19.7189 66.9858C18.8101 66.984 18.3906 66.5838 18.3871 65.6662C18.3731 62.6144 18.3609 59.561 18.3958 56.5092C18.4151 54.875 18.8555 54.0116 20.2415 52.5294C17.4974 52.5294 14.8075 52.5294 12.0721 52.5294C12.3745 52.8825 12.6734 53.1918 12.9268 53.5344C13.612 54.459 13.9056 55.5112 13.9039 56.6578C13.9004 59.6221 13.9074 62.5882 13.9004 65.5526C13.8969 66.6205 13.5106 66.9875 12.4217 66.9875C8.95573 66.991 5.48802 66.9893 2.02205 66.9875C0.877211 66.9875 0.515408 66.6135 0.51366 65.4424C0.511912 62.6739 0.550365 59.9035 0.501425 57.1367C0.461225 54.896 1.26873 53.1551 3.26127 51.9736C1.18483 49.3658 0.95936 46.7073 3.20359 44.117C4.88152 42.1752 7.13623 42.0039 10.5568 43.4196ZM19.8815 50.2118C19.892 50.1576 19.9129 50.1139 19.9042 50.0754C19.8815 49.9688 19.85 49.8657 19.8168 49.7608C19.0915 47.4764 19.6368 45.5293 21.3252 43.8496C21.5489 43.6276 21.6975 43.2221 21.6975 42.9005C21.7185 35.1156 21.7255 27.3325 21.6975 19.5476C21.694 18.637 22.0208 18.1179 22.8284 17.7089C26.1702 16.0187 29.4859 14.2744 32.8085 12.5493C33.0602 12.4182 33.3136 12.2888 33.5461 12.1298C34.1386 11.7278 34.3274 11.0199 34.025 10.4082C33.7261 9.80516 33.0322 9.51501 32.3611 9.73175C32.1566 9.79816 31.9643 9.91003 31.7721 10.0097C28.4092 11.754 25.0534 13.5141 21.6765 15.2322C21.2116 15.4682 20.6453 15.5993 20.1227 15.608C17.7683 15.6482 15.4123 15.6097 13.0579 15.6307C10.3086 15.6552 8.32826 17.1251 7.59766 19.6385C7.34947 20.495 7.10477 21.3531 6.85658 22.2113C6.16268 24.6164 5.4583 27.0179 4.77665 29.4264C4.51796 30.3405 5.00561 31.1113 5.86031 31.2267C6.57343 31.3211 7.1205 30.8754 7.41414 29.942C8.46634 26.6002 9.5098 23.2548 10.569 19.9147C10.784 19.2348 11.2594 18.9114 11.8152 19.0023C12.4025 19.0967 12.7503 19.5232 12.794 20.2118C12.8062 20.4076 12.7975 20.6033 12.7975 20.8008C12.7975 28.9335 12.8045 37.0662 12.7922 45.2007C12.7905 46.8699 12.981 48.56 12.3046 50.2065C13.6015 50.2065 14.832 50.2065 16.1429 50.2065C16.1429 43.8846 16.1429 37.5958 16.1429 31.2949C16.9154 31.2949 17.6058 31.2949 18.3801 31.2949C18.3801 37.6098 18.3801 43.8986 18.3801 50.2135C18.9377 50.2118 19.4096 50.2118 19.8815 50.2118ZM11.6404 64.7276C11.6404 61.8454 11.6771 59.0349 11.6247 56.2261C11.5985 54.8558 10.4292 53.7249 9.05186 53.6393C8.03113 53.5746 7.00514 53.5956 5.98091 53.6008C3.91321 53.6131 2.74565 54.7876 2.74041 56.8518C2.73517 59.2708 2.73866 61.6898 2.73866 64.1088C2.73866 64.3151 2.73866 64.5231 2.73866 64.7293C5.75544 64.7276 8.66909 64.7276 11.6404 64.7276ZM20.6156 64.7031C23.6271 64.7031 26.5722 64.7031 29.5383 64.7031C29.5383 61.9048 29.582 59.159 29.5226 56.4166C29.4876 54.7981 28.2851 53.6812 26.6526 53.6113C25.7385 53.5729 24.8226 53.5921 23.9068 53.5973C21.7499 53.6078 20.6226 54.7457 20.6173 56.92C20.6121 59.2953 20.6156 61.6706 20.6156 64.0459C20.6156 64.2592 20.6156 64.4706 20.6156 64.7031ZM7.22887 51.2972C9.05886 51.2884 10.5655 49.7818 10.5637 47.9623C10.562 46.148 9.04487 44.6291 7.22712 44.6187C5.37441 44.6082 3.86252 46.134 3.88175 47.999C3.89923 49.8499 5.3779 51.3059 7.22887 51.2972ZM28.404 47.9728C28.4075 46.1393 26.9218 44.6361 25.0936 44.6222C23.2531 44.6082 21.701 46.162 21.722 47.9937C21.7429 49.8237 23.2496 51.3042 25.0813 51.2989C26.9305 51.2919 28.4005 49.8202 28.404 47.9728ZM17.265 13.3777C19.1072 13.3742 20.5946 11.8938 20.5999 10.0568C20.6051 8.23734 19.1072 6.72022 17.2842 6.69575C15.4542 6.67302 13.8934 8.23734 13.9179 10.0691C13.9423 11.9183 15.4227 13.3812 17.265 13.3777Z" fill="#105F43"/>
<path d="M38.9743 51.977C36.8157 48.6684 36.9049 45.7879 39.1928 43.8321C41.4999 41.8588 44.5657 41.8937 46.7854 43.9457C48.535 45.5642 49.5103 48.9515 46.8798 51.9368C47.0371 52.0469 47.1892 52.1536 47.3395 52.2602C48.6818 53.2058 49.5418 54.4765 49.5767 56.1299C49.6449 59.332 49.6257 62.5375 49.6169 65.7413C49.6152 66.5785 49.18 66.9823 48.3462 66.984C44.7282 66.9945 41.1084 66.9945 37.4904 66.9823C36.6742 66.9788 36.2389 66.5418 36.2372 65.7116C36.2267 62.5952 36.1935 59.477 36.2547 56.3606C36.2931 54.424 37.2772 52.9803 38.9743 51.977ZM47.343 64.7293C47.343 61.7877 47.3989 58.8932 47.3168 56.0041C47.2818 54.7666 46.0723 53.7249 44.8121 53.6427C43.7914 53.5781 42.7654 53.5973 41.7411 53.6008C39.6297 53.6095 38.4639 54.7753 38.4604 56.8797C38.4552 59.276 38.4587 61.6741 38.4604 64.0704C38.4604 64.2818 38.4797 64.4916 38.4919 64.7293C41.451 64.7293 44.3647 64.7293 47.343 64.7293ZM42.9559 51.2989C44.7824 51.2901 46.289 49.7783 46.2838 47.9605C46.2785 46.1445 44.7597 44.6274 42.9437 44.6204C41.0927 44.6151 39.5826 46.1427 39.6018 48.0042C39.6228 49.8499 41.1049 51.3076 42.9559 51.2989Z" fill="#A87E33"/>
<path d="M63.0194 12.3467C63.0194 13.0598 63.0194 13.7327 63.0194 14.4616C55.6015 14.4616 48.1907 14.4616 40.7344 14.4616C40.7344 13.7799 40.7344 13.093 40.7344 12.3467C48.1312 12.3467 55.5438 12.3467 63.0194 12.3467Z" fill="#A87E33"/>
<path d="M36.2656 21.1686C36.2656 20.424 36.2656 19.7353 36.2656 19.0117C43.6922 19.0117 51.0873 19.0117 58.5296 19.0117C58.5296 19.7248 58.5296 20.4275 58.5296 21.1686C51.1118 21.1686 43.7167 21.1686 36.2656 21.1686Z" fill="#A87E33"/>
<path d="M59.6439 5.63184C59.6439 6.36593 59.6439 7.05458 59.6439 7.78343C52.2348 7.78343 44.8572 7.78343 37.4219 7.78343C37.4219 7.0738 37.4219 6.37467 37.4219 5.63184C44.8135 5.63184 52.1911 5.63184 59.6439 5.63184Z" fill="#A87E33"/>
</svg>
