<svg width="65" height="51" viewBox="0 0 65 51" fill="none" xmlns="http://www.w3.org/2000/svg">
<path d="M25.3516 50.3334C19.8009 50.3334 14.0701 50.3248 7.83189 50.3077C4.39412 50.2974 1.34428 47.9406 0.415994 44.5744C0.343255 44.31 0.279175 44.0423 0.211632 43.759C0.187386 43.6595 0.164871 43.5599 0.140625 43.4586V7.64617C0.178726 7.53287 0.225487 7.39383 0.253197 7.23076C0.900919 3.49554 4.08757 0.774802 7.83189 0.764503C12.7314 0.749054 17.8352 0.742188 23.4344 0.742188C28.7495 0.742188 34.4716 0.749054 41.4442 0.762786C43.6263 0.766219 45.5262 1.63995 47.0901 3.35478C48.5449 4.95118 49.2013 6.8617 49.0956 9.1945C49.0852 9.43482 49.087 9.6717 49.0904 9.92232C49.0922 10.0442 49.0939 10.1729 49.0939 10.312V11.759L50.3755 11.0655C50.495 11.002 50.5972 10.9471 50.6872 10.8973C50.8691 10.7995 51.0111 10.7239 51.1496 10.645L55.3789 8.22293C57.8797 6.79132 60.3788 5.358 62.8814 3.92811C63.2035 3.74444 63.5135 3.6466 63.7802 3.6466C64.059 3.6466 64.298 3.75131 64.5128 3.96588C64.6254 4.07917 64.7362 4.25597 64.8522 4.44136C64.873 4.47569 64.8955 4.51002 64.9163 4.54435V46.5313C64.324 47.4359 64.0002 47.4359 63.8391 47.4359C63.5377 47.4359 63.1152 47.278 62.5454 46.9501C58.7301 44.7632 54.9113 42.578 51.0942 40.3946C50.947 40.3105 50.8032 40.2367 50.6353 40.1525C50.5521 40.1096 50.4603 40.065 50.3582 40.0101L49.0904 39.3526V40.7705C49.0904 41.0074 49.0922 41.2305 49.0922 41.4451C49.0939 41.8674 49.0956 42.2673 49.0887 42.6553C49.0021 46.9295 45.6163 50.2905 41.3784 50.3042C36.2728 50.3248 30.8815 50.3334 25.3516 50.3334ZM24.4718 3.15223C19.0822 3.15223 13.6943 3.15395 8.3047 3.15566C4.87385 3.15566 2.56872 5.44383 2.56699 8.84776C2.56525 19.9624 2.56525 31.0771 2.56699 42.1918C2.56699 45.6163 4.88597 47.9165 8.3376 47.9182C12.6101 47.92 16.8827 47.92 21.1552 47.92C27.7502 47.92 34.3435 47.9182 40.9385 47.9148C41.3645 47.9148 41.8581 47.9062 42.3465 47.8015C44.9634 47.2385 46.6589 45.0997 46.6641 42.3532C46.671 38.3776 46.671 34.3369 46.6693 30.4283C46.6693 28.8027 46.6675 27.1771 46.6675 25.5498V20.68C46.6693 16.725 46.6693 12.7684 46.6641 8.81342C46.6589 5.4301 44.371 3.15566 40.9679 3.15566C35.4709 3.15223 29.9705 3.15223 24.4718 3.15223ZM61.2447 7.68908C61.2032 7.70625 61.1668 7.7217 61.1339 7.73543C61.0438 7.77148 60.9434 7.81267 60.836 7.87447C59.8887 8.4169 58.9396 8.95933 57.9923 9.50176C55.3529 11.0123 52.6252 12.5761 49.9356 14.097C49.0904 14.5759 49.0904 15.326 49.0904 15.6865C49.0956 21.6361 49.0991 28.5538 49.0852 35.3805C49.0835 36.1358 49.39 36.6611 50.0499 37.0336C52.6581 38.5098 55.3044 40.0238 57.8641 41.4897C58.782 42.015 59.6982 42.5403 60.6161 43.0638C60.7442 43.1376 60.8689 43.1994 61.0023 43.2664C61.0629 43.2973 61.1287 43.3299 61.1997 43.3659L62.464 44.0165V7.15867L61.2447 7.68908Z" fill="#105F43"/>
<path d="M24.652 34.0682C24.4874 34.0682 24.3212 34.0304 24.1584 33.9566C23.7618 33.7764 23.3964 33.4863 23.3981 32.6057C23.405 29.3614 23.405 26.0639 23.4033 22.8745V16.3328L21.9087 17.9L20.8609 18.9968C20.0625 19.8311 19.3057 20.6224 18.554 21.4189C18.1349 21.8635 17.8214 21.9201 17.5946 21.9201C17.5599 21.9201 17.5236 21.9184 17.4889 21.915C16.7823 21.8532 16.5572 21.4893 16.4394 21.1803C16.2437 20.667 16.3234 20.2602 16.6975 19.8654C17.8007 18.7016 18.9073 17.5395 20.0123 16.3791L21.2384 15.0917C21.4774 14.8411 21.7164 14.5887 21.9537 14.3381C22.5044 13.7562 23.0742 13.1554 23.6406 12.5735C23.864 12.3452 24.2173 12.0723 24.6312 12.0723C25.0347 12.0723 25.369 12.3332 25.5803 12.5529C27.7746 14.8394 30.0468 17.2271 32.5251 19.8517C33.036 20.3941 33.0412 21.1082 32.5372 21.5888C32.3069 21.8086 32.028 21.9253 31.7319 21.9253C31.3838 21.9253 31.0357 21.7639 30.7499 21.4704C29.9862 20.6859 29.2311 19.8895 28.4309 19.0466C28.0724 18.669 27.7053 18.281 27.3243 17.8811L25.8297 16.3122L25.8314 23.1337C25.8331 26.287 25.8349 29.5468 25.8262 32.7533C25.821 33.5755 25.227 34.0682 24.652 34.0682Z" fill="#A87E33"/>
<path d="M19.6633 38.9808C18.4978 38.9808 17.3305 38.9808 16.165 38.9791C15.6904 38.9791 15.2852 38.8349 15.0271 38.5757C14.8193 38.368 14.7154 38.1002 14.7188 37.7792C14.7275 37.0634 15.2955 36.5811 16.1338 36.5794C18.9325 36.5759 21.7329 36.5742 24.5317 36.5742C27.4014 36.5742 30.2728 36.5759 33.1425 36.5794C33.8976 36.5811 34.4345 36.9999 34.5142 37.6488C34.5817 38.2152 34.2025 38.7783 33.65 38.9293C33.4941 38.9722 33.2742 38.9757 33.0438 38.9757C31.4921 38.9791 29.9403 38.9791 28.3885 38.9791L19.6633 38.9808Z" fill="#A87E33"/>
</svg>
