<svg width="48" height="48" viewBox="0 0 48 48" fill="none" xmlns="http://www.w3.org/2000/svg">
<circle cx="24" cy="24" r="24" fill="#e1e1e1"/>
<path d="M33.898 35C33.898 30.743 29.663 27.3 24.449 27.3C19.235 27.3 15 30.743 15 35M24.449 24C25.9077 24 27.3066 23.4205 28.3381 22.3891C29.3695 21.3576 29.949 19.9587 29.949 18.5C29.949 17.0413 29.3695 15.6424 28.3381 14.6109C27.3066 13.5795 25.9077 13 24.449 13C22.9903 13 21.5914 13.5795 20.5599 14.6109C19.5285 15.6424 18.949 17.0413 18.949 18.5C18.949 19.9587 19.5285 21.3576 20.5599 22.3891C21.5914 23.4205 22.9903 24 24.449 24V24Z" stroke="black" stroke-width="1.5" stroke-linecap="round" stroke-linejoin="round"/>
</svg>
