<svg width="28" height="28" viewBox="0 0 28 28" fill="none" xmlns="http://www.w3.org/2000/svg">
<path fill-rule="evenodd" clip-rule="evenodd" d="M8.84435 18.1686C10.1921 17.4061 11.8283 17 13.5 17C15.1717 17 16.8079 17.4061 18.1557 18.1686C19.5031 18.9309 20.5068 20.0198 20.9684 21.2899C21.0688 21.5662 20.9223 21.8702 20.6413 21.9689C20.3602 22.0676 20.051 21.9236 19.9506 21.6473C19.5912 20.6583 18.7857 19.7509 17.6166 19.0894C16.4477 18.4281 15.0005 18.0625 13.5 18.0625C11.9995 18.0625 10.5523 18.4281 9.38342 19.0894C8.21425 19.7509 7.40881 20.6583 7.04939 21.6473C6.94899 21.9236 6.63976 22.0676 6.35872 21.9689C6.07768 21.8702 5.93124 21.5662 6.03165 21.2899C6.49324 20.0198 7.4969 18.9309 8.84435 18.1686Z" fill="black"/>
<path fill-rule="evenodd" clip-rule="evenodd" d="M13.5 7.17391C11.6631 7.17391 10.1739 8.66305 10.1739 10.5C10.1739 12.3369 11.6631 13.8261 13.5 13.8261C15.3369 13.8261 16.8261 12.3369 16.8261 10.5C16.8261 8.66305 15.3369 7.17391 13.5 7.17391ZM9 10.5C9 8.01472 11.0147 6 13.5 6C15.9853 6 18 8.01472 18 10.5C18 12.9853 15.9853 15 13.5 15C11.0147 15 9 12.9853 9 10.5Z" fill="black"/>
</svg>
