<svg width="18" height="16" viewBox="0 0 18 16" fill="none" xmlns="http://www.w3.org/2000/svg">
<path fill-rule="evenodd" clip-rule="evenodd" d="M8.82852 3.25624C10.0707 0.594609 13.6193 0.203825 15.3872 2.53398L15.6362 2.86219C17.0878 4.77543 16.8782 7.50382 15.1523 9.16181L9.5447 14.5487C9.45803 14.632 9.37314 14.7136 9.29482 14.7753C9.20776 14.8439 9.09761 14.9139 8.95501 14.9425C8.85265 14.963 8.74736 14.963 8.64499 14.9425C8.50239 14.9139 8.39225 14.8439 8.30518 14.7753C8.22687 14.7136 8.14199 14.632 8.05533 14.5488L2.44769 9.16181C0.721775 7.50382 0.512187 4.77543 1.96376 2.86219L2.21277 2.53398C3.98066 0.203828 7.52926 0.594608 8.77148 3.25624C8.77628 3.26653 8.78035 3.26912 8.7822 3.27026C8.78557 3.27233 8.79171 3.27464 8.8 3.27464C8.80829 3.27464 8.81443 3.27233 8.8178 3.27026C8.81965 3.26912 8.82372 3.26653 8.82852 3.25624Z" stroke="black" stroke-linejoin="round"/>
</svg>
